G04 #@! TF.FileFunction,Copper,L2,Bot,Signal*
%FSLAX46Y46*%
G04 Gerber Fmt 4.6, Leading zero omitted, Abs format (unit mm)*
G04 Created by KiCad (PCBNEW 4.0.1-stable) date 30.08.2016 22:59:34*
%MOMM*%
G01*
G04 APERTURE LIST*
%ADD10C,0.100000*%
%ADD11R,1.800000X1.800000*%
%ADD12O,1.800000X1.800000*%
%ADD13O,3.500120X5.501640*%
%ADD14C,1.800000*%
%ADD15C,7.000000*%
%ADD16O,1.501140X0.899160*%
%ADD17R,3.200000X2.600000*%
%ADD18R,2.300000X2.300000*%
%ADD19C,2.300000*%
%ADD20C,15.000000*%
%ADD21C,0.700000*%
%ADD22C,0.900000*%
%ADD23C,0.500000*%
%ADD24C,0.250000*%
%ADD25C,0.300000*%
%ADD26C,1.000000*%
%ADD27C,1.800000*%
%ADD28C,0.254000*%
%ADD29C,0.200000*%
G04 APERTURE END LIST*
D10*
D11*
X164900000Y-118400000D03*
D12*
X154740000Y-118400000D03*
X152200000Y-118400000D03*
X149660000Y-118400000D03*
X147120000Y-118400000D03*
X144580000Y-118400000D03*
D13*
X159470000Y-77600000D03*
X154020000Y-77600000D03*
X164920000Y-77600000D03*
X120530000Y-77600000D03*
X115080000Y-77600000D03*
X125980000Y-77600000D03*
X120530000Y-122400000D03*
X125980000Y-122400000D03*
X115080000Y-122400000D03*
X159470000Y-122400000D03*
X164920000Y-122400000D03*
X154020000Y-122400000D03*
D14*
X133800000Y-110400000D03*
X133800000Y-102900000D03*
D15*
X105000000Y-55000000D03*
X105000000Y-145000000D03*
X175000000Y-55000000D03*
X175000000Y-145000000D03*
D16*
X169500000Y-77670000D03*
X169500000Y-78940000D03*
X169500000Y-76400000D03*
X169500000Y-122330000D03*
X169500000Y-123600000D03*
X169500000Y-121060000D03*
D14*
X146100000Y-90600000D03*
X146100000Y-98100000D03*
D17*
X159500000Y-89200000D03*
X159500000Y-82000000D03*
X120700000Y-110800000D03*
X120700000Y-118000000D03*
D11*
X173180000Y-92250000D03*
D12*
X175720000Y-92250000D03*
X173180000Y-94790000D03*
X175720000Y-94790000D03*
X173180000Y-97330000D03*
X175720000Y-97330000D03*
X173180000Y-99870000D03*
X175720000Y-99870000D03*
X173180000Y-102410000D03*
X175720000Y-102410000D03*
X173180000Y-104950000D03*
X175720000Y-104950000D03*
X173180000Y-107490000D03*
X175720000Y-107490000D03*
X173180000Y-110030000D03*
X175720000Y-110030000D03*
D18*
X159500000Y-92500000D03*
D19*
X159500000Y-107500000D03*
D18*
X120500000Y-107400000D03*
D19*
X120500000Y-92400000D03*
D11*
X154000000Y-81600000D03*
D12*
X164160000Y-81600000D03*
X166700000Y-81600000D03*
X169240000Y-81600000D03*
X171780000Y-81600000D03*
X174320000Y-81600000D03*
D11*
X115100000Y-81600000D03*
D12*
X125260000Y-81600000D03*
X127800000Y-81600000D03*
X130340000Y-81600000D03*
X132880000Y-81600000D03*
X135420000Y-81600000D03*
D11*
X126000000Y-118400000D03*
D12*
X115840000Y-118400000D03*
X113300000Y-118400000D03*
X110760000Y-118400000D03*
X108220000Y-118400000D03*
X105680000Y-118400000D03*
D20*
X108000000Y-108000000D03*
D21*
X108000000Y-102000000D03*
X105000000Y-102803848D03*
X102803848Y-105000000D03*
X102000000Y-108000000D03*
X102803848Y-111000000D03*
X105000000Y-113196152D03*
X108000000Y-114000000D03*
X111000000Y-113196152D03*
X113196152Y-111000000D03*
X114000000Y-108000000D03*
X113196152Y-105000000D03*
X111000000Y-102803848D03*
D20*
X108000000Y-92000000D03*
D21*
X108000000Y-86000000D03*
X105000000Y-86803848D03*
X102803848Y-89000000D03*
X102000000Y-92000000D03*
X102803848Y-95000000D03*
X105000000Y-97196152D03*
X108000000Y-98000000D03*
X111000000Y-97196152D03*
X113196152Y-95000000D03*
X114000000Y-92000000D03*
X113196152Y-89000000D03*
X111000000Y-86803848D03*
D20*
X108000000Y-68000000D03*
D21*
X108000000Y-62000000D03*
X105000000Y-62803848D03*
X102803848Y-65000000D03*
X102000000Y-68000000D03*
X102803848Y-71000000D03*
X105000000Y-73196152D03*
X108000000Y-74000000D03*
X111000000Y-73196152D03*
X113196152Y-71000000D03*
X114000000Y-68000000D03*
X113196152Y-65000000D03*
X111000000Y-62803848D03*
D20*
X108000000Y-132000000D03*
D21*
X108000000Y-126000000D03*
X105000000Y-126803848D03*
X102803848Y-129000000D03*
X102000000Y-132000000D03*
X102803848Y-135000000D03*
X105000000Y-137196152D03*
X108000000Y-138000000D03*
X111000000Y-137196152D03*
X113196152Y-135000000D03*
X114000000Y-132000000D03*
X113196152Y-129000000D03*
X111000000Y-126803848D03*
D22*
X175638088Y-84888742D03*
X175900000Y-116600000D03*
X166300000Y-84400000D03*
X146800001Y-82100000D03*
X147600000Y-79600000D03*
X150300000Y-82200000D03*
X141600000Y-79499980D03*
X142900000Y-118400000D03*
X169700000Y-106500000D03*
X132800000Y-120600000D03*
X172100000Y-117600000D03*
X171000000Y-115200000D03*
X164700000Y-111800000D03*
X167900000Y-108600000D03*
X165900000Y-110500000D03*
X171100000Y-110000000D03*
X169300000Y-111700000D03*
X167600000Y-113400000D03*
X165700000Y-88400000D03*
X176000000Y-115300000D03*
X176800000Y-117600000D03*
X179000000Y-116100000D03*
X177900000Y-114100000D03*
X167700000Y-117500000D03*
X137400000Y-82000000D03*
X144600000Y-120600000D03*
X139100000Y-120600000D03*
X128900000Y-120800000D03*
X150800000Y-79400000D03*
X165900000Y-115200000D03*
X165399980Y-85500020D03*
X148399998Y-119600000D03*
X128400000Y-131525000D03*
X128400000Y-128450000D03*
X128400000Y-127425000D03*
X128400000Y-129475000D03*
X128400000Y-134600000D03*
X128400000Y-137675000D03*
X128400000Y-136650000D03*
X128400000Y-133575000D03*
X128400000Y-135625000D03*
X127500000Y-137175000D03*
X127500000Y-136150000D03*
X127500000Y-135125000D03*
X127500000Y-134100000D03*
X127500000Y-133075000D03*
X127500000Y-132050000D03*
X127500000Y-131025000D03*
X127500000Y-128975000D03*
X127500000Y-127950000D03*
X127500000Y-126925000D03*
X128400000Y-132550000D03*
X147600000Y-125725000D03*
X147600000Y-127775000D03*
X147600000Y-126750000D03*
X148500000Y-126225000D03*
X148500000Y-136475000D03*
X147600000Y-135975000D03*
X147600000Y-131875000D03*
X148500000Y-131350000D03*
X148500000Y-132375000D03*
X147600000Y-128800000D03*
X148500000Y-130325000D03*
X148500000Y-129300000D03*
X147600000Y-129825000D03*
X148500000Y-128275000D03*
X147600000Y-133925000D03*
X147600000Y-134950000D03*
X148500000Y-135450000D03*
X148500000Y-134425000D03*
X148500000Y-127250000D03*
X147600000Y-130850000D03*
X147600000Y-124700000D03*
X148500000Y-125200000D03*
X148500000Y-137500000D03*
X147600000Y-138000000D03*
X147600000Y-137000000D03*
X147600000Y-132900000D03*
X148500000Y-133400000D03*
X160800000Y-129450000D03*
X160800000Y-128425000D03*
X160800000Y-130475000D03*
X160800000Y-127400000D03*
X160800000Y-126375000D03*
X160800000Y-125350000D03*
X160800000Y-131500000D03*
X160800000Y-132525000D03*
X160800000Y-133550000D03*
X160800000Y-134575000D03*
X160800000Y-136625000D03*
X160800000Y-135600000D03*
X160800000Y-137650000D03*
X158800000Y-135550000D03*
X158800000Y-136575000D03*
X158800000Y-137600000D03*
X158800000Y-134525000D03*
X158800000Y-132475000D03*
X158800000Y-131450000D03*
X158800000Y-133500000D03*
X158800000Y-125300000D03*
X158800000Y-127350000D03*
X158800000Y-126325000D03*
X158800000Y-129400000D03*
X158800000Y-128375000D03*
X158800000Y-130425000D03*
X128400000Y-125400000D03*
X128400000Y-130500000D03*
X128400000Y-126400000D03*
X128400000Y-138700000D03*
X127500000Y-138200000D03*
X127500000Y-130000000D03*
X127500000Y-125900000D03*
X115600000Y-126100000D03*
X115600000Y-127125000D03*
X115600000Y-128150000D03*
X115600000Y-129175000D03*
X115600000Y-130200000D03*
X115600000Y-131225000D03*
X115600000Y-132250000D03*
X115600000Y-135325000D03*
X115600000Y-134300000D03*
X115600000Y-133275000D03*
X115600000Y-136350000D03*
X115600000Y-137375000D03*
X115600000Y-138400000D03*
X117200000Y-138400000D03*
X117200000Y-137375000D03*
X117200000Y-136350000D03*
X117200000Y-135325000D03*
X117200000Y-134300000D03*
X117200000Y-133275000D03*
X117200000Y-132250000D03*
X117200000Y-131225000D03*
X117200000Y-130200000D03*
X117200000Y-129175000D03*
X117200000Y-128150000D03*
X117200000Y-127125000D03*
X117200000Y-126100000D03*
X153900000Y-73900000D03*
X166000000Y-67000000D03*
X166000000Y-68000000D03*
X166000000Y-69000000D03*
X166000000Y-70000000D03*
X166000000Y-71000000D03*
X166000000Y-72000000D03*
X166000000Y-73000000D03*
X166000000Y-74000000D03*
X166000000Y-65000000D03*
X166000000Y-66000000D03*
X153918692Y-72955880D03*
X153118692Y-73455880D03*
X153118692Y-63455880D03*
X153918692Y-64955880D03*
X153118692Y-64455880D03*
X153918692Y-63955880D03*
X153918692Y-61955880D03*
X153918692Y-62955880D03*
X153118692Y-62455880D03*
X153118692Y-61455880D03*
X153918692Y-70955880D03*
X153918692Y-71955880D03*
X153118692Y-71455880D03*
X153118692Y-70455880D03*
X153118692Y-72455880D03*
X153918692Y-67955880D03*
X153118692Y-67455880D03*
X153118692Y-68455880D03*
X153118692Y-69455880D03*
X153918692Y-69955880D03*
X153918692Y-68955880D03*
X153918692Y-65955880D03*
X153918692Y-66955880D03*
X153118692Y-65455880D03*
X153118692Y-66455880D03*
X166000000Y-64000000D03*
X166000000Y-63000000D03*
X166000000Y-62000000D03*
X164200000Y-63000000D03*
X164200000Y-62000000D03*
X164200000Y-64000000D03*
X164200000Y-70000000D03*
X164200000Y-69000000D03*
X164200000Y-67000000D03*
X164200000Y-68000000D03*
X164200000Y-65000000D03*
X164200000Y-66000000D03*
X164200000Y-74000000D03*
X164200000Y-72000000D03*
X164200000Y-73000000D03*
X164200000Y-71000000D03*
X132100000Y-61700000D03*
X132100000Y-62700000D03*
X132100000Y-63700000D03*
X132100000Y-64700000D03*
X132100000Y-65700000D03*
X132100000Y-66700000D03*
X132100000Y-67700000D03*
X132100000Y-68700000D03*
X132100000Y-69700000D03*
X132100000Y-70700000D03*
X132100000Y-71700000D03*
X132100000Y-72700000D03*
X132100000Y-73700000D03*
X132100000Y-74700000D03*
X131300000Y-74200000D03*
X131300000Y-73200000D03*
X131300000Y-72200000D03*
X131300000Y-71200000D03*
X131300000Y-70200000D03*
X131300000Y-69200000D03*
X131300000Y-68200000D03*
X131300000Y-67200000D03*
X131300000Y-66200000D03*
X131300000Y-65200000D03*
X131300000Y-64200000D03*
X131300000Y-63200000D03*
X131300000Y-62200000D03*
X119300000Y-74200000D03*
X119300000Y-73200000D03*
X119300000Y-72200000D03*
X119300000Y-71200000D03*
X119300000Y-70200000D03*
X119300000Y-69200000D03*
X119300000Y-68200000D03*
X119300000Y-67200000D03*
X119300000Y-66200000D03*
X119300000Y-65200000D03*
X119300000Y-64200000D03*
X119300000Y-63200000D03*
X119300000Y-62200000D03*
X121100000Y-62200000D03*
X121100000Y-74200000D03*
X121100000Y-72200000D03*
X121100000Y-70200000D03*
X121100000Y-68200000D03*
X121100000Y-66200000D03*
X121100000Y-64200000D03*
X121100000Y-73200000D03*
X121100000Y-71200000D03*
X121100000Y-69200000D03*
X121100000Y-67200000D03*
X121100000Y-65200000D03*
X121100000Y-63200000D03*
X165399980Y-86600033D03*
X174400000Y-96099990D03*
D23*
X127800000Y-81600000D02*
X130900000Y-78500000D01*
X130900000Y-78500000D02*
X148200000Y-78500000D01*
X148200000Y-78500000D02*
X153500000Y-83800000D01*
X153500000Y-83800000D02*
X164500000Y-83800000D01*
X164500000Y-83800000D02*
X166700000Y-81600000D01*
X175638088Y-84888742D02*
X178900000Y-88150654D01*
X178900000Y-88150654D02*
X178900000Y-99230000D01*
X178900000Y-99230000D02*
X175720000Y-102410000D01*
X115410001Y-116249999D02*
X115410001Y-116289999D01*
X115410001Y-116289999D02*
X113300000Y-118400000D01*
X115410001Y-116249999D02*
X127111493Y-116249999D01*
X127111493Y-116249999D02*
X132361514Y-121500022D01*
X132361514Y-121500022D02*
X150372770Y-121500022D01*
X150372770Y-121500022D02*
X152200000Y-119672792D01*
X152200000Y-119672792D02*
X152200000Y-118400000D01*
X175720000Y-102410000D02*
X178900000Y-105590000D01*
X177000000Y-116600000D02*
X175900000Y-116600000D01*
X178900000Y-105590000D02*
X178900000Y-114700000D01*
X178900000Y-114700000D02*
X177000000Y-116600000D01*
X150300000Y-82200000D02*
X152700000Y-84600000D01*
X165663604Y-84400000D02*
X166300000Y-84400000D01*
X152700000Y-84600000D02*
X165463604Y-84600000D01*
X165463604Y-84600000D02*
X165663604Y-84400000D01*
X165700000Y-88400000D02*
X165700000Y-87800000D01*
X166300000Y-87200000D02*
X166300000Y-84400000D01*
X165700000Y-87800000D02*
X166300000Y-87200000D01*
X166300000Y-84400000D02*
X166440000Y-84400000D01*
X166440000Y-84400000D02*
X169240000Y-81600000D01*
X141600000Y-79499980D02*
X141599980Y-79500000D01*
X141599980Y-79500000D02*
X132440000Y-79500000D01*
X132440000Y-79500000D02*
X130340000Y-81600000D01*
X146700001Y-82000000D02*
X146800001Y-82100000D01*
X137400000Y-82000000D02*
X146700001Y-82000000D01*
X147700000Y-79600000D02*
X147600000Y-79600000D01*
X150300000Y-82200000D02*
X147700000Y-79600000D01*
X147499980Y-79499980D02*
X147600000Y-79600000D01*
X141600000Y-79499980D02*
X147499980Y-79499980D01*
D24*
X176000000Y-115300000D02*
X176700000Y-115300000D01*
X176700000Y-115300000D02*
X177900000Y-114100000D01*
D25*
X173180000Y-91250000D02*
X173180000Y-85540000D01*
X173180000Y-85540000D02*
X170840000Y-83200000D01*
X170840000Y-83200000D02*
X169240000Y-81600000D01*
D23*
X132800000Y-120600000D02*
X132451457Y-120600000D01*
X114050012Y-115549988D02*
X111200000Y-118400000D01*
X111200000Y-118400000D02*
X111000000Y-118400000D01*
X132451457Y-120600000D02*
X127401445Y-115549988D01*
X111000000Y-118400000D02*
X110760000Y-118400000D01*
X127401445Y-115549988D02*
X114050012Y-115549988D01*
X144600000Y-120600000D02*
X145236396Y-120600000D01*
X145236398Y-120600002D02*
X148932002Y-120600002D01*
X148932002Y-120600002D02*
X149660000Y-119872004D01*
X149660000Y-119672792D02*
X149660000Y-118400000D01*
X145236396Y-120600000D02*
X145236398Y-120600002D01*
X149660000Y-119872004D02*
X149660000Y-119672792D01*
X143963604Y-120600000D02*
X143963592Y-120600012D01*
X139736396Y-120600000D02*
X139100000Y-120600000D01*
X144600000Y-120600000D02*
X143963604Y-120600000D01*
X139736408Y-120600012D02*
X139736396Y-120600000D01*
X143963592Y-120600012D02*
X139736408Y-120600012D01*
X132800000Y-120600000D02*
X139100000Y-120600000D01*
D24*
X164700000Y-111800000D02*
X165900000Y-113000000D01*
X165900000Y-113000000D02*
X165900000Y-115200000D01*
X165900000Y-110500000D02*
X166000000Y-110500000D01*
X166000000Y-110500000D02*
X167900000Y-108600000D01*
X167600000Y-113400000D02*
X169300000Y-111700000D01*
X176800000Y-117600000D02*
X176600000Y-117800000D01*
X176600000Y-117800000D02*
X168000000Y-117800000D01*
X168000000Y-117800000D02*
X167700000Y-117500000D01*
X169500000Y-121060000D02*
X169500000Y-117000000D01*
X169500000Y-117000000D02*
X167700000Y-115200000D01*
X167700000Y-115200000D02*
X165900000Y-115200000D01*
D25*
X171100000Y-76600000D02*
X170900000Y-76400000D01*
X170900000Y-76400000D02*
X169500000Y-76400000D01*
X171100000Y-79900000D02*
X171100000Y-76600000D01*
D23*
X165900000Y-114770000D02*
X173180000Y-107490000D01*
X165900000Y-115200000D02*
X165900000Y-114770000D01*
D26*
X173180000Y-104950000D02*
X173180000Y-107490000D01*
X173180000Y-102410000D02*
X173180000Y-104950000D01*
X173180000Y-99870000D02*
X173180000Y-102410000D01*
X173180000Y-97330000D02*
X173180000Y-99870000D01*
X173180000Y-94790000D02*
X173180000Y-97330000D01*
X173180000Y-92250000D02*
X173180000Y-94790000D01*
D23*
X108000000Y-109000000D02*
X108000000Y-111600000D01*
X108000000Y-109000000D02*
X108000000Y-106400000D01*
X108000000Y-109000000D02*
X107900000Y-109000000D01*
X108000000Y-109000000D02*
X107800000Y-109000000D01*
D24*
X124600000Y-93000000D02*
X124300000Y-93000000D01*
X124300000Y-92000000D02*
X124300000Y-93000000D01*
D23*
X154000000Y-89200000D02*
X154000000Y-90200000D01*
D25*
X118000000Y-95400000D02*
X120500000Y-92900000D01*
D23*
X156000000Y-108000000D02*
X156000000Y-117140000D01*
X156000000Y-117140000D02*
X154740000Y-118400000D01*
X146100000Y-98100000D02*
X154000000Y-90200000D01*
X154000000Y-89200000D02*
X159500000Y-89200000D01*
X146100000Y-98100000D02*
X156000000Y-108000000D01*
X156000000Y-108000000D02*
X159500000Y-108000000D01*
X133800000Y-102900000D02*
X141300000Y-102900000D01*
X141300000Y-102900000D02*
X146100000Y-98100000D01*
D25*
X125260000Y-81600000D02*
X125260000Y-80327208D01*
X125260000Y-80327208D02*
X125980000Y-79607208D01*
X125980000Y-79607208D02*
X125980000Y-77600000D01*
D24*
X124600000Y-92000000D02*
X124300000Y-92000000D01*
X124300000Y-93000000D02*
X119600000Y-93000000D01*
D25*
X125260000Y-81600000D02*
X124360001Y-82499999D01*
X124360001Y-82499999D02*
X124360001Y-91939999D01*
X124360001Y-91939999D02*
X124300000Y-92000000D01*
X154740000Y-118400000D02*
X154740000Y-119672792D01*
X154740000Y-119672792D02*
X154020000Y-120392792D01*
X154020000Y-120392792D02*
X154020000Y-122400000D01*
X154020000Y-121399240D02*
X154020000Y-122400000D01*
D24*
X132500000Y-100900000D02*
X132500000Y-102400000D01*
X132500000Y-102400000D02*
X133700000Y-103600000D01*
D25*
X118000000Y-95400000D02*
X118000000Y-109900000D01*
X118000000Y-109900000D02*
X118900000Y-110800000D01*
X118900000Y-110800000D02*
X119200000Y-110800000D01*
D23*
X108000000Y-92000000D02*
X119000000Y-92000000D01*
X119000000Y-92000000D02*
X120000000Y-93000000D01*
D24*
X132500000Y-100900000D02*
X124600000Y-93000000D01*
D25*
X134180000Y-80300000D02*
X147200000Y-80300000D01*
X132880000Y-81600000D02*
X134180000Y-80300000D01*
X152200000Y-85300000D02*
X165199960Y-85300000D01*
X147200000Y-80300000D02*
X152200000Y-85300000D01*
X165199960Y-85300000D02*
X165399980Y-85500020D01*
X148399998Y-119600000D02*
X148400000Y-119600000D01*
X111601459Y-117149999D02*
X110159999Y-117149999D01*
X148400000Y-119600000D02*
X148224989Y-119775011D01*
X110159999Y-117149999D02*
X109809997Y-117500001D01*
X148224989Y-119775011D02*
X132475011Y-119775011D01*
X132475011Y-119775011D02*
X127600000Y-114900000D01*
X127600000Y-114900000D02*
X113851458Y-114900000D01*
X113851458Y-114900000D02*
X111601459Y-117149999D01*
X109809997Y-117500001D02*
X109119999Y-117500001D01*
X109119999Y-117500001D02*
X108220000Y-118400000D01*
X147600000Y-132900000D02*
X147600000Y-124700000D01*
X148500000Y-133400000D02*
X148500000Y-125200000D01*
X148500000Y-137500000D02*
X148500000Y-133400000D01*
X147600000Y-137000000D02*
X147600000Y-132900000D01*
X128400000Y-126400000D02*
X128400000Y-130500000D01*
X128400000Y-130500000D02*
X128400000Y-138700000D01*
X127500000Y-130000000D02*
X127500000Y-138200000D01*
X127500000Y-125900000D02*
X127500000Y-130000000D01*
X117200000Y-126100000D02*
X127300000Y-126100000D01*
X115600000Y-138400000D02*
X117200000Y-138400000D01*
X115600000Y-137375000D02*
X115600000Y-138400000D01*
X115600000Y-136350000D02*
X115600000Y-137375000D01*
X115600000Y-135325000D02*
X115600000Y-136350000D01*
X115600000Y-134300000D02*
X115600000Y-135325000D01*
X115600000Y-133275000D02*
X115600000Y-134300000D01*
X115600000Y-132250000D02*
X115600000Y-133275000D01*
X115600000Y-131225000D02*
X115600000Y-132250000D01*
X115600000Y-130200000D02*
X115600000Y-131225000D01*
X115600000Y-129175000D02*
X115600000Y-130200000D01*
X115600000Y-128150000D02*
X115600000Y-129175000D01*
X115600000Y-127125000D02*
X115600000Y-128150000D01*
X115600000Y-126100000D02*
X115600000Y-127125000D01*
X115080000Y-122400000D02*
X115080000Y-125580000D01*
X115080000Y-125580000D02*
X115600000Y-126100000D01*
X115700000Y-130200000D02*
X115700000Y-129400000D01*
X115700000Y-131400000D02*
X115600000Y-131300000D01*
X115300000Y-133300000D02*
X115500000Y-133100000D01*
X117300000Y-136200000D02*
X117300000Y-137200000D01*
X117200000Y-134100000D02*
X117200000Y-135200000D01*
X117200000Y-132200000D02*
X117200000Y-133200000D01*
X117200000Y-130200000D02*
X117200000Y-131200000D01*
X117200000Y-128200000D02*
X117200000Y-129200000D01*
X117200000Y-126100000D02*
X117200000Y-127200000D01*
D27*
X116240000Y-118400000D02*
X115900000Y-118740000D01*
X115900000Y-118740000D02*
X115900000Y-121580000D01*
X115900000Y-121580000D02*
X115080000Y-122400000D01*
X116240000Y-118400000D02*
X118800000Y-118400000D01*
X118800000Y-118400000D02*
X119200000Y-118000000D01*
D25*
X119000000Y-118200000D02*
X119200000Y-118000000D01*
X114200000Y-121120000D02*
X115080000Y-122000000D01*
X115080000Y-122000000D02*
X115080000Y-123000760D01*
X115080000Y-123000760D02*
X115499999Y-123420759D01*
X115499999Y-123420759D02*
X115499999Y-124500001D01*
X115499999Y-124500001D02*
X108000000Y-132000000D01*
X159470000Y-122000000D02*
X159470000Y-125050820D01*
X159470000Y-125050820D02*
X152520820Y-132000000D01*
X152520820Y-132000000D02*
X108000000Y-132000000D01*
D24*
X107494000Y-128750000D02*
X107000000Y-128750000D01*
X114071067Y-128750000D02*
X107000000Y-128750000D01*
D25*
X159500000Y-82000000D02*
X163760000Y-82000000D01*
X163760000Y-82000000D02*
X164160000Y-81600000D01*
X164160000Y-81600000D02*
X164160000Y-80327208D01*
X164160000Y-80327208D02*
X164920000Y-79567208D01*
X164920000Y-79567208D02*
X164920000Y-77600000D01*
X166000000Y-67000000D02*
X166000000Y-68000000D01*
X166000000Y-71000000D02*
X166000000Y-72000000D01*
X153918692Y-69955880D02*
X153918692Y-68955880D01*
X153918692Y-67955880D02*
X153918692Y-66955880D01*
X153918692Y-72955880D02*
X153918692Y-71955880D01*
X153918692Y-65955880D02*
X153918692Y-64955880D01*
X153918692Y-63955880D02*
X153918692Y-62955880D01*
X166000000Y-63000000D02*
X166000000Y-62000000D01*
X166000000Y-63000000D02*
X166000000Y-64000000D01*
X132100000Y-62700000D02*
X132100000Y-61700000D01*
X131300000Y-72200000D02*
X131300000Y-73200000D01*
X131300000Y-70200000D02*
X131300000Y-71200000D01*
X131300000Y-68200000D02*
X131300000Y-69200000D01*
X131300000Y-66200000D02*
X131300000Y-67200000D01*
X131300000Y-63200000D02*
X131300000Y-64200000D01*
X121100000Y-63200000D02*
X121100000Y-62200000D01*
X121100000Y-71200000D02*
X121100000Y-72200000D01*
X121100000Y-67200000D02*
X121100000Y-68200000D01*
X121100000Y-63200000D02*
X121100000Y-64200000D01*
X120530000Y-77600000D02*
X120530000Y-76599240D01*
X164200000Y-68700000D02*
X164920000Y-69420000D01*
X120530000Y-76599240D02*
X128429240Y-68700000D01*
X128429240Y-68700000D02*
X164200000Y-68700000D01*
X164920000Y-69420000D02*
X164920000Y-77600000D01*
X164920000Y-76599240D02*
X164920000Y-77600000D01*
X108000000Y-67000000D02*
X118606601Y-67000000D01*
X118606601Y-67000000D02*
X120530000Y-68923399D01*
X120530000Y-68923399D02*
X120530000Y-78000000D01*
X154700000Y-78280000D02*
X154020000Y-77600000D01*
X154020000Y-81560000D02*
X154060000Y-81600000D01*
X115080000Y-77600000D02*
X115080000Y-80650820D01*
X115080000Y-80650820D02*
X115100000Y-80670820D01*
X115100000Y-80670820D02*
X115100000Y-81600000D01*
D27*
X126400000Y-118400000D02*
X126400000Y-121980000D01*
X126400000Y-121980000D02*
X125980000Y-122400000D01*
D25*
X164100000Y-117700000D02*
X164920000Y-118520000D01*
X164920000Y-118520000D02*
X164920000Y-122400000D01*
X164920000Y-122000000D02*
X165000000Y-121920000D01*
X165399980Y-86600033D02*
X165300033Y-86600033D01*
X165300033Y-86600033D02*
X164600000Y-85900000D01*
X164600000Y-85900000D02*
X151900000Y-85900000D01*
X136120000Y-80900000D02*
X135420000Y-81600000D01*
X151900000Y-85900000D02*
X146900000Y-80900000D01*
X146900000Y-80900000D02*
X136120000Y-80900000D01*
D24*
X105680000Y-118400000D02*
X107080000Y-117000000D01*
X109998233Y-116600000D02*
X111479691Y-116600000D01*
X109598233Y-117000000D02*
X109998233Y-116600000D01*
X113679691Y-114400000D02*
X127800000Y-114400000D01*
X107080000Y-117000000D02*
X109598233Y-117000000D01*
X132700000Y-119300000D02*
X143680000Y-119300000D01*
X111479691Y-116600000D02*
X113679691Y-114400000D01*
X127800000Y-114400000D02*
X132700000Y-119300000D01*
X143680000Y-119300000D02*
X144580000Y-118400000D01*
D25*
X175720000Y-107490000D02*
X174450008Y-106220008D01*
X174450008Y-106220008D02*
X174450008Y-96250008D01*
X174450008Y-96250008D02*
X174400000Y-96200000D01*
X174400000Y-96200000D02*
X174400000Y-96099990D01*
D28*
G36*
X170073000Y-75247394D02*
X169847394Y-75473000D01*
X168700000Y-75473000D01*
X168664619Y-75478028D01*
X168632039Y-75492714D01*
X168610197Y-75510197D01*
X168310197Y-75810197D01*
X168288734Y-75838771D01*
X168276082Y-75872193D01*
X168273000Y-75900000D01*
X168273000Y-78573049D01*
X167492076Y-80330128D01*
X167340963Y-80498678D01*
X167209243Y-80426264D01*
X166971682Y-80350906D01*
X166724009Y-80323124D01*
X166706179Y-80323000D01*
X166693821Y-80323000D01*
X166445784Y-80347320D01*
X166207194Y-80419355D01*
X165987140Y-80536360D01*
X165794003Y-80693878D01*
X165635140Y-80885911D01*
X165516602Y-81105143D01*
X165442903Y-81343223D01*
X165416852Y-81591085D01*
X165439440Y-81839286D01*
X165470038Y-81943250D01*
X164240288Y-83173000D01*
X156127000Y-83173000D01*
X156127000Y-82676381D01*
X156147298Y-82646674D01*
X156177000Y-82500000D01*
X156177000Y-76629576D01*
X156168638Y-76584106D01*
X157342940Y-76584106D01*
X157342940Y-78615894D01*
X157383450Y-79029042D01*
X157503435Y-79426454D01*
X157698327Y-79792991D01*
X157960700Y-80114693D01*
X158280563Y-80379307D01*
X158645731Y-80576752D01*
X159042295Y-80699509D01*
X159455150Y-80742902D01*
X159868571Y-80705278D01*
X160266811Y-80588070D01*
X160634700Y-80395742D01*
X160958226Y-80135620D01*
X161225066Y-79817613D01*
X161425056Y-79453832D01*
X161550579Y-79058135D01*
X161596853Y-78645592D01*
X161597060Y-78615894D01*
X161597060Y-76584106D01*
X161556550Y-76170958D01*
X161436565Y-75773546D01*
X161241673Y-75407009D01*
X160979300Y-75085307D01*
X160659437Y-74820693D01*
X160294269Y-74623248D01*
X159897705Y-74500491D01*
X159484850Y-74457098D01*
X159071429Y-74494722D01*
X158673189Y-74611930D01*
X158305300Y-74804258D01*
X157981774Y-75064380D01*
X157714934Y-75382387D01*
X157514944Y-75746168D01*
X157389421Y-76141865D01*
X157343147Y-76554408D01*
X157342940Y-76584106D01*
X156168638Y-76584106D01*
X156152331Y-76495443D01*
X156135802Y-76469286D01*
X156106550Y-76170958D01*
X155986565Y-75773546D01*
X155791673Y-75407009D01*
X155529300Y-75085307D01*
X155209437Y-74820693D01*
X154844269Y-74623248D01*
X154447705Y-74500491D01*
X154034850Y-74457098D01*
X153621429Y-74494722D01*
X153223189Y-74611930D01*
X152855300Y-74804258D01*
X152531774Y-75064380D01*
X152264934Y-75382387D01*
X152064944Y-75746168D01*
X151939421Y-76141865D01*
X151914656Y-76362654D01*
X151852702Y-76453326D01*
X151823000Y-76600000D01*
X151823000Y-77873000D01*
X129127000Y-77873000D01*
X129127000Y-76700000D01*
X129121972Y-76664619D01*
X129107286Y-76632039D01*
X129089803Y-76610197D01*
X126889803Y-74410197D01*
X126861229Y-74388734D01*
X126827807Y-74376082D01*
X126800000Y-74373000D01*
X125200000Y-74373000D01*
X125164619Y-74378028D01*
X125132039Y-74392714D01*
X125110197Y-74410197D01*
X123310197Y-76210197D01*
X123288734Y-76238771D01*
X123276082Y-76272193D01*
X123273000Y-76300000D01*
X123273000Y-79147394D01*
X122247394Y-80173000D01*
X117327000Y-80173000D01*
X117327000Y-78000000D01*
X117321972Y-77964619D01*
X117307286Y-77932039D01*
X117284105Y-77904840D01*
X117254264Y-77885177D01*
X117220127Y-77874605D01*
X117207060Y-77873563D01*
X117207060Y-76584106D01*
X117166550Y-76170958D01*
X117046565Y-75773546D01*
X116851673Y-75407009D01*
X116589300Y-75085307D01*
X116269437Y-74820693D01*
X115904269Y-74623248D01*
X115507705Y-74500491D01*
X115094850Y-74457098D01*
X114681429Y-74494722D01*
X114283189Y-74611930D01*
X113915300Y-74804258D01*
X113591774Y-75064380D01*
X113324934Y-75382387D01*
X113124944Y-75746168D01*
X112999421Y-76141865D01*
X112953147Y-76554408D01*
X112952940Y-76584106D01*
X112952940Y-77452978D01*
X112952702Y-77453326D01*
X112923000Y-77600000D01*
X112923000Y-77873000D01*
X100427000Y-77873000D01*
X100427000Y-55325989D01*
X101117904Y-55325989D01*
X101255156Y-56073817D01*
X101535048Y-56780743D01*
X101946919Y-57419842D01*
X102475081Y-57966770D01*
X103099416Y-58400694D01*
X103796144Y-58705087D01*
X104538727Y-58868354D01*
X105298879Y-58884277D01*
X106047647Y-58752249D01*
X106756510Y-58477299D01*
X107398469Y-58069900D01*
X107949070Y-57545569D01*
X108387343Y-56924278D01*
X108696592Y-56229693D01*
X108865040Y-55488268D01*
X108877166Y-54619841D01*
X108729486Y-53874002D01*
X108439751Y-53171052D01*
X108018997Y-52537766D01*
X107483250Y-51998266D01*
X106852917Y-51573101D01*
X106152007Y-51278466D01*
X105407218Y-51125582D01*
X104646917Y-51120274D01*
X103900066Y-51262744D01*
X103195110Y-51547564D01*
X102558903Y-51963887D01*
X102015675Y-52495854D01*
X101586120Y-53123204D01*
X101286599Y-53822040D01*
X101128520Y-54565744D01*
X101117904Y-55325989D01*
X100427000Y-55325989D01*
X100427000Y-50427000D01*
X170073000Y-50427000D01*
X170073000Y-75247394D01*
X170073000Y-75247394D01*
G37*
X170073000Y-75247394D02*
X169847394Y-75473000D01*
X168700000Y-75473000D01*
X168664619Y-75478028D01*
X168632039Y-75492714D01*
X168610197Y-75510197D01*
X168310197Y-75810197D01*
X168288734Y-75838771D01*
X168276082Y-75872193D01*
X168273000Y-75900000D01*
X168273000Y-78573049D01*
X167492076Y-80330128D01*
X167340963Y-80498678D01*
X167209243Y-80426264D01*
X166971682Y-80350906D01*
X166724009Y-80323124D01*
X166706179Y-80323000D01*
X166693821Y-80323000D01*
X166445784Y-80347320D01*
X166207194Y-80419355D01*
X165987140Y-80536360D01*
X165794003Y-80693878D01*
X165635140Y-80885911D01*
X165516602Y-81105143D01*
X165442903Y-81343223D01*
X165416852Y-81591085D01*
X165439440Y-81839286D01*
X165470038Y-81943250D01*
X164240288Y-83173000D01*
X156127000Y-83173000D01*
X156127000Y-82676381D01*
X156147298Y-82646674D01*
X156177000Y-82500000D01*
X156177000Y-76629576D01*
X156168638Y-76584106D01*
X157342940Y-76584106D01*
X157342940Y-78615894D01*
X157383450Y-79029042D01*
X157503435Y-79426454D01*
X157698327Y-79792991D01*
X157960700Y-80114693D01*
X158280563Y-80379307D01*
X158645731Y-80576752D01*
X159042295Y-80699509D01*
X159455150Y-80742902D01*
X159868571Y-80705278D01*
X160266811Y-80588070D01*
X160634700Y-80395742D01*
X160958226Y-80135620D01*
X161225066Y-79817613D01*
X161425056Y-79453832D01*
X161550579Y-79058135D01*
X161596853Y-78645592D01*
X161597060Y-78615894D01*
X161597060Y-76584106D01*
X161556550Y-76170958D01*
X161436565Y-75773546D01*
X161241673Y-75407009D01*
X160979300Y-75085307D01*
X160659437Y-74820693D01*
X160294269Y-74623248D01*
X159897705Y-74500491D01*
X159484850Y-74457098D01*
X159071429Y-74494722D01*
X158673189Y-74611930D01*
X158305300Y-74804258D01*
X157981774Y-75064380D01*
X157714934Y-75382387D01*
X157514944Y-75746168D01*
X157389421Y-76141865D01*
X157343147Y-76554408D01*
X157342940Y-76584106D01*
X156168638Y-76584106D01*
X156152331Y-76495443D01*
X156135802Y-76469286D01*
X156106550Y-76170958D01*
X155986565Y-75773546D01*
X155791673Y-75407009D01*
X155529300Y-75085307D01*
X155209437Y-74820693D01*
X154844269Y-74623248D01*
X154447705Y-74500491D01*
X154034850Y-74457098D01*
X153621429Y-74494722D01*
X153223189Y-74611930D01*
X152855300Y-74804258D01*
X152531774Y-75064380D01*
X152264934Y-75382387D01*
X152064944Y-75746168D01*
X151939421Y-76141865D01*
X151914656Y-76362654D01*
X151852702Y-76453326D01*
X151823000Y-76600000D01*
X151823000Y-77873000D01*
X129127000Y-77873000D01*
X129127000Y-76700000D01*
X129121972Y-76664619D01*
X129107286Y-76632039D01*
X129089803Y-76610197D01*
X126889803Y-74410197D01*
X126861229Y-74388734D01*
X126827807Y-74376082D01*
X126800000Y-74373000D01*
X125200000Y-74373000D01*
X125164619Y-74378028D01*
X125132039Y-74392714D01*
X125110197Y-74410197D01*
X123310197Y-76210197D01*
X123288734Y-76238771D01*
X123276082Y-76272193D01*
X123273000Y-76300000D01*
X123273000Y-79147394D01*
X122247394Y-80173000D01*
X117327000Y-80173000D01*
X117327000Y-78000000D01*
X117321972Y-77964619D01*
X117307286Y-77932039D01*
X117284105Y-77904840D01*
X117254264Y-77885177D01*
X117220127Y-77874605D01*
X117207060Y-77873563D01*
X117207060Y-76584106D01*
X117166550Y-76170958D01*
X117046565Y-75773546D01*
X116851673Y-75407009D01*
X116589300Y-75085307D01*
X116269437Y-74820693D01*
X115904269Y-74623248D01*
X115507705Y-74500491D01*
X115094850Y-74457098D01*
X114681429Y-74494722D01*
X114283189Y-74611930D01*
X113915300Y-74804258D01*
X113591774Y-75064380D01*
X113324934Y-75382387D01*
X113124944Y-75746168D01*
X112999421Y-76141865D01*
X112953147Y-76554408D01*
X112952940Y-76584106D01*
X112952940Y-77452978D01*
X112952702Y-77453326D01*
X112923000Y-77600000D01*
X112923000Y-77873000D01*
X100427000Y-77873000D01*
X100427000Y-55325989D01*
X101117904Y-55325989D01*
X101255156Y-56073817D01*
X101535048Y-56780743D01*
X101946919Y-57419842D01*
X102475081Y-57966770D01*
X103099416Y-58400694D01*
X103796144Y-58705087D01*
X104538727Y-58868354D01*
X105298879Y-58884277D01*
X106047647Y-58752249D01*
X106756510Y-58477299D01*
X107398469Y-58069900D01*
X107949070Y-57545569D01*
X108387343Y-56924278D01*
X108696592Y-56229693D01*
X108865040Y-55488268D01*
X108877166Y-54619841D01*
X108729486Y-53874002D01*
X108439751Y-53171052D01*
X108018997Y-52537766D01*
X107483250Y-51998266D01*
X106852917Y-51573101D01*
X106152007Y-51278466D01*
X105407218Y-51125582D01*
X104646917Y-51120274D01*
X103900066Y-51262744D01*
X103195110Y-51547564D01*
X102558903Y-51963887D01*
X102015675Y-52495854D01*
X101586120Y-53123204D01*
X101286599Y-53822040D01*
X101128520Y-54565744D01*
X101117904Y-55325989D01*
X100427000Y-55325989D01*
X100427000Y-50427000D01*
X170073000Y-50427000D01*
X170073000Y-75247394D01*
D29*
G36*
X123850000Y-123600000D02*
X123873936Y-123727210D01*
X123917046Y-123794205D01*
X123919935Y-123823668D01*
X124038398Y-124216035D01*
X124230815Y-124577919D01*
X124489859Y-124895538D01*
X124805661Y-125156793D01*
X125166194Y-125351732D01*
X125557724Y-125472931D01*
X125965339Y-125515773D01*
X126373512Y-125478626D01*
X126766696Y-125362906D01*
X127129916Y-125173019D01*
X127449335Y-124916199D01*
X127712788Y-124602229D01*
X127910239Y-124243066D01*
X128034169Y-123852391D01*
X128079855Y-123445085D01*
X128080060Y-123415764D01*
X128080060Y-122100000D01*
X132358304Y-122100000D01*
X132359309Y-122100007D01*
X132359420Y-122100018D01*
X132359523Y-122100008D01*
X132361514Y-122100022D01*
X150372770Y-122100022D01*
X150372994Y-122100000D01*
X151919940Y-122100000D01*
X151919940Y-123415764D01*
X151959935Y-123823668D01*
X152078398Y-124216035D01*
X152270815Y-124577919D01*
X152529859Y-124895538D01*
X152845661Y-125156793D01*
X153206194Y-125351732D01*
X153597724Y-125472931D01*
X154005339Y-125515773D01*
X154413512Y-125478626D01*
X154806696Y-125362906D01*
X155169916Y-125173019D01*
X155489335Y-124916199D01*
X155752788Y-124602229D01*
X155950239Y-124243066D01*
X156020804Y-124020618D01*
X156970711Y-123070711D01*
X156987611Y-123048212D01*
X156997574Y-123021895D01*
X157000000Y-123000000D01*
X157000000Y-121041422D01*
X158541422Y-119500000D01*
X162800000Y-119500000D01*
X162800000Y-149600000D01*
X100400000Y-149600000D01*
X100400000Y-145323719D01*
X101144939Y-145323719D01*
X101281235Y-146066339D01*
X101559178Y-146768342D01*
X101968181Y-147402990D01*
X102492665Y-147946109D01*
X103112652Y-148377012D01*
X103804528Y-148679285D01*
X104541939Y-148841415D01*
X105296797Y-148857227D01*
X106040351Y-148726119D01*
X106744278Y-148453083D01*
X107381766Y-148048521D01*
X107928533Y-147527842D01*
X108363753Y-146910878D01*
X108670849Y-146221129D01*
X108838124Y-145484868D01*
X108850166Y-144622488D01*
X108703514Y-143881843D01*
X108415797Y-143183789D01*
X107997973Y-142554913D01*
X107465957Y-142019170D01*
X106840014Y-141596966D01*
X106143985Y-141304382D01*
X105404382Y-141152564D01*
X104649376Y-141147293D01*
X103907726Y-141288770D01*
X103207680Y-141571607D01*
X102575902Y-141985031D01*
X102036458Y-142513293D01*
X101609895Y-143136274D01*
X101312459Y-143830243D01*
X101155481Y-144568768D01*
X101144939Y-145323719D01*
X100400000Y-145323719D01*
X100400000Y-121384236D01*
X118429940Y-121384236D01*
X118429940Y-123415764D01*
X118469935Y-123823668D01*
X118588398Y-124216035D01*
X118780815Y-124577919D01*
X119039859Y-124895538D01*
X119355661Y-125156793D01*
X119716194Y-125351732D01*
X120107724Y-125472931D01*
X120515339Y-125515773D01*
X120923512Y-125478626D01*
X121316696Y-125362906D01*
X121679916Y-125173019D01*
X121999335Y-124916199D01*
X122262788Y-124602229D01*
X122460239Y-124243066D01*
X122584169Y-123852391D01*
X122629855Y-123445085D01*
X122630060Y-123415764D01*
X122630060Y-121384236D01*
X122590065Y-120976332D01*
X122471602Y-120583965D01*
X122279185Y-120222081D01*
X122020141Y-119904462D01*
X121704339Y-119643207D01*
X121343806Y-119448268D01*
X120952276Y-119327069D01*
X120544661Y-119284227D01*
X120136488Y-119321374D01*
X119743304Y-119437094D01*
X119380084Y-119626981D01*
X119060665Y-119883801D01*
X118797212Y-120197771D01*
X118599761Y-120556934D01*
X118475831Y-120947609D01*
X118430145Y-121354915D01*
X118429940Y-121384236D01*
X100400000Y-121384236D01*
X100400000Y-119700000D01*
X113300000Y-119700000D01*
X113327859Y-119696041D01*
X113353513Y-119684477D01*
X113374929Y-119666224D01*
X113390412Y-119642728D01*
X113390731Y-119641697D01*
X113548841Y-119626194D01*
X113782386Y-119555683D01*
X113997787Y-119441152D01*
X114186841Y-119286963D01*
X114342345Y-119098991D01*
X114458377Y-118884394D01*
X114530517Y-118651347D01*
X114556018Y-118408727D01*
X114533907Y-118165773D01*
X114499536Y-118048992D01*
X115698529Y-116849999D01*
X123850000Y-116849999D01*
X123850000Y-123600000D01*
X123850000Y-123600000D01*
G37*
X123850000Y-123600000D02*
X123873936Y-123727210D01*
X123917046Y-123794205D01*
X123919935Y-123823668D01*
X124038398Y-124216035D01*
X124230815Y-124577919D01*
X124489859Y-124895538D01*
X124805661Y-125156793D01*
X125166194Y-125351732D01*
X125557724Y-125472931D01*
X125965339Y-125515773D01*
X126373512Y-125478626D01*
X126766696Y-125362906D01*
X127129916Y-125173019D01*
X127449335Y-124916199D01*
X127712788Y-124602229D01*
X127910239Y-124243066D01*
X128034169Y-123852391D01*
X128079855Y-123445085D01*
X128080060Y-123415764D01*
X128080060Y-122100000D01*
X132358304Y-122100000D01*
X132359309Y-122100007D01*
X132359420Y-122100018D01*
X132359523Y-122100008D01*
X132361514Y-122100022D01*
X150372770Y-122100022D01*
X150372994Y-122100000D01*
X151919940Y-122100000D01*
X151919940Y-123415764D01*
X151959935Y-123823668D01*
X152078398Y-124216035D01*
X152270815Y-124577919D01*
X152529859Y-124895538D01*
X152845661Y-125156793D01*
X153206194Y-125351732D01*
X153597724Y-125472931D01*
X154005339Y-125515773D01*
X154413512Y-125478626D01*
X154806696Y-125362906D01*
X155169916Y-125173019D01*
X155489335Y-124916199D01*
X155752788Y-124602229D01*
X155950239Y-124243066D01*
X156020804Y-124020618D01*
X156970711Y-123070711D01*
X156987611Y-123048212D01*
X156997574Y-123021895D01*
X157000000Y-123000000D01*
X157000000Y-121041422D01*
X158541422Y-119500000D01*
X162800000Y-119500000D01*
X162800000Y-149600000D01*
X100400000Y-149600000D01*
X100400000Y-145323719D01*
X101144939Y-145323719D01*
X101281235Y-146066339D01*
X101559178Y-146768342D01*
X101968181Y-147402990D01*
X102492665Y-147946109D01*
X103112652Y-148377012D01*
X103804528Y-148679285D01*
X104541939Y-148841415D01*
X105296797Y-148857227D01*
X106040351Y-148726119D01*
X106744278Y-148453083D01*
X107381766Y-148048521D01*
X107928533Y-147527842D01*
X108363753Y-146910878D01*
X108670849Y-146221129D01*
X108838124Y-145484868D01*
X108850166Y-144622488D01*
X108703514Y-143881843D01*
X108415797Y-143183789D01*
X107997973Y-142554913D01*
X107465957Y-142019170D01*
X106840014Y-141596966D01*
X106143985Y-141304382D01*
X105404382Y-141152564D01*
X104649376Y-141147293D01*
X103907726Y-141288770D01*
X103207680Y-141571607D01*
X102575902Y-141985031D01*
X102036458Y-142513293D01*
X101609895Y-143136274D01*
X101312459Y-143830243D01*
X101155481Y-144568768D01*
X101144939Y-145323719D01*
X100400000Y-145323719D01*
X100400000Y-121384236D01*
X118429940Y-121384236D01*
X118429940Y-123415764D01*
X118469935Y-123823668D01*
X118588398Y-124216035D01*
X118780815Y-124577919D01*
X119039859Y-124895538D01*
X119355661Y-125156793D01*
X119716194Y-125351732D01*
X120107724Y-125472931D01*
X120515339Y-125515773D01*
X120923512Y-125478626D01*
X121316696Y-125362906D01*
X121679916Y-125173019D01*
X121999335Y-124916199D01*
X122262788Y-124602229D01*
X122460239Y-124243066D01*
X122584169Y-123852391D01*
X122629855Y-123445085D01*
X122630060Y-123415764D01*
X122630060Y-121384236D01*
X122590065Y-120976332D01*
X122471602Y-120583965D01*
X122279185Y-120222081D01*
X122020141Y-119904462D01*
X121704339Y-119643207D01*
X121343806Y-119448268D01*
X120952276Y-119327069D01*
X120544661Y-119284227D01*
X120136488Y-119321374D01*
X119743304Y-119437094D01*
X119380084Y-119626981D01*
X119060665Y-119883801D01*
X118797212Y-120197771D01*
X118599761Y-120556934D01*
X118475831Y-120947609D01*
X118430145Y-121354915D01*
X118429940Y-121384236D01*
X100400000Y-121384236D01*
X100400000Y-119700000D01*
X113300000Y-119700000D01*
X113327859Y-119696041D01*
X113353513Y-119684477D01*
X113374929Y-119666224D01*
X113390412Y-119642728D01*
X113390731Y-119641697D01*
X113548841Y-119626194D01*
X113782386Y-119555683D01*
X113997787Y-119441152D01*
X114186841Y-119286963D01*
X114342345Y-119098991D01*
X114458377Y-118884394D01*
X114530517Y-118651347D01*
X114556018Y-118408727D01*
X114533907Y-118165773D01*
X114499536Y-118048992D01*
X115698529Y-116849999D01*
X123850000Y-116849999D01*
X123850000Y-123600000D01*
D28*
G36*
X128573000Y-76806158D02*
X128573000Y-79940288D01*
X128140539Y-80372749D01*
X128071682Y-80350906D01*
X127824009Y-80323124D01*
X127806179Y-80323000D01*
X127793821Y-80323000D01*
X127545784Y-80347320D01*
X127307194Y-80419355D01*
X127087140Y-80536360D01*
X126894003Y-80693878D01*
X126735140Y-80885911D01*
X126616602Y-81105143D01*
X126542903Y-81343223D01*
X126516852Y-81591085D01*
X126539440Y-81839286D01*
X126609807Y-82078373D01*
X126725273Y-82299238D01*
X126881439Y-82493470D01*
X127072358Y-82653670D01*
X127290757Y-82773736D01*
X127528318Y-82849094D01*
X127775991Y-82876876D01*
X127793821Y-82877000D01*
X127806179Y-82877000D01*
X128054216Y-82852680D01*
X128073000Y-82847009D01*
X128073000Y-83600000D01*
X128078028Y-83635381D01*
X128092714Y-83667961D01*
X128115895Y-83695160D01*
X128145736Y-83714823D01*
X128179873Y-83725395D01*
X128200000Y-83727000D01*
X148981710Y-83727000D01*
X151527355Y-86272645D01*
X151564920Y-86303501D01*
X151602262Y-86334835D01*
X151604694Y-86336172D01*
X151606833Y-86337929D01*
X151649746Y-86360939D01*
X151692393Y-86384384D01*
X151695030Y-86385221D01*
X151697476Y-86386532D01*
X151744017Y-86400760D01*
X151790431Y-86415484D01*
X151793191Y-86415794D01*
X151795835Y-86416602D01*
X151844204Y-86421516D01*
X151892642Y-86426949D01*
X151898057Y-86426987D01*
X151898160Y-86426997D01*
X151898256Y-86426988D01*
X151900000Y-86427000D01*
X163873000Y-86427000D01*
X163873000Y-111791710D01*
X163871913Y-111869536D01*
X163873000Y-111875458D01*
X163873000Y-116423000D01*
X163100000Y-116423000D01*
X162962977Y-116448783D01*
X162837129Y-116529763D01*
X162752702Y-116653326D01*
X162723000Y-116800000D01*
X162723000Y-119023000D01*
X158500000Y-119023000D01*
X158358138Y-119050709D01*
X158233421Y-119133421D01*
X156633421Y-120733421D01*
X156552702Y-120853326D01*
X156523000Y-121000000D01*
X156523000Y-122843842D01*
X154543842Y-124823000D01*
X154377000Y-124823000D01*
X154377000Y-122000000D01*
X154351217Y-121862977D01*
X154270237Y-121737129D01*
X154146674Y-121652702D01*
X154000000Y-121623000D01*
X152327000Y-121623000D01*
X152327000Y-120432504D01*
X152643356Y-120116148D01*
X152680141Y-120071365D01*
X152717346Y-120027026D01*
X152718933Y-120024139D01*
X152721027Y-120021590D01*
X152748379Y-119970578D01*
X152776298Y-119919794D01*
X152777297Y-119916646D01*
X152778852Y-119913745D01*
X152795761Y-119858439D01*
X152813299Y-119803153D01*
X152813667Y-119799873D01*
X152814630Y-119796723D01*
X152820479Y-119739137D01*
X152826939Y-119681546D01*
X152826984Y-119675100D01*
X152826996Y-119674981D01*
X152826986Y-119674870D01*
X152827000Y-119672792D01*
X152827000Y-119509293D01*
X152912860Y-119463640D01*
X153105997Y-119306122D01*
X153264860Y-119114089D01*
X153383398Y-118894857D01*
X153457097Y-118656777D01*
X153483148Y-118408915D01*
X153460560Y-118160714D01*
X153390193Y-117921627D01*
X153274727Y-117700762D01*
X153118561Y-117506530D01*
X152927642Y-117346330D01*
X152709243Y-117226264D01*
X152471682Y-117150906D01*
X152224009Y-117123124D01*
X152206179Y-117123000D01*
X152193821Y-117123000D01*
X152091489Y-117133034D01*
X150637881Y-116678781D01*
X150600000Y-116673000D01*
X142000000Y-116673000D01*
X141964619Y-116678028D01*
X141932039Y-116692714D01*
X141910197Y-116710197D01*
X140347394Y-118273000D01*
X132382935Y-118273000D01*
X128154968Y-114045032D01*
X128119112Y-114015580D01*
X128083613Y-113985793D01*
X128081299Y-113984521D01*
X128079260Y-113982846D01*
X128038431Y-113960954D01*
X127997759Y-113938594D01*
X127995239Y-113937795D01*
X127992916Y-113936549D01*
X127948622Y-113923007D01*
X127904372Y-113908970D01*
X127901746Y-113908675D01*
X127899223Y-113907904D01*
X127853090Y-113903218D01*
X127807009Y-113898049D01*
X127801851Y-113898013D01*
X127801753Y-113898003D01*
X127801662Y-113898012D01*
X127800000Y-113898000D01*
X113679691Y-113898000D01*
X113633515Y-113902528D01*
X113587347Y-113906567D01*
X113584812Y-113907303D01*
X113582185Y-113907561D01*
X113537799Y-113920962D01*
X113493265Y-113933900D01*
X113490921Y-113935115D01*
X113488394Y-113935878D01*
X113447461Y-113957643D01*
X113406283Y-113978987D01*
X113404219Y-113980634D01*
X113401888Y-113981874D01*
X113365944Y-114011189D01*
X113329714Y-114040111D01*
X113326042Y-114043732D01*
X113325965Y-114043795D01*
X113325906Y-114043866D01*
X113324724Y-114045032D01*
X111271755Y-116098000D01*
X109998233Y-116098000D01*
X109952061Y-116102527D01*
X109905889Y-116106567D01*
X109903354Y-116107303D01*
X109900727Y-116107561D01*
X109856354Y-116120958D01*
X109811806Y-116133900D01*
X109809461Y-116135116D01*
X109806936Y-116135878D01*
X109766002Y-116157643D01*
X109724824Y-116178988D01*
X109722762Y-116180634D01*
X109720430Y-116181874D01*
X109684480Y-116211194D01*
X109648256Y-116240111D01*
X109644584Y-116243732D01*
X109644507Y-116243795D01*
X109644448Y-116243867D01*
X109643265Y-116245033D01*
X109390297Y-116498000D01*
X107080000Y-116498000D01*
X107033824Y-116502528D01*
X106987656Y-116506567D01*
X106985121Y-116507303D01*
X106982494Y-116507561D01*
X106938121Y-116520958D01*
X106893573Y-116533900D01*
X106891227Y-116535116D01*
X106888703Y-116535878D01*
X106847788Y-116557633D01*
X106806592Y-116578987D01*
X106804528Y-116580634D01*
X106802197Y-116581874D01*
X106766253Y-116611189D01*
X106730023Y-116640111D01*
X106726347Y-116643736D01*
X106726274Y-116643795D01*
X106726218Y-116643862D01*
X106725032Y-116645032D01*
X106154744Y-117215320D01*
X105951682Y-117150906D01*
X105704009Y-117123124D01*
X105686179Y-117123000D01*
X105673821Y-117123000D01*
X105425784Y-117147320D01*
X105187194Y-117219355D01*
X104967140Y-117336360D01*
X104774003Y-117493878D01*
X104615140Y-117685911D01*
X104496602Y-117905143D01*
X104422903Y-118143223D01*
X104409263Y-118273000D01*
X100427000Y-118273000D01*
X100427000Y-115877000D01*
X107901411Y-115877000D01*
X108607240Y-115891785D01*
X110128531Y-115623541D01*
X111568747Y-115064918D01*
X112873030Y-114237194D01*
X113991701Y-113171898D01*
X114882151Y-111909606D01*
X115506464Y-110507374D01*
X132521321Y-110507374D01*
X132566529Y-110753692D01*
X132658720Y-110986538D01*
X132794381Y-111197044D01*
X132968346Y-111377190D01*
X133173989Y-111520115D01*
X133403476Y-111620376D01*
X133648067Y-111674152D01*
X133898444Y-111679397D01*
X134145072Y-111635910D01*
X134378557Y-111545347D01*
X134590004Y-111411159D01*
X134771360Y-111238456D01*
X134915718Y-111033816D01*
X135017578Y-110805034D01*
X135073061Y-110560825D01*
X135077055Y-110274784D01*
X135028412Y-110029120D01*
X134932980Y-109797584D01*
X134794392Y-109588993D01*
X134617929Y-109411294D01*
X134410311Y-109271253D01*
X134179446Y-109174207D01*
X133934129Y-109123850D01*
X133683702Y-109122102D01*
X133437705Y-109169028D01*
X133205508Y-109262842D01*
X132995955Y-109399970D01*
X132817028Y-109575188D01*
X132675542Y-109781824D01*
X132576886Y-110012005D01*
X132524818Y-110256965D01*
X132521321Y-110507374D01*
X115506464Y-110507374D01*
X115510461Y-110498398D01*
X115852700Y-108992027D01*
X115877337Y-107227620D01*
X115683764Y-106250000D01*
X118971176Y-106250000D01*
X118971176Y-108550000D01*
X118975963Y-108610036D01*
X119007497Y-108711863D01*
X119066151Y-108800874D01*
X119147281Y-108870020D01*
X119244462Y-108913826D01*
X119350000Y-108928824D01*
X121650000Y-108928824D01*
X121710036Y-108924037D01*
X121811863Y-108892503D01*
X121900874Y-108833849D01*
X121970020Y-108752719D01*
X122013826Y-108655538D01*
X122028824Y-108550000D01*
X122028824Y-106250000D01*
X122024037Y-106189964D01*
X121992503Y-106088137D01*
X121933849Y-105999126D01*
X121852719Y-105929980D01*
X121755538Y-105886174D01*
X121650000Y-105871176D01*
X119350000Y-105871176D01*
X119289964Y-105875963D01*
X119188137Y-105907497D01*
X119099126Y-105966151D01*
X119029980Y-106047281D01*
X118986174Y-106144462D01*
X118971176Y-106250000D01*
X115683764Y-106250000D01*
X115577292Y-105712281D01*
X114988630Y-104284080D01*
X114133773Y-102997417D01*
X113045283Y-101901301D01*
X111764619Y-101037482D01*
X110340563Y-100438864D01*
X108827355Y-100128247D01*
X107282633Y-100117462D01*
X107253602Y-100123000D01*
X100427000Y-100123000D01*
X100427000Y-90707374D01*
X144821321Y-90707374D01*
X144866529Y-90953692D01*
X144958720Y-91186538D01*
X145094381Y-91397044D01*
X145268346Y-91577190D01*
X145473989Y-91720115D01*
X145703476Y-91820376D01*
X145948067Y-91874152D01*
X146198444Y-91879397D01*
X146445072Y-91835910D01*
X146678557Y-91745347D01*
X146890004Y-91611159D01*
X147071360Y-91438456D01*
X147133758Y-91350000D01*
X157971176Y-91350000D01*
X157971176Y-93650000D01*
X157975963Y-93710036D01*
X158007497Y-93811863D01*
X158066151Y-93900874D01*
X158147281Y-93970020D01*
X158244462Y-94013826D01*
X158350000Y-94028824D01*
X160650000Y-94028824D01*
X160710036Y-94024037D01*
X160811863Y-93992503D01*
X160900874Y-93933849D01*
X160970020Y-93852719D01*
X161013826Y-93755538D01*
X161028824Y-93650000D01*
X161028824Y-91350000D01*
X161024037Y-91289964D01*
X160992503Y-91188137D01*
X160933849Y-91099126D01*
X160852719Y-91029980D01*
X160755538Y-90986174D01*
X160650000Y-90971176D01*
X158350000Y-90971176D01*
X158289964Y-90975963D01*
X158188137Y-91007497D01*
X158099126Y-91066151D01*
X158029980Y-91147281D01*
X157986174Y-91244462D01*
X157971176Y-91350000D01*
X147133758Y-91350000D01*
X147215718Y-91233816D01*
X147317578Y-91005034D01*
X147373061Y-90760825D01*
X147377055Y-90474784D01*
X147328412Y-90229120D01*
X147232980Y-89997584D01*
X147094392Y-89788993D01*
X146917929Y-89611294D01*
X146710311Y-89471253D01*
X146479446Y-89374207D01*
X146234129Y-89323850D01*
X145983702Y-89322102D01*
X145737705Y-89369028D01*
X145505508Y-89462842D01*
X145295955Y-89599970D01*
X145117028Y-89775188D01*
X144975542Y-89981824D01*
X144876886Y-90212005D01*
X144824818Y-90456965D01*
X144821321Y-90707374D01*
X100427000Y-90707374D01*
X100427000Y-79127000D01*
X112923000Y-79127000D01*
X112923000Y-82500000D01*
X112948783Y-82637023D01*
X113029763Y-82762871D01*
X113153326Y-82847298D01*
X113300000Y-82877000D01*
X114187165Y-82877000D01*
X114200000Y-82878824D01*
X116000000Y-82878824D01*
X116022876Y-82877000D01*
X116800000Y-82877000D01*
X116937023Y-82851217D01*
X117062871Y-82770237D01*
X117147298Y-82646674D01*
X117177000Y-82500000D01*
X117177000Y-80672342D01*
X117200000Y-80677000D01*
X120029580Y-80677000D01*
X120102295Y-80699509D01*
X120515150Y-80742902D01*
X120928571Y-80705278D01*
X121024652Y-80677000D01*
X122300000Y-80677000D01*
X122441862Y-80649291D01*
X122566579Y-80566579D01*
X123666579Y-79466579D01*
X123747298Y-79346674D01*
X123777000Y-79200000D01*
X123777000Y-76456158D01*
X125356158Y-74877000D01*
X126643842Y-74877000D01*
X128573000Y-76806158D01*
X128573000Y-76806158D01*
G37*
X128573000Y-76806158D02*
X128573000Y-79940288D01*
X128140539Y-80372749D01*
X128071682Y-80350906D01*
X127824009Y-80323124D01*
X127806179Y-80323000D01*
X127793821Y-80323000D01*
X127545784Y-80347320D01*
X127307194Y-80419355D01*
X127087140Y-80536360D01*
X126894003Y-80693878D01*
X126735140Y-80885911D01*
X126616602Y-81105143D01*
X126542903Y-81343223D01*
X126516852Y-81591085D01*
X126539440Y-81839286D01*
X126609807Y-82078373D01*
X126725273Y-82299238D01*
X126881439Y-82493470D01*
X127072358Y-82653670D01*
X127290757Y-82773736D01*
X127528318Y-82849094D01*
X127775991Y-82876876D01*
X127793821Y-82877000D01*
X127806179Y-82877000D01*
X128054216Y-82852680D01*
X128073000Y-82847009D01*
X128073000Y-83600000D01*
X128078028Y-83635381D01*
X128092714Y-83667961D01*
X128115895Y-83695160D01*
X128145736Y-83714823D01*
X128179873Y-83725395D01*
X128200000Y-83727000D01*
X148981710Y-83727000D01*
X151527355Y-86272645D01*
X151564920Y-86303501D01*
X151602262Y-86334835D01*
X151604694Y-86336172D01*
X151606833Y-86337929D01*
X151649746Y-86360939D01*
X151692393Y-86384384D01*
X151695030Y-86385221D01*
X151697476Y-86386532D01*
X151744017Y-86400760D01*
X151790431Y-86415484D01*
X151793191Y-86415794D01*
X151795835Y-86416602D01*
X151844204Y-86421516D01*
X151892642Y-86426949D01*
X151898057Y-86426987D01*
X151898160Y-86426997D01*
X151898256Y-86426988D01*
X151900000Y-86427000D01*
X163873000Y-86427000D01*
X163873000Y-111791710D01*
X163871913Y-111869536D01*
X163873000Y-111875458D01*
X163873000Y-116423000D01*
X163100000Y-116423000D01*
X162962977Y-116448783D01*
X162837129Y-116529763D01*
X162752702Y-116653326D01*
X162723000Y-116800000D01*
X162723000Y-119023000D01*
X158500000Y-119023000D01*
X158358138Y-119050709D01*
X158233421Y-119133421D01*
X156633421Y-120733421D01*
X156552702Y-120853326D01*
X156523000Y-121000000D01*
X156523000Y-122843842D01*
X154543842Y-124823000D01*
X154377000Y-124823000D01*
X154377000Y-122000000D01*
X154351217Y-121862977D01*
X154270237Y-121737129D01*
X154146674Y-121652702D01*
X154000000Y-121623000D01*
X152327000Y-121623000D01*
X152327000Y-120432504D01*
X152643356Y-120116148D01*
X152680141Y-120071365D01*
X152717346Y-120027026D01*
X152718933Y-120024139D01*
X152721027Y-120021590D01*
X152748379Y-119970578D01*
X152776298Y-119919794D01*
X152777297Y-119916646D01*
X152778852Y-119913745D01*
X152795761Y-119858439D01*
X152813299Y-119803153D01*
X152813667Y-119799873D01*
X152814630Y-119796723D01*
X152820479Y-119739137D01*
X152826939Y-119681546D01*
X152826984Y-119675100D01*
X152826996Y-119674981D01*
X152826986Y-119674870D01*
X152827000Y-119672792D01*
X152827000Y-119509293D01*
X152912860Y-119463640D01*
X153105997Y-119306122D01*
X153264860Y-119114089D01*
X153383398Y-118894857D01*
X153457097Y-118656777D01*
X153483148Y-118408915D01*
X153460560Y-118160714D01*
X153390193Y-117921627D01*
X153274727Y-117700762D01*
X153118561Y-117506530D01*
X152927642Y-117346330D01*
X152709243Y-117226264D01*
X152471682Y-117150906D01*
X152224009Y-117123124D01*
X152206179Y-117123000D01*
X152193821Y-117123000D01*
X152091489Y-117133034D01*
X150637881Y-116678781D01*
X150600000Y-116673000D01*
X142000000Y-116673000D01*
X141964619Y-116678028D01*
X141932039Y-116692714D01*
X141910197Y-116710197D01*
X140347394Y-118273000D01*
X132382935Y-118273000D01*
X128154968Y-114045032D01*
X128119112Y-114015580D01*
X128083613Y-113985793D01*
X128081299Y-113984521D01*
X128079260Y-113982846D01*
X128038431Y-113960954D01*
X127997759Y-113938594D01*
X127995239Y-113937795D01*
X127992916Y-113936549D01*
X127948622Y-113923007D01*
X127904372Y-113908970D01*
X127901746Y-113908675D01*
X127899223Y-113907904D01*
X127853090Y-113903218D01*
X127807009Y-113898049D01*
X127801851Y-113898013D01*
X127801753Y-113898003D01*
X127801662Y-113898012D01*
X127800000Y-113898000D01*
X113679691Y-113898000D01*
X113633515Y-113902528D01*
X113587347Y-113906567D01*
X113584812Y-113907303D01*
X113582185Y-113907561D01*
X113537799Y-113920962D01*
X113493265Y-113933900D01*
X113490921Y-113935115D01*
X113488394Y-113935878D01*
X113447461Y-113957643D01*
X113406283Y-113978987D01*
X113404219Y-113980634D01*
X113401888Y-113981874D01*
X113365944Y-114011189D01*
X113329714Y-114040111D01*
X113326042Y-114043732D01*
X113325965Y-114043795D01*
X113325906Y-114043866D01*
X113324724Y-114045032D01*
X111271755Y-116098000D01*
X109998233Y-116098000D01*
X109952061Y-116102527D01*
X109905889Y-116106567D01*
X109903354Y-116107303D01*
X109900727Y-116107561D01*
X109856354Y-116120958D01*
X109811806Y-116133900D01*
X109809461Y-116135116D01*
X109806936Y-116135878D01*
X109766002Y-116157643D01*
X109724824Y-116178988D01*
X109722762Y-116180634D01*
X109720430Y-116181874D01*
X109684480Y-116211194D01*
X109648256Y-116240111D01*
X109644584Y-116243732D01*
X109644507Y-116243795D01*
X109644448Y-116243867D01*
X109643265Y-116245033D01*
X109390297Y-116498000D01*
X107080000Y-116498000D01*
X107033824Y-116502528D01*
X106987656Y-116506567D01*
X106985121Y-116507303D01*
X106982494Y-116507561D01*
X106938121Y-116520958D01*
X106893573Y-116533900D01*
X106891227Y-116535116D01*
X106888703Y-116535878D01*
X106847788Y-116557633D01*
X106806592Y-116578987D01*
X106804528Y-116580634D01*
X106802197Y-116581874D01*
X106766253Y-116611189D01*
X106730023Y-116640111D01*
X106726347Y-116643736D01*
X106726274Y-116643795D01*
X106726218Y-116643862D01*
X106725032Y-116645032D01*
X106154744Y-117215320D01*
X105951682Y-117150906D01*
X105704009Y-117123124D01*
X105686179Y-117123000D01*
X105673821Y-117123000D01*
X105425784Y-117147320D01*
X105187194Y-117219355D01*
X104967140Y-117336360D01*
X104774003Y-117493878D01*
X104615140Y-117685911D01*
X104496602Y-117905143D01*
X104422903Y-118143223D01*
X104409263Y-118273000D01*
X100427000Y-118273000D01*
X100427000Y-115877000D01*
X107901411Y-115877000D01*
X108607240Y-115891785D01*
X110128531Y-115623541D01*
X111568747Y-115064918D01*
X112873030Y-114237194D01*
X113991701Y-113171898D01*
X114882151Y-111909606D01*
X115506464Y-110507374D01*
X132521321Y-110507374D01*
X132566529Y-110753692D01*
X132658720Y-110986538D01*
X132794381Y-111197044D01*
X132968346Y-111377190D01*
X133173989Y-111520115D01*
X133403476Y-111620376D01*
X133648067Y-111674152D01*
X133898444Y-111679397D01*
X134145072Y-111635910D01*
X134378557Y-111545347D01*
X134590004Y-111411159D01*
X134771360Y-111238456D01*
X134915718Y-111033816D01*
X135017578Y-110805034D01*
X135073061Y-110560825D01*
X135077055Y-110274784D01*
X135028412Y-110029120D01*
X134932980Y-109797584D01*
X134794392Y-109588993D01*
X134617929Y-109411294D01*
X134410311Y-109271253D01*
X134179446Y-109174207D01*
X133934129Y-109123850D01*
X133683702Y-109122102D01*
X133437705Y-109169028D01*
X133205508Y-109262842D01*
X132995955Y-109399970D01*
X132817028Y-109575188D01*
X132675542Y-109781824D01*
X132576886Y-110012005D01*
X132524818Y-110256965D01*
X132521321Y-110507374D01*
X115506464Y-110507374D01*
X115510461Y-110498398D01*
X115852700Y-108992027D01*
X115877337Y-107227620D01*
X115683764Y-106250000D01*
X118971176Y-106250000D01*
X118971176Y-108550000D01*
X118975963Y-108610036D01*
X119007497Y-108711863D01*
X119066151Y-108800874D01*
X119147281Y-108870020D01*
X119244462Y-108913826D01*
X119350000Y-108928824D01*
X121650000Y-108928824D01*
X121710036Y-108924037D01*
X121811863Y-108892503D01*
X121900874Y-108833849D01*
X121970020Y-108752719D01*
X122013826Y-108655538D01*
X122028824Y-108550000D01*
X122028824Y-106250000D01*
X122024037Y-106189964D01*
X121992503Y-106088137D01*
X121933849Y-105999126D01*
X121852719Y-105929980D01*
X121755538Y-105886174D01*
X121650000Y-105871176D01*
X119350000Y-105871176D01*
X119289964Y-105875963D01*
X119188137Y-105907497D01*
X119099126Y-105966151D01*
X119029980Y-106047281D01*
X118986174Y-106144462D01*
X118971176Y-106250000D01*
X115683764Y-106250000D01*
X115577292Y-105712281D01*
X114988630Y-104284080D01*
X114133773Y-102997417D01*
X113045283Y-101901301D01*
X111764619Y-101037482D01*
X110340563Y-100438864D01*
X108827355Y-100128247D01*
X107282633Y-100117462D01*
X107253602Y-100123000D01*
X100427000Y-100123000D01*
X100427000Y-90707374D01*
X144821321Y-90707374D01*
X144866529Y-90953692D01*
X144958720Y-91186538D01*
X145094381Y-91397044D01*
X145268346Y-91577190D01*
X145473989Y-91720115D01*
X145703476Y-91820376D01*
X145948067Y-91874152D01*
X146198444Y-91879397D01*
X146445072Y-91835910D01*
X146678557Y-91745347D01*
X146890004Y-91611159D01*
X147071360Y-91438456D01*
X147133758Y-91350000D01*
X157971176Y-91350000D01*
X157971176Y-93650000D01*
X157975963Y-93710036D01*
X158007497Y-93811863D01*
X158066151Y-93900874D01*
X158147281Y-93970020D01*
X158244462Y-94013826D01*
X158350000Y-94028824D01*
X160650000Y-94028824D01*
X160710036Y-94024037D01*
X160811863Y-93992503D01*
X160900874Y-93933849D01*
X160970020Y-93852719D01*
X161013826Y-93755538D01*
X161028824Y-93650000D01*
X161028824Y-91350000D01*
X161024037Y-91289964D01*
X160992503Y-91188137D01*
X160933849Y-91099126D01*
X160852719Y-91029980D01*
X160755538Y-90986174D01*
X160650000Y-90971176D01*
X158350000Y-90971176D01*
X158289964Y-90975963D01*
X158188137Y-91007497D01*
X158099126Y-91066151D01*
X158029980Y-91147281D01*
X157986174Y-91244462D01*
X157971176Y-91350000D01*
X147133758Y-91350000D01*
X147215718Y-91233816D01*
X147317578Y-91005034D01*
X147373061Y-90760825D01*
X147377055Y-90474784D01*
X147328412Y-90229120D01*
X147232980Y-89997584D01*
X147094392Y-89788993D01*
X146917929Y-89611294D01*
X146710311Y-89471253D01*
X146479446Y-89374207D01*
X146234129Y-89323850D01*
X145983702Y-89322102D01*
X145737705Y-89369028D01*
X145505508Y-89462842D01*
X145295955Y-89599970D01*
X145117028Y-89775188D01*
X144975542Y-89981824D01*
X144876886Y-90212005D01*
X144824818Y-90456965D01*
X144821321Y-90707374D01*
X100427000Y-90707374D01*
X100427000Y-79127000D01*
X112923000Y-79127000D01*
X112923000Y-82500000D01*
X112948783Y-82637023D01*
X113029763Y-82762871D01*
X113153326Y-82847298D01*
X113300000Y-82877000D01*
X114187165Y-82877000D01*
X114200000Y-82878824D01*
X116000000Y-82878824D01*
X116022876Y-82877000D01*
X116800000Y-82877000D01*
X116937023Y-82851217D01*
X117062871Y-82770237D01*
X117147298Y-82646674D01*
X117177000Y-82500000D01*
X117177000Y-80672342D01*
X117200000Y-80677000D01*
X120029580Y-80677000D01*
X120102295Y-80699509D01*
X120515150Y-80742902D01*
X120928571Y-80705278D01*
X121024652Y-80677000D01*
X122300000Y-80677000D01*
X122441862Y-80649291D01*
X122566579Y-80566579D01*
X123666579Y-79466579D01*
X123747298Y-79346674D01*
X123777000Y-79200000D01*
X123777000Y-76456158D01*
X125356158Y-74877000D01*
X126643842Y-74877000D01*
X128573000Y-76806158D01*
D29*
G36*
X179600000Y-149600000D02*
X163250000Y-149600000D01*
X163250000Y-145323719D01*
X171144939Y-145323719D01*
X171281235Y-146066339D01*
X171559178Y-146768342D01*
X171968181Y-147402990D01*
X172492665Y-147946109D01*
X173112652Y-148377012D01*
X173804528Y-148679285D01*
X174541939Y-148841415D01*
X175296797Y-148857227D01*
X176040351Y-148726119D01*
X176744278Y-148453083D01*
X177381766Y-148048521D01*
X177928533Y-147527842D01*
X178363753Y-146910878D01*
X178670849Y-146221129D01*
X178838124Y-145484868D01*
X178850166Y-144622488D01*
X178703514Y-143881843D01*
X178415797Y-143183789D01*
X177997973Y-142554913D01*
X177465957Y-142019170D01*
X176840014Y-141596966D01*
X176143985Y-141304382D01*
X175404382Y-141152564D01*
X174649376Y-141147293D01*
X173907726Y-141288770D01*
X173207680Y-141571607D01*
X172575902Y-141985031D01*
X172036458Y-142513293D01*
X171609895Y-143136274D01*
X171312459Y-143830243D01*
X171155481Y-144568768D01*
X171144939Y-145323719D01*
X163250000Y-145323719D01*
X163250000Y-125550000D01*
X166700000Y-125550000D01*
X166827210Y-125526064D01*
X166944045Y-125450883D01*
X167022425Y-125336170D01*
X167050000Y-125200000D01*
X167050000Y-122324418D01*
X168394124Y-122324418D01*
X168408268Y-122479826D01*
X168452327Y-122629528D01*
X168524625Y-122767821D01*
X168622407Y-122889437D01*
X168712830Y-122965310D01*
X168630274Y-123032641D01*
X168530803Y-123152881D01*
X168456582Y-123290150D01*
X168410436Y-123439222D01*
X168394124Y-123594418D01*
X168408268Y-123749826D01*
X168452327Y-123899528D01*
X168524625Y-124037821D01*
X168622407Y-124159437D01*
X168741949Y-124259744D01*
X168878697Y-124334922D01*
X169027443Y-124382107D01*
X169182521Y-124399502D01*
X169193685Y-124399580D01*
X169806315Y-124399580D01*
X169961621Y-124384352D01*
X170111011Y-124339249D01*
X170248796Y-124265987D01*
X170369726Y-124167359D01*
X170469197Y-124047119D01*
X170543418Y-123909850D01*
X170589564Y-123760778D01*
X170605876Y-123605582D01*
X170591732Y-123450174D01*
X170547673Y-123300472D01*
X170475375Y-123162179D01*
X170377593Y-123040563D01*
X170287170Y-122964690D01*
X170369726Y-122897359D01*
X170469197Y-122777119D01*
X170543418Y-122639850D01*
X170589564Y-122490778D01*
X170605876Y-122335582D01*
X170591732Y-122180174D01*
X170547673Y-122030472D01*
X170475375Y-121892179D01*
X170377593Y-121770563D01*
X170258051Y-121670256D01*
X170121303Y-121595078D01*
X169972557Y-121547893D01*
X169817479Y-121530498D01*
X169806315Y-121530420D01*
X169193685Y-121530420D01*
X169038379Y-121545648D01*
X168888989Y-121590751D01*
X168751204Y-121664013D01*
X168630274Y-121762641D01*
X168530803Y-121882881D01*
X168456582Y-122020150D01*
X168410436Y-122169222D01*
X168394124Y-122324418D01*
X167050000Y-122324418D01*
X167050000Y-116800000D01*
X167026064Y-116672790D01*
X166950883Y-116555955D01*
X166836170Y-116477575D01*
X166700000Y-116450000D01*
X164350000Y-116450000D01*
X164350000Y-110023952D01*
X171930000Y-110023952D01*
X171930000Y-110036048D01*
X171953806Y-110278841D01*
X172024317Y-110512386D01*
X172138848Y-110727787D01*
X172293037Y-110916841D01*
X172481009Y-111072345D01*
X172695606Y-111188377D01*
X172928653Y-111260517D01*
X173171273Y-111286018D01*
X173414227Y-111263907D01*
X173648258Y-111195028D01*
X173864454Y-111082003D01*
X174054579Y-110929139D01*
X174211392Y-110742257D01*
X174328919Y-110528475D01*
X174402685Y-110295938D01*
X174429878Y-110053501D01*
X174430000Y-110036048D01*
X174430000Y-110023952D01*
X174470000Y-110023952D01*
X174470000Y-110036048D01*
X174493806Y-110278841D01*
X174564317Y-110512386D01*
X174678848Y-110727787D01*
X174833037Y-110916841D01*
X175021009Y-111072345D01*
X175235606Y-111188377D01*
X175468653Y-111260517D01*
X175711273Y-111286018D01*
X175954227Y-111263907D01*
X176188258Y-111195028D01*
X176404454Y-111082003D01*
X176594579Y-110929139D01*
X176751392Y-110742257D01*
X176868919Y-110528475D01*
X176942685Y-110295938D01*
X176969878Y-110053501D01*
X176970000Y-110036048D01*
X176970000Y-110023952D01*
X176946194Y-109781159D01*
X176875683Y-109547614D01*
X176761152Y-109332213D01*
X176606963Y-109143159D01*
X176418991Y-108987655D01*
X176204394Y-108871623D01*
X175971347Y-108799483D01*
X175728727Y-108773982D01*
X175485773Y-108796093D01*
X175251742Y-108864972D01*
X175035546Y-108977997D01*
X174845421Y-109130861D01*
X174688608Y-109317743D01*
X174571081Y-109531525D01*
X174497315Y-109764062D01*
X174470122Y-110006499D01*
X174470000Y-110023952D01*
X174430000Y-110023952D01*
X174406194Y-109781159D01*
X174335683Y-109547614D01*
X174221152Y-109332213D01*
X174066963Y-109143159D01*
X173878991Y-108987655D01*
X173664394Y-108871623D01*
X173431347Y-108799483D01*
X173188727Y-108773982D01*
X172945773Y-108796093D01*
X172711742Y-108864972D01*
X172495546Y-108977997D01*
X172305421Y-109130861D01*
X172148608Y-109317743D01*
X172031081Y-109531525D01*
X171957315Y-109764062D01*
X171930122Y-110006499D01*
X171930000Y-110023952D01*
X164350000Y-110023952D01*
X164350000Y-96167256D01*
X173598948Y-96167256D01*
X173627270Y-96321567D01*
X173685024Y-96467438D01*
X173770012Y-96599313D01*
X173878995Y-96712169D01*
X173950008Y-96761524D01*
X173950008Y-106220008D01*
X173954513Y-106265952D01*
X173958540Y-106311984D01*
X173959273Y-106314509D01*
X173959530Y-106317125D01*
X173972877Y-106361331D01*
X173985765Y-106405692D01*
X173986975Y-106408027D01*
X173987735Y-106410543D01*
X174009402Y-106451293D01*
X174030672Y-106492328D01*
X174032314Y-106494384D01*
X174033547Y-106496704D01*
X174062736Y-106532493D01*
X174091553Y-106568590D01*
X174095160Y-106572248D01*
X174095223Y-106572325D01*
X174095294Y-106572384D01*
X174096455Y-106573561D01*
X174557435Y-107034541D01*
X174497315Y-107224062D01*
X174470122Y-107466499D01*
X174470000Y-107483952D01*
X174470000Y-107496048D01*
X174493806Y-107738841D01*
X174564317Y-107972386D01*
X174678848Y-108187787D01*
X174833037Y-108376841D01*
X175021009Y-108532345D01*
X175235606Y-108648377D01*
X175468653Y-108720517D01*
X175711273Y-108746018D01*
X175954227Y-108723907D01*
X176188258Y-108655028D01*
X176404454Y-108542003D01*
X176594579Y-108389139D01*
X176751392Y-108202257D01*
X176868919Y-107988475D01*
X176942685Y-107755938D01*
X176969878Y-107513501D01*
X176970000Y-107496048D01*
X176970000Y-107483952D01*
X176946194Y-107241159D01*
X176875683Y-107007614D01*
X176761152Y-106792213D01*
X176606963Y-106603159D01*
X176418991Y-106447655D01*
X176204394Y-106331623D01*
X175971347Y-106259483D01*
X175728727Y-106233982D01*
X175485773Y-106256093D01*
X175259728Y-106322622D01*
X174950008Y-106012902D01*
X174950008Y-105933608D01*
X175021009Y-105992345D01*
X175235606Y-106108377D01*
X175468653Y-106180517D01*
X175711273Y-106206018D01*
X175954227Y-106183907D01*
X176188258Y-106115028D01*
X176404454Y-106002003D01*
X176594579Y-105849139D01*
X176751392Y-105662257D01*
X176868919Y-105448475D01*
X176942685Y-105215938D01*
X176969878Y-104973501D01*
X176970000Y-104956048D01*
X176970000Y-104943952D01*
X176946194Y-104701159D01*
X176875683Y-104467614D01*
X176815048Y-104353576D01*
X178300000Y-105838528D01*
X178300000Y-114451472D01*
X176751472Y-116000000D01*
X176431665Y-116000000D01*
X176412407Y-115980607D01*
X176282341Y-115892876D01*
X176137711Y-115832079D01*
X175984027Y-115800533D01*
X175827143Y-115799437D01*
X175673034Y-115828835D01*
X175527570Y-115887607D01*
X175396291Y-115973513D01*
X175284199Y-116083282D01*
X175195562Y-116212732D01*
X175133758Y-116356934D01*
X175101139Y-116510393D01*
X175098948Y-116667266D01*
X175127270Y-116821577D01*
X175185024Y-116967448D01*
X175270012Y-117099323D01*
X175378995Y-117212179D01*
X175507824Y-117301717D01*
X175651590Y-117364527D01*
X175804818Y-117398216D01*
X175961672Y-117401502D01*
X176116177Y-117374258D01*
X176262447Y-117317524D01*
X176394912Y-117233459D01*
X176430047Y-117200000D01*
X177000000Y-117200000D01*
X177055170Y-117194591D01*
X177110371Y-117189761D01*
X177113400Y-117188881D01*
X177116541Y-117188573D01*
X177169638Y-117172542D01*
X177222821Y-117157091D01*
X177225619Y-117155641D01*
X177228642Y-117154728D01*
X177277573Y-117128711D01*
X177326784Y-117103203D01*
X177329252Y-117101233D01*
X177332035Y-117099753D01*
X177374950Y-117064752D01*
X177418300Y-117030146D01*
X177422691Y-117025816D01*
X177422781Y-117025742D01*
X177422850Y-117025658D01*
X177424264Y-117024264D01*
X179324264Y-115124264D01*
X179359439Y-115081441D01*
X179395068Y-115038980D01*
X179396587Y-115036216D01*
X179398591Y-115033777D01*
X179424789Y-114984918D01*
X179451481Y-114936365D01*
X179452435Y-114933358D01*
X179453926Y-114930577D01*
X179470127Y-114877587D01*
X179486889Y-114824747D01*
X179487241Y-114821610D01*
X179488163Y-114818594D01*
X179493764Y-114763457D01*
X179499942Y-114708377D01*
X179499985Y-114702215D01*
X179499997Y-114702094D01*
X179499986Y-114701981D01*
X179500000Y-114700000D01*
X179500000Y-105590000D01*
X179494591Y-105534830D01*
X179489761Y-105479629D01*
X179488881Y-105476600D01*
X179488573Y-105473459D01*
X179472542Y-105420362D01*
X179457091Y-105367179D01*
X179455641Y-105364381D01*
X179454728Y-105361358D01*
X179428711Y-105312427D01*
X179403203Y-105263216D01*
X179401233Y-105260748D01*
X179399753Y-105257965D01*
X179364752Y-105215050D01*
X179330146Y-105171700D01*
X179325816Y-105167309D01*
X179325742Y-105167219D01*
X179325658Y-105167150D01*
X179324264Y-105165736D01*
X176916623Y-102758095D01*
X176942685Y-102675938D01*
X176969878Y-102433501D01*
X176970000Y-102416048D01*
X176970000Y-102403952D01*
X176946194Y-102161159D01*
X176916319Y-102062209D01*
X179324264Y-99654264D01*
X179359439Y-99611441D01*
X179395068Y-99568980D01*
X179396587Y-99566216D01*
X179398591Y-99563777D01*
X179424799Y-99514899D01*
X179451481Y-99466365D01*
X179452434Y-99463360D01*
X179453926Y-99460578D01*
X179470135Y-99407560D01*
X179486889Y-99354747D01*
X179487241Y-99351612D01*
X179488163Y-99348595D01*
X179493759Y-99293496D01*
X179499942Y-99238377D01*
X179499985Y-99232205D01*
X179499996Y-99232094D01*
X179499986Y-99231991D01*
X179500000Y-99230000D01*
X179500000Y-88150654D01*
X179494591Y-88095484D01*
X179489761Y-88040283D01*
X179488881Y-88037254D01*
X179488573Y-88034113D01*
X179472542Y-87981016D01*
X179457091Y-87927833D01*
X179455641Y-87925035D01*
X179454728Y-87922012D01*
X179428711Y-87873081D01*
X179403203Y-87823870D01*
X179401233Y-87821402D01*
X179399753Y-87818619D01*
X179364752Y-87775704D01*
X179330146Y-87732354D01*
X179325816Y-87727963D01*
X179325742Y-87727873D01*
X179325658Y-87727804D01*
X179324264Y-87726390D01*
X176437710Y-84839836D01*
X176438122Y-84810298D01*
X176407649Y-84656398D01*
X176347864Y-84511347D01*
X176261043Y-84380672D01*
X176150495Y-84269349D01*
X176020429Y-84181618D01*
X175875799Y-84120821D01*
X175722115Y-84089275D01*
X175565231Y-84088179D01*
X175411122Y-84117577D01*
X175265658Y-84176349D01*
X175134379Y-84262255D01*
X175022287Y-84372024D01*
X174933650Y-84501474D01*
X174871846Y-84645676D01*
X174839227Y-84799135D01*
X174837036Y-84956008D01*
X174865358Y-85110319D01*
X174923112Y-85256190D01*
X175008100Y-85388065D01*
X175117083Y-85500921D01*
X175245912Y-85590459D01*
X175389678Y-85653269D01*
X175542906Y-85686958D01*
X175588736Y-85687918D01*
X178300000Y-88399182D01*
X178300000Y-98981472D01*
X176815100Y-100466372D01*
X176868919Y-100368475D01*
X176942685Y-100135938D01*
X176969878Y-99893501D01*
X176970000Y-99876048D01*
X176970000Y-99863952D01*
X176946194Y-99621159D01*
X176875683Y-99387614D01*
X176761152Y-99172213D01*
X176606963Y-98983159D01*
X176418991Y-98827655D01*
X176204394Y-98711623D01*
X175971347Y-98639483D01*
X175728727Y-98613982D01*
X175485773Y-98636093D01*
X175251742Y-98704972D01*
X175035546Y-98817997D01*
X174950008Y-98886771D01*
X174950008Y-98313608D01*
X175021009Y-98372345D01*
X175235606Y-98488377D01*
X175468653Y-98560517D01*
X175711273Y-98586018D01*
X175954227Y-98563907D01*
X176188258Y-98495028D01*
X176404454Y-98382003D01*
X176594579Y-98229139D01*
X176751392Y-98042257D01*
X176868919Y-97828475D01*
X176942685Y-97595938D01*
X176969878Y-97353501D01*
X176970000Y-97336048D01*
X176970000Y-97323952D01*
X176946194Y-97081159D01*
X176875683Y-96847614D01*
X176761152Y-96632213D01*
X176606963Y-96443159D01*
X176418991Y-96287655D01*
X176204394Y-96171623D01*
X175971347Y-96099483D01*
X175728727Y-96073982D01*
X175485773Y-96096093D01*
X175251742Y-96164972D01*
X175197636Y-96193258D01*
X175200034Y-96021546D01*
X175179544Y-95918065D01*
X175235606Y-95948377D01*
X175468653Y-96020517D01*
X175711273Y-96046018D01*
X175954227Y-96023907D01*
X176188258Y-95955028D01*
X176404454Y-95842003D01*
X176594579Y-95689139D01*
X176751392Y-95502257D01*
X176868919Y-95288475D01*
X176942685Y-95055938D01*
X176969878Y-94813501D01*
X176970000Y-94796048D01*
X176970000Y-94783952D01*
X176946194Y-94541159D01*
X176875683Y-94307614D01*
X176761152Y-94092213D01*
X176606963Y-93903159D01*
X176418991Y-93747655D01*
X176204394Y-93631623D01*
X175971347Y-93559483D01*
X175728727Y-93533982D01*
X175485773Y-93556093D01*
X175251742Y-93624972D01*
X175035546Y-93737997D01*
X174845421Y-93890861D01*
X174688608Y-94077743D01*
X174571081Y-94291525D01*
X174497315Y-94524062D01*
X174470122Y-94766499D01*
X174470000Y-94783952D01*
X174470000Y-94796048D01*
X174493806Y-95038841D01*
X174564317Y-95272386D01*
X174590947Y-95322470D01*
X174484027Y-95300523D01*
X174327143Y-95299427D01*
X174173034Y-95328825D01*
X174027570Y-95387597D01*
X173896291Y-95473503D01*
X173784199Y-95583272D01*
X173695562Y-95712722D01*
X173633758Y-95856924D01*
X173601139Y-96010383D01*
X173598948Y-96167256D01*
X164350000Y-96167256D01*
X164350000Y-92243952D01*
X174470000Y-92243952D01*
X174470000Y-92256048D01*
X174493806Y-92498841D01*
X174564317Y-92732386D01*
X174678848Y-92947787D01*
X174833037Y-93136841D01*
X175021009Y-93292345D01*
X175235606Y-93408377D01*
X175468653Y-93480517D01*
X175711273Y-93506018D01*
X175954227Y-93483907D01*
X176188258Y-93415028D01*
X176404454Y-93302003D01*
X176594579Y-93149139D01*
X176751392Y-92962257D01*
X176868919Y-92748475D01*
X176942685Y-92515938D01*
X176969878Y-92273501D01*
X176970000Y-92256048D01*
X176970000Y-92243952D01*
X176946194Y-92001159D01*
X176875683Y-91767614D01*
X176761152Y-91552213D01*
X176606963Y-91363159D01*
X176418991Y-91207655D01*
X176204394Y-91091623D01*
X175971347Y-91019483D01*
X175728727Y-90993982D01*
X175485773Y-91016093D01*
X175251742Y-91084972D01*
X175035546Y-91197997D01*
X174845421Y-91350861D01*
X174688608Y-91537743D01*
X174571081Y-91751525D01*
X174497315Y-91984062D01*
X174470122Y-92226499D01*
X174470000Y-92243952D01*
X164350000Y-92243952D01*
X164350000Y-86400000D01*
X164392894Y-86400000D01*
X164599772Y-86606878D01*
X164598928Y-86667299D01*
X164627250Y-86821610D01*
X164685004Y-86967481D01*
X164769992Y-87099356D01*
X164878975Y-87212212D01*
X165007804Y-87301750D01*
X165151570Y-87364560D01*
X165304798Y-87398249D01*
X165461652Y-87401535D01*
X165616157Y-87374291D01*
X165762427Y-87317557D01*
X165894892Y-87233492D01*
X166008506Y-87125299D01*
X166098942Y-86997099D01*
X166162754Y-86853774D01*
X166197512Y-86700785D01*
X166200014Y-86521589D01*
X166169541Y-86367689D01*
X166109756Y-86222638D01*
X166022935Y-86091963D01*
X165981891Y-86050631D01*
X166008506Y-86025286D01*
X166098942Y-85897086D01*
X166162754Y-85753761D01*
X166197512Y-85600772D01*
X166200014Y-85421576D01*
X166169541Y-85267676D01*
X166109756Y-85122625D01*
X166022935Y-84991950D01*
X165912387Y-84880627D01*
X165782321Y-84792896D01*
X165637691Y-84732099D01*
X165484007Y-84700553D01*
X165327123Y-84699457D01*
X165173014Y-84728855D01*
X165027550Y-84787627D01*
X165008642Y-84800000D01*
X152407107Y-84800000D01*
X147553553Y-79946447D01*
X147517908Y-79917168D01*
X147482484Y-79887443D01*
X147480177Y-79886175D01*
X147478148Y-79884508D01*
X147437479Y-79862701D01*
X147396971Y-79840432D01*
X147394464Y-79839637D01*
X147392148Y-79838395D01*
X147347985Y-79824893D01*
X147303956Y-79810926D01*
X147301345Y-79810633D01*
X147298829Y-79809864D01*
X147252853Y-79805194D01*
X147206981Y-79800049D01*
X147201843Y-79800013D01*
X147201745Y-79800003D01*
X147201654Y-79800012D01*
X147200000Y-79800000D01*
X134180000Y-79800000D01*
X134134048Y-79804505D01*
X134088025Y-79808532D01*
X134085501Y-79809265D01*
X134082883Y-79809522D01*
X134038665Y-79822873D01*
X133994316Y-79835757D01*
X133991981Y-79836967D01*
X133989465Y-79837727D01*
X133948694Y-79859405D01*
X133907681Y-79880664D01*
X133905626Y-79882304D01*
X133903304Y-79883539D01*
X133867494Y-79912746D01*
X133831418Y-79941545D01*
X133827756Y-79945156D01*
X133827683Y-79945215D01*
X133827627Y-79945282D01*
X133826447Y-79946446D01*
X133335458Y-80437435D01*
X133145938Y-80377315D01*
X132903501Y-80350122D01*
X132886048Y-80350000D01*
X132873952Y-80350000D01*
X132631159Y-80373806D01*
X132397614Y-80444317D01*
X132182213Y-80558848D01*
X131993159Y-80713037D01*
X131837655Y-80901009D01*
X131721623Y-81115606D01*
X131649483Y-81348653D01*
X131623982Y-81591273D01*
X131646093Y-81834227D01*
X131714972Y-82068258D01*
X131827997Y-82284454D01*
X131980861Y-82474579D01*
X132167743Y-82631392D01*
X132381525Y-82748919D01*
X132614062Y-82822685D01*
X132856499Y-82849878D01*
X132873952Y-82850000D01*
X132886048Y-82850000D01*
X133128841Y-82826194D01*
X133362386Y-82755683D01*
X133577787Y-82641152D01*
X133766841Y-82486963D01*
X133922345Y-82298991D01*
X134038377Y-82084394D01*
X134110517Y-81851347D01*
X134136018Y-81608727D01*
X134113907Y-81365773D01*
X134047378Y-81139728D01*
X134387107Y-80800000D01*
X134461217Y-80800000D01*
X134377655Y-80901009D01*
X134261623Y-81115606D01*
X134189483Y-81348653D01*
X134163982Y-81591273D01*
X134186093Y-81834227D01*
X134254972Y-82068258D01*
X134367997Y-82284454D01*
X134520861Y-82474579D01*
X134707743Y-82631392D01*
X134921525Y-82748919D01*
X135154062Y-82822685D01*
X135396499Y-82849878D01*
X135413952Y-82850000D01*
X135426048Y-82850000D01*
X135668841Y-82826194D01*
X135902386Y-82755683D01*
X136117787Y-82641152D01*
X136306841Y-82486963D01*
X136462345Y-82298991D01*
X136578377Y-82084394D01*
X136650517Y-81851347D01*
X136676018Y-81608727D01*
X136657022Y-81400000D01*
X146692894Y-81400000D01*
X148542894Y-83250000D01*
X128550000Y-83250000D01*
X128550000Y-82612163D01*
X128573262Y-82579596D01*
X128686841Y-82486963D01*
X128842345Y-82298991D01*
X128958377Y-82084394D01*
X128982392Y-82006814D01*
X128984807Y-82003433D01*
X129022425Y-81936170D01*
X129050000Y-81800000D01*
X129050000Y-81665983D01*
X129056018Y-81608727D01*
X129050000Y-81542602D01*
X129050000Y-81198528D01*
X131148528Y-79100000D01*
X147951472Y-79100000D01*
X153075736Y-84224264D01*
X153118559Y-84259439D01*
X153161020Y-84295068D01*
X153163784Y-84296587D01*
X153166223Y-84298591D01*
X153215101Y-84324799D01*
X153263635Y-84351481D01*
X153266640Y-84352434D01*
X153269422Y-84353926D01*
X153322427Y-84370131D01*
X153375253Y-84386889D01*
X153378390Y-84387241D01*
X153381406Y-84388163D01*
X153436498Y-84393759D01*
X153491623Y-84399942D01*
X153497795Y-84399985D01*
X153497906Y-84399996D01*
X153498009Y-84399986D01*
X153500000Y-84400000D01*
X164500000Y-84400000D01*
X164555170Y-84394591D01*
X164610371Y-84389761D01*
X164613400Y-84388881D01*
X164616541Y-84388573D01*
X164669638Y-84372542D01*
X164722821Y-84357091D01*
X164725619Y-84355641D01*
X164728642Y-84354728D01*
X164777573Y-84328711D01*
X164826784Y-84303203D01*
X164829252Y-84301233D01*
X164832035Y-84299753D01*
X164874950Y-84264752D01*
X164918300Y-84230146D01*
X164922691Y-84225816D01*
X164922781Y-84225742D01*
X164922850Y-84225658D01*
X164924264Y-84224264D01*
X166351905Y-82796623D01*
X166434062Y-82822685D01*
X166676499Y-82849878D01*
X166693952Y-82850000D01*
X166706048Y-82850000D01*
X166948841Y-82826194D01*
X167182386Y-82755683D01*
X167397787Y-82641152D01*
X167586841Y-82486963D01*
X167742345Y-82298991D01*
X167858377Y-82084394D01*
X167930517Y-81851347D01*
X167956018Y-81608727D01*
X167954430Y-81591273D01*
X170523982Y-81591273D01*
X170546093Y-81834227D01*
X170614972Y-82068258D01*
X170727997Y-82284454D01*
X170880861Y-82474579D01*
X171067743Y-82631392D01*
X171281525Y-82748919D01*
X171514062Y-82822685D01*
X171756499Y-82849878D01*
X171773952Y-82850000D01*
X171786048Y-82850000D01*
X172028841Y-82826194D01*
X172262386Y-82755683D01*
X172477787Y-82641152D01*
X172666841Y-82486963D01*
X172822345Y-82298991D01*
X172938377Y-82084394D01*
X173010517Y-81851347D01*
X173036018Y-81608727D01*
X173034430Y-81591273D01*
X173063982Y-81591273D01*
X173086093Y-81834227D01*
X173154972Y-82068258D01*
X173267997Y-82284454D01*
X173420861Y-82474579D01*
X173607743Y-82631392D01*
X173821525Y-82748919D01*
X174054062Y-82822685D01*
X174296499Y-82849878D01*
X174313952Y-82850000D01*
X174326048Y-82850000D01*
X174568841Y-82826194D01*
X174802386Y-82755683D01*
X175017787Y-82641152D01*
X175206841Y-82486963D01*
X175362345Y-82298991D01*
X175478377Y-82084394D01*
X175550517Y-81851347D01*
X175576018Y-81608727D01*
X175553907Y-81365773D01*
X175485028Y-81131742D01*
X175372003Y-80915546D01*
X175219139Y-80725421D01*
X175032257Y-80568608D01*
X174818475Y-80451081D01*
X174585938Y-80377315D01*
X174343501Y-80350122D01*
X174326048Y-80350000D01*
X174313952Y-80350000D01*
X174071159Y-80373806D01*
X173837614Y-80444317D01*
X173622213Y-80558848D01*
X173433159Y-80713037D01*
X173277655Y-80901009D01*
X173161623Y-81115606D01*
X173089483Y-81348653D01*
X173063982Y-81591273D01*
X173034430Y-81591273D01*
X173013907Y-81365773D01*
X172945028Y-81131742D01*
X172832003Y-80915546D01*
X172679139Y-80725421D01*
X172492257Y-80568608D01*
X172278475Y-80451081D01*
X172045938Y-80377315D01*
X171803501Y-80350122D01*
X171786048Y-80350000D01*
X171773952Y-80350000D01*
X171531159Y-80373806D01*
X171297614Y-80444317D01*
X171082213Y-80558848D01*
X170893159Y-80713037D01*
X170737655Y-80901009D01*
X170621623Y-81115606D01*
X170549483Y-81348653D01*
X170523982Y-81591273D01*
X167954430Y-81591273D01*
X167933907Y-81365773D01*
X167865028Y-81131742D01*
X167752003Y-80915546D01*
X167683852Y-80830782D01*
X167860599Y-80633641D01*
X167919834Y-80542148D01*
X168477433Y-79287551D01*
X168524625Y-79377821D01*
X168622407Y-79499437D01*
X168741949Y-79599744D01*
X168878697Y-79674922D01*
X169027443Y-79722107D01*
X169182521Y-79739502D01*
X169193685Y-79739580D01*
X169806315Y-79739580D01*
X169961621Y-79724352D01*
X170111011Y-79679249D01*
X170248796Y-79605987D01*
X170369726Y-79507359D01*
X170469197Y-79387119D01*
X170543418Y-79249850D01*
X170589564Y-79100778D01*
X170605876Y-78945582D01*
X170591732Y-78790174D01*
X170547673Y-78640472D01*
X170475375Y-78502179D01*
X170377593Y-78380563D01*
X170287170Y-78304690D01*
X170369726Y-78237359D01*
X170469197Y-78117119D01*
X170543418Y-77979850D01*
X170589564Y-77830778D01*
X170605876Y-77675582D01*
X170591732Y-77520174D01*
X170547673Y-77370472D01*
X170475375Y-77232179D01*
X170377593Y-77110563D01*
X170258051Y-77010256D01*
X170121303Y-76935078D01*
X169972557Y-76887893D01*
X169817479Y-76870498D01*
X169806315Y-76870420D01*
X169193685Y-76870420D01*
X169038379Y-76885648D01*
X168888989Y-76930751D01*
X168751204Y-77004013D01*
X168750000Y-77004995D01*
X168750000Y-76044974D01*
X168844974Y-75950000D01*
X169900000Y-75950000D01*
X170031702Y-75924275D01*
X170147487Y-75847487D01*
X170447487Y-75547487D01*
X170522425Y-75436170D01*
X170550000Y-75300000D01*
X170550000Y-55323719D01*
X171144939Y-55323719D01*
X171281235Y-56066339D01*
X171559178Y-56768342D01*
X171968181Y-57402990D01*
X172492665Y-57946109D01*
X173112652Y-58377012D01*
X173804528Y-58679285D01*
X174541939Y-58841415D01*
X175296797Y-58857227D01*
X176040351Y-58726119D01*
X176744278Y-58453083D01*
X177381766Y-58048521D01*
X177928533Y-57527842D01*
X178363753Y-56910878D01*
X178670849Y-56221129D01*
X178838124Y-55484868D01*
X178850166Y-54622488D01*
X178703514Y-53881843D01*
X178415797Y-53183789D01*
X177997973Y-52554913D01*
X177465957Y-52019170D01*
X176840014Y-51596966D01*
X176143985Y-51304382D01*
X175404382Y-51152564D01*
X174649376Y-51147293D01*
X173907726Y-51288770D01*
X173207680Y-51571607D01*
X172575902Y-51985031D01*
X172036458Y-52513293D01*
X171609895Y-53136274D01*
X171312459Y-53830243D01*
X171155481Y-54568768D01*
X171144939Y-55323719D01*
X170550000Y-55323719D01*
X170550000Y-50400000D01*
X179600000Y-50400000D01*
X179600000Y-149600000D01*
X179600000Y-149600000D01*
G37*
X179600000Y-149600000D02*
X163250000Y-149600000D01*
X163250000Y-145323719D01*
X171144939Y-145323719D01*
X171281235Y-146066339D01*
X171559178Y-146768342D01*
X171968181Y-147402990D01*
X172492665Y-147946109D01*
X173112652Y-148377012D01*
X173804528Y-148679285D01*
X174541939Y-148841415D01*
X175296797Y-148857227D01*
X176040351Y-148726119D01*
X176744278Y-148453083D01*
X177381766Y-148048521D01*
X177928533Y-147527842D01*
X178363753Y-146910878D01*
X178670849Y-146221129D01*
X178838124Y-145484868D01*
X178850166Y-144622488D01*
X178703514Y-143881843D01*
X178415797Y-143183789D01*
X177997973Y-142554913D01*
X177465957Y-142019170D01*
X176840014Y-141596966D01*
X176143985Y-141304382D01*
X175404382Y-141152564D01*
X174649376Y-141147293D01*
X173907726Y-141288770D01*
X173207680Y-141571607D01*
X172575902Y-141985031D01*
X172036458Y-142513293D01*
X171609895Y-143136274D01*
X171312459Y-143830243D01*
X171155481Y-144568768D01*
X171144939Y-145323719D01*
X163250000Y-145323719D01*
X163250000Y-125550000D01*
X166700000Y-125550000D01*
X166827210Y-125526064D01*
X166944045Y-125450883D01*
X167022425Y-125336170D01*
X167050000Y-125200000D01*
X167050000Y-122324418D01*
X168394124Y-122324418D01*
X168408268Y-122479826D01*
X168452327Y-122629528D01*
X168524625Y-122767821D01*
X168622407Y-122889437D01*
X168712830Y-122965310D01*
X168630274Y-123032641D01*
X168530803Y-123152881D01*
X168456582Y-123290150D01*
X168410436Y-123439222D01*
X168394124Y-123594418D01*
X168408268Y-123749826D01*
X168452327Y-123899528D01*
X168524625Y-124037821D01*
X168622407Y-124159437D01*
X168741949Y-124259744D01*
X168878697Y-124334922D01*
X169027443Y-124382107D01*
X169182521Y-124399502D01*
X169193685Y-124399580D01*
X169806315Y-124399580D01*
X169961621Y-124384352D01*
X170111011Y-124339249D01*
X170248796Y-124265987D01*
X170369726Y-124167359D01*
X170469197Y-124047119D01*
X170543418Y-123909850D01*
X170589564Y-123760778D01*
X170605876Y-123605582D01*
X170591732Y-123450174D01*
X170547673Y-123300472D01*
X170475375Y-123162179D01*
X170377593Y-123040563D01*
X170287170Y-122964690D01*
X170369726Y-122897359D01*
X170469197Y-122777119D01*
X170543418Y-122639850D01*
X170589564Y-122490778D01*
X170605876Y-122335582D01*
X170591732Y-122180174D01*
X170547673Y-122030472D01*
X170475375Y-121892179D01*
X170377593Y-121770563D01*
X170258051Y-121670256D01*
X170121303Y-121595078D01*
X169972557Y-121547893D01*
X169817479Y-121530498D01*
X169806315Y-121530420D01*
X169193685Y-121530420D01*
X169038379Y-121545648D01*
X168888989Y-121590751D01*
X168751204Y-121664013D01*
X168630274Y-121762641D01*
X168530803Y-121882881D01*
X168456582Y-122020150D01*
X168410436Y-122169222D01*
X168394124Y-122324418D01*
X167050000Y-122324418D01*
X167050000Y-116800000D01*
X167026064Y-116672790D01*
X166950883Y-116555955D01*
X166836170Y-116477575D01*
X166700000Y-116450000D01*
X164350000Y-116450000D01*
X164350000Y-110023952D01*
X171930000Y-110023952D01*
X171930000Y-110036048D01*
X171953806Y-110278841D01*
X172024317Y-110512386D01*
X172138848Y-110727787D01*
X172293037Y-110916841D01*
X172481009Y-111072345D01*
X172695606Y-111188377D01*
X172928653Y-111260517D01*
X173171273Y-111286018D01*
X173414227Y-111263907D01*
X173648258Y-111195028D01*
X173864454Y-111082003D01*
X174054579Y-110929139D01*
X174211392Y-110742257D01*
X174328919Y-110528475D01*
X174402685Y-110295938D01*
X174429878Y-110053501D01*
X174430000Y-110036048D01*
X174430000Y-110023952D01*
X174470000Y-110023952D01*
X174470000Y-110036048D01*
X174493806Y-110278841D01*
X174564317Y-110512386D01*
X174678848Y-110727787D01*
X174833037Y-110916841D01*
X175021009Y-111072345D01*
X175235606Y-111188377D01*
X175468653Y-111260517D01*
X175711273Y-111286018D01*
X175954227Y-111263907D01*
X176188258Y-111195028D01*
X176404454Y-111082003D01*
X176594579Y-110929139D01*
X176751392Y-110742257D01*
X176868919Y-110528475D01*
X176942685Y-110295938D01*
X176969878Y-110053501D01*
X176970000Y-110036048D01*
X176970000Y-110023952D01*
X176946194Y-109781159D01*
X176875683Y-109547614D01*
X176761152Y-109332213D01*
X176606963Y-109143159D01*
X176418991Y-108987655D01*
X176204394Y-108871623D01*
X175971347Y-108799483D01*
X175728727Y-108773982D01*
X175485773Y-108796093D01*
X175251742Y-108864972D01*
X175035546Y-108977997D01*
X174845421Y-109130861D01*
X174688608Y-109317743D01*
X174571081Y-109531525D01*
X174497315Y-109764062D01*
X174470122Y-110006499D01*
X174470000Y-110023952D01*
X174430000Y-110023952D01*
X174406194Y-109781159D01*
X174335683Y-109547614D01*
X174221152Y-109332213D01*
X174066963Y-109143159D01*
X173878991Y-108987655D01*
X173664394Y-108871623D01*
X173431347Y-108799483D01*
X173188727Y-108773982D01*
X172945773Y-108796093D01*
X172711742Y-108864972D01*
X172495546Y-108977997D01*
X172305421Y-109130861D01*
X172148608Y-109317743D01*
X172031081Y-109531525D01*
X171957315Y-109764062D01*
X171930122Y-110006499D01*
X171930000Y-110023952D01*
X164350000Y-110023952D01*
X164350000Y-96167256D01*
X173598948Y-96167256D01*
X173627270Y-96321567D01*
X173685024Y-96467438D01*
X173770012Y-96599313D01*
X173878995Y-96712169D01*
X173950008Y-96761524D01*
X173950008Y-106220008D01*
X173954513Y-106265952D01*
X173958540Y-106311984D01*
X173959273Y-106314509D01*
X173959530Y-106317125D01*
X173972877Y-106361331D01*
X173985765Y-106405692D01*
X173986975Y-106408027D01*
X173987735Y-106410543D01*
X174009402Y-106451293D01*
X174030672Y-106492328D01*
X174032314Y-106494384D01*
X174033547Y-106496704D01*
X174062736Y-106532493D01*
X174091553Y-106568590D01*
X174095160Y-106572248D01*
X174095223Y-106572325D01*
X174095294Y-106572384D01*
X174096455Y-106573561D01*
X174557435Y-107034541D01*
X174497315Y-107224062D01*
X174470122Y-107466499D01*
X174470000Y-107483952D01*
X174470000Y-107496048D01*
X174493806Y-107738841D01*
X174564317Y-107972386D01*
X174678848Y-108187787D01*
X174833037Y-108376841D01*
X175021009Y-108532345D01*
X175235606Y-108648377D01*
X175468653Y-108720517D01*
X175711273Y-108746018D01*
X175954227Y-108723907D01*
X176188258Y-108655028D01*
X176404454Y-108542003D01*
X176594579Y-108389139D01*
X176751392Y-108202257D01*
X176868919Y-107988475D01*
X176942685Y-107755938D01*
X176969878Y-107513501D01*
X176970000Y-107496048D01*
X176970000Y-107483952D01*
X176946194Y-107241159D01*
X176875683Y-107007614D01*
X176761152Y-106792213D01*
X176606963Y-106603159D01*
X176418991Y-106447655D01*
X176204394Y-106331623D01*
X175971347Y-106259483D01*
X175728727Y-106233982D01*
X175485773Y-106256093D01*
X175259728Y-106322622D01*
X174950008Y-106012902D01*
X174950008Y-105933608D01*
X175021009Y-105992345D01*
X175235606Y-106108377D01*
X175468653Y-106180517D01*
X175711273Y-106206018D01*
X175954227Y-106183907D01*
X176188258Y-106115028D01*
X176404454Y-106002003D01*
X176594579Y-105849139D01*
X176751392Y-105662257D01*
X176868919Y-105448475D01*
X176942685Y-105215938D01*
X176969878Y-104973501D01*
X176970000Y-104956048D01*
X176970000Y-104943952D01*
X176946194Y-104701159D01*
X176875683Y-104467614D01*
X176815048Y-104353576D01*
X178300000Y-105838528D01*
X178300000Y-114451472D01*
X176751472Y-116000000D01*
X176431665Y-116000000D01*
X176412407Y-115980607D01*
X176282341Y-115892876D01*
X176137711Y-115832079D01*
X175984027Y-115800533D01*
X175827143Y-115799437D01*
X175673034Y-115828835D01*
X175527570Y-115887607D01*
X175396291Y-115973513D01*
X175284199Y-116083282D01*
X175195562Y-116212732D01*
X175133758Y-116356934D01*
X175101139Y-116510393D01*
X175098948Y-116667266D01*
X175127270Y-116821577D01*
X175185024Y-116967448D01*
X175270012Y-117099323D01*
X175378995Y-117212179D01*
X175507824Y-117301717D01*
X175651590Y-117364527D01*
X175804818Y-117398216D01*
X175961672Y-117401502D01*
X176116177Y-117374258D01*
X176262447Y-117317524D01*
X176394912Y-117233459D01*
X176430047Y-117200000D01*
X177000000Y-117200000D01*
X177055170Y-117194591D01*
X177110371Y-117189761D01*
X177113400Y-117188881D01*
X177116541Y-117188573D01*
X177169638Y-117172542D01*
X177222821Y-117157091D01*
X177225619Y-117155641D01*
X177228642Y-117154728D01*
X177277573Y-117128711D01*
X177326784Y-117103203D01*
X177329252Y-117101233D01*
X177332035Y-117099753D01*
X177374950Y-117064752D01*
X177418300Y-117030146D01*
X177422691Y-117025816D01*
X177422781Y-117025742D01*
X177422850Y-117025658D01*
X177424264Y-117024264D01*
X179324264Y-115124264D01*
X179359439Y-115081441D01*
X179395068Y-115038980D01*
X179396587Y-115036216D01*
X179398591Y-115033777D01*
X179424789Y-114984918D01*
X179451481Y-114936365D01*
X179452435Y-114933358D01*
X179453926Y-114930577D01*
X179470127Y-114877587D01*
X179486889Y-114824747D01*
X179487241Y-114821610D01*
X179488163Y-114818594D01*
X179493764Y-114763457D01*
X179499942Y-114708377D01*
X179499985Y-114702215D01*
X179499997Y-114702094D01*
X179499986Y-114701981D01*
X179500000Y-114700000D01*
X179500000Y-105590000D01*
X179494591Y-105534830D01*
X179489761Y-105479629D01*
X179488881Y-105476600D01*
X179488573Y-105473459D01*
X179472542Y-105420362D01*
X179457091Y-105367179D01*
X179455641Y-105364381D01*
X179454728Y-105361358D01*
X179428711Y-105312427D01*
X179403203Y-105263216D01*
X179401233Y-105260748D01*
X179399753Y-105257965D01*
X179364752Y-105215050D01*
X179330146Y-105171700D01*
X179325816Y-105167309D01*
X179325742Y-105167219D01*
X179325658Y-105167150D01*
X179324264Y-105165736D01*
X176916623Y-102758095D01*
X176942685Y-102675938D01*
X176969878Y-102433501D01*
X176970000Y-102416048D01*
X176970000Y-102403952D01*
X176946194Y-102161159D01*
X176916319Y-102062209D01*
X179324264Y-99654264D01*
X179359439Y-99611441D01*
X179395068Y-99568980D01*
X179396587Y-99566216D01*
X179398591Y-99563777D01*
X179424799Y-99514899D01*
X179451481Y-99466365D01*
X179452434Y-99463360D01*
X179453926Y-99460578D01*
X179470135Y-99407560D01*
X179486889Y-99354747D01*
X179487241Y-99351612D01*
X179488163Y-99348595D01*
X179493759Y-99293496D01*
X179499942Y-99238377D01*
X179499985Y-99232205D01*
X179499996Y-99232094D01*
X179499986Y-99231991D01*
X179500000Y-99230000D01*
X179500000Y-88150654D01*
X179494591Y-88095484D01*
X179489761Y-88040283D01*
X179488881Y-88037254D01*
X179488573Y-88034113D01*
X179472542Y-87981016D01*
X179457091Y-87927833D01*
X179455641Y-87925035D01*
X179454728Y-87922012D01*
X179428711Y-87873081D01*
X179403203Y-87823870D01*
X179401233Y-87821402D01*
X179399753Y-87818619D01*
X179364752Y-87775704D01*
X179330146Y-87732354D01*
X179325816Y-87727963D01*
X179325742Y-87727873D01*
X179325658Y-87727804D01*
X179324264Y-87726390D01*
X176437710Y-84839836D01*
X176438122Y-84810298D01*
X176407649Y-84656398D01*
X176347864Y-84511347D01*
X176261043Y-84380672D01*
X176150495Y-84269349D01*
X176020429Y-84181618D01*
X175875799Y-84120821D01*
X175722115Y-84089275D01*
X175565231Y-84088179D01*
X175411122Y-84117577D01*
X175265658Y-84176349D01*
X175134379Y-84262255D01*
X175022287Y-84372024D01*
X174933650Y-84501474D01*
X174871846Y-84645676D01*
X174839227Y-84799135D01*
X174837036Y-84956008D01*
X174865358Y-85110319D01*
X174923112Y-85256190D01*
X175008100Y-85388065D01*
X175117083Y-85500921D01*
X175245912Y-85590459D01*
X175389678Y-85653269D01*
X175542906Y-85686958D01*
X175588736Y-85687918D01*
X178300000Y-88399182D01*
X178300000Y-98981472D01*
X176815100Y-100466372D01*
X176868919Y-100368475D01*
X176942685Y-100135938D01*
X176969878Y-99893501D01*
X176970000Y-99876048D01*
X176970000Y-99863952D01*
X176946194Y-99621159D01*
X176875683Y-99387614D01*
X176761152Y-99172213D01*
X176606963Y-98983159D01*
X176418991Y-98827655D01*
X176204394Y-98711623D01*
X175971347Y-98639483D01*
X175728727Y-98613982D01*
X175485773Y-98636093D01*
X175251742Y-98704972D01*
X175035546Y-98817997D01*
X174950008Y-98886771D01*
X174950008Y-98313608D01*
X175021009Y-98372345D01*
X175235606Y-98488377D01*
X175468653Y-98560517D01*
X175711273Y-98586018D01*
X175954227Y-98563907D01*
X176188258Y-98495028D01*
X176404454Y-98382003D01*
X176594579Y-98229139D01*
X176751392Y-98042257D01*
X176868919Y-97828475D01*
X176942685Y-97595938D01*
X176969878Y-97353501D01*
X176970000Y-97336048D01*
X176970000Y-97323952D01*
X176946194Y-97081159D01*
X176875683Y-96847614D01*
X176761152Y-96632213D01*
X176606963Y-96443159D01*
X176418991Y-96287655D01*
X176204394Y-96171623D01*
X175971347Y-96099483D01*
X175728727Y-96073982D01*
X175485773Y-96096093D01*
X175251742Y-96164972D01*
X175197636Y-96193258D01*
X175200034Y-96021546D01*
X175179544Y-95918065D01*
X175235606Y-95948377D01*
X175468653Y-96020517D01*
X175711273Y-96046018D01*
X175954227Y-96023907D01*
X176188258Y-95955028D01*
X176404454Y-95842003D01*
X176594579Y-95689139D01*
X176751392Y-95502257D01*
X176868919Y-95288475D01*
X176942685Y-95055938D01*
X176969878Y-94813501D01*
X176970000Y-94796048D01*
X176970000Y-94783952D01*
X176946194Y-94541159D01*
X176875683Y-94307614D01*
X176761152Y-94092213D01*
X176606963Y-93903159D01*
X176418991Y-93747655D01*
X176204394Y-93631623D01*
X175971347Y-93559483D01*
X175728727Y-93533982D01*
X175485773Y-93556093D01*
X175251742Y-93624972D01*
X175035546Y-93737997D01*
X174845421Y-93890861D01*
X174688608Y-94077743D01*
X174571081Y-94291525D01*
X174497315Y-94524062D01*
X174470122Y-94766499D01*
X174470000Y-94783952D01*
X174470000Y-94796048D01*
X174493806Y-95038841D01*
X174564317Y-95272386D01*
X174590947Y-95322470D01*
X174484027Y-95300523D01*
X174327143Y-95299427D01*
X174173034Y-95328825D01*
X174027570Y-95387597D01*
X173896291Y-95473503D01*
X173784199Y-95583272D01*
X173695562Y-95712722D01*
X173633758Y-95856924D01*
X173601139Y-96010383D01*
X173598948Y-96167256D01*
X164350000Y-96167256D01*
X164350000Y-92243952D01*
X174470000Y-92243952D01*
X174470000Y-92256048D01*
X174493806Y-92498841D01*
X174564317Y-92732386D01*
X174678848Y-92947787D01*
X174833037Y-93136841D01*
X175021009Y-93292345D01*
X175235606Y-93408377D01*
X175468653Y-93480517D01*
X175711273Y-93506018D01*
X175954227Y-93483907D01*
X176188258Y-93415028D01*
X176404454Y-93302003D01*
X176594579Y-93149139D01*
X176751392Y-92962257D01*
X176868919Y-92748475D01*
X176942685Y-92515938D01*
X176969878Y-92273501D01*
X176970000Y-92256048D01*
X176970000Y-92243952D01*
X176946194Y-92001159D01*
X176875683Y-91767614D01*
X176761152Y-91552213D01*
X176606963Y-91363159D01*
X176418991Y-91207655D01*
X176204394Y-91091623D01*
X175971347Y-91019483D01*
X175728727Y-90993982D01*
X175485773Y-91016093D01*
X175251742Y-91084972D01*
X175035546Y-91197997D01*
X174845421Y-91350861D01*
X174688608Y-91537743D01*
X174571081Y-91751525D01*
X174497315Y-91984062D01*
X174470122Y-92226499D01*
X174470000Y-92243952D01*
X164350000Y-92243952D01*
X164350000Y-86400000D01*
X164392894Y-86400000D01*
X164599772Y-86606878D01*
X164598928Y-86667299D01*
X164627250Y-86821610D01*
X164685004Y-86967481D01*
X164769992Y-87099356D01*
X164878975Y-87212212D01*
X165007804Y-87301750D01*
X165151570Y-87364560D01*
X165304798Y-87398249D01*
X165461652Y-87401535D01*
X165616157Y-87374291D01*
X165762427Y-87317557D01*
X165894892Y-87233492D01*
X166008506Y-87125299D01*
X166098942Y-86997099D01*
X166162754Y-86853774D01*
X166197512Y-86700785D01*
X166200014Y-86521589D01*
X166169541Y-86367689D01*
X166109756Y-86222638D01*
X166022935Y-86091963D01*
X165981891Y-86050631D01*
X166008506Y-86025286D01*
X166098942Y-85897086D01*
X166162754Y-85753761D01*
X166197512Y-85600772D01*
X166200014Y-85421576D01*
X166169541Y-85267676D01*
X166109756Y-85122625D01*
X166022935Y-84991950D01*
X165912387Y-84880627D01*
X165782321Y-84792896D01*
X165637691Y-84732099D01*
X165484007Y-84700553D01*
X165327123Y-84699457D01*
X165173014Y-84728855D01*
X165027550Y-84787627D01*
X165008642Y-84800000D01*
X152407107Y-84800000D01*
X147553553Y-79946447D01*
X147517908Y-79917168D01*
X147482484Y-79887443D01*
X147480177Y-79886175D01*
X147478148Y-79884508D01*
X147437479Y-79862701D01*
X147396971Y-79840432D01*
X147394464Y-79839637D01*
X147392148Y-79838395D01*
X147347985Y-79824893D01*
X147303956Y-79810926D01*
X147301345Y-79810633D01*
X147298829Y-79809864D01*
X147252853Y-79805194D01*
X147206981Y-79800049D01*
X147201843Y-79800013D01*
X147201745Y-79800003D01*
X147201654Y-79800012D01*
X147200000Y-79800000D01*
X134180000Y-79800000D01*
X134134048Y-79804505D01*
X134088025Y-79808532D01*
X134085501Y-79809265D01*
X134082883Y-79809522D01*
X134038665Y-79822873D01*
X133994316Y-79835757D01*
X133991981Y-79836967D01*
X133989465Y-79837727D01*
X133948694Y-79859405D01*
X133907681Y-79880664D01*
X133905626Y-79882304D01*
X133903304Y-79883539D01*
X133867494Y-79912746D01*
X133831418Y-79941545D01*
X133827756Y-79945156D01*
X133827683Y-79945215D01*
X133827627Y-79945282D01*
X133826447Y-79946446D01*
X133335458Y-80437435D01*
X133145938Y-80377315D01*
X132903501Y-80350122D01*
X132886048Y-80350000D01*
X132873952Y-80350000D01*
X132631159Y-80373806D01*
X132397614Y-80444317D01*
X132182213Y-80558848D01*
X131993159Y-80713037D01*
X131837655Y-80901009D01*
X131721623Y-81115606D01*
X131649483Y-81348653D01*
X131623982Y-81591273D01*
X131646093Y-81834227D01*
X131714972Y-82068258D01*
X131827997Y-82284454D01*
X131980861Y-82474579D01*
X132167743Y-82631392D01*
X132381525Y-82748919D01*
X132614062Y-82822685D01*
X132856499Y-82849878D01*
X132873952Y-82850000D01*
X132886048Y-82850000D01*
X133128841Y-82826194D01*
X133362386Y-82755683D01*
X133577787Y-82641152D01*
X133766841Y-82486963D01*
X133922345Y-82298991D01*
X134038377Y-82084394D01*
X134110517Y-81851347D01*
X134136018Y-81608727D01*
X134113907Y-81365773D01*
X134047378Y-81139728D01*
X134387107Y-80800000D01*
X134461217Y-80800000D01*
X134377655Y-80901009D01*
X134261623Y-81115606D01*
X134189483Y-81348653D01*
X134163982Y-81591273D01*
X134186093Y-81834227D01*
X134254972Y-82068258D01*
X134367997Y-82284454D01*
X134520861Y-82474579D01*
X134707743Y-82631392D01*
X134921525Y-82748919D01*
X135154062Y-82822685D01*
X135396499Y-82849878D01*
X135413952Y-82850000D01*
X135426048Y-82850000D01*
X135668841Y-82826194D01*
X135902386Y-82755683D01*
X136117787Y-82641152D01*
X136306841Y-82486963D01*
X136462345Y-82298991D01*
X136578377Y-82084394D01*
X136650517Y-81851347D01*
X136676018Y-81608727D01*
X136657022Y-81400000D01*
X146692894Y-81400000D01*
X148542894Y-83250000D01*
X128550000Y-83250000D01*
X128550000Y-82612163D01*
X128573262Y-82579596D01*
X128686841Y-82486963D01*
X128842345Y-82298991D01*
X128958377Y-82084394D01*
X128982392Y-82006814D01*
X128984807Y-82003433D01*
X129022425Y-81936170D01*
X129050000Y-81800000D01*
X129050000Y-81665983D01*
X129056018Y-81608727D01*
X129050000Y-81542602D01*
X129050000Y-81198528D01*
X131148528Y-79100000D01*
X147951472Y-79100000D01*
X153075736Y-84224264D01*
X153118559Y-84259439D01*
X153161020Y-84295068D01*
X153163784Y-84296587D01*
X153166223Y-84298591D01*
X153215101Y-84324799D01*
X153263635Y-84351481D01*
X153266640Y-84352434D01*
X153269422Y-84353926D01*
X153322427Y-84370131D01*
X153375253Y-84386889D01*
X153378390Y-84387241D01*
X153381406Y-84388163D01*
X153436498Y-84393759D01*
X153491623Y-84399942D01*
X153497795Y-84399985D01*
X153497906Y-84399996D01*
X153498009Y-84399986D01*
X153500000Y-84400000D01*
X164500000Y-84400000D01*
X164555170Y-84394591D01*
X164610371Y-84389761D01*
X164613400Y-84388881D01*
X164616541Y-84388573D01*
X164669638Y-84372542D01*
X164722821Y-84357091D01*
X164725619Y-84355641D01*
X164728642Y-84354728D01*
X164777573Y-84328711D01*
X164826784Y-84303203D01*
X164829252Y-84301233D01*
X164832035Y-84299753D01*
X164874950Y-84264752D01*
X164918300Y-84230146D01*
X164922691Y-84225816D01*
X164922781Y-84225742D01*
X164922850Y-84225658D01*
X164924264Y-84224264D01*
X166351905Y-82796623D01*
X166434062Y-82822685D01*
X166676499Y-82849878D01*
X166693952Y-82850000D01*
X166706048Y-82850000D01*
X166948841Y-82826194D01*
X167182386Y-82755683D01*
X167397787Y-82641152D01*
X167586841Y-82486963D01*
X167742345Y-82298991D01*
X167858377Y-82084394D01*
X167930517Y-81851347D01*
X167956018Y-81608727D01*
X167954430Y-81591273D01*
X170523982Y-81591273D01*
X170546093Y-81834227D01*
X170614972Y-82068258D01*
X170727997Y-82284454D01*
X170880861Y-82474579D01*
X171067743Y-82631392D01*
X171281525Y-82748919D01*
X171514062Y-82822685D01*
X171756499Y-82849878D01*
X171773952Y-82850000D01*
X171786048Y-82850000D01*
X172028841Y-82826194D01*
X172262386Y-82755683D01*
X172477787Y-82641152D01*
X172666841Y-82486963D01*
X172822345Y-82298991D01*
X172938377Y-82084394D01*
X173010517Y-81851347D01*
X173036018Y-81608727D01*
X173034430Y-81591273D01*
X173063982Y-81591273D01*
X173086093Y-81834227D01*
X173154972Y-82068258D01*
X173267997Y-82284454D01*
X173420861Y-82474579D01*
X173607743Y-82631392D01*
X173821525Y-82748919D01*
X174054062Y-82822685D01*
X174296499Y-82849878D01*
X174313952Y-82850000D01*
X174326048Y-82850000D01*
X174568841Y-82826194D01*
X174802386Y-82755683D01*
X175017787Y-82641152D01*
X175206841Y-82486963D01*
X175362345Y-82298991D01*
X175478377Y-82084394D01*
X175550517Y-81851347D01*
X175576018Y-81608727D01*
X175553907Y-81365773D01*
X175485028Y-81131742D01*
X175372003Y-80915546D01*
X175219139Y-80725421D01*
X175032257Y-80568608D01*
X174818475Y-80451081D01*
X174585938Y-80377315D01*
X174343501Y-80350122D01*
X174326048Y-80350000D01*
X174313952Y-80350000D01*
X174071159Y-80373806D01*
X173837614Y-80444317D01*
X173622213Y-80558848D01*
X173433159Y-80713037D01*
X173277655Y-80901009D01*
X173161623Y-81115606D01*
X173089483Y-81348653D01*
X173063982Y-81591273D01*
X173034430Y-81591273D01*
X173013907Y-81365773D01*
X172945028Y-81131742D01*
X172832003Y-80915546D01*
X172679139Y-80725421D01*
X172492257Y-80568608D01*
X172278475Y-80451081D01*
X172045938Y-80377315D01*
X171803501Y-80350122D01*
X171786048Y-80350000D01*
X171773952Y-80350000D01*
X171531159Y-80373806D01*
X171297614Y-80444317D01*
X171082213Y-80558848D01*
X170893159Y-80713037D01*
X170737655Y-80901009D01*
X170621623Y-81115606D01*
X170549483Y-81348653D01*
X170523982Y-81591273D01*
X167954430Y-81591273D01*
X167933907Y-81365773D01*
X167865028Y-81131742D01*
X167752003Y-80915546D01*
X167683852Y-80830782D01*
X167860599Y-80633641D01*
X167919834Y-80542148D01*
X168477433Y-79287551D01*
X168524625Y-79377821D01*
X168622407Y-79499437D01*
X168741949Y-79599744D01*
X168878697Y-79674922D01*
X169027443Y-79722107D01*
X169182521Y-79739502D01*
X169193685Y-79739580D01*
X169806315Y-79739580D01*
X169961621Y-79724352D01*
X170111011Y-79679249D01*
X170248796Y-79605987D01*
X170369726Y-79507359D01*
X170469197Y-79387119D01*
X170543418Y-79249850D01*
X170589564Y-79100778D01*
X170605876Y-78945582D01*
X170591732Y-78790174D01*
X170547673Y-78640472D01*
X170475375Y-78502179D01*
X170377593Y-78380563D01*
X170287170Y-78304690D01*
X170369726Y-78237359D01*
X170469197Y-78117119D01*
X170543418Y-77979850D01*
X170589564Y-77830778D01*
X170605876Y-77675582D01*
X170591732Y-77520174D01*
X170547673Y-77370472D01*
X170475375Y-77232179D01*
X170377593Y-77110563D01*
X170258051Y-77010256D01*
X170121303Y-76935078D01*
X169972557Y-76887893D01*
X169817479Y-76870498D01*
X169806315Y-76870420D01*
X169193685Y-76870420D01*
X169038379Y-76885648D01*
X168888989Y-76930751D01*
X168751204Y-77004013D01*
X168750000Y-77004995D01*
X168750000Y-76044974D01*
X168844974Y-75950000D01*
X169900000Y-75950000D01*
X170031702Y-75924275D01*
X170147487Y-75847487D01*
X170447487Y-75547487D01*
X170522425Y-75436170D01*
X170550000Y-75300000D01*
X170550000Y-55323719D01*
X171144939Y-55323719D01*
X171281235Y-56066339D01*
X171559178Y-56768342D01*
X171968181Y-57402990D01*
X172492665Y-57946109D01*
X173112652Y-58377012D01*
X173804528Y-58679285D01*
X174541939Y-58841415D01*
X175296797Y-58857227D01*
X176040351Y-58726119D01*
X176744278Y-58453083D01*
X177381766Y-58048521D01*
X177928533Y-57527842D01*
X178363753Y-56910878D01*
X178670849Y-56221129D01*
X178838124Y-55484868D01*
X178850166Y-54622488D01*
X178703514Y-53881843D01*
X178415797Y-53183789D01*
X177997973Y-52554913D01*
X177465957Y-52019170D01*
X176840014Y-51596966D01*
X176143985Y-51304382D01*
X175404382Y-51152564D01*
X174649376Y-51147293D01*
X173907726Y-51288770D01*
X173207680Y-51571607D01*
X172575902Y-51985031D01*
X172036458Y-52513293D01*
X171609895Y-53136274D01*
X171312459Y-53830243D01*
X171155481Y-54568768D01*
X171144939Y-55323719D01*
X170550000Y-55323719D01*
X170550000Y-50400000D01*
X179600000Y-50400000D01*
X179600000Y-149600000D01*
G36*
X131662964Y-121650000D02*
X128080060Y-121650000D01*
X128080060Y-121384236D01*
X128050000Y-121077658D01*
X128050000Y-118750000D01*
X128762965Y-118750000D01*
X131662964Y-121650000D01*
X131662964Y-121650000D01*
G37*
X131662964Y-121650000D02*
X128080060Y-121650000D01*
X128080060Y-121384236D01*
X128050000Y-121077658D01*
X128050000Y-118750000D01*
X128762965Y-118750000D01*
X131662964Y-121650000D01*
G36*
X151422622Y-117423761D02*
X151313159Y-117513037D01*
X151157655Y-117701009D01*
X151041623Y-117915606D01*
X150969483Y-118148653D01*
X150943982Y-118391273D01*
X150966093Y-118634227D01*
X151034972Y-118868258D01*
X151147997Y-119084454D01*
X151300861Y-119274579D01*
X151487743Y-119431392D01*
X151555579Y-119468685D01*
X150124242Y-120900022D01*
X132610042Y-120900022D01*
X130460021Y-118750000D01*
X130742893Y-118750000D01*
X132121458Y-120128565D01*
X132157159Y-120157891D01*
X132192527Y-120187568D01*
X132194830Y-120188834D01*
X132196863Y-120190504D01*
X132237571Y-120212331D01*
X132278040Y-120234579D01*
X132280547Y-120235374D01*
X132282863Y-120236616D01*
X132327026Y-120250118D01*
X132371055Y-120264085D01*
X132373666Y-120264378D01*
X132376182Y-120265147D01*
X132422158Y-120269817D01*
X132468030Y-120274962D01*
X132473168Y-120274998D01*
X132473266Y-120275008D01*
X132473357Y-120274999D01*
X132475011Y-120275011D01*
X147969397Y-120275011D01*
X148007822Y-120301717D01*
X148151588Y-120364527D01*
X148304816Y-120398216D01*
X148461670Y-120401502D01*
X148616175Y-120374258D01*
X148762445Y-120317524D01*
X148894910Y-120233459D01*
X149008524Y-120125266D01*
X149098960Y-119997066D01*
X149162772Y-119853741D01*
X149197530Y-119700752D01*
X149200032Y-119521556D01*
X149169559Y-119367656D01*
X149109774Y-119222605D01*
X149022953Y-119091930D01*
X148912405Y-118980607D01*
X148782339Y-118892876D01*
X148637709Y-118832079D01*
X148484025Y-118800533D01*
X148327141Y-118799437D01*
X148303266Y-118803991D01*
X148350517Y-118651347D01*
X148376018Y-118408727D01*
X148353907Y-118165773D01*
X148285028Y-117931742D01*
X148172003Y-117715546D01*
X148019139Y-117525421D01*
X147832257Y-117368608D01*
X147618475Y-117251081D01*
X147385938Y-117177315D01*
X147143501Y-117150122D01*
X147126048Y-117150000D01*
X150546586Y-117150000D01*
X151422622Y-117423761D01*
X151422622Y-117423761D01*
G37*
X151422622Y-117423761D02*
X151313159Y-117513037D01*
X151157655Y-117701009D01*
X151041623Y-117915606D01*
X150969483Y-118148653D01*
X150943982Y-118391273D01*
X150966093Y-118634227D01*
X151034972Y-118868258D01*
X151147997Y-119084454D01*
X151300861Y-119274579D01*
X151487743Y-119431392D01*
X151555579Y-119468685D01*
X150124242Y-120900022D01*
X132610042Y-120900022D01*
X130460021Y-118750000D01*
X130742893Y-118750000D01*
X132121458Y-120128565D01*
X132157159Y-120157891D01*
X132192527Y-120187568D01*
X132194830Y-120188834D01*
X132196863Y-120190504D01*
X132237571Y-120212331D01*
X132278040Y-120234579D01*
X132280547Y-120235374D01*
X132282863Y-120236616D01*
X132327026Y-120250118D01*
X132371055Y-120264085D01*
X132373666Y-120264378D01*
X132376182Y-120265147D01*
X132422158Y-120269817D01*
X132468030Y-120274962D01*
X132473168Y-120274998D01*
X132473266Y-120275008D01*
X132473357Y-120274999D01*
X132475011Y-120275011D01*
X147969397Y-120275011D01*
X148007822Y-120301717D01*
X148151588Y-120364527D01*
X148304816Y-120398216D01*
X148461670Y-120401502D01*
X148616175Y-120374258D01*
X148762445Y-120317524D01*
X148894910Y-120233459D01*
X149008524Y-120125266D01*
X149098960Y-119997066D01*
X149162772Y-119853741D01*
X149197530Y-119700752D01*
X149200032Y-119521556D01*
X149169559Y-119367656D01*
X149109774Y-119222605D01*
X149022953Y-119091930D01*
X148912405Y-118980607D01*
X148782339Y-118892876D01*
X148637709Y-118832079D01*
X148484025Y-118800533D01*
X148327141Y-118799437D01*
X148303266Y-118803991D01*
X148350517Y-118651347D01*
X148376018Y-118408727D01*
X148353907Y-118165773D01*
X148285028Y-117931742D01*
X148172003Y-117715546D01*
X148019139Y-117525421D01*
X147832257Y-117368608D01*
X147618475Y-117251081D01*
X147385938Y-117177315D01*
X147143501Y-117150122D01*
X147126048Y-117150000D01*
X150546586Y-117150000D01*
X151422622Y-117423761D01*
G36*
X144331159Y-117173806D02*
X144097614Y-117244317D01*
X143882213Y-117358848D01*
X143693159Y-117513037D01*
X143537655Y-117701009D01*
X143421623Y-117915606D01*
X143349483Y-118148653D01*
X143323982Y-118391273D01*
X143346093Y-118634227D01*
X143402240Y-118825000D01*
X132896751Y-118825000D01*
X132821751Y-118750000D01*
X140400000Y-118750000D01*
X140531702Y-118724275D01*
X140647487Y-118647487D01*
X142144974Y-117150000D01*
X144573952Y-117150000D01*
X144331159Y-117173806D01*
X144331159Y-117173806D01*
G37*
X144331159Y-117173806D02*
X144097614Y-117244317D01*
X143882213Y-117358848D01*
X143693159Y-117513037D01*
X143537655Y-117701009D01*
X143421623Y-117915606D01*
X143349483Y-118148653D01*
X143323982Y-118391273D01*
X143346093Y-118634227D01*
X143402240Y-118825000D01*
X132896751Y-118825000D01*
X132821751Y-118750000D01*
X140400000Y-118750000D01*
X140531702Y-118724275D01*
X140647487Y-118647487D01*
X142144974Y-117150000D01*
X144573952Y-117150000D01*
X144331159Y-117173806D01*
G36*
X151850000Y-81301472D02*
X148898528Y-78350000D01*
X151850000Y-78350000D01*
X151850000Y-81301472D01*
X151850000Y-81301472D01*
G37*
X151850000Y-81301472D02*
X148898528Y-78350000D01*
X151850000Y-78350000D01*
X151850000Y-81301472D01*
D28*
G36*
X107873000Y-115373000D02*
X100427000Y-115373000D01*
X100427000Y-100627000D01*
X107873000Y-100627000D01*
X107873000Y-115373000D01*
X107873000Y-115373000D01*
G37*
X107873000Y-115373000D02*
X100427000Y-115373000D01*
X100427000Y-100627000D01*
X107873000Y-100627000D01*
X107873000Y-115373000D01*
D29*
G36*
X116700000Y-82400000D02*
X113400000Y-82400000D01*
X113400000Y-77700000D01*
X116700000Y-77700000D01*
X116700000Y-82400000D01*
X116700000Y-82400000D01*
G37*
X116700000Y-82400000D02*
X113400000Y-82400000D01*
X113400000Y-77700000D01*
X116700000Y-77700000D01*
X116700000Y-82400000D01*
D28*
G36*
X155673000Y-76755537D02*
X155673000Y-82373000D01*
X152959712Y-82373000D01*
X152327000Y-81740288D01*
X152327000Y-76728048D01*
X155673000Y-76755537D01*
X155673000Y-76755537D01*
G37*
X155673000Y-76755537D02*
X155673000Y-82373000D01*
X152959712Y-82373000D01*
X152327000Y-81740288D01*
X152327000Y-76728048D01*
X155673000Y-76755537D01*
D29*
G36*
X166600000Y-125100000D02*
X163250000Y-125100000D01*
X163250000Y-119400000D01*
X163226064Y-119272790D01*
X163200000Y-119232285D01*
X163200000Y-116900000D01*
X166600000Y-116900000D01*
X166600000Y-125100000D01*
X166600000Y-125100000D01*
G37*
X166600000Y-125100000D02*
X163250000Y-125100000D01*
X163250000Y-119400000D01*
X163226064Y-119272790D01*
X163200000Y-119232285D01*
X163200000Y-116900000D01*
X166600000Y-116900000D01*
X166600000Y-125100000D01*
G36*
X127600000Y-117516324D02*
X127600000Y-123500000D01*
X124300000Y-123500000D01*
X124300000Y-116800000D01*
X126883676Y-116800000D01*
X127600000Y-117516324D01*
X127600000Y-117516324D01*
G37*
X127600000Y-117516324D02*
X127600000Y-123500000D01*
X124300000Y-123500000D01*
X124300000Y-116800000D01*
X126883676Y-116800000D01*
X127600000Y-117516324D01*
M02*
