G04 #@! TF.FileFunction,Legend,Top*
%FSLAX46Y46*%
G04 Gerber Fmt 4.6, Leading zero omitted, Abs format (unit mm)*
G04 Created by KiCad (PCBNEW 4.0.1-stable) date 30.08.2016 22:59:35*
%MOMM*%
G01*
G04 APERTURE LIST*
%ADD10C,0.100000*%
%ADD11C,0.300000*%
%ADD12C,0.150000*%
%ADD13C,0.250000*%
%ADD14R,2.060000X2.060000*%
%ADD15O,2.060000X2.060000*%
%ADD16O,3.760120X5.761640*%
%ADD17C,2.060000*%
%ADD18R,1.160000X0.760000*%
%ADD19R,1.010000X1.060000*%
%ADD20C,7.260000*%
%ADD21O,1.761140X1.159160*%
%ADD22R,1.260000X1.510000*%
%ADD23R,3.460000X2.860000*%
%ADD24R,1.260000X3.460000*%
%ADD25R,0.760000X1.160000*%
%ADD26R,2.560000X2.560000*%
%ADD27C,2.560000*%
%ADD28C,15.260000*%
%ADD29C,0.254000*%
G04 APERTURE END LIST*
D10*
D11*
X109507143Y-140678571D02*
X109792857Y-140678571D01*
X109935715Y-140750000D01*
X110078572Y-140892857D01*
X110150000Y-141178571D01*
X110150000Y-141678571D01*
X110078572Y-141964286D01*
X109935715Y-142107143D01*
X109792857Y-142178571D01*
X109507143Y-142178571D01*
X109364286Y-142107143D01*
X109221429Y-141964286D01*
X109150000Y-141678571D01*
X109150000Y-141178571D01*
X109221429Y-140892857D01*
X109364286Y-140750000D01*
X109507143Y-140678571D01*
X110792858Y-140678571D02*
X110792858Y-141892857D01*
X110864286Y-142035714D01*
X110935715Y-142107143D01*
X111078572Y-142178571D01*
X111364286Y-142178571D01*
X111507144Y-142107143D01*
X111578572Y-142035714D01*
X111650001Y-141892857D01*
X111650001Y-140678571D01*
X112150001Y-140678571D02*
X113007144Y-140678571D01*
X112578573Y-142178571D02*
X112578573Y-140678571D01*
X115364287Y-142178571D02*
X114650001Y-142178571D01*
X114650001Y-140678571D01*
X115792858Y-140821429D02*
X115864287Y-140750000D01*
X116007144Y-140678571D01*
X116364287Y-140678571D01*
X116507144Y-140750000D01*
X116578573Y-140821429D01*
X116650001Y-140964286D01*
X116650001Y-141107143D01*
X116578573Y-141321429D01*
X115721430Y-142178571D01*
X116650001Y-142178571D01*
X109432143Y-57978571D02*
X109717857Y-57978571D01*
X109860715Y-58050000D01*
X110003572Y-58192857D01*
X110075000Y-58478571D01*
X110075000Y-58978571D01*
X110003572Y-59264286D01*
X109860715Y-59407143D01*
X109717857Y-59478571D01*
X109432143Y-59478571D01*
X109289286Y-59407143D01*
X109146429Y-59264286D01*
X109075000Y-58978571D01*
X109075000Y-58478571D01*
X109146429Y-58192857D01*
X109289286Y-58050000D01*
X109432143Y-57978571D01*
X110717858Y-57978571D02*
X110717858Y-59192857D01*
X110789286Y-59335714D01*
X110860715Y-59407143D01*
X111003572Y-59478571D01*
X111289286Y-59478571D01*
X111432144Y-59407143D01*
X111503572Y-59335714D01*
X111575001Y-59192857D01*
X111575001Y-57978571D01*
X112075001Y-57978571D02*
X112932144Y-57978571D01*
X112503573Y-59478571D02*
X112503573Y-57978571D01*
X115289287Y-59478571D02*
X114575001Y-59478571D01*
X114575001Y-57978571D01*
X116575001Y-59478571D02*
X115717858Y-59478571D01*
X116146430Y-59478571D02*
X116146430Y-57978571D01*
X116003573Y-58192857D01*
X115860715Y-58335714D01*
X115717858Y-58407143D01*
X103478571Y-120385714D02*
X101978571Y-120385714D01*
X103478571Y-119671428D02*
X101978571Y-119671428D01*
X103478571Y-118814285D01*
X101978571Y-118814285D01*
X102907143Y-116957142D02*
X102907143Y-115814285D01*
X103478571Y-116385714D02*
X102335714Y-116385714D01*
X103478571Y-83485714D02*
X101978571Y-83485714D01*
X103478571Y-82771428D02*
X101978571Y-82771428D01*
X103478571Y-81914285D01*
X101978571Y-81914285D01*
X102907143Y-80057142D02*
X102907143Y-78914285D01*
X144364286Y-51062857D02*
X145050000Y-51062857D01*
X144707143Y-52262857D02*
X144707143Y-51062857D01*
X145907143Y-52205714D02*
X145792857Y-52262857D01*
X145564286Y-52262857D01*
X145450000Y-52205714D01*
X145392857Y-52091429D01*
X145392857Y-51634286D01*
X145450000Y-51520000D01*
X145564286Y-51462857D01*
X145792857Y-51462857D01*
X145907143Y-51520000D01*
X145964286Y-51634286D01*
X145964286Y-51748571D01*
X145392857Y-51862857D01*
X146421428Y-52205714D02*
X146535714Y-52262857D01*
X146764286Y-52262857D01*
X146878571Y-52205714D01*
X146935714Y-52091429D01*
X146935714Y-52034286D01*
X146878571Y-51920000D01*
X146764286Y-51862857D01*
X146592857Y-51862857D01*
X146478571Y-51805714D01*
X146421428Y-51691429D01*
X146421428Y-51634286D01*
X146478571Y-51520000D01*
X146592857Y-51462857D01*
X146764286Y-51462857D01*
X146878571Y-51520000D01*
X147621429Y-52262857D02*
X147507143Y-52205714D01*
X147450000Y-52091429D01*
X147450000Y-51062857D01*
X148592857Y-52262857D02*
X148592857Y-51634286D01*
X148535714Y-51520000D01*
X148421428Y-51462857D01*
X148192857Y-51462857D01*
X148078571Y-51520000D01*
X148592857Y-52205714D02*
X148478571Y-52262857D01*
X148192857Y-52262857D01*
X148078571Y-52205714D01*
X148021428Y-52091429D01*
X148021428Y-51977143D01*
X148078571Y-51862857D01*
X148192857Y-51805714D01*
X148478571Y-51805714D01*
X148592857Y-51748571D01*
X150078571Y-52262857D02*
X150078571Y-51062857D01*
X150364286Y-51062857D01*
X150535714Y-51120000D01*
X150650000Y-51234286D01*
X150707143Y-51348571D01*
X150764286Y-51577143D01*
X150764286Y-51748571D01*
X150707143Y-51977143D01*
X150650000Y-52091429D01*
X150535714Y-52205714D01*
X150364286Y-52262857D01*
X150078571Y-52262857D01*
X151278571Y-52262857D02*
X151278571Y-51462857D01*
X151278571Y-51691429D02*
X151335714Y-51577143D01*
X151392857Y-51520000D01*
X151507143Y-51462857D01*
X151621428Y-51462857D01*
X152021428Y-52262857D02*
X152021428Y-51462857D01*
X152021428Y-51062857D02*
X151964285Y-51120000D01*
X152021428Y-51177143D01*
X152078571Y-51120000D01*
X152021428Y-51062857D01*
X152021428Y-51177143D01*
X152478572Y-51462857D02*
X152764286Y-52262857D01*
X153050000Y-51462857D01*
X153964286Y-52205714D02*
X153850000Y-52262857D01*
X153621429Y-52262857D01*
X153507143Y-52205714D01*
X153450000Y-52091429D01*
X153450000Y-51634286D01*
X153507143Y-51520000D01*
X153621429Y-51462857D01*
X153850000Y-51462857D01*
X153964286Y-51520000D01*
X154021429Y-51634286D01*
X154021429Y-51748571D01*
X153450000Y-51862857D01*
X154535714Y-52262857D02*
X154535714Y-51462857D01*
X154535714Y-51691429D02*
X154592857Y-51577143D01*
X154650000Y-51520000D01*
X154764286Y-51462857D01*
X154878571Y-51462857D01*
X156878572Y-52262857D02*
X156478572Y-51691429D01*
X156192857Y-52262857D02*
X156192857Y-51062857D01*
X156650000Y-51062857D01*
X156764286Y-51120000D01*
X156821429Y-51177143D01*
X156878572Y-51291429D01*
X156878572Y-51462857D01*
X156821429Y-51577143D01*
X156764286Y-51634286D01*
X156650000Y-51691429D01*
X156192857Y-51691429D01*
X157850000Y-52205714D02*
X157735714Y-52262857D01*
X157507143Y-52262857D01*
X157392857Y-52205714D01*
X157335714Y-52091429D01*
X157335714Y-51634286D01*
X157392857Y-51520000D01*
X157507143Y-51462857D01*
X157735714Y-51462857D01*
X157850000Y-51520000D01*
X157907143Y-51634286D01*
X157907143Y-51748571D01*
X157335714Y-51862857D01*
X158307143Y-51462857D02*
X158592857Y-52262857D01*
X158878571Y-51462857D01*
X159335714Y-52148571D02*
X159392857Y-52205714D01*
X159335714Y-52262857D01*
X159278571Y-52205714D01*
X159335714Y-52148571D01*
X159335714Y-52262857D01*
X160707144Y-51062857D02*
X161450001Y-51062857D01*
X161050001Y-51520000D01*
X161221429Y-51520000D01*
X161335715Y-51577143D01*
X161392858Y-51634286D01*
X161450001Y-51748571D01*
X161450001Y-52034286D01*
X161392858Y-52148571D01*
X161335715Y-52205714D01*
X161221429Y-52262857D01*
X160878572Y-52262857D01*
X160764286Y-52205714D01*
X160707144Y-52148571D01*
X161964286Y-52148571D02*
X162021429Y-52205714D01*
X161964286Y-52262857D01*
X161907143Y-52205714D01*
X161964286Y-52148571D01*
X161964286Y-52262857D01*
X162764287Y-51062857D02*
X162878572Y-51062857D01*
X162992858Y-51120000D01*
X163050001Y-51177143D01*
X163107144Y-51291429D01*
X163164287Y-51520000D01*
X163164287Y-51805714D01*
X163107144Y-52034286D01*
X163050001Y-52148571D01*
X162992858Y-52205714D01*
X162878572Y-52262857D01*
X162764287Y-52262857D01*
X162650001Y-52205714D01*
X162592858Y-52148571D01*
X162535715Y-52034286D01*
X162478572Y-51805714D01*
X162478572Y-51520000D01*
X162535715Y-51291429D01*
X162592858Y-51177143D01*
X162650001Y-51120000D01*
X162764287Y-51062857D01*
X144764286Y-53042857D02*
X144878571Y-53042857D01*
X144992857Y-53100000D01*
X145050000Y-53157143D01*
X145107143Y-53271429D01*
X145164286Y-53500000D01*
X145164286Y-53785714D01*
X145107143Y-54014286D01*
X145050000Y-54128571D01*
X144992857Y-54185714D01*
X144878571Y-54242857D01*
X144764286Y-54242857D01*
X144650000Y-54185714D01*
X144592857Y-54128571D01*
X144535714Y-54014286D01*
X144478571Y-53785714D01*
X144478571Y-53500000D01*
X144535714Y-53271429D01*
X144592857Y-53157143D01*
X144650000Y-53100000D01*
X144764286Y-53042857D01*
X145850000Y-53557143D02*
X145735714Y-53500000D01*
X145678571Y-53442857D01*
X145621428Y-53328571D01*
X145621428Y-53271429D01*
X145678571Y-53157143D01*
X145735714Y-53100000D01*
X145850000Y-53042857D01*
X146078571Y-53042857D01*
X146192857Y-53100000D01*
X146250000Y-53157143D01*
X146307143Y-53271429D01*
X146307143Y-53328571D01*
X146250000Y-53442857D01*
X146192857Y-53500000D01*
X146078571Y-53557143D01*
X145850000Y-53557143D01*
X145735714Y-53614286D01*
X145678571Y-53671429D01*
X145621428Y-53785714D01*
X145621428Y-54014286D01*
X145678571Y-54128571D01*
X145735714Y-54185714D01*
X145850000Y-54242857D01*
X146078571Y-54242857D01*
X146192857Y-54185714D01*
X146250000Y-54128571D01*
X146307143Y-54014286D01*
X146307143Y-53785714D01*
X146250000Y-53671429D01*
X146192857Y-53614286D01*
X146078571Y-53557143D01*
X146821428Y-53785714D02*
X147735714Y-53785714D01*
X148249999Y-53157143D02*
X148307142Y-53100000D01*
X148421428Y-53042857D01*
X148707142Y-53042857D01*
X148821428Y-53100000D01*
X148878571Y-53157143D01*
X148935714Y-53271429D01*
X148935714Y-53385714D01*
X148878571Y-53557143D01*
X148192857Y-54242857D01*
X148935714Y-54242857D01*
X149678571Y-53042857D02*
X149792856Y-53042857D01*
X149907142Y-53100000D01*
X149964285Y-53157143D01*
X150021428Y-53271429D01*
X150078571Y-53500000D01*
X150078571Y-53785714D01*
X150021428Y-54014286D01*
X149964285Y-54128571D01*
X149907142Y-54185714D01*
X149792856Y-54242857D01*
X149678571Y-54242857D01*
X149564285Y-54185714D01*
X149507142Y-54128571D01*
X149449999Y-54014286D01*
X149392856Y-53785714D01*
X149392856Y-53500000D01*
X149449999Y-53271429D01*
X149507142Y-53157143D01*
X149564285Y-53100000D01*
X149678571Y-53042857D01*
X151221428Y-54242857D02*
X150535713Y-54242857D01*
X150878571Y-54242857D02*
X150878571Y-53042857D01*
X150764285Y-53214286D01*
X150649999Y-53328571D01*
X150535713Y-53385714D01*
X152249999Y-53042857D02*
X152021428Y-53042857D01*
X151907142Y-53100000D01*
X151849999Y-53157143D01*
X151735713Y-53328571D01*
X151678570Y-53557143D01*
X151678570Y-54014286D01*
X151735713Y-54128571D01*
X151792856Y-54185714D01*
X151907142Y-54242857D01*
X152135713Y-54242857D01*
X152249999Y-54185714D01*
X152307142Y-54128571D01*
X152364285Y-54014286D01*
X152364285Y-53728571D01*
X152307142Y-53614286D01*
X152249999Y-53557143D01*
X152135713Y-53500000D01*
X151907142Y-53500000D01*
X151792856Y-53557143D01*
X151735713Y-53614286D01*
X151678570Y-53728571D01*
X144535714Y-56222857D02*
X144535714Y-55022857D01*
X145221429Y-56222857D02*
X144707143Y-55537143D01*
X145221429Y-55022857D02*
X144535714Y-55708571D01*
X146250000Y-55422857D02*
X146250000Y-56222857D01*
X145735714Y-55422857D02*
X145735714Y-56051429D01*
X145792857Y-56165714D01*
X145907143Y-56222857D01*
X146078571Y-56222857D01*
X146192857Y-56165714D01*
X146250000Y-56108571D01*
X146821428Y-56222857D02*
X146821428Y-55422857D01*
X146821428Y-55651429D02*
X146878571Y-55537143D01*
X146935714Y-55480000D01*
X147050000Y-55422857D01*
X147164285Y-55422857D01*
X147392857Y-55422857D02*
X147850000Y-55422857D01*
X147564285Y-55022857D02*
X147564285Y-56051429D01*
X147621428Y-56165714D01*
X147735714Y-56222857D01*
X147850000Y-56222857D01*
X149107142Y-56165714D02*
X149278571Y-56222857D01*
X149564285Y-56222857D01*
X149678571Y-56165714D01*
X149735714Y-56108571D01*
X149792857Y-55994286D01*
X149792857Y-55880000D01*
X149735714Y-55765714D01*
X149678571Y-55708571D01*
X149564285Y-55651429D01*
X149335714Y-55594286D01*
X149221428Y-55537143D01*
X149164285Y-55480000D01*
X149107142Y-55365714D01*
X149107142Y-55251429D01*
X149164285Y-55137143D01*
X149221428Y-55080000D01*
X149335714Y-55022857D01*
X149621428Y-55022857D01*
X149792857Y-55080000D01*
X150307142Y-56222857D02*
X150307142Y-55022857D01*
X150421428Y-55765714D02*
X150764285Y-56222857D01*
X150764285Y-55422857D02*
X150307142Y-55880000D01*
X151792857Y-56222857D02*
X151792857Y-55594286D01*
X151735714Y-55480000D01*
X151621428Y-55422857D01*
X151392857Y-55422857D01*
X151278571Y-55480000D01*
X151792857Y-56165714D02*
X151678571Y-56222857D01*
X151392857Y-56222857D01*
X151278571Y-56165714D01*
X151221428Y-56051429D01*
X151221428Y-55937143D01*
X151278571Y-55822857D01*
X151392857Y-55765714D01*
X151678571Y-55765714D01*
X151792857Y-55708571D01*
X152878571Y-55422857D02*
X152878571Y-56222857D01*
X152364285Y-55422857D02*
X152364285Y-56051429D01*
X152421428Y-56165714D01*
X152535714Y-56222857D01*
X152707142Y-56222857D01*
X152821428Y-56165714D01*
X152878571Y-56108571D01*
X153907142Y-56165714D02*
X153792856Y-56222857D01*
X153564285Y-56222857D01*
X153449999Y-56165714D01*
X153392856Y-56051429D01*
X153392856Y-55594286D01*
X153449999Y-55480000D01*
X153564285Y-55422857D01*
X153792856Y-55422857D01*
X153907142Y-55480000D01*
X153964285Y-55594286D01*
X153964285Y-55708571D01*
X153392856Y-55822857D01*
X154478570Y-55422857D02*
X154478570Y-56222857D01*
X154478570Y-55537143D02*
X154535713Y-55480000D01*
X154649999Y-55422857D01*
X154821427Y-55422857D01*
X154935713Y-55480000D01*
X154992856Y-55594286D01*
X154992856Y-56222857D01*
D12*
X156100000Y-119700000D02*
X143200000Y-119700000D01*
X163400000Y-119700000D02*
X163400000Y-117000000D01*
X156100000Y-119700000D02*
X156100000Y-117000000D01*
X166400000Y-115400000D02*
X166400000Y-117000000D01*
X143200000Y-115400000D02*
X166400000Y-115400000D01*
X143200000Y-117000000D02*
X143200000Y-115400000D01*
X166400000Y-117000000D02*
X143200000Y-117000000D01*
X153700000Y-104400000D02*
X153700000Y-115400000D01*
X148700000Y-104400000D02*
X153700000Y-104400000D01*
X148700000Y-115400000D02*
X148700000Y-104400000D01*
X166400000Y-117100000D02*
X166400000Y-119700000D01*
X163400000Y-119700000D02*
X166400000Y-119700000D01*
X143200000Y-119700000D02*
X143200000Y-117000000D01*
X167070000Y-76600000D02*
X167405000Y-76600000D01*
X161670000Y-76600000D02*
X162770000Y-76600000D01*
X156170000Y-76600000D02*
X157270000Y-76600000D01*
X151535000Y-76600000D02*
X151870000Y-76600000D01*
X166267185Y-80320000D02*
X167405000Y-80320000D01*
X160740000Y-80320000D02*
X163571130Y-80320000D01*
X155368870Y-80320000D02*
X158200000Y-80320000D01*
X152672815Y-80320000D02*
X151535000Y-80320000D01*
X166328000Y-75100000D02*
X167405000Y-75100000D01*
X160740000Y-75100000D02*
X163788000Y-75100000D01*
X155152000Y-75100000D02*
X158200000Y-75100000D01*
X152612000Y-75100000D02*
X151535000Y-75100000D01*
X167405000Y-80320000D02*
X167405000Y-75100000D01*
X151535000Y-75100000D02*
X151535000Y-80320000D01*
X128130000Y-76600000D02*
X128465000Y-76600000D01*
X122730000Y-76600000D02*
X123830000Y-76600000D01*
X117230000Y-76600000D02*
X118330000Y-76600000D01*
X112595000Y-76600000D02*
X112930000Y-76600000D01*
X127327185Y-80320000D02*
X128465000Y-80320000D01*
X121800000Y-80320000D02*
X124631130Y-80320000D01*
X116428870Y-80320000D02*
X119260000Y-80320000D01*
X113732815Y-80320000D02*
X112595000Y-80320000D01*
X127388000Y-75100000D02*
X128465000Y-75100000D01*
X121800000Y-75100000D02*
X124848000Y-75100000D01*
X116212000Y-75100000D02*
X119260000Y-75100000D01*
X113672000Y-75100000D02*
X112595000Y-75100000D01*
X128465000Y-80320000D02*
X128465000Y-75100000D01*
X112595000Y-75100000D02*
X112595000Y-80320000D01*
X112930000Y-123400000D02*
X112595000Y-123400000D01*
X118330000Y-123400000D02*
X117230000Y-123400000D01*
X123830000Y-123400000D02*
X122730000Y-123400000D01*
X128465000Y-123400000D02*
X128130000Y-123400000D01*
X113732815Y-119680000D02*
X112595000Y-119680000D01*
X119260000Y-119680000D02*
X116428870Y-119680000D01*
X124631130Y-119680000D02*
X121800000Y-119680000D01*
X127327185Y-119680000D02*
X128465000Y-119680000D01*
X113672000Y-124900000D02*
X112595000Y-124900000D01*
X119260000Y-124900000D02*
X116212000Y-124900000D01*
X124848000Y-124900000D02*
X121800000Y-124900000D01*
X127388000Y-124900000D02*
X128465000Y-124900000D01*
X112595000Y-119680000D02*
X112595000Y-124900000D01*
X128465000Y-124900000D02*
X128465000Y-119680000D01*
X151870000Y-123400000D02*
X151535000Y-123400000D01*
X157270000Y-123400000D02*
X156170000Y-123400000D01*
X162770000Y-123400000D02*
X161670000Y-123400000D01*
X167405000Y-123400000D02*
X167070000Y-123400000D01*
X152672815Y-119680000D02*
X151535000Y-119680000D01*
X158200000Y-119680000D02*
X155368870Y-119680000D01*
X163571130Y-119680000D02*
X160740000Y-119680000D01*
X166267185Y-119680000D02*
X167405000Y-119680000D01*
X152612000Y-124900000D02*
X151535000Y-124900000D01*
X158200000Y-124900000D02*
X155152000Y-124900000D01*
X163788000Y-124900000D02*
X160740000Y-124900000D01*
X166328000Y-124900000D02*
X167405000Y-124900000D01*
X151535000Y-119680000D02*
X151535000Y-124900000D01*
X167405000Y-124900000D02*
X167405000Y-119680000D01*
X125800000Y-106575000D02*
X141800000Y-106575000D01*
X125803000Y-106435000D02*
X141797000Y-106435000D01*
X125808000Y-106295000D02*
X141792000Y-106295000D01*
X125815000Y-106155000D02*
X141785000Y-106155000D01*
X125825000Y-106015000D02*
X141775000Y-106015000D01*
X125838000Y-105875000D02*
X141762000Y-105875000D01*
X125852000Y-105735000D02*
X141748000Y-105735000D01*
X125870000Y-105595000D02*
X141730000Y-105595000D01*
X125890000Y-105455000D02*
X141710000Y-105455000D01*
X125912000Y-105315000D02*
X141688000Y-105315000D01*
X125937000Y-105175000D02*
X141663000Y-105175000D01*
X125965000Y-105035000D02*
X141635000Y-105035000D01*
X125995000Y-104895000D02*
X141605000Y-104895000D01*
X126028000Y-104755000D02*
X141572000Y-104755000D01*
X126063000Y-104615000D02*
X141537000Y-104615000D01*
X126101000Y-104475000D02*
X141499000Y-104475000D01*
X126142000Y-104335000D02*
X141458000Y-104335000D01*
X126186000Y-104195000D02*
X141414000Y-104195000D01*
X126233000Y-104055000D02*
X141367000Y-104055000D01*
X126282000Y-103915000D02*
X141318000Y-103915000D01*
X126334000Y-103775000D02*
X133316000Y-103775000D01*
X134284000Y-103775000D02*
X141266000Y-103775000D01*
X126390000Y-103635000D02*
X133122000Y-103635000D01*
X134478000Y-103635000D02*
X141210000Y-103635000D01*
X126448000Y-103495000D02*
X132996000Y-103495000D01*
X134604000Y-103495000D02*
X141152000Y-103495000D01*
X126510000Y-103355000D02*
X132910000Y-103355000D01*
X134690000Y-103355000D02*
X141090000Y-103355000D01*
X126575000Y-103215000D02*
X132851000Y-103215000D01*
X134749000Y-103215000D02*
X141025000Y-103215000D01*
X126643000Y-103075000D02*
X132815000Y-103075000D01*
X134785000Y-103075000D02*
X140957000Y-103075000D01*
X126715000Y-102935000D02*
X132801000Y-102935000D01*
X134799000Y-102935000D02*
X140885000Y-102935000D01*
X126790000Y-102795000D02*
X132806000Y-102795000D01*
X134794000Y-102795000D02*
X140810000Y-102795000D01*
X126869000Y-102655000D02*
X132830000Y-102655000D01*
X134770000Y-102655000D02*
X140731000Y-102655000D01*
X126952000Y-102515000D02*
X132877000Y-102515000D01*
X134723000Y-102515000D02*
X140648000Y-102515000D01*
X127038000Y-102375000D02*
X132949000Y-102375000D01*
X134651000Y-102375000D02*
X140562000Y-102375000D01*
X127129000Y-102235000D02*
X133053000Y-102235000D01*
X134547000Y-102235000D02*
X140471000Y-102235000D01*
X127223000Y-102095000D02*
X133207000Y-102095000D01*
X134393000Y-102095000D02*
X140377000Y-102095000D01*
X127323000Y-101955000D02*
X133473000Y-101955000D01*
X134127000Y-101955000D02*
X140277000Y-101955000D01*
X127426000Y-101815000D02*
X140174000Y-101815000D01*
X127535000Y-101675000D02*
X140065000Y-101675000D01*
X127649000Y-101535000D02*
X139951000Y-101535000D01*
X127768000Y-101395000D02*
X139832000Y-101395000D01*
X127893000Y-101255000D02*
X139707000Y-101255000D01*
X128024000Y-101115000D02*
X139576000Y-101115000D01*
X128161000Y-100975000D02*
X139439000Y-100975000D01*
X128306000Y-100835000D02*
X139294000Y-100835000D01*
X128458000Y-100695000D02*
X139142000Y-100695000D01*
X128618000Y-100555000D02*
X138982000Y-100555000D01*
X128788000Y-100415000D02*
X138812000Y-100415000D01*
X128967000Y-100275000D02*
X138633000Y-100275000D01*
X129157000Y-100135000D02*
X138443000Y-100135000D01*
X129360000Y-99995000D02*
X138240000Y-99995000D01*
X129578000Y-99855000D02*
X138022000Y-99855000D01*
X129812000Y-99715000D02*
X137788000Y-99715000D01*
X130066000Y-99575000D02*
X137534000Y-99575000D01*
X130344000Y-99435000D02*
X137256000Y-99435000D01*
X130653000Y-99295000D02*
X136947000Y-99295000D01*
X131003000Y-99155000D02*
X136597000Y-99155000D01*
X131411000Y-99015000D02*
X136189000Y-99015000D01*
X131916000Y-98875000D02*
X135684000Y-98875000D01*
X132637000Y-98735000D02*
X134963000Y-98735000D01*
X134800000Y-102900000D02*
G75*
G03X134800000Y-102900000I-1000000J0D01*
G01*
X141837500Y-106650000D02*
G75*
G03X141837500Y-106650000I-8037500J0D01*
G01*
X175375000Y-77200000D02*
X175375000Y-78200000D01*
X174025000Y-78200000D02*
X174025000Y-77200000D01*
X175775000Y-121600000D02*
X175775000Y-122600000D01*
X174425000Y-122600000D02*
X174425000Y-121600000D01*
X172400000Y-77950000D02*
X172400000Y-77250000D01*
X173600000Y-77250000D02*
X173600000Y-77950000D01*
X172800000Y-122500000D02*
X172800000Y-121800000D01*
X174000000Y-121800000D02*
X174000000Y-122500000D01*
X167800000Y-75970000D02*
X167800000Y-79370000D01*
X167802944Y-75972944D02*
G75*
G02X171900000Y-77670000I1697056J-1697056D01*
G01*
X167802944Y-79367056D02*
G75*
G03X171900000Y-77670000I1697056J1697056D01*
G01*
X167800000Y-120630000D02*
X167800000Y-124030000D01*
X167802944Y-120632944D02*
G75*
G02X171900000Y-122330000I1697056J-1697056D01*
G01*
X167802944Y-124027056D02*
G75*
G03X171900000Y-122330000I1697056J1697056D01*
G01*
X154100000Y-94425000D02*
X138100000Y-94425000D01*
X154097000Y-94565000D02*
X138103000Y-94565000D01*
X154092000Y-94705000D02*
X138108000Y-94705000D01*
X154085000Y-94845000D02*
X138115000Y-94845000D01*
X154075000Y-94985000D02*
X138125000Y-94985000D01*
X154062000Y-95125000D02*
X138138000Y-95125000D01*
X154048000Y-95265000D02*
X138152000Y-95265000D01*
X154030000Y-95405000D02*
X138170000Y-95405000D01*
X154010000Y-95545000D02*
X138190000Y-95545000D01*
X153988000Y-95685000D02*
X138212000Y-95685000D01*
X153963000Y-95825000D02*
X138237000Y-95825000D01*
X153935000Y-95965000D02*
X138265000Y-95965000D01*
X153905000Y-96105000D02*
X138295000Y-96105000D01*
X153872000Y-96245000D02*
X138328000Y-96245000D01*
X153837000Y-96385000D02*
X138363000Y-96385000D01*
X153799000Y-96525000D02*
X138401000Y-96525000D01*
X153758000Y-96665000D02*
X138442000Y-96665000D01*
X153714000Y-96805000D02*
X138486000Y-96805000D01*
X153667000Y-96945000D02*
X138533000Y-96945000D01*
X153618000Y-97085000D02*
X138582000Y-97085000D01*
X153566000Y-97225000D02*
X146584000Y-97225000D01*
X145616000Y-97225000D02*
X138634000Y-97225000D01*
X153510000Y-97365000D02*
X146778000Y-97365000D01*
X145422000Y-97365000D02*
X138690000Y-97365000D01*
X153452000Y-97505000D02*
X146904000Y-97505000D01*
X145296000Y-97505000D02*
X138748000Y-97505000D01*
X153390000Y-97645000D02*
X146990000Y-97645000D01*
X145210000Y-97645000D02*
X138810000Y-97645000D01*
X153325000Y-97785000D02*
X147049000Y-97785000D01*
X145151000Y-97785000D02*
X138875000Y-97785000D01*
X153257000Y-97925000D02*
X147085000Y-97925000D01*
X145115000Y-97925000D02*
X138943000Y-97925000D01*
X153185000Y-98065000D02*
X147099000Y-98065000D01*
X145101000Y-98065000D02*
X139015000Y-98065000D01*
X153110000Y-98205000D02*
X147094000Y-98205000D01*
X145106000Y-98205000D02*
X139090000Y-98205000D01*
X153031000Y-98345000D02*
X147070000Y-98345000D01*
X145130000Y-98345000D02*
X139169000Y-98345000D01*
X152948000Y-98485000D02*
X147023000Y-98485000D01*
X145177000Y-98485000D02*
X139252000Y-98485000D01*
X152862000Y-98625000D02*
X146951000Y-98625000D01*
X145249000Y-98625000D02*
X139338000Y-98625000D01*
X152771000Y-98765000D02*
X146847000Y-98765000D01*
X145353000Y-98765000D02*
X139429000Y-98765000D01*
X152677000Y-98905000D02*
X146693000Y-98905000D01*
X145507000Y-98905000D02*
X139523000Y-98905000D01*
X152577000Y-99045000D02*
X146427000Y-99045000D01*
X145773000Y-99045000D02*
X139623000Y-99045000D01*
X152474000Y-99185000D02*
X139726000Y-99185000D01*
X152365000Y-99325000D02*
X139835000Y-99325000D01*
X152251000Y-99465000D02*
X139949000Y-99465000D01*
X152132000Y-99605000D02*
X140068000Y-99605000D01*
X152007000Y-99745000D02*
X140193000Y-99745000D01*
X151876000Y-99885000D02*
X140324000Y-99885000D01*
X151739000Y-100025000D02*
X140461000Y-100025000D01*
X151594000Y-100165000D02*
X140606000Y-100165000D01*
X151442000Y-100305000D02*
X140758000Y-100305000D01*
X151282000Y-100445000D02*
X140918000Y-100445000D01*
X151112000Y-100585000D02*
X141088000Y-100585000D01*
X150933000Y-100725000D02*
X141267000Y-100725000D01*
X150743000Y-100865000D02*
X141457000Y-100865000D01*
X150540000Y-101005000D02*
X141660000Y-101005000D01*
X150322000Y-101145000D02*
X141878000Y-101145000D01*
X150088000Y-101285000D02*
X142112000Y-101285000D01*
X149834000Y-101425000D02*
X142366000Y-101425000D01*
X149556000Y-101565000D02*
X142644000Y-101565000D01*
X149247000Y-101705000D02*
X142953000Y-101705000D01*
X148897000Y-101845000D02*
X143303000Y-101845000D01*
X148489000Y-101985000D02*
X143711000Y-101985000D01*
X147984000Y-102125000D02*
X144216000Y-102125000D01*
X147263000Y-102265000D02*
X144937000Y-102265000D01*
X147100000Y-98100000D02*
G75*
G03X147100000Y-98100000I-1000000J0D01*
G01*
X154137500Y-94350000D02*
G75*
G03X154137500Y-94350000I-8037500J0D01*
G01*
X116900000Y-138050000D02*
X117900000Y-138050000D01*
X117900000Y-136350000D02*
X116900000Y-136350000D01*
X158064400Y-127234360D02*
X159064400Y-127234360D01*
X159064400Y-125534360D02*
X158064400Y-125534360D01*
X116900000Y-134050000D02*
X117900000Y-134050000D01*
X117900000Y-132350000D02*
X116900000Y-132350000D01*
X158064400Y-131234360D02*
X159064400Y-131234360D01*
X159064400Y-129534360D02*
X158064400Y-129534360D01*
X116900000Y-130050000D02*
X117900000Y-130050000D01*
X117900000Y-128350000D02*
X116900000Y-128350000D01*
X158064400Y-135234360D02*
X159064400Y-135234360D01*
X159064400Y-133534360D02*
X158064400Y-133534360D01*
X123600000Y-81900000D02*
X123600000Y-90200000D01*
X117200000Y-90200000D02*
X117200000Y-81900000D01*
X156300000Y-118100000D02*
X156300000Y-109800000D01*
X162700000Y-109800000D02*
X162700000Y-118100000D01*
X125700000Y-137925000D02*
X120500000Y-137925000D01*
X120500000Y-134275000D02*
X125700000Y-134275000D01*
X150264400Y-125659360D02*
X155464400Y-125659360D01*
X155464400Y-129309360D02*
X150264400Y-129309360D01*
X125700000Y-134025000D02*
X120500000Y-134025000D01*
X120500000Y-130375000D02*
X125700000Y-130375000D01*
X150264400Y-129559360D02*
X155464400Y-129559360D01*
X155464400Y-133209360D02*
X150264400Y-133209360D01*
X125700000Y-130125000D02*
X120500000Y-130125000D01*
X120500000Y-126475000D02*
X125700000Y-126475000D01*
X150264400Y-133459360D02*
X155464400Y-133459360D01*
X155464400Y-137109360D02*
X150264400Y-137109360D01*
X164500000Y-72150000D02*
X163500000Y-72150000D01*
X163500000Y-73850000D02*
X164500000Y-73850000D01*
X164500000Y-70150000D02*
X163500000Y-70150000D01*
X163500000Y-71850000D02*
X164500000Y-71850000D01*
X164500000Y-68150000D02*
X163500000Y-68150000D01*
X163500000Y-69850000D02*
X164500000Y-69850000D01*
X164500000Y-66150000D02*
X163500000Y-66150000D01*
X163500000Y-67850000D02*
X164500000Y-67850000D01*
X164500000Y-64150000D02*
X163500000Y-64150000D01*
X163500000Y-65850000D02*
X164500000Y-65850000D01*
X164500000Y-62150000D02*
X163500000Y-62150000D01*
X163500000Y-63850000D02*
X164500000Y-63850000D01*
X121800000Y-72350000D02*
X120800000Y-72350000D01*
X120800000Y-74050000D02*
X121800000Y-74050000D01*
X121800000Y-70350000D02*
X120800000Y-70350000D01*
X120800000Y-72050000D02*
X121800000Y-72050000D01*
X121800000Y-68350000D02*
X120800000Y-68350000D01*
X120800000Y-70050000D02*
X121800000Y-70050000D01*
X121800000Y-66350000D02*
X120800000Y-66350000D01*
X120800000Y-68050000D02*
X121800000Y-68050000D01*
X121800000Y-64350000D02*
X120800000Y-64350000D01*
X120800000Y-66050000D02*
X121800000Y-66050000D01*
X121800000Y-62350000D02*
X120800000Y-62350000D01*
X120800000Y-64050000D02*
X121800000Y-64050000D01*
X116900000Y-136050000D02*
X117900000Y-136050000D01*
X117900000Y-134350000D02*
X116900000Y-134350000D01*
X116900000Y-132050000D02*
X117900000Y-132050000D01*
X117900000Y-130350000D02*
X116900000Y-130350000D01*
X116900000Y-128050000D02*
X117900000Y-128050000D01*
X117900000Y-126350000D02*
X116900000Y-126350000D01*
X158064400Y-129234360D02*
X159064400Y-129234360D01*
X159064400Y-127534360D02*
X158064400Y-127534360D01*
X158064400Y-133234360D02*
X159064400Y-133234360D01*
X159064400Y-131534360D02*
X158064400Y-131534360D01*
X158064400Y-137234360D02*
X159064400Y-137234360D01*
X159064400Y-135534360D02*
X158064400Y-135534360D01*
X155700000Y-62275000D02*
X160900000Y-62275000D01*
X160900000Y-65925000D02*
X155700000Y-65925000D01*
X155700000Y-66175000D02*
X160900000Y-66175000D01*
X160900000Y-69825000D02*
X155700000Y-69825000D01*
X155700000Y-70075000D02*
X160900000Y-70075000D01*
X160900000Y-73725000D02*
X155700000Y-73725000D01*
X129600000Y-73925000D02*
X124400000Y-73925000D01*
X124400000Y-70275000D02*
X129600000Y-70275000D01*
X129600000Y-70025000D02*
X124400000Y-70025000D01*
X124400000Y-66375000D02*
X129600000Y-66375000D01*
X129600000Y-66125000D02*
X124400000Y-66125000D01*
X124400000Y-62475000D02*
X129600000Y-62475000D01*
X178400000Y-82275000D02*
X177400000Y-82275000D01*
X177400000Y-80925000D02*
X178400000Y-80925000D01*
X177004430Y-111300000D02*
X177004430Y-90980000D01*
X171924430Y-93520000D02*
X171924430Y-111300000D01*
X177004430Y-111300000D02*
X171924430Y-111300000D01*
X177004430Y-90980000D02*
X174464430Y-90980000D01*
X171644430Y-92250000D02*
X171644430Y-90700000D01*
X174464430Y-90980000D02*
X174464430Y-93520000D01*
X174464430Y-93520000D02*
X171924430Y-93520000D01*
X171644430Y-90700000D02*
X173194430Y-90700000D01*
X163500000Y-91000000D02*
X163500000Y-109000000D01*
X163500000Y-109000000D02*
X155500000Y-109000000D01*
X155500000Y-109000000D02*
X155500000Y-91000000D01*
X155500000Y-91000000D02*
X163500000Y-91000000D01*
X116500000Y-108900000D02*
X116500000Y-90900000D01*
X116500000Y-90900000D02*
X124500000Y-90900000D01*
X124500000Y-90900000D02*
X124500000Y-108900000D01*
X124500000Y-108900000D02*
X116500000Y-108900000D01*
X162800000Y-80300000D02*
X175700000Y-80300000D01*
X155500000Y-80300000D02*
X155500000Y-83000000D01*
X162800000Y-80300000D02*
X162800000Y-83000000D01*
X152500000Y-84600000D02*
X152500000Y-83000000D01*
X175700000Y-84600000D02*
X152500000Y-84600000D01*
X175700000Y-83000000D02*
X175700000Y-84600000D01*
X152500000Y-83000000D02*
X175700000Y-83000000D01*
X165200000Y-95600000D02*
X165200000Y-84600000D01*
X170200000Y-95600000D02*
X165200000Y-95600000D01*
X170200000Y-84600000D02*
X170200000Y-95600000D01*
X152500000Y-82900000D02*
X152500000Y-80300000D01*
X155500000Y-80300000D02*
X152500000Y-80300000D01*
X175700000Y-80300000D02*
X175700000Y-83000000D01*
X123900000Y-80300000D02*
X136800000Y-80300000D01*
X116600000Y-80300000D02*
X116600000Y-83000000D01*
X123900000Y-80300000D02*
X123900000Y-83000000D01*
X113600000Y-84600000D02*
X113600000Y-83000000D01*
X136800000Y-84600000D02*
X113600000Y-84600000D01*
X136800000Y-83000000D02*
X136800000Y-84600000D01*
X113600000Y-83000000D02*
X136800000Y-83000000D01*
X126300000Y-95600000D02*
X126300000Y-84600000D01*
X131300000Y-95600000D02*
X126300000Y-95600000D01*
X131300000Y-84600000D02*
X131300000Y-95600000D01*
X113600000Y-82900000D02*
X113600000Y-80300000D01*
X116600000Y-80300000D02*
X113600000Y-80300000D01*
X136800000Y-80300000D02*
X136800000Y-83000000D01*
X117200000Y-119700000D02*
X104300000Y-119700000D01*
X124500000Y-119700000D02*
X124500000Y-117000000D01*
X117200000Y-119700000D02*
X117200000Y-117000000D01*
X127500000Y-115400000D02*
X127500000Y-117000000D01*
X104300000Y-115400000D02*
X127500000Y-115400000D01*
X104300000Y-117000000D02*
X104300000Y-115400000D01*
X127500000Y-117000000D02*
X104300000Y-117000000D01*
X114800000Y-104400000D02*
X114800000Y-115400000D01*
X109800000Y-104400000D02*
X114800000Y-104400000D01*
X109800000Y-115400000D02*
X109800000Y-104400000D01*
X127500000Y-117100000D02*
X127500000Y-119700000D01*
X124500000Y-119700000D02*
X127500000Y-119700000D01*
X104300000Y-119700000D02*
X104300000Y-117000000D01*
X116000000Y-108000000D02*
G75*
G03X116000000Y-108000000I-8000000J0D01*
G01*
X116000000Y-92000000D02*
G75*
G03X116000000Y-92000000I-8000000J0D01*
G01*
X116000000Y-68000000D02*
G75*
G03X116000000Y-68000000I-8000000J0D01*
G01*
X116000000Y-132000000D02*
G75*
G03X116000000Y-132000000I-8000000J0D01*
G01*
X166838095Y-116852381D02*
X166838095Y-117661905D01*
X166885714Y-117757143D01*
X166933333Y-117804762D01*
X167028571Y-117852381D01*
X167219048Y-117852381D01*
X167314286Y-117804762D01*
X167361905Y-117757143D01*
X167409524Y-117661905D01*
X167409524Y-116852381D01*
X168314286Y-117185714D02*
X168314286Y-117852381D01*
X168076190Y-116804762D02*
X167838095Y-117519048D01*
X168457143Y-117519048D01*
X150304762Y-78047619D02*
X150209524Y-78000000D01*
X150114286Y-77904762D01*
X149971429Y-77761905D01*
X149876190Y-77714286D01*
X149780952Y-77714286D01*
X149828571Y-77952381D02*
X149733333Y-77904762D01*
X149638095Y-77809524D01*
X149590476Y-77619048D01*
X149590476Y-77285714D01*
X149638095Y-77095238D01*
X149733333Y-77000000D01*
X149828571Y-76952381D01*
X150019048Y-76952381D01*
X150114286Y-77000000D01*
X150209524Y-77095238D01*
X150257143Y-77285714D01*
X150257143Y-77619048D01*
X150209524Y-77809524D01*
X150114286Y-77904762D01*
X150019048Y-77952381D01*
X149828571Y-77952381D01*
X151209524Y-77952381D02*
X150638095Y-77952381D01*
X150923809Y-77952381D02*
X150923809Y-76952381D01*
X150828571Y-77095238D01*
X150733333Y-77190476D01*
X150638095Y-77238095D01*
X111304762Y-78147619D02*
X111209524Y-78100000D01*
X111114286Y-78004762D01*
X110971429Y-77861905D01*
X110876190Y-77814286D01*
X110780952Y-77814286D01*
X110828571Y-78052381D02*
X110733333Y-78004762D01*
X110638095Y-77909524D01*
X110590476Y-77719048D01*
X110590476Y-77385714D01*
X110638095Y-77195238D01*
X110733333Y-77100000D01*
X110828571Y-77052381D01*
X111019048Y-77052381D01*
X111114286Y-77100000D01*
X111209524Y-77195238D01*
X111257143Y-77385714D01*
X111257143Y-77719048D01*
X111209524Y-77909524D01*
X111114286Y-78004762D01*
X111019048Y-78052381D01*
X110828571Y-78052381D01*
X111638095Y-77147619D02*
X111685714Y-77100000D01*
X111780952Y-77052381D01*
X112019048Y-77052381D01*
X112114286Y-77100000D01*
X112161905Y-77147619D01*
X112209524Y-77242857D01*
X112209524Y-77338095D01*
X112161905Y-77480952D01*
X111590476Y-78052381D01*
X112209524Y-78052381D01*
X111304762Y-122747619D02*
X111209524Y-122700000D01*
X111114286Y-122604762D01*
X110971429Y-122461905D01*
X110876190Y-122414286D01*
X110780952Y-122414286D01*
X110828571Y-122652381D02*
X110733333Y-122604762D01*
X110638095Y-122509524D01*
X110590476Y-122319048D01*
X110590476Y-121985714D01*
X110638095Y-121795238D01*
X110733333Y-121700000D01*
X110828571Y-121652381D01*
X111019048Y-121652381D01*
X111114286Y-121700000D01*
X111209524Y-121795238D01*
X111257143Y-121985714D01*
X111257143Y-122319048D01*
X111209524Y-122509524D01*
X111114286Y-122604762D01*
X111019048Y-122652381D01*
X110828571Y-122652381D01*
X111590476Y-121652381D02*
X112209524Y-121652381D01*
X111876190Y-122033333D01*
X112019048Y-122033333D01*
X112114286Y-122080952D01*
X112161905Y-122128571D01*
X112209524Y-122223810D01*
X112209524Y-122461905D01*
X112161905Y-122557143D01*
X112114286Y-122604762D01*
X112019048Y-122652381D01*
X111733333Y-122652381D01*
X111638095Y-122604762D01*
X111590476Y-122557143D01*
X150304762Y-122947619D02*
X150209524Y-122900000D01*
X150114286Y-122804762D01*
X149971429Y-122661905D01*
X149876190Y-122614286D01*
X149780952Y-122614286D01*
X149828571Y-122852381D02*
X149733333Y-122804762D01*
X149638095Y-122709524D01*
X149590476Y-122519048D01*
X149590476Y-122185714D01*
X149638095Y-121995238D01*
X149733333Y-121900000D01*
X149828571Y-121852381D01*
X150019048Y-121852381D01*
X150114286Y-121900000D01*
X150209524Y-121995238D01*
X150257143Y-122185714D01*
X150257143Y-122519048D01*
X150209524Y-122709524D01*
X150114286Y-122804762D01*
X150019048Y-122852381D01*
X149828571Y-122852381D01*
X151114286Y-122185714D02*
X151114286Y-122852381D01*
X150876190Y-121804762D02*
X150638095Y-122519048D01*
X151257143Y-122519048D01*
X134157143Y-116566666D02*
X134204762Y-116614285D01*
X134252381Y-116757142D01*
X134252381Y-116852380D01*
X134204762Y-116995238D01*
X134109524Y-117090476D01*
X134014286Y-117138095D01*
X133823810Y-117185714D01*
X133680952Y-117185714D01*
X133490476Y-117138095D01*
X133395238Y-117090476D01*
X133300000Y-116995238D01*
X133252381Y-116852380D01*
X133252381Y-116757142D01*
X133300000Y-116614285D01*
X133347619Y-116566666D01*
X133347619Y-116185714D02*
X133300000Y-116138095D01*
X133252381Y-116042857D01*
X133252381Y-115804761D01*
X133300000Y-115709523D01*
X133347619Y-115661904D01*
X133442857Y-115614285D01*
X133538095Y-115614285D01*
X133680952Y-115661904D01*
X134252381Y-116233333D01*
X134252381Y-115614285D01*
D13*
X175252381Y-75242857D02*
X174776190Y-75576191D01*
X175252381Y-75814286D02*
X174252381Y-75814286D01*
X174252381Y-75433333D01*
X174300000Y-75338095D01*
X174347619Y-75290476D01*
X174442857Y-75242857D01*
X174585714Y-75242857D01*
X174680952Y-75290476D01*
X174728571Y-75338095D01*
X174776190Y-75433333D01*
X174776190Y-75814286D01*
X175252381Y-74290476D02*
X175252381Y-74861905D01*
X175252381Y-74576191D02*
X174252381Y-74576191D01*
X174395238Y-74671429D01*
X174490476Y-74766667D01*
X174538095Y-74861905D01*
X174585714Y-73433333D02*
X175252381Y-73433333D01*
X174204762Y-73671429D02*
X174919048Y-73909524D01*
X174919048Y-73290476D01*
X175652381Y-125642857D02*
X175176190Y-125976191D01*
X175652381Y-126214286D02*
X174652381Y-126214286D01*
X174652381Y-125833333D01*
X174700000Y-125738095D01*
X174747619Y-125690476D01*
X174842857Y-125642857D01*
X174985714Y-125642857D01*
X175080952Y-125690476D01*
X175128571Y-125738095D01*
X175176190Y-125833333D01*
X175176190Y-126214286D01*
X175652381Y-124690476D02*
X175652381Y-125261905D01*
X175652381Y-124976191D02*
X174652381Y-124976191D01*
X174795238Y-125071429D01*
X174890476Y-125166667D01*
X174938095Y-125261905D01*
X174652381Y-123785714D02*
X174652381Y-124261905D01*
X175128571Y-124309524D01*
X175080952Y-124261905D01*
X175033333Y-124166667D01*
X175033333Y-123928571D01*
X175080952Y-123833333D01*
X175128571Y-123785714D01*
X175223810Y-123738095D01*
X175461905Y-123738095D01*
X175557143Y-123785714D01*
X175604762Y-123833333D01*
X175652381Y-123928571D01*
X175652381Y-124166667D01*
X175604762Y-124261905D01*
X175557143Y-124309524D01*
D12*
X173357143Y-75242857D02*
X173404762Y-75290476D01*
X173452381Y-75433333D01*
X173452381Y-75528571D01*
X173404762Y-75671429D01*
X173309524Y-75766667D01*
X173214286Y-75814286D01*
X173023810Y-75861905D01*
X172880952Y-75861905D01*
X172690476Y-75814286D01*
X172595238Y-75766667D01*
X172500000Y-75671429D01*
X172452381Y-75528571D01*
X172452381Y-75433333D01*
X172500000Y-75290476D01*
X172547619Y-75242857D01*
X172547619Y-74861905D02*
X172500000Y-74814286D01*
X172452381Y-74719048D01*
X172452381Y-74480952D01*
X172500000Y-74385714D01*
X172547619Y-74338095D01*
X172642857Y-74290476D01*
X172738095Y-74290476D01*
X172880952Y-74338095D01*
X173452381Y-74909524D01*
X173452381Y-74290476D01*
X173452381Y-73814286D02*
X173452381Y-73623810D01*
X173404762Y-73528571D01*
X173357143Y-73480952D01*
X173214286Y-73385714D01*
X173023810Y-73338095D01*
X172642857Y-73338095D01*
X172547619Y-73385714D01*
X172500000Y-73433333D01*
X172452381Y-73528571D01*
X172452381Y-73719048D01*
X172500000Y-73814286D01*
X172547619Y-73861905D01*
X172642857Y-73909524D01*
X172880952Y-73909524D01*
X172976190Y-73861905D01*
X173023810Y-73814286D01*
X173071429Y-73719048D01*
X173071429Y-73528571D01*
X173023810Y-73433333D01*
X172976190Y-73385714D01*
X172880952Y-73338095D01*
X173857143Y-125742857D02*
X173904762Y-125790476D01*
X173952381Y-125933333D01*
X173952381Y-126028571D01*
X173904762Y-126171429D01*
X173809524Y-126266667D01*
X173714286Y-126314286D01*
X173523810Y-126361905D01*
X173380952Y-126361905D01*
X173190476Y-126314286D01*
X173095238Y-126266667D01*
X173000000Y-126171429D01*
X172952381Y-126028571D01*
X172952381Y-125933333D01*
X173000000Y-125790476D01*
X173047619Y-125742857D01*
X172952381Y-125409524D02*
X172952381Y-124790476D01*
X173333333Y-125123810D01*
X173333333Y-124980952D01*
X173380952Y-124885714D01*
X173428571Y-124838095D01*
X173523810Y-124790476D01*
X173761905Y-124790476D01*
X173857143Y-124838095D01*
X173904762Y-124885714D01*
X173952381Y-124980952D01*
X173952381Y-125266667D01*
X173904762Y-125361905D01*
X173857143Y-125409524D01*
X172952381Y-124171429D02*
X172952381Y-124076190D01*
X173000000Y-123980952D01*
X173047619Y-123933333D01*
X173142857Y-123885714D01*
X173333333Y-123838095D01*
X173571429Y-123838095D01*
X173761905Y-123885714D01*
X173857143Y-123933333D01*
X173904762Y-123980952D01*
X173952381Y-124076190D01*
X173952381Y-124171429D01*
X173904762Y-124266667D01*
X173857143Y-124314286D01*
X173761905Y-124361905D01*
X173571429Y-124409524D01*
X173333333Y-124409524D01*
X173142857Y-124361905D01*
X173047619Y-124314286D01*
X173000000Y-124266667D01*
X172952381Y-124171429D01*
X168952381Y-74661905D02*
X169761905Y-74661905D01*
X169857143Y-74614286D01*
X169904762Y-74566667D01*
X169952381Y-74471429D01*
X169952381Y-74280952D01*
X169904762Y-74185714D01*
X169857143Y-74138095D01*
X169761905Y-74090476D01*
X168952381Y-74090476D01*
X168952381Y-73138095D02*
X168952381Y-73614286D01*
X169428571Y-73661905D01*
X169380952Y-73614286D01*
X169333333Y-73519048D01*
X169333333Y-73280952D01*
X169380952Y-73185714D01*
X169428571Y-73138095D01*
X169523810Y-73090476D01*
X169761905Y-73090476D01*
X169857143Y-73138095D01*
X169904762Y-73185714D01*
X169952381Y-73280952D01*
X169952381Y-73519048D01*
X169904762Y-73614286D01*
X169857143Y-73661905D01*
X170452381Y-119461905D02*
X171261905Y-119461905D01*
X171357143Y-119414286D01*
X171404762Y-119366667D01*
X171452381Y-119271429D01*
X171452381Y-119080952D01*
X171404762Y-118985714D01*
X171357143Y-118938095D01*
X171261905Y-118890476D01*
X170452381Y-118890476D01*
X170452381Y-117985714D02*
X170452381Y-118176191D01*
X170500000Y-118271429D01*
X170547619Y-118319048D01*
X170690476Y-118414286D01*
X170880952Y-118461905D01*
X171261905Y-118461905D01*
X171357143Y-118414286D01*
X171404762Y-118366667D01*
X171452381Y-118271429D01*
X171452381Y-118080952D01*
X171404762Y-117985714D01*
X171357143Y-117938095D01*
X171261905Y-117890476D01*
X171023810Y-117890476D01*
X170928571Y-117938095D01*
X170880952Y-117985714D01*
X170833333Y-118080952D01*
X170833333Y-118271429D01*
X170880952Y-118366667D01*
X170928571Y-118414286D01*
X171023810Y-118461905D01*
X146357143Y-85066666D02*
X146404762Y-85114285D01*
X146452381Y-85257142D01*
X146452381Y-85352380D01*
X146404762Y-85495238D01*
X146309524Y-85590476D01*
X146214286Y-85638095D01*
X146023810Y-85685714D01*
X145880952Y-85685714D01*
X145690476Y-85638095D01*
X145595238Y-85590476D01*
X145500000Y-85495238D01*
X145452381Y-85352380D01*
X145452381Y-85257142D01*
X145500000Y-85114285D01*
X145547619Y-85066666D01*
X146452381Y-84114285D02*
X146452381Y-84685714D01*
X146452381Y-84400000D02*
X145452381Y-84400000D01*
X145595238Y-84495238D01*
X145690476Y-84590476D01*
X145738095Y-84685714D01*
X129657143Y-137557143D02*
X129609524Y-137604762D01*
X129466667Y-137652381D01*
X129371429Y-137652381D01*
X129228571Y-137604762D01*
X129133333Y-137509524D01*
X129085714Y-137414286D01*
X129038095Y-137223810D01*
X129038095Y-137080952D01*
X129085714Y-136890476D01*
X129133333Y-136795238D01*
X129228571Y-136700000D01*
X129371429Y-136652381D01*
X129466667Y-136652381D01*
X129609524Y-136700000D01*
X129657143Y-136747619D01*
X130609524Y-137652381D02*
X130038095Y-137652381D01*
X130323809Y-137652381D02*
X130323809Y-136652381D01*
X130228571Y-136795238D01*
X130133333Y-136890476D01*
X130038095Y-136938095D01*
X130942857Y-136652381D02*
X131609524Y-136652381D01*
X131180952Y-137652381D01*
X162157143Y-126657143D02*
X162109524Y-126704762D01*
X161966667Y-126752381D01*
X161871429Y-126752381D01*
X161728571Y-126704762D01*
X161633333Y-126609524D01*
X161585714Y-126514286D01*
X161538095Y-126323810D01*
X161538095Y-126180952D01*
X161585714Y-125990476D01*
X161633333Y-125895238D01*
X161728571Y-125800000D01*
X161871429Y-125752381D01*
X161966667Y-125752381D01*
X162109524Y-125800000D01*
X162157143Y-125847619D01*
X162538095Y-125847619D02*
X162585714Y-125800000D01*
X162680952Y-125752381D01*
X162919048Y-125752381D01*
X163014286Y-125800000D01*
X163061905Y-125847619D01*
X163109524Y-125942857D01*
X163109524Y-126038095D01*
X163061905Y-126180952D01*
X162490476Y-126752381D01*
X163109524Y-126752381D01*
X163442857Y-125752381D02*
X164061905Y-125752381D01*
X163728571Y-126133333D01*
X163871429Y-126133333D01*
X163966667Y-126180952D01*
X164014286Y-126228571D01*
X164061905Y-126323810D01*
X164061905Y-126561905D01*
X164014286Y-126657143D01*
X163966667Y-126704762D01*
X163871429Y-126752381D01*
X163585714Y-126752381D01*
X163490476Y-126704762D01*
X163442857Y-126657143D01*
X129657143Y-133557143D02*
X129609524Y-133604762D01*
X129466667Y-133652381D01*
X129371429Y-133652381D01*
X129228571Y-133604762D01*
X129133333Y-133509524D01*
X129085714Y-133414286D01*
X129038095Y-133223810D01*
X129038095Y-133080952D01*
X129085714Y-132890476D01*
X129133333Y-132795238D01*
X129228571Y-132700000D01*
X129371429Y-132652381D01*
X129466667Y-132652381D01*
X129609524Y-132700000D01*
X129657143Y-132747619D01*
X130609524Y-133652381D02*
X130038095Y-133652381D01*
X130323809Y-133652381D02*
X130323809Y-132652381D01*
X130228571Y-132795238D01*
X130133333Y-132890476D01*
X130038095Y-132938095D01*
X131085714Y-133652381D02*
X131276190Y-133652381D01*
X131371429Y-133604762D01*
X131419048Y-133557143D01*
X131514286Y-133414286D01*
X131561905Y-133223810D01*
X131561905Y-132842857D01*
X131514286Y-132747619D01*
X131466667Y-132700000D01*
X131371429Y-132652381D01*
X131180952Y-132652381D01*
X131085714Y-132700000D01*
X131038095Y-132747619D01*
X130990476Y-132842857D01*
X130990476Y-133080952D01*
X131038095Y-133176190D01*
X131085714Y-133223810D01*
X131180952Y-133271429D01*
X131371429Y-133271429D01*
X131466667Y-133223810D01*
X131514286Y-133176190D01*
X131561905Y-133080952D01*
X162157143Y-130757143D02*
X162109524Y-130804762D01*
X161966667Y-130852381D01*
X161871429Y-130852381D01*
X161728571Y-130804762D01*
X161633333Y-130709524D01*
X161585714Y-130614286D01*
X161538095Y-130423810D01*
X161538095Y-130280952D01*
X161585714Y-130090476D01*
X161633333Y-129995238D01*
X161728571Y-129900000D01*
X161871429Y-129852381D01*
X161966667Y-129852381D01*
X162109524Y-129900000D01*
X162157143Y-129947619D01*
X162538095Y-129947619D02*
X162585714Y-129900000D01*
X162680952Y-129852381D01*
X162919048Y-129852381D01*
X163014286Y-129900000D01*
X163061905Y-129947619D01*
X163109524Y-130042857D01*
X163109524Y-130138095D01*
X163061905Y-130280952D01*
X162490476Y-130852381D01*
X163109524Y-130852381D01*
X164014286Y-129852381D02*
X163538095Y-129852381D01*
X163490476Y-130328571D01*
X163538095Y-130280952D01*
X163633333Y-130233333D01*
X163871429Y-130233333D01*
X163966667Y-130280952D01*
X164014286Y-130328571D01*
X164061905Y-130423810D01*
X164061905Y-130661905D01*
X164014286Y-130757143D01*
X163966667Y-130804762D01*
X163871429Y-130852381D01*
X163633333Y-130852381D01*
X163538095Y-130804762D01*
X163490476Y-130757143D01*
X129657143Y-129557143D02*
X129609524Y-129604762D01*
X129466667Y-129652381D01*
X129371429Y-129652381D01*
X129228571Y-129604762D01*
X129133333Y-129509524D01*
X129085714Y-129414286D01*
X129038095Y-129223810D01*
X129038095Y-129080952D01*
X129085714Y-128890476D01*
X129133333Y-128795238D01*
X129228571Y-128700000D01*
X129371429Y-128652381D01*
X129466667Y-128652381D01*
X129609524Y-128700000D01*
X129657143Y-128747619D01*
X130038095Y-128747619D02*
X130085714Y-128700000D01*
X130180952Y-128652381D01*
X130419048Y-128652381D01*
X130514286Y-128700000D01*
X130561905Y-128747619D01*
X130609524Y-128842857D01*
X130609524Y-128938095D01*
X130561905Y-129080952D01*
X129990476Y-129652381D01*
X130609524Y-129652381D01*
X131561905Y-129652381D02*
X130990476Y-129652381D01*
X131276190Y-129652381D02*
X131276190Y-128652381D01*
X131180952Y-128795238D01*
X131085714Y-128890476D01*
X130990476Y-128938095D01*
X162157143Y-134757143D02*
X162109524Y-134804762D01*
X161966667Y-134852381D01*
X161871429Y-134852381D01*
X161728571Y-134804762D01*
X161633333Y-134709524D01*
X161585714Y-134614286D01*
X161538095Y-134423810D01*
X161538095Y-134280952D01*
X161585714Y-134090476D01*
X161633333Y-133995238D01*
X161728571Y-133900000D01*
X161871429Y-133852381D01*
X161966667Y-133852381D01*
X162109524Y-133900000D01*
X162157143Y-133947619D01*
X162538095Y-133947619D02*
X162585714Y-133900000D01*
X162680952Y-133852381D01*
X162919048Y-133852381D01*
X163014286Y-133900000D01*
X163061905Y-133947619D01*
X163109524Y-134042857D01*
X163109524Y-134138095D01*
X163061905Y-134280952D01*
X162490476Y-134852381D01*
X163109524Y-134852381D01*
X163442857Y-133852381D02*
X164109524Y-133852381D01*
X163680952Y-134852381D01*
X125052381Y-86138095D02*
X124052381Y-86138095D01*
X124052381Y-85900000D01*
X124100000Y-85757142D01*
X124195238Y-85661904D01*
X124290476Y-85614285D01*
X124480952Y-85566666D01*
X124623810Y-85566666D01*
X124814286Y-85614285D01*
X124909524Y-85661904D01*
X125004762Y-85757142D01*
X125052381Y-85900000D01*
X125052381Y-86138095D01*
X125052381Y-84614285D02*
X125052381Y-85185714D01*
X125052381Y-84900000D02*
X124052381Y-84900000D01*
X124195238Y-84995238D01*
X124290476Y-85090476D01*
X124338095Y-85185714D01*
X164152381Y-114638095D02*
X163152381Y-114638095D01*
X163152381Y-114400000D01*
X163200000Y-114257142D01*
X163295238Y-114161904D01*
X163390476Y-114114285D01*
X163580952Y-114066666D01*
X163723810Y-114066666D01*
X163914286Y-114114285D01*
X164009524Y-114161904D01*
X164104762Y-114257142D01*
X164152381Y-114400000D01*
X164152381Y-114638095D01*
X163152381Y-113733333D02*
X163152381Y-113114285D01*
X163533333Y-113447619D01*
X163533333Y-113304761D01*
X163580952Y-113209523D01*
X163628571Y-113161904D01*
X163723810Y-113114285D01*
X163961905Y-113114285D01*
X164057143Y-113161904D01*
X164104762Y-113209523D01*
X164152381Y-113304761D01*
X164152381Y-113590476D01*
X164104762Y-113685714D01*
X164057143Y-113733333D01*
X133433334Y-136552381D02*
X133100000Y-136076190D01*
X132861905Y-136552381D02*
X132861905Y-135552381D01*
X133242858Y-135552381D01*
X133338096Y-135600000D01*
X133385715Y-135647619D01*
X133433334Y-135742857D01*
X133433334Y-135885714D01*
X133385715Y-135980952D01*
X133338096Y-136028571D01*
X133242858Y-136076190D01*
X132861905Y-136076190D01*
X134004762Y-135980952D02*
X133909524Y-135933333D01*
X133861905Y-135885714D01*
X133814286Y-135790476D01*
X133814286Y-135742857D01*
X133861905Y-135647619D01*
X133909524Y-135600000D01*
X134004762Y-135552381D01*
X134195239Y-135552381D01*
X134290477Y-135600000D01*
X134338096Y-135647619D01*
X134385715Y-135742857D01*
X134385715Y-135790476D01*
X134338096Y-135885714D01*
X134290477Y-135933333D01*
X134195239Y-135980952D01*
X134004762Y-135980952D01*
X133909524Y-136028571D01*
X133861905Y-136076190D01*
X133814286Y-136171429D01*
X133814286Y-136361905D01*
X133861905Y-136457143D01*
X133909524Y-136504762D01*
X134004762Y-136552381D01*
X134195239Y-136552381D01*
X134290477Y-136504762D01*
X134338096Y-136457143D01*
X134385715Y-136361905D01*
X134385715Y-136171429D01*
X134338096Y-136076190D01*
X134290477Y-136028571D01*
X134195239Y-135980952D01*
X145257143Y-127852381D02*
X144923809Y-127376190D01*
X144685714Y-127852381D02*
X144685714Y-126852381D01*
X145066667Y-126852381D01*
X145161905Y-126900000D01*
X145209524Y-126947619D01*
X145257143Y-127042857D01*
X145257143Y-127185714D01*
X145209524Y-127280952D01*
X145161905Y-127328571D01*
X145066667Y-127376190D01*
X144685714Y-127376190D01*
X146209524Y-127852381D02*
X145638095Y-127852381D01*
X145923809Y-127852381D02*
X145923809Y-126852381D01*
X145828571Y-126995238D01*
X145733333Y-127090476D01*
X145638095Y-127138095D01*
X147161905Y-127852381D02*
X146590476Y-127852381D01*
X146876190Y-127852381D02*
X146876190Y-126852381D01*
X146780952Y-126995238D01*
X146685714Y-127090476D01*
X146590476Y-127138095D01*
X133433334Y-132652381D02*
X133100000Y-132176190D01*
X132861905Y-132652381D02*
X132861905Y-131652381D01*
X133242858Y-131652381D01*
X133338096Y-131700000D01*
X133385715Y-131747619D01*
X133433334Y-131842857D01*
X133433334Y-131985714D01*
X133385715Y-132080952D01*
X133338096Y-132128571D01*
X133242858Y-132176190D01*
X132861905Y-132176190D01*
X133909524Y-132652381D02*
X134100000Y-132652381D01*
X134195239Y-132604762D01*
X134242858Y-132557143D01*
X134338096Y-132414286D01*
X134385715Y-132223810D01*
X134385715Y-131842857D01*
X134338096Y-131747619D01*
X134290477Y-131700000D01*
X134195239Y-131652381D01*
X134004762Y-131652381D01*
X133909524Y-131700000D01*
X133861905Y-131747619D01*
X133814286Y-131842857D01*
X133814286Y-132080952D01*
X133861905Y-132176190D01*
X133909524Y-132223810D01*
X134004762Y-132271429D01*
X134195239Y-132271429D01*
X134290477Y-132223810D01*
X134338096Y-132176190D01*
X134385715Y-132080952D01*
X145257143Y-131852381D02*
X144923809Y-131376190D01*
X144685714Y-131852381D02*
X144685714Y-130852381D01*
X145066667Y-130852381D01*
X145161905Y-130900000D01*
X145209524Y-130947619D01*
X145257143Y-131042857D01*
X145257143Y-131185714D01*
X145209524Y-131280952D01*
X145161905Y-131328571D01*
X145066667Y-131376190D01*
X144685714Y-131376190D01*
X146209524Y-131852381D02*
X145638095Y-131852381D01*
X145923809Y-131852381D02*
X145923809Y-130852381D01*
X145828571Y-130995238D01*
X145733333Y-131090476D01*
X145638095Y-131138095D01*
X146590476Y-130947619D02*
X146638095Y-130900000D01*
X146733333Y-130852381D01*
X146971429Y-130852381D01*
X147066667Y-130900000D01*
X147114286Y-130947619D01*
X147161905Y-131042857D01*
X147161905Y-131138095D01*
X147114286Y-131280952D01*
X146542857Y-131852381D01*
X147161905Y-131852381D01*
X133357143Y-128852381D02*
X133023809Y-128376190D01*
X132785714Y-128852381D02*
X132785714Y-127852381D01*
X133166667Y-127852381D01*
X133261905Y-127900000D01*
X133309524Y-127947619D01*
X133357143Y-128042857D01*
X133357143Y-128185714D01*
X133309524Y-128280952D01*
X133261905Y-128328571D01*
X133166667Y-128376190D01*
X132785714Y-128376190D01*
X134309524Y-128852381D02*
X133738095Y-128852381D01*
X134023809Y-128852381D02*
X134023809Y-127852381D01*
X133928571Y-127995238D01*
X133833333Y-128090476D01*
X133738095Y-128138095D01*
X134928571Y-127852381D02*
X135023810Y-127852381D01*
X135119048Y-127900000D01*
X135166667Y-127947619D01*
X135214286Y-128042857D01*
X135261905Y-128233333D01*
X135261905Y-128471429D01*
X135214286Y-128661905D01*
X135166667Y-128757143D01*
X135119048Y-128804762D01*
X135023810Y-128852381D01*
X134928571Y-128852381D01*
X134833333Y-128804762D01*
X134785714Y-128757143D01*
X134738095Y-128661905D01*
X134690476Y-128471429D01*
X134690476Y-128233333D01*
X134738095Y-128042857D01*
X134785714Y-127947619D01*
X134833333Y-127900000D01*
X134928571Y-127852381D01*
X145257143Y-135752381D02*
X144923809Y-135276190D01*
X144685714Y-135752381D02*
X144685714Y-134752381D01*
X145066667Y-134752381D01*
X145161905Y-134800000D01*
X145209524Y-134847619D01*
X145257143Y-134942857D01*
X145257143Y-135085714D01*
X145209524Y-135180952D01*
X145161905Y-135228571D01*
X145066667Y-135276190D01*
X144685714Y-135276190D01*
X146209524Y-135752381D02*
X145638095Y-135752381D01*
X145923809Y-135752381D02*
X145923809Y-134752381D01*
X145828571Y-134895238D01*
X145733333Y-134990476D01*
X145638095Y-135038095D01*
X146542857Y-134752381D02*
X147161905Y-134752381D01*
X146828571Y-135133333D01*
X146971429Y-135133333D01*
X147066667Y-135180952D01*
X147114286Y-135228571D01*
X147161905Y-135323810D01*
X147161905Y-135561905D01*
X147114286Y-135657143D01*
X147066667Y-135704762D01*
X146971429Y-135752381D01*
X146685714Y-135752381D01*
X146590476Y-135704762D01*
X146542857Y-135657143D01*
X163833334Y-71257143D02*
X163785715Y-71304762D01*
X163642858Y-71352381D01*
X163547620Y-71352381D01*
X163404762Y-71304762D01*
X163309524Y-71209524D01*
X163261905Y-71114286D01*
X163214286Y-70923810D01*
X163214286Y-70780952D01*
X163261905Y-70590476D01*
X163309524Y-70495238D01*
X163404762Y-70400000D01*
X163547620Y-70352381D01*
X163642858Y-70352381D01*
X163785715Y-70400000D01*
X163833334Y-70447619D01*
X164738096Y-70352381D02*
X164261905Y-70352381D01*
X164214286Y-70828571D01*
X164261905Y-70780952D01*
X164357143Y-70733333D01*
X164595239Y-70733333D01*
X164690477Y-70780952D01*
X164738096Y-70828571D01*
X164785715Y-70923810D01*
X164785715Y-71161905D01*
X164738096Y-71257143D01*
X164690477Y-71304762D01*
X164595239Y-71352381D01*
X164357143Y-71352381D01*
X164261905Y-71304762D01*
X164214286Y-71257143D01*
X163833334Y-69257143D02*
X163785715Y-69304762D01*
X163642858Y-69352381D01*
X163547620Y-69352381D01*
X163404762Y-69304762D01*
X163309524Y-69209524D01*
X163261905Y-69114286D01*
X163214286Y-68923810D01*
X163214286Y-68780952D01*
X163261905Y-68590476D01*
X163309524Y-68495238D01*
X163404762Y-68400000D01*
X163547620Y-68352381D01*
X163642858Y-68352381D01*
X163785715Y-68400000D01*
X163833334Y-68447619D01*
X164690477Y-68352381D02*
X164500000Y-68352381D01*
X164404762Y-68400000D01*
X164357143Y-68447619D01*
X164261905Y-68590476D01*
X164214286Y-68780952D01*
X164214286Y-69161905D01*
X164261905Y-69257143D01*
X164309524Y-69304762D01*
X164404762Y-69352381D01*
X164595239Y-69352381D01*
X164690477Y-69304762D01*
X164738096Y-69257143D01*
X164785715Y-69161905D01*
X164785715Y-68923810D01*
X164738096Y-68828571D01*
X164690477Y-68780952D01*
X164595239Y-68733333D01*
X164404762Y-68733333D01*
X164309524Y-68780952D01*
X164261905Y-68828571D01*
X164214286Y-68923810D01*
X163833334Y-67257143D02*
X163785715Y-67304762D01*
X163642858Y-67352381D01*
X163547620Y-67352381D01*
X163404762Y-67304762D01*
X163309524Y-67209524D01*
X163261905Y-67114286D01*
X163214286Y-66923810D01*
X163214286Y-66780952D01*
X163261905Y-66590476D01*
X163309524Y-66495238D01*
X163404762Y-66400000D01*
X163547620Y-66352381D01*
X163642858Y-66352381D01*
X163785715Y-66400000D01*
X163833334Y-66447619D01*
X164166667Y-66352381D02*
X164833334Y-66352381D01*
X164404762Y-67352381D01*
X163833334Y-65257143D02*
X163785715Y-65304762D01*
X163642858Y-65352381D01*
X163547620Y-65352381D01*
X163404762Y-65304762D01*
X163309524Y-65209524D01*
X163261905Y-65114286D01*
X163214286Y-64923810D01*
X163214286Y-64780952D01*
X163261905Y-64590476D01*
X163309524Y-64495238D01*
X163404762Y-64400000D01*
X163547620Y-64352381D01*
X163642858Y-64352381D01*
X163785715Y-64400000D01*
X163833334Y-64447619D01*
X164404762Y-64780952D02*
X164309524Y-64733333D01*
X164261905Y-64685714D01*
X164214286Y-64590476D01*
X164214286Y-64542857D01*
X164261905Y-64447619D01*
X164309524Y-64400000D01*
X164404762Y-64352381D01*
X164595239Y-64352381D01*
X164690477Y-64400000D01*
X164738096Y-64447619D01*
X164785715Y-64542857D01*
X164785715Y-64590476D01*
X164738096Y-64685714D01*
X164690477Y-64733333D01*
X164595239Y-64780952D01*
X164404762Y-64780952D01*
X164309524Y-64828571D01*
X164261905Y-64876190D01*
X164214286Y-64971429D01*
X164214286Y-65161905D01*
X164261905Y-65257143D01*
X164309524Y-65304762D01*
X164404762Y-65352381D01*
X164595239Y-65352381D01*
X164690477Y-65304762D01*
X164738096Y-65257143D01*
X164785715Y-65161905D01*
X164785715Y-64971429D01*
X164738096Y-64876190D01*
X164690477Y-64828571D01*
X164595239Y-64780952D01*
X163833334Y-63257143D02*
X163785715Y-63304762D01*
X163642858Y-63352381D01*
X163547620Y-63352381D01*
X163404762Y-63304762D01*
X163309524Y-63209524D01*
X163261905Y-63114286D01*
X163214286Y-62923810D01*
X163214286Y-62780952D01*
X163261905Y-62590476D01*
X163309524Y-62495238D01*
X163404762Y-62400000D01*
X163547620Y-62352381D01*
X163642858Y-62352381D01*
X163785715Y-62400000D01*
X163833334Y-62447619D01*
X164309524Y-63352381D02*
X164500000Y-63352381D01*
X164595239Y-63304762D01*
X164642858Y-63257143D01*
X164738096Y-63114286D01*
X164785715Y-62923810D01*
X164785715Y-62542857D01*
X164738096Y-62447619D01*
X164690477Y-62400000D01*
X164595239Y-62352381D01*
X164404762Y-62352381D01*
X164309524Y-62400000D01*
X164261905Y-62447619D01*
X164214286Y-62542857D01*
X164214286Y-62780952D01*
X164261905Y-62876190D01*
X164309524Y-62923810D01*
X164404762Y-62971429D01*
X164595239Y-62971429D01*
X164690477Y-62923810D01*
X164738096Y-62876190D01*
X164785715Y-62780952D01*
X163357143Y-61257143D02*
X163309524Y-61304762D01*
X163166667Y-61352381D01*
X163071429Y-61352381D01*
X162928571Y-61304762D01*
X162833333Y-61209524D01*
X162785714Y-61114286D01*
X162738095Y-60923810D01*
X162738095Y-60780952D01*
X162785714Y-60590476D01*
X162833333Y-60495238D01*
X162928571Y-60400000D01*
X163071429Y-60352381D01*
X163166667Y-60352381D01*
X163309524Y-60400000D01*
X163357143Y-60447619D01*
X164309524Y-61352381D02*
X163738095Y-61352381D01*
X164023809Y-61352381D02*
X164023809Y-60352381D01*
X163928571Y-60495238D01*
X163833333Y-60590476D01*
X163738095Y-60638095D01*
X164928571Y-60352381D02*
X165023810Y-60352381D01*
X165119048Y-60400000D01*
X165166667Y-60447619D01*
X165214286Y-60542857D01*
X165261905Y-60733333D01*
X165261905Y-60971429D01*
X165214286Y-61161905D01*
X165166667Y-61257143D01*
X165119048Y-61304762D01*
X165023810Y-61352381D01*
X164928571Y-61352381D01*
X164833333Y-61304762D01*
X164785714Y-61257143D01*
X164738095Y-61161905D01*
X164690476Y-60971429D01*
X164690476Y-60733333D01*
X164738095Y-60542857D01*
X164785714Y-60447619D01*
X164833333Y-60400000D01*
X164928571Y-60352381D01*
X116857143Y-73557143D02*
X116809524Y-73604762D01*
X116666667Y-73652381D01*
X116571429Y-73652381D01*
X116428571Y-73604762D01*
X116333333Y-73509524D01*
X116285714Y-73414286D01*
X116238095Y-73223810D01*
X116238095Y-73080952D01*
X116285714Y-72890476D01*
X116333333Y-72795238D01*
X116428571Y-72700000D01*
X116571429Y-72652381D01*
X116666667Y-72652381D01*
X116809524Y-72700000D01*
X116857143Y-72747619D01*
X117809524Y-73652381D02*
X117238095Y-73652381D01*
X117523809Y-73652381D02*
X117523809Y-72652381D01*
X117428571Y-72795238D01*
X117333333Y-72890476D01*
X117238095Y-72938095D01*
X118761905Y-73652381D02*
X118190476Y-73652381D01*
X118476190Y-73652381D02*
X118476190Y-72652381D01*
X118380952Y-72795238D01*
X118285714Y-72890476D01*
X118190476Y-72938095D01*
X116857143Y-71557143D02*
X116809524Y-71604762D01*
X116666667Y-71652381D01*
X116571429Y-71652381D01*
X116428571Y-71604762D01*
X116333333Y-71509524D01*
X116285714Y-71414286D01*
X116238095Y-71223810D01*
X116238095Y-71080952D01*
X116285714Y-70890476D01*
X116333333Y-70795238D01*
X116428571Y-70700000D01*
X116571429Y-70652381D01*
X116666667Y-70652381D01*
X116809524Y-70700000D01*
X116857143Y-70747619D01*
X117809524Y-71652381D02*
X117238095Y-71652381D01*
X117523809Y-71652381D02*
X117523809Y-70652381D01*
X117428571Y-70795238D01*
X117333333Y-70890476D01*
X117238095Y-70938095D01*
X118190476Y-70747619D02*
X118238095Y-70700000D01*
X118333333Y-70652381D01*
X118571429Y-70652381D01*
X118666667Y-70700000D01*
X118714286Y-70747619D01*
X118761905Y-70842857D01*
X118761905Y-70938095D01*
X118714286Y-71080952D01*
X118142857Y-71652381D01*
X118761905Y-71652381D01*
X116857143Y-69557143D02*
X116809524Y-69604762D01*
X116666667Y-69652381D01*
X116571429Y-69652381D01*
X116428571Y-69604762D01*
X116333333Y-69509524D01*
X116285714Y-69414286D01*
X116238095Y-69223810D01*
X116238095Y-69080952D01*
X116285714Y-68890476D01*
X116333333Y-68795238D01*
X116428571Y-68700000D01*
X116571429Y-68652381D01*
X116666667Y-68652381D01*
X116809524Y-68700000D01*
X116857143Y-68747619D01*
X117809524Y-69652381D02*
X117238095Y-69652381D01*
X117523809Y-69652381D02*
X117523809Y-68652381D01*
X117428571Y-68795238D01*
X117333333Y-68890476D01*
X117238095Y-68938095D01*
X118142857Y-68652381D02*
X118761905Y-68652381D01*
X118428571Y-69033333D01*
X118571429Y-69033333D01*
X118666667Y-69080952D01*
X118714286Y-69128571D01*
X118761905Y-69223810D01*
X118761905Y-69461905D01*
X118714286Y-69557143D01*
X118666667Y-69604762D01*
X118571429Y-69652381D01*
X118285714Y-69652381D01*
X118190476Y-69604762D01*
X118142857Y-69557143D01*
X116857143Y-67557143D02*
X116809524Y-67604762D01*
X116666667Y-67652381D01*
X116571429Y-67652381D01*
X116428571Y-67604762D01*
X116333333Y-67509524D01*
X116285714Y-67414286D01*
X116238095Y-67223810D01*
X116238095Y-67080952D01*
X116285714Y-66890476D01*
X116333333Y-66795238D01*
X116428571Y-66700000D01*
X116571429Y-66652381D01*
X116666667Y-66652381D01*
X116809524Y-66700000D01*
X116857143Y-66747619D01*
X117809524Y-67652381D02*
X117238095Y-67652381D01*
X117523809Y-67652381D02*
X117523809Y-66652381D01*
X117428571Y-66795238D01*
X117333333Y-66890476D01*
X117238095Y-66938095D01*
X118666667Y-66985714D02*
X118666667Y-67652381D01*
X118428571Y-66604762D02*
X118190476Y-67319048D01*
X118809524Y-67319048D01*
X116857143Y-65557143D02*
X116809524Y-65604762D01*
X116666667Y-65652381D01*
X116571429Y-65652381D01*
X116428571Y-65604762D01*
X116333333Y-65509524D01*
X116285714Y-65414286D01*
X116238095Y-65223810D01*
X116238095Y-65080952D01*
X116285714Y-64890476D01*
X116333333Y-64795238D01*
X116428571Y-64700000D01*
X116571429Y-64652381D01*
X116666667Y-64652381D01*
X116809524Y-64700000D01*
X116857143Y-64747619D01*
X117809524Y-65652381D02*
X117238095Y-65652381D01*
X117523809Y-65652381D02*
X117523809Y-64652381D01*
X117428571Y-64795238D01*
X117333333Y-64890476D01*
X117238095Y-64938095D01*
X118714286Y-64652381D02*
X118238095Y-64652381D01*
X118190476Y-65128571D01*
X118238095Y-65080952D01*
X118333333Y-65033333D01*
X118571429Y-65033333D01*
X118666667Y-65080952D01*
X118714286Y-65128571D01*
X118761905Y-65223810D01*
X118761905Y-65461905D01*
X118714286Y-65557143D01*
X118666667Y-65604762D01*
X118571429Y-65652381D01*
X118333333Y-65652381D01*
X118238095Y-65604762D01*
X118190476Y-65557143D01*
X116857143Y-63557143D02*
X116809524Y-63604762D01*
X116666667Y-63652381D01*
X116571429Y-63652381D01*
X116428571Y-63604762D01*
X116333333Y-63509524D01*
X116285714Y-63414286D01*
X116238095Y-63223810D01*
X116238095Y-63080952D01*
X116285714Y-62890476D01*
X116333333Y-62795238D01*
X116428571Y-62700000D01*
X116571429Y-62652381D01*
X116666667Y-62652381D01*
X116809524Y-62700000D01*
X116857143Y-62747619D01*
X117809524Y-63652381D02*
X117238095Y-63652381D01*
X117523809Y-63652381D02*
X117523809Y-62652381D01*
X117428571Y-62795238D01*
X117333333Y-62890476D01*
X117238095Y-62938095D01*
X118666667Y-62652381D02*
X118476190Y-62652381D01*
X118380952Y-62700000D01*
X118333333Y-62747619D01*
X118238095Y-62890476D01*
X118190476Y-63080952D01*
X118190476Y-63461905D01*
X118238095Y-63557143D01*
X118285714Y-63604762D01*
X118380952Y-63652381D01*
X118571429Y-63652381D01*
X118666667Y-63604762D01*
X118714286Y-63557143D01*
X118761905Y-63461905D01*
X118761905Y-63223810D01*
X118714286Y-63128571D01*
X118666667Y-63080952D01*
X118571429Y-63033333D01*
X118380952Y-63033333D01*
X118285714Y-63080952D01*
X118238095Y-63128571D01*
X118190476Y-63223810D01*
X129657143Y-135557143D02*
X129609524Y-135604762D01*
X129466667Y-135652381D01*
X129371429Y-135652381D01*
X129228571Y-135604762D01*
X129133333Y-135509524D01*
X129085714Y-135414286D01*
X129038095Y-135223810D01*
X129038095Y-135080952D01*
X129085714Y-134890476D01*
X129133333Y-134795238D01*
X129228571Y-134700000D01*
X129371429Y-134652381D01*
X129466667Y-134652381D01*
X129609524Y-134700000D01*
X129657143Y-134747619D01*
X130609524Y-135652381D02*
X130038095Y-135652381D01*
X130323809Y-135652381D02*
X130323809Y-134652381D01*
X130228571Y-134795238D01*
X130133333Y-134890476D01*
X130038095Y-134938095D01*
X131180952Y-135080952D02*
X131085714Y-135033333D01*
X131038095Y-134985714D01*
X130990476Y-134890476D01*
X130990476Y-134842857D01*
X131038095Y-134747619D01*
X131085714Y-134700000D01*
X131180952Y-134652381D01*
X131371429Y-134652381D01*
X131466667Y-134700000D01*
X131514286Y-134747619D01*
X131561905Y-134842857D01*
X131561905Y-134890476D01*
X131514286Y-134985714D01*
X131466667Y-135033333D01*
X131371429Y-135080952D01*
X131180952Y-135080952D01*
X131085714Y-135128571D01*
X131038095Y-135176190D01*
X130990476Y-135271429D01*
X130990476Y-135461905D01*
X131038095Y-135557143D01*
X131085714Y-135604762D01*
X131180952Y-135652381D01*
X131371429Y-135652381D01*
X131466667Y-135604762D01*
X131514286Y-135557143D01*
X131561905Y-135461905D01*
X131561905Y-135271429D01*
X131514286Y-135176190D01*
X131466667Y-135128571D01*
X131371429Y-135080952D01*
X129657143Y-131557143D02*
X129609524Y-131604762D01*
X129466667Y-131652381D01*
X129371429Y-131652381D01*
X129228571Y-131604762D01*
X129133333Y-131509524D01*
X129085714Y-131414286D01*
X129038095Y-131223810D01*
X129038095Y-131080952D01*
X129085714Y-130890476D01*
X129133333Y-130795238D01*
X129228571Y-130700000D01*
X129371429Y-130652381D01*
X129466667Y-130652381D01*
X129609524Y-130700000D01*
X129657143Y-130747619D01*
X130038095Y-130747619D02*
X130085714Y-130700000D01*
X130180952Y-130652381D01*
X130419048Y-130652381D01*
X130514286Y-130700000D01*
X130561905Y-130747619D01*
X130609524Y-130842857D01*
X130609524Y-130938095D01*
X130561905Y-131080952D01*
X129990476Y-131652381D01*
X130609524Y-131652381D01*
X131228571Y-130652381D02*
X131323810Y-130652381D01*
X131419048Y-130700000D01*
X131466667Y-130747619D01*
X131514286Y-130842857D01*
X131561905Y-131033333D01*
X131561905Y-131271429D01*
X131514286Y-131461905D01*
X131466667Y-131557143D01*
X131419048Y-131604762D01*
X131323810Y-131652381D01*
X131228571Y-131652381D01*
X131133333Y-131604762D01*
X131085714Y-131557143D01*
X131038095Y-131461905D01*
X130990476Y-131271429D01*
X130990476Y-131033333D01*
X131038095Y-130842857D01*
X131085714Y-130747619D01*
X131133333Y-130700000D01*
X131228571Y-130652381D01*
X129657143Y-127557143D02*
X129609524Y-127604762D01*
X129466667Y-127652381D01*
X129371429Y-127652381D01*
X129228571Y-127604762D01*
X129133333Y-127509524D01*
X129085714Y-127414286D01*
X129038095Y-127223810D01*
X129038095Y-127080952D01*
X129085714Y-126890476D01*
X129133333Y-126795238D01*
X129228571Y-126700000D01*
X129371429Y-126652381D01*
X129466667Y-126652381D01*
X129609524Y-126700000D01*
X129657143Y-126747619D01*
X130038095Y-126747619D02*
X130085714Y-126700000D01*
X130180952Y-126652381D01*
X130419048Y-126652381D01*
X130514286Y-126700000D01*
X130561905Y-126747619D01*
X130609524Y-126842857D01*
X130609524Y-126938095D01*
X130561905Y-127080952D01*
X129990476Y-127652381D01*
X130609524Y-127652381D01*
X130990476Y-126747619D02*
X131038095Y-126700000D01*
X131133333Y-126652381D01*
X131371429Y-126652381D01*
X131466667Y-126700000D01*
X131514286Y-126747619D01*
X131561905Y-126842857D01*
X131561905Y-126938095D01*
X131514286Y-127080952D01*
X130942857Y-127652381D01*
X131561905Y-127652381D01*
X162157143Y-128657143D02*
X162109524Y-128704762D01*
X161966667Y-128752381D01*
X161871429Y-128752381D01*
X161728571Y-128704762D01*
X161633333Y-128609524D01*
X161585714Y-128514286D01*
X161538095Y-128323810D01*
X161538095Y-128180952D01*
X161585714Y-127990476D01*
X161633333Y-127895238D01*
X161728571Y-127800000D01*
X161871429Y-127752381D01*
X161966667Y-127752381D01*
X162109524Y-127800000D01*
X162157143Y-127847619D01*
X162538095Y-127847619D02*
X162585714Y-127800000D01*
X162680952Y-127752381D01*
X162919048Y-127752381D01*
X163014286Y-127800000D01*
X163061905Y-127847619D01*
X163109524Y-127942857D01*
X163109524Y-128038095D01*
X163061905Y-128180952D01*
X162490476Y-128752381D01*
X163109524Y-128752381D01*
X163966667Y-128085714D02*
X163966667Y-128752381D01*
X163728571Y-127704762D02*
X163490476Y-128419048D01*
X164109524Y-128419048D01*
X162157143Y-132757143D02*
X162109524Y-132804762D01*
X161966667Y-132852381D01*
X161871429Y-132852381D01*
X161728571Y-132804762D01*
X161633333Y-132709524D01*
X161585714Y-132614286D01*
X161538095Y-132423810D01*
X161538095Y-132280952D01*
X161585714Y-132090476D01*
X161633333Y-131995238D01*
X161728571Y-131900000D01*
X161871429Y-131852381D01*
X161966667Y-131852381D01*
X162109524Y-131900000D01*
X162157143Y-131947619D01*
X162538095Y-131947619D02*
X162585714Y-131900000D01*
X162680952Y-131852381D01*
X162919048Y-131852381D01*
X163014286Y-131900000D01*
X163061905Y-131947619D01*
X163109524Y-132042857D01*
X163109524Y-132138095D01*
X163061905Y-132280952D01*
X162490476Y-132852381D01*
X163109524Y-132852381D01*
X163966667Y-131852381D02*
X163776190Y-131852381D01*
X163680952Y-131900000D01*
X163633333Y-131947619D01*
X163538095Y-132090476D01*
X163490476Y-132280952D01*
X163490476Y-132661905D01*
X163538095Y-132757143D01*
X163585714Y-132804762D01*
X163680952Y-132852381D01*
X163871429Y-132852381D01*
X163966667Y-132804762D01*
X164014286Y-132757143D01*
X164061905Y-132661905D01*
X164061905Y-132423810D01*
X164014286Y-132328571D01*
X163966667Y-132280952D01*
X163871429Y-132233333D01*
X163680952Y-132233333D01*
X163585714Y-132280952D01*
X163538095Y-132328571D01*
X163490476Y-132423810D01*
X162157143Y-136757143D02*
X162109524Y-136804762D01*
X161966667Y-136852381D01*
X161871429Y-136852381D01*
X161728571Y-136804762D01*
X161633333Y-136709524D01*
X161585714Y-136614286D01*
X161538095Y-136423810D01*
X161538095Y-136280952D01*
X161585714Y-136090476D01*
X161633333Y-135995238D01*
X161728571Y-135900000D01*
X161871429Y-135852381D01*
X161966667Y-135852381D01*
X162109524Y-135900000D01*
X162157143Y-135947619D01*
X162538095Y-135947619D02*
X162585714Y-135900000D01*
X162680952Y-135852381D01*
X162919048Y-135852381D01*
X163014286Y-135900000D01*
X163061905Y-135947619D01*
X163109524Y-136042857D01*
X163109524Y-136138095D01*
X163061905Y-136280952D01*
X162490476Y-136852381D01*
X163109524Y-136852381D01*
X163680952Y-136280952D02*
X163585714Y-136233333D01*
X163538095Y-136185714D01*
X163490476Y-136090476D01*
X163490476Y-136042857D01*
X163538095Y-135947619D01*
X163585714Y-135900000D01*
X163680952Y-135852381D01*
X163871429Y-135852381D01*
X163966667Y-135900000D01*
X164014286Y-135947619D01*
X164061905Y-136042857D01*
X164061905Y-136090476D01*
X164014286Y-136185714D01*
X163966667Y-136233333D01*
X163871429Y-136280952D01*
X163680952Y-136280952D01*
X163585714Y-136328571D01*
X163538095Y-136376190D01*
X163490476Y-136471429D01*
X163490476Y-136661905D01*
X163538095Y-136757143D01*
X163585714Y-136804762D01*
X163680952Y-136852381D01*
X163871429Y-136852381D01*
X163966667Y-136804762D01*
X164014286Y-136757143D01*
X164061905Y-136661905D01*
X164061905Y-136471429D01*
X164014286Y-136376190D01*
X163966667Y-136328571D01*
X163871429Y-136280952D01*
X153233334Y-64552381D02*
X152900000Y-64076190D01*
X152661905Y-64552381D02*
X152661905Y-63552381D01*
X153042858Y-63552381D01*
X153138096Y-63600000D01*
X153185715Y-63647619D01*
X153233334Y-63742857D01*
X153233334Y-63885714D01*
X153185715Y-63980952D01*
X153138096Y-64028571D01*
X153042858Y-64076190D01*
X152661905Y-64076190D01*
X153614286Y-63647619D02*
X153661905Y-63600000D01*
X153757143Y-63552381D01*
X153995239Y-63552381D01*
X154090477Y-63600000D01*
X154138096Y-63647619D01*
X154185715Y-63742857D01*
X154185715Y-63838095D01*
X154138096Y-63980952D01*
X153566667Y-64552381D01*
X154185715Y-64552381D01*
X158133334Y-71552381D02*
X157800000Y-71076190D01*
X157561905Y-71552381D02*
X157561905Y-70552381D01*
X157942858Y-70552381D01*
X158038096Y-70600000D01*
X158085715Y-70647619D01*
X158133334Y-70742857D01*
X158133334Y-70885714D01*
X158085715Y-70980952D01*
X158038096Y-71028571D01*
X157942858Y-71076190D01*
X157561905Y-71076190D01*
X158466667Y-70552381D02*
X159085715Y-70552381D01*
X158752381Y-70933333D01*
X158895239Y-70933333D01*
X158990477Y-70980952D01*
X159038096Y-71028571D01*
X159085715Y-71123810D01*
X159085715Y-71361905D01*
X159038096Y-71457143D01*
X158990477Y-71504762D01*
X158895239Y-71552381D01*
X158609524Y-71552381D01*
X158514286Y-71504762D01*
X158466667Y-71457143D01*
X158133334Y-75452381D02*
X157800000Y-74976190D01*
X157561905Y-75452381D02*
X157561905Y-74452381D01*
X157942858Y-74452381D01*
X158038096Y-74500000D01*
X158085715Y-74547619D01*
X158133334Y-74642857D01*
X158133334Y-74785714D01*
X158085715Y-74880952D01*
X158038096Y-74928571D01*
X157942858Y-74976190D01*
X157561905Y-74976190D01*
X158990477Y-74785714D02*
X158990477Y-75452381D01*
X158752381Y-74404762D02*
X158514286Y-75119048D01*
X159133334Y-75119048D01*
X133333334Y-72552381D02*
X133000000Y-72076190D01*
X132761905Y-72552381D02*
X132761905Y-71552381D01*
X133142858Y-71552381D01*
X133238096Y-71600000D01*
X133285715Y-71647619D01*
X133333334Y-71742857D01*
X133333334Y-71885714D01*
X133285715Y-71980952D01*
X133238096Y-72028571D01*
X133142858Y-72076190D01*
X132761905Y-72076190D01*
X134238096Y-71552381D02*
X133761905Y-71552381D01*
X133714286Y-72028571D01*
X133761905Y-71980952D01*
X133857143Y-71933333D01*
X134095239Y-71933333D01*
X134190477Y-71980952D01*
X134238096Y-72028571D01*
X134285715Y-72123810D01*
X134285715Y-72361905D01*
X134238096Y-72457143D01*
X134190477Y-72504762D01*
X134095239Y-72552381D01*
X133857143Y-72552381D01*
X133761905Y-72504762D01*
X133714286Y-72457143D01*
X133333334Y-68652381D02*
X133000000Y-68176190D01*
X132761905Y-68652381D02*
X132761905Y-67652381D01*
X133142858Y-67652381D01*
X133238096Y-67700000D01*
X133285715Y-67747619D01*
X133333334Y-67842857D01*
X133333334Y-67985714D01*
X133285715Y-68080952D01*
X133238096Y-68128571D01*
X133142858Y-68176190D01*
X132761905Y-68176190D01*
X134190477Y-67652381D02*
X134000000Y-67652381D01*
X133904762Y-67700000D01*
X133857143Y-67747619D01*
X133761905Y-67890476D01*
X133714286Y-68080952D01*
X133714286Y-68461905D01*
X133761905Y-68557143D01*
X133809524Y-68604762D01*
X133904762Y-68652381D01*
X134095239Y-68652381D01*
X134190477Y-68604762D01*
X134238096Y-68557143D01*
X134285715Y-68461905D01*
X134285715Y-68223810D01*
X134238096Y-68128571D01*
X134190477Y-68080952D01*
X134095239Y-68033333D01*
X133904762Y-68033333D01*
X133809524Y-68080952D01*
X133761905Y-68128571D01*
X133714286Y-68223810D01*
X133333334Y-64752381D02*
X133000000Y-64276190D01*
X132761905Y-64752381D02*
X132761905Y-63752381D01*
X133142858Y-63752381D01*
X133238096Y-63800000D01*
X133285715Y-63847619D01*
X133333334Y-63942857D01*
X133333334Y-64085714D01*
X133285715Y-64180952D01*
X133238096Y-64228571D01*
X133142858Y-64276190D01*
X132761905Y-64276190D01*
X133666667Y-63752381D02*
X134333334Y-63752381D01*
X133904762Y-64752381D01*
X177733334Y-80452381D02*
X177400000Y-79976190D01*
X177161905Y-80452381D02*
X177161905Y-79452381D01*
X177542858Y-79452381D01*
X177638096Y-79500000D01*
X177685715Y-79547619D01*
X177733334Y-79642857D01*
X177733334Y-79785714D01*
X177685715Y-79880952D01*
X177638096Y-79928571D01*
X177542858Y-79976190D01*
X177161905Y-79976190D01*
X178685715Y-80452381D02*
X178114286Y-80452381D01*
X178400000Y-80452381D02*
X178400000Y-79452381D01*
X178304762Y-79595238D01*
X178209524Y-79690476D01*
X178114286Y-79738095D01*
X172152381Y-90038095D02*
X171152381Y-90038095D01*
X171152381Y-89657142D01*
X171200000Y-89561904D01*
X171247619Y-89514285D01*
X171342857Y-89466666D01*
X171485714Y-89466666D01*
X171580952Y-89514285D01*
X171628571Y-89561904D01*
X171676190Y-89657142D01*
X171676190Y-90038095D01*
X171152381Y-89133333D02*
X171152381Y-88514285D01*
X171533333Y-88847619D01*
X171533333Y-88704761D01*
X171580952Y-88609523D01*
X171628571Y-88561904D01*
X171723810Y-88514285D01*
X171961905Y-88514285D01*
X172057143Y-88561904D01*
X172104762Y-88609523D01*
X172152381Y-88704761D01*
X172152381Y-88990476D01*
X172104762Y-89085714D01*
X172057143Y-89133333D01*
X178557143Y-102847619D02*
X178604762Y-102895238D01*
X178652381Y-103038095D01*
X178652381Y-103133333D01*
X178604762Y-103276191D01*
X178509524Y-103371429D01*
X178414286Y-103419048D01*
X178223810Y-103466667D01*
X178080952Y-103466667D01*
X177890476Y-103419048D01*
X177795238Y-103371429D01*
X177700000Y-103276191D01*
X177652381Y-103133333D01*
X177652381Y-103038095D01*
X177700000Y-102895238D01*
X177747619Y-102847619D01*
X177652381Y-102228572D02*
X177652381Y-102038095D01*
X177700000Y-101942857D01*
X177795238Y-101847619D01*
X177985714Y-101800000D01*
X178319048Y-101800000D01*
X178509524Y-101847619D01*
X178604762Y-101942857D01*
X178652381Y-102038095D01*
X178652381Y-102228572D01*
X178604762Y-102323810D01*
X178509524Y-102419048D01*
X178319048Y-102466667D01*
X177985714Y-102466667D01*
X177795238Y-102419048D01*
X177700000Y-102323810D01*
X177652381Y-102228572D01*
X178652381Y-101371429D02*
X177652381Y-101371429D01*
X178652381Y-100800000D01*
X177652381Y-100800000D01*
X177652381Y-100466667D02*
X177652381Y-99895238D01*
X178652381Y-100180953D02*
X177652381Y-100180953D01*
X178652381Y-98990476D02*
X178176190Y-99323810D01*
X178652381Y-99561905D02*
X177652381Y-99561905D01*
X177652381Y-99180952D01*
X177700000Y-99085714D01*
X177747619Y-99038095D01*
X177842857Y-98990476D01*
X177985714Y-98990476D01*
X178080952Y-99038095D01*
X178128571Y-99085714D01*
X178176190Y-99180952D01*
X178176190Y-99561905D01*
X177652381Y-98371429D02*
X177652381Y-98180952D01*
X177700000Y-98085714D01*
X177795238Y-97990476D01*
X177985714Y-97942857D01*
X178319048Y-97942857D01*
X178509524Y-97990476D01*
X178604762Y-98085714D01*
X178652381Y-98180952D01*
X178652381Y-98371429D01*
X178604762Y-98466667D01*
X178509524Y-98561905D01*
X178319048Y-98609524D01*
X177985714Y-98609524D01*
X177795238Y-98561905D01*
X177700000Y-98466667D01*
X177652381Y-98371429D01*
X178652381Y-97038095D02*
X178652381Y-97514286D01*
X177652381Y-97514286D01*
X165257143Y-99866666D02*
X165304762Y-99914285D01*
X165352381Y-100057142D01*
X165352381Y-100152380D01*
X165304762Y-100295238D01*
X165209524Y-100390476D01*
X165114286Y-100438095D01*
X164923810Y-100485714D01*
X164780952Y-100485714D01*
X164590476Y-100438095D01*
X164495238Y-100390476D01*
X164400000Y-100295238D01*
X164352381Y-100152380D01*
X164352381Y-100057142D01*
X164400000Y-99914285D01*
X164447619Y-99866666D01*
X164685714Y-99009523D02*
X165352381Y-99009523D01*
X164304762Y-99247619D02*
X165019048Y-99485714D01*
X165019048Y-98866666D01*
X115757143Y-99566666D02*
X115804762Y-99614285D01*
X115852381Y-99757142D01*
X115852381Y-99852380D01*
X115804762Y-99995238D01*
X115709524Y-100090476D01*
X115614286Y-100138095D01*
X115423810Y-100185714D01*
X115280952Y-100185714D01*
X115090476Y-100138095D01*
X114995238Y-100090476D01*
X114900000Y-99995238D01*
X114852381Y-99852380D01*
X114852381Y-99757142D01*
X114900000Y-99614285D01*
X114947619Y-99566666D01*
X114852381Y-99233333D02*
X114852381Y-98614285D01*
X115233333Y-98947619D01*
X115233333Y-98804761D01*
X115280952Y-98709523D01*
X115328571Y-98661904D01*
X115423810Y-98614285D01*
X115661905Y-98614285D01*
X115757143Y-98661904D01*
X115804762Y-98709523D01*
X115852381Y-98804761D01*
X115852381Y-99090476D01*
X115804762Y-99185714D01*
X115757143Y-99233333D01*
X150638095Y-81052381D02*
X150638095Y-81861905D01*
X150685714Y-81957143D01*
X150733333Y-82004762D01*
X150828571Y-82052381D01*
X151019048Y-82052381D01*
X151114286Y-82004762D01*
X151161905Y-81957143D01*
X151209524Y-81861905D01*
X151209524Y-81052381D01*
X152209524Y-82052381D02*
X151638095Y-82052381D01*
X151923809Y-82052381D02*
X151923809Y-81052381D01*
X151828571Y-81195238D01*
X151733333Y-81290476D01*
X151638095Y-81338095D01*
X114838095Y-78652381D02*
X114838095Y-79461905D01*
X114885714Y-79557143D01*
X114933333Y-79604762D01*
X115028571Y-79652381D01*
X115219048Y-79652381D01*
X115314286Y-79604762D01*
X115361905Y-79557143D01*
X115409524Y-79461905D01*
X115409524Y-78652381D01*
X115838095Y-78747619D02*
X115885714Y-78700000D01*
X115980952Y-78652381D01*
X116219048Y-78652381D01*
X116314286Y-78700000D01*
X116361905Y-78747619D01*
X116409524Y-78842857D01*
X116409524Y-78938095D01*
X116361905Y-79080952D01*
X115790476Y-79652381D01*
X116409524Y-79652381D01*
X124738095Y-120252381D02*
X124738095Y-121061905D01*
X124785714Y-121157143D01*
X124833333Y-121204762D01*
X124928571Y-121252381D01*
X125119048Y-121252381D01*
X125214286Y-121204762D01*
X125261905Y-121157143D01*
X125309524Y-121061905D01*
X125309524Y-120252381D01*
X125690476Y-120252381D02*
X126309524Y-120252381D01*
X125976190Y-120633333D01*
X126119048Y-120633333D01*
X126214286Y-120680952D01*
X126261905Y-120728571D01*
X126309524Y-120823810D01*
X126309524Y-121061905D01*
X126261905Y-121157143D01*
X126214286Y-121204762D01*
X126119048Y-121252381D01*
X125833333Y-121252381D01*
X125738095Y-121204762D01*
X125690476Y-121157143D01*
X111661905Y-100552381D02*
X111661905Y-99552381D01*
X112042858Y-99552381D01*
X112138096Y-99600000D01*
X112185715Y-99647619D01*
X112233334Y-99742857D01*
X112233334Y-99885714D01*
X112185715Y-99980952D01*
X112138096Y-100028571D01*
X112042858Y-100076190D01*
X111661905Y-100076190D01*
X113185715Y-100552381D02*
X112614286Y-100552381D01*
X112900000Y-100552381D02*
X112900000Y-99552381D01*
X112804762Y-99695238D01*
X112709524Y-99790476D01*
X112614286Y-99838095D01*
X111161905Y-84352381D02*
X111161905Y-83352381D01*
X111542858Y-83352381D01*
X111638096Y-83400000D01*
X111685715Y-83447619D01*
X111733334Y-83542857D01*
X111733334Y-83685714D01*
X111685715Y-83780952D01*
X111638096Y-83828571D01*
X111542858Y-83876190D01*
X111161905Y-83876190D01*
X112114286Y-83447619D02*
X112161905Y-83400000D01*
X112257143Y-83352381D01*
X112495239Y-83352381D01*
X112590477Y-83400000D01*
X112638096Y-83447619D01*
X112685715Y-83542857D01*
X112685715Y-83638095D01*
X112638096Y-83780952D01*
X112066667Y-84352381D01*
X112685715Y-84352381D01*
X107261905Y-77652381D02*
X107261905Y-76652381D01*
X107642858Y-76652381D01*
X107738096Y-76700000D01*
X107785715Y-76747619D01*
X107833334Y-76842857D01*
X107833334Y-76985714D01*
X107785715Y-77080952D01*
X107738096Y-77128571D01*
X107642858Y-77176190D01*
X107261905Y-77176190D01*
X108690477Y-76985714D02*
X108690477Y-77652381D01*
X108452381Y-76604762D02*
X108214286Y-77319048D01*
X108833334Y-77319048D01*
X107361905Y-123652381D02*
X107361905Y-122652381D01*
X107742858Y-122652381D01*
X107838096Y-122700000D01*
X107885715Y-122747619D01*
X107933334Y-122842857D01*
X107933334Y-122985714D01*
X107885715Y-123080952D01*
X107838096Y-123128571D01*
X107742858Y-123176190D01*
X107361905Y-123176190D01*
X108838096Y-122652381D02*
X108361905Y-122652381D01*
X108314286Y-123128571D01*
X108361905Y-123080952D01*
X108457143Y-123033333D01*
X108695239Y-123033333D01*
X108790477Y-123080952D01*
X108838096Y-123128571D01*
X108885715Y-123223810D01*
X108885715Y-123461905D01*
X108838096Y-123557143D01*
X108790477Y-123604762D01*
X108695239Y-123652381D01*
X108457143Y-123652381D01*
X108361905Y-123604762D01*
X108314286Y-123557143D01*
%LPC*%
D14*
X164900000Y-118400000D03*
D15*
X154740000Y-118400000D03*
X152200000Y-118400000D03*
X149660000Y-118400000D03*
X147120000Y-118400000D03*
X144580000Y-118400000D03*
D16*
X159470000Y-77600000D03*
X154020000Y-77600000D03*
X164920000Y-77600000D03*
X120530000Y-77600000D03*
X115080000Y-77600000D03*
X125980000Y-77600000D03*
X120530000Y-122400000D03*
X125980000Y-122400000D03*
X115080000Y-122400000D03*
X159470000Y-122400000D03*
X164920000Y-122400000D03*
X154020000Y-122400000D03*
D17*
X133800000Y-110400000D03*
X133800000Y-102900000D03*
D18*
X174700000Y-78450000D03*
X174700000Y-76950000D03*
X175100000Y-122850000D03*
X175100000Y-121350000D03*
D19*
X173000000Y-78350000D03*
X173000000Y-76850000D03*
X173400000Y-122900000D03*
X173400000Y-121400000D03*
D20*
X105000000Y-55000000D03*
X105000000Y-145000000D03*
X175000000Y-55000000D03*
X175000000Y-145000000D03*
D21*
X169500000Y-77670000D03*
X169500000Y-78940000D03*
X169500000Y-76400000D03*
X169500000Y-122330000D03*
X169500000Y-123600000D03*
X169500000Y-121060000D03*
D17*
X146100000Y-90600000D03*
X146100000Y-98100000D03*
D22*
X118400000Y-137200000D03*
X116400000Y-137200000D03*
X159564400Y-126384360D03*
X157564400Y-126384360D03*
X118400000Y-133200000D03*
X116400000Y-133200000D03*
X159564400Y-130384360D03*
X157564400Y-130384360D03*
X118400000Y-129200000D03*
X116400000Y-129200000D03*
X159564400Y-134384360D03*
X157564400Y-134384360D03*
D23*
X120400000Y-81800000D03*
X120400000Y-89000000D03*
X159500000Y-118200000D03*
X159500000Y-111000000D03*
D24*
X120000000Y-136100000D03*
X126200000Y-136100000D03*
X155964400Y-127484360D03*
X149764400Y-127484360D03*
X120000000Y-132200000D03*
X126200000Y-132200000D03*
X155964400Y-131384360D03*
X149764400Y-131384360D03*
X120000000Y-128300000D03*
X126200000Y-128300000D03*
X155964400Y-135284360D03*
X149764400Y-135284360D03*
D22*
X163000000Y-73000000D03*
X165000000Y-73000000D03*
X163000000Y-71000000D03*
X165000000Y-71000000D03*
X163000000Y-69000000D03*
X165000000Y-69000000D03*
X163000000Y-67000000D03*
X165000000Y-67000000D03*
X163000000Y-65000000D03*
X165000000Y-65000000D03*
X163000000Y-63000000D03*
X165000000Y-63000000D03*
X120300000Y-73200000D03*
X122300000Y-73200000D03*
X120300000Y-71200000D03*
X122300000Y-71200000D03*
X120300000Y-69200000D03*
X122300000Y-69200000D03*
X120300000Y-67200000D03*
X122300000Y-67200000D03*
X120300000Y-65200000D03*
X122300000Y-65200000D03*
X120300000Y-63200000D03*
X122300000Y-63200000D03*
X118400000Y-135200000D03*
X116400000Y-135200000D03*
X118400000Y-131200000D03*
X116400000Y-131200000D03*
X118400000Y-127200000D03*
X116400000Y-127200000D03*
X159564400Y-128384360D03*
X157564400Y-128384360D03*
X159564400Y-132384360D03*
X157564400Y-132384360D03*
X159564400Y-136384360D03*
X157564400Y-136384360D03*
D24*
X161400000Y-64100000D03*
X155200000Y-64100000D03*
X161400000Y-68000000D03*
X155200000Y-68000000D03*
X161400000Y-71900000D03*
X155200000Y-71900000D03*
X123900000Y-72100000D03*
X130100000Y-72100000D03*
X123900000Y-68200000D03*
X130100000Y-68200000D03*
X123900000Y-64300000D03*
X130100000Y-64300000D03*
D25*
X177150000Y-81600000D03*
X178650000Y-81600000D03*
D14*
X173180000Y-92250000D03*
D15*
X175720000Y-92250000D03*
X173180000Y-94790000D03*
X175720000Y-94790000D03*
X173180000Y-97330000D03*
X175720000Y-97330000D03*
X173180000Y-99870000D03*
X175720000Y-99870000D03*
X173180000Y-102410000D03*
X175720000Y-102410000D03*
X173180000Y-104950000D03*
X175720000Y-104950000D03*
X173180000Y-107490000D03*
X175720000Y-107490000D03*
X173180000Y-110030000D03*
X175720000Y-110030000D03*
D26*
X159500000Y-92500000D03*
D27*
X159500000Y-107500000D03*
D26*
X120500000Y-107400000D03*
D27*
X120500000Y-92400000D03*
D14*
X154000000Y-81600000D03*
D15*
X164160000Y-81600000D03*
X166700000Y-81600000D03*
X169240000Y-81600000D03*
X171780000Y-81600000D03*
X174320000Y-81600000D03*
D14*
X115100000Y-81600000D03*
D15*
X125260000Y-81600000D03*
X127800000Y-81600000D03*
X130340000Y-81600000D03*
X132880000Y-81600000D03*
X135420000Y-81600000D03*
D14*
X126000000Y-118400000D03*
D15*
X115840000Y-118400000D03*
X113300000Y-118400000D03*
X110760000Y-118400000D03*
X108220000Y-118400000D03*
X105680000Y-118400000D03*
D28*
X108000000Y-108000000D03*
X108000000Y-92000000D03*
X108000000Y-68000000D03*
X108000000Y-132000000D03*
D29*
G36*
X107873000Y-75373000D02*
X100127000Y-75373000D01*
X100127000Y-60627000D01*
X107873000Y-60627000D01*
X107873000Y-75373000D01*
X107873000Y-75373000D01*
G37*
X107873000Y-75373000D02*
X100127000Y-75373000D01*
X100127000Y-60627000D01*
X107873000Y-60627000D01*
X107873000Y-75373000D01*
G36*
X107873000Y-99373000D02*
X100127000Y-99373000D01*
X100127000Y-84627000D01*
X107873000Y-84627000D01*
X107873000Y-99373000D01*
X107873000Y-99373000D01*
G37*
X107873000Y-99373000D02*
X100127000Y-99373000D01*
X100127000Y-84627000D01*
X107873000Y-84627000D01*
X107873000Y-99373000D01*
G36*
X107873000Y-115373000D02*
X100127000Y-115373000D01*
X100127000Y-100627000D01*
X107873000Y-100627000D01*
X107873000Y-115373000D01*
X107873000Y-115373000D01*
G37*
X107873000Y-115373000D02*
X100127000Y-115373000D01*
X100127000Y-100627000D01*
X107873000Y-100627000D01*
X107873000Y-115373000D01*
G36*
X107873000Y-139373000D02*
X100127000Y-139373000D01*
X100127000Y-124627000D01*
X107873000Y-124627000D01*
X107873000Y-139373000D01*
X107873000Y-139373000D01*
G37*
X107873000Y-139373000D02*
X100127000Y-139373000D01*
X100127000Y-124627000D01*
X107873000Y-124627000D01*
X107873000Y-139373000D01*
M02*
