G04 #@! TF.FileFunction,Soldermask,Bot*
%FSLAX46Y46*%
G04 Gerber Fmt 4.6, Leading zero omitted, Abs format (unit mm)*
G04 Created by KiCad (PCBNEW 4.0.1-stable) date 30.08.2016 22:59:35*
%MOMM*%
G01*
G04 APERTURE LIST*
%ADD10C,0.100000*%
G04 APERTURE END LIST*
D10*
G36*
X105381272Y-141372414D02*
X106078616Y-141515558D01*
X106734872Y-141791423D01*
X107325049Y-142189502D01*
X107826661Y-142694629D01*
X108220612Y-143287572D01*
X108491887Y-143945734D01*
X108630054Y-144643532D01*
X108630054Y-144643544D01*
X108630156Y-144644060D01*
X108618802Y-145457161D01*
X108618686Y-145457670D01*
X108618686Y-145457690D01*
X108461089Y-146151351D01*
X108171542Y-146801687D01*
X107761192Y-147383394D01*
X107245667Y-147874322D01*
X106644606Y-148255767D01*
X105980901Y-148513201D01*
X105279838Y-148636818D01*
X104568113Y-148621909D01*
X103872843Y-148469044D01*
X103220499Y-148184042D01*
X102635939Y-147777763D01*
X102141423Y-147265677D01*
X101755794Y-146667296D01*
X101493733Y-146005405D01*
X101365225Y-145305223D01*
X101375165Y-144593408D01*
X101523173Y-143897083D01*
X101803610Y-143242775D01*
X102205804Y-142655386D01*
X102714422Y-142157311D01*
X103310096Y-141767512D01*
X103970140Y-141500837D01*
X104669410Y-141367444D01*
X105381272Y-141372414D01*
X105381272Y-141372414D01*
G37*
G36*
X175381272Y-141372414D02*
X176078616Y-141515558D01*
X176734872Y-141791423D01*
X177325049Y-142189502D01*
X177826661Y-142694629D01*
X178220612Y-143287572D01*
X178491887Y-143945734D01*
X178630054Y-144643532D01*
X178630054Y-144643544D01*
X178630156Y-144644060D01*
X178618802Y-145457161D01*
X178618686Y-145457670D01*
X178618686Y-145457690D01*
X178461089Y-146151351D01*
X178171542Y-146801687D01*
X177761192Y-147383394D01*
X177245667Y-147874322D01*
X176644606Y-148255767D01*
X175980901Y-148513201D01*
X175279838Y-148636818D01*
X174568113Y-148621909D01*
X173872843Y-148469044D01*
X173220499Y-148184042D01*
X172635939Y-147777763D01*
X172141423Y-147265677D01*
X171755794Y-146667296D01*
X171493733Y-146005405D01*
X171365225Y-145305223D01*
X171375165Y-144593408D01*
X171523173Y-143897083D01*
X171803610Y-143242775D01*
X172205804Y-142655386D01*
X172714422Y-142157311D01*
X173310096Y-141767512D01*
X173970140Y-141500837D01*
X174669410Y-141367444D01*
X175381272Y-141372414D01*
X175381272Y-141372414D01*
G37*
G36*
X108801409Y-124375079D02*
X110267171Y-124675956D01*
X111646572Y-125255803D01*
X112887083Y-126092539D01*
X113941438Y-127154279D01*
X114769491Y-128400600D01*
X115339693Y-129784013D01*
X115630225Y-131251312D01*
X115630225Y-131251324D01*
X115630327Y-131251840D01*
X115606462Y-132960920D01*
X115606346Y-132961429D01*
X115606346Y-132961448D01*
X115274958Y-134420056D01*
X114666350Y-135787014D01*
X113803823Y-137009723D01*
X112720229Y-138041616D01*
X111456842Y-138843386D01*
X110061785Y-139384493D01*
X108588199Y-139644326D01*
X107092205Y-139612989D01*
X106586387Y-139501778D01*
X106570024Y-139500000D01*
X100000000Y-139500000D01*
X100000000Y-124500000D01*
X106588303Y-124500000D01*
X106602581Y-124498650D01*
X107305126Y-124364632D01*
X108801409Y-124375079D01*
X108801409Y-124375079D01*
G37*
G36*
X165930000Y-119430000D02*
X165434736Y-119430000D01*
X165413507Y-119433017D01*
X165393959Y-119441828D01*
X165377640Y-119455737D01*
X165365842Y-119473641D01*
X165359499Y-119494124D01*
X165359113Y-119515562D01*
X165364716Y-119536260D01*
X165375862Y-119554577D01*
X165391671Y-119569063D01*
X165412137Y-119578960D01*
X165648553Y-119652143D01*
X165971316Y-119826661D01*
X166254036Y-120060546D01*
X166485942Y-120344892D01*
X166658202Y-120668866D01*
X166764255Y-121020129D01*
X166800060Y-121385301D01*
X166800060Y-123414821D01*
X166799899Y-123437856D01*
X166799877Y-123440949D01*
X166758976Y-123805585D01*
X166648030Y-124155333D01*
X166471263Y-124476871D01*
X166235409Y-124757951D01*
X165949452Y-124987866D01*
X165624283Y-125157860D01*
X165272288Y-125261458D01*
X165272234Y-125261463D01*
X165272217Y-125261468D01*
X164906882Y-125294716D01*
X164542032Y-125256370D01*
X164542015Y-125256365D01*
X164541961Y-125256359D01*
X164191447Y-125147857D01*
X163868684Y-124973339D01*
X163585964Y-124739454D01*
X163354058Y-124455108D01*
X163181798Y-124131134D01*
X163075745Y-123779871D01*
X163039940Y-123414699D01*
X163039940Y-121385179D01*
X163040101Y-121362144D01*
X163040101Y-121362140D01*
X163040123Y-121359051D01*
X163081024Y-120994415D01*
X163191970Y-120644667D01*
X163368737Y-120323129D01*
X163604591Y-120042049D01*
X163890548Y-119812134D01*
X164215717Y-119642140D01*
X164429326Y-119579271D01*
X164448777Y-119570412D01*
X164465041Y-119556440D01*
X164476770Y-119538489D01*
X164483033Y-119517982D01*
X164483335Y-119496542D01*
X164477651Y-119475867D01*
X164466433Y-119457594D01*
X164450569Y-119443169D01*
X164431313Y-119433735D01*
X164407749Y-119430000D01*
X163870000Y-119430000D01*
X163870000Y-117370000D01*
X165930000Y-117370000D01*
X165930000Y-119430000D01*
X165930000Y-119430000D01*
G37*
G36*
X115457968Y-119543630D02*
X115457985Y-119543635D01*
X115458039Y-119543641D01*
X115808553Y-119652143D01*
X116131316Y-119826661D01*
X116414036Y-120060546D01*
X116645942Y-120344892D01*
X116818202Y-120668866D01*
X116924255Y-121020129D01*
X116960060Y-121385301D01*
X116960060Y-123414821D01*
X116959899Y-123437856D01*
X116959877Y-123440949D01*
X116918976Y-123805585D01*
X116808030Y-124155333D01*
X116631263Y-124476871D01*
X116395409Y-124757951D01*
X116109452Y-124987866D01*
X115784283Y-125157860D01*
X115432288Y-125261458D01*
X115432234Y-125261463D01*
X115432217Y-125261468D01*
X115066882Y-125294716D01*
X114702032Y-125256370D01*
X114702015Y-125256365D01*
X114701961Y-125256359D01*
X114351447Y-125147857D01*
X114028684Y-124973339D01*
X113745964Y-124739454D01*
X113514058Y-124455108D01*
X113341798Y-124131134D01*
X113235745Y-123779871D01*
X113199940Y-123414699D01*
X113199940Y-121385179D01*
X113200101Y-121362144D01*
X113200101Y-121362140D01*
X113200123Y-121359051D01*
X113241024Y-120994415D01*
X113351970Y-120644667D01*
X113528737Y-120323129D01*
X113764591Y-120042049D01*
X114050548Y-119812134D01*
X114375717Y-119642140D01*
X114727712Y-119538542D01*
X114727766Y-119538537D01*
X114727783Y-119538532D01*
X115093118Y-119505284D01*
X115457968Y-119543630D01*
X115457968Y-119543630D01*
G37*
G36*
X122430000Y-119430000D02*
X121044736Y-119430000D01*
X121023507Y-119433017D01*
X121003959Y-119441828D01*
X120987640Y-119455737D01*
X120975842Y-119473641D01*
X120969499Y-119494124D01*
X120969113Y-119515562D01*
X120974716Y-119536260D01*
X120985862Y-119554577D01*
X121001671Y-119569063D01*
X121022137Y-119578960D01*
X121258553Y-119652143D01*
X121581316Y-119826661D01*
X121864036Y-120060546D01*
X122095942Y-120344892D01*
X122268202Y-120668866D01*
X122374255Y-121020129D01*
X122410060Y-121385301D01*
X122410060Y-123414821D01*
X122409899Y-123437856D01*
X122409877Y-123440949D01*
X122368976Y-123805585D01*
X122258030Y-124155333D01*
X122081263Y-124476871D01*
X121845409Y-124757951D01*
X121559452Y-124987866D01*
X121234283Y-125157860D01*
X120882288Y-125261458D01*
X120882234Y-125261463D01*
X120882217Y-125261468D01*
X120516882Y-125294716D01*
X120152032Y-125256370D01*
X120152015Y-125256365D01*
X120151961Y-125256359D01*
X119801447Y-125147857D01*
X119478684Y-124973339D01*
X119195964Y-124739454D01*
X118964058Y-124455108D01*
X118791798Y-124131134D01*
X118685745Y-123779871D01*
X118649940Y-123414699D01*
X118649940Y-121385179D01*
X118650101Y-121362144D01*
X118650101Y-121362140D01*
X118650123Y-121359051D01*
X118691024Y-120994415D01*
X118801970Y-120644667D01*
X118978737Y-120323129D01*
X119214591Y-120042049D01*
X119500548Y-119812134D01*
X119825717Y-119642140D01*
X120039326Y-119579271D01*
X120058777Y-119570412D01*
X120075041Y-119556440D01*
X120086770Y-119538489D01*
X120093033Y-119517982D01*
X120093335Y-119496542D01*
X120087651Y-119475867D01*
X120076433Y-119457594D01*
X120060569Y-119443169D01*
X120041313Y-119433735D01*
X120017749Y-119430000D01*
X118970000Y-119430000D01*
X118970000Y-116570000D01*
X122430000Y-116570000D01*
X122430000Y-119430000D01*
X122430000Y-119430000D01*
G37*
G36*
X127030000Y-119430000D02*
X126494736Y-119430000D01*
X126473507Y-119433017D01*
X126453959Y-119441828D01*
X126437640Y-119455737D01*
X126425842Y-119473641D01*
X126419499Y-119494124D01*
X126419113Y-119515562D01*
X126424716Y-119536260D01*
X126435862Y-119554577D01*
X126451671Y-119569063D01*
X126472137Y-119578960D01*
X126708553Y-119652143D01*
X127031316Y-119826661D01*
X127314036Y-120060546D01*
X127545942Y-120344892D01*
X127718202Y-120668866D01*
X127824255Y-121020129D01*
X127860060Y-121385301D01*
X127860060Y-123414821D01*
X127859899Y-123437856D01*
X127859877Y-123440949D01*
X127818976Y-123805585D01*
X127708030Y-124155333D01*
X127531263Y-124476871D01*
X127295409Y-124757951D01*
X127009452Y-124987866D01*
X126684283Y-125157860D01*
X126332288Y-125261458D01*
X126332234Y-125261463D01*
X126332217Y-125261468D01*
X125966882Y-125294716D01*
X125602032Y-125256370D01*
X125602015Y-125256365D01*
X125601961Y-125256359D01*
X125251447Y-125147857D01*
X124928684Y-124973339D01*
X124645964Y-124739454D01*
X124414058Y-124455108D01*
X124241798Y-124131134D01*
X124135745Y-123779871D01*
X124099940Y-123414699D01*
X124099940Y-121385179D01*
X124100101Y-121362144D01*
X124100101Y-121362140D01*
X124100123Y-121359051D01*
X124141024Y-120994415D01*
X124251970Y-120644667D01*
X124428737Y-120323129D01*
X124664591Y-120042049D01*
X124950548Y-119812134D01*
X125275717Y-119642140D01*
X125489326Y-119579271D01*
X125508777Y-119570412D01*
X125525041Y-119556440D01*
X125536770Y-119538489D01*
X125543033Y-119517982D01*
X125543335Y-119496542D01*
X125537651Y-119475867D01*
X125526433Y-119457594D01*
X125510569Y-119443169D01*
X125491313Y-119433735D01*
X125467749Y-119430000D01*
X124970000Y-119430000D01*
X124970000Y-117370000D01*
X127030000Y-117370000D01*
X127030000Y-119430000D01*
X127030000Y-119430000D01*
G37*
G36*
X154397968Y-119543630D02*
X154397985Y-119543635D01*
X154398039Y-119543641D01*
X154748553Y-119652143D01*
X155071316Y-119826661D01*
X155354036Y-120060546D01*
X155585942Y-120344892D01*
X155758202Y-120668866D01*
X155864255Y-121020129D01*
X155900060Y-121385301D01*
X155900060Y-123414821D01*
X155899899Y-123437856D01*
X155899877Y-123440949D01*
X155858976Y-123805585D01*
X155748030Y-124155333D01*
X155571263Y-124476871D01*
X155335409Y-124757951D01*
X155049452Y-124987866D01*
X154724283Y-125157860D01*
X154372288Y-125261458D01*
X154372234Y-125261463D01*
X154372217Y-125261468D01*
X154006882Y-125294716D01*
X153642032Y-125256370D01*
X153642015Y-125256365D01*
X153641961Y-125256359D01*
X153291447Y-125147857D01*
X152968684Y-124973339D01*
X152685964Y-124739454D01*
X152454058Y-124455108D01*
X152281798Y-124131134D01*
X152175745Y-123779871D01*
X152139940Y-123414699D01*
X152139940Y-121385179D01*
X152140101Y-121362144D01*
X152140101Y-121362140D01*
X152140123Y-121359051D01*
X152181024Y-120994415D01*
X152291970Y-120644667D01*
X152468737Y-120323129D01*
X152704591Y-120042049D01*
X152990548Y-119812134D01*
X153315717Y-119642140D01*
X153667712Y-119538542D01*
X153667766Y-119538537D01*
X153667783Y-119538532D01*
X154033118Y-119505284D01*
X154397968Y-119543630D01*
X154397968Y-119543630D01*
G37*
G36*
X159847968Y-119543630D02*
X159847985Y-119543635D01*
X159848039Y-119543641D01*
X160198553Y-119652143D01*
X160521316Y-119826661D01*
X160804036Y-120060546D01*
X161035942Y-120344892D01*
X161208202Y-120668866D01*
X161314255Y-121020129D01*
X161350060Y-121385301D01*
X161350060Y-123414821D01*
X161349899Y-123437856D01*
X161349877Y-123440949D01*
X161308976Y-123805585D01*
X161198030Y-124155333D01*
X161021263Y-124476871D01*
X160785409Y-124757951D01*
X160499452Y-124987866D01*
X160174283Y-125157860D01*
X159822288Y-125261458D01*
X159822234Y-125261463D01*
X159822217Y-125261468D01*
X159456882Y-125294716D01*
X159092032Y-125256370D01*
X159092015Y-125256365D01*
X159091961Y-125256359D01*
X158741447Y-125147857D01*
X158418684Y-124973339D01*
X158135964Y-124739454D01*
X157904058Y-124455108D01*
X157731798Y-124131134D01*
X157625745Y-123779871D01*
X157589940Y-123414699D01*
X157589940Y-121385179D01*
X157590101Y-121362144D01*
X157590101Y-121362140D01*
X157590123Y-121359051D01*
X157631024Y-120994415D01*
X157741970Y-120644667D01*
X157918737Y-120323129D01*
X158154591Y-120042049D01*
X158440548Y-119812134D01*
X158765717Y-119642140D01*
X159117712Y-119538542D01*
X159117766Y-119538537D01*
X159117783Y-119538532D01*
X159483118Y-119505284D01*
X159847968Y-119543630D01*
X159847968Y-119543630D01*
G37*
G36*
X169810249Y-120480454D02*
X169810255Y-120480455D01*
X169813343Y-120480476D01*
X169925752Y-120493085D01*
X170033572Y-120527288D01*
X170132695Y-120581781D01*
X170219345Y-120654489D01*
X170290223Y-120742643D01*
X170342628Y-120842886D01*
X170374565Y-120951398D01*
X170374570Y-120951457D01*
X170374574Y-120951469D01*
X170384819Y-121064039D01*
X170373003Y-121176470D01*
X170372999Y-121176482D01*
X170372993Y-121176541D01*
X170339544Y-121284596D01*
X170285745Y-121384097D01*
X170213643Y-121471253D01*
X170125986Y-121542744D01*
X170026112Y-121595848D01*
X169937714Y-121622537D01*
X169919923Y-121630791D01*
X169903756Y-121644876D01*
X169892154Y-121662908D01*
X169886034Y-121683458D01*
X169885882Y-121704900D01*
X169891709Y-121725535D01*
X169903054Y-121743730D01*
X169919019Y-121758043D01*
X169936744Y-121766572D01*
X170033572Y-121797288D01*
X170132695Y-121851781D01*
X170219345Y-121924489D01*
X170290223Y-122012643D01*
X170342628Y-122112886D01*
X170374565Y-122221398D01*
X170374570Y-122221457D01*
X170374574Y-122221469D01*
X170384819Y-122334039D01*
X170373003Y-122446470D01*
X170372999Y-122446482D01*
X170372993Y-122446541D01*
X170339544Y-122554596D01*
X170285745Y-122654097D01*
X170213643Y-122741253D01*
X170125986Y-122812744D01*
X170026112Y-122865848D01*
X169937714Y-122892537D01*
X169919923Y-122900791D01*
X169903756Y-122914876D01*
X169892154Y-122932908D01*
X169886034Y-122953458D01*
X169885882Y-122974900D01*
X169891709Y-122995535D01*
X169903054Y-123013730D01*
X169919019Y-123028043D01*
X169936744Y-123036572D01*
X170033572Y-123067288D01*
X170132695Y-123121781D01*
X170219345Y-123194489D01*
X170290223Y-123282643D01*
X170342628Y-123382886D01*
X170374565Y-123491398D01*
X170374570Y-123491457D01*
X170374574Y-123491469D01*
X170384819Y-123604039D01*
X170373003Y-123716470D01*
X170372999Y-123716482D01*
X170372993Y-123716541D01*
X170339544Y-123824596D01*
X170285745Y-123924097D01*
X170213643Y-124011253D01*
X170125986Y-124082744D01*
X170026112Y-124135848D01*
X169917825Y-124168542D01*
X169805251Y-124179580D01*
X169194628Y-124179580D01*
X169189751Y-124179546D01*
X169189745Y-124179545D01*
X169186657Y-124179524D01*
X169074248Y-124166915D01*
X168966428Y-124132712D01*
X168867305Y-124078219D01*
X168780655Y-124005511D01*
X168709777Y-123917357D01*
X168657372Y-123817114D01*
X168625435Y-123708602D01*
X168625430Y-123708543D01*
X168625426Y-123708531D01*
X168615181Y-123595961D01*
X168626997Y-123483530D01*
X168627001Y-123483518D01*
X168627007Y-123483459D01*
X168660456Y-123375404D01*
X168714255Y-123275903D01*
X168786357Y-123188747D01*
X168874014Y-123117256D01*
X168973888Y-123064152D01*
X169062286Y-123037463D01*
X169080077Y-123029209D01*
X169096244Y-123015124D01*
X169107846Y-122997092D01*
X169113966Y-122976542D01*
X169114118Y-122955100D01*
X169108291Y-122934465D01*
X169096946Y-122916270D01*
X169080981Y-122901957D01*
X169063256Y-122893428D01*
X168966428Y-122862712D01*
X168867305Y-122808219D01*
X168780655Y-122735511D01*
X168709777Y-122647357D01*
X168657372Y-122547114D01*
X168625435Y-122438602D01*
X168625430Y-122438543D01*
X168625426Y-122438531D01*
X168615181Y-122325961D01*
X168626997Y-122213530D01*
X168627001Y-122213518D01*
X168627007Y-122213459D01*
X168660456Y-122105404D01*
X168714255Y-122005903D01*
X168786357Y-121918747D01*
X168874014Y-121847256D01*
X168973888Y-121794152D01*
X169062286Y-121767463D01*
X169080077Y-121759209D01*
X169096244Y-121745124D01*
X169107846Y-121727092D01*
X169113966Y-121706542D01*
X169114118Y-121685100D01*
X169108291Y-121664465D01*
X169096946Y-121646270D01*
X169080981Y-121631957D01*
X169063256Y-121623428D01*
X168966428Y-121592712D01*
X168867305Y-121538219D01*
X168780655Y-121465511D01*
X168709777Y-121377357D01*
X168657372Y-121277114D01*
X168625435Y-121168602D01*
X168625430Y-121168543D01*
X168625426Y-121168531D01*
X168615181Y-121055961D01*
X168626997Y-120943530D01*
X168627001Y-120943518D01*
X168627007Y-120943459D01*
X168660456Y-120835404D01*
X168714255Y-120735903D01*
X168786357Y-120648747D01*
X168874014Y-120577256D01*
X168973888Y-120524152D01*
X169082175Y-120491458D01*
X169194749Y-120480420D01*
X169805372Y-120480420D01*
X169810249Y-120480454D01*
X169810249Y-120480454D01*
G37*
G36*
X105696271Y-117370078D02*
X105696276Y-117370079D01*
X105699365Y-117370100D01*
X105899133Y-117392508D01*
X106090744Y-117453291D01*
X106266900Y-117550133D01*
X106420891Y-117679347D01*
X106546851Y-117836010D01*
X106639983Y-118014155D01*
X106696740Y-118206997D01*
X106696745Y-118207057D01*
X106696749Y-118207069D01*
X106714961Y-118407184D01*
X106693956Y-118607039D01*
X106693954Y-118607047D01*
X106693947Y-118607110D01*
X106634503Y-118799141D01*
X106538893Y-118975969D01*
X106410757Y-119130858D01*
X106254977Y-119257909D01*
X106077486Y-119352282D01*
X105885045Y-119410384D01*
X105684984Y-119430000D01*
X105674895Y-119430000D01*
X105663729Y-119429922D01*
X105663724Y-119429921D01*
X105660635Y-119429900D01*
X105460867Y-119407492D01*
X105269256Y-119346709D01*
X105093100Y-119249867D01*
X104939109Y-119120653D01*
X104813149Y-118963990D01*
X104720017Y-118785845D01*
X104663260Y-118593003D01*
X104663255Y-118592943D01*
X104663251Y-118592931D01*
X104645039Y-118392816D01*
X104666044Y-118192961D01*
X104666046Y-118192953D01*
X104666053Y-118192890D01*
X104725497Y-118000859D01*
X104821107Y-117824031D01*
X104949243Y-117669142D01*
X105105023Y-117542091D01*
X105282514Y-117447718D01*
X105474955Y-117389616D01*
X105675016Y-117370000D01*
X105685105Y-117370000D01*
X105696271Y-117370078D01*
X105696271Y-117370078D01*
G37*
G36*
X115856271Y-117370078D02*
X115856276Y-117370079D01*
X115859365Y-117370100D01*
X116059133Y-117392508D01*
X116250744Y-117453291D01*
X116426900Y-117550133D01*
X116580891Y-117679347D01*
X116706851Y-117836010D01*
X116799983Y-118014155D01*
X116856740Y-118206997D01*
X116856745Y-118207057D01*
X116856749Y-118207069D01*
X116874961Y-118407184D01*
X116853956Y-118607039D01*
X116853954Y-118607047D01*
X116853947Y-118607110D01*
X116794503Y-118799141D01*
X116698893Y-118975969D01*
X116570757Y-119130858D01*
X116414977Y-119257909D01*
X116237486Y-119352282D01*
X116045045Y-119410384D01*
X115844984Y-119430000D01*
X115834895Y-119430000D01*
X115823729Y-119429922D01*
X115823724Y-119429921D01*
X115820635Y-119429900D01*
X115620867Y-119407492D01*
X115429256Y-119346709D01*
X115253100Y-119249867D01*
X115099109Y-119120653D01*
X114973149Y-118963990D01*
X114880017Y-118785845D01*
X114823260Y-118593003D01*
X114823255Y-118592943D01*
X114823251Y-118592931D01*
X114805039Y-118392816D01*
X114826044Y-118192961D01*
X114826046Y-118192953D01*
X114826053Y-118192890D01*
X114885497Y-118000859D01*
X114981107Y-117824031D01*
X115109243Y-117669142D01*
X115265023Y-117542091D01*
X115442514Y-117447718D01*
X115634955Y-117389616D01*
X115835016Y-117370000D01*
X115845105Y-117370000D01*
X115856271Y-117370078D01*
X115856271Y-117370078D01*
G37*
G36*
X113316271Y-117370078D02*
X113316276Y-117370079D01*
X113319365Y-117370100D01*
X113519133Y-117392508D01*
X113710744Y-117453291D01*
X113886900Y-117550133D01*
X114040891Y-117679347D01*
X114166851Y-117836010D01*
X114259983Y-118014155D01*
X114316740Y-118206997D01*
X114316745Y-118207057D01*
X114316749Y-118207069D01*
X114334961Y-118407184D01*
X114313956Y-118607039D01*
X114313954Y-118607047D01*
X114313947Y-118607110D01*
X114254503Y-118799141D01*
X114158893Y-118975969D01*
X114030757Y-119130858D01*
X113874977Y-119257909D01*
X113697486Y-119352282D01*
X113505045Y-119410384D01*
X113304984Y-119430000D01*
X113294895Y-119430000D01*
X113283729Y-119429922D01*
X113283724Y-119429921D01*
X113280635Y-119429900D01*
X113080867Y-119407492D01*
X112889256Y-119346709D01*
X112713100Y-119249867D01*
X112559109Y-119120653D01*
X112433149Y-118963990D01*
X112340017Y-118785845D01*
X112283260Y-118593003D01*
X112283255Y-118592943D01*
X112283251Y-118592931D01*
X112265039Y-118392816D01*
X112286044Y-118192961D01*
X112286046Y-118192953D01*
X112286053Y-118192890D01*
X112345497Y-118000859D01*
X112441107Y-117824031D01*
X112569243Y-117669142D01*
X112725023Y-117542091D01*
X112902514Y-117447718D01*
X113094955Y-117389616D01*
X113295016Y-117370000D01*
X113305105Y-117370000D01*
X113316271Y-117370078D01*
X113316271Y-117370078D01*
G37*
G36*
X110776271Y-117370078D02*
X110776276Y-117370079D01*
X110779365Y-117370100D01*
X110979133Y-117392508D01*
X111170744Y-117453291D01*
X111346900Y-117550133D01*
X111500891Y-117679347D01*
X111626851Y-117836010D01*
X111719983Y-118014155D01*
X111776740Y-118206997D01*
X111776745Y-118207057D01*
X111776749Y-118207069D01*
X111794961Y-118407184D01*
X111773956Y-118607039D01*
X111773954Y-118607047D01*
X111773947Y-118607110D01*
X111714503Y-118799141D01*
X111618893Y-118975969D01*
X111490757Y-119130858D01*
X111334977Y-119257909D01*
X111157486Y-119352282D01*
X110965045Y-119410384D01*
X110764984Y-119430000D01*
X110754895Y-119430000D01*
X110743729Y-119429922D01*
X110743724Y-119429921D01*
X110740635Y-119429900D01*
X110540867Y-119407492D01*
X110349256Y-119346709D01*
X110173100Y-119249867D01*
X110019109Y-119120653D01*
X109893149Y-118963990D01*
X109800017Y-118785845D01*
X109743260Y-118593003D01*
X109743255Y-118592943D01*
X109743251Y-118592931D01*
X109725039Y-118392816D01*
X109746044Y-118192961D01*
X109746046Y-118192953D01*
X109746053Y-118192890D01*
X109805497Y-118000859D01*
X109901107Y-117824031D01*
X110029243Y-117669142D01*
X110185023Y-117542091D01*
X110362514Y-117447718D01*
X110554955Y-117389616D01*
X110755016Y-117370000D01*
X110765105Y-117370000D01*
X110776271Y-117370078D01*
X110776271Y-117370078D01*
G37*
G36*
X108236271Y-117370078D02*
X108236276Y-117370079D01*
X108239365Y-117370100D01*
X108439133Y-117392508D01*
X108630744Y-117453291D01*
X108806900Y-117550133D01*
X108960891Y-117679347D01*
X109086851Y-117836010D01*
X109179983Y-118014155D01*
X109236740Y-118206997D01*
X109236745Y-118207057D01*
X109236749Y-118207069D01*
X109254961Y-118407184D01*
X109233956Y-118607039D01*
X109233954Y-118607047D01*
X109233947Y-118607110D01*
X109174503Y-118799141D01*
X109078893Y-118975969D01*
X108950757Y-119130858D01*
X108794977Y-119257909D01*
X108617486Y-119352282D01*
X108425045Y-119410384D01*
X108224984Y-119430000D01*
X108214895Y-119430000D01*
X108203729Y-119429922D01*
X108203724Y-119429921D01*
X108200635Y-119429900D01*
X108000867Y-119407492D01*
X107809256Y-119346709D01*
X107633100Y-119249867D01*
X107479109Y-119120653D01*
X107353149Y-118963990D01*
X107260017Y-118785845D01*
X107203260Y-118593003D01*
X107203255Y-118592943D01*
X107203251Y-118592931D01*
X107185039Y-118392816D01*
X107206044Y-118192961D01*
X107206046Y-118192953D01*
X107206053Y-118192890D01*
X107265497Y-118000859D01*
X107361107Y-117824031D01*
X107489243Y-117669142D01*
X107645023Y-117542091D01*
X107822514Y-117447718D01*
X108014955Y-117389616D01*
X108215016Y-117370000D01*
X108225105Y-117370000D01*
X108236271Y-117370078D01*
X108236271Y-117370078D01*
G37*
G36*
X147136271Y-117370078D02*
X147136276Y-117370079D01*
X147139365Y-117370100D01*
X147339133Y-117392508D01*
X147530744Y-117453291D01*
X147706900Y-117550133D01*
X147860891Y-117679347D01*
X147986851Y-117836010D01*
X148079983Y-118014155D01*
X148136740Y-118206997D01*
X148136745Y-118207057D01*
X148136749Y-118207069D01*
X148154961Y-118407184D01*
X148133956Y-118607039D01*
X148133954Y-118607047D01*
X148133947Y-118607110D01*
X148074503Y-118799141D01*
X147978893Y-118975969D01*
X147850757Y-119130858D01*
X147694977Y-119257909D01*
X147517486Y-119352282D01*
X147325045Y-119410384D01*
X147124984Y-119430000D01*
X147114895Y-119430000D01*
X147103729Y-119429922D01*
X147103724Y-119429921D01*
X147100635Y-119429900D01*
X146900867Y-119407492D01*
X146709256Y-119346709D01*
X146533100Y-119249867D01*
X146379109Y-119120653D01*
X146253149Y-118963990D01*
X146160017Y-118785845D01*
X146103260Y-118593003D01*
X146103255Y-118592943D01*
X146103251Y-118592931D01*
X146085039Y-118392816D01*
X146106044Y-118192961D01*
X146106046Y-118192953D01*
X146106053Y-118192890D01*
X146165497Y-118000859D01*
X146261107Y-117824031D01*
X146389243Y-117669142D01*
X146545023Y-117542091D01*
X146722514Y-117447718D01*
X146914955Y-117389616D01*
X147115016Y-117370000D01*
X147125105Y-117370000D01*
X147136271Y-117370078D01*
X147136271Y-117370078D01*
G37*
G36*
X149676271Y-117370078D02*
X149676276Y-117370079D01*
X149679365Y-117370100D01*
X149879133Y-117392508D01*
X150070744Y-117453291D01*
X150246900Y-117550133D01*
X150400891Y-117679347D01*
X150526851Y-117836010D01*
X150619983Y-118014155D01*
X150676740Y-118206997D01*
X150676745Y-118207057D01*
X150676749Y-118207069D01*
X150694961Y-118407184D01*
X150673956Y-118607039D01*
X150673954Y-118607047D01*
X150673947Y-118607110D01*
X150614503Y-118799141D01*
X150518893Y-118975969D01*
X150390757Y-119130858D01*
X150234977Y-119257909D01*
X150057486Y-119352282D01*
X149865045Y-119410384D01*
X149664984Y-119430000D01*
X149654895Y-119430000D01*
X149643729Y-119429922D01*
X149643724Y-119429921D01*
X149640635Y-119429900D01*
X149440867Y-119407492D01*
X149249256Y-119346709D01*
X149073100Y-119249867D01*
X148919109Y-119120653D01*
X148793149Y-118963990D01*
X148700017Y-118785845D01*
X148643260Y-118593003D01*
X148643255Y-118592943D01*
X148643251Y-118592931D01*
X148625039Y-118392816D01*
X148646044Y-118192961D01*
X148646046Y-118192953D01*
X148646053Y-118192890D01*
X148705497Y-118000859D01*
X148801107Y-117824031D01*
X148929243Y-117669142D01*
X149085023Y-117542091D01*
X149262514Y-117447718D01*
X149454955Y-117389616D01*
X149655016Y-117370000D01*
X149665105Y-117370000D01*
X149676271Y-117370078D01*
X149676271Y-117370078D01*
G37*
G36*
X152216271Y-117370078D02*
X152216276Y-117370079D01*
X152219365Y-117370100D01*
X152419133Y-117392508D01*
X152610744Y-117453291D01*
X152786900Y-117550133D01*
X152940891Y-117679347D01*
X153066851Y-117836010D01*
X153159983Y-118014155D01*
X153216740Y-118206997D01*
X153216745Y-118207057D01*
X153216749Y-118207069D01*
X153234961Y-118407184D01*
X153213956Y-118607039D01*
X153213954Y-118607047D01*
X153213947Y-118607110D01*
X153154503Y-118799141D01*
X153058893Y-118975969D01*
X152930757Y-119130858D01*
X152774977Y-119257909D01*
X152597486Y-119352282D01*
X152405045Y-119410384D01*
X152204984Y-119430000D01*
X152194895Y-119430000D01*
X152183729Y-119429922D01*
X152183724Y-119429921D01*
X152180635Y-119429900D01*
X151980867Y-119407492D01*
X151789256Y-119346709D01*
X151613100Y-119249867D01*
X151459109Y-119120653D01*
X151333149Y-118963990D01*
X151240017Y-118785845D01*
X151183260Y-118593003D01*
X151183255Y-118592943D01*
X151183251Y-118592931D01*
X151165039Y-118392816D01*
X151186044Y-118192961D01*
X151186046Y-118192953D01*
X151186053Y-118192890D01*
X151245497Y-118000859D01*
X151341107Y-117824031D01*
X151469243Y-117669142D01*
X151625023Y-117542091D01*
X151802514Y-117447718D01*
X151994955Y-117389616D01*
X152195016Y-117370000D01*
X152205105Y-117370000D01*
X152216271Y-117370078D01*
X152216271Y-117370078D01*
G37*
G36*
X154756271Y-117370078D02*
X154756276Y-117370079D01*
X154759365Y-117370100D01*
X154959133Y-117392508D01*
X155150744Y-117453291D01*
X155326900Y-117550133D01*
X155480891Y-117679347D01*
X155606851Y-117836010D01*
X155699983Y-118014155D01*
X155756740Y-118206997D01*
X155756745Y-118207057D01*
X155756749Y-118207069D01*
X155774961Y-118407184D01*
X155753956Y-118607039D01*
X155753954Y-118607047D01*
X155753947Y-118607110D01*
X155694503Y-118799141D01*
X155598893Y-118975969D01*
X155470757Y-119130858D01*
X155314977Y-119257909D01*
X155137486Y-119352282D01*
X154945045Y-119410384D01*
X154744984Y-119430000D01*
X154734895Y-119430000D01*
X154723729Y-119429922D01*
X154723724Y-119429921D01*
X154720635Y-119429900D01*
X154520867Y-119407492D01*
X154329256Y-119346709D01*
X154153100Y-119249867D01*
X153999109Y-119120653D01*
X153873149Y-118963990D01*
X153780017Y-118785845D01*
X153723260Y-118593003D01*
X153723255Y-118592943D01*
X153723251Y-118592931D01*
X153705039Y-118392816D01*
X153726044Y-118192961D01*
X153726046Y-118192953D01*
X153726053Y-118192890D01*
X153785497Y-118000859D01*
X153881107Y-117824031D01*
X154009243Y-117669142D01*
X154165023Y-117542091D01*
X154342514Y-117447718D01*
X154534955Y-117389616D01*
X154735016Y-117370000D01*
X154745105Y-117370000D01*
X154756271Y-117370078D01*
X154756271Y-117370078D01*
G37*
G36*
X144596271Y-117370078D02*
X144596276Y-117370079D01*
X144599365Y-117370100D01*
X144799133Y-117392508D01*
X144990744Y-117453291D01*
X145166900Y-117550133D01*
X145320891Y-117679347D01*
X145446851Y-117836010D01*
X145539983Y-118014155D01*
X145596740Y-118206997D01*
X145596745Y-118207057D01*
X145596749Y-118207069D01*
X145614961Y-118407184D01*
X145593956Y-118607039D01*
X145593954Y-118607047D01*
X145593947Y-118607110D01*
X145534503Y-118799141D01*
X145438893Y-118975969D01*
X145310757Y-119130858D01*
X145154977Y-119257909D01*
X144977486Y-119352282D01*
X144785045Y-119410384D01*
X144584984Y-119430000D01*
X144574895Y-119430000D01*
X144563729Y-119429922D01*
X144563724Y-119429921D01*
X144560635Y-119429900D01*
X144360867Y-119407492D01*
X144169256Y-119346709D01*
X143993100Y-119249867D01*
X143839109Y-119120653D01*
X143713149Y-118963990D01*
X143620017Y-118785845D01*
X143563260Y-118593003D01*
X143563255Y-118592943D01*
X143563251Y-118592931D01*
X143545039Y-118392816D01*
X143566044Y-118192961D01*
X143566046Y-118192953D01*
X143566053Y-118192890D01*
X143625497Y-118000859D01*
X143721107Y-117824031D01*
X143849243Y-117669142D01*
X144005023Y-117542091D01*
X144182514Y-117447718D01*
X144374955Y-117389616D01*
X144575016Y-117370000D01*
X144585105Y-117370000D01*
X144596271Y-117370078D01*
X144596271Y-117370078D01*
G37*
G36*
X108801409Y-100375079D02*
X110267171Y-100675956D01*
X111646572Y-101255803D01*
X112887083Y-102092539D01*
X113941438Y-103154279D01*
X114769491Y-104400600D01*
X115339693Y-105784013D01*
X115630225Y-107251312D01*
X115630225Y-107251324D01*
X115630327Y-107251840D01*
X115606462Y-108960920D01*
X115606346Y-108961429D01*
X115606346Y-108961448D01*
X115274958Y-110420056D01*
X114666350Y-111787014D01*
X113803823Y-113009723D01*
X112720229Y-114041616D01*
X111456842Y-114843386D01*
X110061785Y-115384493D01*
X108588199Y-115644326D01*
X107092205Y-115612989D01*
X106586387Y-115501778D01*
X106570024Y-115500000D01*
X100000000Y-115500000D01*
X100000000Y-100500000D01*
X106588303Y-100500000D01*
X106602581Y-100498650D01*
X107305126Y-100364632D01*
X108801409Y-100375079D01*
X108801409Y-100375079D01*
G37*
G36*
X122430000Y-112230000D02*
X118970000Y-112230000D01*
X118970000Y-109370000D01*
X122430000Y-109370000D01*
X122430000Y-112230000D01*
X122430000Y-112230000D01*
G37*
G36*
X133908183Y-109370683D02*
X134106055Y-109411300D01*
X134292265Y-109489576D01*
X134459727Y-109602530D01*
X134602056Y-109745857D01*
X134713840Y-109914105D01*
X134790812Y-110100853D01*
X134829942Y-110298476D01*
X134829942Y-110298487D01*
X134830044Y-110299003D01*
X134826823Y-110529718D01*
X134826706Y-110530232D01*
X134826706Y-110530246D01*
X134782074Y-110726692D01*
X134699916Y-110911224D01*
X134583481Y-111076280D01*
X134437202Y-111215580D01*
X134266652Y-111323815D01*
X134078326Y-111396861D01*
X133879403Y-111431937D01*
X133677453Y-111427706D01*
X133480175Y-111384332D01*
X133295072Y-111303462D01*
X133129205Y-111188182D01*
X132988886Y-111042878D01*
X132879466Y-110873091D01*
X132805107Y-110685280D01*
X132768643Y-110486608D01*
X132771464Y-110284629D01*
X132813461Y-110087051D01*
X132893035Y-109901391D01*
X133007155Y-109734723D01*
X133151472Y-109593397D01*
X133320497Y-109482790D01*
X133507779Y-109407123D01*
X133706196Y-109369273D01*
X133908183Y-109370683D01*
X133908183Y-109370683D01*
G37*
G36*
X173387039Y-109016044D02*
X173387047Y-109016046D01*
X173387110Y-109016053D01*
X173579141Y-109075497D01*
X173755969Y-109171107D01*
X173910858Y-109299243D01*
X174037909Y-109455023D01*
X174132282Y-109632514D01*
X174190384Y-109824955D01*
X174210000Y-110025016D01*
X174210000Y-110035105D01*
X174209922Y-110046271D01*
X174209900Y-110049365D01*
X174187492Y-110249133D01*
X174126709Y-110440744D01*
X174029867Y-110616900D01*
X173900653Y-110770891D01*
X173743990Y-110896851D01*
X173565845Y-110989983D01*
X173373003Y-111046740D01*
X173372943Y-111046745D01*
X173372931Y-111046749D01*
X173172816Y-111064961D01*
X172972961Y-111043956D01*
X172972953Y-111043954D01*
X172972890Y-111043947D01*
X172780859Y-110984503D01*
X172604031Y-110888893D01*
X172449142Y-110760757D01*
X172322091Y-110604977D01*
X172227718Y-110427486D01*
X172169616Y-110235045D01*
X172150000Y-110034984D01*
X172150000Y-110024895D01*
X172150078Y-110013729D01*
X172150079Y-110013724D01*
X172150100Y-110010635D01*
X172172508Y-109810867D01*
X172233291Y-109619256D01*
X172330133Y-109443100D01*
X172459347Y-109289109D01*
X172616010Y-109163149D01*
X172794155Y-109070017D01*
X172986997Y-109013260D01*
X172987057Y-109013255D01*
X172987069Y-109013251D01*
X173187184Y-108995039D01*
X173387039Y-109016044D01*
X173387039Y-109016044D01*
G37*
G36*
X175927039Y-109016044D02*
X175927047Y-109016046D01*
X175927110Y-109016053D01*
X176119141Y-109075497D01*
X176295969Y-109171107D01*
X176450858Y-109299243D01*
X176577909Y-109455023D01*
X176672282Y-109632514D01*
X176730384Y-109824955D01*
X176750000Y-110025016D01*
X176750000Y-110035105D01*
X176749922Y-110046271D01*
X176749900Y-110049365D01*
X176727492Y-110249133D01*
X176666709Y-110440744D01*
X176569867Y-110616900D01*
X176440653Y-110770891D01*
X176283990Y-110896851D01*
X176105845Y-110989983D01*
X175913003Y-111046740D01*
X175912943Y-111046745D01*
X175912931Y-111046749D01*
X175712816Y-111064961D01*
X175512961Y-111043956D01*
X175512953Y-111043954D01*
X175512890Y-111043947D01*
X175320859Y-110984503D01*
X175144031Y-110888893D01*
X174989142Y-110760757D01*
X174862091Y-110604977D01*
X174767718Y-110427486D01*
X174709616Y-110235045D01*
X174690000Y-110034984D01*
X174690000Y-110024895D01*
X174690078Y-110013729D01*
X174690079Y-110013724D01*
X174690100Y-110010635D01*
X174712508Y-109810867D01*
X174773291Y-109619256D01*
X174870133Y-109443100D01*
X174999347Y-109289109D01*
X175156010Y-109163149D01*
X175334155Y-109070017D01*
X175526997Y-109013260D01*
X175527057Y-109013255D01*
X175527069Y-109013251D01*
X175727184Y-108995039D01*
X175927039Y-109016044D01*
X175927039Y-109016044D01*
G37*
G36*
X159634441Y-106220849D02*
X159880340Y-106271325D01*
X160111745Y-106368598D01*
X160319856Y-106508972D01*
X160496730Y-106687084D01*
X160635645Y-106896169D01*
X160731301Y-107128246D01*
X160779953Y-107373961D01*
X160779953Y-107373974D01*
X160780055Y-107374490D01*
X160776051Y-107661203D01*
X160775935Y-107661712D01*
X160775935Y-107661731D01*
X160720441Y-107905987D01*
X160618342Y-108135307D01*
X160473646Y-108340426D01*
X160291862Y-108513536D01*
X160079917Y-108648041D01*
X159845882Y-108738817D01*
X159598676Y-108782407D01*
X159347709Y-108777149D01*
X159102546Y-108723247D01*
X158872514Y-108622748D01*
X158666389Y-108479487D01*
X158492016Y-108298920D01*
X158356036Y-108087919D01*
X158263628Y-107854523D01*
X158218314Y-107607629D01*
X158221820Y-107356627D01*
X158274010Y-107111091D01*
X158372897Y-106880371D01*
X158514717Y-106673248D01*
X158694066Y-106497617D01*
X158904110Y-106360167D01*
X159136853Y-106266133D01*
X159383427Y-106219097D01*
X159634441Y-106220849D01*
X159634441Y-106220849D01*
G37*
G36*
X121780000Y-108680000D02*
X119220000Y-108680000D01*
X119220000Y-106120000D01*
X121780000Y-106120000D01*
X121780000Y-108680000D01*
X121780000Y-108680000D01*
G37*
G36*
X175927039Y-106476044D02*
X175927047Y-106476046D01*
X175927110Y-106476053D01*
X176119141Y-106535497D01*
X176295969Y-106631107D01*
X176450858Y-106759243D01*
X176577909Y-106915023D01*
X176672282Y-107092514D01*
X176730384Y-107284955D01*
X176750000Y-107485016D01*
X176750000Y-107495105D01*
X176749922Y-107506271D01*
X176749900Y-107509365D01*
X176727492Y-107709133D01*
X176666709Y-107900744D01*
X176569867Y-108076900D01*
X176440653Y-108230891D01*
X176283990Y-108356851D01*
X176105845Y-108449983D01*
X175913003Y-108506740D01*
X175912943Y-108506745D01*
X175912931Y-108506749D01*
X175712816Y-108524961D01*
X175512961Y-108503956D01*
X175512953Y-108503954D01*
X175512890Y-108503947D01*
X175320859Y-108444503D01*
X175144031Y-108348893D01*
X174989142Y-108220757D01*
X174862091Y-108064977D01*
X174767718Y-107887486D01*
X174709616Y-107695045D01*
X174690000Y-107494984D01*
X174690000Y-107484895D01*
X174690078Y-107473729D01*
X174690079Y-107473724D01*
X174690100Y-107470635D01*
X174712508Y-107270867D01*
X174773291Y-107079256D01*
X174870133Y-106903100D01*
X174999347Y-106749109D01*
X175156010Y-106623149D01*
X175334155Y-106530017D01*
X175526997Y-106473260D01*
X175527057Y-106473255D01*
X175527069Y-106473251D01*
X175727184Y-106455039D01*
X175927039Y-106476044D01*
X175927039Y-106476044D01*
G37*
G36*
X173387039Y-106476044D02*
X173387047Y-106476046D01*
X173387110Y-106476053D01*
X173579141Y-106535497D01*
X173755969Y-106631107D01*
X173910858Y-106759243D01*
X174037909Y-106915023D01*
X174132282Y-107092514D01*
X174190384Y-107284955D01*
X174210000Y-107485016D01*
X174210000Y-107495105D01*
X174209922Y-107506271D01*
X174209900Y-107509365D01*
X174187492Y-107709133D01*
X174126709Y-107900744D01*
X174029867Y-108076900D01*
X173900653Y-108230891D01*
X173743990Y-108356851D01*
X173565845Y-108449983D01*
X173373003Y-108506740D01*
X173372943Y-108506745D01*
X173372931Y-108506749D01*
X173172816Y-108524961D01*
X172972961Y-108503956D01*
X172972953Y-108503954D01*
X172972890Y-108503947D01*
X172780859Y-108444503D01*
X172604031Y-108348893D01*
X172449142Y-108220757D01*
X172322091Y-108064977D01*
X172227718Y-107887486D01*
X172169616Y-107695045D01*
X172150000Y-107494984D01*
X172150000Y-107484895D01*
X172150078Y-107473729D01*
X172150079Y-107473724D01*
X172150100Y-107470635D01*
X172172508Y-107270867D01*
X172233291Y-107079256D01*
X172330133Y-106903100D01*
X172459347Y-106749109D01*
X172616010Y-106623149D01*
X172794155Y-106530017D01*
X172986997Y-106473260D01*
X172987057Y-106473255D01*
X172987069Y-106473251D01*
X173187184Y-106455039D01*
X173387039Y-106476044D01*
X173387039Y-106476044D01*
G37*
G36*
X175927039Y-103936044D02*
X175927047Y-103936046D01*
X175927110Y-103936053D01*
X176119141Y-103995497D01*
X176295969Y-104091107D01*
X176450858Y-104219243D01*
X176577909Y-104375023D01*
X176672282Y-104552514D01*
X176730384Y-104744955D01*
X176750000Y-104945016D01*
X176750000Y-104955105D01*
X176749922Y-104966271D01*
X176749900Y-104969365D01*
X176727492Y-105169133D01*
X176666709Y-105360744D01*
X176569867Y-105536900D01*
X176440653Y-105690891D01*
X176283990Y-105816851D01*
X176105845Y-105909983D01*
X175913003Y-105966740D01*
X175912943Y-105966745D01*
X175912931Y-105966749D01*
X175712816Y-105984961D01*
X175512961Y-105963956D01*
X175512953Y-105963954D01*
X175512890Y-105963947D01*
X175320859Y-105904503D01*
X175144031Y-105808893D01*
X174989142Y-105680757D01*
X174862091Y-105524977D01*
X174767718Y-105347486D01*
X174709616Y-105155045D01*
X174690000Y-104954984D01*
X174690000Y-104944895D01*
X174690078Y-104933729D01*
X174690079Y-104933724D01*
X174690100Y-104930635D01*
X174712508Y-104730867D01*
X174773291Y-104539256D01*
X174870133Y-104363100D01*
X174999347Y-104209109D01*
X175156010Y-104083149D01*
X175334155Y-103990017D01*
X175526997Y-103933260D01*
X175527057Y-103933255D01*
X175527069Y-103933251D01*
X175727184Y-103915039D01*
X175927039Y-103936044D01*
X175927039Y-103936044D01*
G37*
G36*
X173387039Y-103936044D02*
X173387047Y-103936046D01*
X173387110Y-103936053D01*
X173579141Y-103995497D01*
X173755969Y-104091107D01*
X173910858Y-104219243D01*
X174037909Y-104375023D01*
X174132282Y-104552514D01*
X174190384Y-104744955D01*
X174210000Y-104945016D01*
X174210000Y-104955105D01*
X174209922Y-104966271D01*
X174209900Y-104969365D01*
X174187492Y-105169133D01*
X174126709Y-105360744D01*
X174029867Y-105536900D01*
X173900653Y-105690891D01*
X173743990Y-105816851D01*
X173565845Y-105909983D01*
X173373003Y-105966740D01*
X173372943Y-105966745D01*
X173372931Y-105966749D01*
X173172816Y-105984961D01*
X172972961Y-105963956D01*
X172972953Y-105963954D01*
X172972890Y-105963947D01*
X172780859Y-105904503D01*
X172604031Y-105808893D01*
X172449142Y-105680757D01*
X172322091Y-105524977D01*
X172227718Y-105347486D01*
X172169616Y-105155045D01*
X172150000Y-104954984D01*
X172150000Y-104944895D01*
X172150078Y-104933729D01*
X172150079Y-104933724D01*
X172150100Y-104930635D01*
X172172508Y-104730867D01*
X172233291Y-104539256D01*
X172330133Y-104363100D01*
X172459347Y-104209109D01*
X172616010Y-104083149D01*
X172794155Y-103990017D01*
X172986997Y-103933260D01*
X172987057Y-103933255D01*
X172987069Y-103933251D01*
X173187184Y-103915039D01*
X173387039Y-103936044D01*
X173387039Y-103936044D01*
G37*
G36*
X133908183Y-101870683D02*
X134106055Y-101911300D01*
X134292265Y-101989576D01*
X134459727Y-102102530D01*
X134602056Y-102245857D01*
X134713840Y-102414105D01*
X134790812Y-102600853D01*
X134829942Y-102798476D01*
X134829942Y-102798487D01*
X134830044Y-102799003D01*
X134826823Y-103029718D01*
X134826706Y-103030232D01*
X134826706Y-103030246D01*
X134782074Y-103226692D01*
X134699916Y-103411224D01*
X134583481Y-103576280D01*
X134437202Y-103715580D01*
X134266652Y-103823815D01*
X134078326Y-103896861D01*
X133879403Y-103931937D01*
X133677453Y-103927706D01*
X133480175Y-103884332D01*
X133295072Y-103803462D01*
X133129205Y-103688182D01*
X132988886Y-103542878D01*
X132879466Y-103373091D01*
X132805107Y-103185280D01*
X132768643Y-102986608D01*
X132771464Y-102784629D01*
X132813461Y-102587051D01*
X132893035Y-102401391D01*
X133007155Y-102234723D01*
X133151472Y-102093397D01*
X133320497Y-101982790D01*
X133507779Y-101907123D01*
X133706196Y-101869273D01*
X133908183Y-101870683D01*
X133908183Y-101870683D01*
G37*
G36*
X173387039Y-101396044D02*
X173387047Y-101396046D01*
X173387110Y-101396053D01*
X173579141Y-101455497D01*
X173755969Y-101551107D01*
X173910858Y-101679243D01*
X174037909Y-101835023D01*
X174132282Y-102012514D01*
X174190384Y-102204955D01*
X174210000Y-102405016D01*
X174210000Y-102415105D01*
X174209922Y-102426271D01*
X174209900Y-102429365D01*
X174187492Y-102629133D01*
X174126709Y-102820744D01*
X174029867Y-102996900D01*
X173900653Y-103150891D01*
X173743990Y-103276851D01*
X173565845Y-103369983D01*
X173373003Y-103426740D01*
X173372943Y-103426745D01*
X173372931Y-103426749D01*
X173172816Y-103444961D01*
X172972961Y-103423956D01*
X172972953Y-103423954D01*
X172972890Y-103423947D01*
X172780859Y-103364503D01*
X172604031Y-103268893D01*
X172449142Y-103140757D01*
X172322091Y-102984977D01*
X172227718Y-102807486D01*
X172169616Y-102615045D01*
X172150000Y-102414984D01*
X172150000Y-102404895D01*
X172150078Y-102393729D01*
X172150079Y-102393724D01*
X172150100Y-102390635D01*
X172172508Y-102190867D01*
X172233291Y-101999256D01*
X172330133Y-101823100D01*
X172459347Y-101669109D01*
X172616010Y-101543149D01*
X172794155Y-101450017D01*
X172986997Y-101393260D01*
X172987057Y-101393255D01*
X172987069Y-101393251D01*
X173187184Y-101375039D01*
X173387039Y-101396044D01*
X173387039Y-101396044D01*
G37*
G36*
X175927039Y-101396044D02*
X175927047Y-101396046D01*
X175927110Y-101396053D01*
X176119141Y-101455497D01*
X176295969Y-101551107D01*
X176450858Y-101679243D01*
X176577909Y-101835023D01*
X176672282Y-102012514D01*
X176730384Y-102204955D01*
X176750000Y-102405016D01*
X176750000Y-102415105D01*
X176749922Y-102426271D01*
X176749900Y-102429365D01*
X176727492Y-102629133D01*
X176666709Y-102820744D01*
X176569867Y-102996900D01*
X176440653Y-103150891D01*
X176283990Y-103276851D01*
X176105845Y-103369983D01*
X175913003Y-103426740D01*
X175912943Y-103426745D01*
X175912931Y-103426749D01*
X175712816Y-103444961D01*
X175512961Y-103423956D01*
X175512953Y-103423954D01*
X175512890Y-103423947D01*
X175320859Y-103364503D01*
X175144031Y-103268893D01*
X174989142Y-103140757D01*
X174862091Y-102984977D01*
X174767718Y-102807486D01*
X174709616Y-102615045D01*
X174690000Y-102414984D01*
X174690000Y-102404895D01*
X174690078Y-102393729D01*
X174690079Y-102393724D01*
X174690100Y-102390635D01*
X174712508Y-102190867D01*
X174773291Y-101999256D01*
X174870133Y-101823100D01*
X174999347Y-101669109D01*
X175156010Y-101543149D01*
X175334155Y-101450017D01*
X175526997Y-101393260D01*
X175527057Y-101393255D01*
X175527069Y-101393251D01*
X175727184Y-101375039D01*
X175927039Y-101396044D01*
X175927039Y-101396044D01*
G37*
G36*
X173387039Y-98856044D02*
X173387047Y-98856046D01*
X173387110Y-98856053D01*
X173579141Y-98915497D01*
X173755969Y-99011107D01*
X173910858Y-99139243D01*
X174037909Y-99295023D01*
X174132282Y-99472514D01*
X174190384Y-99664955D01*
X174210000Y-99865016D01*
X174210000Y-99875105D01*
X174209922Y-99886271D01*
X174209900Y-99889365D01*
X174187492Y-100089133D01*
X174126709Y-100280744D01*
X174029867Y-100456900D01*
X173900653Y-100610891D01*
X173743990Y-100736851D01*
X173565845Y-100829983D01*
X173373003Y-100886740D01*
X173372943Y-100886745D01*
X173372931Y-100886749D01*
X173172816Y-100904961D01*
X172972961Y-100883956D01*
X172972953Y-100883954D01*
X172972890Y-100883947D01*
X172780859Y-100824503D01*
X172604031Y-100728893D01*
X172449142Y-100600757D01*
X172322091Y-100444977D01*
X172227718Y-100267486D01*
X172169616Y-100075045D01*
X172150000Y-99874984D01*
X172150000Y-99864895D01*
X172150078Y-99853729D01*
X172150079Y-99853724D01*
X172150100Y-99850635D01*
X172172508Y-99650867D01*
X172233291Y-99459256D01*
X172330133Y-99283100D01*
X172459347Y-99129109D01*
X172616010Y-99003149D01*
X172794155Y-98910017D01*
X172986997Y-98853260D01*
X172987057Y-98853255D01*
X172987069Y-98853251D01*
X173187184Y-98835039D01*
X173387039Y-98856044D01*
X173387039Y-98856044D01*
G37*
G36*
X175927039Y-98856044D02*
X175927047Y-98856046D01*
X175927110Y-98856053D01*
X176119141Y-98915497D01*
X176295969Y-99011107D01*
X176450858Y-99139243D01*
X176577909Y-99295023D01*
X176672282Y-99472514D01*
X176730384Y-99664955D01*
X176750000Y-99865016D01*
X176750000Y-99875105D01*
X176749922Y-99886271D01*
X176749900Y-99889365D01*
X176727492Y-100089133D01*
X176666709Y-100280744D01*
X176569867Y-100456900D01*
X176440653Y-100610891D01*
X176283990Y-100736851D01*
X176105845Y-100829983D01*
X175913003Y-100886740D01*
X175912943Y-100886745D01*
X175912931Y-100886749D01*
X175712816Y-100904961D01*
X175512961Y-100883956D01*
X175512953Y-100883954D01*
X175512890Y-100883947D01*
X175320859Y-100824503D01*
X175144031Y-100728893D01*
X174989142Y-100600757D01*
X174862091Y-100444977D01*
X174767718Y-100267486D01*
X174709616Y-100075045D01*
X174690000Y-99874984D01*
X174690000Y-99864895D01*
X174690078Y-99853729D01*
X174690079Y-99853724D01*
X174690100Y-99850635D01*
X174712508Y-99650867D01*
X174773291Y-99459256D01*
X174870133Y-99283100D01*
X174999347Y-99129109D01*
X175156010Y-99003149D01*
X175334155Y-98910017D01*
X175526997Y-98853260D01*
X175527057Y-98853255D01*
X175527069Y-98853251D01*
X175727184Y-98835039D01*
X175927039Y-98856044D01*
X175927039Y-98856044D01*
G37*
G36*
X108801409Y-84375079D02*
X110267171Y-84675956D01*
X111646572Y-85255803D01*
X112887083Y-86092539D01*
X113941438Y-87154279D01*
X114769491Y-88400600D01*
X115339693Y-89784013D01*
X115630225Y-91251312D01*
X115630225Y-91251324D01*
X115630327Y-91251840D01*
X115606462Y-92960920D01*
X115606346Y-92961429D01*
X115606346Y-92961448D01*
X115274958Y-94420056D01*
X114666350Y-95787014D01*
X113803823Y-97009723D01*
X112720229Y-98041616D01*
X111456842Y-98843386D01*
X110061785Y-99384493D01*
X108588199Y-99644326D01*
X107092205Y-99612989D01*
X106586387Y-99501778D01*
X106570024Y-99500000D01*
X100000000Y-99500000D01*
X100000000Y-84500000D01*
X106588303Y-84500000D01*
X106602581Y-84498650D01*
X107305126Y-84364632D01*
X108801409Y-84375079D01*
X108801409Y-84375079D01*
G37*
G36*
X146208183Y-97070683D02*
X146406055Y-97111300D01*
X146592265Y-97189576D01*
X146759727Y-97302530D01*
X146902056Y-97445857D01*
X147013840Y-97614105D01*
X147090812Y-97800853D01*
X147129942Y-97998476D01*
X147129942Y-97998487D01*
X147130044Y-97999003D01*
X147126823Y-98229718D01*
X147126706Y-98230232D01*
X147126706Y-98230246D01*
X147082074Y-98426692D01*
X146999916Y-98611224D01*
X146883481Y-98776280D01*
X146737202Y-98915580D01*
X146566652Y-99023815D01*
X146378326Y-99096861D01*
X146179403Y-99131937D01*
X145977453Y-99127706D01*
X145780175Y-99084332D01*
X145595072Y-99003462D01*
X145429205Y-98888182D01*
X145288886Y-98742878D01*
X145179466Y-98573091D01*
X145105107Y-98385280D01*
X145068643Y-98186608D01*
X145071464Y-97984629D01*
X145113461Y-97787051D01*
X145193035Y-97601391D01*
X145307155Y-97434723D01*
X145451472Y-97293397D01*
X145620497Y-97182790D01*
X145807779Y-97107123D01*
X146006196Y-97069273D01*
X146208183Y-97070683D01*
X146208183Y-97070683D01*
G37*
G36*
X175927039Y-96316044D02*
X175927047Y-96316046D01*
X175927110Y-96316053D01*
X176119141Y-96375497D01*
X176295969Y-96471107D01*
X176450858Y-96599243D01*
X176577909Y-96755023D01*
X176672282Y-96932514D01*
X176730384Y-97124955D01*
X176750000Y-97325016D01*
X176750000Y-97335105D01*
X176749922Y-97346271D01*
X176749900Y-97349365D01*
X176727492Y-97549133D01*
X176666709Y-97740744D01*
X176569867Y-97916900D01*
X176440653Y-98070891D01*
X176283990Y-98196851D01*
X176105845Y-98289983D01*
X175913003Y-98346740D01*
X175912943Y-98346745D01*
X175912931Y-98346749D01*
X175712816Y-98364961D01*
X175512961Y-98343956D01*
X175512953Y-98343954D01*
X175512890Y-98343947D01*
X175320859Y-98284503D01*
X175144031Y-98188893D01*
X174989142Y-98060757D01*
X174862091Y-97904977D01*
X174767718Y-97727486D01*
X174709616Y-97535045D01*
X174690000Y-97334984D01*
X174690000Y-97324895D01*
X174690078Y-97313729D01*
X174690079Y-97313724D01*
X174690100Y-97310635D01*
X174712508Y-97110867D01*
X174773291Y-96919256D01*
X174870133Y-96743100D01*
X174999347Y-96589109D01*
X175156010Y-96463149D01*
X175334155Y-96370017D01*
X175526997Y-96313260D01*
X175527057Y-96313255D01*
X175527069Y-96313251D01*
X175727184Y-96295039D01*
X175927039Y-96316044D01*
X175927039Y-96316044D01*
G37*
G36*
X173387039Y-96316044D02*
X173387047Y-96316046D01*
X173387110Y-96316053D01*
X173579141Y-96375497D01*
X173755969Y-96471107D01*
X173910858Y-96599243D01*
X174037909Y-96755023D01*
X174132282Y-96932514D01*
X174190384Y-97124955D01*
X174210000Y-97325016D01*
X174210000Y-97335105D01*
X174209922Y-97346271D01*
X174209900Y-97349365D01*
X174187492Y-97549133D01*
X174126709Y-97740744D01*
X174029867Y-97916900D01*
X173900653Y-98070891D01*
X173743990Y-98196851D01*
X173565845Y-98289983D01*
X173373003Y-98346740D01*
X173372943Y-98346745D01*
X173372931Y-98346749D01*
X173172816Y-98364961D01*
X172972961Y-98343956D01*
X172972953Y-98343954D01*
X172972890Y-98343947D01*
X172780859Y-98284503D01*
X172604031Y-98188893D01*
X172449142Y-98060757D01*
X172322091Y-97904977D01*
X172227718Y-97727486D01*
X172169616Y-97535045D01*
X172150000Y-97334984D01*
X172150000Y-97324895D01*
X172150078Y-97313729D01*
X172150079Y-97313724D01*
X172150100Y-97310635D01*
X172172508Y-97110867D01*
X172233291Y-96919256D01*
X172330133Y-96743100D01*
X172459347Y-96589109D01*
X172616010Y-96463149D01*
X172794155Y-96370017D01*
X172986997Y-96313260D01*
X172987057Y-96313255D01*
X172987069Y-96313251D01*
X173187184Y-96295039D01*
X173387039Y-96316044D01*
X173387039Y-96316044D01*
G37*
G36*
X173387039Y-93776044D02*
X173387047Y-93776046D01*
X173387110Y-93776053D01*
X173579141Y-93835497D01*
X173755969Y-93931107D01*
X173910858Y-94059243D01*
X174037909Y-94215023D01*
X174132282Y-94392514D01*
X174190384Y-94584955D01*
X174210000Y-94785016D01*
X174210000Y-94795105D01*
X174209922Y-94806271D01*
X174209900Y-94809365D01*
X174187492Y-95009133D01*
X174126709Y-95200744D01*
X174029867Y-95376900D01*
X173900653Y-95530891D01*
X173743990Y-95656851D01*
X173565845Y-95749983D01*
X173373003Y-95806740D01*
X173372943Y-95806745D01*
X173372931Y-95806749D01*
X173172816Y-95824961D01*
X172972961Y-95803956D01*
X172972953Y-95803954D01*
X172972890Y-95803947D01*
X172780859Y-95744503D01*
X172604031Y-95648893D01*
X172449142Y-95520757D01*
X172322091Y-95364977D01*
X172227718Y-95187486D01*
X172169616Y-94995045D01*
X172150000Y-94794984D01*
X172150000Y-94784895D01*
X172150078Y-94773729D01*
X172150079Y-94773724D01*
X172150100Y-94770635D01*
X172172508Y-94570867D01*
X172233291Y-94379256D01*
X172330133Y-94203100D01*
X172459347Y-94049109D01*
X172616010Y-93923149D01*
X172794155Y-93830017D01*
X172986997Y-93773260D01*
X172987057Y-93773255D01*
X172987069Y-93773251D01*
X173187184Y-93755039D01*
X173387039Y-93776044D01*
X173387039Y-93776044D01*
G37*
G36*
X175927039Y-93776044D02*
X175927047Y-93776046D01*
X175927110Y-93776053D01*
X176119141Y-93835497D01*
X176295969Y-93931107D01*
X176450858Y-94059243D01*
X176577909Y-94215023D01*
X176672282Y-94392514D01*
X176730384Y-94584955D01*
X176750000Y-94785016D01*
X176750000Y-94795105D01*
X176749922Y-94806271D01*
X176749900Y-94809365D01*
X176727492Y-95009133D01*
X176666709Y-95200744D01*
X176569867Y-95376900D01*
X176440653Y-95530891D01*
X176283990Y-95656851D01*
X176105845Y-95749983D01*
X175913003Y-95806740D01*
X175912943Y-95806745D01*
X175912931Y-95806749D01*
X175712816Y-95824961D01*
X175512961Y-95803956D01*
X175512953Y-95803954D01*
X175512890Y-95803947D01*
X175320859Y-95744503D01*
X175144031Y-95648893D01*
X174989142Y-95520757D01*
X174862091Y-95364977D01*
X174767718Y-95187486D01*
X174709616Y-94995045D01*
X174690000Y-94794984D01*
X174690000Y-94784895D01*
X174690078Y-94773729D01*
X174690079Y-94773724D01*
X174690100Y-94770635D01*
X174712508Y-94570867D01*
X174773291Y-94379256D01*
X174870133Y-94203100D01*
X174999347Y-94049109D01*
X175156010Y-93923149D01*
X175334155Y-93830017D01*
X175526997Y-93773260D01*
X175527057Y-93773255D01*
X175527069Y-93773251D01*
X175727184Y-93755039D01*
X175927039Y-93776044D01*
X175927039Y-93776044D01*
G37*
G36*
X160780000Y-93780000D02*
X158220000Y-93780000D01*
X158220000Y-91220000D01*
X160780000Y-91220000D01*
X160780000Y-93780000D01*
X160780000Y-93780000D01*
G37*
G36*
X120634441Y-91120849D02*
X120880340Y-91171325D01*
X121111745Y-91268598D01*
X121319856Y-91408972D01*
X121496730Y-91587084D01*
X121635645Y-91796169D01*
X121731301Y-92028246D01*
X121779953Y-92273961D01*
X121779953Y-92273974D01*
X121780055Y-92274490D01*
X121776051Y-92561203D01*
X121775935Y-92561712D01*
X121775935Y-92561731D01*
X121720441Y-92805987D01*
X121618342Y-93035307D01*
X121473646Y-93240426D01*
X121291862Y-93413536D01*
X121079917Y-93548041D01*
X120845882Y-93638817D01*
X120598676Y-93682407D01*
X120347709Y-93677149D01*
X120102546Y-93623247D01*
X119872514Y-93522748D01*
X119666389Y-93379487D01*
X119492016Y-93198920D01*
X119356036Y-92987919D01*
X119263628Y-92754523D01*
X119218314Y-92507629D01*
X119221820Y-92256627D01*
X119274010Y-92011091D01*
X119372897Y-91780371D01*
X119514717Y-91573248D01*
X119694066Y-91397617D01*
X119904110Y-91260167D01*
X120136853Y-91166133D01*
X120383427Y-91119097D01*
X120634441Y-91120849D01*
X120634441Y-91120849D01*
G37*
G36*
X175927039Y-91236044D02*
X175927047Y-91236046D01*
X175927110Y-91236053D01*
X176119141Y-91295497D01*
X176295969Y-91391107D01*
X176450858Y-91519243D01*
X176577909Y-91675023D01*
X176672282Y-91852514D01*
X176730384Y-92044955D01*
X176750000Y-92245016D01*
X176750000Y-92255105D01*
X176749989Y-92256627D01*
X176749900Y-92269365D01*
X176727492Y-92469133D01*
X176666709Y-92660744D01*
X176569867Y-92836900D01*
X176440653Y-92990891D01*
X176283990Y-93116851D01*
X176105845Y-93209983D01*
X175913003Y-93266740D01*
X175912943Y-93266745D01*
X175912931Y-93266749D01*
X175712816Y-93284961D01*
X175512961Y-93263956D01*
X175512953Y-93263954D01*
X175512890Y-93263947D01*
X175320859Y-93204503D01*
X175144031Y-93108893D01*
X174989142Y-92980757D01*
X174862091Y-92824977D01*
X174767718Y-92647486D01*
X174709616Y-92455045D01*
X174690000Y-92254984D01*
X174690000Y-92244895D01*
X174690078Y-92233729D01*
X174690079Y-92233724D01*
X174690100Y-92230635D01*
X174712508Y-92030867D01*
X174773291Y-91839256D01*
X174870133Y-91663100D01*
X174999347Y-91509109D01*
X175156010Y-91383149D01*
X175334155Y-91290017D01*
X175526997Y-91233260D01*
X175527057Y-91233255D01*
X175527069Y-91233251D01*
X175727184Y-91215039D01*
X175927039Y-91236044D01*
X175927039Y-91236044D01*
G37*
G36*
X174210000Y-93280000D02*
X172150000Y-93280000D01*
X172150000Y-91220000D01*
X174210000Y-91220000D01*
X174210000Y-93280000D01*
X174210000Y-93280000D01*
G37*
G36*
X146208183Y-89570683D02*
X146406055Y-89611300D01*
X146592265Y-89689576D01*
X146759727Y-89802530D01*
X146902056Y-89945857D01*
X147013840Y-90114105D01*
X147090812Y-90300853D01*
X147129942Y-90498476D01*
X147129942Y-90498487D01*
X147130044Y-90499003D01*
X147126823Y-90729718D01*
X147126706Y-90730232D01*
X147126706Y-90730246D01*
X147082074Y-90926692D01*
X146999916Y-91111224D01*
X146883481Y-91276280D01*
X146737202Y-91415580D01*
X146566652Y-91523815D01*
X146378326Y-91596861D01*
X146179403Y-91631937D01*
X145977453Y-91627706D01*
X145780175Y-91584332D01*
X145595072Y-91503462D01*
X145429205Y-91388182D01*
X145288886Y-91242878D01*
X145179466Y-91073091D01*
X145105107Y-90885280D01*
X145068643Y-90686608D01*
X145071464Y-90484629D01*
X145113461Y-90287051D01*
X145193035Y-90101391D01*
X145307155Y-89934723D01*
X145451472Y-89793397D01*
X145620497Y-89682790D01*
X145807779Y-89607123D01*
X146006196Y-89569273D01*
X146208183Y-89570683D01*
X146208183Y-89570683D01*
G37*
G36*
X161230000Y-90630000D02*
X157770000Y-90630000D01*
X157770000Y-87770000D01*
X161230000Y-87770000D01*
X161230000Y-90630000D01*
X161230000Y-90630000D01*
G37*
G36*
X159847968Y-74743630D02*
X159847985Y-74743635D01*
X159848039Y-74743641D01*
X160198553Y-74852143D01*
X160521316Y-75026661D01*
X160804036Y-75260546D01*
X161035942Y-75544892D01*
X161208202Y-75868866D01*
X161314255Y-76220129D01*
X161350060Y-76585301D01*
X161350060Y-78614821D01*
X161349899Y-78637856D01*
X161349877Y-78640949D01*
X161308976Y-79005585D01*
X161198030Y-79355333D01*
X161021263Y-79676871D01*
X160785409Y-79957951D01*
X160499452Y-80187866D01*
X160174283Y-80357860D01*
X159960674Y-80420729D01*
X159941223Y-80429588D01*
X159924959Y-80443560D01*
X159913230Y-80461511D01*
X159906967Y-80482018D01*
X159906665Y-80503458D01*
X159912349Y-80524133D01*
X159923567Y-80542406D01*
X159939431Y-80556831D01*
X159958687Y-80566265D01*
X159982251Y-80570000D01*
X161230000Y-80570000D01*
X161230000Y-83430000D01*
X157770000Y-83430000D01*
X157770000Y-80570000D01*
X158955264Y-80570000D01*
X158976493Y-80566983D01*
X158996041Y-80558172D01*
X159012360Y-80544263D01*
X159024158Y-80526359D01*
X159030501Y-80505876D01*
X159030887Y-80484438D01*
X159025284Y-80463740D01*
X159014138Y-80445423D01*
X158998329Y-80430937D01*
X158977863Y-80421040D01*
X158741447Y-80347857D01*
X158418684Y-80173339D01*
X158135964Y-79939454D01*
X157904058Y-79655108D01*
X157731798Y-79331134D01*
X157625745Y-78979871D01*
X157589940Y-78614699D01*
X157589940Y-76585179D01*
X157590101Y-76562144D01*
X157590101Y-76562140D01*
X157590123Y-76559051D01*
X157631024Y-76194415D01*
X157741970Y-75844667D01*
X157918737Y-75523129D01*
X158154591Y-75242049D01*
X158440548Y-75012134D01*
X158765717Y-74842140D01*
X159117712Y-74738542D01*
X159117766Y-74738537D01*
X159117783Y-74738532D01*
X159483118Y-74705284D01*
X159847968Y-74743630D01*
X159847968Y-74743630D01*
G37*
G36*
X164176271Y-80570078D02*
X164176276Y-80570079D01*
X164179365Y-80570100D01*
X164379133Y-80592508D01*
X164570744Y-80653291D01*
X164746900Y-80750133D01*
X164900891Y-80879347D01*
X165026851Y-81036010D01*
X165119983Y-81214155D01*
X165176740Y-81406997D01*
X165176745Y-81407057D01*
X165176749Y-81407069D01*
X165194961Y-81607184D01*
X165173956Y-81807039D01*
X165173954Y-81807047D01*
X165173947Y-81807110D01*
X165114503Y-81999141D01*
X165018893Y-82175969D01*
X164890757Y-82330858D01*
X164734977Y-82457909D01*
X164557486Y-82552282D01*
X164365045Y-82610384D01*
X164164984Y-82630000D01*
X164154895Y-82630000D01*
X164143729Y-82629922D01*
X164143724Y-82629921D01*
X164140635Y-82629900D01*
X163940867Y-82607492D01*
X163749256Y-82546709D01*
X163573100Y-82449867D01*
X163419109Y-82320653D01*
X163293149Y-82163990D01*
X163200017Y-81985845D01*
X163143260Y-81793003D01*
X163143255Y-81792943D01*
X163143251Y-81792931D01*
X163125039Y-81592816D01*
X163146044Y-81392961D01*
X163146046Y-81392953D01*
X163146053Y-81392890D01*
X163205497Y-81200859D01*
X163301107Y-81024031D01*
X163429243Y-80869142D01*
X163585023Y-80742091D01*
X163762514Y-80647718D01*
X163954955Y-80589616D01*
X164155016Y-80570000D01*
X164165105Y-80570000D01*
X164176271Y-80570078D01*
X164176271Y-80570078D01*
G37*
G36*
X154397968Y-74743630D02*
X154397985Y-74743635D01*
X154398039Y-74743641D01*
X154748553Y-74852143D01*
X155071316Y-75026661D01*
X155354036Y-75260546D01*
X155585942Y-75544892D01*
X155758202Y-75868866D01*
X155864255Y-76220129D01*
X155900060Y-76585301D01*
X155900060Y-78614821D01*
X155899899Y-78637856D01*
X155899877Y-78640949D01*
X155858976Y-79005585D01*
X155748030Y-79355333D01*
X155571263Y-79676871D01*
X155335409Y-79957951D01*
X155049452Y-80187866D01*
X154724283Y-80357860D01*
X154510674Y-80420729D01*
X154491223Y-80429588D01*
X154474959Y-80443560D01*
X154463230Y-80461511D01*
X154456967Y-80482018D01*
X154456665Y-80503458D01*
X154462349Y-80524133D01*
X154473567Y-80542406D01*
X154489431Y-80556831D01*
X154508687Y-80566265D01*
X154532251Y-80570000D01*
X155030000Y-80570000D01*
X155030000Y-82630000D01*
X152970000Y-82630000D01*
X152970000Y-80570000D01*
X153505264Y-80570000D01*
X153526493Y-80566983D01*
X153546041Y-80558172D01*
X153562360Y-80544263D01*
X153574158Y-80526359D01*
X153580501Y-80505876D01*
X153580887Y-80484438D01*
X153575284Y-80463740D01*
X153564138Y-80445423D01*
X153548329Y-80430937D01*
X153527863Y-80421040D01*
X153291447Y-80347857D01*
X152968684Y-80173339D01*
X152685964Y-79939454D01*
X152454058Y-79655108D01*
X152281798Y-79331134D01*
X152175745Y-78979871D01*
X152139940Y-78614699D01*
X152139940Y-76585179D01*
X152140101Y-76562144D01*
X152140101Y-76562140D01*
X152140123Y-76559051D01*
X152181024Y-76194415D01*
X152291970Y-75844667D01*
X152468737Y-75523129D01*
X152704591Y-75242049D01*
X152990548Y-75012134D01*
X153315717Y-74842140D01*
X153667712Y-74738542D01*
X153667766Y-74738537D01*
X153667783Y-74738532D01*
X154033118Y-74705284D01*
X154397968Y-74743630D01*
X154397968Y-74743630D01*
G37*
G36*
X171796271Y-80570078D02*
X171796276Y-80570079D01*
X171799365Y-80570100D01*
X171999133Y-80592508D01*
X172190744Y-80653291D01*
X172366900Y-80750133D01*
X172520891Y-80879347D01*
X172646851Y-81036010D01*
X172739983Y-81214155D01*
X172796740Y-81406997D01*
X172796745Y-81407057D01*
X172796749Y-81407069D01*
X172814961Y-81607184D01*
X172793956Y-81807039D01*
X172793954Y-81807047D01*
X172793947Y-81807110D01*
X172734503Y-81999141D01*
X172638893Y-82175969D01*
X172510757Y-82330858D01*
X172354977Y-82457909D01*
X172177486Y-82552282D01*
X171985045Y-82610384D01*
X171784984Y-82630000D01*
X171774895Y-82630000D01*
X171763729Y-82629922D01*
X171763724Y-82629921D01*
X171760635Y-82629900D01*
X171560867Y-82607492D01*
X171369256Y-82546709D01*
X171193100Y-82449867D01*
X171039109Y-82320653D01*
X170913149Y-82163990D01*
X170820017Y-81985845D01*
X170763260Y-81793003D01*
X170763255Y-81792943D01*
X170763251Y-81792931D01*
X170745039Y-81592816D01*
X170766044Y-81392961D01*
X170766046Y-81392953D01*
X170766053Y-81392890D01*
X170825497Y-81200859D01*
X170921107Y-81024031D01*
X171049243Y-80869142D01*
X171205023Y-80742091D01*
X171382514Y-80647718D01*
X171574955Y-80589616D01*
X171775016Y-80570000D01*
X171785105Y-80570000D01*
X171796271Y-80570078D01*
X171796271Y-80570078D01*
G37*
G36*
X135436271Y-80570078D02*
X135436276Y-80570079D01*
X135439365Y-80570100D01*
X135639133Y-80592508D01*
X135830744Y-80653291D01*
X136006900Y-80750133D01*
X136160891Y-80879347D01*
X136286851Y-81036010D01*
X136379983Y-81214155D01*
X136436740Y-81406997D01*
X136436745Y-81407057D01*
X136436749Y-81407069D01*
X136454961Y-81607184D01*
X136433956Y-81807039D01*
X136433954Y-81807047D01*
X136433947Y-81807110D01*
X136374503Y-81999141D01*
X136278893Y-82175969D01*
X136150757Y-82330858D01*
X135994977Y-82457909D01*
X135817486Y-82552282D01*
X135625045Y-82610384D01*
X135424984Y-82630000D01*
X135414895Y-82630000D01*
X135403729Y-82629922D01*
X135403724Y-82629921D01*
X135400635Y-82629900D01*
X135200867Y-82607492D01*
X135009256Y-82546709D01*
X134833100Y-82449867D01*
X134679109Y-82320653D01*
X134553149Y-82163990D01*
X134460017Y-81985845D01*
X134403260Y-81793003D01*
X134403255Y-81792943D01*
X134403251Y-81792931D01*
X134385039Y-81592816D01*
X134406044Y-81392961D01*
X134406046Y-81392953D01*
X134406053Y-81392890D01*
X134465497Y-81200859D01*
X134561107Y-81024031D01*
X134689243Y-80869142D01*
X134845023Y-80742091D01*
X135022514Y-80647718D01*
X135214955Y-80589616D01*
X135415016Y-80570000D01*
X135425105Y-80570000D01*
X135436271Y-80570078D01*
X135436271Y-80570078D01*
G37*
G36*
X132896271Y-80570078D02*
X132896276Y-80570079D01*
X132899365Y-80570100D01*
X133099133Y-80592508D01*
X133290744Y-80653291D01*
X133466900Y-80750133D01*
X133620891Y-80879347D01*
X133746851Y-81036010D01*
X133839983Y-81214155D01*
X133896740Y-81406997D01*
X133896745Y-81407057D01*
X133896749Y-81407069D01*
X133914961Y-81607184D01*
X133893956Y-81807039D01*
X133893954Y-81807047D01*
X133893947Y-81807110D01*
X133834503Y-81999141D01*
X133738893Y-82175969D01*
X133610757Y-82330858D01*
X133454977Y-82457909D01*
X133277486Y-82552282D01*
X133085045Y-82610384D01*
X132884984Y-82630000D01*
X132874895Y-82630000D01*
X132863729Y-82629922D01*
X132863724Y-82629921D01*
X132860635Y-82629900D01*
X132660867Y-82607492D01*
X132469256Y-82546709D01*
X132293100Y-82449867D01*
X132139109Y-82320653D01*
X132013149Y-82163990D01*
X131920017Y-81985845D01*
X131863260Y-81793003D01*
X131863255Y-81792943D01*
X131863251Y-81792931D01*
X131845039Y-81592816D01*
X131866044Y-81392961D01*
X131866046Y-81392953D01*
X131866053Y-81392890D01*
X131925497Y-81200859D01*
X132021107Y-81024031D01*
X132149243Y-80869142D01*
X132305023Y-80742091D01*
X132482514Y-80647718D01*
X132674955Y-80589616D01*
X132875016Y-80570000D01*
X132885105Y-80570000D01*
X132896271Y-80570078D01*
X132896271Y-80570078D01*
G37*
G36*
X130356271Y-80570078D02*
X130356276Y-80570079D01*
X130359365Y-80570100D01*
X130559133Y-80592508D01*
X130750744Y-80653291D01*
X130926900Y-80750133D01*
X131080891Y-80879347D01*
X131206851Y-81036010D01*
X131299983Y-81214155D01*
X131356740Y-81406997D01*
X131356745Y-81407057D01*
X131356749Y-81407069D01*
X131374961Y-81607184D01*
X131353956Y-81807039D01*
X131353954Y-81807047D01*
X131353947Y-81807110D01*
X131294503Y-81999141D01*
X131198893Y-82175969D01*
X131070757Y-82330858D01*
X130914977Y-82457909D01*
X130737486Y-82552282D01*
X130545045Y-82610384D01*
X130344984Y-82630000D01*
X130334895Y-82630000D01*
X130323729Y-82629922D01*
X130323724Y-82629921D01*
X130320635Y-82629900D01*
X130120867Y-82607492D01*
X129929256Y-82546709D01*
X129753100Y-82449867D01*
X129599109Y-82320653D01*
X129473149Y-82163990D01*
X129380017Y-81985845D01*
X129323260Y-81793003D01*
X129323255Y-81792943D01*
X129323251Y-81792931D01*
X129305039Y-81592816D01*
X129326044Y-81392961D01*
X129326046Y-81392953D01*
X129326053Y-81392890D01*
X129385497Y-81200859D01*
X129481107Y-81024031D01*
X129609243Y-80869142D01*
X129765023Y-80742091D01*
X129942514Y-80647718D01*
X130134955Y-80589616D01*
X130335016Y-80570000D01*
X130345105Y-80570000D01*
X130356271Y-80570078D01*
X130356271Y-80570078D01*
G37*
G36*
X127816271Y-80570078D02*
X127816276Y-80570079D01*
X127819365Y-80570100D01*
X128019133Y-80592508D01*
X128210744Y-80653291D01*
X128386900Y-80750133D01*
X128540891Y-80879347D01*
X128666851Y-81036010D01*
X128759983Y-81214155D01*
X128816740Y-81406997D01*
X128816745Y-81407057D01*
X128816749Y-81407069D01*
X128834961Y-81607184D01*
X128813956Y-81807039D01*
X128813954Y-81807047D01*
X128813947Y-81807110D01*
X128754503Y-81999141D01*
X128658893Y-82175969D01*
X128530757Y-82330858D01*
X128374977Y-82457909D01*
X128197486Y-82552282D01*
X128005045Y-82610384D01*
X127804984Y-82630000D01*
X127794895Y-82630000D01*
X127783729Y-82629922D01*
X127783724Y-82629921D01*
X127780635Y-82629900D01*
X127580867Y-82607492D01*
X127389256Y-82546709D01*
X127213100Y-82449867D01*
X127059109Y-82320653D01*
X126933149Y-82163990D01*
X126840017Y-81985845D01*
X126783260Y-81793003D01*
X126783255Y-81792943D01*
X126783251Y-81792931D01*
X126765039Y-81592816D01*
X126786044Y-81392961D01*
X126786046Y-81392953D01*
X126786053Y-81392890D01*
X126845497Y-81200859D01*
X126941107Y-81024031D01*
X127069243Y-80869142D01*
X127225023Y-80742091D01*
X127402514Y-80647718D01*
X127594955Y-80589616D01*
X127795016Y-80570000D01*
X127805105Y-80570000D01*
X127816271Y-80570078D01*
X127816271Y-80570078D01*
G37*
G36*
X125276271Y-80570078D02*
X125276276Y-80570079D01*
X125279365Y-80570100D01*
X125479133Y-80592508D01*
X125670744Y-80653291D01*
X125846900Y-80750133D01*
X126000891Y-80879347D01*
X126126851Y-81036010D01*
X126219983Y-81214155D01*
X126276740Y-81406997D01*
X126276745Y-81407057D01*
X126276749Y-81407069D01*
X126294961Y-81607184D01*
X126273956Y-81807039D01*
X126273954Y-81807047D01*
X126273947Y-81807110D01*
X126214503Y-81999141D01*
X126118893Y-82175969D01*
X125990757Y-82330858D01*
X125834977Y-82457909D01*
X125657486Y-82552282D01*
X125465045Y-82610384D01*
X125264984Y-82630000D01*
X125254895Y-82630000D01*
X125243729Y-82629922D01*
X125243724Y-82629921D01*
X125240635Y-82629900D01*
X125040867Y-82607492D01*
X124849256Y-82546709D01*
X124673100Y-82449867D01*
X124519109Y-82320653D01*
X124393149Y-82163990D01*
X124300017Y-81985845D01*
X124243260Y-81793003D01*
X124243255Y-81792943D01*
X124243251Y-81792931D01*
X124225039Y-81592816D01*
X124246044Y-81392961D01*
X124246046Y-81392953D01*
X124246053Y-81392890D01*
X124305497Y-81200859D01*
X124401107Y-81024031D01*
X124529243Y-80869142D01*
X124685023Y-80742091D01*
X124862514Y-80647718D01*
X125054955Y-80589616D01*
X125255016Y-80570000D01*
X125265105Y-80570000D01*
X125276271Y-80570078D01*
X125276271Y-80570078D01*
G37*
G36*
X115457968Y-74743630D02*
X115457985Y-74743635D01*
X115458039Y-74743641D01*
X115808553Y-74852143D01*
X116131316Y-75026661D01*
X116414036Y-75260546D01*
X116645942Y-75544892D01*
X116818202Y-75868866D01*
X116924255Y-76220129D01*
X116960060Y-76585301D01*
X116960060Y-78614821D01*
X116959899Y-78637856D01*
X116959877Y-78640949D01*
X116918976Y-79005585D01*
X116808030Y-79355333D01*
X116631263Y-79676871D01*
X116395409Y-79957951D01*
X116109452Y-80187866D01*
X115784283Y-80357860D01*
X115570674Y-80420729D01*
X115551223Y-80429588D01*
X115534959Y-80443560D01*
X115523230Y-80461511D01*
X115516967Y-80482018D01*
X115516665Y-80503458D01*
X115522349Y-80524133D01*
X115533567Y-80542406D01*
X115549431Y-80556831D01*
X115568687Y-80566265D01*
X115592251Y-80570000D01*
X116130000Y-80570000D01*
X116130000Y-82630000D01*
X114070000Y-82630000D01*
X114070000Y-80570000D01*
X114565264Y-80570000D01*
X114586493Y-80566983D01*
X114606041Y-80558172D01*
X114622360Y-80544263D01*
X114634158Y-80526359D01*
X114640501Y-80505876D01*
X114640887Y-80484438D01*
X114635284Y-80463740D01*
X114624138Y-80445423D01*
X114608329Y-80430937D01*
X114587863Y-80421040D01*
X114351447Y-80347857D01*
X114028684Y-80173339D01*
X113745964Y-79939454D01*
X113514058Y-79655108D01*
X113341798Y-79331134D01*
X113235745Y-78979871D01*
X113199940Y-78614699D01*
X113199940Y-76585179D01*
X113200101Y-76562144D01*
X113200101Y-76562140D01*
X113200123Y-76559051D01*
X113241024Y-76194415D01*
X113351970Y-75844667D01*
X113528737Y-75523129D01*
X113764591Y-75242049D01*
X114050548Y-75012134D01*
X114375717Y-74842140D01*
X114727712Y-74738542D01*
X114727766Y-74738537D01*
X114727783Y-74738532D01*
X115093118Y-74705284D01*
X115457968Y-74743630D01*
X115457968Y-74743630D01*
G37*
G36*
X174336271Y-80570078D02*
X174336276Y-80570079D01*
X174339365Y-80570100D01*
X174539133Y-80592508D01*
X174730744Y-80653291D01*
X174906900Y-80750133D01*
X175060891Y-80879347D01*
X175186851Y-81036010D01*
X175279983Y-81214155D01*
X175336740Y-81406997D01*
X175336745Y-81407057D01*
X175336749Y-81407069D01*
X175354961Y-81607184D01*
X175333956Y-81807039D01*
X175333954Y-81807047D01*
X175333947Y-81807110D01*
X175274503Y-81999141D01*
X175178893Y-82175969D01*
X175050757Y-82330858D01*
X174894977Y-82457909D01*
X174717486Y-82552282D01*
X174525045Y-82610384D01*
X174324984Y-82630000D01*
X174314895Y-82630000D01*
X174303729Y-82629922D01*
X174303724Y-82629921D01*
X174300635Y-82629900D01*
X174100867Y-82607492D01*
X173909256Y-82546709D01*
X173733100Y-82449867D01*
X173579109Y-82320653D01*
X173453149Y-82163990D01*
X173360017Y-81985845D01*
X173303260Y-81793003D01*
X173303255Y-81792943D01*
X173303251Y-81792931D01*
X173285039Y-81592816D01*
X173306044Y-81392961D01*
X173306046Y-81392953D01*
X173306053Y-81392890D01*
X173365497Y-81200859D01*
X173461107Y-81024031D01*
X173589243Y-80869142D01*
X173745023Y-80742091D01*
X173922514Y-80647718D01*
X174114955Y-80589616D01*
X174315016Y-80570000D01*
X174325105Y-80570000D01*
X174336271Y-80570078D01*
X174336271Y-80570078D01*
G37*
G36*
X169256271Y-80570078D02*
X169256276Y-80570079D01*
X169259365Y-80570100D01*
X169459133Y-80592508D01*
X169650744Y-80653291D01*
X169826900Y-80750133D01*
X169980891Y-80879347D01*
X170106851Y-81036010D01*
X170199983Y-81214155D01*
X170256740Y-81406997D01*
X170256745Y-81407057D01*
X170256749Y-81407069D01*
X170274961Y-81607184D01*
X170253956Y-81807039D01*
X170253954Y-81807047D01*
X170253947Y-81807110D01*
X170194503Y-81999141D01*
X170098893Y-82175969D01*
X169970757Y-82330858D01*
X169814977Y-82457909D01*
X169637486Y-82552282D01*
X169445045Y-82610384D01*
X169244984Y-82630000D01*
X169234895Y-82630000D01*
X169223729Y-82629922D01*
X169223724Y-82629921D01*
X169220635Y-82629900D01*
X169020867Y-82607492D01*
X168829256Y-82546709D01*
X168653100Y-82449867D01*
X168499109Y-82320653D01*
X168373149Y-82163990D01*
X168280017Y-81985845D01*
X168223260Y-81793003D01*
X168223255Y-81792943D01*
X168223251Y-81792931D01*
X168205039Y-81592816D01*
X168226044Y-81392961D01*
X168226046Y-81392953D01*
X168226053Y-81392890D01*
X168285497Y-81200859D01*
X168381107Y-81024031D01*
X168509243Y-80869142D01*
X168665023Y-80742091D01*
X168842514Y-80647718D01*
X169034955Y-80589616D01*
X169235016Y-80570000D01*
X169245105Y-80570000D01*
X169256271Y-80570078D01*
X169256271Y-80570078D01*
G37*
G36*
X166716271Y-80570078D02*
X166716276Y-80570079D01*
X166719365Y-80570100D01*
X166919133Y-80592508D01*
X167110744Y-80653291D01*
X167286900Y-80750133D01*
X167440891Y-80879347D01*
X167566851Y-81036010D01*
X167659983Y-81214155D01*
X167716740Y-81406997D01*
X167716745Y-81407057D01*
X167716749Y-81407069D01*
X167734961Y-81607184D01*
X167713956Y-81807039D01*
X167713954Y-81807047D01*
X167713947Y-81807110D01*
X167654503Y-81999141D01*
X167558893Y-82175969D01*
X167430757Y-82330858D01*
X167274977Y-82457909D01*
X167097486Y-82552282D01*
X166905045Y-82610384D01*
X166704984Y-82630000D01*
X166694895Y-82630000D01*
X166683729Y-82629922D01*
X166683724Y-82629921D01*
X166680635Y-82629900D01*
X166480867Y-82607492D01*
X166289256Y-82546709D01*
X166113100Y-82449867D01*
X165959109Y-82320653D01*
X165833149Y-82163990D01*
X165740017Y-81985845D01*
X165683260Y-81793003D01*
X165683255Y-81792943D01*
X165683251Y-81792931D01*
X165665039Y-81592816D01*
X165686044Y-81392961D01*
X165686046Y-81392953D01*
X165686053Y-81392890D01*
X165745497Y-81200859D01*
X165841107Y-81024031D01*
X165969243Y-80869142D01*
X166125023Y-80742091D01*
X166302514Y-80647718D01*
X166494955Y-80589616D01*
X166695016Y-80570000D01*
X166705105Y-80570000D01*
X166716271Y-80570078D01*
X166716271Y-80570078D01*
G37*
G36*
X120907968Y-74743630D02*
X120907985Y-74743635D01*
X120908039Y-74743641D01*
X121258553Y-74852143D01*
X121581316Y-75026661D01*
X121864036Y-75260546D01*
X122095942Y-75544892D01*
X122268202Y-75868866D01*
X122374255Y-76220129D01*
X122410060Y-76585301D01*
X122410060Y-78614821D01*
X122409899Y-78637856D01*
X122409877Y-78640949D01*
X122368976Y-79005585D01*
X122258030Y-79355333D01*
X122081263Y-79676871D01*
X121845409Y-79957951D01*
X121559452Y-80187866D01*
X121234283Y-80357860D01*
X120882288Y-80461458D01*
X120882234Y-80461463D01*
X120882217Y-80461468D01*
X120516882Y-80494716D01*
X120152032Y-80456370D01*
X120152015Y-80456365D01*
X120151961Y-80456359D01*
X119801447Y-80347857D01*
X119478684Y-80173339D01*
X119195964Y-79939454D01*
X118964058Y-79655108D01*
X118791798Y-79331134D01*
X118685745Y-78979871D01*
X118649940Y-78614699D01*
X118649940Y-76585179D01*
X118650101Y-76562144D01*
X118650101Y-76562140D01*
X118650123Y-76559051D01*
X118691024Y-76194415D01*
X118801970Y-75844667D01*
X118978737Y-75523129D01*
X119214591Y-75242049D01*
X119500548Y-75012134D01*
X119825717Y-74842140D01*
X120177712Y-74738542D01*
X120177766Y-74738537D01*
X120177783Y-74738532D01*
X120543118Y-74705284D01*
X120907968Y-74743630D01*
X120907968Y-74743630D01*
G37*
G36*
X126357968Y-74743630D02*
X126357985Y-74743635D01*
X126358039Y-74743641D01*
X126708553Y-74852143D01*
X127031316Y-75026661D01*
X127314036Y-75260546D01*
X127545942Y-75544892D01*
X127718202Y-75868866D01*
X127824255Y-76220129D01*
X127860060Y-76585301D01*
X127860060Y-78614821D01*
X127859899Y-78637856D01*
X127859877Y-78640949D01*
X127818976Y-79005585D01*
X127708030Y-79355333D01*
X127531263Y-79676871D01*
X127295409Y-79957951D01*
X127009452Y-80187866D01*
X126684283Y-80357860D01*
X126332288Y-80461458D01*
X126332234Y-80461463D01*
X126332217Y-80461468D01*
X125966882Y-80494716D01*
X125602032Y-80456370D01*
X125602015Y-80456365D01*
X125601961Y-80456359D01*
X125251447Y-80347857D01*
X124928684Y-80173339D01*
X124645964Y-79939454D01*
X124414058Y-79655108D01*
X124241798Y-79331134D01*
X124135745Y-78979871D01*
X124099940Y-78614699D01*
X124099940Y-76585179D01*
X124100101Y-76562144D01*
X124100101Y-76562140D01*
X124100123Y-76559051D01*
X124141024Y-76194415D01*
X124251970Y-75844667D01*
X124428737Y-75523129D01*
X124664591Y-75242049D01*
X124950548Y-75012134D01*
X125275717Y-74842140D01*
X125627712Y-74738542D01*
X125627766Y-74738537D01*
X125627783Y-74738532D01*
X125993118Y-74705284D01*
X126357968Y-74743630D01*
X126357968Y-74743630D01*
G37*
G36*
X165297968Y-74743630D02*
X165297985Y-74743635D01*
X165298039Y-74743641D01*
X165648553Y-74852143D01*
X165971316Y-75026661D01*
X166254036Y-75260546D01*
X166485942Y-75544892D01*
X166658202Y-75868866D01*
X166764255Y-76220129D01*
X166800060Y-76585301D01*
X166800060Y-78614821D01*
X166799899Y-78637856D01*
X166799877Y-78640949D01*
X166758976Y-79005585D01*
X166648030Y-79355333D01*
X166471263Y-79676871D01*
X166235409Y-79957951D01*
X165949452Y-80187866D01*
X165624283Y-80357860D01*
X165272288Y-80461458D01*
X165272234Y-80461463D01*
X165272217Y-80461468D01*
X164906882Y-80494716D01*
X164542032Y-80456370D01*
X164542015Y-80456365D01*
X164541961Y-80456359D01*
X164191447Y-80347857D01*
X163868684Y-80173339D01*
X163585964Y-79939454D01*
X163354058Y-79655108D01*
X163181798Y-79331134D01*
X163075745Y-78979871D01*
X163039940Y-78614699D01*
X163039940Y-76585179D01*
X163040101Y-76562144D01*
X163040101Y-76562140D01*
X163040123Y-76559051D01*
X163081024Y-76194415D01*
X163191970Y-75844667D01*
X163368737Y-75523129D01*
X163604591Y-75242049D01*
X163890548Y-75012134D01*
X164215717Y-74842140D01*
X164567712Y-74738542D01*
X164567766Y-74738537D01*
X164567783Y-74738532D01*
X164933118Y-74705284D01*
X165297968Y-74743630D01*
X165297968Y-74743630D01*
G37*
G36*
X169810249Y-75820454D02*
X169810255Y-75820455D01*
X169813343Y-75820476D01*
X169925752Y-75833085D01*
X170033572Y-75867288D01*
X170132695Y-75921781D01*
X170219345Y-75994489D01*
X170290223Y-76082643D01*
X170342628Y-76182886D01*
X170374565Y-76291398D01*
X170374570Y-76291457D01*
X170374574Y-76291469D01*
X170384819Y-76404039D01*
X170373003Y-76516470D01*
X170372999Y-76516482D01*
X170372993Y-76516541D01*
X170339544Y-76624596D01*
X170285745Y-76724097D01*
X170213643Y-76811253D01*
X170125986Y-76882744D01*
X170026112Y-76935848D01*
X169937714Y-76962537D01*
X169919923Y-76970791D01*
X169903756Y-76984876D01*
X169892154Y-77002908D01*
X169886034Y-77023458D01*
X169885882Y-77044900D01*
X169891709Y-77065535D01*
X169903054Y-77083730D01*
X169919019Y-77098043D01*
X169936744Y-77106572D01*
X170033572Y-77137288D01*
X170132695Y-77191781D01*
X170219345Y-77264489D01*
X170290223Y-77352643D01*
X170342628Y-77452886D01*
X170374565Y-77561398D01*
X170374570Y-77561457D01*
X170374574Y-77561469D01*
X170384819Y-77674039D01*
X170373003Y-77786470D01*
X170372999Y-77786482D01*
X170372993Y-77786541D01*
X170339544Y-77894596D01*
X170285745Y-77994097D01*
X170213643Y-78081253D01*
X170125986Y-78152744D01*
X170026112Y-78205848D01*
X169937714Y-78232537D01*
X169919923Y-78240791D01*
X169903756Y-78254876D01*
X169892154Y-78272908D01*
X169886034Y-78293458D01*
X169885882Y-78314900D01*
X169891709Y-78335535D01*
X169903054Y-78353730D01*
X169919019Y-78368043D01*
X169936744Y-78376572D01*
X170033572Y-78407288D01*
X170132695Y-78461781D01*
X170219345Y-78534489D01*
X170290223Y-78622643D01*
X170342628Y-78722886D01*
X170374565Y-78831398D01*
X170374570Y-78831457D01*
X170374574Y-78831469D01*
X170384819Y-78944039D01*
X170373003Y-79056470D01*
X170372999Y-79056482D01*
X170372993Y-79056541D01*
X170339544Y-79164596D01*
X170285745Y-79264097D01*
X170213643Y-79351253D01*
X170125986Y-79422744D01*
X170026112Y-79475848D01*
X169917825Y-79508542D01*
X169805251Y-79519580D01*
X169194628Y-79519580D01*
X169189751Y-79519546D01*
X169189745Y-79519545D01*
X169186657Y-79519524D01*
X169074248Y-79506915D01*
X168966428Y-79472712D01*
X168867305Y-79418219D01*
X168780655Y-79345511D01*
X168709777Y-79257357D01*
X168657372Y-79157114D01*
X168625435Y-79048602D01*
X168625430Y-79048543D01*
X168625426Y-79048531D01*
X168615181Y-78935961D01*
X168626997Y-78823530D01*
X168627001Y-78823518D01*
X168627007Y-78823459D01*
X168660456Y-78715404D01*
X168714255Y-78615903D01*
X168786357Y-78528747D01*
X168874014Y-78457256D01*
X168973888Y-78404152D01*
X169062286Y-78377463D01*
X169080077Y-78369209D01*
X169096244Y-78355124D01*
X169107846Y-78337092D01*
X169113966Y-78316542D01*
X169114118Y-78295100D01*
X169108291Y-78274465D01*
X169096946Y-78256270D01*
X169080981Y-78241957D01*
X169063256Y-78233428D01*
X168966428Y-78202712D01*
X168867305Y-78148219D01*
X168780655Y-78075511D01*
X168709777Y-77987357D01*
X168657372Y-77887114D01*
X168625435Y-77778602D01*
X168625430Y-77778543D01*
X168625426Y-77778531D01*
X168615181Y-77665961D01*
X168626997Y-77553530D01*
X168627001Y-77553518D01*
X168627007Y-77553459D01*
X168660456Y-77445404D01*
X168714255Y-77345903D01*
X168786357Y-77258747D01*
X168874014Y-77187256D01*
X168973888Y-77134152D01*
X169062286Y-77107463D01*
X169080077Y-77099209D01*
X169096244Y-77085124D01*
X169107846Y-77067092D01*
X169113966Y-77046542D01*
X169114118Y-77025100D01*
X169108291Y-77004465D01*
X169096946Y-76986270D01*
X169080981Y-76971957D01*
X169063256Y-76963428D01*
X168966428Y-76932712D01*
X168867305Y-76878219D01*
X168780655Y-76805511D01*
X168709777Y-76717357D01*
X168657372Y-76617114D01*
X168625435Y-76508602D01*
X168625430Y-76508543D01*
X168625426Y-76508531D01*
X168615181Y-76395961D01*
X168626997Y-76283530D01*
X168627001Y-76283518D01*
X168627007Y-76283459D01*
X168660456Y-76175404D01*
X168714255Y-76075903D01*
X168786357Y-75988747D01*
X168874014Y-75917256D01*
X168973888Y-75864152D01*
X169082175Y-75831458D01*
X169194749Y-75820420D01*
X169805372Y-75820420D01*
X169810249Y-75820454D01*
X169810249Y-75820454D01*
G37*
G36*
X108801409Y-60375079D02*
X110267171Y-60675956D01*
X111646572Y-61255803D01*
X112887083Y-62092539D01*
X113941438Y-63154279D01*
X114769491Y-64400600D01*
X115339693Y-65784013D01*
X115630225Y-67251312D01*
X115630225Y-67251324D01*
X115630327Y-67251840D01*
X115606462Y-68960920D01*
X115606346Y-68961429D01*
X115606346Y-68961448D01*
X115274958Y-70420056D01*
X114666350Y-71787014D01*
X113803823Y-73009723D01*
X112720229Y-74041616D01*
X111456842Y-74843386D01*
X110061785Y-75384493D01*
X108588199Y-75644326D01*
X107092205Y-75612989D01*
X106586387Y-75501778D01*
X106570024Y-75500000D01*
X99970346Y-75500000D01*
X99970346Y-60500000D01*
X106588303Y-60500000D01*
X106602581Y-60498650D01*
X107305126Y-60364632D01*
X108801409Y-60375079D01*
X108801409Y-60375079D01*
G37*
G36*
X175381272Y-51372414D02*
X176078616Y-51515558D01*
X176734872Y-51791423D01*
X177325049Y-52189502D01*
X177826661Y-52694629D01*
X178220612Y-53287572D01*
X178491887Y-53945734D01*
X178630054Y-54643532D01*
X178630054Y-54643544D01*
X178630156Y-54644060D01*
X178618802Y-55457161D01*
X178618686Y-55457670D01*
X178618686Y-55457690D01*
X178461089Y-56151351D01*
X178171542Y-56801687D01*
X177761192Y-57383394D01*
X177245667Y-57874322D01*
X176644606Y-58255767D01*
X175980901Y-58513201D01*
X175279838Y-58636818D01*
X174568113Y-58621909D01*
X173872843Y-58469044D01*
X173220499Y-58184042D01*
X172635939Y-57777763D01*
X172141423Y-57265677D01*
X171755794Y-56667296D01*
X171493733Y-56005405D01*
X171365225Y-55305223D01*
X171375165Y-54593408D01*
X171523173Y-53897083D01*
X171803610Y-53242775D01*
X172205804Y-52655386D01*
X172714422Y-52157311D01*
X173310096Y-51767512D01*
X173970140Y-51500837D01*
X174669410Y-51367444D01*
X175381272Y-51372414D01*
X175381272Y-51372414D01*
G37*
G36*
X105381272Y-51372414D02*
X106078616Y-51515558D01*
X106734872Y-51791423D01*
X107325049Y-52189502D01*
X107826661Y-52694629D01*
X108220612Y-53287572D01*
X108491887Y-53945734D01*
X108630054Y-54643532D01*
X108630054Y-54643544D01*
X108630156Y-54644060D01*
X108618802Y-55457161D01*
X108618686Y-55457670D01*
X108618686Y-55457690D01*
X108461089Y-56151351D01*
X108171542Y-56801687D01*
X107761192Y-57383394D01*
X107245667Y-57874322D01*
X106644606Y-58255767D01*
X105980901Y-58513201D01*
X105279838Y-58636818D01*
X104568113Y-58621909D01*
X103872843Y-58469044D01*
X103220499Y-58184042D01*
X102635939Y-57777763D01*
X102141423Y-57265677D01*
X101755794Y-56667296D01*
X101493733Y-56005405D01*
X101365225Y-55305223D01*
X101375165Y-54593408D01*
X101523173Y-53897083D01*
X101803610Y-53242775D01*
X102205804Y-52655386D01*
X102714422Y-52157311D01*
X103310096Y-51767512D01*
X103970140Y-51500837D01*
X104669410Y-51367444D01*
X105381272Y-51372414D01*
X105381272Y-51372414D01*
G37*
M02*
