G04 #@! TF.FileFunction,Copper,L1,Top,Signal*
%FSLAX46Y46*%
G04 Gerber Fmt 4.6, Leading zero omitted, Abs format (unit mm)*
G04 Created by KiCad (PCBNEW 4.0.1-stable) date 30.08.2016 22:59:34*
%MOMM*%
G01*
G04 APERTURE LIST*
%ADD10C,0.100000*%
%ADD11R,1.800000X1.800000*%
%ADD12O,1.800000X1.800000*%
%ADD13O,3.500120X5.501640*%
%ADD14C,1.800000*%
%ADD15R,0.900000X0.500000*%
%ADD16R,0.750000X0.800000*%
%ADD17C,7.000000*%
%ADD18O,1.501140X0.899160*%
%ADD19R,1.000000X1.250000*%
%ADD20R,3.200000X2.600000*%
%ADD21R,1.000000X3.200000*%
%ADD22R,0.500000X0.900000*%
%ADD23R,2.300000X2.300000*%
%ADD24C,2.300000*%
%ADD25C,15.000000*%
%ADD26C,0.700000*%
%ADD27C,0.900000*%
%ADD28C,0.500000*%
%ADD29C,0.300000*%
%ADD30C,0.250000*%
%ADD31C,1.800000*%
%ADD32C,0.254000*%
%ADD33C,0.200000*%
G04 APERTURE END LIST*
D10*
D11*
X164900000Y-118400000D03*
D12*
X154740000Y-118400000D03*
X152200000Y-118400000D03*
X149660000Y-118400000D03*
X147120000Y-118400000D03*
X144580000Y-118400000D03*
D13*
X159470000Y-77600000D03*
X154020000Y-77600000D03*
X164920000Y-77600000D03*
X120530000Y-77600000D03*
X115080000Y-77600000D03*
X125980000Y-77600000D03*
X120530000Y-122400000D03*
X125980000Y-122400000D03*
X115080000Y-122400000D03*
X159470000Y-122400000D03*
X164920000Y-122400000D03*
X154020000Y-122400000D03*
D14*
X133800000Y-110400000D03*
X133800000Y-102900000D03*
D15*
X174700000Y-78450000D03*
X174700000Y-76950000D03*
X175100000Y-122850000D03*
X175100000Y-121350000D03*
D16*
X173000000Y-78350000D03*
X173000000Y-76850000D03*
X173400000Y-122900000D03*
X173400000Y-121400000D03*
D17*
X105000000Y-55000000D03*
X105000000Y-145000000D03*
X175000000Y-55000000D03*
X175000000Y-145000000D03*
D18*
X169500000Y-77670000D03*
X169500000Y-78940000D03*
X169500000Y-76400000D03*
X169500000Y-122330000D03*
X169500000Y-123600000D03*
X169500000Y-121060000D03*
D14*
X146100000Y-90600000D03*
X146100000Y-98100000D03*
D19*
X118400000Y-137200000D03*
X116400000Y-137200000D03*
X159564400Y-126384360D03*
X157564400Y-126384360D03*
X118400000Y-133200000D03*
X116400000Y-133200000D03*
X159564400Y-130384360D03*
X157564400Y-130384360D03*
X118400000Y-129200000D03*
X116400000Y-129200000D03*
X159564400Y-134384360D03*
X157564400Y-134384360D03*
D20*
X120400000Y-81800000D03*
X120400000Y-89000000D03*
X159500000Y-118200000D03*
X159500000Y-111000000D03*
D21*
X120000000Y-136100000D03*
X126200000Y-136100000D03*
X155964400Y-127484360D03*
X149764400Y-127484360D03*
X120000000Y-132200000D03*
X126200000Y-132200000D03*
X155964400Y-131384360D03*
X149764400Y-131384360D03*
X120000000Y-128300000D03*
X126200000Y-128300000D03*
X155964400Y-135284360D03*
X149764400Y-135284360D03*
D19*
X163000000Y-73000000D03*
X165000000Y-73000000D03*
X163000000Y-71000000D03*
X165000000Y-71000000D03*
X163000000Y-69000000D03*
X165000000Y-69000000D03*
X163000000Y-67000000D03*
X165000000Y-67000000D03*
X163000000Y-65000000D03*
X165000000Y-65000000D03*
X163000000Y-63000000D03*
X165000000Y-63000000D03*
X120300000Y-73200000D03*
X122300000Y-73200000D03*
X120300000Y-71200000D03*
X122300000Y-71200000D03*
X120300000Y-69200000D03*
X122300000Y-69200000D03*
X120300000Y-67200000D03*
X122300000Y-67200000D03*
X120300000Y-65200000D03*
X122300000Y-65200000D03*
X120300000Y-63200000D03*
X122300000Y-63200000D03*
X118400000Y-135200000D03*
X116400000Y-135200000D03*
X118400000Y-131200000D03*
X116400000Y-131200000D03*
X118400000Y-127200000D03*
X116400000Y-127200000D03*
X159564400Y-128384360D03*
X157564400Y-128384360D03*
X159564400Y-132384360D03*
X157564400Y-132384360D03*
X159564400Y-136384360D03*
X157564400Y-136384360D03*
D21*
X161400000Y-64100000D03*
X155200000Y-64100000D03*
X161400000Y-68000000D03*
X155200000Y-68000000D03*
X161400000Y-71900000D03*
X155200000Y-71900000D03*
X123900000Y-72100000D03*
X130100000Y-72100000D03*
X123900000Y-68200000D03*
X130100000Y-68200000D03*
X123900000Y-64300000D03*
X130100000Y-64300000D03*
D22*
X177150000Y-81600000D03*
X178650000Y-81600000D03*
D11*
X173180000Y-92250000D03*
D12*
X175720000Y-92250000D03*
X173180000Y-94790000D03*
X175720000Y-94790000D03*
X173180000Y-97330000D03*
X175720000Y-97330000D03*
X173180000Y-99870000D03*
X175720000Y-99870000D03*
X173180000Y-102410000D03*
X175720000Y-102410000D03*
X173180000Y-104950000D03*
X175720000Y-104950000D03*
X173180000Y-107490000D03*
X175720000Y-107490000D03*
X173180000Y-110030000D03*
X175720000Y-110030000D03*
D23*
X159500000Y-92500000D03*
D24*
X159500000Y-107500000D03*
D23*
X120500000Y-107400000D03*
D24*
X120500000Y-92400000D03*
D11*
X154000000Y-81600000D03*
D12*
X164160000Y-81600000D03*
X166700000Y-81600000D03*
X169240000Y-81600000D03*
X171780000Y-81600000D03*
X174320000Y-81600000D03*
D11*
X115100000Y-81600000D03*
D12*
X125260000Y-81600000D03*
X127800000Y-81600000D03*
X130340000Y-81600000D03*
X132880000Y-81600000D03*
X135420000Y-81600000D03*
D11*
X126000000Y-118400000D03*
D12*
X115840000Y-118400000D03*
X113300000Y-118400000D03*
X110760000Y-118400000D03*
X108220000Y-118400000D03*
X105680000Y-118400000D03*
D25*
X108000000Y-108000000D03*
D26*
X108000000Y-102000000D03*
X105000000Y-102803848D03*
X102803848Y-105000000D03*
X102000000Y-108000000D03*
X102803848Y-111000000D03*
X105000000Y-113196152D03*
X108000000Y-114000000D03*
X111000000Y-113196152D03*
X113196152Y-111000000D03*
X114000000Y-108000000D03*
X113196152Y-105000000D03*
X111000000Y-102803848D03*
D25*
X108000000Y-92000000D03*
D26*
X108000000Y-86000000D03*
X105000000Y-86803848D03*
X102803848Y-89000000D03*
X102000000Y-92000000D03*
X102803848Y-95000000D03*
X105000000Y-97196152D03*
X108000000Y-98000000D03*
X111000000Y-97196152D03*
X113196152Y-95000000D03*
X114000000Y-92000000D03*
X113196152Y-89000000D03*
X111000000Y-86803848D03*
D25*
X108000000Y-68000000D03*
D26*
X108000000Y-62000000D03*
X105000000Y-62803848D03*
X102803848Y-65000000D03*
X102000000Y-68000000D03*
X102803848Y-71000000D03*
X105000000Y-73196152D03*
X108000000Y-74000000D03*
X111000000Y-73196152D03*
X113196152Y-71000000D03*
X114000000Y-68000000D03*
X113196152Y-65000000D03*
X111000000Y-62803848D03*
D25*
X108000000Y-132000000D03*
D26*
X108000000Y-126000000D03*
X105000000Y-126803848D03*
X102803848Y-129000000D03*
X102000000Y-132000000D03*
X102803848Y-135000000D03*
X105000000Y-137196152D03*
X108000000Y-138000000D03*
X111000000Y-137196152D03*
X113196152Y-135000000D03*
X114000000Y-132000000D03*
X113196152Y-129000000D03*
X111000000Y-126803848D03*
D27*
X175638088Y-84888742D03*
X175900000Y-116600000D03*
X166300000Y-84400000D03*
X146800001Y-82100000D03*
X147600000Y-79600000D03*
X150300000Y-82200000D03*
X141600000Y-79499980D03*
X142900000Y-118400000D03*
X169700000Y-106500000D03*
X132800000Y-120600000D03*
X172100000Y-117600000D03*
X171000000Y-115200000D03*
X164700000Y-111800000D03*
X167900000Y-108600000D03*
X165900000Y-110500000D03*
X171100000Y-110000000D03*
X169300000Y-111700000D03*
X167600000Y-113400000D03*
X165700000Y-88400000D03*
X176000000Y-115300000D03*
X176800000Y-117600000D03*
X179000000Y-116100000D03*
X177900000Y-114100000D03*
X167700000Y-117500000D03*
X137400000Y-82000000D03*
X144600000Y-120600000D03*
X139100000Y-120600000D03*
X128900000Y-120800000D03*
X150800000Y-79400000D03*
X165900000Y-115200000D03*
X165399980Y-85500020D03*
X148399998Y-119600000D03*
X128400000Y-131525000D03*
X128400000Y-128450000D03*
X128400000Y-127425000D03*
X128400000Y-129475000D03*
X128400000Y-134600000D03*
X128400000Y-137675000D03*
X128400000Y-136650000D03*
X128400000Y-133575000D03*
X128400000Y-135625000D03*
X127500000Y-137175000D03*
X127500000Y-136150000D03*
X127500000Y-135125000D03*
X127500000Y-134100000D03*
X127500000Y-133075000D03*
X127500000Y-132050000D03*
X127500000Y-131025000D03*
X127500000Y-128975000D03*
X127500000Y-127950000D03*
X127500000Y-126925000D03*
X128400000Y-132550000D03*
X147600000Y-125725000D03*
X147600000Y-127775000D03*
X147600000Y-126750000D03*
X148500000Y-126225000D03*
X148500000Y-136475000D03*
X147600000Y-135975000D03*
X147600000Y-131875000D03*
X148500000Y-131350000D03*
X148500000Y-132375000D03*
X147600000Y-128800000D03*
X148500000Y-130325000D03*
X148500000Y-129300000D03*
X147600000Y-129825000D03*
X148500000Y-128275000D03*
X147600000Y-133925000D03*
X147600000Y-134950000D03*
X148500000Y-135450000D03*
X148500000Y-134425000D03*
X148500000Y-127250000D03*
X147600000Y-130850000D03*
X147600000Y-124700000D03*
X148500000Y-125200000D03*
X148500000Y-137500000D03*
X147600000Y-138000000D03*
X147600000Y-137000000D03*
X147600000Y-132900000D03*
X148500000Y-133400000D03*
X160800000Y-129450000D03*
X160800000Y-128425000D03*
X160800000Y-130475000D03*
X160800000Y-127400000D03*
X160800000Y-126375000D03*
X160800000Y-125350000D03*
X160800000Y-131500000D03*
X160800000Y-132525000D03*
X160800000Y-133550000D03*
X160800000Y-134575000D03*
X160800000Y-136625000D03*
X160800000Y-135600000D03*
X160800000Y-137650000D03*
X158800000Y-135550000D03*
X158800000Y-136575000D03*
X158800000Y-137600000D03*
X158800000Y-134525000D03*
X158800000Y-132475000D03*
X158800000Y-131450000D03*
X158800000Y-133500000D03*
X158800000Y-125300000D03*
X158800000Y-127350000D03*
X158800000Y-126325000D03*
X158800000Y-129400000D03*
X158800000Y-128375000D03*
X158800000Y-130425000D03*
X128400000Y-125400000D03*
X128400000Y-130500000D03*
X128400000Y-126400000D03*
X128400000Y-138700000D03*
X127500000Y-138200000D03*
X127500000Y-130000000D03*
X127500000Y-125900000D03*
X115600000Y-126100000D03*
X115600000Y-127125000D03*
X115600000Y-128150000D03*
X115600000Y-129175000D03*
X115600000Y-130200000D03*
X115600000Y-131225000D03*
X115600000Y-132250000D03*
X115600000Y-135325000D03*
X115600000Y-134300000D03*
X115600000Y-133275000D03*
X115600000Y-136350000D03*
X115600000Y-137375000D03*
X115600000Y-138400000D03*
X117200000Y-138400000D03*
X117200000Y-137375000D03*
X117200000Y-136350000D03*
X117200000Y-135325000D03*
X117200000Y-134300000D03*
X117200000Y-133275000D03*
X117200000Y-132250000D03*
X117200000Y-131225000D03*
X117200000Y-130200000D03*
X117200000Y-129175000D03*
X117200000Y-128150000D03*
X117200000Y-127125000D03*
X117200000Y-126100000D03*
X153900000Y-73900000D03*
X166000000Y-67000000D03*
X166000000Y-68000000D03*
X166000000Y-69000000D03*
X166000000Y-70000000D03*
X166000000Y-71000000D03*
X166000000Y-72000000D03*
X166000000Y-73000000D03*
X166000000Y-74000000D03*
X166000000Y-65000000D03*
X166000000Y-66000000D03*
X153918692Y-72955880D03*
X153118692Y-73455880D03*
X153118692Y-63455880D03*
X153918692Y-64955880D03*
X153118692Y-64455880D03*
X153918692Y-63955880D03*
X153918692Y-61955880D03*
X153918692Y-62955880D03*
X153118692Y-62455880D03*
X153118692Y-61455880D03*
X153918692Y-70955880D03*
X153918692Y-71955880D03*
X153118692Y-71455880D03*
X153118692Y-70455880D03*
X153118692Y-72455880D03*
X153918692Y-67955880D03*
X153118692Y-67455880D03*
X153118692Y-68455880D03*
X153118692Y-69455880D03*
X153918692Y-69955880D03*
X153918692Y-68955880D03*
X153918692Y-65955880D03*
X153918692Y-66955880D03*
X153118692Y-65455880D03*
X153118692Y-66455880D03*
X166000000Y-64000000D03*
X166000000Y-63000000D03*
X166000000Y-62000000D03*
X164200000Y-63000000D03*
X164200000Y-62000000D03*
X164200000Y-64000000D03*
X164200000Y-70000000D03*
X164200000Y-69000000D03*
X164200000Y-67000000D03*
X164200000Y-68000000D03*
X164200000Y-65000000D03*
X164200000Y-66000000D03*
X164200000Y-74000000D03*
X164200000Y-72000000D03*
X164200000Y-73000000D03*
X164200000Y-71000000D03*
X132100000Y-61700000D03*
X132100000Y-62700000D03*
X132100000Y-63700000D03*
X132100000Y-64700000D03*
X132100000Y-65700000D03*
X132100000Y-66700000D03*
X132100000Y-67700000D03*
X132100000Y-68700000D03*
X132100000Y-69700000D03*
X132100000Y-70700000D03*
X132100000Y-71700000D03*
X132100000Y-72700000D03*
X132100000Y-73700000D03*
X132100000Y-74700000D03*
X131300000Y-74200000D03*
X131300000Y-73200000D03*
X131300000Y-72200000D03*
X131300000Y-71200000D03*
X131300000Y-70200000D03*
X131300000Y-69200000D03*
X131300000Y-68200000D03*
X131300000Y-67200000D03*
X131300000Y-66200000D03*
X131300000Y-65200000D03*
X131300000Y-64200000D03*
X131300000Y-63200000D03*
X131300000Y-62200000D03*
X119300000Y-74200000D03*
X119300000Y-73200000D03*
X119300000Y-72200000D03*
X119300000Y-71200000D03*
X119300000Y-70200000D03*
X119300000Y-69200000D03*
X119300000Y-68200000D03*
X119300000Y-67200000D03*
X119300000Y-66200000D03*
X119300000Y-65200000D03*
X119300000Y-64200000D03*
X119300000Y-63200000D03*
X119300000Y-62200000D03*
X121100000Y-62200000D03*
X121100000Y-74200000D03*
X121100000Y-72200000D03*
X121100000Y-70200000D03*
X121100000Y-68200000D03*
X121100000Y-66200000D03*
X121100000Y-64200000D03*
X121100000Y-73200000D03*
X121100000Y-71200000D03*
X121100000Y-69200000D03*
X121100000Y-67200000D03*
X121100000Y-65200000D03*
X121100000Y-63200000D03*
X165399980Y-86600033D03*
X174400000Y-96099990D03*
D28*
X175638088Y-84888742D02*
X169988742Y-84888742D01*
X169988742Y-84888742D02*
X166700000Y-81600000D01*
X175900000Y-116600000D02*
X175649995Y-116349995D01*
X175649995Y-116349995D02*
X153950005Y-116349995D01*
X153950005Y-116349995D02*
X152200000Y-118100000D01*
X152200000Y-118100000D02*
X152200000Y-118400000D01*
X146900001Y-82200000D02*
X146800001Y-82100000D01*
X150300000Y-82200000D02*
X146900001Y-82200000D01*
X147800000Y-79400000D02*
X147600000Y-79600000D01*
X150800000Y-79400000D02*
X147800000Y-79400000D01*
D29*
X173000000Y-76850000D02*
X173000000Y-76200000D01*
X173000000Y-76200000D02*
X173400000Y-75800000D01*
X173400000Y-75800000D02*
X178600000Y-75800000D01*
X178600000Y-75800000D02*
X179500000Y-76700000D01*
X179500000Y-76700000D02*
X179500000Y-112500000D01*
X179500000Y-112500000D02*
X177900000Y-114100000D01*
D28*
X142900000Y-118900000D02*
X142900000Y-118400000D01*
X144600000Y-120600000D02*
X142900000Y-118900000D01*
X165900000Y-115200000D02*
X165450016Y-115649984D01*
X165450016Y-115649984D02*
X152450016Y-115649984D01*
X151860000Y-116200000D02*
X149660000Y-118400000D01*
X152450016Y-115649984D02*
X151900000Y-116200000D01*
X151900000Y-116200000D02*
X151860000Y-116200000D01*
D30*
X169700000Y-106800000D02*
X169700000Y-106500000D01*
X167900000Y-108600000D02*
X169700000Y-106800000D01*
D28*
X132800000Y-120600000D02*
X132599989Y-120800011D01*
X132599989Y-120800011D02*
X128900011Y-120800011D01*
X128900011Y-120800011D02*
X128900000Y-120800000D01*
D30*
X167700000Y-117500000D02*
X172000000Y-117500000D01*
X172000000Y-117500000D02*
X172100000Y-117600000D01*
X171000000Y-115200000D02*
X175900000Y-115200000D01*
X165900000Y-115200000D02*
X171000000Y-115200000D01*
X164700000Y-111800000D02*
X165900000Y-110600000D01*
X165900000Y-110600000D02*
X165900000Y-110500000D01*
X169300000Y-111700000D02*
X169400000Y-111700000D01*
X169400000Y-111700000D02*
X171100000Y-110000000D01*
X165900000Y-115200000D02*
X165900000Y-115100000D01*
X165900000Y-115100000D02*
X167600000Y-113400000D01*
X175900000Y-115200000D02*
X176000000Y-115300000D01*
D29*
X177900000Y-114200000D02*
X179000000Y-115300000D01*
X179000000Y-115300000D02*
X179000000Y-116100000D01*
X177900000Y-114100000D02*
X177900000Y-114200000D01*
D30*
X169500000Y-121060000D02*
X169500000Y-119300000D01*
X169500000Y-119300000D02*
X167700000Y-117500000D01*
D29*
X171100000Y-76400000D02*
X171550000Y-76850000D01*
X171550000Y-76850000D02*
X173000000Y-76850000D01*
X169500000Y-76400000D02*
X171100000Y-76400000D01*
D30*
X169500000Y-121060000D02*
X169540000Y-121100000D01*
X169540000Y-121100000D02*
X171400000Y-121100000D01*
X171400000Y-121100000D02*
X171700000Y-121400000D01*
X171700000Y-121400000D02*
X173400000Y-121400000D01*
X169500000Y-121060000D02*
X169240000Y-121060000D01*
D28*
X117300000Y-94700000D02*
X117300000Y-92100000D01*
X117300000Y-92100000D02*
X120400000Y-89000000D01*
X120500000Y-97900000D02*
X117300000Y-94700000D01*
X120500000Y-107400000D02*
X120500000Y-97900000D01*
X120500000Y-107400000D02*
X108600000Y-107400000D01*
X108600000Y-107400000D02*
X108000000Y-108000000D01*
X133800000Y-110400000D02*
X158900000Y-110400000D01*
X158900000Y-110400000D02*
X159500000Y-111000000D01*
X133800000Y-110400000D02*
X133800000Y-107000000D01*
X133800000Y-107000000D02*
X146100000Y-94700000D01*
X146100000Y-94700000D02*
X146100000Y-90600000D01*
X120500000Y-107400000D02*
X120500000Y-122370000D01*
X120500000Y-122370000D02*
X120530000Y-122400000D01*
X120500000Y-107400000D02*
X130800000Y-107400000D01*
X130800000Y-107400000D02*
X133800000Y-110400000D01*
X120500000Y-107400000D02*
X120200000Y-107100000D01*
X108900000Y-107100000D02*
X108000000Y-108000000D01*
D29*
X120400000Y-89000000D02*
X120700000Y-89000000D01*
D30*
X155200000Y-87900000D02*
X155200000Y-90000000D01*
X155200000Y-90000000D02*
X157200000Y-92000000D01*
X157200000Y-92000000D02*
X159500000Y-92000000D01*
X146100000Y-89600000D02*
X153500000Y-89600000D01*
X153500000Y-89600000D02*
X155200000Y-87900000D01*
D29*
X159400000Y-111100000D02*
X159500000Y-111000000D01*
X155200000Y-71900000D02*
X155200000Y-72700000D01*
X133700000Y-111100000D02*
X133700000Y-109600000D01*
X133800000Y-111000000D02*
X133700000Y-111100000D01*
X159470000Y-82254000D02*
X159470000Y-77600000D01*
X159470000Y-77600000D02*
X159470000Y-76170000D01*
X159470000Y-76170000D02*
X155200000Y-71900000D01*
X155200000Y-71900000D02*
X155200000Y-73000000D01*
X159470000Y-77270000D02*
X159470000Y-77600000D01*
X155200000Y-68000000D02*
X155200000Y-71900000D01*
X155200000Y-64100000D02*
X155200000Y-68000000D01*
X126200000Y-127200000D02*
X121400000Y-122400000D01*
X126200000Y-128300000D02*
X126200000Y-127200000D01*
X121400000Y-122400000D02*
X120530000Y-122400000D01*
X126200000Y-132200000D02*
X126200000Y-128300000D01*
X126200000Y-136100000D02*
X126200000Y-132200000D01*
X158204000Y-83520000D02*
X159470000Y-82254000D01*
D30*
X155200000Y-87900000D02*
X155200000Y-86524000D01*
X155200000Y-86524000D02*
X158204000Y-83520000D01*
D29*
X130100000Y-72100000D02*
X130100000Y-73200000D01*
X130100000Y-73200000D02*
X125980000Y-77320000D01*
X125980000Y-77320000D02*
X125980000Y-77600000D01*
X130100000Y-68200000D02*
X130100000Y-72100000D01*
X130100000Y-64300000D02*
X130100000Y-68200000D01*
X149764400Y-127484360D02*
X149764400Y-126384360D01*
X149764400Y-126384360D02*
X153748760Y-122400000D01*
X153748760Y-122400000D02*
X154020000Y-122400000D01*
X153548760Y-122400000D02*
X154020000Y-122400000D01*
X149764400Y-131384360D02*
X149764400Y-127484360D01*
X149764400Y-135284360D02*
X149764400Y-131384360D01*
X125900000Y-77680000D02*
X125980000Y-77600000D01*
X171242812Y-85500020D02*
X166036376Y-85500020D01*
X175720000Y-92250000D02*
X175720000Y-89977208D01*
X166036376Y-85500020D02*
X165399980Y-85500020D01*
X175720000Y-89977208D02*
X171242812Y-85500020D01*
X175720000Y-92250000D02*
X175720000Y-91720000D01*
X171780000Y-81600000D02*
X173580000Y-83400000D01*
X173580000Y-83400000D02*
X176600000Y-83400000D01*
X176600000Y-83400000D02*
X176970005Y-83770005D01*
X176970005Y-83770005D02*
X176970005Y-93539995D01*
X176970005Y-93539995D02*
X175720000Y-94790000D01*
D30*
X175720000Y-94790000D02*
X175720000Y-94480000D01*
D29*
X150824989Y-114475011D02*
X147120000Y-118180000D01*
X175720000Y-97330000D02*
X174450000Y-98600000D01*
X174450000Y-98600000D02*
X172300000Y-98600000D01*
X171900011Y-101099989D02*
X171300000Y-101700000D01*
X172300000Y-98600000D02*
X171900011Y-98999989D01*
X171900011Y-98999989D02*
X171900011Y-101099989D01*
X171300000Y-101700000D02*
X171300000Y-107400000D01*
X171300000Y-107400000D02*
X164224989Y-114475011D01*
X164224989Y-114475011D02*
X150824989Y-114475011D01*
X147120000Y-118180000D02*
X147120000Y-118400000D01*
X148399998Y-118963604D02*
X148399998Y-119600000D01*
X148399998Y-117800002D02*
X148399998Y-118963604D01*
X151150026Y-115049974D02*
X148399998Y-117800002D01*
X164450026Y-115049974D02*
X151150026Y-115049974D01*
X171900000Y-107600000D02*
X164450026Y-115049974D01*
X173780001Y-101120001D02*
X172673869Y-101120001D01*
X171900000Y-101893870D02*
X171900000Y-107600000D01*
X175030002Y-99870000D02*
X173780001Y-101120001D01*
X175720000Y-99870000D02*
X175030002Y-99870000D01*
X172673869Y-101120001D02*
X171900000Y-101893870D01*
X175720000Y-99870000D02*
X175230000Y-99870000D01*
X175530000Y-99870000D02*
X175720000Y-99870000D01*
D30*
X175720000Y-104950000D02*
X178650000Y-102020000D01*
X178650000Y-102020000D02*
X178650000Y-82600000D01*
X178650000Y-82600000D02*
X178650000Y-81600000D01*
X174700000Y-78450000D02*
X173100000Y-78450000D01*
X173100000Y-78450000D02*
X173000000Y-78350000D01*
D29*
X171500000Y-78400000D02*
X172950000Y-78400000D01*
X172950000Y-78400000D02*
X173000000Y-78350000D01*
X169500000Y-78940000D02*
X170960000Y-78940000D01*
X170960000Y-78940000D02*
X171500000Y-78400000D01*
D30*
X169500000Y-123600000D02*
X169700000Y-123600000D01*
X169700000Y-123600000D02*
X170400000Y-122900000D01*
X170400000Y-122900000D02*
X173375000Y-122900000D01*
X173375000Y-122900000D02*
X173400000Y-122925000D01*
X173400000Y-122925000D02*
X173400000Y-122900000D01*
D29*
X175720000Y-104950000D02*
X175850000Y-104950000D01*
X175850000Y-104950000D02*
X177000000Y-106100000D01*
X177000000Y-106100000D02*
X177000000Y-114400000D01*
X177000000Y-114400000D02*
X178100000Y-115500000D01*
X178100000Y-115500000D02*
X178100000Y-119850000D01*
X178100000Y-119850000D02*
X175100000Y-122850000D01*
D30*
X178650000Y-81600000D02*
X178650000Y-80950000D01*
X178650000Y-80950000D02*
X176200000Y-78500000D01*
X176200000Y-78500000D02*
X174750000Y-78500000D01*
X174750000Y-78500000D02*
X174700000Y-78450000D01*
X174700000Y-78450000D02*
X174900000Y-78450000D01*
X174700000Y-78450000D02*
X174650000Y-78400000D01*
X175100000Y-122850000D02*
X173450000Y-122850000D01*
X173450000Y-122850000D02*
X173400000Y-122900000D01*
D29*
X177000000Y-100800000D02*
X176679999Y-101120001D01*
X169500000Y-77670000D02*
X169199010Y-77670000D01*
X169199010Y-77670000D02*
X168300000Y-78569010D01*
X168700000Y-79800000D02*
X170900000Y-79800000D01*
X168300000Y-78569010D02*
X168300000Y-79400000D01*
X176679999Y-101120001D02*
X175159997Y-101120001D01*
X168300000Y-79400000D02*
X168700000Y-79800000D01*
X170900000Y-79800000D02*
X171400000Y-79300000D01*
X171400000Y-79300000D02*
X176200000Y-79300000D01*
X176200000Y-79300000D02*
X178024989Y-81124989D01*
X178024989Y-81124989D02*
X178024989Y-95475011D01*
X174430001Y-101849997D02*
X174430001Y-108779999D01*
X178024989Y-95475011D02*
X177000000Y-96500000D01*
X177000000Y-96500000D02*
X177000000Y-100800000D01*
X175159997Y-101120001D02*
X174430001Y-101849997D01*
X174430001Y-108779999D02*
X174079999Y-109130001D01*
X174079999Y-109130001D02*
X173180000Y-110030000D01*
D30*
X169570000Y-77600000D02*
X174050000Y-77600000D01*
X174050000Y-77600000D02*
X174700000Y-76950000D01*
D29*
X169570000Y-77600000D02*
X169500000Y-77670000D01*
X169500000Y-77670000D02*
X169630000Y-77800000D01*
D30*
X169500000Y-122330000D02*
X169570000Y-122400000D01*
X169570000Y-122400000D02*
X172300000Y-122400000D01*
X172300000Y-122400000D02*
X172574999Y-122125001D01*
X172574999Y-122125001D02*
X174124999Y-122125001D01*
X174124999Y-122125001D02*
X174900000Y-121350000D01*
X174900000Y-121350000D02*
X175100000Y-121350000D01*
X175720000Y-110030000D02*
X176500000Y-110810000D01*
X177600000Y-115800000D02*
X177600000Y-119600000D01*
X176500000Y-110810000D02*
X176500000Y-114700000D01*
X176500000Y-114700000D02*
X177600000Y-115800000D01*
X177600000Y-119600000D02*
X175850000Y-121350000D01*
X175850000Y-121350000D02*
X175100000Y-121350000D01*
X175720000Y-110030000D02*
X175720000Y-109249130D01*
X175300000Y-121350000D02*
X175100000Y-121350000D01*
D29*
X116400000Y-127200000D02*
X116400000Y-126100000D01*
X116400000Y-126100000D02*
X116400000Y-125600000D01*
X115600000Y-126100000D02*
X116400000Y-126100000D01*
X159500000Y-118200000D02*
X159500000Y-122370000D01*
X159500000Y-122370000D02*
X159470000Y-122400000D01*
X159564400Y-126384360D02*
X159564400Y-122494400D01*
X159564400Y-122494400D02*
X159470000Y-122400000D01*
X127500000Y-126925000D02*
X127500000Y-125900000D01*
X127500000Y-127950000D02*
X127500000Y-126925000D01*
X127500000Y-128975000D02*
X127500000Y-127950000D01*
X127500000Y-131025000D02*
X127500000Y-128975000D01*
X127500000Y-132050000D02*
X127500000Y-131025000D01*
X127500000Y-133075000D02*
X127500000Y-132050000D01*
X127500000Y-134100000D02*
X127500000Y-133075000D01*
X127500000Y-135125000D02*
X127500000Y-134100000D01*
X127500000Y-136150000D02*
X127500000Y-135125000D01*
X127500000Y-137175000D02*
X127500000Y-136150000D01*
X128400000Y-137675000D02*
X128400000Y-138700000D01*
X128400000Y-136650000D02*
X128400000Y-137675000D01*
X128400000Y-135625000D02*
X128400000Y-136650000D01*
X128400000Y-134600000D02*
X128400000Y-135625000D01*
X128400000Y-133575000D02*
X128400000Y-134600000D01*
X128400000Y-132550000D02*
X128400000Y-133575000D01*
X128400000Y-131525000D02*
X128400000Y-132550000D01*
X128400000Y-129475000D02*
X128400000Y-130500000D01*
X128400000Y-128450000D02*
X128400000Y-129475000D01*
X128400000Y-127425000D02*
X128400000Y-128450000D01*
X127500000Y-125900000D02*
X127900000Y-125900000D01*
X127900000Y-125900000D02*
X128400000Y-125400000D01*
X127500000Y-138200000D02*
X127500000Y-137200000D01*
X128400000Y-138700000D02*
X128000000Y-138700000D01*
X128000000Y-138700000D02*
X127500000Y-138200000D01*
X128400000Y-130500000D02*
X128400000Y-131500000D01*
X128400000Y-126400000D02*
X128400000Y-127400000D01*
X147600000Y-135975000D02*
X147600000Y-137000000D01*
X147600000Y-134950000D02*
X147600000Y-135975000D01*
X147600000Y-133925000D02*
X147600000Y-134950000D01*
X147600000Y-131875000D02*
X147600000Y-132900000D01*
X147600000Y-130850000D02*
X147600000Y-131875000D01*
X147600000Y-129825000D02*
X147600000Y-130850000D01*
X147600000Y-128800000D02*
X147600000Y-129825000D01*
X147600000Y-127775000D02*
X147600000Y-128800000D01*
X147600000Y-126750000D02*
X147600000Y-127775000D01*
X147600000Y-125725000D02*
X147600000Y-126750000D01*
X148500000Y-126225000D02*
X148500000Y-125400000D01*
X148500000Y-127250000D02*
X148500000Y-126225000D01*
X148500000Y-128275000D02*
X148500000Y-127250000D01*
X148500000Y-129300000D02*
X148500000Y-128275000D01*
X148500000Y-130325000D02*
X148500000Y-129300000D01*
X148500000Y-131350000D02*
X148500000Y-130325000D01*
X148500000Y-132375000D02*
X148500000Y-131350000D01*
X148500000Y-134425000D02*
X148500000Y-132375000D01*
X148500000Y-135450000D02*
X148500000Y-134425000D01*
X148500000Y-136475000D02*
X148500000Y-135450000D01*
X147600000Y-132900000D02*
X147600000Y-133900000D01*
X147600000Y-124700000D02*
X147600000Y-125700000D01*
X148500000Y-125200000D02*
X148100000Y-125200000D01*
X148100000Y-125200000D02*
X147600000Y-124700000D01*
X148500000Y-137500000D02*
X148500000Y-136500000D01*
X148500000Y-137500000D02*
X158700000Y-137500000D01*
X158700000Y-137500000D02*
X158800000Y-137600000D01*
X147600000Y-137000000D02*
X147600000Y-138000000D01*
X147600000Y-137000000D02*
X148000000Y-137000000D01*
X148000000Y-137000000D02*
X148500000Y-137500000D01*
X158800000Y-136575000D02*
X159373760Y-136575000D01*
X159373760Y-136575000D02*
X159564400Y-136384360D01*
X158800000Y-137600000D02*
X160750000Y-137600000D01*
X160750000Y-137600000D02*
X160800000Y-137650000D01*
X160800000Y-126375000D02*
X160800000Y-125350000D01*
X160900000Y-137550000D02*
X160800000Y-137650000D01*
X160800000Y-137650000D02*
X160800000Y-136625000D01*
X160800000Y-136625000D02*
X160800000Y-135600000D01*
X160800000Y-135600000D02*
X160800000Y-134575000D01*
X160800000Y-133550000D02*
X160800000Y-132525000D01*
X160800000Y-133550000D02*
X160800000Y-134575000D01*
X160800000Y-132525000D02*
X160800000Y-131500000D01*
X160800000Y-131500000D02*
X160800000Y-130475000D01*
X160800000Y-130475000D02*
X160800000Y-129450000D01*
X160800000Y-129450000D02*
X160800000Y-128425000D01*
X160800000Y-128425000D02*
X160800000Y-127400000D01*
X160800000Y-127400000D02*
X160800000Y-126375000D01*
X158800000Y-136575000D02*
X158800000Y-137600000D01*
X158800000Y-135550000D02*
X158800000Y-136575000D01*
X158800000Y-134525000D02*
X158800000Y-135550000D01*
X158800000Y-133500000D02*
X158800000Y-134525000D01*
X158800000Y-132475000D02*
X158800000Y-133500000D01*
X158800000Y-131450000D02*
X158800000Y-132475000D01*
X158800000Y-130425000D02*
X158800000Y-131450000D01*
X158800000Y-129400000D02*
X158800000Y-130425000D01*
X158800000Y-128375000D02*
X158800000Y-129400000D01*
X158800000Y-127350000D02*
X158800000Y-128375000D01*
X158800000Y-126325000D02*
X158800000Y-127350000D01*
X158800000Y-125300000D02*
X158800000Y-126325000D01*
X160400000Y-135300000D02*
X160500000Y-135400000D01*
X158800000Y-129500000D02*
X158900000Y-129400000D01*
X128400000Y-126400000D02*
X128400000Y-125400000D01*
X128400000Y-126400000D02*
X128000000Y-126400000D01*
X128000000Y-126400000D02*
X127500000Y-125900000D01*
X115600000Y-131300000D02*
X115600000Y-130300000D01*
X115600000Y-130300000D02*
X115700000Y-130200000D01*
X115500000Y-132400000D02*
X115700000Y-132200000D01*
X115200000Y-134200000D02*
X115300000Y-134100000D01*
X117300000Y-137200000D02*
X117300000Y-138300000D01*
X117300000Y-138300000D02*
X117200000Y-138400000D01*
X117200000Y-135200000D02*
X117200000Y-136100000D01*
X117200000Y-136100000D02*
X117300000Y-136200000D01*
X117200000Y-133200000D02*
X117200000Y-134100000D01*
X117200000Y-131200000D02*
X117200000Y-132200000D01*
X117200000Y-129200000D02*
X117200000Y-130200000D01*
X117200000Y-127200000D02*
X117200000Y-128200000D01*
X116400000Y-125600000D02*
X116400000Y-123720000D01*
X116400000Y-125600000D02*
X116700000Y-125600000D01*
X116700000Y-125600000D02*
X117200000Y-126100000D01*
X115080000Y-122400000D02*
X115700000Y-122400000D01*
X159564400Y-128384360D02*
X159564400Y-126384360D01*
X159564400Y-130384360D02*
X159564400Y-128384360D01*
X159564400Y-132384360D02*
X159564400Y-130384360D01*
X159564400Y-134384360D02*
X159564400Y-132384360D01*
X159564400Y-136384360D02*
X159564400Y-134384360D01*
X116400000Y-123720000D02*
X115080000Y-122400000D01*
X116400000Y-135200000D02*
X116400000Y-137200000D01*
X116400000Y-133200000D02*
X116400000Y-135200000D01*
X116400000Y-131200000D02*
X116400000Y-133200000D01*
X116400000Y-129200000D02*
X116400000Y-131200000D01*
X116400000Y-127200000D02*
X116400000Y-129200000D01*
D28*
X103000000Y-127000000D02*
X108000000Y-132000000D01*
D29*
X120400000Y-81800000D02*
X120400000Y-80200000D01*
X120400000Y-80200000D02*
X120530000Y-80070000D01*
X120530000Y-80070000D02*
X120530000Y-77600000D01*
X166000000Y-72000000D02*
X166000000Y-73000000D01*
X166000000Y-70000000D02*
X166000000Y-71000000D01*
X166000000Y-68000000D02*
X166000000Y-69000000D01*
X166000000Y-69000000D02*
X166000000Y-70000000D01*
X166000000Y-73000000D02*
X166000000Y-74000000D01*
X166000000Y-66000000D02*
X166000000Y-67000000D01*
X166000000Y-65000000D02*
X166000000Y-66000000D01*
X166000000Y-64000000D02*
X166000000Y-65000000D01*
X153118692Y-73455880D02*
X153418692Y-73455880D01*
X153418692Y-73455880D02*
X153918692Y-73955880D01*
X154118692Y-61955880D02*
X164155880Y-61955880D01*
X164155880Y-61955880D02*
X164200000Y-62000000D01*
X153918692Y-64955880D02*
X153918692Y-63955880D01*
X153918692Y-62955880D02*
X153918692Y-61955880D01*
X153918692Y-66955880D02*
X153918692Y-65955880D01*
X153118692Y-65455880D02*
X153118692Y-64455880D01*
X153118692Y-62455880D02*
X153118692Y-61455880D01*
X153118692Y-66455880D02*
X153118692Y-65455880D01*
X153118692Y-63455880D02*
X153118692Y-62455880D01*
X153118692Y-64455880D02*
X153118692Y-63455880D01*
X153118692Y-72455880D02*
X153118692Y-71455880D01*
X153118692Y-73455880D02*
X153118692Y-72455880D01*
X153918692Y-73955880D02*
X153918692Y-72955880D01*
X153918692Y-73955880D02*
X153618692Y-73955880D01*
X153918692Y-71955880D02*
X153918692Y-70955880D01*
X153918692Y-68955880D02*
X153918692Y-67955880D01*
X153118692Y-71455880D02*
X153118692Y-70455880D01*
X153118692Y-67455880D02*
X153118692Y-66455880D01*
X153118692Y-69455880D02*
X153118692Y-68455880D01*
X153118692Y-70455880D02*
X153118692Y-69455880D01*
X153118692Y-68455880D02*
X153118692Y-67455880D01*
X153918692Y-70955880D02*
X153918692Y-69955880D01*
X166000000Y-62000000D02*
X165000000Y-63000000D01*
X164200000Y-62000000D02*
X164200000Y-62200000D01*
X164200000Y-62200000D02*
X165000000Y-63000000D01*
X164200000Y-70000000D02*
X164200000Y-71000000D01*
X164200000Y-71000000D02*
X164200000Y-72000000D01*
X164200000Y-72000000D02*
X164200000Y-73000000D01*
X164200000Y-69000000D02*
X164200000Y-70000000D01*
X164200000Y-73000000D02*
X164200000Y-74000000D01*
X164200000Y-66000000D02*
X164200000Y-67000000D01*
X164200000Y-65000000D02*
X164200000Y-66000000D01*
X164200000Y-67000000D02*
X164200000Y-68000000D01*
X164200000Y-68000000D02*
X164200000Y-69000000D01*
X164200000Y-62000000D02*
X164200000Y-63000000D01*
X164200000Y-64000000D02*
X164200000Y-65000000D01*
X164200000Y-63000000D02*
X164200000Y-64000000D01*
X132100000Y-73700000D02*
X132100000Y-74700000D01*
X132100000Y-72700000D02*
X132100000Y-73700000D01*
X132100000Y-71700000D02*
X132100000Y-72700000D01*
X132100000Y-70700000D02*
X132100000Y-71700000D01*
X132100000Y-69700000D02*
X132100000Y-70700000D01*
X132100000Y-68700000D02*
X132100000Y-69700000D01*
X132100000Y-67700000D02*
X132100000Y-68700000D01*
X132100000Y-66700000D02*
X132100000Y-67700000D01*
X132100000Y-65700000D02*
X132100000Y-66700000D01*
X132100000Y-64700000D02*
X132100000Y-65700000D01*
X132100000Y-63700000D02*
X132100000Y-64700000D01*
X131300000Y-62200000D02*
X131600000Y-62200000D01*
X131600000Y-62200000D02*
X132100000Y-61700000D01*
X132100000Y-62700000D02*
X132100000Y-63700000D01*
X131300000Y-73200000D02*
X131300000Y-74200000D01*
X131300000Y-71200000D02*
X131300000Y-72200000D01*
X131300000Y-69200000D02*
X131300000Y-70200000D01*
X131300000Y-67200000D02*
X131300000Y-68200000D01*
X131300000Y-65200000D02*
X131300000Y-66200000D01*
X131300000Y-64200000D02*
X131300000Y-65200000D01*
X131300000Y-62200000D02*
X131300000Y-63200000D01*
X121100000Y-62200000D02*
X131300000Y-62200000D01*
X119300000Y-73200000D02*
X120300000Y-73200000D01*
X119300000Y-73200000D02*
X119300000Y-74200000D01*
X119300000Y-72200000D02*
X119300000Y-73200000D01*
X119300000Y-71200000D02*
X119300000Y-72200000D01*
X119300000Y-70200000D02*
X119300000Y-71200000D01*
X119300000Y-69200000D02*
X119300000Y-70200000D01*
X119300000Y-68200000D02*
X119300000Y-69200000D01*
X119300000Y-67200000D02*
X119300000Y-68200000D01*
X119300000Y-66200000D02*
X119300000Y-67200000D01*
X119300000Y-65200000D02*
X119300000Y-66200000D01*
X119300000Y-64200000D02*
X119300000Y-65200000D01*
X119300000Y-63200000D02*
X119300000Y-64200000D01*
X119300000Y-62200000D02*
X119300000Y-63200000D01*
X121100000Y-73200000D02*
X121100000Y-74200000D01*
X121100000Y-69200000D02*
X121100000Y-70200000D01*
X121100000Y-65200000D02*
X121100000Y-66200000D01*
X120300000Y-73200000D02*
X121100000Y-73200000D01*
X120300000Y-71200000D02*
X121100000Y-71200000D01*
X120300000Y-69200000D02*
X121100000Y-69200000D01*
X120300000Y-67200000D02*
X121100000Y-67200000D01*
X120300000Y-65200000D02*
X121100000Y-65200000D01*
X120300000Y-63200000D02*
X121100000Y-63200000D01*
X120300000Y-73200000D02*
X120300000Y-77370000D01*
X120300000Y-77370000D02*
X120530000Y-77600000D01*
X120300000Y-71200000D02*
X120300000Y-73200000D01*
X120300000Y-69200000D02*
X120300000Y-71200000D01*
X120300000Y-67200000D02*
X120300000Y-69200000D01*
X120300000Y-65200000D02*
X120300000Y-67200000D01*
X120300000Y-63200000D02*
X120300000Y-65200000D01*
X165000000Y-73000000D02*
X165000000Y-77520000D01*
X165000000Y-77520000D02*
X164920000Y-77600000D01*
X165000000Y-71000000D02*
X165000000Y-73000000D01*
X165000000Y-69000000D02*
X165000000Y-71000000D01*
X165000000Y-67000000D02*
X165000000Y-69000000D01*
X165000000Y-65000000D02*
X165000000Y-67000000D01*
X165000000Y-63000000D02*
X165000000Y-65000000D01*
X120400000Y-77730000D02*
X120530000Y-77600000D01*
X165600000Y-76920000D02*
X164920000Y-77600000D01*
X154020000Y-77600000D02*
X154020000Y-81580000D01*
X154020000Y-81580000D02*
X154000000Y-81600000D01*
D28*
X115000000Y-80000000D02*
X114151472Y-80000000D01*
D31*
X126000000Y-122380000D02*
X126400000Y-121980000D01*
X126400000Y-121980000D02*
X126400000Y-121500000D01*
X126400000Y-121500000D02*
X126400000Y-118400000D01*
D29*
X126000000Y-122380000D02*
X125980000Y-122400000D01*
X161400000Y-71900000D02*
X161900000Y-71900000D01*
X161900000Y-71900000D02*
X163000000Y-73000000D01*
X161400000Y-68000000D02*
X162000000Y-68000000D01*
X162000000Y-68000000D02*
X163000000Y-69000000D01*
X161400000Y-64100000D02*
X162100000Y-64100000D01*
X162100000Y-64100000D02*
X163000000Y-65000000D01*
X163000000Y-71000000D02*
X163000000Y-73000000D01*
X163000000Y-69000000D02*
X163000000Y-71000000D01*
X163000000Y-67000000D02*
X163000000Y-69000000D01*
X163000000Y-65000000D02*
X163000000Y-67000000D01*
X163000000Y-63000000D02*
X163000000Y-65000000D01*
X174400000Y-96100000D02*
X174430001Y-96069999D01*
X174430001Y-96069999D02*
X174430001Y-89430001D01*
X174430001Y-89430001D02*
X171100000Y-86100000D01*
X171100000Y-86100000D02*
X166000000Y-86100000D01*
X166000000Y-86100000D02*
X165499967Y-86600033D01*
X165499967Y-86600033D02*
X165399980Y-86600033D01*
X177150000Y-81600000D02*
X177150000Y-82550000D01*
X177470016Y-82870017D02*
X177470016Y-95129984D01*
X177150000Y-82550000D02*
X177470016Y-82870017D01*
X177470016Y-95129984D02*
X176600000Y-96000000D01*
X174320000Y-81600000D02*
X177150000Y-81600000D01*
D30*
X174400000Y-96099990D02*
X172650880Y-96099990D01*
X172650880Y-96099990D02*
X170600000Y-98150870D01*
X170600000Y-98150870D02*
X170600000Y-107100000D01*
X170600000Y-107100000D02*
X163700000Y-114000000D01*
X163700000Y-114000000D02*
X148980000Y-114000000D01*
X148980000Y-114000000D02*
X144580000Y-118400000D01*
X175036396Y-96099990D02*
X174400000Y-96099990D01*
X176500010Y-96099990D02*
X175036396Y-96099990D01*
X176600000Y-96000000D02*
X176500010Y-96099990D01*
X174400000Y-96100000D02*
X174400000Y-96099990D01*
X174500000Y-96000000D02*
X174400000Y-96100000D01*
D29*
X118400000Y-135200000D02*
X119100000Y-135200000D01*
X119100000Y-135200000D02*
X120000000Y-136100000D01*
X118400000Y-131200000D02*
X119000000Y-131200000D01*
X119000000Y-131200000D02*
X120000000Y-132200000D01*
X118400000Y-127200000D02*
X118900000Y-127200000D01*
X118900000Y-127200000D02*
X120000000Y-128300000D01*
X118400000Y-135200000D02*
X118400000Y-137200000D01*
X118400000Y-133200000D02*
X118400000Y-135200000D01*
X118400000Y-131200000D02*
X118400000Y-133200000D01*
X118400000Y-129200000D02*
X118400000Y-131200000D01*
X118400000Y-127200000D02*
X118400000Y-129200000D01*
X122300000Y-71200000D02*
X123000000Y-71200000D01*
X123000000Y-71200000D02*
X123900000Y-72100000D01*
X122300000Y-67200000D02*
X122900000Y-67200000D01*
X122900000Y-67200000D02*
X123900000Y-68200000D01*
X122300000Y-63200000D02*
X122800000Y-63200000D01*
X122800000Y-63200000D02*
X123900000Y-64300000D01*
X122300000Y-71200000D02*
X122300000Y-73200000D01*
X122300000Y-69200000D02*
X122300000Y-71200000D01*
X122300000Y-67200000D02*
X122300000Y-69200000D01*
X122300000Y-65200000D02*
X122300000Y-67200000D01*
X122300000Y-63200000D02*
X122300000Y-65200000D01*
X157564400Y-136384360D02*
X157064400Y-136384360D01*
X157064400Y-136384360D02*
X155964400Y-135284360D01*
X157564400Y-132384360D02*
X156964400Y-132384360D01*
X156964400Y-132384360D02*
X155964400Y-131384360D01*
X157564400Y-128384360D02*
X156864400Y-128384360D01*
X156864400Y-128384360D02*
X155964400Y-127484360D01*
X157564400Y-134384360D02*
X157564400Y-136384360D01*
X157564400Y-132384360D02*
X157564400Y-134384360D01*
X157564400Y-130384360D02*
X157564400Y-132384360D01*
X157564400Y-128384360D02*
X157564400Y-130384360D01*
X157564400Y-126384360D02*
X157564400Y-128384360D01*
D32*
G36*
X160473000Y-74100000D02*
X160478028Y-74135381D01*
X160492714Y-74167961D01*
X160515895Y-74195160D01*
X160545736Y-74214823D01*
X160579873Y-74225395D01*
X160600000Y-74227000D01*
X161873000Y-74227000D01*
X161873000Y-81800000D01*
X161878028Y-81835381D01*
X161892714Y-81867961D01*
X161910197Y-81889803D01*
X162673000Y-82652606D01*
X162673000Y-113498000D01*
X148980000Y-113498000D01*
X148933868Y-113502523D01*
X148887656Y-113506567D01*
X148885121Y-113507303D01*
X148882494Y-113507561D01*
X148838108Y-113520962D01*
X148793574Y-113533900D01*
X148791230Y-113535115D01*
X148788703Y-113535878D01*
X148747770Y-113557643D01*
X148706592Y-113578987D01*
X148704528Y-113580634D01*
X148702197Y-113581874D01*
X148666253Y-113611189D01*
X148630023Y-113640111D01*
X148626351Y-113643732D01*
X148626274Y-113643795D01*
X148626215Y-113643866D01*
X148625033Y-113645032D01*
X145596706Y-116673359D01*
X143499574Y-116680652D01*
X143464211Y-116685803D01*
X143431682Y-116700602D01*
X143410351Y-116717711D01*
X141850284Y-118273000D01*
X128077000Y-118273000D01*
X128077000Y-117500000D01*
X128051217Y-117362977D01*
X127970237Y-117237129D01*
X127846674Y-117152702D01*
X127700000Y-117123000D01*
X126912835Y-117123000D01*
X126900000Y-117121176D01*
X125100000Y-117121176D01*
X125039964Y-117125963D01*
X124963333Y-117149694D01*
X124958138Y-117150709D01*
X124956458Y-117151823D01*
X124938137Y-117157497D01*
X124849126Y-117216151D01*
X124835689Y-117231917D01*
X124833421Y-117233421D01*
X123933421Y-118133421D01*
X123852702Y-118253326D01*
X123823000Y-118400000D01*
X123823000Y-123600000D01*
X123848783Y-123737023D01*
X123890835Y-123802375D01*
X123893450Y-123829042D01*
X124013435Y-124226454D01*
X124208327Y-124592991D01*
X124470700Y-124914693D01*
X124790563Y-125179307D01*
X125155731Y-125376752D01*
X125552295Y-125499509D01*
X125965150Y-125542902D01*
X126378571Y-125505278D01*
X126673000Y-125418623D01*
X126673000Y-125891710D01*
X126671913Y-125969536D01*
X126673000Y-125975458D01*
X126673000Y-126916710D01*
X126671913Y-126994536D01*
X126673000Y-127000458D01*
X126673000Y-127941710D01*
X126671913Y-128019536D01*
X126673000Y-128025458D01*
X126673000Y-128966710D01*
X126671913Y-129044536D01*
X126673000Y-129050458D01*
X126673000Y-129991710D01*
X126671913Y-130069536D01*
X126673000Y-130075458D01*
X126673000Y-131016710D01*
X126671913Y-131094536D01*
X126673000Y-131100458D01*
X126673000Y-132041710D01*
X126671913Y-132119536D01*
X126673000Y-132125458D01*
X126673000Y-133066710D01*
X126671913Y-133144536D01*
X126673000Y-133150458D01*
X126673000Y-134091710D01*
X126671913Y-134169536D01*
X126673000Y-134175458D01*
X126673000Y-135116710D01*
X126671913Y-135194536D01*
X126673000Y-135200458D01*
X126673000Y-136141710D01*
X126671913Y-136219536D01*
X126673000Y-136225458D01*
X126673000Y-137166710D01*
X126671913Y-137244536D01*
X126673000Y-137250458D01*
X126673000Y-137673000D01*
X120927000Y-137673000D01*
X120927000Y-126200000D01*
X120921972Y-126164619D01*
X120907286Y-126132039D01*
X120884105Y-126104840D01*
X120854264Y-126085177D01*
X120820127Y-126074605D01*
X120800000Y-126073000D01*
X118227000Y-126073000D01*
X118227000Y-120600000D01*
X118221972Y-120564619D01*
X118207286Y-120532039D01*
X118189803Y-120510197D01*
X117527000Y-119847394D01*
X117527000Y-117900000D01*
X117521972Y-117864619D01*
X117507286Y-117832039D01*
X117489803Y-117810197D01*
X116789803Y-117110197D01*
X116761229Y-117088734D01*
X116727807Y-117076082D01*
X116700000Y-117073000D01*
X100427000Y-117073000D01*
X100427000Y-107628394D01*
X157970992Y-107628394D01*
X158025051Y-107922935D01*
X158135289Y-108201366D01*
X158297509Y-108453082D01*
X158505532Y-108668496D01*
X158751434Y-108839402D01*
X159025848Y-108959291D01*
X159318322Y-109023595D01*
X159617717Y-109029867D01*
X159912628Y-108977866D01*
X160191822Y-108869574D01*
X160444664Y-108709115D01*
X160661525Y-108502601D01*
X160834143Y-108257899D01*
X160955945Y-107984328D01*
X161022290Y-107692310D01*
X161027066Y-107350270D01*
X160968901Y-107056513D01*
X160854785Y-106779648D01*
X160689066Y-106530221D01*
X160478056Y-106317733D01*
X160229793Y-106150277D01*
X159953731Y-106034231D01*
X159660387Y-105974017D01*
X159360934Y-105971926D01*
X159066778Y-106028039D01*
X158789124Y-106140219D01*
X158538546Y-106304192D01*
X158324590Y-106513714D01*
X158155405Y-106760802D01*
X158037435Y-107036047D01*
X157975173Y-107328963D01*
X157970992Y-107628394D01*
X100427000Y-107628394D01*
X100427000Y-103007374D01*
X132521321Y-103007374D01*
X132566529Y-103253692D01*
X132658720Y-103486538D01*
X132794381Y-103697044D01*
X132968346Y-103877190D01*
X133173989Y-104020115D01*
X133403476Y-104120376D01*
X133648067Y-104174152D01*
X133898444Y-104179397D01*
X134145072Y-104135910D01*
X134378557Y-104045347D01*
X134590004Y-103911159D01*
X134771360Y-103738456D01*
X134915718Y-103533816D01*
X135017578Y-103305034D01*
X135073061Y-103060825D01*
X135077055Y-102774784D01*
X135028412Y-102529120D01*
X134932980Y-102297584D01*
X134794392Y-102088993D01*
X134617929Y-101911294D01*
X134410311Y-101771253D01*
X134179446Y-101674207D01*
X133934129Y-101623850D01*
X133683702Y-101622102D01*
X133437705Y-101669028D01*
X133205508Y-101762842D01*
X132995955Y-101899970D01*
X132817028Y-102075188D01*
X132675542Y-102281824D01*
X132576886Y-102512005D01*
X132524818Y-102756965D01*
X132521321Y-103007374D01*
X100427000Y-103007374D01*
X100427000Y-99877000D01*
X107901411Y-99877000D01*
X108607240Y-99891785D01*
X110128531Y-99623541D01*
X111568747Y-99064918D01*
X112873030Y-98237194D01*
X112904344Y-98207374D01*
X144821321Y-98207374D01*
X144866529Y-98453692D01*
X144958720Y-98686538D01*
X145094381Y-98897044D01*
X145268346Y-99077190D01*
X145473989Y-99220115D01*
X145703476Y-99320376D01*
X145948067Y-99374152D01*
X146198444Y-99379397D01*
X146445072Y-99335910D01*
X146678557Y-99245347D01*
X146890004Y-99111159D01*
X147071360Y-98938456D01*
X147215718Y-98733816D01*
X147317578Y-98505034D01*
X147373061Y-98260825D01*
X147377055Y-97974784D01*
X147328412Y-97729120D01*
X147232980Y-97497584D01*
X147094392Y-97288993D01*
X146917929Y-97111294D01*
X146710311Y-96971253D01*
X146479446Y-96874207D01*
X146234129Y-96823850D01*
X145983702Y-96822102D01*
X145737705Y-96869028D01*
X145505508Y-96962842D01*
X145295955Y-97099970D01*
X145117028Y-97275188D01*
X144975542Y-97481824D01*
X144876886Y-97712005D01*
X144824818Y-97956965D01*
X144821321Y-98207374D01*
X112904344Y-98207374D01*
X113991701Y-97171898D01*
X114882151Y-95909606D01*
X115510461Y-94498398D01*
X115852700Y-92992027D01*
X115859173Y-92528394D01*
X118970992Y-92528394D01*
X119025051Y-92822935D01*
X119135289Y-93101366D01*
X119297509Y-93353082D01*
X119505532Y-93568496D01*
X119751434Y-93739402D01*
X120025848Y-93859291D01*
X120318322Y-93923595D01*
X120617717Y-93929867D01*
X120912628Y-93877866D01*
X121191822Y-93769574D01*
X121444664Y-93609115D01*
X121661525Y-93402601D01*
X121834143Y-93157899D01*
X121955945Y-92884328D01*
X122022290Y-92592310D01*
X122027066Y-92250270D01*
X121968901Y-91956513D01*
X121854785Y-91679648D01*
X121689066Y-91430221D01*
X121478056Y-91217733D01*
X121229793Y-91050277D01*
X120953731Y-90934231D01*
X120660387Y-90874017D01*
X120360934Y-90871926D01*
X120066778Y-90928039D01*
X119789124Y-91040219D01*
X119538546Y-91204192D01*
X119324590Y-91413714D01*
X119155405Y-91660802D01*
X119037435Y-91936047D01*
X118975173Y-92228963D01*
X118970992Y-92528394D01*
X115859173Y-92528394D01*
X115877337Y-91227620D01*
X115577292Y-89712281D01*
X114988630Y-88284080D01*
X114133773Y-86997417D01*
X113045283Y-85901301D01*
X111764619Y-85037482D01*
X110340563Y-84438864D01*
X109308442Y-84227000D01*
X135200000Y-84227000D01*
X135235381Y-84221972D01*
X135267961Y-84207286D01*
X135289803Y-84189803D01*
X136452606Y-83027000D01*
X150289673Y-83027000D01*
X150363754Y-83028552D01*
X150372556Y-83027000D01*
X156000000Y-83027000D01*
X156035381Y-83021972D01*
X156067961Y-83007286D01*
X156095160Y-82984105D01*
X156114823Y-82954264D01*
X156125395Y-82920127D01*
X156127000Y-82900000D01*
X156127000Y-82676381D01*
X156147298Y-82646674D01*
X156177000Y-82500000D01*
X156177000Y-76629576D01*
X156152331Y-76495443D01*
X156135802Y-76469286D01*
X156127000Y-76379518D01*
X156127000Y-76300000D01*
X156121972Y-76264619D01*
X156114000Y-76246933D01*
X156106550Y-76170958D01*
X155986565Y-75773546D01*
X155791673Y-75407009D01*
X155529300Y-75085307D01*
X155209437Y-74820693D01*
X154844269Y-74623248D01*
X154827000Y-74617902D01*
X154827000Y-62627000D01*
X160473000Y-62627000D01*
X160473000Y-74100000D01*
X160473000Y-74100000D01*
G37*
X160473000Y-74100000D02*
X160478028Y-74135381D01*
X160492714Y-74167961D01*
X160515895Y-74195160D01*
X160545736Y-74214823D01*
X160579873Y-74225395D01*
X160600000Y-74227000D01*
X161873000Y-74227000D01*
X161873000Y-81800000D01*
X161878028Y-81835381D01*
X161892714Y-81867961D01*
X161910197Y-81889803D01*
X162673000Y-82652606D01*
X162673000Y-113498000D01*
X148980000Y-113498000D01*
X148933868Y-113502523D01*
X148887656Y-113506567D01*
X148885121Y-113507303D01*
X148882494Y-113507561D01*
X148838108Y-113520962D01*
X148793574Y-113533900D01*
X148791230Y-113535115D01*
X148788703Y-113535878D01*
X148747770Y-113557643D01*
X148706592Y-113578987D01*
X148704528Y-113580634D01*
X148702197Y-113581874D01*
X148666253Y-113611189D01*
X148630023Y-113640111D01*
X148626351Y-113643732D01*
X148626274Y-113643795D01*
X148626215Y-113643866D01*
X148625033Y-113645032D01*
X145596706Y-116673359D01*
X143499574Y-116680652D01*
X143464211Y-116685803D01*
X143431682Y-116700602D01*
X143410351Y-116717711D01*
X141850284Y-118273000D01*
X128077000Y-118273000D01*
X128077000Y-117500000D01*
X128051217Y-117362977D01*
X127970237Y-117237129D01*
X127846674Y-117152702D01*
X127700000Y-117123000D01*
X126912835Y-117123000D01*
X126900000Y-117121176D01*
X125100000Y-117121176D01*
X125039964Y-117125963D01*
X124963333Y-117149694D01*
X124958138Y-117150709D01*
X124956458Y-117151823D01*
X124938137Y-117157497D01*
X124849126Y-117216151D01*
X124835689Y-117231917D01*
X124833421Y-117233421D01*
X123933421Y-118133421D01*
X123852702Y-118253326D01*
X123823000Y-118400000D01*
X123823000Y-123600000D01*
X123848783Y-123737023D01*
X123890835Y-123802375D01*
X123893450Y-123829042D01*
X124013435Y-124226454D01*
X124208327Y-124592991D01*
X124470700Y-124914693D01*
X124790563Y-125179307D01*
X125155731Y-125376752D01*
X125552295Y-125499509D01*
X125965150Y-125542902D01*
X126378571Y-125505278D01*
X126673000Y-125418623D01*
X126673000Y-125891710D01*
X126671913Y-125969536D01*
X126673000Y-125975458D01*
X126673000Y-126916710D01*
X126671913Y-126994536D01*
X126673000Y-127000458D01*
X126673000Y-127941710D01*
X126671913Y-128019536D01*
X126673000Y-128025458D01*
X126673000Y-128966710D01*
X126671913Y-129044536D01*
X126673000Y-129050458D01*
X126673000Y-129991710D01*
X126671913Y-130069536D01*
X126673000Y-130075458D01*
X126673000Y-131016710D01*
X126671913Y-131094536D01*
X126673000Y-131100458D01*
X126673000Y-132041710D01*
X126671913Y-132119536D01*
X126673000Y-132125458D01*
X126673000Y-133066710D01*
X126671913Y-133144536D01*
X126673000Y-133150458D01*
X126673000Y-134091710D01*
X126671913Y-134169536D01*
X126673000Y-134175458D01*
X126673000Y-135116710D01*
X126671913Y-135194536D01*
X126673000Y-135200458D01*
X126673000Y-136141710D01*
X126671913Y-136219536D01*
X126673000Y-136225458D01*
X126673000Y-137166710D01*
X126671913Y-137244536D01*
X126673000Y-137250458D01*
X126673000Y-137673000D01*
X120927000Y-137673000D01*
X120927000Y-126200000D01*
X120921972Y-126164619D01*
X120907286Y-126132039D01*
X120884105Y-126104840D01*
X120854264Y-126085177D01*
X120820127Y-126074605D01*
X120800000Y-126073000D01*
X118227000Y-126073000D01*
X118227000Y-120600000D01*
X118221972Y-120564619D01*
X118207286Y-120532039D01*
X118189803Y-120510197D01*
X117527000Y-119847394D01*
X117527000Y-117900000D01*
X117521972Y-117864619D01*
X117507286Y-117832039D01*
X117489803Y-117810197D01*
X116789803Y-117110197D01*
X116761229Y-117088734D01*
X116727807Y-117076082D01*
X116700000Y-117073000D01*
X100427000Y-117073000D01*
X100427000Y-107628394D01*
X157970992Y-107628394D01*
X158025051Y-107922935D01*
X158135289Y-108201366D01*
X158297509Y-108453082D01*
X158505532Y-108668496D01*
X158751434Y-108839402D01*
X159025848Y-108959291D01*
X159318322Y-109023595D01*
X159617717Y-109029867D01*
X159912628Y-108977866D01*
X160191822Y-108869574D01*
X160444664Y-108709115D01*
X160661525Y-108502601D01*
X160834143Y-108257899D01*
X160955945Y-107984328D01*
X161022290Y-107692310D01*
X161027066Y-107350270D01*
X160968901Y-107056513D01*
X160854785Y-106779648D01*
X160689066Y-106530221D01*
X160478056Y-106317733D01*
X160229793Y-106150277D01*
X159953731Y-106034231D01*
X159660387Y-105974017D01*
X159360934Y-105971926D01*
X159066778Y-106028039D01*
X158789124Y-106140219D01*
X158538546Y-106304192D01*
X158324590Y-106513714D01*
X158155405Y-106760802D01*
X158037435Y-107036047D01*
X157975173Y-107328963D01*
X157970992Y-107628394D01*
X100427000Y-107628394D01*
X100427000Y-103007374D01*
X132521321Y-103007374D01*
X132566529Y-103253692D01*
X132658720Y-103486538D01*
X132794381Y-103697044D01*
X132968346Y-103877190D01*
X133173989Y-104020115D01*
X133403476Y-104120376D01*
X133648067Y-104174152D01*
X133898444Y-104179397D01*
X134145072Y-104135910D01*
X134378557Y-104045347D01*
X134590004Y-103911159D01*
X134771360Y-103738456D01*
X134915718Y-103533816D01*
X135017578Y-103305034D01*
X135073061Y-103060825D01*
X135077055Y-102774784D01*
X135028412Y-102529120D01*
X134932980Y-102297584D01*
X134794392Y-102088993D01*
X134617929Y-101911294D01*
X134410311Y-101771253D01*
X134179446Y-101674207D01*
X133934129Y-101623850D01*
X133683702Y-101622102D01*
X133437705Y-101669028D01*
X133205508Y-101762842D01*
X132995955Y-101899970D01*
X132817028Y-102075188D01*
X132675542Y-102281824D01*
X132576886Y-102512005D01*
X132524818Y-102756965D01*
X132521321Y-103007374D01*
X100427000Y-103007374D01*
X100427000Y-99877000D01*
X107901411Y-99877000D01*
X108607240Y-99891785D01*
X110128531Y-99623541D01*
X111568747Y-99064918D01*
X112873030Y-98237194D01*
X112904344Y-98207374D01*
X144821321Y-98207374D01*
X144866529Y-98453692D01*
X144958720Y-98686538D01*
X145094381Y-98897044D01*
X145268346Y-99077190D01*
X145473989Y-99220115D01*
X145703476Y-99320376D01*
X145948067Y-99374152D01*
X146198444Y-99379397D01*
X146445072Y-99335910D01*
X146678557Y-99245347D01*
X146890004Y-99111159D01*
X147071360Y-98938456D01*
X147215718Y-98733816D01*
X147317578Y-98505034D01*
X147373061Y-98260825D01*
X147377055Y-97974784D01*
X147328412Y-97729120D01*
X147232980Y-97497584D01*
X147094392Y-97288993D01*
X146917929Y-97111294D01*
X146710311Y-96971253D01*
X146479446Y-96874207D01*
X146234129Y-96823850D01*
X145983702Y-96822102D01*
X145737705Y-96869028D01*
X145505508Y-96962842D01*
X145295955Y-97099970D01*
X145117028Y-97275188D01*
X144975542Y-97481824D01*
X144876886Y-97712005D01*
X144824818Y-97956965D01*
X144821321Y-98207374D01*
X112904344Y-98207374D01*
X113991701Y-97171898D01*
X114882151Y-95909606D01*
X115510461Y-94498398D01*
X115852700Y-92992027D01*
X115859173Y-92528394D01*
X118970992Y-92528394D01*
X119025051Y-92822935D01*
X119135289Y-93101366D01*
X119297509Y-93353082D01*
X119505532Y-93568496D01*
X119751434Y-93739402D01*
X120025848Y-93859291D01*
X120318322Y-93923595D01*
X120617717Y-93929867D01*
X120912628Y-93877866D01*
X121191822Y-93769574D01*
X121444664Y-93609115D01*
X121661525Y-93402601D01*
X121834143Y-93157899D01*
X121955945Y-92884328D01*
X122022290Y-92592310D01*
X122027066Y-92250270D01*
X121968901Y-91956513D01*
X121854785Y-91679648D01*
X121689066Y-91430221D01*
X121478056Y-91217733D01*
X121229793Y-91050277D01*
X120953731Y-90934231D01*
X120660387Y-90874017D01*
X120360934Y-90871926D01*
X120066778Y-90928039D01*
X119789124Y-91040219D01*
X119538546Y-91204192D01*
X119324590Y-91413714D01*
X119155405Y-91660802D01*
X119037435Y-91936047D01*
X118975173Y-92228963D01*
X118970992Y-92528394D01*
X115859173Y-92528394D01*
X115877337Y-91227620D01*
X115577292Y-89712281D01*
X114988630Y-88284080D01*
X114133773Y-86997417D01*
X113045283Y-85901301D01*
X111764619Y-85037482D01*
X110340563Y-84438864D01*
X109308442Y-84227000D01*
X135200000Y-84227000D01*
X135235381Y-84221972D01*
X135267961Y-84207286D01*
X135289803Y-84189803D01*
X136452606Y-83027000D01*
X150289673Y-83027000D01*
X150363754Y-83028552D01*
X150372556Y-83027000D01*
X156000000Y-83027000D01*
X156035381Y-83021972D01*
X156067961Y-83007286D01*
X156095160Y-82984105D01*
X156114823Y-82954264D01*
X156125395Y-82920127D01*
X156127000Y-82900000D01*
X156127000Y-82676381D01*
X156147298Y-82646674D01*
X156177000Y-82500000D01*
X156177000Y-76629576D01*
X156152331Y-76495443D01*
X156135802Y-76469286D01*
X156127000Y-76379518D01*
X156127000Y-76300000D01*
X156121972Y-76264619D01*
X156114000Y-76246933D01*
X156106550Y-76170958D01*
X155986565Y-75773546D01*
X155791673Y-75407009D01*
X155529300Y-75085307D01*
X155209437Y-74820693D01*
X154844269Y-74623248D01*
X154827000Y-74617902D01*
X154827000Y-62627000D01*
X160473000Y-62627000D01*
X160473000Y-74100000D01*
G36*
X170073000Y-75473000D02*
X168400000Y-75473000D01*
X168364619Y-75478028D01*
X168332039Y-75492714D01*
X168304840Y-75515895D01*
X168285177Y-75545736D01*
X168274605Y-75579873D01*
X168273000Y-75600000D01*
X168273000Y-77850720D01*
X167927355Y-78196365D01*
X167896499Y-78233930D01*
X167865165Y-78271272D01*
X167863828Y-78273704D01*
X167862071Y-78275843D01*
X167839061Y-78318756D01*
X167815616Y-78361403D01*
X167814779Y-78364040D01*
X167813468Y-78366486D01*
X167799248Y-78413000D01*
X167784516Y-78459441D01*
X167784206Y-78462201D01*
X167783398Y-78464845D01*
X167778484Y-78513214D01*
X167773051Y-78561652D01*
X167773013Y-78567067D01*
X167773003Y-78567170D01*
X167773012Y-78567266D01*
X167773000Y-78569010D01*
X167773000Y-79400000D01*
X167777749Y-79448434D01*
X167781993Y-79496942D01*
X167782767Y-79499605D01*
X167783037Y-79502362D01*
X167791754Y-79531232D01*
X167349798Y-80503535D01*
X167209243Y-80426264D01*
X166971682Y-80350906D01*
X166724009Y-80323124D01*
X166706179Y-80323000D01*
X166693821Y-80323000D01*
X166445784Y-80347320D01*
X166207194Y-80419355D01*
X165987140Y-80536360D01*
X165794003Y-80693878D01*
X165635140Y-80885911D01*
X165516602Y-81105143D01*
X165442903Y-81343223D01*
X165416852Y-81591085D01*
X165439440Y-81839286D01*
X165474419Y-81958134D01*
X165476460Y-82473000D01*
X163152194Y-82473000D01*
X163149291Y-82458138D01*
X163066579Y-82333421D01*
X162427000Y-81693842D01*
X162427000Y-78000000D01*
X162421972Y-77964619D01*
X162407286Y-77932039D01*
X162384105Y-77904840D01*
X162377000Y-77900158D01*
X162377000Y-74100000D01*
X162372672Y-74077000D01*
X163500000Y-74077000D01*
X163637023Y-74051217D01*
X163762871Y-73970237D01*
X163847298Y-73846674D01*
X163877000Y-73700000D01*
X163877000Y-73637835D01*
X163878824Y-73625000D01*
X163878824Y-72375000D01*
X163877000Y-72352124D01*
X163877000Y-71637835D01*
X163878824Y-71625000D01*
X163878824Y-70375000D01*
X163877000Y-70352124D01*
X163877000Y-69637835D01*
X163878824Y-69625000D01*
X163878824Y-68375000D01*
X163877000Y-68352124D01*
X163877000Y-67637835D01*
X163878824Y-67625000D01*
X163878824Y-66375000D01*
X163877000Y-66352124D01*
X163877000Y-65637835D01*
X163878824Y-65625000D01*
X163878824Y-64375000D01*
X163877000Y-64352124D01*
X163877000Y-63637835D01*
X163878824Y-63625000D01*
X163878824Y-62375000D01*
X163877000Y-62352124D01*
X163877000Y-62300000D01*
X163851217Y-62162977D01*
X163770237Y-62037129D01*
X163646674Y-61952702D01*
X163500000Y-61923000D01*
X160900000Y-61923000D01*
X160762977Y-61948783D01*
X160637129Y-62029763D01*
X160573423Y-62123000D01*
X155712835Y-62123000D01*
X155700000Y-62121176D01*
X154700000Y-62121176D01*
X154639964Y-62125963D01*
X154571383Y-62147201D01*
X154562977Y-62148783D01*
X154559917Y-62150752D01*
X154538137Y-62157497D01*
X154449126Y-62216151D01*
X154438005Y-62229199D01*
X154437129Y-62229763D01*
X154435529Y-62232104D01*
X154379980Y-62297281D01*
X154358623Y-62344661D01*
X154352702Y-62353326D01*
X154351059Y-62361441D01*
X154336174Y-62394462D01*
X154321176Y-62500000D01*
X154321176Y-65700000D01*
X154323000Y-65722876D01*
X154323000Y-66387165D01*
X154321176Y-66400000D01*
X154321176Y-69600000D01*
X154323000Y-69622876D01*
X154323000Y-70287165D01*
X154321176Y-70300000D01*
X154321176Y-73500000D01*
X154323000Y-73522876D01*
X154323000Y-74487384D01*
X154034850Y-74457098D01*
X153621429Y-74494722D01*
X153223189Y-74611930D01*
X152855300Y-74804258D01*
X152531774Y-75064380D01*
X152264934Y-75382387D01*
X152064944Y-75746168D01*
X151939421Y-76141865D01*
X151914656Y-76362654D01*
X151852702Y-76453326D01*
X151823000Y-76600000D01*
X151823000Y-77873000D01*
X131027000Y-77873000D01*
X131027000Y-74100000D01*
X131021972Y-74064619D01*
X131007286Y-74032039D01*
X130984105Y-74004840D01*
X130977000Y-74000158D01*
X130977000Y-73712835D01*
X130978824Y-73700000D01*
X130978824Y-70500000D01*
X130977000Y-70477124D01*
X130977000Y-69812835D01*
X130978824Y-69800000D01*
X130978824Y-66600000D01*
X130977000Y-66577124D01*
X130977000Y-65912835D01*
X130978824Y-65900000D01*
X130978824Y-62700000D01*
X130974037Y-62639964D01*
X130952799Y-62571383D01*
X130951217Y-62562977D01*
X130949248Y-62559917D01*
X130942503Y-62538137D01*
X130883849Y-62449126D01*
X130870801Y-62438005D01*
X130870237Y-62437129D01*
X130867896Y-62435529D01*
X130802719Y-62379980D01*
X130755339Y-62358623D01*
X130746674Y-62352702D01*
X130738559Y-62351059D01*
X130705538Y-62336174D01*
X130600000Y-62321176D01*
X129600000Y-62321176D01*
X129577124Y-62323000D01*
X124725493Y-62323000D01*
X124670237Y-62237129D01*
X124546674Y-62152702D01*
X124400000Y-62123000D01*
X121800000Y-62123000D01*
X121662977Y-62148783D01*
X121537129Y-62229763D01*
X121452702Y-62353326D01*
X121423000Y-62500000D01*
X121423000Y-62562165D01*
X121421176Y-62575000D01*
X121421176Y-63825000D01*
X121423000Y-63847876D01*
X121423000Y-64562165D01*
X121421176Y-64575000D01*
X121421176Y-65825000D01*
X121423000Y-65847876D01*
X121423000Y-66562165D01*
X121421176Y-66575000D01*
X121421176Y-67825000D01*
X121423000Y-67847876D01*
X121423000Y-68562165D01*
X121421176Y-68575000D01*
X121421176Y-69825000D01*
X121423000Y-69847876D01*
X121423000Y-70562165D01*
X121421176Y-70575000D01*
X121421176Y-71825000D01*
X121423000Y-71847876D01*
X121423000Y-72562165D01*
X121421176Y-72575000D01*
X121421176Y-73825000D01*
X121423000Y-73847876D01*
X121423000Y-73900000D01*
X121448783Y-74037023D01*
X121529763Y-74162871D01*
X121653326Y-74247298D01*
X121800000Y-74277000D01*
X123773000Y-74277000D01*
X123773000Y-82847394D01*
X123647394Y-82973000D01*
X117452606Y-82973000D01*
X117326894Y-82847288D01*
X117317109Y-77999744D01*
X117312009Y-77964373D01*
X117297258Y-77931822D01*
X117277000Y-77908151D01*
X117277000Y-76500000D01*
X117251217Y-76362977D01*
X117173542Y-76242265D01*
X117166550Y-76170958D01*
X117046565Y-75773546D01*
X116851673Y-75407009D01*
X116589300Y-75085307D01*
X116269437Y-74820693D01*
X115904269Y-74623248D01*
X115507705Y-74500491D01*
X115094850Y-74457098D01*
X114681429Y-74494722D01*
X114283189Y-74611930D01*
X113915300Y-74804258D01*
X113591774Y-75064380D01*
X113324934Y-75382387D01*
X113124944Y-75746168D01*
X112999421Y-76141865D01*
X112980219Y-76313053D01*
X112952702Y-76353326D01*
X112923000Y-76500000D01*
X112923000Y-77873000D01*
X100427000Y-77873000D01*
X100427000Y-55325989D01*
X101117904Y-55325989D01*
X101255156Y-56073817D01*
X101535048Y-56780743D01*
X101946919Y-57419842D01*
X102475081Y-57966770D01*
X103099416Y-58400694D01*
X103796144Y-58705087D01*
X104538727Y-58868354D01*
X105298879Y-58884277D01*
X106047647Y-58752249D01*
X106756510Y-58477299D01*
X107398469Y-58069900D01*
X107949070Y-57545569D01*
X108387343Y-56924278D01*
X108696592Y-56229693D01*
X108865040Y-55488268D01*
X108877166Y-54619841D01*
X108729486Y-53874002D01*
X108439751Y-53171052D01*
X108018997Y-52537766D01*
X107483250Y-51998266D01*
X106852917Y-51573101D01*
X106152007Y-51278466D01*
X105407218Y-51125582D01*
X104646917Y-51120274D01*
X103900066Y-51262744D01*
X103195110Y-51547564D01*
X102558903Y-51963887D01*
X102015675Y-52495854D01*
X101586120Y-53123204D01*
X101286599Y-53822040D01*
X101128520Y-54565744D01*
X101117904Y-55325989D01*
X100427000Y-55325989D01*
X100427000Y-50427000D01*
X170073000Y-50427000D01*
X170073000Y-75473000D01*
X170073000Y-75473000D01*
G37*
X170073000Y-75473000D02*
X168400000Y-75473000D01*
X168364619Y-75478028D01*
X168332039Y-75492714D01*
X168304840Y-75515895D01*
X168285177Y-75545736D01*
X168274605Y-75579873D01*
X168273000Y-75600000D01*
X168273000Y-77850720D01*
X167927355Y-78196365D01*
X167896499Y-78233930D01*
X167865165Y-78271272D01*
X167863828Y-78273704D01*
X167862071Y-78275843D01*
X167839061Y-78318756D01*
X167815616Y-78361403D01*
X167814779Y-78364040D01*
X167813468Y-78366486D01*
X167799248Y-78413000D01*
X167784516Y-78459441D01*
X167784206Y-78462201D01*
X167783398Y-78464845D01*
X167778484Y-78513214D01*
X167773051Y-78561652D01*
X167773013Y-78567067D01*
X167773003Y-78567170D01*
X167773012Y-78567266D01*
X167773000Y-78569010D01*
X167773000Y-79400000D01*
X167777749Y-79448434D01*
X167781993Y-79496942D01*
X167782767Y-79499605D01*
X167783037Y-79502362D01*
X167791754Y-79531232D01*
X167349798Y-80503535D01*
X167209243Y-80426264D01*
X166971682Y-80350906D01*
X166724009Y-80323124D01*
X166706179Y-80323000D01*
X166693821Y-80323000D01*
X166445784Y-80347320D01*
X166207194Y-80419355D01*
X165987140Y-80536360D01*
X165794003Y-80693878D01*
X165635140Y-80885911D01*
X165516602Y-81105143D01*
X165442903Y-81343223D01*
X165416852Y-81591085D01*
X165439440Y-81839286D01*
X165474419Y-81958134D01*
X165476460Y-82473000D01*
X163152194Y-82473000D01*
X163149291Y-82458138D01*
X163066579Y-82333421D01*
X162427000Y-81693842D01*
X162427000Y-78000000D01*
X162421972Y-77964619D01*
X162407286Y-77932039D01*
X162384105Y-77904840D01*
X162377000Y-77900158D01*
X162377000Y-74100000D01*
X162372672Y-74077000D01*
X163500000Y-74077000D01*
X163637023Y-74051217D01*
X163762871Y-73970237D01*
X163847298Y-73846674D01*
X163877000Y-73700000D01*
X163877000Y-73637835D01*
X163878824Y-73625000D01*
X163878824Y-72375000D01*
X163877000Y-72352124D01*
X163877000Y-71637835D01*
X163878824Y-71625000D01*
X163878824Y-70375000D01*
X163877000Y-70352124D01*
X163877000Y-69637835D01*
X163878824Y-69625000D01*
X163878824Y-68375000D01*
X163877000Y-68352124D01*
X163877000Y-67637835D01*
X163878824Y-67625000D01*
X163878824Y-66375000D01*
X163877000Y-66352124D01*
X163877000Y-65637835D01*
X163878824Y-65625000D01*
X163878824Y-64375000D01*
X163877000Y-64352124D01*
X163877000Y-63637835D01*
X163878824Y-63625000D01*
X163878824Y-62375000D01*
X163877000Y-62352124D01*
X163877000Y-62300000D01*
X163851217Y-62162977D01*
X163770237Y-62037129D01*
X163646674Y-61952702D01*
X163500000Y-61923000D01*
X160900000Y-61923000D01*
X160762977Y-61948783D01*
X160637129Y-62029763D01*
X160573423Y-62123000D01*
X155712835Y-62123000D01*
X155700000Y-62121176D01*
X154700000Y-62121176D01*
X154639964Y-62125963D01*
X154571383Y-62147201D01*
X154562977Y-62148783D01*
X154559917Y-62150752D01*
X154538137Y-62157497D01*
X154449126Y-62216151D01*
X154438005Y-62229199D01*
X154437129Y-62229763D01*
X154435529Y-62232104D01*
X154379980Y-62297281D01*
X154358623Y-62344661D01*
X154352702Y-62353326D01*
X154351059Y-62361441D01*
X154336174Y-62394462D01*
X154321176Y-62500000D01*
X154321176Y-65700000D01*
X154323000Y-65722876D01*
X154323000Y-66387165D01*
X154321176Y-66400000D01*
X154321176Y-69600000D01*
X154323000Y-69622876D01*
X154323000Y-70287165D01*
X154321176Y-70300000D01*
X154321176Y-73500000D01*
X154323000Y-73522876D01*
X154323000Y-74487384D01*
X154034850Y-74457098D01*
X153621429Y-74494722D01*
X153223189Y-74611930D01*
X152855300Y-74804258D01*
X152531774Y-75064380D01*
X152264934Y-75382387D01*
X152064944Y-75746168D01*
X151939421Y-76141865D01*
X151914656Y-76362654D01*
X151852702Y-76453326D01*
X151823000Y-76600000D01*
X151823000Y-77873000D01*
X131027000Y-77873000D01*
X131027000Y-74100000D01*
X131021972Y-74064619D01*
X131007286Y-74032039D01*
X130984105Y-74004840D01*
X130977000Y-74000158D01*
X130977000Y-73712835D01*
X130978824Y-73700000D01*
X130978824Y-70500000D01*
X130977000Y-70477124D01*
X130977000Y-69812835D01*
X130978824Y-69800000D01*
X130978824Y-66600000D01*
X130977000Y-66577124D01*
X130977000Y-65912835D01*
X130978824Y-65900000D01*
X130978824Y-62700000D01*
X130974037Y-62639964D01*
X130952799Y-62571383D01*
X130951217Y-62562977D01*
X130949248Y-62559917D01*
X130942503Y-62538137D01*
X130883849Y-62449126D01*
X130870801Y-62438005D01*
X130870237Y-62437129D01*
X130867896Y-62435529D01*
X130802719Y-62379980D01*
X130755339Y-62358623D01*
X130746674Y-62352702D01*
X130738559Y-62351059D01*
X130705538Y-62336174D01*
X130600000Y-62321176D01*
X129600000Y-62321176D01*
X129577124Y-62323000D01*
X124725493Y-62323000D01*
X124670237Y-62237129D01*
X124546674Y-62152702D01*
X124400000Y-62123000D01*
X121800000Y-62123000D01*
X121662977Y-62148783D01*
X121537129Y-62229763D01*
X121452702Y-62353326D01*
X121423000Y-62500000D01*
X121423000Y-62562165D01*
X121421176Y-62575000D01*
X121421176Y-63825000D01*
X121423000Y-63847876D01*
X121423000Y-64562165D01*
X121421176Y-64575000D01*
X121421176Y-65825000D01*
X121423000Y-65847876D01*
X121423000Y-66562165D01*
X121421176Y-66575000D01*
X121421176Y-67825000D01*
X121423000Y-67847876D01*
X121423000Y-68562165D01*
X121421176Y-68575000D01*
X121421176Y-69825000D01*
X121423000Y-69847876D01*
X121423000Y-70562165D01*
X121421176Y-70575000D01*
X121421176Y-71825000D01*
X121423000Y-71847876D01*
X121423000Y-72562165D01*
X121421176Y-72575000D01*
X121421176Y-73825000D01*
X121423000Y-73847876D01*
X121423000Y-73900000D01*
X121448783Y-74037023D01*
X121529763Y-74162871D01*
X121653326Y-74247298D01*
X121800000Y-74277000D01*
X123773000Y-74277000D01*
X123773000Y-82847394D01*
X123647394Y-82973000D01*
X117452606Y-82973000D01*
X117326894Y-82847288D01*
X117317109Y-77999744D01*
X117312009Y-77964373D01*
X117297258Y-77931822D01*
X117277000Y-77908151D01*
X117277000Y-76500000D01*
X117251217Y-76362977D01*
X117173542Y-76242265D01*
X117166550Y-76170958D01*
X117046565Y-75773546D01*
X116851673Y-75407009D01*
X116589300Y-75085307D01*
X116269437Y-74820693D01*
X115904269Y-74623248D01*
X115507705Y-74500491D01*
X115094850Y-74457098D01*
X114681429Y-74494722D01*
X114283189Y-74611930D01*
X113915300Y-74804258D01*
X113591774Y-75064380D01*
X113324934Y-75382387D01*
X113124944Y-75746168D01*
X112999421Y-76141865D01*
X112980219Y-76313053D01*
X112952702Y-76353326D01*
X112923000Y-76500000D01*
X112923000Y-77873000D01*
X100427000Y-77873000D01*
X100427000Y-55325989D01*
X101117904Y-55325989D01*
X101255156Y-56073817D01*
X101535048Y-56780743D01*
X101946919Y-57419842D01*
X102475081Y-57966770D01*
X103099416Y-58400694D01*
X103796144Y-58705087D01*
X104538727Y-58868354D01*
X105298879Y-58884277D01*
X106047647Y-58752249D01*
X106756510Y-58477299D01*
X107398469Y-58069900D01*
X107949070Y-57545569D01*
X108387343Y-56924278D01*
X108696592Y-56229693D01*
X108865040Y-55488268D01*
X108877166Y-54619841D01*
X108729486Y-53874002D01*
X108439751Y-53171052D01*
X108018997Y-52537766D01*
X107483250Y-51998266D01*
X106852917Y-51573101D01*
X106152007Y-51278466D01*
X105407218Y-51125582D01*
X104646917Y-51120274D01*
X103900066Y-51262744D01*
X103195110Y-51547564D01*
X102558903Y-51963887D01*
X102015675Y-52495854D01*
X101586120Y-53123204D01*
X101286599Y-53822040D01*
X101128520Y-54565744D01*
X101117904Y-55325989D01*
X100427000Y-55325989D01*
X100427000Y-50427000D01*
X170073000Y-50427000D01*
X170073000Y-75473000D01*
G36*
X162723000Y-123600000D02*
X162748783Y-123737023D01*
X162829763Y-123862871D01*
X162847276Y-123874837D01*
X162953435Y-124226454D01*
X163148327Y-124592991D01*
X163410700Y-124914693D01*
X163730563Y-125179307D01*
X164095731Y-125376752D01*
X164492295Y-125499509D01*
X164905150Y-125542902D01*
X165318571Y-125505278D01*
X165716811Y-125388070D01*
X166084700Y-125195742D01*
X166408226Y-124935620D01*
X166675066Y-124617613D01*
X166875056Y-124253832D01*
X166979779Y-123923705D01*
X167062871Y-123870237D01*
X167147298Y-123746674D01*
X167177000Y-123600000D01*
X167177000Y-122127000D01*
X167873000Y-122127000D01*
X167873000Y-149573000D01*
X100427000Y-149573000D01*
X100427000Y-145325989D01*
X101117904Y-145325989D01*
X101255156Y-146073817D01*
X101535048Y-146780743D01*
X101946919Y-147419842D01*
X102475081Y-147966770D01*
X103099416Y-148400694D01*
X103796144Y-148705087D01*
X104538727Y-148868354D01*
X105298879Y-148884277D01*
X106047647Y-148752249D01*
X106756510Y-148477299D01*
X107398469Y-148069900D01*
X107949070Y-147545569D01*
X108387343Y-146924278D01*
X108696592Y-146229693D01*
X108865040Y-145488268D01*
X108877166Y-144619841D01*
X108729486Y-143874002D01*
X108439751Y-143171052D01*
X108018997Y-142537766D01*
X107483250Y-141998266D01*
X106852917Y-141573101D01*
X106152007Y-141278466D01*
X105407218Y-141125582D01*
X104646917Y-141120274D01*
X103900066Y-141262744D01*
X103195110Y-141547564D01*
X102558903Y-141963887D01*
X102015675Y-142495854D01*
X101586120Y-143123204D01*
X101286599Y-143822040D01*
X101128520Y-144565744D01*
X101117904Y-145325989D01*
X100427000Y-145325989D01*
X100427000Y-119827000D01*
X112900000Y-119827000D01*
X112917961Y-119825724D01*
X113617961Y-119725724D01*
X113652275Y-119715742D01*
X113670447Y-119705670D01*
X114570447Y-119105670D01*
X114597097Y-119081861D01*
X114610267Y-119063010D01*
X115010267Y-118363010D01*
X115023455Y-118329795D01*
X115027000Y-118300000D01*
X115027000Y-117852606D01*
X115302606Y-117577000D01*
X116543842Y-117577000D01*
X117023000Y-118056158D01*
X117023000Y-119900000D01*
X117050709Y-120041862D01*
X117133421Y-120166579D01*
X117723000Y-120756158D01*
X117723000Y-126174507D01*
X117637129Y-126229763D01*
X117552702Y-126353326D01*
X117523000Y-126500000D01*
X117523000Y-126562165D01*
X117521176Y-126575000D01*
X117521176Y-127825000D01*
X117523000Y-127847876D01*
X117523000Y-128562165D01*
X117521176Y-128575000D01*
X117521176Y-129825000D01*
X117523000Y-129847876D01*
X117523000Y-130562165D01*
X117521176Y-130575000D01*
X117521176Y-131825000D01*
X117523000Y-131847876D01*
X117523000Y-132562165D01*
X117521176Y-132575000D01*
X117521176Y-133825000D01*
X117523000Y-133847876D01*
X117523000Y-134562165D01*
X117521176Y-134575000D01*
X117521176Y-135825000D01*
X117523000Y-135847876D01*
X117523000Y-136562165D01*
X117521176Y-136575000D01*
X117521176Y-137825000D01*
X117525963Y-137885036D01*
X117557497Y-137986863D01*
X117616151Y-138075874D01*
X117697281Y-138145020D01*
X117794462Y-138188826D01*
X117900000Y-138203824D01*
X118900000Y-138203824D01*
X118960036Y-138199037D01*
X119031196Y-138177000D01*
X120500000Y-138177000D01*
X120637023Y-138151217D01*
X120648373Y-138143914D01*
X120653326Y-138147298D01*
X120800000Y-138177000D01*
X126800000Y-138177000D01*
X126937023Y-138151217D01*
X127062871Y-138070237D01*
X127147298Y-137946674D01*
X127177000Y-137800000D01*
X127177000Y-125169772D01*
X127468226Y-124935620D01*
X127735066Y-124617613D01*
X127935056Y-124253832D01*
X128060579Y-123858135D01*
X128106853Y-123445592D01*
X128107060Y-123415894D01*
X128107060Y-122127000D01*
X148823000Y-122127000D01*
X148823000Y-136900000D01*
X148848783Y-137037023D01*
X148929763Y-137162871D01*
X149053326Y-137247298D01*
X149200000Y-137277000D01*
X155150441Y-137277000D01*
X155253326Y-137347298D01*
X155400000Y-137377000D01*
X156985700Y-137377000D01*
X157064400Y-137388184D01*
X158064400Y-137388184D01*
X158124436Y-137383397D01*
X158214918Y-137355376D01*
X158237023Y-137351217D01*
X158362871Y-137270237D01*
X158447298Y-137146674D01*
X158477000Y-137000000D01*
X158477000Y-125700000D01*
X158451217Y-125562977D01*
X158370237Y-125437129D01*
X158246674Y-125352702D01*
X158100000Y-125323000D01*
X156677000Y-125323000D01*
X156677000Y-117200000D01*
X156651217Y-117062977D01*
X156595890Y-116976995D01*
X162723000Y-116976995D01*
X162723000Y-123600000D01*
X162723000Y-123600000D01*
G37*
X162723000Y-123600000D02*
X162748783Y-123737023D01*
X162829763Y-123862871D01*
X162847276Y-123874837D01*
X162953435Y-124226454D01*
X163148327Y-124592991D01*
X163410700Y-124914693D01*
X163730563Y-125179307D01*
X164095731Y-125376752D01*
X164492295Y-125499509D01*
X164905150Y-125542902D01*
X165318571Y-125505278D01*
X165716811Y-125388070D01*
X166084700Y-125195742D01*
X166408226Y-124935620D01*
X166675066Y-124617613D01*
X166875056Y-124253832D01*
X166979779Y-123923705D01*
X167062871Y-123870237D01*
X167147298Y-123746674D01*
X167177000Y-123600000D01*
X167177000Y-122127000D01*
X167873000Y-122127000D01*
X167873000Y-149573000D01*
X100427000Y-149573000D01*
X100427000Y-145325989D01*
X101117904Y-145325989D01*
X101255156Y-146073817D01*
X101535048Y-146780743D01*
X101946919Y-147419842D01*
X102475081Y-147966770D01*
X103099416Y-148400694D01*
X103796144Y-148705087D01*
X104538727Y-148868354D01*
X105298879Y-148884277D01*
X106047647Y-148752249D01*
X106756510Y-148477299D01*
X107398469Y-148069900D01*
X107949070Y-147545569D01*
X108387343Y-146924278D01*
X108696592Y-146229693D01*
X108865040Y-145488268D01*
X108877166Y-144619841D01*
X108729486Y-143874002D01*
X108439751Y-143171052D01*
X108018997Y-142537766D01*
X107483250Y-141998266D01*
X106852917Y-141573101D01*
X106152007Y-141278466D01*
X105407218Y-141125582D01*
X104646917Y-141120274D01*
X103900066Y-141262744D01*
X103195110Y-141547564D01*
X102558903Y-141963887D01*
X102015675Y-142495854D01*
X101586120Y-143123204D01*
X101286599Y-143822040D01*
X101128520Y-144565744D01*
X101117904Y-145325989D01*
X100427000Y-145325989D01*
X100427000Y-119827000D01*
X112900000Y-119827000D01*
X112917961Y-119825724D01*
X113617961Y-119725724D01*
X113652275Y-119715742D01*
X113670447Y-119705670D01*
X114570447Y-119105670D01*
X114597097Y-119081861D01*
X114610267Y-119063010D01*
X115010267Y-118363010D01*
X115023455Y-118329795D01*
X115027000Y-118300000D01*
X115027000Y-117852606D01*
X115302606Y-117577000D01*
X116543842Y-117577000D01*
X117023000Y-118056158D01*
X117023000Y-119900000D01*
X117050709Y-120041862D01*
X117133421Y-120166579D01*
X117723000Y-120756158D01*
X117723000Y-126174507D01*
X117637129Y-126229763D01*
X117552702Y-126353326D01*
X117523000Y-126500000D01*
X117523000Y-126562165D01*
X117521176Y-126575000D01*
X117521176Y-127825000D01*
X117523000Y-127847876D01*
X117523000Y-128562165D01*
X117521176Y-128575000D01*
X117521176Y-129825000D01*
X117523000Y-129847876D01*
X117523000Y-130562165D01*
X117521176Y-130575000D01*
X117521176Y-131825000D01*
X117523000Y-131847876D01*
X117523000Y-132562165D01*
X117521176Y-132575000D01*
X117521176Y-133825000D01*
X117523000Y-133847876D01*
X117523000Y-134562165D01*
X117521176Y-134575000D01*
X117521176Y-135825000D01*
X117523000Y-135847876D01*
X117523000Y-136562165D01*
X117521176Y-136575000D01*
X117521176Y-137825000D01*
X117525963Y-137885036D01*
X117557497Y-137986863D01*
X117616151Y-138075874D01*
X117697281Y-138145020D01*
X117794462Y-138188826D01*
X117900000Y-138203824D01*
X118900000Y-138203824D01*
X118960036Y-138199037D01*
X119031196Y-138177000D01*
X120500000Y-138177000D01*
X120637023Y-138151217D01*
X120648373Y-138143914D01*
X120653326Y-138147298D01*
X120800000Y-138177000D01*
X126800000Y-138177000D01*
X126937023Y-138151217D01*
X127062871Y-138070237D01*
X127147298Y-137946674D01*
X127177000Y-137800000D01*
X127177000Y-125169772D01*
X127468226Y-124935620D01*
X127735066Y-124617613D01*
X127935056Y-124253832D01*
X128060579Y-123858135D01*
X128106853Y-123445592D01*
X128107060Y-123415894D01*
X128107060Y-122127000D01*
X148823000Y-122127000D01*
X148823000Y-136900000D01*
X148848783Y-137037023D01*
X148929763Y-137162871D01*
X149053326Y-137247298D01*
X149200000Y-137277000D01*
X155150441Y-137277000D01*
X155253326Y-137347298D01*
X155400000Y-137377000D01*
X156985700Y-137377000D01*
X157064400Y-137388184D01*
X158064400Y-137388184D01*
X158124436Y-137383397D01*
X158214918Y-137355376D01*
X158237023Y-137351217D01*
X158362871Y-137270237D01*
X158447298Y-137146674D01*
X158477000Y-137000000D01*
X158477000Y-125700000D01*
X158451217Y-125562977D01*
X158370237Y-125437129D01*
X158246674Y-125352702D01*
X158100000Y-125323000D01*
X156677000Y-125323000D01*
X156677000Y-117200000D01*
X156651217Y-117062977D01*
X156595890Y-116976995D01*
X162723000Y-116976995D01*
X162723000Y-123600000D01*
D33*
G36*
X179600000Y-149600000D02*
X168350000Y-149600000D01*
X168350000Y-145323719D01*
X171144939Y-145323719D01*
X171281235Y-146066339D01*
X171559178Y-146768342D01*
X171968181Y-147402990D01*
X172492665Y-147946109D01*
X173112652Y-148377012D01*
X173804528Y-148679285D01*
X174541939Y-148841415D01*
X175296797Y-148857227D01*
X176040351Y-148726119D01*
X176744278Y-148453083D01*
X177381766Y-148048521D01*
X177928533Y-147527842D01*
X178363753Y-146910878D01*
X178670849Y-146221129D01*
X178838124Y-145484868D01*
X178850166Y-144622488D01*
X178703514Y-143881843D01*
X178415797Y-143183789D01*
X177997973Y-142554913D01*
X177465957Y-142019170D01*
X176840014Y-141596966D01*
X176143985Y-141304382D01*
X175404382Y-141152564D01*
X174649376Y-141147293D01*
X173907726Y-141288770D01*
X173207680Y-141571607D01*
X172575902Y-141985031D01*
X172036458Y-142513293D01*
X171609895Y-143136274D01*
X171312459Y-143830243D01*
X171155481Y-144568768D01*
X171144939Y-145323719D01*
X168350000Y-145323719D01*
X168350000Y-122000000D01*
X168326064Y-121872790D01*
X168250883Y-121755955D01*
X168136170Y-121677575D01*
X168000000Y-121650000D01*
X167150000Y-121650000D01*
X167150000Y-116949995D01*
X175178114Y-116949995D01*
X175185024Y-116967448D01*
X175270012Y-117099323D01*
X175378995Y-117212179D01*
X175507824Y-117301717D01*
X175651590Y-117364527D01*
X175804818Y-117398216D01*
X175961672Y-117401502D01*
X176116177Y-117374258D01*
X176262447Y-117317524D01*
X176394912Y-117233459D01*
X176508526Y-117125266D01*
X176598962Y-116997066D01*
X176662774Y-116853741D01*
X176697532Y-116700752D01*
X176700034Y-116521556D01*
X176669561Y-116367656D01*
X176609776Y-116222605D01*
X176522955Y-116091930D01*
X176412407Y-115980607D01*
X176282341Y-115892876D01*
X176137711Y-115832079D01*
X175984027Y-115800533D01*
X175888823Y-115799868D01*
X175886360Y-115798514D01*
X175883355Y-115797561D01*
X175880573Y-115796069D01*
X175827555Y-115779860D01*
X175774742Y-115763106D01*
X175771607Y-115762754D01*
X175768590Y-115761832D01*
X175713491Y-115756236D01*
X175658372Y-115750053D01*
X175652200Y-115750010D01*
X175652089Y-115749999D01*
X175651986Y-115750009D01*
X175649995Y-115749995D01*
X153950005Y-115749995D01*
X153894880Y-115755400D01*
X153839634Y-115760234D01*
X153836605Y-115761114D01*
X153833464Y-115761422D01*
X153780367Y-115777453D01*
X153727184Y-115792904D01*
X153724386Y-115794354D01*
X153721363Y-115795267D01*
X153672432Y-115821284D01*
X153623221Y-115846792D01*
X153620753Y-115848762D01*
X153617970Y-115850242D01*
X153575061Y-115885238D01*
X153531706Y-115919848D01*
X153527314Y-115924179D01*
X153527224Y-115924253D01*
X153527155Y-115924337D01*
X153525741Y-115925731D01*
X152293499Y-117157973D01*
X152223501Y-117150122D01*
X152206048Y-117150000D01*
X152193952Y-117150000D01*
X151951159Y-117173806D01*
X151717614Y-117244317D01*
X151502213Y-117358848D01*
X151313159Y-117513037D01*
X151157655Y-117701009D01*
X151041623Y-117915606D01*
X150969483Y-118148653D01*
X150943982Y-118391273D01*
X150966093Y-118634227D01*
X151034972Y-118868258D01*
X151147997Y-119084454D01*
X151200697Y-119150000D01*
X150300000Y-119150000D01*
X150168298Y-119175725D01*
X150052513Y-119252513D01*
X148952513Y-120352513D01*
X148877575Y-120463830D01*
X148850000Y-120600000D01*
X148850000Y-121650000D01*
X128080060Y-121650000D01*
X128080060Y-121384236D01*
X128050000Y-121077658D01*
X128050000Y-118750000D01*
X141902775Y-118750000D01*
X142033980Y-118724477D01*
X142149883Y-118647867D01*
X143645181Y-117157148D01*
X144532522Y-117154062D01*
X144331159Y-117173806D01*
X144097614Y-117244317D01*
X143882213Y-117358848D01*
X143693159Y-117513037D01*
X143537655Y-117701009D01*
X143421623Y-117915606D01*
X143349483Y-118148653D01*
X143323982Y-118391273D01*
X143346093Y-118634227D01*
X143414972Y-118868258D01*
X143527997Y-119084454D01*
X143680861Y-119274579D01*
X143867743Y-119431392D01*
X144081525Y-119548919D01*
X144314062Y-119622685D01*
X144556499Y-119649878D01*
X144573952Y-119650000D01*
X144586048Y-119650000D01*
X144828841Y-119626194D01*
X145062386Y-119555683D01*
X145277787Y-119441152D01*
X145466841Y-119286963D01*
X145622345Y-119098991D01*
X145738377Y-118884394D01*
X145810517Y-118651347D01*
X145836018Y-118408727D01*
X145813907Y-118165773D01*
X145745028Y-117931742D01*
X145736439Y-117915313D01*
X149176751Y-114475000D01*
X150117893Y-114475000D01*
X147408441Y-117184453D01*
X147385938Y-117177315D01*
X147143501Y-117150122D01*
X147126048Y-117150000D01*
X147113952Y-117150000D01*
X146871159Y-117173806D01*
X146637614Y-117244317D01*
X146422213Y-117358848D01*
X146233159Y-117513037D01*
X146077655Y-117701009D01*
X145961623Y-117915606D01*
X145889483Y-118148653D01*
X145863982Y-118391273D01*
X145886093Y-118634227D01*
X145954972Y-118868258D01*
X146067997Y-119084454D01*
X146220861Y-119274579D01*
X146407743Y-119431392D01*
X146621525Y-119548919D01*
X146854062Y-119622685D01*
X147096499Y-119649878D01*
X147113952Y-119650000D01*
X147126048Y-119650000D01*
X147368841Y-119626194D01*
X147600496Y-119556253D01*
X147598946Y-119667266D01*
X147627268Y-119821577D01*
X147685022Y-119967448D01*
X147770010Y-120099323D01*
X147878993Y-120212179D01*
X148007822Y-120301717D01*
X148151588Y-120364527D01*
X148304816Y-120398216D01*
X148461670Y-120401502D01*
X148616175Y-120374258D01*
X148762445Y-120317524D01*
X148894910Y-120233459D01*
X149008524Y-120125266D01*
X149098960Y-119997066D01*
X149162772Y-119853741D01*
X149197530Y-119700752D01*
X149200032Y-119521556D01*
X149169559Y-119367656D01*
X149109774Y-119222605D01*
X149022953Y-119091930D01*
X148912405Y-118980607D01*
X148899998Y-118972238D01*
X148899998Y-118007108D01*
X151357132Y-115549974D01*
X164450026Y-115549974D01*
X164495970Y-115545469D01*
X164542002Y-115541442D01*
X164544527Y-115540709D01*
X164547143Y-115540452D01*
X164591349Y-115527105D01*
X164635710Y-115514217D01*
X164638045Y-115513007D01*
X164640561Y-115512247D01*
X164681311Y-115490580D01*
X164722346Y-115469310D01*
X164724402Y-115467668D01*
X164726722Y-115466435D01*
X164762511Y-115437246D01*
X164798608Y-115408429D01*
X164802266Y-115404822D01*
X164802343Y-115404759D01*
X164802402Y-115404688D01*
X164803579Y-115403527D01*
X172253553Y-107953554D01*
X172282853Y-107917884D01*
X172312557Y-107882484D01*
X172313825Y-107880177D01*
X172315492Y-107878148D01*
X172337299Y-107837479D01*
X172359568Y-107796971D01*
X172360363Y-107794464D01*
X172361605Y-107792148D01*
X172375107Y-107747985D01*
X172389074Y-107703956D01*
X172389367Y-107701345D01*
X172390136Y-107698829D01*
X172394801Y-107652897D01*
X172399951Y-107606981D01*
X172399987Y-107601832D01*
X172399996Y-107601745D01*
X172399988Y-107601664D01*
X172400000Y-107600000D01*
X172400000Y-102100976D01*
X172880975Y-101620001D01*
X173780001Y-101620001D01*
X173825945Y-101615496D01*
X173871977Y-101611469D01*
X173874502Y-101610736D01*
X173877118Y-101610479D01*
X173921324Y-101597132D01*
X173965685Y-101584244D01*
X173968020Y-101583034D01*
X173970536Y-101582274D01*
X174011286Y-101560607D01*
X174032439Y-101549643D01*
X174017444Y-101567513D01*
X174016176Y-101569820D01*
X174014509Y-101571849D01*
X173992702Y-101612518D01*
X173970433Y-101653026D01*
X173969638Y-101655533D01*
X173968396Y-101657849D01*
X173954894Y-101702012D01*
X173940927Y-101746041D01*
X173940634Y-101748652D01*
X173939865Y-101751168D01*
X173935195Y-101797144D01*
X173930050Y-101843016D01*
X173930014Y-101848154D01*
X173930004Y-101848252D01*
X173930013Y-101848343D01*
X173930001Y-101849997D01*
X173930001Y-108572892D01*
X173726517Y-108776377D01*
X173726446Y-108776447D01*
X173639100Y-108863793D01*
X173431347Y-108799483D01*
X173188727Y-108773982D01*
X172945773Y-108796093D01*
X172711742Y-108864972D01*
X172495546Y-108977997D01*
X172305421Y-109130861D01*
X172148608Y-109317743D01*
X172031081Y-109531525D01*
X171957315Y-109764062D01*
X171930122Y-110006499D01*
X171930000Y-110023952D01*
X171930000Y-110036048D01*
X171953806Y-110278841D01*
X172024317Y-110512386D01*
X172138848Y-110727787D01*
X172293037Y-110916841D01*
X172481009Y-111072345D01*
X172695606Y-111188377D01*
X172928653Y-111260517D01*
X173171273Y-111286018D01*
X173414227Y-111263907D01*
X173648258Y-111195028D01*
X173864454Y-111082003D01*
X174054579Y-110929139D01*
X174211392Y-110742257D01*
X174328919Y-110528475D01*
X174402685Y-110295938D01*
X174429878Y-110053501D01*
X174430000Y-110036048D01*
X174430000Y-110023952D01*
X174406194Y-109781159D01*
X174343524Y-109573583D01*
X174433553Y-109483554D01*
X174433558Y-109483548D01*
X174783555Y-109133552D01*
X174812881Y-109097851D01*
X174842558Y-109062483D01*
X174843824Y-109060180D01*
X174845494Y-109058147D01*
X174867311Y-109017458D01*
X174889569Y-108976970D01*
X174890365Y-108974460D01*
X174891606Y-108972146D01*
X174905100Y-108928010D01*
X174919075Y-108883955D01*
X174919368Y-108881342D01*
X174920137Y-108878827D01*
X174924806Y-108832857D01*
X174929952Y-108786980D01*
X174929988Y-108781842D01*
X174929998Y-108781744D01*
X174929989Y-108781653D01*
X174930001Y-108779999D01*
X174930001Y-108457057D01*
X175021009Y-108532345D01*
X175235606Y-108648377D01*
X175468653Y-108720517D01*
X175711273Y-108746018D01*
X175954227Y-108723907D01*
X176188258Y-108655028D01*
X176404454Y-108542003D01*
X176500000Y-108465182D01*
X176500000Y-109054671D01*
X176418991Y-108987655D01*
X176204394Y-108871623D01*
X175971347Y-108799483D01*
X175728727Y-108773982D01*
X175725011Y-108774320D01*
X175723316Y-108774142D01*
X175630994Y-108782544D01*
X175629358Y-108783025D01*
X175485773Y-108796093D01*
X175251742Y-108864972D01*
X175035546Y-108977997D01*
X174845421Y-109130861D01*
X174688608Y-109317743D01*
X174571081Y-109531525D01*
X174497315Y-109764062D01*
X174470122Y-110006499D01*
X174470000Y-110023952D01*
X174470000Y-110036048D01*
X174493806Y-110278841D01*
X174564317Y-110512386D01*
X174678848Y-110727787D01*
X174833037Y-110916841D01*
X175021009Y-111072345D01*
X175235606Y-111188377D01*
X175468653Y-111260517D01*
X175711273Y-111286018D01*
X175954227Y-111263907D01*
X176025000Y-111243077D01*
X176025000Y-114700000D01*
X176029284Y-114743691D01*
X176033106Y-114787377D01*
X176033802Y-114789773D01*
X176034046Y-114792261D01*
X176046738Y-114834297D01*
X176058970Y-114876400D01*
X176060119Y-114878617D01*
X176060841Y-114881008D01*
X176081453Y-114919774D01*
X176101632Y-114958704D01*
X176103188Y-114960654D01*
X176104362Y-114962861D01*
X176132078Y-114996844D01*
X176159467Y-115031154D01*
X176162901Y-115034636D01*
X176162954Y-115034701D01*
X176163015Y-115034751D01*
X176164124Y-115035876D01*
X177125000Y-115996752D01*
X177125000Y-119403248D01*
X175729341Y-120798907D01*
X175647979Y-120762231D01*
X175550000Y-120748307D01*
X174650000Y-120748307D01*
X174594264Y-120752752D01*
X174499729Y-120782027D01*
X174417094Y-120836480D01*
X174352900Y-120911800D01*
X174312231Y-121002021D01*
X174298307Y-121100000D01*
X174298307Y-121279941D01*
X173928247Y-121650001D01*
X172574999Y-121650001D01*
X172531308Y-121654285D01*
X172487622Y-121658107D01*
X172485226Y-121658803D01*
X172482738Y-121659047D01*
X172440702Y-121671739D01*
X172398599Y-121683971D01*
X172396382Y-121685120D01*
X172393991Y-121685842D01*
X172355225Y-121706454D01*
X172316295Y-121726633D01*
X172314345Y-121728189D01*
X172312138Y-121729363D01*
X172278155Y-121757079D01*
X172243845Y-121784468D01*
X172240368Y-121787898D01*
X172240298Y-121787955D01*
X172240244Y-121788020D01*
X172239123Y-121789126D01*
X172103249Y-121925000D01*
X170492533Y-121925000D01*
X170475375Y-121892179D01*
X170377593Y-121770563D01*
X170258051Y-121670256D01*
X170121303Y-121595078D01*
X169972557Y-121547893D01*
X169817479Y-121530498D01*
X169806315Y-121530420D01*
X169193685Y-121530420D01*
X169038379Y-121545648D01*
X168888989Y-121590751D01*
X168751204Y-121664013D01*
X168630274Y-121762641D01*
X168530803Y-121882881D01*
X168456582Y-122020150D01*
X168410436Y-122169222D01*
X168394124Y-122324418D01*
X168408268Y-122479826D01*
X168452327Y-122629528D01*
X168524625Y-122767821D01*
X168622407Y-122889437D01*
X168712830Y-122965310D01*
X168630274Y-123032641D01*
X168530803Y-123152881D01*
X168456582Y-123290150D01*
X168410436Y-123439222D01*
X168394124Y-123594418D01*
X168408268Y-123749826D01*
X168452327Y-123899528D01*
X168524625Y-124037821D01*
X168622407Y-124159437D01*
X168741949Y-124259744D01*
X168878697Y-124334922D01*
X169027443Y-124382107D01*
X169182521Y-124399502D01*
X169193685Y-124399580D01*
X169806315Y-124399580D01*
X169961621Y-124384352D01*
X170111011Y-124339249D01*
X170248796Y-124265987D01*
X170369726Y-124167359D01*
X170469197Y-124047119D01*
X170543418Y-123909850D01*
X170589564Y-123760778D01*
X170605876Y-123605582D01*
X170591732Y-123450174D01*
X170575780Y-123395972D01*
X170596751Y-123375000D01*
X172683718Y-123375000D01*
X172707027Y-123450271D01*
X172761480Y-123532906D01*
X172836800Y-123597100D01*
X172927021Y-123637769D01*
X173025000Y-123651693D01*
X173775000Y-123651693D01*
X173830736Y-123647248D01*
X173925271Y-123617973D01*
X174007906Y-123563520D01*
X174072100Y-123488200D01*
X174112769Y-123397979D01*
X174123140Y-123325000D01*
X174381270Y-123325000D01*
X174386480Y-123332906D01*
X174461800Y-123397100D01*
X174552021Y-123437769D01*
X174650000Y-123451693D01*
X175550000Y-123451693D01*
X175605736Y-123447248D01*
X175700271Y-123417973D01*
X175782906Y-123363520D01*
X175847100Y-123288200D01*
X175887769Y-123197979D01*
X175901693Y-123100000D01*
X175901693Y-122755413D01*
X178453554Y-120203553D01*
X178482880Y-120167852D01*
X178512557Y-120132484D01*
X178513823Y-120130181D01*
X178515493Y-120128148D01*
X178537320Y-120087440D01*
X178559568Y-120046971D01*
X178560363Y-120044464D01*
X178561605Y-120042148D01*
X178575107Y-119997985D01*
X178589074Y-119953956D01*
X178589367Y-119951345D01*
X178590136Y-119948829D01*
X178594806Y-119902853D01*
X178599951Y-119856981D01*
X178599987Y-119851843D01*
X178599997Y-119851745D01*
X178599988Y-119851654D01*
X178600000Y-119850000D01*
X178600000Y-115500000D01*
X178595495Y-115454052D01*
X178591468Y-115408025D01*
X178590735Y-115405501D01*
X178590478Y-115402883D01*
X178577127Y-115358665D01*
X178564243Y-115314316D01*
X178563033Y-115311981D01*
X178562273Y-115309465D01*
X178540595Y-115268694D01*
X178519336Y-115227681D01*
X178517696Y-115225626D01*
X178516461Y-115223304D01*
X178487254Y-115187494D01*
X178458455Y-115151418D01*
X178454848Y-115147760D01*
X178454785Y-115147683D01*
X178454714Y-115147624D01*
X178453553Y-115146447D01*
X177500000Y-114192894D01*
X177500000Y-106100000D01*
X177495495Y-106054048D01*
X177491468Y-106008025D01*
X177490735Y-106005501D01*
X177490478Y-106002883D01*
X177477127Y-105958665D01*
X177464243Y-105914316D01*
X177463033Y-105911981D01*
X177462273Y-105909465D01*
X177440595Y-105868694D01*
X177419336Y-105827681D01*
X177417696Y-105825626D01*
X177416461Y-105823304D01*
X177387254Y-105787494D01*
X177358455Y-105751418D01*
X177354844Y-105747756D01*
X177354785Y-105747683D01*
X177354718Y-105747627D01*
X177353554Y-105746447D01*
X176913872Y-105306766D01*
X176942685Y-105215938D01*
X176969878Y-104973501D01*
X176970000Y-104956048D01*
X176970000Y-104943952D01*
X176946194Y-104701159D01*
X176875683Y-104467614D01*
X176875147Y-104466605D01*
X178985876Y-102355876D01*
X179013755Y-102321936D01*
X179041929Y-102288359D01*
X179043130Y-102286174D01*
X179044718Y-102284241D01*
X179065459Y-102245557D01*
X179086589Y-102207122D01*
X179087345Y-102204739D01*
X179088524Y-102202540D01*
X179101348Y-102160596D01*
X179114620Y-102118758D01*
X179114898Y-102116277D01*
X179115629Y-102113887D01*
X179120062Y-102070241D01*
X179124954Y-102026632D01*
X179124988Y-102021748D01*
X179124997Y-102021658D01*
X179124989Y-102021574D01*
X179125000Y-102020000D01*
X179125000Y-82318730D01*
X179132906Y-82313520D01*
X179197100Y-82238200D01*
X179237769Y-82147979D01*
X179251693Y-82050000D01*
X179251693Y-81150000D01*
X179247248Y-81094264D01*
X179217973Y-80999729D01*
X179163520Y-80917094D01*
X179118287Y-80878543D01*
X179116894Y-80862623D01*
X179116198Y-80860227D01*
X179115954Y-80857739D01*
X179103262Y-80815703D01*
X179091030Y-80773600D01*
X179089881Y-80771383D01*
X179089159Y-80768992D01*
X179068547Y-80730226D01*
X179048368Y-80691296D01*
X179046812Y-80689346D01*
X179045638Y-80687139D01*
X179017922Y-80653156D01*
X178990533Y-80618846D01*
X178987099Y-80615364D01*
X178987046Y-80615299D01*
X178986985Y-80615249D01*
X178985876Y-80614124D01*
X176535876Y-78164124D01*
X176501936Y-78136245D01*
X176468359Y-78108071D01*
X176466174Y-78106870D01*
X176464241Y-78105282D01*
X176425557Y-78084541D01*
X176387122Y-78063411D01*
X176384739Y-78062655D01*
X176382540Y-78061476D01*
X176340583Y-78048648D01*
X176298758Y-78035380D01*
X176296278Y-78035102D01*
X176293888Y-78034371D01*
X176250236Y-78029937D01*
X176206632Y-78025046D01*
X176201748Y-78025012D01*
X176201658Y-78025003D01*
X176201574Y-78025011D01*
X176200000Y-78025000D01*
X175451678Y-78025000D01*
X175413520Y-77967094D01*
X175338200Y-77902900D01*
X175247979Y-77862231D01*
X175150000Y-77848307D01*
X174473445Y-77848307D01*
X174770059Y-77551693D01*
X175150000Y-77551693D01*
X175205736Y-77547248D01*
X175300271Y-77517973D01*
X175382906Y-77463520D01*
X175447100Y-77388200D01*
X175487769Y-77297979D01*
X175501693Y-77200000D01*
X175501693Y-76700000D01*
X175497248Y-76644264D01*
X175467973Y-76549729D01*
X175413520Y-76467094D01*
X175338200Y-76402900D01*
X175247979Y-76362231D01*
X175150000Y-76348307D01*
X174250000Y-76348307D01*
X174194264Y-76352752D01*
X174099729Y-76382027D01*
X174017094Y-76436480D01*
X173952900Y-76511800D01*
X173912231Y-76602021D01*
X173898307Y-76700000D01*
X173898307Y-77079941D01*
X173853248Y-77125000D01*
X170389201Y-77125000D01*
X170377593Y-77110563D01*
X170258051Y-77010256D01*
X170121303Y-76935078D01*
X169972557Y-76887893D01*
X169817479Y-76870498D01*
X169806315Y-76870420D01*
X169193685Y-76870420D01*
X169038379Y-76885648D01*
X168888989Y-76930751D01*
X168751204Y-77004013D01*
X168750000Y-77004995D01*
X168750000Y-75950000D01*
X170200000Y-75950000D01*
X170327210Y-75926064D01*
X170444045Y-75850883D01*
X170522425Y-75736170D01*
X170550000Y-75600000D01*
X170550000Y-55323719D01*
X171144939Y-55323719D01*
X171281235Y-56066339D01*
X171559178Y-56768342D01*
X171968181Y-57402990D01*
X172492665Y-57946109D01*
X173112652Y-58377012D01*
X173804528Y-58679285D01*
X174541939Y-58841415D01*
X175296797Y-58857227D01*
X176040351Y-58726119D01*
X176744278Y-58453083D01*
X177381766Y-58048521D01*
X177928533Y-57527842D01*
X178363753Y-56910878D01*
X178670849Y-56221129D01*
X178838124Y-55484868D01*
X178850166Y-54622488D01*
X178703514Y-53881843D01*
X178415797Y-53183789D01*
X177997973Y-52554913D01*
X177465957Y-52019170D01*
X176840014Y-51596966D01*
X176143985Y-51304382D01*
X175404382Y-51152564D01*
X174649376Y-51147293D01*
X173907726Y-51288770D01*
X173207680Y-51571607D01*
X172575902Y-51985031D01*
X172036458Y-52513293D01*
X171609895Y-53136274D01*
X171312459Y-53830243D01*
X171155481Y-54568768D01*
X171144939Y-55323719D01*
X170550000Y-55323719D01*
X170550000Y-50400000D01*
X179600000Y-50400000D01*
X179600000Y-149600000D01*
X179600000Y-149600000D01*
G37*
X179600000Y-149600000D02*
X168350000Y-149600000D01*
X168350000Y-145323719D01*
X171144939Y-145323719D01*
X171281235Y-146066339D01*
X171559178Y-146768342D01*
X171968181Y-147402990D01*
X172492665Y-147946109D01*
X173112652Y-148377012D01*
X173804528Y-148679285D01*
X174541939Y-148841415D01*
X175296797Y-148857227D01*
X176040351Y-148726119D01*
X176744278Y-148453083D01*
X177381766Y-148048521D01*
X177928533Y-147527842D01*
X178363753Y-146910878D01*
X178670849Y-146221129D01*
X178838124Y-145484868D01*
X178850166Y-144622488D01*
X178703514Y-143881843D01*
X178415797Y-143183789D01*
X177997973Y-142554913D01*
X177465957Y-142019170D01*
X176840014Y-141596966D01*
X176143985Y-141304382D01*
X175404382Y-141152564D01*
X174649376Y-141147293D01*
X173907726Y-141288770D01*
X173207680Y-141571607D01*
X172575902Y-141985031D01*
X172036458Y-142513293D01*
X171609895Y-143136274D01*
X171312459Y-143830243D01*
X171155481Y-144568768D01*
X171144939Y-145323719D01*
X168350000Y-145323719D01*
X168350000Y-122000000D01*
X168326064Y-121872790D01*
X168250883Y-121755955D01*
X168136170Y-121677575D01*
X168000000Y-121650000D01*
X167150000Y-121650000D01*
X167150000Y-116949995D01*
X175178114Y-116949995D01*
X175185024Y-116967448D01*
X175270012Y-117099323D01*
X175378995Y-117212179D01*
X175507824Y-117301717D01*
X175651590Y-117364527D01*
X175804818Y-117398216D01*
X175961672Y-117401502D01*
X176116177Y-117374258D01*
X176262447Y-117317524D01*
X176394912Y-117233459D01*
X176508526Y-117125266D01*
X176598962Y-116997066D01*
X176662774Y-116853741D01*
X176697532Y-116700752D01*
X176700034Y-116521556D01*
X176669561Y-116367656D01*
X176609776Y-116222605D01*
X176522955Y-116091930D01*
X176412407Y-115980607D01*
X176282341Y-115892876D01*
X176137711Y-115832079D01*
X175984027Y-115800533D01*
X175888823Y-115799868D01*
X175886360Y-115798514D01*
X175883355Y-115797561D01*
X175880573Y-115796069D01*
X175827555Y-115779860D01*
X175774742Y-115763106D01*
X175771607Y-115762754D01*
X175768590Y-115761832D01*
X175713491Y-115756236D01*
X175658372Y-115750053D01*
X175652200Y-115750010D01*
X175652089Y-115749999D01*
X175651986Y-115750009D01*
X175649995Y-115749995D01*
X153950005Y-115749995D01*
X153894880Y-115755400D01*
X153839634Y-115760234D01*
X153836605Y-115761114D01*
X153833464Y-115761422D01*
X153780367Y-115777453D01*
X153727184Y-115792904D01*
X153724386Y-115794354D01*
X153721363Y-115795267D01*
X153672432Y-115821284D01*
X153623221Y-115846792D01*
X153620753Y-115848762D01*
X153617970Y-115850242D01*
X153575061Y-115885238D01*
X153531706Y-115919848D01*
X153527314Y-115924179D01*
X153527224Y-115924253D01*
X153527155Y-115924337D01*
X153525741Y-115925731D01*
X152293499Y-117157973D01*
X152223501Y-117150122D01*
X152206048Y-117150000D01*
X152193952Y-117150000D01*
X151951159Y-117173806D01*
X151717614Y-117244317D01*
X151502213Y-117358848D01*
X151313159Y-117513037D01*
X151157655Y-117701009D01*
X151041623Y-117915606D01*
X150969483Y-118148653D01*
X150943982Y-118391273D01*
X150966093Y-118634227D01*
X151034972Y-118868258D01*
X151147997Y-119084454D01*
X151200697Y-119150000D01*
X150300000Y-119150000D01*
X150168298Y-119175725D01*
X150052513Y-119252513D01*
X148952513Y-120352513D01*
X148877575Y-120463830D01*
X148850000Y-120600000D01*
X148850000Y-121650000D01*
X128080060Y-121650000D01*
X128080060Y-121384236D01*
X128050000Y-121077658D01*
X128050000Y-118750000D01*
X141902775Y-118750000D01*
X142033980Y-118724477D01*
X142149883Y-118647867D01*
X143645181Y-117157148D01*
X144532522Y-117154062D01*
X144331159Y-117173806D01*
X144097614Y-117244317D01*
X143882213Y-117358848D01*
X143693159Y-117513037D01*
X143537655Y-117701009D01*
X143421623Y-117915606D01*
X143349483Y-118148653D01*
X143323982Y-118391273D01*
X143346093Y-118634227D01*
X143414972Y-118868258D01*
X143527997Y-119084454D01*
X143680861Y-119274579D01*
X143867743Y-119431392D01*
X144081525Y-119548919D01*
X144314062Y-119622685D01*
X144556499Y-119649878D01*
X144573952Y-119650000D01*
X144586048Y-119650000D01*
X144828841Y-119626194D01*
X145062386Y-119555683D01*
X145277787Y-119441152D01*
X145466841Y-119286963D01*
X145622345Y-119098991D01*
X145738377Y-118884394D01*
X145810517Y-118651347D01*
X145836018Y-118408727D01*
X145813907Y-118165773D01*
X145745028Y-117931742D01*
X145736439Y-117915313D01*
X149176751Y-114475000D01*
X150117893Y-114475000D01*
X147408441Y-117184453D01*
X147385938Y-117177315D01*
X147143501Y-117150122D01*
X147126048Y-117150000D01*
X147113952Y-117150000D01*
X146871159Y-117173806D01*
X146637614Y-117244317D01*
X146422213Y-117358848D01*
X146233159Y-117513037D01*
X146077655Y-117701009D01*
X145961623Y-117915606D01*
X145889483Y-118148653D01*
X145863982Y-118391273D01*
X145886093Y-118634227D01*
X145954972Y-118868258D01*
X146067997Y-119084454D01*
X146220861Y-119274579D01*
X146407743Y-119431392D01*
X146621525Y-119548919D01*
X146854062Y-119622685D01*
X147096499Y-119649878D01*
X147113952Y-119650000D01*
X147126048Y-119650000D01*
X147368841Y-119626194D01*
X147600496Y-119556253D01*
X147598946Y-119667266D01*
X147627268Y-119821577D01*
X147685022Y-119967448D01*
X147770010Y-120099323D01*
X147878993Y-120212179D01*
X148007822Y-120301717D01*
X148151588Y-120364527D01*
X148304816Y-120398216D01*
X148461670Y-120401502D01*
X148616175Y-120374258D01*
X148762445Y-120317524D01*
X148894910Y-120233459D01*
X149008524Y-120125266D01*
X149098960Y-119997066D01*
X149162772Y-119853741D01*
X149197530Y-119700752D01*
X149200032Y-119521556D01*
X149169559Y-119367656D01*
X149109774Y-119222605D01*
X149022953Y-119091930D01*
X148912405Y-118980607D01*
X148899998Y-118972238D01*
X148899998Y-118007108D01*
X151357132Y-115549974D01*
X164450026Y-115549974D01*
X164495970Y-115545469D01*
X164542002Y-115541442D01*
X164544527Y-115540709D01*
X164547143Y-115540452D01*
X164591349Y-115527105D01*
X164635710Y-115514217D01*
X164638045Y-115513007D01*
X164640561Y-115512247D01*
X164681311Y-115490580D01*
X164722346Y-115469310D01*
X164724402Y-115467668D01*
X164726722Y-115466435D01*
X164762511Y-115437246D01*
X164798608Y-115408429D01*
X164802266Y-115404822D01*
X164802343Y-115404759D01*
X164802402Y-115404688D01*
X164803579Y-115403527D01*
X172253553Y-107953554D01*
X172282853Y-107917884D01*
X172312557Y-107882484D01*
X172313825Y-107880177D01*
X172315492Y-107878148D01*
X172337299Y-107837479D01*
X172359568Y-107796971D01*
X172360363Y-107794464D01*
X172361605Y-107792148D01*
X172375107Y-107747985D01*
X172389074Y-107703956D01*
X172389367Y-107701345D01*
X172390136Y-107698829D01*
X172394801Y-107652897D01*
X172399951Y-107606981D01*
X172399987Y-107601832D01*
X172399996Y-107601745D01*
X172399988Y-107601664D01*
X172400000Y-107600000D01*
X172400000Y-102100976D01*
X172880975Y-101620001D01*
X173780001Y-101620001D01*
X173825945Y-101615496D01*
X173871977Y-101611469D01*
X173874502Y-101610736D01*
X173877118Y-101610479D01*
X173921324Y-101597132D01*
X173965685Y-101584244D01*
X173968020Y-101583034D01*
X173970536Y-101582274D01*
X174011286Y-101560607D01*
X174032439Y-101549643D01*
X174017444Y-101567513D01*
X174016176Y-101569820D01*
X174014509Y-101571849D01*
X173992702Y-101612518D01*
X173970433Y-101653026D01*
X173969638Y-101655533D01*
X173968396Y-101657849D01*
X173954894Y-101702012D01*
X173940927Y-101746041D01*
X173940634Y-101748652D01*
X173939865Y-101751168D01*
X173935195Y-101797144D01*
X173930050Y-101843016D01*
X173930014Y-101848154D01*
X173930004Y-101848252D01*
X173930013Y-101848343D01*
X173930001Y-101849997D01*
X173930001Y-108572892D01*
X173726517Y-108776377D01*
X173726446Y-108776447D01*
X173639100Y-108863793D01*
X173431347Y-108799483D01*
X173188727Y-108773982D01*
X172945773Y-108796093D01*
X172711742Y-108864972D01*
X172495546Y-108977997D01*
X172305421Y-109130861D01*
X172148608Y-109317743D01*
X172031081Y-109531525D01*
X171957315Y-109764062D01*
X171930122Y-110006499D01*
X171930000Y-110023952D01*
X171930000Y-110036048D01*
X171953806Y-110278841D01*
X172024317Y-110512386D01*
X172138848Y-110727787D01*
X172293037Y-110916841D01*
X172481009Y-111072345D01*
X172695606Y-111188377D01*
X172928653Y-111260517D01*
X173171273Y-111286018D01*
X173414227Y-111263907D01*
X173648258Y-111195028D01*
X173864454Y-111082003D01*
X174054579Y-110929139D01*
X174211392Y-110742257D01*
X174328919Y-110528475D01*
X174402685Y-110295938D01*
X174429878Y-110053501D01*
X174430000Y-110036048D01*
X174430000Y-110023952D01*
X174406194Y-109781159D01*
X174343524Y-109573583D01*
X174433553Y-109483554D01*
X174433558Y-109483548D01*
X174783555Y-109133552D01*
X174812881Y-109097851D01*
X174842558Y-109062483D01*
X174843824Y-109060180D01*
X174845494Y-109058147D01*
X174867311Y-109017458D01*
X174889569Y-108976970D01*
X174890365Y-108974460D01*
X174891606Y-108972146D01*
X174905100Y-108928010D01*
X174919075Y-108883955D01*
X174919368Y-108881342D01*
X174920137Y-108878827D01*
X174924806Y-108832857D01*
X174929952Y-108786980D01*
X174929988Y-108781842D01*
X174929998Y-108781744D01*
X174929989Y-108781653D01*
X174930001Y-108779999D01*
X174930001Y-108457057D01*
X175021009Y-108532345D01*
X175235606Y-108648377D01*
X175468653Y-108720517D01*
X175711273Y-108746018D01*
X175954227Y-108723907D01*
X176188258Y-108655028D01*
X176404454Y-108542003D01*
X176500000Y-108465182D01*
X176500000Y-109054671D01*
X176418991Y-108987655D01*
X176204394Y-108871623D01*
X175971347Y-108799483D01*
X175728727Y-108773982D01*
X175725011Y-108774320D01*
X175723316Y-108774142D01*
X175630994Y-108782544D01*
X175629358Y-108783025D01*
X175485773Y-108796093D01*
X175251742Y-108864972D01*
X175035546Y-108977997D01*
X174845421Y-109130861D01*
X174688608Y-109317743D01*
X174571081Y-109531525D01*
X174497315Y-109764062D01*
X174470122Y-110006499D01*
X174470000Y-110023952D01*
X174470000Y-110036048D01*
X174493806Y-110278841D01*
X174564317Y-110512386D01*
X174678848Y-110727787D01*
X174833037Y-110916841D01*
X175021009Y-111072345D01*
X175235606Y-111188377D01*
X175468653Y-111260517D01*
X175711273Y-111286018D01*
X175954227Y-111263907D01*
X176025000Y-111243077D01*
X176025000Y-114700000D01*
X176029284Y-114743691D01*
X176033106Y-114787377D01*
X176033802Y-114789773D01*
X176034046Y-114792261D01*
X176046738Y-114834297D01*
X176058970Y-114876400D01*
X176060119Y-114878617D01*
X176060841Y-114881008D01*
X176081453Y-114919774D01*
X176101632Y-114958704D01*
X176103188Y-114960654D01*
X176104362Y-114962861D01*
X176132078Y-114996844D01*
X176159467Y-115031154D01*
X176162901Y-115034636D01*
X176162954Y-115034701D01*
X176163015Y-115034751D01*
X176164124Y-115035876D01*
X177125000Y-115996752D01*
X177125000Y-119403248D01*
X175729341Y-120798907D01*
X175647979Y-120762231D01*
X175550000Y-120748307D01*
X174650000Y-120748307D01*
X174594264Y-120752752D01*
X174499729Y-120782027D01*
X174417094Y-120836480D01*
X174352900Y-120911800D01*
X174312231Y-121002021D01*
X174298307Y-121100000D01*
X174298307Y-121279941D01*
X173928247Y-121650001D01*
X172574999Y-121650001D01*
X172531308Y-121654285D01*
X172487622Y-121658107D01*
X172485226Y-121658803D01*
X172482738Y-121659047D01*
X172440702Y-121671739D01*
X172398599Y-121683971D01*
X172396382Y-121685120D01*
X172393991Y-121685842D01*
X172355225Y-121706454D01*
X172316295Y-121726633D01*
X172314345Y-121728189D01*
X172312138Y-121729363D01*
X172278155Y-121757079D01*
X172243845Y-121784468D01*
X172240368Y-121787898D01*
X172240298Y-121787955D01*
X172240244Y-121788020D01*
X172239123Y-121789126D01*
X172103249Y-121925000D01*
X170492533Y-121925000D01*
X170475375Y-121892179D01*
X170377593Y-121770563D01*
X170258051Y-121670256D01*
X170121303Y-121595078D01*
X169972557Y-121547893D01*
X169817479Y-121530498D01*
X169806315Y-121530420D01*
X169193685Y-121530420D01*
X169038379Y-121545648D01*
X168888989Y-121590751D01*
X168751204Y-121664013D01*
X168630274Y-121762641D01*
X168530803Y-121882881D01*
X168456582Y-122020150D01*
X168410436Y-122169222D01*
X168394124Y-122324418D01*
X168408268Y-122479826D01*
X168452327Y-122629528D01*
X168524625Y-122767821D01*
X168622407Y-122889437D01*
X168712830Y-122965310D01*
X168630274Y-123032641D01*
X168530803Y-123152881D01*
X168456582Y-123290150D01*
X168410436Y-123439222D01*
X168394124Y-123594418D01*
X168408268Y-123749826D01*
X168452327Y-123899528D01*
X168524625Y-124037821D01*
X168622407Y-124159437D01*
X168741949Y-124259744D01*
X168878697Y-124334922D01*
X169027443Y-124382107D01*
X169182521Y-124399502D01*
X169193685Y-124399580D01*
X169806315Y-124399580D01*
X169961621Y-124384352D01*
X170111011Y-124339249D01*
X170248796Y-124265987D01*
X170369726Y-124167359D01*
X170469197Y-124047119D01*
X170543418Y-123909850D01*
X170589564Y-123760778D01*
X170605876Y-123605582D01*
X170591732Y-123450174D01*
X170575780Y-123395972D01*
X170596751Y-123375000D01*
X172683718Y-123375000D01*
X172707027Y-123450271D01*
X172761480Y-123532906D01*
X172836800Y-123597100D01*
X172927021Y-123637769D01*
X173025000Y-123651693D01*
X173775000Y-123651693D01*
X173830736Y-123647248D01*
X173925271Y-123617973D01*
X174007906Y-123563520D01*
X174072100Y-123488200D01*
X174112769Y-123397979D01*
X174123140Y-123325000D01*
X174381270Y-123325000D01*
X174386480Y-123332906D01*
X174461800Y-123397100D01*
X174552021Y-123437769D01*
X174650000Y-123451693D01*
X175550000Y-123451693D01*
X175605736Y-123447248D01*
X175700271Y-123417973D01*
X175782906Y-123363520D01*
X175847100Y-123288200D01*
X175887769Y-123197979D01*
X175901693Y-123100000D01*
X175901693Y-122755413D01*
X178453554Y-120203553D01*
X178482880Y-120167852D01*
X178512557Y-120132484D01*
X178513823Y-120130181D01*
X178515493Y-120128148D01*
X178537320Y-120087440D01*
X178559568Y-120046971D01*
X178560363Y-120044464D01*
X178561605Y-120042148D01*
X178575107Y-119997985D01*
X178589074Y-119953956D01*
X178589367Y-119951345D01*
X178590136Y-119948829D01*
X178594806Y-119902853D01*
X178599951Y-119856981D01*
X178599987Y-119851843D01*
X178599997Y-119851745D01*
X178599988Y-119851654D01*
X178600000Y-119850000D01*
X178600000Y-115500000D01*
X178595495Y-115454052D01*
X178591468Y-115408025D01*
X178590735Y-115405501D01*
X178590478Y-115402883D01*
X178577127Y-115358665D01*
X178564243Y-115314316D01*
X178563033Y-115311981D01*
X178562273Y-115309465D01*
X178540595Y-115268694D01*
X178519336Y-115227681D01*
X178517696Y-115225626D01*
X178516461Y-115223304D01*
X178487254Y-115187494D01*
X178458455Y-115151418D01*
X178454848Y-115147760D01*
X178454785Y-115147683D01*
X178454714Y-115147624D01*
X178453553Y-115146447D01*
X177500000Y-114192894D01*
X177500000Y-106100000D01*
X177495495Y-106054048D01*
X177491468Y-106008025D01*
X177490735Y-106005501D01*
X177490478Y-106002883D01*
X177477127Y-105958665D01*
X177464243Y-105914316D01*
X177463033Y-105911981D01*
X177462273Y-105909465D01*
X177440595Y-105868694D01*
X177419336Y-105827681D01*
X177417696Y-105825626D01*
X177416461Y-105823304D01*
X177387254Y-105787494D01*
X177358455Y-105751418D01*
X177354844Y-105747756D01*
X177354785Y-105747683D01*
X177354718Y-105747627D01*
X177353554Y-105746447D01*
X176913872Y-105306766D01*
X176942685Y-105215938D01*
X176969878Y-104973501D01*
X176970000Y-104956048D01*
X176970000Y-104943952D01*
X176946194Y-104701159D01*
X176875683Y-104467614D01*
X176875147Y-104466605D01*
X178985876Y-102355876D01*
X179013755Y-102321936D01*
X179041929Y-102288359D01*
X179043130Y-102286174D01*
X179044718Y-102284241D01*
X179065459Y-102245557D01*
X179086589Y-102207122D01*
X179087345Y-102204739D01*
X179088524Y-102202540D01*
X179101348Y-102160596D01*
X179114620Y-102118758D01*
X179114898Y-102116277D01*
X179115629Y-102113887D01*
X179120062Y-102070241D01*
X179124954Y-102026632D01*
X179124988Y-102021748D01*
X179124997Y-102021658D01*
X179124989Y-102021574D01*
X179125000Y-102020000D01*
X179125000Y-82318730D01*
X179132906Y-82313520D01*
X179197100Y-82238200D01*
X179237769Y-82147979D01*
X179251693Y-82050000D01*
X179251693Y-81150000D01*
X179247248Y-81094264D01*
X179217973Y-80999729D01*
X179163520Y-80917094D01*
X179118287Y-80878543D01*
X179116894Y-80862623D01*
X179116198Y-80860227D01*
X179115954Y-80857739D01*
X179103262Y-80815703D01*
X179091030Y-80773600D01*
X179089881Y-80771383D01*
X179089159Y-80768992D01*
X179068547Y-80730226D01*
X179048368Y-80691296D01*
X179046812Y-80689346D01*
X179045638Y-80687139D01*
X179017922Y-80653156D01*
X178990533Y-80618846D01*
X178987099Y-80615364D01*
X178987046Y-80615299D01*
X178986985Y-80615249D01*
X178985876Y-80614124D01*
X176535876Y-78164124D01*
X176501936Y-78136245D01*
X176468359Y-78108071D01*
X176466174Y-78106870D01*
X176464241Y-78105282D01*
X176425557Y-78084541D01*
X176387122Y-78063411D01*
X176384739Y-78062655D01*
X176382540Y-78061476D01*
X176340583Y-78048648D01*
X176298758Y-78035380D01*
X176296278Y-78035102D01*
X176293888Y-78034371D01*
X176250236Y-78029937D01*
X176206632Y-78025046D01*
X176201748Y-78025012D01*
X176201658Y-78025003D01*
X176201574Y-78025011D01*
X176200000Y-78025000D01*
X175451678Y-78025000D01*
X175413520Y-77967094D01*
X175338200Y-77902900D01*
X175247979Y-77862231D01*
X175150000Y-77848307D01*
X174473445Y-77848307D01*
X174770059Y-77551693D01*
X175150000Y-77551693D01*
X175205736Y-77547248D01*
X175300271Y-77517973D01*
X175382906Y-77463520D01*
X175447100Y-77388200D01*
X175487769Y-77297979D01*
X175501693Y-77200000D01*
X175501693Y-76700000D01*
X175497248Y-76644264D01*
X175467973Y-76549729D01*
X175413520Y-76467094D01*
X175338200Y-76402900D01*
X175247979Y-76362231D01*
X175150000Y-76348307D01*
X174250000Y-76348307D01*
X174194264Y-76352752D01*
X174099729Y-76382027D01*
X174017094Y-76436480D01*
X173952900Y-76511800D01*
X173912231Y-76602021D01*
X173898307Y-76700000D01*
X173898307Y-77079941D01*
X173853248Y-77125000D01*
X170389201Y-77125000D01*
X170377593Y-77110563D01*
X170258051Y-77010256D01*
X170121303Y-76935078D01*
X169972557Y-76887893D01*
X169817479Y-76870498D01*
X169806315Y-76870420D01*
X169193685Y-76870420D01*
X169038379Y-76885648D01*
X168888989Y-76930751D01*
X168751204Y-77004013D01*
X168750000Y-77004995D01*
X168750000Y-75950000D01*
X170200000Y-75950000D01*
X170327210Y-75926064D01*
X170444045Y-75850883D01*
X170522425Y-75736170D01*
X170550000Y-75600000D01*
X170550000Y-55323719D01*
X171144939Y-55323719D01*
X171281235Y-56066339D01*
X171559178Y-56768342D01*
X171968181Y-57402990D01*
X172492665Y-57946109D01*
X173112652Y-58377012D01*
X173804528Y-58679285D01*
X174541939Y-58841415D01*
X175296797Y-58857227D01*
X176040351Y-58726119D01*
X176744278Y-58453083D01*
X177381766Y-58048521D01*
X177928533Y-57527842D01*
X178363753Y-56910878D01*
X178670849Y-56221129D01*
X178838124Y-55484868D01*
X178850166Y-54622488D01*
X178703514Y-53881843D01*
X178415797Y-53183789D01*
X177997973Y-52554913D01*
X177465957Y-52019170D01*
X176840014Y-51596966D01*
X176143985Y-51304382D01*
X175404382Y-51152564D01*
X174649376Y-51147293D01*
X173907726Y-51288770D01*
X173207680Y-51571607D01*
X172575902Y-51985031D01*
X172036458Y-52513293D01*
X171609895Y-53136274D01*
X171312459Y-53830243D01*
X171155481Y-54568768D01*
X171144939Y-55323719D01*
X170550000Y-55323719D01*
X170550000Y-50400000D01*
X179600000Y-50400000D01*
X179600000Y-149600000D01*
G36*
X112257655Y-117701009D02*
X112141623Y-117915606D01*
X112069483Y-118148653D01*
X112043982Y-118391273D01*
X112066093Y-118634227D01*
X112134972Y-118868258D01*
X112247997Y-119084454D01*
X112400861Y-119274579D01*
X112490744Y-119350000D01*
X109029550Y-119350000D01*
X109106841Y-119286963D01*
X109262345Y-119098991D01*
X109378377Y-118884394D01*
X109450517Y-118651347D01*
X109476018Y-118408727D01*
X109453907Y-118165773D01*
X109385028Y-117931742D01*
X109272003Y-117715546D01*
X109138901Y-117550000D01*
X112382581Y-117550000D01*
X112257655Y-117701009D01*
X112257655Y-117701009D01*
G37*
X112257655Y-117701009D02*
X112141623Y-117915606D01*
X112069483Y-118148653D01*
X112043982Y-118391273D01*
X112066093Y-118634227D01*
X112134972Y-118868258D01*
X112247997Y-119084454D01*
X112400861Y-119274579D01*
X112490744Y-119350000D01*
X109029550Y-119350000D01*
X109106841Y-119286963D01*
X109262345Y-119098991D01*
X109378377Y-118884394D01*
X109450517Y-118651347D01*
X109476018Y-118408727D01*
X109453907Y-118165773D01*
X109385028Y-117931742D01*
X109272003Y-117715546D01*
X109138901Y-117550000D01*
X112382581Y-117550000D01*
X112257655Y-117701009D01*
G36*
X165987743Y-82631392D02*
X166201525Y-82748919D01*
X166434062Y-82822685D01*
X166676499Y-82849878D01*
X166693952Y-82850000D01*
X166706048Y-82850000D01*
X166948841Y-82826194D01*
X167047791Y-82796319D01*
X169251492Y-85000020D01*
X166028297Y-85000020D01*
X166022935Y-84991950D01*
X165912387Y-84880627D01*
X165782321Y-84792896D01*
X165637691Y-84732099D01*
X165484007Y-84700553D01*
X165327123Y-84699457D01*
X165173014Y-84728855D01*
X165027550Y-84787627D01*
X164896271Y-84873533D01*
X164784179Y-84983302D01*
X164695542Y-85112752D01*
X164633738Y-85256954D01*
X164601119Y-85410413D01*
X164598928Y-85567286D01*
X164627250Y-85721597D01*
X164685004Y-85867468D01*
X164769992Y-85999343D01*
X164818565Y-86049642D01*
X164784179Y-86083315D01*
X164695542Y-86212765D01*
X164633738Y-86356967D01*
X164601119Y-86510426D01*
X164598928Y-86667299D01*
X164627250Y-86821610D01*
X164685004Y-86967481D01*
X164769992Y-87099356D01*
X164878975Y-87212212D01*
X165007804Y-87301750D01*
X165151570Y-87364560D01*
X165304798Y-87398249D01*
X165461652Y-87401535D01*
X165616157Y-87374291D01*
X165762427Y-87317557D01*
X165894892Y-87233492D01*
X166008506Y-87125299D01*
X166098942Y-86997099D01*
X166162754Y-86853774D01*
X166197512Y-86700785D01*
X166198803Y-86608303D01*
X166207107Y-86600000D01*
X170892894Y-86600000D01*
X173930001Y-89637108D01*
X173930001Y-95451444D01*
X173896291Y-95473503D01*
X173784199Y-95583272D01*
X173755634Y-95624990D01*
X172650880Y-95624990D01*
X172607189Y-95629274D01*
X172563503Y-95633096D01*
X172561107Y-95633792D01*
X172558619Y-95634036D01*
X172516583Y-95646728D01*
X172474480Y-95658960D01*
X172472263Y-95660109D01*
X172469872Y-95660831D01*
X172431106Y-95681443D01*
X172392176Y-95701622D01*
X172390226Y-95703178D01*
X172388019Y-95704352D01*
X172354036Y-95732068D01*
X172319726Y-95759457D01*
X172316244Y-95762891D01*
X172316179Y-95762944D01*
X172316129Y-95763005D01*
X172315004Y-95764114D01*
X170264124Y-97814994D01*
X170236245Y-97848934D01*
X170208071Y-97882511D01*
X170206870Y-97884696D01*
X170205282Y-97886629D01*
X170184541Y-97925313D01*
X170163411Y-97963748D01*
X170162655Y-97966131D01*
X170161476Y-97968330D01*
X170148648Y-98010287D01*
X170135380Y-98052112D01*
X170135102Y-98054592D01*
X170134371Y-98056982D01*
X170129937Y-98100634D01*
X170125046Y-98144238D01*
X170125012Y-98149122D01*
X170125003Y-98149212D01*
X170125011Y-98149296D01*
X170125000Y-98150870D01*
X170125000Y-106903249D01*
X163503248Y-113525000D01*
X163150000Y-113525000D01*
X163150000Y-82950000D01*
X165603965Y-82950000D01*
X165732467Y-82925557D01*
X165849003Y-82849913D01*
X165926927Y-82734890D01*
X165953208Y-82602414D01*
X165987743Y-82631392D01*
X165987743Y-82631392D01*
G37*
X165987743Y-82631392D02*
X166201525Y-82748919D01*
X166434062Y-82822685D01*
X166676499Y-82849878D01*
X166693952Y-82850000D01*
X166706048Y-82850000D01*
X166948841Y-82826194D01*
X167047791Y-82796319D01*
X169251492Y-85000020D01*
X166028297Y-85000020D01*
X166022935Y-84991950D01*
X165912387Y-84880627D01*
X165782321Y-84792896D01*
X165637691Y-84732099D01*
X165484007Y-84700553D01*
X165327123Y-84699457D01*
X165173014Y-84728855D01*
X165027550Y-84787627D01*
X164896271Y-84873533D01*
X164784179Y-84983302D01*
X164695542Y-85112752D01*
X164633738Y-85256954D01*
X164601119Y-85410413D01*
X164598928Y-85567286D01*
X164627250Y-85721597D01*
X164685004Y-85867468D01*
X164769992Y-85999343D01*
X164818565Y-86049642D01*
X164784179Y-86083315D01*
X164695542Y-86212765D01*
X164633738Y-86356967D01*
X164601119Y-86510426D01*
X164598928Y-86667299D01*
X164627250Y-86821610D01*
X164685004Y-86967481D01*
X164769992Y-87099356D01*
X164878975Y-87212212D01*
X165007804Y-87301750D01*
X165151570Y-87364560D01*
X165304798Y-87398249D01*
X165461652Y-87401535D01*
X165616157Y-87374291D01*
X165762427Y-87317557D01*
X165894892Y-87233492D01*
X166008506Y-87125299D01*
X166098942Y-86997099D01*
X166162754Y-86853774D01*
X166197512Y-86700785D01*
X166198803Y-86608303D01*
X166207107Y-86600000D01*
X170892894Y-86600000D01*
X173930001Y-89637108D01*
X173930001Y-95451444D01*
X173896291Y-95473503D01*
X173784199Y-95583272D01*
X173755634Y-95624990D01*
X172650880Y-95624990D01*
X172607189Y-95629274D01*
X172563503Y-95633096D01*
X172561107Y-95633792D01*
X172558619Y-95634036D01*
X172516583Y-95646728D01*
X172474480Y-95658960D01*
X172472263Y-95660109D01*
X172469872Y-95660831D01*
X172431106Y-95681443D01*
X172392176Y-95701622D01*
X172390226Y-95703178D01*
X172388019Y-95704352D01*
X172354036Y-95732068D01*
X172319726Y-95759457D01*
X172316244Y-95762891D01*
X172316179Y-95762944D01*
X172316129Y-95763005D01*
X172315004Y-95764114D01*
X170264124Y-97814994D01*
X170236245Y-97848934D01*
X170208071Y-97882511D01*
X170206870Y-97884696D01*
X170205282Y-97886629D01*
X170184541Y-97925313D01*
X170163411Y-97963748D01*
X170162655Y-97966131D01*
X170161476Y-97968330D01*
X170148648Y-98010287D01*
X170135380Y-98052112D01*
X170135102Y-98054592D01*
X170134371Y-98056982D01*
X170129937Y-98100634D01*
X170125046Y-98144238D01*
X170125012Y-98149122D01*
X170125003Y-98149212D01*
X170125011Y-98149296D01*
X170125000Y-98150870D01*
X170125000Y-106903249D01*
X163503248Y-113525000D01*
X163150000Y-113525000D01*
X163150000Y-82950000D01*
X165603965Y-82950000D01*
X165732467Y-82925557D01*
X165849003Y-82849913D01*
X165926927Y-82734890D01*
X165953208Y-82602414D01*
X165987743Y-82631392D01*
G36*
X173770012Y-96599313D02*
X173878995Y-96712169D01*
X174007824Y-96801707D01*
X174151590Y-96864517D01*
X174304818Y-96898206D01*
X174461672Y-96901492D01*
X174554053Y-96885202D01*
X174497315Y-97064062D01*
X174470122Y-97306499D01*
X174470000Y-97323952D01*
X174470000Y-97336048D01*
X174493806Y-97578841D01*
X174556477Y-97786417D01*
X174242894Y-98100000D01*
X172300000Y-98100000D01*
X172254048Y-98104505D01*
X172208025Y-98108532D01*
X172205501Y-98109265D01*
X172202883Y-98109522D01*
X172158665Y-98122873D01*
X172114316Y-98135757D01*
X172111981Y-98136967D01*
X172109465Y-98137727D01*
X172068694Y-98159405D01*
X172027681Y-98180664D01*
X172025626Y-98182304D01*
X172023304Y-98183539D01*
X171987494Y-98212746D01*
X171951418Y-98241545D01*
X171947760Y-98245152D01*
X171947683Y-98245215D01*
X171947624Y-98245286D01*
X171946447Y-98246447D01*
X171546458Y-98646436D01*
X171517179Y-98682081D01*
X171487454Y-98717505D01*
X171486186Y-98719812D01*
X171484519Y-98721841D01*
X171462712Y-98762510D01*
X171440443Y-98803018D01*
X171439648Y-98805525D01*
X171438406Y-98807841D01*
X171424904Y-98852004D01*
X171410937Y-98896033D01*
X171410644Y-98898644D01*
X171409875Y-98901160D01*
X171405205Y-98947136D01*
X171400060Y-98993008D01*
X171400024Y-98998146D01*
X171400014Y-98998244D01*
X171400023Y-98998335D01*
X171400011Y-98999989D01*
X171400011Y-100892882D01*
X171075000Y-101217894D01*
X171075000Y-98347622D01*
X172847632Y-96574990D01*
X173754337Y-96574990D01*
X173770012Y-96599313D01*
X173770012Y-96599313D01*
G37*
X173770012Y-96599313D02*
X173878995Y-96712169D01*
X174007824Y-96801707D01*
X174151590Y-96864517D01*
X174304818Y-96898206D01*
X174461672Y-96901492D01*
X174554053Y-96885202D01*
X174497315Y-97064062D01*
X174470122Y-97306499D01*
X174470000Y-97323952D01*
X174470000Y-97336048D01*
X174493806Y-97578841D01*
X174556477Y-97786417D01*
X174242894Y-98100000D01*
X172300000Y-98100000D01*
X172254048Y-98104505D01*
X172208025Y-98108532D01*
X172205501Y-98109265D01*
X172202883Y-98109522D01*
X172158665Y-98122873D01*
X172114316Y-98135757D01*
X172111981Y-98136967D01*
X172109465Y-98137727D01*
X172068694Y-98159405D01*
X172027681Y-98180664D01*
X172025626Y-98182304D01*
X172023304Y-98183539D01*
X171987494Y-98212746D01*
X171951418Y-98241545D01*
X171947760Y-98245152D01*
X171947683Y-98245215D01*
X171947624Y-98245286D01*
X171946447Y-98246447D01*
X171546458Y-98646436D01*
X171517179Y-98682081D01*
X171487454Y-98717505D01*
X171486186Y-98719812D01*
X171484519Y-98721841D01*
X171462712Y-98762510D01*
X171440443Y-98803018D01*
X171439648Y-98805525D01*
X171438406Y-98807841D01*
X171424904Y-98852004D01*
X171410937Y-98896033D01*
X171410644Y-98898644D01*
X171409875Y-98901160D01*
X171405205Y-98947136D01*
X171400060Y-98993008D01*
X171400024Y-98998146D01*
X171400014Y-98998244D01*
X171400023Y-98998335D01*
X171400011Y-98999989D01*
X171400011Y-100892882D01*
X171075000Y-101217894D01*
X171075000Y-98347622D01*
X172847632Y-96574990D01*
X173754337Y-96574990D01*
X173770012Y-96599313D01*
G36*
X176500000Y-98894671D02*
X176418991Y-98827655D01*
X176204394Y-98711623D01*
X175971347Y-98639483D01*
X175728727Y-98613982D01*
X175485773Y-98636093D01*
X175251742Y-98704972D01*
X175035546Y-98817997D01*
X174845421Y-98970861D01*
X174688608Y-99157743D01*
X174571081Y-99371525D01*
X174497315Y-99604062D01*
X174485753Y-99707142D01*
X173572895Y-100620001D01*
X172673869Y-100620001D01*
X172627925Y-100624506D01*
X172581893Y-100628533D01*
X172579368Y-100629266D01*
X172576752Y-100629523D01*
X172532546Y-100642870D01*
X172488185Y-100655758D01*
X172485850Y-100656968D01*
X172483334Y-100657728D01*
X172442584Y-100679395D01*
X172401549Y-100700665D01*
X172400011Y-100701893D01*
X172400011Y-99207095D01*
X172507106Y-99100000D01*
X174450000Y-99100000D01*
X174495944Y-99095495D01*
X174541976Y-99091468D01*
X174544501Y-99090735D01*
X174547117Y-99090478D01*
X174591323Y-99077131D01*
X174635684Y-99064243D01*
X174638019Y-99063033D01*
X174640535Y-99062273D01*
X174681285Y-99040606D01*
X174722320Y-99019336D01*
X174724376Y-99017694D01*
X174726696Y-99016461D01*
X174762485Y-98987272D01*
X174798582Y-98958455D01*
X174802240Y-98954848D01*
X174802317Y-98954785D01*
X174802376Y-98954714D01*
X174803553Y-98953553D01*
X175260900Y-98496207D01*
X175468653Y-98560517D01*
X175711273Y-98586018D01*
X175954227Y-98563907D01*
X176188258Y-98495028D01*
X176404454Y-98382003D01*
X176500000Y-98305182D01*
X176500000Y-98894671D01*
X176500000Y-98894671D01*
G37*
X176500000Y-98894671D02*
X176418991Y-98827655D01*
X176204394Y-98711623D01*
X175971347Y-98639483D01*
X175728727Y-98613982D01*
X175485773Y-98636093D01*
X175251742Y-98704972D01*
X175035546Y-98817997D01*
X174845421Y-98970861D01*
X174688608Y-99157743D01*
X174571081Y-99371525D01*
X174497315Y-99604062D01*
X174485753Y-99707142D01*
X173572895Y-100620001D01*
X172673869Y-100620001D01*
X172627925Y-100624506D01*
X172581893Y-100628533D01*
X172579368Y-100629266D01*
X172576752Y-100629523D01*
X172532546Y-100642870D01*
X172488185Y-100655758D01*
X172485850Y-100656968D01*
X172483334Y-100657728D01*
X172442584Y-100679395D01*
X172401549Y-100700665D01*
X172400011Y-100701893D01*
X172400011Y-99207095D01*
X172507106Y-99100000D01*
X174450000Y-99100000D01*
X174495944Y-99095495D01*
X174541976Y-99091468D01*
X174544501Y-99090735D01*
X174547117Y-99090478D01*
X174591323Y-99077131D01*
X174635684Y-99064243D01*
X174638019Y-99063033D01*
X174640535Y-99062273D01*
X174681285Y-99040606D01*
X174722320Y-99019336D01*
X174724376Y-99017694D01*
X174726696Y-99016461D01*
X174762485Y-98987272D01*
X174798582Y-98958455D01*
X174802240Y-98954848D01*
X174802317Y-98954785D01*
X174802376Y-98954714D01*
X174803553Y-98953553D01*
X175260900Y-98496207D01*
X175468653Y-98560517D01*
X175711273Y-98586018D01*
X175954227Y-98563907D01*
X176188258Y-98495028D01*
X176404454Y-98382003D01*
X176500000Y-98305182D01*
X176500000Y-98894671D01*
G36*
X176991200Y-80798307D02*
X176900000Y-80798307D01*
X176844264Y-80802752D01*
X176749729Y-80832027D01*
X176667094Y-80886480D01*
X176602900Y-80961800D01*
X176562231Y-81052021D01*
X176555413Y-81100000D01*
X175468434Y-81100000D01*
X175372003Y-80915546D01*
X175219139Y-80725421D01*
X175032257Y-80568608D01*
X174818475Y-80451081D01*
X174585938Y-80377315D01*
X174343501Y-80350122D01*
X174326048Y-80350000D01*
X174313952Y-80350000D01*
X174071159Y-80373806D01*
X173837614Y-80444317D01*
X173622213Y-80558848D01*
X173433159Y-80713037D01*
X173277655Y-80901009D01*
X173161623Y-81115606D01*
X173089483Y-81348653D01*
X173063982Y-81591273D01*
X173086093Y-81834227D01*
X173154972Y-82068258D01*
X173267997Y-82284454D01*
X173420861Y-82474579D01*
X173607743Y-82631392D01*
X173821525Y-82748919D01*
X174054062Y-82822685D01*
X174296499Y-82849878D01*
X174313952Y-82850000D01*
X174326048Y-82850000D01*
X174568841Y-82826194D01*
X174802386Y-82755683D01*
X175017787Y-82641152D01*
X175206841Y-82486963D01*
X175362345Y-82298991D01*
X175469939Y-82100000D01*
X176552295Y-82100000D01*
X176552752Y-82105736D01*
X176582027Y-82200271D01*
X176636480Y-82282906D01*
X176650000Y-82294429D01*
X176650000Y-82550000D01*
X176654505Y-82595952D01*
X176658532Y-82641975D01*
X176659265Y-82644499D01*
X176659522Y-82647117D01*
X176672877Y-82691349D01*
X176685757Y-82735683D01*
X176686967Y-82738017D01*
X176687727Y-82740535D01*
X176709415Y-82781324D01*
X176730664Y-82822319D01*
X176732304Y-82824374D01*
X176733539Y-82826696D01*
X176762721Y-82862476D01*
X176791544Y-82898582D01*
X176795157Y-82902246D01*
X176795215Y-82902317D01*
X176795281Y-82902372D01*
X176796446Y-82903553D01*
X176876537Y-82983644D01*
X176837479Y-82962701D01*
X176796971Y-82940432D01*
X176794464Y-82939637D01*
X176792148Y-82938395D01*
X176747985Y-82924893D01*
X176703956Y-82910926D01*
X176701345Y-82910633D01*
X176698829Y-82909864D01*
X176652853Y-82905194D01*
X176606981Y-82900049D01*
X176601843Y-82900013D01*
X176601745Y-82900003D01*
X176601654Y-82900012D01*
X176600000Y-82900000D01*
X173787107Y-82900000D01*
X172946207Y-82059100D01*
X173010517Y-81851347D01*
X173036018Y-81608727D01*
X173013907Y-81365773D01*
X172945028Y-81131742D01*
X172832003Y-80915546D01*
X172679139Y-80725421D01*
X172492257Y-80568608D01*
X172278475Y-80451081D01*
X172045938Y-80377315D01*
X171803501Y-80350122D01*
X171786048Y-80350000D01*
X171773952Y-80350000D01*
X171531159Y-80373806D01*
X171297614Y-80444317D01*
X171082213Y-80558848D01*
X170893159Y-80713037D01*
X170737655Y-80901009D01*
X170621623Y-81115606D01*
X170549483Y-81348653D01*
X170523982Y-81591273D01*
X170546093Y-81834227D01*
X170614972Y-82068258D01*
X170727997Y-82284454D01*
X170880861Y-82474579D01*
X171067743Y-82631392D01*
X171281525Y-82748919D01*
X171514062Y-82822685D01*
X171756499Y-82849878D01*
X171773952Y-82850000D01*
X171786048Y-82850000D01*
X172028841Y-82826194D01*
X172236417Y-82763523D01*
X173226446Y-83753553D01*
X173262138Y-83782871D01*
X173297516Y-83812557D01*
X173299820Y-83813823D01*
X173301851Y-83815492D01*
X173342542Y-83837310D01*
X173383029Y-83859568D01*
X173385536Y-83860363D01*
X173387852Y-83861605D01*
X173432015Y-83875107D01*
X173476044Y-83889074D01*
X173478655Y-83889367D01*
X173481171Y-83890136D01*
X173527103Y-83894801D01*
X173573019Y-83899951D01*
X173578168Y-83899987D01*
X173578255Y-83899996D01*
X173578336Y-83899988D01*
X173580000Y-83900000D01*
X176392894Y-83900000D01*
X176470005Y-83977111D01*
X176470005Y-91249857D01*
X176418991Y-91207655D01*
X176220000Y-91100061D01*
X176220000Y-89977208D01*
X176215495Y-89931260D01*
X176211468Y-89885233D01*
X176210735Y-89882709D01*
X176210478Y-89880091D01*
X176197127Y-89835873D01*
X176184243Y-89791524D01*
X176183033Y-89789189D01*
X176182273Y-89786673D01*
X176160606Y-89745923D01*
X176139336Y-89704888D01*
X176137694Y-89702832D01*
X176136461Y-89700512D01*
X176107272Y-89664723D01*
X176078455Y-89628626D01*
X176074848Y-89624968D01*
X176074785Y-89624891D01*
X176074714Y-89624832D01*
X176073553Y-89623655D01*
X171938640Y-85488742D01*
X175105322Y-85488742D01*
X175117083Y-85500921D01*
X175245912Y-85590459D01*
X175389678Y-85653269D01*
X175542906Y-85686958D01*
X175699760Y-85690244D01*
X175854265Y-85663000D01*
X176000535Y-85606266D01*
X176133000Y-85522201D01*
X176246614Y-85414008D01*
X176337050Y-85285808D01*
X176400862Y-85142483D01*
X176435620Y-84989494D01*
X176438122Y-84810298D01*
X176407649Y-84656398D01*
X176347864Y-84511347D01*
X176261043Y-84380672D01*
X176150495Y-84269349D01*
X176020429Y-84181618D01*
X175875799Y-84120821D01*
X175722115Y-84089275D01*
X175565231Y-84088179D01*
X175411122Y-84117577D01*
X175265658Y-84176349D01*
X175134379Y-84262255D01*
X175107331Y-84288742D01*
X170237270Y-84288742D01*
X167899636Y-81951108D01*
X167930517Y-81851347D01*
X167956018Y-81608727D01*
X167933907Y-81365773D01*
X167865028Y-81131742D01*
X167752003Y-80915546D01*
X167750000Y-80913055D01*
X167750000Y-80775813D01*
X168130846Y-79937952D01*
X168346446Y-80153553D01*
X168382138Y-80182871D01*
X168417516Y-80212557D01*
X168419820Y-80213823D01*
X168421851Y-80215492D01*
X168462542Y-80237310D01*
X168503029Y-80259568D01*
X168505536Y-80260363D01*
X168507852Y-80261605D01*
X168552015Y-80275107D01*
X168596044Y-80289074D01*
X168598655Y-80289367D01*
X168601171Y-80290136D01*
X168647103Y-80294801D01*
X168693019Y-80299951D01*
X168698168Y-80299987D01*
X168698255Y-80299996D01*
X168698336Y-80299988D01*
X168700000Y-80300000D01*
X170900000Y-80300000D01*
X170945944Y-80295495D01*
X170991976Y-80291468D01*
X170994501Y-80290735D01*
X170997117Y-80290478D01*
X171041323Y-80277131D01*
X171085684Y-80264243D01*
X171088019Y-80263033D01*
X171090535Y-80262273D01*
X171131285Y-80240606D01*
X171172320Y-80219336D01*
X171174376Y-80217694D01*
X171176696Y-80216461D01*
X171212485Y-80187272D01*
X171248582Y-80158455D01*
X171252240Y-80154848D01*
X171252317Y-80154785D01*
X171252376Y-80154714D01*
X171253553Y-80153553D01*
X171607107Y-79800000D01*
X175992894Y-79800000D01*
X176991200Y-80798307D01*
X176991200Y-80798307D01*
G37*
X176991200Y-80798307D02*
X176900000Y-80798307D01*
X176844264Y-80802752D01*
X176749729Y-80832027D01*
X176667094Y-80886480D01*
X176602900Y-80961800D01*
X176562231Y-81052021D01*
X176555413Y-81100000D01*
X175468434Y-81100000D01*
X175372003Y-80915546D01*
X175219139Y-80725421D01*
X175032257Y-80568608D01*
X174818475Y-80451081D01*
X174585938Y-80377315D01*
X174343501Y-80350122D01*
X174326048Y-80350000D01*
X174313952Y-80350000D01*
X174071159Y-80373806D01*
X173837614Y-80444317D01*
X173622213Y-80558848D01*
X173433159Y-80713037D01*
X173277655Y-80901009D01*
X173161623Y-81115606D01*
X173089483Y-81348653D01*
X173063982Y-81591273D01*
X173086093Y-81834227D01*
X173154972Y-82068258D01*
X173267997Y-82284454D01*
X173420861Y-82474579D01*
X173607743Y-82631392D01*
X173821525Y-82748919D01*
X174054062Y-82822685D01*
X174296499Y-82849878D01*
X174313952Y-82850000D01*
X174326048Y-82850000D01*
X174568841Y-82826194D01*
X174802386Y-82755683D01*
X175017787Y-82641152D01*
X175206841Y-82486963D01*
X175362345Y-82298991D01*
X175469939Y-82100000D01*
X176552295Y-82100000D01*
X176552752Y-82105736D01*
X176582027Y-82200271D01*
X176636480Y-82282906D01*
X176650000Y-82294429D01*
X176650000Y-82550000D01*
X176654505Y-82595952D01*
X176658532Y-82641975D01*
X176659265Y-82644499D01*
X176659522Y-82647117D01*
X176672877Y-82691349D01*
X176685757Y-82735683D01*
X176686967Y-82738017D01*
X176687727Y-82740535D01*
X176709415Y-82781324D01*
X176730664Y-82822319D01*
X176732304Y-82824374D01*
X176733539Y-82826696D01*
X176762721Y-82862476D01*
X176791544Y-82898582D01*
X176795157Y-82902246D01*
X176795215Y-82902317D01*
X176795281Y-82902372D01*
X176796446Y-82903553D01*
X176876537Y-82983644D01*
X176837479Y-82962701D01*
X176796971Y-82940432D01*
X176794464Y-82939637D01*
X176792148Y-82938395D01*
X176747985Y-82924893D01*
X176703956Y-82910926D01*
X176701345Y-82910633D01*
X176698829Y-82909864D01*
X176652853Y-82905194D01*
X176606981Y-82900049D01*
X176601843Y-82900013D01*
X176601745Y-82900003D01*
X176601654Y-82900012D01*
X176600000Y-82900000D01*
X173787107Y-82900000D01*
X172946207Y-82059100D01*
X173010517Y-81851347D01*
X173036018Y-81608727D01*
X173013907Y-81365773D01*
X172945028Y-81131742D01*
X172832003Y-80915546D01*
X172679139Y-80725421D01*
X172492257Y-80568608D01*
X172278475Y-80451081D01*
X172045938Y-80377315D01*
X171803501Y-80350122D01*
X171786048Y-80350000D01*
X171773952Y-80350000D01*
X171531159Y-80373806D01*
X171297614Y-80444317D01*
X171082213Y-80558848D01*
X170893159Y-80713037D01*
X170737655Y-80901009D01*
X170621623Y-81115606D01*
X170549483Y-81348653D01*
X170523982Y-81591273D01*
X170546093Y-81834227D01*
X170614972Y-82068258D01*
X170727997Y-82284454D01*
X170880861Y-82474579D01*
X171067743Y-82631392D01*
X171281525Y-82748919D01*
X171514062Y-82822685D01*
X171756499Y-82849878D01*
X171773952Y-82850000D01*
X171786048Y-82850000D01*
X172028841Y-82826194D01*
X172236417Y-82763523D01*
X173226446Y-83753553D01*
X173262138Y-83782871D01*
X173297516Y-83812557D01*
X173299820Y-83813823D01*
X173301851Y-83815492D01*
X173342542Y-83837310D01*
X173383029Y-83859568D01*
X173385536Y-83860363D01*
X173387852Y-83861605D01*
X173432015Y-83875107D01*
X173476044Y-83889074D01*
X173478655Y-83889367D01*
X173481171Y-83890136D01*
X173527103Y-83894801D01*
X173573019Y-83899951D01*
X173578168Y-83899987D01*
X173578255Y-83899996D01*
X173578336Y-83899988D01*
X173580000Y-83900000D01*
X176392894Y-83900000D01*
X176470005Y-83977111D01*
X176470005Y-91249857D01*
X176418991Y-91207655D01*
X176220000Y-91100061D01*
X176220000Y-89977208D01*
X176215495Y-89931260D01*
X176211468Y-89885233D01*
X176210735Y-89882709D01*
X176210478Y-89880091D01*
X176197127Y-89835873D01*
X176184243Y-89791524D01*
X176183033Y-89789189D01*
X176182273Y-89786673D01*
X176160606Y-89745923D01*
X176139336Y-89704888D01*
X176137694Y-89702832D01*
X176136461Y-89700512D01*
X176107272Y-89664723D01*
X176078455Y-89628626D01*
X176074848Y-89624968D01*
X176074785Y-89624891D01*
X176074714Y-89624832D01*
X176073553Y-89623655D01*
X171938640Y-85488742D01*
X175105322Y-85488742D01*
X175117083Y-85500921D01*
X175245912Y-85590459D01*
X175389678Y-85653269D01*
X175542906Y-85686958D01*
X175699760Y-85690244D01*
X175854265Y-85663000D01*
X176000535Y-85606266D01*
X176133000Y-85522201D01*
X176246614Y-85414008D01*
X176337050Y-85285808D01*
X176400862Y-85142483D01*
X176435620Y-84989494D01*
X176438122Y-84810298D01*
X176407649Y-84656398D01*
X176347864Y-84511347D01*
X176261043Y-84380672D01*
X176150495Y-84269349D01*
X176020429Y-84181618D01*
X175875799Y-84120821D01*
X175722115Y-84089275D01*
X175565231Y-84088179D01*
X175411122Y-84117577D01*
X175265658Y-84176349D01*
X175134379Y-84262255D01*
X175107331Y-84288742D01*
X170237270Y-84288742D01*
X167899636Y-81951108D01*
X167930517Y-81851347D01*
X167956018Y-81608727D01*
X167933907Y-81365773D01*
X167865028Y-81131742D01*
X167752003Y-80915546D01*
X167750000Y-80913055D01*
X167750000Y-80775813D01*
X168130846Y-79937952D01*
X168346446Y-80153553D01*
X168382138Y-80182871D01*
X168417516Y-80212557D01*
X168419820Y-80213823D01*
X168421851Y-80215492D01*
X168462542Y-80237310D01*
X168503029Y-80259568D01*
X168505536Y-80260363D01*
X168507852Y-80261605D01*
X168552015Y-80275107D01*
X168596044Y-80289074D01*
X168598655Y-80289367D01*
X168601171Y-80290136D01*
X168647103Y-80294801D01*
X168693019Y-80299951D01*
X168698168Y-80299987D01*
X168698255Y-80299996D01*
X168698336Y-80299988D01*
X168700000Y-80300000D01*
X170900000Y-80300000D01*
X170945944Y-80295495D01*
X170991976Y-80291468D01*
X170994501Y-80290735D01*
X170997117Y-80290478D01*
X171041323Y-80277131D01*
X171085684Y-80264243D01*
X171088019Y-80263033D01*
X171090535Y-80262273D01*
X171131285Y-80240606D01*
X171172320Y-80219336D01*
X171174376Y-80217694D01*
X171176696Y-80216461D01*
X171212485Y-80187272D01*
X171248582Y-80158455D01*
X171252240Y-80154848D01*
X171252317Y-80154785D01*
X171252376Y-80154714D01*
X171253553Y-80153553D01*
X171607107Y-79800000D01*
X175992894Y-79800000D01*
X176991200Y-80798307D01*
G36*
X112950000Y-82500000D02*
X112973936Y-82627210D01*
X113049117Y-82744045D01*
X113163830Y-82822425D01*
X113300000Y-82850000D01*
X114188087Y-82850000D01*
X114200000Y-82851693D01*
X116000000Y-82851693D01*
X116021229Y-82850000D01*
X116849899Y-82850000D01*
X116850001Y-82900706D01*
X116875725Y-83031702D01*
X116952513Y-83147487D01*
X117152513Y-83347487D01*
X117263830Y-83422425D01*
X117400000Y-83450000D01*
X118788087Y-83450000D01*
X118800000Y-83451693D01*
X122000000Y-83451693D01*
X122021229Y-83450000D01*
X123700000Y-83450000D01*
X123831702Y-83424275D01*
X123947487Y-83347487D01*
X124147487Y-83147487D01*
X124222425Y-83036170D01*
X124250000Y-82900000D01*
X124250000Y-82850000D01*
X125300000Y-82850000D01*
X125375226Y-82839295D01*
X125508841Y-82826194D01*
X125742386Y-82755683D01*
X125957787Y-82641152D01*
X126146841Y-82486963D01*
X126302345Y-82298991D01*
X126418377Y-82084394D01*
X126435793Y-82028133D01*
X126587003Y-81905274D01*
X126634972Y-82068258D01*
X126747997Y-82284454D01*
X126900861Y-82474579D01*
X127087743Y-82631392D01*
X127301525Y-82748919D01*
X127534062Y-82822685D01*
X127776499Y-82849878D01*
X127793952Y-82850000D01*
X127806048Y-82850000D01*
X128048841Y-82826194D01*
X128282386Y-82755683D01*
X128497787Y-82641152D01*
X128686841Y-82486963D01*
X128842345Y-82298991D01*
X128958377Y-82084394D01*
X129030517Y-81851347D01*
X129056018Y-81608727D01*
X129054430Y-81591273D01*
X131623982Y-81591273D01*
X131646093Y-81834227D01*
X131714972Y-82068258D01*
X131827997Y-82284454D01*
X131980861Y-82474579D01*
X132167743Y-82631392D01*
X132381525Y-82748919D01*
X132614062Y-82822685D01*
X132856499Y-82849878D01*
X132873952Y-82850000D01*
X132886048Y-82850000D01*
X133128841Y-82826194D01*
X133362386Y-82755683D01*
X133577787Y-82641152D01*
X133766841Y-82486963D01*
X133922345Y-82298991D01*
X134038377Y-82084394D01*
X134110517Y-81851347D01*
X134136018Y-81608727D01*
X134134430Y-81591273D01*
X134163982Y-81591273D01*
X134186093Y-81834227D01*
X134254972Y-82068258D01*
X134367997Y-82284454D01*
X134520861Y-82474579D01*
X134707743Y-82631392D01*
X134921525Y-82748919D01*
X135154062Y-82822685D01*
X135396499Y-82849878D01*
X135413952Y-82850000D01*
X135426048Y-82850000D01*
X135668841Y-82826194D01*
X135902386Y-82755683D01*
X136117787Y-82641152D01*
X136306841Y-82486963D01*
X136462345Y-82298991D01*
X136578377Y-82084394D01*
X136650517Y-81851347D01*
X136676018Y-81608727D01*
X136653907Y-81365773D01*
X136585028Y-81131742D01*
X136472003Y-80915546D01*
X136319139Y-80725421D01*
X136132257Y-80568608D01*
X135918475Y-80451081D01*
X135685938Y-80377315D01*
X135443501Y-80350122D01*
X135426048Y-80350000D01*
X135413952Y-80350000D01*
X135171159Y-80373806D01*
X134937614Y-80444317D01*
X134722213Y-80558848D01*
X134533159Y-80713037D01*
X134377655Y-80901009D01*
X134261623Y-81115606D01*
X134189483Y-81348653D01*
X134163982Y-81591273D01*
X134134430Y-81591273D01*
X134113907Y-81365773D01*
X134045028Y-81131742D01*
X133932003Y-80915546D01*
X133779139Y-80725421D01*
X133592257Y-80568608D01*
X133378475Y-80451081D01*
X133145938Y-80377315D01*
X132903501Y-80350122D01*
X132886048Y-80350000D01*
X132873952Y-80350000D01*
X132631159Y-80373806D01*
X132397614Y-80444317D01*
X132182213Y-80558848D01*
X131993159Y-80713037D01*
X131837655Y-80901009D01*
X131721623Y-81115606D01*
X131649483Y-81348653D01*
X131623982Y-81591273D01*
X129054430Y-81591273D01*
X129050673Y-81550000D01*
X130100000Y-81550000D01*
X130231702Y-81524275D01*
X130347487Y-81447487D01*
X130847487Y-80947487D01*
X130922425Y-80836170D01*
X130950000Y-80700000D01*
X130950000Y-78350000D01*
X151850000Y-78350000D01*
X151850000Y-82500000D01*
X151859408Y-82550000D01*
X136400000Y-82550000D01*
X136268298Y-82575725D01*
X136152513Y-82652513D01*
X135055026Y-83750000D01*
X100400000Y-83750000D01*
X100400000Y-78350000D01*
X112950000Y-78350000D01*
X112950000Y-82500000D01*
X112950000Y-82500000D01*
G37*
X112950000Y-82500000D02*
X112973936Y-82627210D01*
X113049117Y-82744045D01*
X113163830Y-82822425D01*
X113300000Y-82850000D01*
X114188087Y-82850000D01*
X114200000Y-82851693D01*
X116000000Y-82851693D01*
X116021229Y-82850000D01*
X116849899Y-82850000D01*
X116850001Y-82900706D01*
X116875725Y-83031702D01*
X116952513Y-83147487D01*
X117152513Y-83347487D01*
X117263830Y-83422425D01*
X117400000Y-83450000D01*
X118788087Y-83450000D01*
X118800000Y-83451693D01*
X122000000Y-83451693D01*
X122021229Y-83450000D01*
X123700000Y-83450000D01*
X123831702Y-83424275D01*
X123947487Y-83347487D01*
X124147487Y-83147487D01*
X124222425Y-83036170D01*
X124250000Y-82900000D01*
X124250000Y-82850000D01*
X125300000Y-82850000D01*
X125375226Y-82839295D01*
X125508841Y-82826194D01*
X125742386Y-82755683D01*
X125957787Y-82641152D01*
X126146841Y-82486963D01*
X126302345Y-82298991D01*
X126418377Y-82084394D01*
X126435793Y-82028133D01*
X126587003Y-81905274D01*
X126634972Y-82068258D01*
X126747997Y-82284454D01*
X126900861Y-82474579D01*
X127087743Y-82631392D01*
X127301525Y-82748919D01*
X127534062Y-82822685D01*
X127776499Y-82849878D01*
X127793952Y-82850000D01*
X127806048Y-82850000D01*
X128048841Y-82826194D01*
X128282386Y-82755683D01*
X128497787Y-82641152D01*
X128686841Y-82486963D01*
X128842345Y-82298991D01*
X128958377Y-82084394D01*
X129030517Y-81851347D01*
X129056018Y-81608727D01*
X129054430Y-81591273D01*
X131623982Y-81591273D01*
X131646093Y-81834227D01*
X131714972Y-82068258D01*
X131827997Y-82284454D01*
X131980861Y-82474579D01*
X132167743Y-82631392D01*
X132381525Y-82748919D01*
X132614062Y-82822685D01*
X132856499Y-82849878D01*
X132873952Y-82850000D01*
X132886048Y-82850000D01*
X133128841Y-82826194D01*
X133362386Y-82755683D01*
X133577787Y-82641152D01*
X133766841Y-82486963D01*
X133922345Y-82298991D01*
X134038377Y-82084394D01*
X134110517Y-81851347D01*
X134136018Y-81608727D01*
X134134430Y-81591273D01*
X134163982Y-81591273D01*
X134186093Y-81834227D01*
X134254972Y-82068258D01*
X134367997Y-82284454D01*
X134520861Y-82474579D01*
X134707743Y-82631392D01*
X134921525Y-82748919D01*
X135154062Y-82822685D01*
X135396499Y-82849878D01*
X135413952Y-82850000D01*
X135426048Y-82850000D01*
X135668841Y-82826194D01*
X135902386Y-82755683D01*
X136117787Y-82641152D01*
X136306841Y-82486963D01*
X136462345Y-82298991D01*
X136578377Y-82084394D01*
X136650517Y-81851347D01*
X136676018Y-81608727D01*
X136653907Y-81365773D01*
X136585028Y-81131742D01*
X136472003Y-80915546D01*
X136319139Y-80725421D01*
X136132257Y-80568608D01*
X135918475Y-80451081D01*
X135685938Y-80377315D01*
X135443501Y-80350122D01*
X135426048Y-80350000D01*
X135413952Y-80350000D01*
X135171159Y-80373806D01*
X134937614Y-80444317D01*
X134722213Y-80558848D01*
X134533159Y-80713037D01*
X134377655Y-80901009D01*
X134261623Y-81115606D01*
X134189483Y-81348653D01*
X134163982Y-81591273D01*
X134134430Y-81591273D01*
X134113907Y-81365773D01*
X134045028Y-81131742D01*
X133932003Y-80915546D01*
X133779139Y-80725421D01*
X133592257Y-80568608D01*
X133378475Y-80451081D01*
X133145938Y-80377315D01*
X132903501Y-80350122D01*
X132886048Y-80350000D01*
X132873952Y-80350000D01*
X132631159Y-80373806D01*
X132397614Y-80444317D01*
X132182213Y-80558848D01*
X131993159Y-80713037D01*
X131837655Y-80901009D01*
X131721623Y-81115606D01*
X131649483Y-81348653D01*
X131623982Y-81591273D01*
X129054430Y-81591273D01*
X129050673Y-81550000D01*
X130100000Y-81550000D01*
X130231702Y-81524275D01*
X130347487Y-81447487D01*
X130847487Y-80947487D01*
X130922425Y-80836170D01*
X130950000Y-80700000D01*
X130950000Y-78350000D01*
X151850000Y-78350000D01*
X151850000Y-82500000D01*
X151859408Y-82550000D01*
X136400000Y-82550000D01*
X136268298Y-82575725D01*
X136152513Y-82652513D01*
X135055026Y-83750000D01*
X100400000Y-83750000D01*
X100400000Y-78350000D01*
X112950000Y-78350000D01*
X112950000Y-82500000D01*
D32*
G36*
X107873000Y-99373000D02*
X100427000Y-99373000D01*
X100427000Y-84627000D01*
X107873000Y-84627000D01*
X107873000Y-99373000D01*
X107873000Y-99373000D01*
G37*
X107873000Y-99373000D02*
X100427000Y-99373000D01*
X100427000Y-84627000D01*
X107873000Y-84627000D01*
X107873000Y-99373000D01*
G36*
X120373000Y-137673000D02*
X118027000Y-137673000D01*
X118027000Y-137296415D01*
X118027035Y-137293909D01*
X118027000Y-137293732D01*
X118027000Y-136271415D01*
X118027035Y-136268909D01*
X118027000Y-136268732D01*
X118027000Y-135246415D01*
X118027035Y-135243909D01*
X118027000Y-135243732D01*
X118027000Y-134221415D01*
X118027035Y-134218909D01*
X118027000Y-134218732D01*
X118027000Y-133196415D01*
X118027035Y-133193909D01*
X118027000Y-133193732D01*
X118027000Y-132171415D01*
X118027035Y-132168909D01*
X118027000Y-132168732D01*
X118027000Y-131146415D01*
X118027035Y-131143909D01*
X118027000Y-131143732D01*
X118027000Y-130121415D01*
X118027035Y-130118909D01*
X118027000Y-130118732D01*
X118027000Y-129096415D01*
X118027035Y-129093909D01*
X118027000Y-129093732D01*
X118027000Y-128071415D01*
X118027035Y-128068909D01*
X118027000Y-128068732D01*
X118027000Y-127046415D01*
X118027035Y-127043909D01*
X118027000Y-127043732D01*
X118027000Y-126627000D01*
X120373000Y-126627000D01*
X120373000Y-137673000D01*
X120373000Y-137673000D01*
G37*
X120373000Y-137673000D02*
X118027000Y-137673000D01*
X118027000Y-137296415D01*
X118027035Y-137293909D01*
X118027000Y-137293732D01*
X118027000Y-136271415D01*
X118027035Y-136268909D01*
X118027000Y-136268732D01*
X118027000Y-135246415D01*
X118027035Y-135243909D01*
X118027000Y-135243732D01*
X118027000Y-134221415D01*
X118027035Y-134218909D01*
X118027000Y-134218732D01*
X118027000Y-133196415D01*
X118027035Y-133193909D01*
X118027000Y-133193732D01*
X118027000Y-132171415D01*
X118027035Y-132168909D01*
X118027000Y-132168732D01*
X118027000Y-131146415D01*
X118027035Y-131143909D01*
X118027000Y-131143732D01*
X118027000Y-130121415D01*
X118027035Y-130118909D01*
X118027000Y-130118732D01*
X118027000Y-129096415D01*
X118027035Y-129093909D01*
X118027000Y-129093732D01*
X118027000Y-128071415D01*
X118027035Y-128068909D01*
X118027000Y-128068732D01*
X118027000Y-127046415D01*
X118027035Y-127043909D01*
X118027000Y-127043732D01*
X118027000Y-126627000D01*
X120373000Y-126627000D01*
X120373000Y-137673000D01*
G36*
X166673000Y-123473000D02*
X163227000Y-123473000D01*
X163227000Y-117023614D01*
X164951906Y-116976995D01*
X166673000Y-116976995D01*
X166673000Y-123473000D01*
X166673000Y-123473000D01*
G37*
X166673000Y-123473000D02*
X163227000Y-123473000D01*
X163227000Y-117023614D01*
X164951906Y-116976995D01*
X166673000Y-116976995D01*
X166673000Y-123473000D01*
D33*
G36*
X156200000Y-125350000D02*
X155400000Y-125350000D01*
X155272790Y-125373936D01*
X155155955Y-125449117D01*
X155077575Y-125563830D01*
X155050000Y-125700000D01*
X155050000Y-136800000D01*
X149300000Y-136800000D01*
X149300000Y-136398991D01*
X149300034Y-136396556D01*
X149300000Y-136396384D01*
X149300000Y-135373991D01*
X149300034Y-135371556D01*
X149300000Y-135371384D01*
X149300000Y-134348991D01*
X149300034Y-134346556D01*
X149300000Y-134346384D01*
X149300000Y-133323991D01*
X149300034Y-133321556D01*
X149300000Y-133321384D01*
X149300000Y-132298991D01*
X149300034Y-132296556D01*
X149300000Y-132296384D01*
X149300000Y-131273991D01*
X149300034Y-131271556D01*
X149300000Y-131271384D01*
X149300000Y-130248991D01*
X149300034Y-130246556D01*
X149300000Y-130246384D01*
X149300000Y-129223991D01*
X149300034Y-129221556D01*
X149300000Y-129221384D01*
X149300000Y-128198991D01*
X149300034Y-128196556D01*
X149300000Y-128196384D01*
X149300000Y-127173991D01*
X149300034Y-127171556D01*
X149300000Y-127171384D01*
X149300000Y-126148991D01*
X149300034Y-126146556D01*
X149300000Y-126146384D01*
X149300000Y-125123991D01*
X149300034Y-125121556D01*
X149300000Y-125121384D01*
X149300000Y-120641422D01*
X150341422Y-119600000D01*
X151862551Y-119600000D01*
X151934062Y-119622685D01*
X152176499Y-119649878D01*
X152193952Y-119650000D01*
X152206048Y-119650000D01*
X152448841Y-119626194D01*
X152682386Y-119555683D01*
X152897787Y-119441152D01*
X153086841Y-119286963D01*
X153242345Y-119098991D01*
X153358377Y-118884394D01*
X153430517Y-118651347D01*
X153435267Y-118606155D01*
X153470711Y-118570711D01*
X153487611Y-118548212D01*
X153497574Y-118521895D01*
X153500000Y-118500000D01*
X153500000Y-117648528D01*
X153848528Y-117300000D01*
X156200000Y-117300000D01*
X156200000Y-125350000D01*
X156200000Y-125350000D01*
G37*
X156200000Y-125350000D02*
X155400000Y-125350000D01*
X155272790Y-125373936D01*
X155155955Y-125449117D01*
X155077575Y-125563830D01*
X155050000Y-125700000D01*
X155050000Y-136800000D01*
X149300000Y-136800000D01*
X149300000Y-136398991D01*
X149300034Y-136396556D01*
X149300000Y-136396384D01*
X149300000Y-135373991D01*
X149300034Y-135371556D01*
X149300000Y-135371384D01*
X149300000Y-134348991D01*
X149300034Y-134346556D01*
X149300000Y-134346384D01*
X149300000Y-133323991D01*
X149300034Y-133321556D01*
X149300000Y-133321384D01*
X149300000Y-132298991D01*
X149300034Y-132296556D01*
X149300000Y-132296384D01*
X149300000Y-131273991D01*
X149300034Y-131271556D01*
X149300000Y-131271384D01*
X149300000Y-130248991D01*
X149300034Y-130246556D01*
X149300000Y-130246384D01*
X149300000Y-129223991D01*
X149300034Y-129221556D01*
X149300000Y-129221384D01*
X149300000Y-128198991D01*
X149300034Y-128196556D01*
X149300000Y-128196384D01*
X149300000Y-127173991D01*
X149300034Y-127171556D01*
X149300000Y-127171384D01*
X149300000Y-126148991D01*
X149300034Y-126146556D01*
X149300000Y-126146384D01*
X149300000Y-125123991D01*
X149300034Y-125121556D01*
X149300000Y-125121384D01*
X149300000Y-120641422D01*
X150341422Y-119600000D01*
X151862551Y-119600000D01*
X151934062Y-119622685D01*
X152176499Y-119649878D01*
X152193952Y-119650000D01*
X152206048Y-119650000D01*
X152448841Y-119626194D01*
X152682386Y-119555683D01*
X152897787Y-119441152D01*
X153086841Y-119286963D01*
X153242345Y-119098991D01*
X153358377Y-118884394D01*
X153430517Y-118651347D01*
X153435267Y-118606155D01*
X153470711Y-118570711D01*
X153487611Y-118548212D01*
X153497574Y-118521895D01*
X153500000Y-118500000D01*
X153500000Y-117648528D01*
X153848528Y-117300000D01*
X156200000Y-117300000D01*
X156200000Y-125350000D01*
G36*
X158000000Y-126324302D02*
X157999861Y-126483432D01*
X158000000Y-126483768D01*
X158000000Y-127349302D01*
X157999861Y-127508432D01*
X158000000Y-127508768D01*
X158000000Y-128374302D01*
X157999861Y-128533432D01*
X158000000Y-128533768D01*
X158000000Y-129399302D01*
X157999861Y-129558432D01*
X158000000Y-129558768D01*
X158000000Y-130424302D01*
X157999861Y-130583432D01*
X158000000Y-130583768D01*
X158000000Y-131449302D01*
X157999861Y-131608432D01*
X158000000Y-131608768D01*
X158000000Y-132474302D01*
X157999861Y-132633432D01*
X158000000Y-132633768D01*
X158000000Y-133499302D01*
X157999861Y-133658432D01*
X158000000Y-133658768D01*
X158000000Y-134524302D01*
X157999861Y-134683432D01*
X158000000Y-134683768D01*
X158000000Y-135549302D01*
X157999861Y-135708432D01*
X158000000Y-135708768D01*
X158000000Y-136574302D01*
X157999861Y-136733432D01*
X158000000Y-136733768D01*
X158000000Y-136900000D01*
X155500000Y-136900000D01*
X155500000Y-125800000D01*
X158000000Y-125800000D01*
X158000000Y-126324302D01*
X158000000Y-126324302D01*
G37*
X158000000Y-126324302D02*
X157999861Y-126483432D01*
X158000000Y-126483768D01*
X158000000Y-127349302D01*
X157999861Y-127508432D01*
X158000000Y-127508768D01*
X158000000Y-128374302D01*
X157999861Y-128533432D01*
X158000000Y-128533768D01*
X158000000Y-129399302D01*
X157999861Y-129558432D01*
X158000000Y-129558768D01*
X158000000Y-130424302D01*
X157999861Y-130583432D01*
X158000000Y-130583768D01*
X158000000Y-131449302D01*
X157999861Y-131608432D01*
X158000000Y-131608768D01*
X158000000Y-132474302D01*
X157999861Y-132633432D01*
X158000000Y-132633768D01*
X158000000Y-133499302D01*
X157999861Y-133658432D01*
X158000000Y-133658768D01*
X158000000Y-134524302D01*
X157999861Y-134683432D01*
X158000000Y-134683768D01*
X158000000Y-135549302D01*
X157999861Y-135708432D01*
X158000000Y-135708768D01*
X158000000Y-136574302D01*
X157999861Y-136733432D01*
X158000000Y-136733768D01*
X158000000Y-136900000D01*
X155500000Y-136900000D01*
X155500000Y-125800000D01*
X158000000Y-125800000D01*
X158000000Y-126324302D01*
D32*
G36*
X155673000Y-76755537D02*
X155673000Y-82373000D01*
X152327000Y-82373000D01*
X152327000Y-76728048D01*
X155673000Y-76755537D01*
X155673000Y-76755537D01*
G37*
X155673000Y-76755537D02*
X155673000Y-82373000D01*
X152327000Y-82373000D01*
X152327000Y-76728048D01*
X155673000Y-76755537D01*
G36*
X130473000Y-63199852D02*
X130472857Y-63363779D01*
X130473000Y-63364125D01*
X130473000Y-64199852D01*
X130472857Y-64363779D01*
X130473000Y-64364125D01*
X130473000Y-65199852D01*
X130472857Y-65363779D01*
X130473000Y-65364125D01*
X130473000Y-66199852D01*
X130472857Y-66363779D01*
X130473000Y-66364125D01*
X130473000Y-67199852D01*
X130472857Y-67363779D01*
X130473000Y-67364125D01*
X130473000Y-68199852D01*
X130472857Y-68363779D01*
X130473000Y-68364125D01*
X130473000Y-69199852D01*
X130472857Y-69363779D01*
X130473000Y-69364125D01*
X130473000Y-70199852D01*
X130472857Y-70363779D01*
X130473000Y-70364125D01*
X130473000Y-71199852D01*
X130472857Y-71363779D01*
X130473000Y-71364125D01*
X130473000Y-72199852D01*
X130472857Y-72363779D01*
X130473000Y-72364125D01*
X130473000Y-73199852D01*
X130472857Y-73363779D01*
X130473000Y-73364125D01*
X130473000Y-74199852D01*
X130472857Y-74363779D01*
X130473000Y-74364125D01*
X130473000Y-80344479D01*
X130365018Y-80323000D01*
X130314982Y-80323000D01*
X129826295Y-80420206D01*
X129412007Y-80697025D01*
X129160788Y-81073000D01*
X128979212Y-81073000D01*
X128727993Y-80697025D01*
X128313705Y-80420206D01*
X127825018Y-80323000D01*
X127774982Y-80323000D01*
X127286295Y-80420206D01*
X126872007Y-80697025D01*
X126595188Y-81111313D01*
X126554211Y-81317319D01*
X125254911Y-82373000D01*
X124335628Y-82373000D01*
X124327058Y-74652548D01*
X124789803Y-74189803D01*
X124817666Y-74147789D01*
X124827000Y-74100000D01*
X124827000Y-62827000D01*
X130473000Y-62827000D01*
X130473000Y-63199852D01*
X130473000Y-63199852D01*
G37*
X130473000Y-63199852D02*
X130472857Y-63363779D01*
X130473000Y-63364125D01*
X130473000Y-64199852D01*
X130472857Y-64363779D01*
X130473000Y-64364125D01*
X130473000Y-65199852D01*
X130472857Y-65363779D01*
X130473000Y-65364125D01*
X130473000Y-66199852D01*
X130472857Y-66363779D01*
X130473000Y-66364125D01*
X130473000Y-67199852D01*
X130472857Y-67363779D01*
X130473000Y-67364125D01*
X130473000Y-68199852D01*
X130472857Y-68363779D01*
X130473000Y-68364125D01*
X130473000Y-69199852D01*
X130472857Y-69363779D01*
X130473000Y-69364125D01*
X130473000Y-70199852D01*
X130472857Y-70363779D01*
X130473000Y-70364125D01*
X130473000Y-71199852D01*
X130472857Y-71363779D01*
X130473000Y-71364125D01*
X130473000Y-72199852D01*
X130472857Y-72363779D01*
X130473000Y-72364125D01*
X130473000Y-73199852D01*
X130472857Y-73363779D01*
X130473000Y-73364125D01*
X130473000Y-74199852D01*
X130472857Y-74363779D01*
X130473000Y-74364125D01*
X130473000Y-80344479D01*
X130365018Y-80323000D01*
X130314982Y-80323000D01*
X129826295Y-80420206D01*
X129412007Y-80697025D01*
X129160788Y-81073000D01*
X128979212Y-81073000D01*
X128727993Y-80697025D01*
X128313705Y-80420206D01*
X127825018Y-80323000D01*
X127774982Y-80323000D01*
X127286295Y-80420206D01*
X126872007Y-80697025D01*
X126595188Y-81111313D01*
X126554211Y-81317319D01*
X125254911Y-82373000D01*
X124335628Y-82373000D01*
X124327058Y-74652548D01*
X124789803Y-74189803D01*
X124817666Y-74147789D01*
X124827000Y-74100000D01*
X124827000Y-62827000D01*
X130473000Y-62827000D01*
X130473000Y-63199852D01*
G36*
X116773000Y-82373000D02*
X113427000Y-82373000D01*
X113427000Y-76627000D01*
X116773000Y-76627000D01*
X116773000Y-82373000D01*
X116773000Y-82373000D01*
G37*
X116773000Y-82373000D02*
X113427000Y-82373000D01*
X113427000Y-76627000D01*
X116773000Y-76627000D01*
X116773000Y-82373000D01*
G36*
X163373000Y-62991710D02*
X163371913Y-63069536D01*
X163373000Y-63075458D01*
X163373000Y-63991710D01*
X163371913Y-64069536D01*
X163373000Y-64075458D01*
X163373000Y-64991710D01*
X163371913Y-65069536D01*
X163373000Y-65075458D01*
X163373000Y-65991710D01*
X163371913Y-66069536D01*
X163373000Y-66075458D01*
X163373000Y-66991710D01*
X163371913Y-67069536D01*
X163373000Y-67075458D01*
X163373000Y-67991710D01*
X163371913Y-68069536D01*
X163373000Y-68075458D01*
X163373000Y-68991710D01*
X163371913Y-69069536D01*
X163373000Y-69075458D01*
X163373000Y-69991710D01*
X163371913Y-70069536D01*
X163373000Y-70075458D01*
X163373000Y-70991710D01*
X163371913Y-71069536D01*
X163373000Y-71075458D01*
X163373000Y-71991710D01*
X163371913Y-72069536D01*
X163373000Y-72075458D01*
X163373000Y-72991710D01*
X163371913Y-73069536D01*
X163373000Y-73075458D01*
X163373000Y-73573000D01*
X161027000Y-73573000D01*
X161027000Y-62482880D01*
X163373000Y-62482880D01*
X163373000Y-62991710D01*
X163373000Y-62991710D01*
G37*
X163373000Y-62991710D02*
X163371913Y-63069536D01*
X163373000Y-63075458D01*
X163373000Y-63991710D01*
X163371913Y-64069536D01*
X163373000Y-64075458D01*
X163373000Y-64991710D01*
X163371913Y-65069536D01*
X163373000Y-65075458D01*
X163373000Y-65991710D01*
X163371913Y-66069536D01*
X163373000Y-66075458D01*
X163373000Y-66991710D01*
X163371913Y-67069536D01*
X163373000Y-67075458D01*
X163373000Y-67991710D01*
X163371913Y-68069536D01*
X163373000Y-68075458D01*
X163373000Y-68991710D01*
X163371913Y-69069536D01*
X163373000Y-69075458D01*
X163373000Y-69991710D01*
X163371913Y-70069536D01*
X163373000Y-70075458D01*
X163373000Y-70991710D01*
X163371913Y-71069536D01*
X163373000Y-71075458D01*
X163373000Y-71991710D01*
X163371913Y-72069536D01*
X163373000Y-72075458D01*
X163373000Y-72991710D01*
X163371913Y-73069536D01*
X163373000Y-73075458D01*
X163373000Y-73573000D01*
X161027000Y-73573000D01*
X161027000Y-62482880D01*
X163373000Y-62482880D01*
X163373000Y-62991710D01*
G36*
X124273000Y-73773000D02*
X121927000Y-73773000D01*
X121927000Y-73121415D01*
X121927035Y-73118909D01*
X121927000Y-73118732D01*
X121927000Y-72121415D01*
X121927035Y-72118909D01*
X121927000Y-72118732D01*
X121927000Y-71121415D01*
X121927035Y-71118909D01*
X121927000Y-71118732D01*
X121927000Y-70121415D01*
X121927035Y-70118909D01*
X121927000Y-70118732D01*
X121927000Y-69121415D01*
X121927035Y-69118909D01*
X121927000Y-69118732D01*
X121927000Y-68121415D01*
X121927035Y-68118909D01*
X121927000Y-68118732D01*
X121927000Y-67121415D01*
X121927035Y-67118909D01*
X121927000Y-67118732D01*
X121927000Y-66121415D01*
X121927035Y-66118909D01*
X121927000Y-66118732D01*
X121927000Y-65121415D01*
X121927035Y-65118909D01*
X121927000Y-65118732D01*
X121927000Y-64121415D01*
X121927035Y-64118909D01*
X121927000Y-64118732D01*
X121927000Y-63121415D01*
X121927035Y-63118909D01*
X121927000Y-63118732D01*
X121927000Y-62727000D01*
X124273000Y-62727000D01*
X124273000Y-73773000D01*
X124273000Y-73773000D01*
G37*
X124273000Y-73773000D02*
X121927000Y-73773000D01*
X121927000Y-73121415D01*
X121927035Y-73118909D01*
X121927000Y-73118732D01*
X121927000Y-72121415D01*
X121927035Y-72118909D01*
X121927000Y-72118732D01*
X121927000Y-71121415D01*
X121927035Y-71118909D01*
X121927000Y-71118732D01*
X121927000Y-70121415D01*
X121927035Y-70118909D01*
X121927000Y-70118732D01*
X121927000Y-69121415D01*
X121927035Y-69118909D01*
X121927000Y-69118732D01*
X121927000Y-68121415D01*
X121927035Y-68118909D01*
X121927000Y-68118732D01*
X121927000Y-67121415D01*
X121927035Y-67118909D01*
X121927000Y-67118732D01*
X121927000Y-66121415D01*
X121927035Y-66118909D01*
X121927000Y-66118732D01*
X121927000Y-65121415D01*
X121927035Y-65118909D01*
X121927000Y-65118732D01*
X121927000Y-64121415D01*
X121927035Y-64118909D01*
X121927000Y-64118732D01*
X121927000Y-63121415D01*
X121927035Y-63118909D01*
X121927000Y-63118732D01*
X121927000Y-62727000D01*
X124273000Y-62727000D01*
X124273000Y-73773000D01*
D33*
G36*
X127600000Y-123500000D02*
X124300000Y-123500000D01*
X124300000Y-118441422D01*
X125141422Y-117600000D01*
X127600000Y-117600000D01*
X127600000Y-123500000D01*
X127600000Y-123500000D01*
G37*
X127600000Y-123500000D02*
X124300000Y-123500000D01*
X124300000Y-118441422D01*
X125141422Y-117600000D01*
X127600000Y-117600000D01*
X127600000Y-123500000D01*
M02*
