M48
;DRILL file {KiCad 4.0.1-stable} date 30.08.2016 23:00:27
;FORMAT={-:-/ absolute / inch / decimal}
FMAT,2
INCH,TZ
T1C0.016
T2C0.024
T3C0.039
T4C0.040
T5C0.059
T6C0.197
T7C0.134
%
G90
G05
M72
T1
X4.5512Y-4.9646
X4.5512Y-5.0049
X4.5512Y-5.0453
X4.5512Y-5.0856
X4.5512Y-5.126
X4.5512Y-5.1663
X4.5512Y-5.2067
X4.5512Y-5.247
X4.5512Y-5.2874
X4.5512Y-5.3278
X4.5512Y-5.3681
X4.5512Y-5.4085
X4.5512Y-5.4488
X4.6142Y-4.9646
X4.6142Y-5.0049
X4.6142Y-5.0453
X4.6142Y-5.0856
X4.6142Y-5.126
X4.6142Y-5.1663
X4.6142Y-5.2067
X4.6142Y-5.247
X4.6142Y-5.2874
X4.6142Y-5.3278
X4.6142Y-5.3681
X4.6142Y-5.4085
X4.6142Y-5.4488
X4.6969Y-2.4488
X4.6969Y-2.4882
X4.6969Y-2.5276
X4.6969Y-2.5669
X4.6969Y-2.6063
X4.6969Y-2.6457
X4.6969Y-2.685
X4.6969Y-2.7244
X4.6969Y-2.7638
X4.6969Y-2.8031
X4.6969Y-2.8425
X4.6969Y-2.8819
X4.6969Y-2.9213
X4.7677Y-2.4488
X4.7677Y-2.4882
X4.7677Y-2.5276
X4.7677Y-2.5669
X4.7677Y-2.6063
X4.7677Y-2.6457
X4.7677Y-2.685
X4.7677Y-2.7244
X4.7677Y-2.7638
X4.7677Y-2.8031
X4.7677Y-2.8425
X4.7677Y-2.8819
X4.7677Y-2.9213
X5.0197Y-4.9567
X5.0197Y-4.997
X5.0197Y-5.0374
X5.0197Y-5.0778
X5.0197Y-5.1181
X5.0197Y-5.1585
X5.0197Y-5.1988
X5.0197Y-5.2392
X5.0197Y-5.2795
X5.0197Y-5.3199
X5.0197Y-5.3602
X5.0197Y-5.4006
X5.0197Y-5.4409
X5.0551Y-4.937
X5.0551Y-4.9764
X5.0551Y-5.0167
X5.0551Y-5.0571
X5.0551Y-5.0974
X5.0551Y-5.1378
X5.0551Y-5.1781
X5.0551Y-5.2185
X5.0551Y-5.2589
X5.0551Y-5.2992
X5.0551Y-5.3396
X5.0551Y-5.3799
X5.0551Y-5.4203
X5.0551Y-5.4606
X5.0748Y-4.7559
X5.1693Y-2.4488
X5.1693Y-2.4882
X5.1693Y-2.5276
X5.1693Y-2.5669
X5.1693Y-2.6063
X5.1693Y-2.6457
X5.1693Y-2.685
X5.1693Y-2.7244
X5.1693Y-2.7638
X5.1693Y-2.8031
X5.1693Y-2.8425
X5.1693Y-2.8819
X5.1693Y-2.9213
X5.2008Y-2.4291
X5.2008Y-2.4685
X5.2008Y-2.5079
X5.2008Y-2.5472
X5.2008Y-2.5866
X5.2008Y-2.626
X5.2008Y-2.6654
X5.2008Y-2.7047
X5.2008Y-2.7441
X5.2008Y-2.7835
X5.2008Y-2.8228
X5.2008Y-2.8622
X5.2008Y-2.9016
X5.2008Y-2.9409
X5.2283Y-4.748
X5.4094Y-3.2283
X5.4764Y-4.748
X5.5748Y-3.1299
X5.626Y-4.6614
X5.6929Y-4.748
X5.7795Y-3.2323
X5.811Y-3.1339
X5.811Y-4.9094
X5.811Y-4.9498
X5.811Y-4.9902
X5.811Y-5.0305
X5.811Y-5.0709
X5.811Y-5.1112
X5.811Y-5.1516
X5.811Y-5.1919
X5.811Y-5.2323
X5.811Y-5.2726
X5.811Y-5.313
X5.811Y-5.3533
X5.811Y-5.3937
X5.811Y-5.4331
X5.8425Y-4.7087
X5.8465Y-4.9291
X5.8465Y-4.9695
X5.8465Y-5.0098
X5.8465Y-5.0502
X5.8465Y-5.0906
X5.8465Y-5.1309
X5.8465Y-5.1713
X5.8465Y-5.2116
X5.8465Y-5.252
X5.8465Y-5.2923
X5.8465Y-5.3327
X5.8465Y-5.373
X5.8465Y-5.4134
X5.9173Y-3.2362
X5.937Y-3.126
X6.0283Y-2.4195
X6.0283Y-2.4589
X6.0283Y-2.4983
X6.0283Y-2.5376
X6.0283Y-2.577
X6.0283Y-2.6164
X6.0283Y-2.6557
X6.0283Y-2.6951
X6.0283Y-2.7345
X6.0283Y-2.7739
X6.0283Y-2.8132
X6.0283Y-2.8526
X6.0283Y-2.892
X6.0591Y-2.9094
X6.0598Y-2.4392
X6.0598Y-2.4786
X6.0598Y-2.5179
X6.0598Y-2.5573
X6.0598Y-2.5967
X6.0598Y-2.6361
X6.0598Y-2.6754
X6.0598Y-2.7148
X6.0598Y-2.7542
X6.0598Y-2.7935
X6.0598Y-2.8329
X6.0598Y-2.8723
X6.252Y-4.9331
X6.252Y-4.9734
X6.252Y-5.0138
X6.252Y-5.0541
X6.252Y-5.0945
X6.252Y-5.1348
X6.252Y-5.1752
X6.252Y-5.2156
X6.252Y-5.2559
X6.252Y-5.2963
X6.252Y-5.3366
X6.252Y-5.377
X6.252Y-5.4173
X6.3307Y-4.935
X6.3307Y-4.9754
X6.3307Y-5.0157
X6.3307Y-5.0561
X6.3307Y-5.0965
X6.3307Y-5.1368
X6.3307Y-5.1772
X6.3307Y-5.2175
X6.3307Y-5.2579
X6.3307Y-5.2982
X6.3307Y-5.3386
X6.3307Y-5.3789
X6.3307Y-5.4193
X6.4646Y-2.4409
X6.4646Y-2.4803
X6.4646Y-2.5197
X6.4646Y-2.5591
X6.4646Y-2.5984
X6.4646Y-2.6378
X6.4646Y-2.6772
X6.4646Y-2.7165
X6.4646Y-2.7559
X6.4646Y-2.7953
X6.4646Y-2.8346
X6.4646Y-2.874
X6.4646Y-2.9134
X6.4843Y-4.4016
X6.5118Y-3.3661
X6.5118Y-3.4095
X6.5236Y-3.4803
X6.5315Y-4.3504
X6.5315Y-4.5354
X6.5354Y-2.4409
X6.5354Y-2.4803
X6.5354Y-2.5197
X6.5354Y-2.5591
X6.5354Y-2.5984
X6.5354Y-2.6378
X6.5354Y-2.6772
X6.5354Y-2.7165
X6.5354Y-2.7559
X6.5354Y-2.7953
X6.5354Y-2.8346
X6.5354Y-2.874
X6.5354Y-2.9134
X6.5472Y-3.3228
X6.5984Y-4.4646
X6.6024Y-4.626
X6.6102Y-4.2756
X6.6654Y-4.3976
X6.6811Y-4.1929
X6.7323Y-4.5354
X6.7362Y-4.3307
X6.7756Y-4.6299
X6.8661Y-3.7835
X6.9149Y-3.3421
X6.9252Y-4.5906
X6.9291Y-4.5394
X6.9606Y-4.6299
X7.0039Y-4.4921
X7.0472Y-4.5709
T2
X4.0157Y-2.6772
X4.0157Y-3.622
X4.0157Y-4.252
X4.0157Y-5.1969
X4.0474Y-2.5591
X4.0474Y-2.7953
X4.0474Y-3.5039
X4.0474Y-3.7402
X4.0474Y-4.1339
X4.0474Y-4.3701
X4.0474Y-5.0787
X4.0474Y-5.315
X4.1339Y-2.4726
X4.1339Y-2.8817
X4.1339Y-3.4175
X4.1339Y-3.8266
X4.1339Y-4.0474
X4.1339Y-4.4565
X4.1339Y-4.9923
X4.1339Y-5.4014
X4.252Y-2.4409
X4.252Y-2.9134
X4.252Y-3.3858
X4.252Y-3.8583
X4.252Y-4.0157
X4.252Y-4.4882
X4.252Y-4.9606
X4.252Y-5.4331
X4.3701Y-2.4726
X4.3701Y-2.8817
X4.3701Y-3.4175
X4.3701Y-3.8266
X4.3701Y-4.0474
X4.3701Y-4.4565
X4.3701Y-4.9923
X4.3701Y-5.4014
X4.4565Y-2.5591
X4.4565Y-2.7953
X4.4565Y-3.5039
X4.4565Y-3.7402
X4.4565Y-4.1339
X4.4565Y-4.3701
X4.4565Y-5.0787
X4.4565Y-5.315
X4.4882Y-2.6772
X4.4882Y-3.622
X4.4882Y-4.252
X4.4882Y-5.1969
X6.6732Y-3.0079
X6.6732Y-3.0579
X6.6732Y-3.1079
X6.6732Y-4.7661
X6.6732Y-4.8161
X6.6732Y-4.8661
T3
X4.7441Y-3.6378
X4.7441Y-4.2283
X5.2677Y-4.0512
X5.2677Y-4.3465
X5.752Y-3.5669
X5.752Y-3.8622
X6.2795Y-3.6417
X6.2795Y-4.2323
T4
X4.1606Y-4.6614
X4.2606Y-4.6614
X4.3606Y-4.6614
X4.4606Y-4.6614
X4.5315Y-3.2126
X4.5606Y-4.6614
X4.9315Y-3.2126
X4.9606Y-4.6614
X5.0315Y-3.2126
X5.1315Y-3.2126
X5.2315Y-3.2126
X5.3315Y-3.2126
X5.6921Y-4.6614
X5.7921Y-4.6614
X5.8921Y-4.6614
X5.9921Y-4.6614
X6.063Y-3.2126
X6.0921Y-4.6614
X6.463Y-3.2126
X6.4921Y-4.6614
X6.563Y-3.2126
X6.663Y-3.2126
X6.763Y-3.2126
X6.8181Y-3.6319
X6.8181Y-3.7319
X6.8181Y-3.8319
X6.8181Y-3.9319
X6.8181Y-4.0319
X6.8181Y-4.1319
X6.8181Y-4.2319
X6.8181Y-4.3319
X6.863Y-3.2126
X6.9181Y-3.6319
X6.9181Y-3.7319
X6.9181Y-3.8319
X6.9181Y-3.9319
X6.9181Y-4.0319
X6.9181Y-4.1319
X6.9181Y-4.2319
X6.9181Y-4.3319
T5
X4.5307Y-3.0551
X4.5307Y-4.8189
X4.7453Y-3.0551
X4.7453Y-4.8189
X4.9598Y-3.0551
X4.9598Y-4.8189
X6.0638Y-3.0551
X6.0638Y-4.8189
X6.2783Y-3.0551
X6.2783Y-4.8189
X6.4929Y-3.0551
X6.4929Y-4.8189
T6
X4.252Y-2.6772
X4.252Y-3.622
X4.252Y-4.252
X4.252Y-5.1969
T7
X4.1339Y-2.1654
X4.1339Y-5.7087
X6.8898Y-2.1654
X6.8898Y-5.7087
T0
M30
