M48
;DRILL file {KiCad 4.0.1-stable} date 13.01.2016 23:47:37
;FORMAT={-:-/ absolute / metric / decimal}
FMAT,2
METRIC,TZ
T1C0.500
T2C0.600
T3C0.800
T4C1.000
T5C1.016
T6C1.143
T7C2.000
T8C3.000
T9C3.000
%
G90
G05
M71
T1
X153.4Y-51.24
X153.4Y-55.44
X155.94Y-51.24
X155.94Y-55.44
X172.196Y-59.346
X180.07Y-52.51
X180.07Y-56.71
X182.61Y-52.51
X182.61Y-56.71
X198.104Y-52.891
X198.104Y-57.091
X200.644Y-52.891
X200.644Y-57.091
X204.704Y-61.345
X204.724Y-63.889
X206.581Y-61.369
X206.629Y-63.889
X208.359Y-61.369
X208.379Y-63.909
X210.677Y-65.659
X211.407Y-77.371
X212.582Y-61.214
X212.582Y-65.532
X213.979Y-46.854
X213.979Y-51.054
X216.519Y-46.854
X216.519Y-51.054
T2
X178.673Y-45.466
X179.943Y-45.466
X181.213Y-45.466
X192.262Y-45.466
X193.532Y-45.466
X194.802Y-45.466
T3
X173.974Y-65.833
X173.974Y-73.333
X194.675Y-65.833
X194.675Y-73.333
T4
X149.59Y-59.483
X149.59Y-74.483
X158.734Y-59.483
X158.734Y-74.483
T5
X215.344Y-72.291
X215.344Y-74.831
X217.884Y-72.291
X217.884Y-74.831
X220.424Y-72.291
X220.424Y-74.831
X222.964Y-72.291
X222.964Y-74.831
X225.504Y-72.291
X225.504Y-74.831
X228.044Y-72.291
X228.044Y-74.831
X230.584Y-72.291
X230.584Y-74.831
X233.124Y-72.291
X233.124Y-74.831
T6
X145.46Y-40.
X148.Y-40.
X150.54Y-40.
X171.42Y-40.
X173.96Y-40.
X176.5Y-40.
X197.38Y-40.
X199.92Y-40.
X202.46Y-40.
X223.34Y-40.
X225.88Y-40.
X228.42Y-40.
T7
X140.16Y-44.478
X143.208Y-63.401
X148.034Y-36.985
X150.733Y-32.893
X153.527Y-32.893
X172.74Y-43.241
X175.237Y-43.266
X175.642Y-36.947
X178.514Y-36.985
X199.12Y-43.053
X204.549Y-43.335
X224.352Y-43.359
X227.589Y-43.413
X228.33Y-33.02
X233.505Y-60.607
X233.886Y-44.986
T8
X136.763Y-50.
X136.763Y-65.
X238.Y-50.
X238.Y-65.
T9
X135.Y-41.
X135.Y-75.
X240.Y-41.
X240.Y-75.
T0
M30
