G04 #@! TF.FileFunction,Copper,L2,Bot,Signal*
%FSLAX46Y46*%
G04 Gerber Fmt 4.6, Leading zero omitted, Abs format (unit mm)*
G04 Created by KiCad (PCBNEW 4.0.1-stable) date 13.01.2016 23:47:25*
%MOMM*%
G01*
G04 APERTURE LIST*
%ADD10C,0.100000*%
%ADD11C,0.300000*%
%ADD12C,7.000000*%
%ADD13C,1.700000*%
%ADD14R,2.300000X2.300000*%
%ADD15C,2.300000*%
%ADD16O,0.899160X1.501140*%
%ADD17C,10.000000*%
%ADD18O,2.032000X2.540000*%
%ADD19R,1.727200X1.727200*%
%ADD20O,1.727200X1.727200*%
%ADD21C,1.500000*%
%ADD22C,4.000000*%
%ADD23C,2.000000*%
%ADD24C,0.254000*%
G04 APERTURE END LIST*
D10*
D11*
X208752714Y-73082857D02*
X208067000Y-73082857D01*
X208409857Y-74282857D02*
X208409857Y-73082857D01*
X207667000Y-74282857D02*
X207667000Y-73082857D01*
X207381285Y-73082857D01*
X207209857Y-73140000D01*
X207095571Y-73254286D01*
X207038428Y-73368571D01*
X206981285Y-73597143D01*
X206981285Y-73768571D01*
X207038428Y-73997143D01*
X207095571Y-74111429D01*
X207209857Y-74225714D01*
X207381285Y-74282857D01*
X207667000Y-74282857D01*
X204866999Y-74282857D02*
X205266999Y-73711429D01*
X205552714Y-74282857D02*
X205552714Y-73082857D01*
X205095571Y-73082857D01*
X204981285Y-73140000D01*
X204924142Y-73197143D01*
X204866999Y-73311429D01*
X204866999Y-73482857D01*
X204924142Y-73597143D01*
X204981285Y-73654286D01*
X205095571Y-73711429D01*
X205552714Y-73711429D01*
X203895571Y-74225714D02*
X204009857Y-74282857D01*
X204238428Y-74282857D01*
X204352714Y-74225714D01*
X204409857Y-74111429D01*
X204409857Y-73654286D01*
X204352714Y-73540000D01*
X204238428Y-73482857D01*
X204009857Y-73482857D01*
X203895571Y-73540000D01*
X203838428Y-73654286D01*
X203838428Y-73768571D01*
X204409857Y-73882857D01*
X203438428Y-73482857D02*
X203152714Y-74282857D01*
X202867000Y-73482857D01*
X202409857Y-74168571D02*
X202352714Y-74225714D01*
X202409857Y-74282857D01*
X202467000Y-74225714D01*
X202409857Y-74168571D01*
X202409857Y-74282857D01*
X200295570Y-74282857D02*
X200981285Y-74282857D01*
X200638427Y-74282857D02*
X200638427Y-73082857D01*
X200752713Y-73254286D01*
X200866999Y-73368571D01*
X200981285Y-73425714D01*
X199781285Y-74168571D02*
X199724142Y-74225714D01*
X199781285Y-74282857D01*
X199838428Y-74225714D01*
X199781285Y-74168571D01*
X199781285Y-74282857D01*
X198981284Y-73082857D02*
X198866999Y-73082857D01*
X198752713Y-73140000D01*
X198695570Y-73197143D01*
X198638427Y-73311429D01*
X198581284Y-73540000D01*
X198581284Y-73825714D01*
X198638427Y-74054286D01*
X198695570Y-74168571D01*
X198752713Y-74225714D01*
X198866999Y-74282857D01*
X198981284Y-74282857D01*
X199095570Y-74225714D01*
X199152713Y-74168571D01*
X199209856Y-74054286D01*
X199266999Y-73825714D01*
X199266999Y-73540000D01*
X199209856Y-73311429D01*
X199152713Y-73197143D01*
X199095570Y-73140000D01*
X198981284Y-73082857D01*
X208352714Y-75062857D02*
X208238429Y-75062857D01*
X208124143Y-75120000D01*
X208067000Y-75177143D01*
X208009857Y-75291429D01*
X207952714Y-75520000D01*
X207952714Y-75805714D01*
X208009857Y-76034286D01*
X208067000Y-76148571D01*
X208124143Y-76205714D01*
X208238429Y-76262857D01*
X208352714Y-76262857D01*
X208467000Y-76205714D01*
X208524143Y-76148571D01*
X208581286Y-76034286D01*
X208638429Y-75805714D01*
X208638429Y-75520000D01*
X208581286Y-75291429D01*
X208524143Y-75177143D01*
X208467000Y-75120000D01*
X208352714Y-75062857D01*
X206809857Y-76262857D02*
X207495572Y-76262857D01*
X207152714Y-76262857D02*
X207152714Y-75062857D01*
X207267000Y-75234286D01*
X207381286Y-75348571D01*
X207495572Y-75405714D01*
X206295572Y-75805714D02*
X205381286Y-75805714D01*
X204867001Y-75177143D02*
X204809858Y-75120000D01*
X204695572Y-75062857D01*
X204409858Y-75062857D01*
X204295572Y-75120000D01*
X204238429Y-75177143D01*
X204181286Y-75291429D01*
X204181286Y-75405714D01*
X204238429Y-75577143D01*
X204924143Y-76262857D01*
X204181286Y-76262857D01*
X203438429Y-75062857D02*
X203324144Y-75062857D01*
X203209858Y-75120000D01*
X203152715Y-75177143D01*
X203095572Y-75291429D01*
X203038429Y-75520000D01*
X203038429Y-75805714D01*
X203095572Y-76034286D01*
X203152715Y-76148571D01*
X203209858Y-76205714D01*
X203324144Y-76262857D01*
X203438429Y-76262857D01*
X203552715Y-76205714D01*
X203609858Y-76148571D01*
X203667001Y-76034286D01*
X203724144Y-75805714D01*
X203724144Y-75520000D01*
X203667001Y-75291429D01*
X203609858Y-75177143D01*
X203552715Y-75120000D01*
X203438429Y-75062857D01*
X201895572Y-76262857D02*
X202581287Y-76262857D01*
X202238429Y-76262857D02*
X202238429Y-75062857D01*
X202352715Y-75234286D01*
X202467001Y-75348571D01*
X202581287Y-75405714D01*
X200867001Y-75062857D02*
X201095572Y-75062857D01*
X201209858Y-75120000D01*
X201267001Y-75177143D01*
X201381287Y-75348571D01*
X201438430Y-75577143D01*
X201438430Y-76034286D01*
X201381287Y-76148571D01*
X201324144Y-76205714D01*
X201209858Y-76262857D01*
X200981287Y-76262857D01*
X200867001Y-76205714D01*
X200809858Y-76148571D01*
X200752715Y-76034286D01*
X200752715Y-75748571D01*
X200809858Y-75634286D01*
X200867001Y-75577143D01*
X200981287Y-75520000D01*
X201209858Y-75520000D01*
X201324144Y-75577143D01*
X201381287Y-75634286D01*
X201438430Y-75748571D01*
X208581286Y-78242857D02*
X208581286Y-77042857D01*
X207895571Y-78242857D02*
X208409857Y-77557143D01*
X207895571Y-77042857D02*
X208581286Y-77728571D01*
X206867000Y-77442857D02*
X206867000Y-78242857D01*
X207381286Y-77442857D02*
X207381286Y-78071429D01*
X207324143Y-78185714D01*
X207209857Y-78242857D01*
X207038429Y-78242857D01*
X206924143Y-78185714D01*
X206867000Y-78128571D01*
X206295572Y-78242857D02*
X206295572Y-77442857D01*
X206295572Y-77671429D02*
X206238429Y-77557143D01*
X206181286Y-77500000D01*
X206067000Y-77442857D01*
X205952715Y-77442857D01*
X205724143Y-77442857D02*
X205267000Y-77442857D01*
X205552715Y-77042857D02*
X205552715Y-78071429D01*
X205495572Y-78185714D01*
X205381286Y-78242857D01*
X205267000Y-78242857D01*
X204009858Y-78185714D02*
X203838429Y-78242857D01*
X203552715Y-78242857D01*
X203438429Y-78185714D01*
X203381286Y-78128571D01*
X203324143Y-78014286D01*
X203324143Y-77900000D01*
X203381286Y-77785714D01*
X203438429Y-77728571D01*
X203552715Y-77671429D01*
X203781286Y-77614286D01*
X203895572Y-77557143D01*
X203952715Y-77500000D01*
X204009858Y-77385714D01*
X204009858Y-77271429D01*
X203952715Y-77157143D01*
X203895572Y-77100000D01*
X203781286Y-77042857D01*
X203495572Y-77042857D01*
X203324143Y-77100000D01*
X202809858Y-78242857D02*
X202809858Y-77042857D01*
X202695572Y-77785714D02*
X202352715Y-78242857D01*
X202352715Y-77442857D02*
X202809858Y-77900000D01*
X201324143Y-78242857D02*
X201324143Y-77614286D01*
X201381286Y-77500000D01*
X201495572Y-77442857D01*
X201724143Y-77442857D01*
X201838429Y-77500000D01*
X201324143Y-78185714D02*
X201438429Y-78242857D01*
X201724143Y-78242857D01*
X201838429Y-78185714D01*
X201895572Y-78071429D01*
X201895572Y-77957143D01*
X201838429Y-77842857D01*
X201724143Y-77785714D01*
X201438429Y-77785714D01*
X201324143Y-77728571D01*
X200238429Y-77442857D02*
X200238429Y-78242857D01*
X200752715Y-77442857D02*
X200752715Y-78071429D01*
X200695572Y-78185714D01*
X200581286Y-78242857D01*
X200409858Y-78242857D01*
X200295572Y-78185714D01*
X200238429Y-78128571D01*
X199209858Y-78185714D02*
X199324144Y-78242857D01*
X199552715Y-78242857D01*
X199667001Y-78185714D01*
X199724144Y-78071429D01*
X199724144Y-77614286D01*
X199667001Y-77500000D01*
X199552715Y-77442857D01*
X199324144Y-77442857D01*
X199209858Y-77500000D01*
X199152715Y-77614286D01*
X199152715Y-77728571D01*
X199724144Y-77842857D01*
X198638430Y-77442857D02*
X198638430Y-78242857D01*
X198638430Y-77557143D02*
X198581287Y-77500000D01*
X198467001Y-77442857D01*
X198295573Y-77442857D01*
X198181287Y-77500000D01*
X198124144Y-77614286D01*
X198124144Y-78242857D01*
D12*
X135000000Y-41000000D03*
X240000000Y-41000000D03*
X240000000Y-75000000D03*
D13*
X194675000Y-73333000D03*
X194675000Y-65833000D03*
X173974000Y-73333000D03*
X173974000Y-65833000D03*
D14*
X149590000Y-74483000D03*
D15*
X149590000Y-59483000D03*
D14*
X158734000Y-74483000D03*
D15*
X158734000Y-59483000D03*
D16*
X179943000Y-45466000D03*
X178673000Y-45466000D03*
X181213000Y-45466000D03*
X193532000Y-45466000D03*
X192262000Y-45466000D03*
X194802000Y-45466000D03*
D13*
X182610000Y-52510000D03*
X180070000Y-52510000D03*
X182610000Y-56710000D03*
X180070000Y-56710000D03*
X155940000Y-51240000D03*
X153400000Y-51240000D03*
X155940000Y-55440000D03*
X153400000Y-55440000D03*
X200644000Y-52891000D03*
X198104000Y-52891000D03*
X200644000Y-57091000D03*
X198104000Y-57091000D03*
X213979000Y-51054000D03*
X216519000Y-51054000D03*
X213979000Y-46854000D03*
X216519000Y-46854000D03*
D17*
X136763000Y-65000000D03*
X136763000Y-50000000D03*
X238000000Y-50000000D03*
X238000000Y-65000000D03*
D12*
X135000000Y-75000000D03*
D18*
X148000000Y-40000000D03*
X150540000Y-40000000D03*
X145460000Y-40000000D03*
X173960000Y-40000000D03*
X176500000Y-40000000D03*
X171420000Y-40000000D03*
X199920000Y-40000000D03*
X202460000Y-40000000D03*
X197380000Y-40000000D03*
X225880000Y-40000000D03*
X228420000Y-40000000D03*
X223340000Y-40000000D03*
D19*
X233124000Y-72291000D03*
D20*
X233124000Y-74831000D03*
X230584000Y-72291000D03*
X230584000Y-74831000D03*
X228044000Y-72291000D03*
X228044000Y-74831000D03*
X225504000Y-72291000D03*
X225504000Y-74831000D03*
X222964000Y-72291000D03*
X222964000Y-74831000D03*
X220424000Y-72291000D03*
X220424000Y-74831000D03*
X217884000Y-72291000D03*
X217884000Y-74831000D03*
X215344000Y-72291000D03*
X215344000Y-74831000D03*
D21*
X172196000Y-59345958D03*
X210677000Y-65659000D03*
D22*
X175236820Y-43265853D03*
X172739869Y-43241445D03*
X143208000Y-63401000D03*
X199120000Y-43053000D03*
X140160001Y-44478000D03*
X153527000Y-32893000D03*
X150733000Y-32893000D03*
X228330000Y-33020000D03*
D21*
X204704148Y-61345334D03*
X204724000Y-63889020D03*
X211407000Y-77371000D03*
X212582000Y-61214000D03*
X212582000Y-65532000D03*
X206581000Y-61369000D03*
X206629000Y-63889020D03*
X208378895Y-63909229D03*
X208359000Y-61369000D03*
D22*
X178514000Y-36984998D03*
X175642331Y-36946598D03*
X233886000Y-44986000D03*
X148034000Y-36985012D03*
X204549000Y-43335000D03*
X224351690Y-43359378D03*
X227589472Y-43412657D03*
X233505000Y-60607000D03*
D11*
X217884000Y-72291000D02*
X216614000Y-73561000D01*
X216614000Y-73561000D02*
X212681000Y-73561000D01*
X212681000Y-73561000D02*
X212679000Y-73563000D01*
X212679000Y-73563000D02*
X210645000Y-71529000D01*
X210645000Y-71529000D02*
X210645000Y-68132686D01*
X210645000Y-68132686D02*
X210677000Y-68100686D01*
X210677000Y-68100686D02*
X210677686Y-68100000D01*
X171135340Y-59345958D02*
X172196000Y-59345958D01*
X155940000Y-51240000D02*
X164045958Y-59345958D01*
X172945999Y-58595959D02*
X172196000Y-59345958D01*
X182610000Y-52510000D02*
X179585001Y-55534999D01*
X179585001Y-55534999D02*
X176006959Y-55534999D01*
X164045958Y-59345958D02*
X171135340Y-59345958D01*
X176006959Y-55534999D02*
X172945999Y-58595959D01*
X210677000Y-65659000D02*
X210677000Y-66719660D01*
X210677000Y-66719660D02*
X210677686Y-66720346D01*
X210677686Y-66720346D02*
X210677686Y-68100000D01*
X213979000Y-67056000D02*
X213979000Y-51054000D01*
X210677686Y-68100000D02*
X212935000Y-68100000D01*
X212935000Y-68100000D02*
X213979000Y-67056000D01*
X230584000Y-72291000D02*
X233124000Y-72291000D01*
X228044000Y-72291000D02*
X229265314Y-72291000D01*
X229265314Y-72291000D02*
X230584000Y-72291000D01*
X225504000Y-72291000D02*
X228044000Y-72291000D01*
X222964000Y-72291000D02*
X225504000Y-72291000D01*
X220424000Y-72291000D02*
X222964000Y-72291000D01*
X217884000Y-72291000D02*
X220424000Y-72291000D01*
X210677000Y-65659000D02*
X203057000Y-65659000D01*
X203057000Y-65659000D02*
X200644000Y-63246000D01*
X200644000Y-63246000D02*
X200644000Y-59690000D01*
X194802000Y-45466000D02*
X194802000Y-53594000D01*
X184896081Y-53594000D02*
X194802000Y-53594000D01*
X194802000Y-53594000D02*
X194802000Y-58039000D01*
X182610000Y-52510000D02*
X183812081Y-52510000D01*
X183812081Y-52510000D02*
X184896081Y-53594000D01*
X181213000Y-45466000D02*
X181213000Y-51113000D01*
X181213000Y-51113000D02*
X182610000Y-52510000D01*
X200644000Y-59690000D02*
X200644000Y-57091000D01*
X194802000Y-58039000D02*
X196453000Y-59690000D01*
X196453000Y-59690000D02*
X200644000Y-59690000D01*
D23*
X175449673Y-43053000D02*
X175236820Y-43265853D01*
X199120000Y-43053000D02*
X175449673Y-43053000D01*
X172928314Y-43053000D02*
X172739869Y-43241445D01*
X174990000Y-43053000D02*
X172928314Y-43053000D01*
X143208000Y-46129000D02*
X146095555Y-43241445D01*
X143208000Y-63401000D02*
X143208000Y-46129000D01*
X146095555Y-43241445D02*
X169911442Y-43241445D01*
X169911442Y-43241445D02*
X172739869Y-43241445D01*
X194675000Y-73333000D02*
X194047000Y-73333000D01*
X173974000Y-73333000D02*
X194047000Y-73333000D01*
X158734000Y-74483000D02*
X172824000Y-74483000D01*
X172824000Y-74483000D02*
X173974000Y-73333000D01*
X149590000Y-74483000D02*
X158734000Y-74483000D01*
X143208000Y-63401000D02*
X143208000Y-68101000D01*
X143208000Y-68101000D02*
X149590000Y-74483000D01*
X194675000Y-65833000D02*
X194047000Y-65833000D01*
X153527000Y-32893000D02*
X228203000Y-32893000D01*
X228203000Y-32893000D02*
X228330000Y-33020000D01*
X173974000Y-65833000D02*
X194047000Y-65833000D01*
X158734000Y-63734000D02*
X160833000Y-65833000D01*
X160833000Y-65833000D02*
X173974000Y-65833000D01*
X158734000Y-59483000D02*
X158734000Y-63734000D01*
X149590000Y-59483000D02*
X158734000Y-59483000D01*
X140160001Y-44478000D02*
X140160001Y-46602999D01*
X140160001Y-46602999D02*
X136763000Y-50000000D01*
X150733000Y-32893000D02*
X145014000Y-32893000D01*
X140160001Y-41649573D02*
X140160001Y-44478000D01*
X145014000Y-32893000D02*
X140160001Y-37746999D01*
X140160001Y-37746999D02*
X140160001Y-41649573D01*
X153527000Y-32893000D02*
X153400000Y-33020000D01*
X153400000Y-33020000D02*
X150860000Y-33020000D01*
X150860000Y-33020000D02*
X150733000Y-32893000D01*
D11*
X204724000Y-63889020D02*
X204724000Y-61365186D01*
X204724000Y-61365186D02*
X204704148Y-61345334D01*
X215344000Y-77371000D02*
X212467660Y-77371000D01*
X217884000Y-74831000D02*
X215344000Y-77371000D01*
X212467660Y-77371000D02*
X211407000Y-77371000D01*
X212582000Y-61214000D02*
X212582000Y-65532000D01*
X206629000Y-63889020D02*
X206629000Y-61417000D01*
X206629000Y-61417000D02*
X206581000Y-61369000D01*
X208359000Y-63889334D02*
X208378895Y-63909229D01*
X208359000Y-61369000D02*
X208359000Y-63889334D01*
D23*
X230075998Y-36984998D02*
X181342427Y-36984998D01*
X233886000Y-40795000D02*
X230075998Y-36984998D01*
X178513998Y-36985000D02*
X178514000Y-36984998D01*
X181342427Y-36984998D02*
X178514000Y-36984998D01*
X176736000Y-36985000D02*
X178513998Y-36985000D01*
X233886000Y-44986000D02*
X233886000Y-40795000D01*
X178470758Y-36946598D02*
X175642331Y-36946598D01*
X179191986Y-36946598D02*
X178470758Y-36946598D01*
X175603917Y-36985012D02*
X175642331Y-36946598D01*
X179220194Y-36974806D02*
X179191986Y-36946598D01*
X148034000Y-36985012D02*
X175603917Y-36985012D01*
X204573378Y-43359378D02*
X204549000Y-43335000D01*
X224351690Y-43359378D02*
X204573378Y-43359378D01*
X224404969Y-43412657D02*
X224351690Y-43359378D01*
X227589472Y-43412657D02*
X224404969Y-43412657D01*
X227589472Y-54691472D02*
X227589472Y-46241084D01*
X233505000Y-60607000D02*
X227589472Y-54691472D01*
X227589472Y-46241084D02*
X227589472Y-43412657D01*
D24*
G36*
X244573000Y-79573000D02*
X130427000Y-79573000D01*
X130427000Y-79154609D01*
X130489000Y-79154609D01*
X130514795Y-79292056D01*
X130595788Y-79417896D01*
X130719358Y-79502311D01*
X130866035Y-79532000D01*
X196421035Y-79526000D01*
X196558023Y-79500217D01*
X196683871Y-79419237D01*
X196768298Y-79295674D01*
X196798000Y-79149000D01*
X196798000Y-72073000D01*
X197311430Y-72073000D01*
X197311430Y-79067000D01*
X209394000Y-79067000D01*
X209394000Y-77594191D01*
X210279805Y-77594191D01*
X210451019Y-78008560D01*
X210767772Y-78325867D01*
X211181842Y-78497804D01*
X211630191Y-78498195D01*
X212044560Y-78326981D01*
X212361867Y-78010228D01*
X212408468Y-77898000D01*
X215344000Y-77898000D01*
X215545675Y-77857885D01*
X215716645Y-77743645D01*
X217466835Y-75993455D01*
X217859695Y-76071600D01*
X217908305Y-76071600D01*
X218383062Y-75977165D01*
X218785542Y-75708237D01*
X219054470Y-75305757D01*
X219148905Y-74831000D01*
X219159095Y-74831000D01*
X219253530Y-75305757D01*
X219522458Y-75708237D01*
X219924938Y-75977165D01*
X220399695Y-76071600D01*
X220448305Y-76071600D01*
X220923062Y-75977165D01*
X221325542Y-75708237D01*
X221594470Y-75305757D01*
X221688905Y-74831000D01*
X221699095Y-74831000D01*
X221793530Y-75305757D01*
X222062458Y-75708237D01*
X222464938Y-75977165D01*
X222939695Y-76071600D01*
X222988305Y-76071600D01*
X223463062Y-75977165D01*
X223865542Y-75708237D01*
X224134470Y-75305757D01*
X224228905Y-74831000D01*
X224239095Y-74831000D01*
X224333530Y-75305757D01*
X224602458Y-75708237D01*
X225004938Y-75977165D01*
X225479695Y-76071600D01*
X225528305Y-76071600D01*
X226003062Y-75977165D01*
X226405542Y-75708237D01*
X226674470Y-75305757D01*
X226768905Y-74831000D01*
X226779095Y-74831000D01*
X226873530Y-75305757D01*
X227142458Y-75708237D01*
X227544938Y-75977165D01*
X228019695Y-76071600D01*
X228068305Y-76071600D01*
X228543062Y-75977165D01*
X228945542Y-75708237D01*
X229214470Y-75305757D01*
X229308905Y-74831000D01*
X229319095Y-74831000D01*
X229413530Y-75305757D01*
X229682458Y-75708237D01*
X230084938Y-75977165D01*
X230559695Y-76071600D01*
X230608305Y-76071600D01*
X231083062Y-75977165D01*
X231485542Y-75708237D01*
X231754470Y-75305757D01*
X231848905Y-74831000D01*
X231859095Y-74831000D01*
X231953530Y-75305757D01*
X232222458Y-75708237D01*
X232624938Y-75977165D01*
X233099695Y-76071600D01*
X233148305Y-76071600D01*
X233623062Y-75977165D01*
X234025542Y-75708237D01*
X234294470Y-75305757D01*
X234388905Y-74831000D01*
X234294470Y-74356243D01*
X234025542Y-73953763D01*
X233623062Y-73684835D01*
X233148305Y-73590400D01*
X233099695Y-73590400D01*
X232624938Y-73684835D01*
X232222458Y-73953763D01*
X231953530Y-74356243D01*
X231859095Y-74831000D01*
X231848905Y-74831000D01*
X231754470Y-74356243D01*
X231485542Y-73953763D01*
X231083062Y-73684835D01*
X230608305Y-73590400D01*
X230559695Y-73590400D01*
X230084938Y-73684835D01*
X229682458Y-73953763D01*
X229413530Y-74356243D01*
X229319095Y-74831000D01*
X229308905Y-74831000D01*
X229214470Y-74356243D01*
X228945542Y-73953763D01*
X228543062Y-73684835D01*
X228068305Y-73590400D01*
X228019695Y-73590400D01*
X227544938Y-73684835D01*
X227142458Y-73953763D01*
X226873530Y-74356243D01*
X226779095Y-74831000D01*
X226768905Y-74831000D01*
X226674470Y-74356243D01*
X226405542Y-73953763D01*
X226003062Y-73684835D01*
X225528305Y-73590400D01*
X225479695Y-73590400D01*
X225004938Y-73684835D01*
X224602458Y-73953763D01*
X224333530Y-74356243D01*
X224239095Y-74831000D01*
X224228905Y-74831000D01*
X224134470Y-74356243D01*
X223865542Y-73953763D01*
X223463062Y-73684835D01*
X222988305Y-73590400D01*
X222939695Y-73590400D01*
X222464938Y-73684835D01*
X222062458Y-73953763D01*
X221793530Y-74356243D01*
X221699095Y-74831000D01*
X221688905Y-74831000D01*
X221594470Y-74356243D01*
X221325542Y-73953763D01*
X220923062Y-73684835D01*
X220448305Y-73590400D01*
X220399695Y-73590400D01*
X219924938Y-73684835D01*
X219522458Y-73953763D01*
X219253530Y-74356243D01*
X219159095Y-74831000D01*
X219148905Y-74831000D01*
X219054470Y-74356243D01*
X218785542Y-73953763D01*
X218383062Y-73684835D01*
X217908305Y-73590400D01*
X217859695Y-73590400D01*
X217384938Y-73684835D01*
X216982458Y-73953763D01*
X216713530Y-74356243D01*
X216619095Y-74831000D01*
X216705305Y-75264405D01*
X215125710Y-76844000D01*
X212408664Y-76844000D01*
X212362981Y-76733440D01*
X212046228Y-76416133D01*
X211632158Y-76244196D01*
X211183809Y-76243805D01*
X210769440Y-76415019D01*
X210452133Y-76731772D01*
X210280196Y-77145842D01*
X210279805Y-77594191D01*
X209394000Y-77594191D01*
X209394000Y-74831000D01*
X214079095Y-74831000D01*
X214173530Y-75305757D01*
X214442458Y-75708237D01*
X214844938Y-75977165D01*
X215319695Y-76071600D01*
X215368305Y-76071600D01*
X215843062Y-75977165D01*
X216245542Y-75708237D01*
X216514470Y-75305757D01*
X216608905Y-74831000D01*
X216514470Y-74356243D01*
X216245542Y-73953763D01*
X215843062Y-73684835D01*
X215368305Y-73590400D01*
X215319695Y-73590400D01*
X214844938Y-73684835D01*
X214442458Y-73953763D01*
X214173530Y-74356243D01*
X214079095Y-74831000D01*
X209394000Y-74831000D01*
X209394000Y-72291000D01*
X214079095Y-72291000D01*
X214173530Y-72765757D01*
X214442458Y-73168237D01*
X214844938Y-73437165D01*
X215319695Y-73531600D01*
X215368305Y-73531600D01*
X215843062Y-73437165D01*
X216245542Y-73168237D01*
X216514470Y-72765757D01*
X216608905Y-72291000D01*
X216514470Y-71816243D01*
X216245542Y-71413763D01*
X215843062Y-71144835D01*
X215368305Y-71050400D01*
X215319695Y-71050400D01*
X214844938Y-71144835D01*
X214442458Y-71413763D01*
X214173530Y-71816243D01*
X214079095Y-72291000D01*
X209394000Y-72291000D01*
X209394000Y-72073000D01*
X197311430Y-72073000D01*
X196798000Y-72073000D01*
X196798000Y-70005000D01*
X196773230Y-69873320D01*
X196798000Y-69751000D01*
X196798000Y-64798000D01*
X196772217Y-64660977D01*
X196691237Y-64535129D01*
X196567674Y-64450702D01*
X196421000Y-64421000D01*
X168764158Y-64421000D01*
X165911683Y-61568525D01*
X203576953Y-61568525D01*
X203748167Y-61982894D01*
X204064920Y-62300201D01*
X204197000Y-62355045D01*
X204197000Y-62887356D01*
X204086440Y-62933039D01*
X203769133Y-63249792D01*
X203597196Y-63663862D01*
X203596805Y-64112211D01*
X203768019Y-64526580D01*
X204084772Y-64843887D01*
X204498842Y-65015824D01*
X204947191Y-65016215D01*
X205361560Y-64845001D01*
X205676772Y-64530339D01*
X205989772Y-64843887D01*
X206403842Y-65015824D01*
X206852191Y-65016215D01*
X207266560Y-64845001D01*
X207493979Y-64617979D01*
X207739667Y-64864096D01*
X208153737Y-65036033D01*
X208602086Y-65036424D01*
X209016455Y-64865210D01*
X209333762Y-64548457D01*
X209505699Y-64134387D01*
X209506090Y-63686038D01*
X209334876Y-63271669D01*
X209018123Y-62954362D01*
X208886000Y-62899500D01*
X208886000Y-62370664D01*
X208996560Y-62324981D01*
X209313867Y-62008228D01*
X209485804Y-61594158D01*
X209485940Y-61437191D01*
X211454805Y-61437191D01*
X211626019Y-61851560D01*
X211942772Y-62168867D01*
X212055000Y-62215468D01*
X212055000Y-64530336D01*
X211944440Y-64576019D01*
X211627133Y-64892772D01*
X211455196Y-65306842D01*
X211454805Y-65755191D01*
X211626019Y-66169560D01*
X211942772Y-66486867D01*
X212356842Y-66658804D01*
X212805191Y-66659195D01*
X213219560Y-66487981D01*
X213536867Y-66171228D01*
X213708804Y-65757158D01*
X213709195Y-65308809D01*
X213537981Y-64894440D01*
X213221228Y-64577133D01*
X213109000Y-64530532D01*
X213109000Y-62215664D01*
X213219560Y-62169981D01*
X213536867Y-61853228D01*
X213708804Y-61439158D01*
X213709195Y-60990809D01*
X213537981Y-60576440D01*
X213221228Y-60259133D01*
X212807158Y-60087196D01*
X212358809Y-60086805D01*
X211944440Y-60258019D01*
X211627133Y-60574772D01*
X211455196Y-60988842D01*
X211454805Y-61437191D01*
X209485940Y-61437191D01*
X209486195Y-61145809D01*
X209314981Y-60731440D01*
X208998228Y-60414133D01*
X208584158Y-60242196D01*
X208135809Y-60241805D01*
X207721440Y-60413019D01*
X207469839Y-60664181D01*
X207220228Y-60414133D01*
X206806158Y-60242196D01*
X206357809Y-60241805D01*
X205943440Y-60413019D01*
X205654160Y-60701794D01*
X205343376Y-60390467D01*
X204929306Y-60218530D01*
X204480957Y-60218139D01*
X204066588Y-60389353D01*
X203749281Y-60706106D01*
X203577344Y-61120176D01*
X203576953Y-61568525D01*
X165911683Y-61568525D01*
X161296153Y-56952995D01*
X178842788Y-56952995D01*
X179029194Y-57404131D01*
X179374053Y-57749593D01*
X179824864Y-57936786D01*
X180312995Y-57937212D01*
X180764131Y-57750806D01*
X181109593Y-57405947D01*
X181296786Y-56955136D01*
X181296787Y-56952995D01*
X181382788Y-56952995D01*
X181569194Y-57404131D01*
X181914053Y-57749593D01*
X182364864Y-57936786D01*
X182852995Y-57937212D01*
X183304131Y-57750806D01*
X183649593Y-57405947D01*
X183679470Y-57333995D01*
X196876788Y-57333995D01*
X197063194Y-57785131D01*
X197408053Y-58130593D01*
X197858864Y-58317786D01*
X198346995Y-58318212D01*
X198798131Y-58131806D01*
X199143593Y-57786947D01*
X199330786Y-57336136D01*
X199331212Y-56848005D01*
X199144806Y-56396869D01*
X198799947Y-56051407D01*
X198349136Y-55864214D01*
X197861005Y-55863788D01*
X197409869Y-56050194D01*
X197064407Y-56395053D01*
X196877214Y-56845864D01*
X196876788Y-57333995D01*
X183679470Y-57333995D01*
X183836786Y-56955136D01*
X183837212Y-56467005D01*
X183650806Y-56015869D01*
X183305947Y-55670407D01*
X182855136Y-55483214D01*
X182367005Y-55482788D01*
X181915869Y-55669194D01*
X181570407Y-56014053D01*
X181383214Y-56464864D01*
X181382788Y-56952995D01*
X181296787Y-56952995D01*
X181297212Y-56467005D01*
X181110806Y-56015869D01*
X180765947Y-55670407D01*
X180315136Y-55483214D01*
X179827005Y-55482788D01*
X179375869Y-55669194D01*
X179030407Y-56014053D01*
X178843214Y-56464864D01*
X178842788Y-56952995D01*
X161296153Y-56952995D01*
X161000579Y-56657421D01*
X160880674Y-56576702D01*
X160734000Y-56547000D01*
X156473930Y-56547000D01*
X156634131Y-56480806D01*
X156979593Y-56135947D01*
X157166786Y-55685136D01*
X157167212Y-55197005D01*
X156980806Y-54745869D01*
X156635947Y-54400407D01*
X156185136Y-54213214D01*
X155697005Y-54212788D01*
X155245869Y-54399194D01*
X154900407Y-54744053D01*
X154713214Y-55194864D01*
X154712788Y-55682995D01*
X154899194Y-56134131D01*
X155244053Y-56479593D01*
X155406387Y-56547000D01*
X153933930Y-56547000D01*
X154094131Y-56480806D01*
X154439593Y-56135947D01*
X154626786Y-55685136D01*
X154627212Y-55197005D01*
X154440806Y-54745869D01*
X154095947Y-54400407D01*
X153645136Y-54213214D01*
X153157005Y-54212788D01*
X152705869Y-54399194D01*
X152360407Y-54744053D01*
X152173214Y-55194864D01*
X152172788Y-55682995D01*
X152359194Y-56134131D01*
X152704053Y-56479593D01*
X152866387Y-56547000D01*
X145377000Y-56547000D01*
X145377000Y-52752995D01*
X178842788Y-52752995D01*
X179029194Y-53204131D01*
X179374053Y-53549593D01*
X179824864Y-53736786D01*
X180312995Y-53737212D01*
X180764131Y-53550806D01*
X181109593Y-53205947D01*
X181139470Y-53133995D01*
X196876788Y-53133995D01*
X197063194Y-53585131D01*
X197408053Y-53930593D01*
X197858864Y-54117786D01*
X198346995Y-54118212D01*
X198798131Y-53931806D01*
X199143593Y-53586947D01*
X199330786Y-53136136D01*
X199330787Y-53133995D01*
X199416788Y-53133995D01*
X199603194Y-53585131D01*
X199948053Y-53930593D01*
X200398864Y-54117786D01*
X200886995Y-54118212D01*
X201338131Y-53931806D01*
X201683593Y-53586947D01*
X201870786Y-53136136D01*
X201871212Y-52648005D01*
X201684806Y-52196869D01*
X201339947Y-51851407D01*
X200889136Y-51664214D01*
X200401005Y-51663788D01*
X199949869Y-51850194D01*
X199604407Y-52195053D01*
X199417214Y-52645864D01*
X199416788Y-53133995D01*
X199330787Y-53133995D01*
X199331212Y-52648005D01*
X199144806Y-52196869D01*
X198799947Y-51851407D01*
X198349136Y-51664214D01*
X197861005Y-51663788D01*
X197409869Y-51850194D01*
X197064407Y-52195053D01*
X196877214Y-52645864D01*
X196876788Y-53133995D01*
X181139470Y-53133995D01*
X181296786Y-52755136D01*
X181297212Y-52267005D01*
X181110806Y-51815869D01*
X180765947Y-51470407D01*
X180348325Y-51296995D01*
X215291788Y-51296995D01*
X215478194Y-51748131D01*
X215823053Y-52093593D01*
X216273864Y-52280786D01*
X216761995Y-52281212D01*
X217213131Y-52094806D01*
X217558593Y-51749947D01*
X217745786Y-51299136D01*
X217746212Y-50811005D01*
X217559806Y-50359869D01*
X217214947Y-50014407D01*
X216764136Y-49827214D01*
X216276005Y-49826788D01*
X215824869Y-50013194D01*
X215479407Y-50358053D01*
X215292214Y-50808864D01*
X215291788Y-51296995D01*
X180348325Y-51296995D01*
X180315136Y-51283214D01*
X179827005Y-51282788D01*
X179375869Y-51469194D01*
X179030407Y-51814053D01*
X178843214Y-52264864D01*
X178842788Y-52752995D01*
X145377000Y-52752995D01*
X145377000Y-51482995D01*
X152172788Y-51482995D01*
X152359194Y-51934131D01*
X152704053Y-52279593D01*
X153154864Y-52466786D01*
X153642995Y-52467212D01*
X154094131Y-52280806D01*
X154439593Y-51935947D01*
X154626786Y-51485136D01*
X154627212Y-50997005D01*
X154440806Y-50545869D01*
X154095947Y-50200407D01*
X153645136Y-50013214D01*
X153157005Y-50012788D01*
X152705869Y-50199194D01*
X152360407Y-50544053D01*
X152173214Y-50994864D01*
X152172788Y-51482995D01*
X145377000Y-51482995D01*
X145377000Y-47096995D01*
X212751788Y-47096995D01*
X212938194Y-47548131D01*
X213283053Y-47893593D01*
X213733864Y-48080786D01*
X214221995Y-48081212D01*
X214673131Y-47894806D01*
X215018593Y-47549947D01*
X215205786Y-47099136D01*
X215205787Y-47096995D01*
X215291788Y-47096995D01*
X215478194Y-47548131D01*
X215823053Y-47893593D01*
X216273864Y-48080786D01*
X216761995Y-48081212D01*
X217213131Y-47894806D01*
X217558593Y-47549947D01*
X217745786Y-47099136D01*
X217746212Y-46611005D01*
X217559806Y-46159869D01*
X217214947Y-45814407D01*
X216764136Y-45627214D01*
X216276005Y-45626788D01*
X215824869Y-45813194D01*
X215479407Y-46158053D01*
X215292214Y-46608864D01*
X215291788Y-47096995D01*
X215205787Y-47096995D01*
X215206212Y-46611005D01*
X215019806Y-46159869D01*
X214674947Y-45814407D01*
X214224136Y-45627214D01*
X213736005Y-45626788D01*
X213284869Y-45813194D01*
X212939407Y-46158053D01*
X212752214Y-46608864D01*
X212751788Y-47096995D01*
X145377000Y-47096995D01*
X145377000Y-45907372D01*
X146665927Y-44618445D01*
X170755813Y-44618445D01*
X171391649Y-45255392D01*
X172264980Y-45618031D01*
X173210609Y-45618857D01*
X173959718Y-45309331D01*
X174761931Y-45642439D01*
X175707560Y-45643265D01*
X176581523Y-45282150D01*
X177250767Y-44614073D01*
X177327201Y-44430000D01*
X178280744Y-44430000D01*
X178088520Y-44558440D01*
X177909340Y-44826602D01*
X177846420Y-45142920D01*
X177846420Y-45789080D01*
X177909340Y-46105398D01*
X178088520Y-46373560D01*
X178356682Y-46552740D01*
X178673000Y-46615660D01*
X178989318Y-46552740D01*
X179257480Y-46373560D01*
X179308000Y-46297951D01*
X179358520Y-46373560D01*
X179626682Y-46552740D01*
X179943000Y-46615660D01*
X180259318Y-46552740D01*
X180527480Y-46373560D01*
X180706660Y-46105398D01*
X180769580Y-45789080D01*
X180769580Y-45142920D01*
X180706660Y-44826602D01*
X180527480Y-44558440D01*
X180335256Y-44430000D01*
X191869744Y-44430000D01*
X191677520Y-44558440D01*
X191498340Y-44826602D01*
X191435420Y-45142920D01*
X191435420Y-45789080D01*
X191498340Y-46105398D01*
X191677520Y-46373560D01*
X191945682Y-46552740D01*
X192262000Y-46615660D01*
X192578318Y-46552740D01*
X192846480Y-46373560D01*
X192897000Y-46297951D01*
X192947520Y-46373560D01*
X193215682Y-46552740D01*
X193532000Y-46615660D01*
X193848318Y-46552740D01*
X194116480Y-46373560D01*
X194295660Y-46105398D01*
X194358580Y-45789080D01*
X194358580Y-45142920D01*
X194295660Y-44826602D01*
X194116480Y-44558440D01*
X193924256Y-44430000D01*
X196896842Y-44430000D01*
X197733421Y-45266579D01*
X197853326Y-45347298D01*
X198000000Y-45377000D01*
X198518470Y-45377000D01*
X198645111Y-45429586D01*
X199590740Y-45430412D01*
X199720007Y-45377000D01*
X200000000Y-45377000D01*
X200141862Y-45349291D01*
X200266579Y-45266579D01*
X200463268Y-45069890D01*
X200464703Y-45069297D01*
X200870000Y-44664707D01*
X200870000Y-45240000D01*
X200895783Y-45377023D01*
X200976763Y-45502871D01*
X201100326Y-45587298D01*
X201247000Y-45617000D01*
X203846323Y-45617000D01*
X204074111Y-45711586D01*
X205019740Y-45712412D01*
X205250654Y-45617000D01*
X223590304Y-45617000D01*
X223876801Y-45735964D01*
X224822430Y-45736790D01*
X225112343Y-45617000D01*
X226212472Y-45617000D01*
X226212472Y-54691472D01*
X226317290Y-55218427D01*
X226615786Y-55665158D01*
X227852012Y-56901384D01*
X227921005Y-70768876D01*
X227946783Y-70904023D01*
X228027763Y-71029871D01*
X228151326Y-71114298D01*
X228298000Y-71144000D01*
X239179750Y-71144000D01*
X237806725Y-71711323D01*
X236715156Y-72800988D01*
X236123674Y-74225434D01*
X236122328Y-75767800D01*
X236711323Y-77193275D01*
X237800988Y-78284844D01*
X239225434Y-78876326D01*
X240767800Y-78877672D01*
X242193275Y-78288677D01*
X243284844Y-77199012D01*
X243876326Y-75774566D01*
X243877672Y-74232200D01*
X243288677Y-72806725D01*
X242199012Y-71715156D01*
X240823516Y-71144000D01*
X244173000Y-71144000D01*
X244310023Y-71118217D01*
X244435871Y-71037237D01*
X244520298Y-70913674D01*
X244550000Y-70767000D01*
X244550000Y-57432000D01*
X244525226Y-57300339D01*
X244550000Y-57178000D01*
X244550000Y-35080000D01*
X244524217Y-34942977D01*
X244443237Y-34817129D01*
X244319674Y-34732702D01*
X244173000Y-34703000D01*
X234377000Y-34703000D01*
X234377000Y-30889000D01*
X234351149Y-30751803D01*
X234270106Y-30625995D01*
X234146502Y-30541630D01*
X233999814Y-30512000D01*
X154086448Y-30551526D01*
X154001889Y-30516414D01*
X153056260Y-30515588D01*
X152967944Y-30552079D01*
X151295773Y-30552906D01*
X151207889Y-30516414D01*
X150262260Y-30515588D01*
X150170596Y-30553463D01*
X130888814Y-30563000D01*
X130751977Y-30588783D01*
X130626129Y-30669763D01*
X130541702Y-30793326D01*
X130512000Y-30940000D01*
X130512000Y-56924000D01*
X130519980Y-56966411D01*
X130512000Y-57005609D01*
X130489000Y-79154609D01*
X130427000Y-79154609D01*
X130427000Y-30427000D01*
X244573000Y-30427000D01*
X244573000Y-79573000D01*
X244573000Y-79573000D01*
G37*
X244573000Y-79573000D02*
X130427000Y-79573000D01*
X130427000Y-79154609D01*
X130489000Y-79154609D01*
X130514795Y-79292056D01*
X130595788Y-79417896D01*
X130719358Y-79502311D01*
X130866035Y-79532000D01*
X196421035Y-79526000D01*
X196558023Y-79500217D01*
X196683871Y-79419237D01*
X196768298Y-79295674D01*
X196798000Y-79149000D01*
X196798000Y-72073000D01*
X197311430Y-72073000D01*
X197311430Y-79067000D01*
X209394000Y-79067000D01*
X209394000Y-77594191D01*
X210279805Y-77594191D01*
X210451019Y-78008560D01*
X210767772Y-78325867D01*
X211181842Y-78497804D01*
X211630191Y-78498195D01*
X212044560Y-78326981D01*
X212361867Y-78010228D01*
X212408468Y-77898000D01*
X215344000Y-77898000D01*
X215545675Y-77857885D01*
X215716645Y-77743645D01*
X217466835Y-75993455D01*
X217859695Y-76071600D01*
X217908305Y-76071600D01*
X218383062Y-75977165D01*
X218785542Y-75708237D01*
X219054470Y-75305757D01*
X219148905Y-74831000D01*
X219159095Y-74831000D01*
X219253530Y-75305757D01*
X219522458Y-75708237D01*
X219924938Y-75977165D01*
X220399695Y-76071600D01*
X220448305Y-76071600D01*
X220923062Y-75977165D01*
X221325542Y-75708237D01*
X221594470Y-75305757D01*
X221688905Y-74831000D01*
X221699095Y-74831000D01*
X221793530Y-75305757D01*
X222062458Y-75708237D01*
X222464938Y-75977165D01*
X222939695Y-76071600D01*
X222988305Y-76071600D01*
X223463062Y-75977165D01*
X223865542Y-75708237D01*
X224134470Y-75305757D01*
X224228905Y-74831000D01*
X224239095Y-74831000D01*
X224333530Y-75305757D01*
X224602458Y-75708237D01*
X225004938Y-75977165D01*
X225479695Y-76071600D01*
X225528305Y-76071600D01*
X226003062Y-75977165D01*
X226405542Y-75708237D01*
X226674470Y-75305757D01*
X226768905Y-74831000D01*
X226779095Y-74831000D01*
X226873530Y-75305757D01*
X227142458Y-75708237D01*
X227544938Y-75977165D01*
X228019695Y-76071600D01*
X228068305Y-76071600D01*
X228543062Y-75977165D01*
X228945542Y-75708237D01*
X229214470Y-75305757D01*
X229308905Y-74831000D01*
X229319095Y-74831000D01*
X229413530Y-75305757D01*
X229682458Y-75708237D01*
X230084938Y-75977165D01*
X230559695Y-76071600D01*
X230608305Y-76071600D01*
X231083062Y-75977165D01*
X231485542Y-75708237D01*
X231754470Y-75305757D01*
X231848905Y-74831000D01*
X231859095Y-74831000D01*
X231953530Y-75305757D01*
X232222458Y-75708237D01*
X232624938Y-75977165D01*
X233099695Y-76071600D01*
X233148305Y-76071600D01*
X233623062Y-75977165D01*
X234025542Y-75708237D01*
X234294470Y-75305757D01*
X234388905Y-74831000D01*
X234294470Y-74356243D01*
X234025542Y-73953763D01*
X233623062Y-73684835D01*
X233148305Y-73590400D01*
X233099695Y-73590400D01*
X232624938Y-73684835D01*
X232222458Y-73953763D01*
X231953530Y-74356243D01*
X231859095Y-74831000D01*
X231848905Y-74831000D01*
X231754470Y-74356243D01*
X231485542Y-73953763D01*
X231083062Y-73684835D01*
X230608305Y-73590400D01*
X230559695Y-73590400D01*
X230084938Y-73684835D01*
X229682458Y-73953763D01*
X229413530Y-74356243D01*
X229319095Y-74831000D01*
X229308905Y-74831000D01*
X229214470Y-74356243D01*
X228945542Y-73953763D01*
X228543062Y-73684835D01*
X228068305Y-73590400D01*
X228019695Y-73590400D01*
X227544938Y-73684835D01*
X227142458Y-73953763D01*
X226873530Y-74356243D01*
X226779095Y-74831000D01*
X226768905Y-74831000D01*
X226674470Y-74356243D01*
X226405542Y-73953763D01*
X226003062Y-73684835D01*
X225528305Y-73590400D01*
X225479695Y-73590400D01*
X225004938Y-73684835D01*
X224602458Y-73953763D01*
X224333530Y-74356243D01*
X224239095Y-74831000D01*
X224228905Y-74831000D01*
X224134470Y-74356243D01*
X223865542Y-73953763D01*
X223463062Y-73684835D01*
X222988305Y-73590400D01*
X222939695Y-73590400D01*
X222464938Y-73684835D01*
X222062458Y-73953763D01*
X221793530Y-74356243D01*
X221699095Y-74831000D01*
X221688905Y-74831000D01*
X221594470Y-74356243D01*
X221325542Y-73953763D01*
X220923062Y-73684835D01*
X220448305Y-73590400D01*
X220399695Y-73590400D01*
X219924938Y-73684835D01*
X219522458Y-73953763D01*
X219253530Y-74356243D01*
X219159095Y-74831000D01*
X219148905Y-74831000D01*
X219054470Y-74356243D01*
X218785542Y-73953763D01*
X218383062Y-73684835D01*
X217908305Y-73590400D01*
X217859695Y-73590400D01*
X217384938Y-73684835D01*
X216982458Y-73953763D01*
X216713530Y-74356243D01*
X216619095Y-74831000D01*
X216705305Y-75264405D01*
X215125710Y-76844000D01*
X212408664Y-76844000D01*
X212362981Y-76733440D01*
X212046228Y-76416133D01*
X211632158Y-76244196D01*
X211183809Y-76243805D01*
X210769440Y-76415019D01*
X210452133Y-76731772D01*
X210280196Y-77145842D01*
X210279805Y-77594191D01*
X209394000Y-77594191D01*
X209394000Y-74831000D01*
X214079095Y-74831000D01*
X214173530Y-75305757D01*
X214442458Y-75708237D01*
X214844938Y-75977165D01*
X215319695Y-76071600D01*
X215368305Y-76071600D01*
X215843062Y-75977165D01*
X216245542Y-75708237D01*
X216514470Y-75305757D01*
X216608905Y-74831000D01*
X216514470Y-74356243D01*
X216245542Y-73953763D01*
X215843062Y-73684835D01*
X215368305Y-73590400D01*
X215319695Y-73590400D01*
X214844938Y-73684835D01*
X214442458Y-73953763D01*
X214173530Y-74356243D01*
X214079095Y-74831000D01*
X209394000Y-74831000D01*
X209394000Y-72291000D01*
X214079095Y-72291000D01*
X214173530Y-72765757D01*
X214442458Y-73168237D01*
X214844938Y-73437165D01*
X215319695Y-73531600D01*
X215368305Y-73531600D01*
X215843062Y-73437165D01*
X216245542Y-73168237D01*
X216514470Y-72765757D01*
X216608905Y-72291000D01*
X216514470Y-71816243D01*
X216245542Y-71413763D01*
X215843062Y-71144835D01*
X215368305Y-71050400D01*
X215319695Y-71050400D01*
X214844938Y-71144835D01*
X214442458Y-71413763D01*
X214173530Y-71816243D01*
X214079095Y-72291000D01*
X209394000Y-72291000D01*
X209394000Y-72073000D01*
X197311430Y-72073000D01*
X196798000Y-72073000D01*
X196798000Y-70005000D01*
X196773230Y-69873320D01*
X196798000Y-69751000D01*
X196798000Y-64798000D01*
X196772217Y-64660977D01*
X196691237Y-64535129D01*
X196567674Y-64450702D01*
X196421000Y-64421000D01*
X168764158Y-64421000D01*
X165911683Y-61568525D01*
X203576953Y-61568525D01*
X203748167Y-61982894D01*
X204064920Y-62300201D01*
X204197000Y-62355045D01*
X204197000Y-62887356D01*
X204086440Y-62933039D01*
X203769133Y-63249792D01*
X203597196Y-63663862D01*
X203596805Y-64112211D01*
X203768019Y-64526580D01*
X204084772Y-64843887D01*
X204498842Y-65015824D01*
X204947191Y-65016215D01*
X205361560Y-64845001D01*
X205676772Y-64530339D01*
X205989772Y-64843887D01*
X206403842Y-65015824D01*
X206852191Y-65016215D01*
X207266560Y-64845001D01*
X207493979Y-64617979D01*
X207739667Y-64864096D01*
X208153737Y-65036033D01*
X208602086Y-65036424D01*
X209016455Y-64865210D01*
X209333762Y-64548457D01*
X209505699Y-64134387D01*
X209506090Y-63686038D01*
X209334876Y-63271669D01*
X209018123Y-62954362D01*
X208886000Y-62899500D01*
X208886000Y-62370664D01*
X208996560Y-62324981D01*
X209313867Y-62008228D01*
X209485804Y-61594158D01*
X209485940Y-61437191D01*
X211454805Y-61437191D01*
X211626019Y-61851560D01*
X211942772Y-62168867D01*
X212055000Y-62215468D01*
X212055000Y-64530336D01*
X211944440Y-64576019D01*
X211627133Y-64892772D01*
X211455196Y-65306842D01*
X211454805Y-65755191D01*
X211626019Y-66169560D01*
X211942772Y-66486867D01*
X212356842Y-66658804D01*
X212805191Y-66659195D01*
X213219560Y-66487981D01*
X213536867Y-66171228D01*
X213708804Y-65757158D01*
X213709195Y-65308809D01*
X213537981Y-64894440D01*
X213221228Y-64577133D01*
X213109000Y-64530532D01*
X213109000Y-62215664D01*
X213219560Y-62169981D01*
X213536867Y-61853228D01*
X213708804Y-61439158D01*
X213709195Y-60990809D01*
X213537981Y-60576440D01*
X213221228Y-60259133D01*
X212807158Y-60087196D01*
X212358809Y-60086805D01*
X211944440Y-60258019D01*
X211627133Y-60574772D01*
X211455196Y-60988842D01*
X211454805Y-61437191D01*
X209485940Y-61437191D01*
X209486195Y-61145809D01*
X209314981Y-60731440D01*
X208998228Y-60414133D01*
X208584158Y-60242196D01*
X208135809Y-60241805D01*
X207721440Y-60413019D01*
X207469839Y-60664181D01*
X207220228Y-60414133D01*
X206806158Y-60242196D01*
X206357809Y-60241805D01*
X205943440Y-60413019D01*
X205654160Y-60701794D01*
X205343376Y-60390467D01*
X204929306Y-60218530D01*
X204480957Y-60218139D01*
X204066588Y-60389353D01*
X203749281Y-60706106D01*
X203577344Y-61120176D01*
X203576953Y-61568525D01*
X165911683Y-61568525D01*
X161296153Y-56952995D01*
X178842788Y-56952995D01*
X179029194Y-57404131D01*
X179374053Y-57749593D01*
X179824864Y-57936786D01*
X180312995Y-57937212D01*
X180764131Y-57750806D01*
X181109593Y-57405947D01*
X181296786Y-56955136D01*
X181296787Y-56952995D01*
X181382788Y-56952995D01*
X181569194Y-57404131D01*
X181914053Y-57749593D01*
X182364864Y-57936786D01*
X182852995Y-57937212D01*
X183304131Y-57750806D01*
X183649593Y-57405947D01*
X183679470Y-57333995D01*
X196876788Y-57333995D01*
X197063194Y-57785131D01*
X197408053Y-58130593D01*
X197858864Y-58317786D01*
X198346995Y-58318212D01*
X198798131Y-58131806D01*
X199143593Y-57786947D01*
X199330786Y-57336136D01*
X199331212Y-56848005D01*
X199144806Y-56396869D01*
X198799947Y-56051407D01*
X198349136Y-55864214D01*
X197861005Y-55863788D01*
X197409869Y-56050194D01*
X197064407Y-56395053D01*
X196877214Y-56845864D01*
X196876788Y-57333995D01*
X183679470Y-57333995D01*
X183836786Y-56955136D01*
X183837212Y-56467005D01*
X183650806Y-56015869D01*
X183305947Y-55670407D01*
X182855136Y-55483214D01*
X182367005Y-55482788D01*
X181915869Y-55669194D01*
X181570407Y-56014053D01*
X181383214Y-56464864D01*
X181382788Y-56952995D01*
X181296787Y-56952995D01*
X181297212Y-56467005D01*
X181110806Y-56015869D01*
X180765947Y-55670407D01*
X180315136Y-55483214D01*
X179827005Y-55482788D01*
X179375869Y-55669194D01*
X179030407Y-56014053D01*
X178843214Y-56464864D01*
X178842788Y-56952995D01*
X161296153Y-56952995D01*
X161000579Y-56657421D01*
X160880674Y-56576702D01*
X160734000Y-56547000D01*
X156473930Y-56547000D01*
X156634131Y-56480806D01*
X156979593Y-56135947D01*
X157166786Y-55685136D01*
X157167212Y-55197005D01*
X156980806Y-54745869D01*
X156635947Y-54400407D01*
X156185136Y-54213214D01*
X155697005Y-54212788D01*
X155245869Y-54399194D01*
X154900407Y-54744053D01*
X154713214Y-55194864D01*
X154712788Y-55682995D01*
X154899194Y-56134131D01*
X155244053Y-56479593D01*
X155406387Y-56547000D01*
X153933930Y-56547000D01*
X154094131Y-56480806D01*
X154439593Y-56135947D01*
X154626786Y-55685136D01*
X154627212Y-55197005D01*
X154440806Y-54745869D01*
X154095947Y-54400407D01*
X153645136Y-54213214D01*
X153157005Y-54212788D01*
X152705869Y-54399194D01*
X152360407Y-54744053D01*
X152173214Y-55194864D01*
X152172788Y-55682995D01*
X152359194Y-56134131D01*
X152704053Y-56479593D01*
X152866387Y-56547000D01*
X145377000Y-56547000D01*
X145377000Y-52752995D01*
X178842788Y-52752995D01*
X179029194Y-53204131D01*
X179374053Y-53549593D01*
X179824864Y-53736786D01*
X180312995Y-53737212D01*
X180764131Y-53550806D01*
X181109593Y-53205947D01*
X181139470Y-53133995D01*
X196876788Y-53133995D01*
X197063194Y-53585131D01*
X197408053Y-53930593D01*
X197858864Y-54117786D01*
X198346995Y-54118212D01*
X198798131Y-53931806D01*
X199143593Y-53586947D01*
X199330786Y-53136136D01*
X199330787Y-53133995D01*
X199416788Y-53133995D01*
X199603194Y-53585131D01*
X199948053Y-53930593D01*
X200398864Y-54117786D01*
X200886995Y-54118212D01*
X201338131Y-53931806D01*
X201683593Y-53586947D01*
X201870786Y-53136136D01*
X201871212Y-52648005D01*
X201684806Y-52196869D01*
X201339947Y-51851407D01*
X200889136Y-51664214D01*
X200401005Y-51663788D01*
X199949869Y-51850194D01*
X199604407Y-52195053D01*
X199417214Y-52645864D01*
X199416788Y-53133995D01*
X199330787Y-53133995D01*
X199331212Y-52648005D01*
X199144806Y-52196869D01*
X198799947Y-51851407D01*
X198349136Y-51664214D01*
X197861005Y-51663788D01*
X197409869Y-51850194D01*
X197064407Y-52195053D01*
X196877214Y-52645864D01*
X196876788Y-53133995D01*
X181139470Y-53133995D01*
X181296786Y-52755136D01*
X181297212Y-52267005D01*
X181110806Y-51815869D01*
X180765947Y-51470407D01*
X180348325Y-51296995D01*
X215291788Y-51296995D01*
X215478194Y-51748131D01*
X215823053Y-52093593D01*
X216273864Y-52280786D01*
X216761995Y-52281212D01*
X217213131Y-52094806D01*
X217558593Y-51749947D01*
X217745786Y-51299136D01*
X217746212Y-50811005D01*
X217559806Y-50359869D01*
X217214947Y-50014407D01*
X216764136Y-49827214D01*
X216276005Y-49826788D01*
X215824869Y-50013194D01*
X215479407Y-50358053D01*
X215292214Y-50808864D01*
X215291788Y-51296995D01*
X180348325Y-51296995D01*
X180315136Y-51283214D01*
X179827005Y-51282788D01*
X179375869Y-51469194D01*
X179030407Y-51814053D01*
X178843214Y-52264864D01*
X178842788Y-52752995D01*
X145377000Y-52752995D01*
X145377000Y-51482995D01*
X152172788Y-51482995D01*
X152359194Y-51934131D01*
X152704053Y-52279593D01*
X153154864Y-52466786D01*
X153642995Y-52467212D01*
X154094131Y-52280806D01*
X154439593Y-51935947D01*
X154626786Y-51485136D01*
X154627212Y-50997005D01*
X154440806Y-50545869D01*
X154095947Y-50200407D01*
X153645136Y-50013214D01*
X153157005Y-50012788D01*
X152705869Y-50199194D01*
X152360407Y-50544053D01*
X152173214Y-50994864D01*
X152172788Y-51482995D01*
X145377000Y-51482995D01*
X145377000Y-47096995D01*
X212751788Y-47096995D01*
X212938194Y-47548131D01*
X213283053Y-47893593D01*
X213733864Y-48080786D01*
X214221995Y-48081212D01*
X214673131Y-47894806D01*
X215018593Y-47549947D01*
X215205786Y-47099136D01*
X215205787Y-47096995D01*
X215291788Y-47096995D01*
X215478194Y-47548131D01*
X215823053Y-47893593D01*
X216273864Y-48080786D01*
X216761995Y-48081212D01*
X217213131Y-47894806D01*
X217558593Y-47549947D01*
X217745786Y-47099136D01*
X217746212Y-46611005D01*
X217559806Y-46159869D01*
X217214947Y-45814407D01*
X216764136Y-45627214D01*
X216276005Y-45626788D01*
X215824869Y-45813194D01*
X215479407Y-46158053D01*
X215292214Y-46608864D01*
X215291788Y-47096995D01*
X215205787Y-47096995D01*
X215206212Y-46611005D01*
X215019806Y-46159869D01*
X214674947Y-45814407D01*
X214224136Y-45627214D01*
X213736005Y-45626788D01*
X213284869Y-45813194D01*
X212939407Y-46158053D01*
X212752214Y-46608864D01*
X212751788Y-47096995D01*
X145377000Y-47096995D01*
X145377000Y-45907372D01*
X146665927Y-44618445D01*
X170755813Y-44618445D01*
X171391649Y-45255392D01*
X172264980Y-45618031D01*
X173210609Y-45618857D01*
X173959718Y-45309331D01*
X174761931Y-45642439D01*
X175707560Y-45643265D01*
X176581523Y-45282150D01*
X177250767Y-44614073D01*
X177327201Y-44430000D01*
X178280744Y-44430000D01*
X178088520Y-44558440D01*
X177909340Y-44826602D01*
X177846420Y-45142920D01*
X177846420Y-45789080D01*
X177909340Y-46105398D01*
X178088520Y-46373560D01*
X178356682Y-46552740D01*
X178673000Y-46615660D01*
X178989318Y-46552740D01*
X179257480Y-46373560D01*
X179308000Y-46297951D01*
X179358520Y-46373560D01*
X179626682Y-46552740D01*
X179943000Y-46615660D01*
X180259318Y-46552740D01*
X180527480Y-46373560D01*
X180706660Y-46105398D01*
X180769580Y-45789080D01*
X180769580Y-45142920D01*
X180706660Y-44826602D01*
X180527480Y-44558440D01*
X180335256Y-44430000D01*
X191869744Y-44430000D01*
X191677520Y-44558440D01*
X191498340Y-44826602D01*
X191435420Y-45142920D01*
X191435420Y-45789080D01*
X191498340Y-46105398D01*
X191677520Y-46373560D01*
X191945682Y-46552740D01*
X192262000Y-46615660D01*
X192578318Y-46552740D01*
X192846480Y-46373560D01*
X192897000Y-46297951D01*
X192947520Y-46373560D01*
X193215682Y-46552740D01*
X193532000Y-46615660D01*
X193848318Y-46552740D01*
X194116480Y-46373560D01*
X194295660Y-46105398D01*
X194358580Y-45789080D01*
X194358580Y-45142920D01*
X194295660Y-44826602D01*
X194116480Y-44558440D01*
X193924256Y-44430000D01*
X196896842Y-44430000D01*
X197733421Y-45266579D01*
X197853326Y-45347298D01*
X198000000Y-45377000D01*
X198518470Y-45377000D01*
X198645111Y-45429586D01*
X199590740Y-45430412D01*
X199720007Y-45377000D01*
X200000000Y-45377000D01*
X200141862Y-45349291D01*
X200266579Y-45266579D01*
X200463268Y-45069890D01*
X200464703Y-45069297D01*
X200870000Y-44664707D01*
X200870000Y-45240000D01*
X200895783Y-45377023D01*
X200976763Y-45502871D01*
X201100326Y-45587298D01*
X201247000Y-45617000D01*
X203846323Y-45617000D01*
X204074111Y-45711586D01*
X205019740Y-45712412D01*
X205250654Y-45617000D01*
X223590304Y-45617000D01*
X223876801Y-45735964D01*
X224822430Y-45736790D01*
X225112343Y-45617000D01*
X226212472Y-45617000D01*
X226212472Y-54691472D01*
X226317290Y-55218427D01*
X226615786Y-55665158D01*
X227852012Y-56901384D01*
X227921005Y-70768876D01*
X227946783Y-70904023D01*
X228027763Y-71029871D01*
X228151326Y-71114298D01*
X228298000Y-71144000D01*
X239179750Y-71144000D01*
X237806725Y-71711323D01*
X236715156Y-72800988D01*
X236123674Y-74225434D01*
X236122328Y-75767800D01*
X236711323Y-77193275D01*
X237800988Y-78284844D01*
X239225434Y-78876326D01*
X240767800Y-78877672D01*
X242193275Y-78288677D01*
X243284844Y-77199012D01*
X243876326Y-75774566D01*
X243877672Y-74232200D01*
X243288677Y-72806725D01*
X242199012Y-71715156D01*
X240823516Y-71144000D01*
X244173000Y-71144000D01*
X244310023Y-71118217D01*
X244435871Y-71037237D01*
X244520298Y-70913674D01*
X244550000Y-70767000D01*
X244550000Y-57432000D01*
X244525226Y-57300339D01*
X244550000Y-57178000D01*
X244550000Y-35080000D01*
X244524217Y-34942977D01*
X244443237Y-34817129D01*
X244319674Y-34732702D01*
X244173000Y-34703000D01*
X234377000Y-34703000D01*
X234377000Y-30889000D01*
X234351149Y-30751803D01*
X234270106Y-30625995D01*
X234146502Y-30541630D01*
X233999814Y-30512000D01*
X154086448Y-30551526D01*
X154001889Y-30516414D01*
X153056260Y-30515588D01*
X152967944Y-30552079D01*
X151295773Y-30552906D01*
X151207889Y-30516414D01*
X150262260Y-30515588D01*
X150170596Y-30553463D01*
X130888814Y-30563000D01*
X130751977Y-30588783D01*
X130626129Y-30669763D01*
X130541702Y-30793326D01*
X130512000Y-30940000D01*
X130512000Y-56924000D01*
X130519980Y-56966411D01*
X130512000Y-57005609D01*
X130489000Y-79154609D01*
X130427000Y-79154609D01*
X130427000Y-30427000D01*
X244573000Y-30427000D01*
X244573000Y-79573000D01*
G36*
X233873000Y-34703000D02*
X179218764Y-34703000D01*
X178763666Y-34609581D01*
X178297524Y-34606327D01*
X177839627Y-34693676D01*
X177816549Y-34703000D01*
X176439231Y-34703000D01*
X176348630Y-34664915D01*
X175891997Y-34571181D01*
X175425855Y-34567927D01*
X174967958Y-34655276D01*
X174849837Y-34703000D01*
X148738696Y-34703000D01*
X148283666Y-34609595D01*
X147817524Y-34606341D01*
X147359627Y-34693690D01*
X147336584Y-34703000D01*
X146129000Y-34703000D01*
X145991977Y-34728783D01*
X145866129Y-34809763D01*
X145781702Y-34933326D01*
X145752000Y-35080000D01*
X145752000Y-36287750D01*
X145660384Y-36718768D01*
X145653876Y-37184877D01*
X145738025Y-37643372D01*
X145752000Y-37678669D01*
X145752000Y-38377166D01*
X145740102Y-38373483D01*
X145469725Y-38345065D01*
X145198978Y-38369705D01*
X144938173Y-38446464D01*
X144697244Y-38572418D01*
X144485369Y-38742771D01*
X144361929Y-38889881D01*
X144349691Y-38890007D01*
X144314363Y-38895399D01*
X144281936Y-38910420D01*
X144254978Y-38933881D01*
X144235623Y-38963922D01*
X144225404Y-38998167D01*
X144224000Y-39017000D01*
X144224000Y-39108587D01*
X144179644Y-39189270D01*
X144097440Y-39448410D01*
X144067136Y-39718582D01*
X144067000Y-39738031D01*
X144067000Y-40261969D01*
X144093529Y-40532537D01*
X144172107Y-40792800D01*
X144224000Y-40890396D01*
X144224000Y-42674842D01*
X141671421Y-45227421D01*
X141589917Y-45349199D01*
X141561005Y-45496031D01*
X141620964Y-56623205D01*
X131016000Y-56628931D01*
X131016000Y-41325989D01*
X131117904Y-41325989D01*
X131255156Y-42073817D01*
X131535048Y-42780743D01*
X131946919Y-43419842D01*
X132475081Y-43966770D01*
X133099416Y-44400694D01*
X133796144Y-44705087D01*
X134538727Y-44868354D01*
X135298879Y-44884277D01*
X136047647Y-44752249D01*
X136756510Y-44477299D01*
X137398469Y-44069900D01*
X137949070Y-43545569D01*
X138387343Y-42924278D01*
X138696592Y-42229693D01*
X138865040Y-41488268D01*
X138877166Y-40619841D01*
X138729486Y-39874002D01*
X138439751Y-39171052D01*
X138018997Y-38537766D01*
X137483250Y-37998266D01*
X136852917Y-37573101D01*
X136152007Y-37278466D01*
X135407218Y-37125582D01*
X134646917Y-37120274D01*
X133900066Y-37262744D01*
X133195110Y-37547564D01*
X132558903Y-37963887D01*
X132015675Y-38495854D01*
X131586120Y-39123204D01*
X131286599Y-39822040D01*
X131128520Y-40565744D01*
X131117904Y-41325989D01*
X131016000Y-41325989D01*
X131016000Y-31066937D01*
X233873000Y-31016063D01*
X233873000Y-34703000D01*
X233873000Y-34703000D01*
G37*
X233873000Y-34703000D02*
X179218764Y-34703000D01*
X178763666Y-34609581D01*
X178297524Y-34606327D01*
X177839627Y-34693676D01*
X177816549Y-34703000D01*
X176439231Y-34703000D01*
X176348630Y-34664915D01*
X175891997Y-34571181D01*
X175425855Y-34567927D01*
X174967958Y-34655276D01*
X174849837Y-34703000D01*
X148738696Y-34703000D01*
X148283666Y-34609595D01*
X147817524Y-34606341D01*
X147359627Y-34693690D01*
X147336584Y-34703000D01*
X146129000Y-34703000D01*
X145991977Y-34728783D01*
X145866129Y-34809763D01*
X145781702Y-34933326D01*
X145752000Y-35080000D01*
X145752000Y-36287750D01*
X145660384Y-36718768D01*
X145653876Y-37184877D01*
X145738025Y-37643372D01*
X145752000Y-37678669D01*
X145752000Y-38377166D01*
X145740102Y-38373483D01*
X145469725Y-38345065D01*
X145198978Y-38369705D01*
X144938173Y-38446464D01*
X144697244Y-38572418D01*
X144485369Y-38742771D01*
X144361929Y-38889881D01*
X144349691Y-38890007D01*
X144314363Y-38895399D01*
X144281936Y-38910420D01*
X144254978Y-38933881D01*
X144235623Y-38963922D01*
X144225404Y-38998167D01*
X144224000Y-39017000D01*
X144224000Y-39108587D01*
X144179644Y-39189270D01*
X144097440Y-39448410D01*
X144067136Y-39718582D01*
X144067000Y-39738031D01*
X144067000Y-40261969D01*
X144093529Y-40532537D01*
X144172107Y-40792800D01*
X144224000Y-40890396D01*
X144224000Y-42674842D01*
X141671421Y-45227421D01*
X141589917Y-45349199D01*
X141561005Y-45496031D01*
X141620964Y-56623205D01*
X131016000Y-56628931D01*
X131016000Y-41325989D01*
X131117904Y-41325989D01*
X131255156Y-42073817D01*
X131535048Y-42780743D01*
X131946919Y-43419842D01*
X132475081Y-43966770D01*
X133099416Y-44400694D01*
X133796144Y-44705087D01*
X134538727Y-44868354D01*
X135298879Y-44884277D01*
X136047647Y-44752249D01*
X136756510Y-44477299D01*
X137398469Y-44069900D01*
X137949070Y-43545569D01*
X138387343Y-42924278D01*
X138696592Y-42229693D01*
X138865040Y-41488268D01*
X138877166Y-40619841D01*
X138729486Y-39874002D01*
X138439751Y-39171052D01*
X138018997Y-38537766D01*
X137483250Y-37998266D01*
X136852917Y-37573101D01*
X136152007Y-37278466D01*
X135407218Y-37125582D01*
X134646917Y-37120274D01*
X133900066Y-37262744D01*
X133195110Y-37547564D01*
X132558903Y-37963887D01*
X132015675Y-38495854D01*
X131586120Y-39123204D01*
X131286599Y-39822040D01*
X131128520Y-40565744D01*
X131117904Y-41325989D01*
X131016000Y-41325989D01*
X131016000Y-31066937D01*
X233873000Y-31016063D01*
X233873000Y-34703000D01*
G36*
X170027000Y-40286267D02*
X170133036Y-40819345D01*
X170435000Y-41271267D01*
X170886922Y-41573231D01*
X171420000Y-41679267D01*
X171953078Y-41573231D01*
X172405000Y-41271267D01*
X172706964Y-40819345D01*
X172813000Y-40286267D01*
X172813000Y-40283000D01*
X175107000Y-40283000D01*
X175107000Y-40286267D01*
X175213036Y-40819345D01*
X175515000Y-41271267D01*
X175966922Y-41573231D01*
X176500000Y-41679267D01*
X177033078Y-41573231D01*
X177485000Y-41271267D01*
X177786964Y-40819345D01*
X177893000Y-40286267D01*
X177893000Y-40283000D01*
X195987000Y-40283000D01*
X195987000Y-40286267D01*
X196093036Y-40819345D01*
X196395000Y-41271267D01*
X196846922Y-41573231D01*
X197380000Y-41679267D01*
X197913078Y-41573231D01*
X198365000Y-41271267D01*
X198666964Y-40819345D01*
X198773000Y-40286267D01*
X198773000Y-40283000D01*
X200870000Y-40283000D01*
X200870000Y-43950394D01*
X199947394Y-44873000D01*
X198052606Y-44873000D01*
X197089803Y-43910197D01*
X197047789Y-43882334D01*
X197000000Y-43873000D01*
X146000000Y-43873000D01*
X145950590Y-43883006D01*
X145910197Y-43910197D01*
X144910197Y-44910197D01*
X144882334Y-44952211D01*
X144873000Y-45000000D01*
X144873000Y-70000000D01*
X144883006Y-70049410D01*
X144911447Y-70091035D01*
X144953841Y-70118315D01*
X144999988Y-70127000D01*
X196294000Y-70131988D01*
X196294000Y-79022012D01*
X130993132Y-79027988D01*
X130996517Y-75767800D01*
X131122328Y-75767800D01*
X131711323Y-77193275D01*
X132800988Y-78284844D01*
X134225434Y-78876326D01*
X135767800Y-78877672D01*
X137193275Y-78288677D01*
X138284844Y-77199012D01*
X138876326Y-75774566D01*
X138877672Y-74232200D01*
X138288677Y-72806725D01*
X137199012Y-71715156D01*
X135774566Y-71123674D01*
X134232200Y-71122328D01*
X132806725Y-71711323D01*
X131715156Y-72800988D01*
X131123674Y-74225434D01*
X131122328Y-75767800D01*
X130996517Y-75767800D01*
X131015868Y-57132932D01*
X142000069Y-57127000D01*
X142049473Y-57116967D01*
X142091082Y-57088504D01*
X142118339Y-57046095D01*
X142126998Y-56999316D01*
X142095635Y-51178836D01*
X142139065Y-51074244D01*
X142140932Y-48935141D01*
X142082786Y-48794417D01*
X142067366Y-45932617D01*
X142173948Y-45826220D01*
X142449863Y-45161743D01*
X145927606Y-41684000D01*
X151590000Y-41684000D01*
X151639410Y-41673994D01*
X151681035Y-41645553D01*
X151708315Y-41603159D01*
X151717000Y-41556742D01*
X151715839Y-40985656D01*
X151826964Y-40819345D01*
X151933000Y-40286267D01*
X151933000Y-40283000D01*
X170027000Y-40283000D01*
X170027000Y-40286267D01*
X170027000Y-40286267D01*
G37*
X170027000Y-40286267D02*
X170133036Y-40819345D01*
X170435000Y-41271267D01*
X170886922Y-41573231D01*
X171420000Y-41679267D01*
X171953078Y-41573231D01*
X172405000Y-41271267D01*
X172706964Y-40819345D01*
X172813000Y-40286267D01*
X172813000Y-40283000D01*
X175107000Y-40283000D01*
X175107000Y-40286267D01*
X175213036Y-40819345D01*
X175515000Y-41271267D01*
X175966922Y-41573231D01*
X176500000Y-41679267D01*
X177033078Y-41573231D01*
X177485000Y-41271267D01*
X177786964Y-40819345D01*
X177893000Y-40286267D01*
X177893000Y-40283000D01*
X195987000Y-40283000D01*
X195987000Y-40286267D01*
X196093036Y-40819345D01*
X196395000Y-41271267D01*
X196846922Y-41573231D01*
X197380000Y-41679267D01*
X197913078Y-41573231D01*
X198365000Y-41271267D01*
X198666964Y-40819345D01*
X198773000Y-40286267D01*
X198773000Y-40283000D01*
X200870000Y-40283000D01*
X200870000Y-43950394D01*
X199947394Y-44873000D01*
X198052606Y-44873000D01*
X197089803Y-43910197D01*
X197047789Y-43882334D01*
X197000000Y-43873000D01*
X146000000Y-43873000D01*
X145950590Y-43883006D01*
X145910197Y-43910197D01*
X144910197Y-44910197D01*
X144882334Y-44952211D01*
X144873000Y-45000000D01*
X144873000Y-70000000D01*
X144883006Y-70049410D01*
X144911447Y-70091035D01*
X144953841Y-70118315D01*
X144999988Y-70127000D01*
X196294000Y-70131988D01*
X196294000Y-79022012D01*
X130993132Y-79027988D01*
X130996517Y-75767800D01*
X131122328Y-75767800D01*
X131711323Y-77193275D01*
X132800988Y-78284844D01*
X134225434Y-78876326D01*
X135767800Y-78877672D01*
X137193275Y-78288677D01*
X138284844Y-77199012D01*
X138876326Y-75774566D01*
X138877672Y-74232200D01*
X138288677Y-72806725D01*
X137199012Y-71715156D01*
X135774566Y-71123674D01*
X134232200Y-71122328D01*
X132806725Y-71711323D01*
X131715156Y-72800988D01*
X131123674Y-74225434D01*
X131122328Y-75767800D01*
X130996517Y-75767800D01*
X131015868Y-57132932D01*
X142000069Y-57127000D01*
X142049473Y-57116967D01*
X142091082Y-57088504D01*
X142118339Y-57046095D01*
X142126998Y-56999316D01*
X142095635Y-51178836D01*
X142139065Y-51074244D01*
X142140932Y-48935141D01*
X142082786Y-48794417D01*
X142067366Y-45932617D01*
X142173948Y-45826220D01*
X142449863Y-45161743D01*
X145927606Y-41684000D01*
X151590000Y-41684000D01*
X151639410Y-41673994D01*
X151681035Y-41645553D01*
X151708315Y-41603159D01*
X151717000Y-41556742D01*
X151715839Y-40985656D01*
X151826964Y-40819345D01*
X151933000Y-40286267D01*
X151933000Y-40283000D01*
X170027000Y-40283000D01*
X170027000Y-40286267D01*
G36*
X150450192Y-35264699D02*
X150916243Y-35274461D01*
X151298837Y-35207000D01*
X152981763Y-35207000D01*
X153244192Y-35264699D01*
X153710243Y-35274461D01*
X154092837Y-35207000D01*
X227398273Y-35207000D01*
X227591913Y-35291599D01*
X228047192Y-35391699D01*
X228513243Y-35401461D01*
X228972315Y-35320515D01*
X229264973Y-35207000D01*
X244046000Y-35207000D01*
X244046000Y-57051000D01*
X235877997Y-57051000D01*
X230326000Y-47550916D01*
X230326000Y-41325989D01*
X236117904Y-41325989D01*
X236255156Y-42073817D01*
X236535048Y-42780743D01*
X236946919Y-43419842D01*
X237475081Y-43966770D01*
X238099416Y-44400694D01*
X238796144Y-44705087D01*
X239538727Y-44868354D01*
X240298879Y-44884277D01*
X241047647Y-44752249D01*
X241756510Y-44477299D01*
X242398469Y-44069900D01*
X242949070Y-43545569D01*
X243387343Y-42924278D01*
X243696592Y-42229693D01*
X243865040Y-41488268D01*
X243877166Y-40619841D01*
X243729486Y-39874002D01*
X243439751Y-39171052D01*
X243018997Y-38537766D01*
X242483250Y-37998266D01*
X241852917Y-37573101D01*
X241152007Y-37278466D01*
X240407218Y-37125582D01*
X239646917Y-37120274D01*
X238900066Y-37262744D01*
X238195110Y-37547564D01*
X237558903Y-37963887D01*
X237015675Y-38495854D01*
X236586120Y-39123204D01*
X236286599Y-39822040D01*
X236128520Y-40565744D01*
X236117904Y-41325989D01*
X230326000Y-41325989D01*
X230326000Y-40033000D01*
X230300217Y-39895977D01*
X230219237Y-39770129D01*
X230095674Y-39685702D01*
X229949000Y-39656000D01*
X229804957Y-39656000D01*
X229786471Y-39467463D01*
X229707893Y-39207200D01*
X229580259Y-38967157D01*
X229408432Y-38756476D01*
X229198956Y-38583182D01*
X228959809Y-38453876D01*
X228700102Y-38373483D01*
X228429725Y-38345065D01*
X228158978Y-38369705D01*
X227898173Y-38446464D01*
X227657244Y-38572418D01*
X227517310Y-38684929D01*
X227506217Y-38625977D01*
X227425237Y-38500129D01*
X227301674Y-38415702D01*
X227155000Y-38386000D01*
X226200538Y-38386000D01*
X226160102Y-38373483D01*
X225889725Y-38345065D01*
X225618978Y-38369705D01*
X225563612Y-38386000D01*
X224615000Y-38386000D01*
X224477977Y-38411783D01*
X224352129Y-38492763D01*
X224267702Y-38616326D01*
X224252107Y-38693335D01*
X224118956Y-38583182D01*
X223879809Y-38453876D01*
X223620102Y-38373483D01*
X223349725Y-38345065D01*
X223078978Y-38369705D01*
X222818173Y-38446464D01*
X222577244Y-38572418D01*
X222365369Y-38742771D01*
X222190617Y-38951032D01*
X222059644Y-39189270D01*
X221977440Y-39448410D01*
X221954156Y-39656000D01*
X208896158Y-39656000D01*
X207482579Y-38242421D01*
X207362674Y-38161702D01*
X207216000Y-38132000D01*
X201247000Y-38132000D01*
X201109977Y-38157783D01*
X200984129Y-38238763D01*
X200899702Y-38362326D01*
X200870000Y-38509000D01*
X200870000Y-38724682D01*
X200698956Y-38583182D01*
X200459809Y-38453876D01*
X200200102Y-38373483D01*
X199929725Y-38345065D01*
X199658978Y-38369705D01*
X199398173Y-38446464D01*
X199157244Y-38572418D01*
X198945369Y-38742771D01*
X198770617Y-38951032D01*
X198649158Y-39171964D01*
X198540259Y-38967157D01*
X198368432Y-38756476D01*
X198158956Y-38583182D01*
X197919809Y-38453876D01*
X197660102Y-38373483D01*
X197389725Y-38345065D01*
X197118978Y-38369705D01*
X196858173Y-38446464D01*
X196617244Y-38572418D01*
X196405369Y-38742771D01*
X196230617Y-38951032D01*
X196099644Y-39189270D01*
X196017440Y-39448410D01*
X195987136Y-39718582D01*
X195987000Y-39738031D01*
X195987000Y-39779000D01*
X175353000Y-39779000D01*
X175353000Y-39738031D01*
X175326471Y-39467463D01*
X175247893Y-39207200D01*
X175120259Y-38967157D01*
X174948432Y-38756476D01*
X174738956Y-38583182D01*
X174499809Y-38453876D01*
X174240102Y-38373483D01*
X173969725Y-38345065D01*
X173698978Y-38369705D01*
X173438173Y-38446464D01*
X173197244Y-38572418D01*
X172985369Y-38742771D01*
X172810617Y-38951032D01*
X172689158Y-39171964D01*
X172580259Y-38967157D01*
X172408432Y-38756476D01*
X172198956Y-38583182D01*
X171959809Y-38453876D01*
X171700102Y-38373483D01*
X171429725Y-38345065D01*
X171158978Y-38369705D01*
X170898173Y-38446464D01*
X170657244Y-38572418D01*
X170445369Y-38742771D01*
X170270617Y-38951032D01*
X170139644Y-39189270D01*
X170057440Y-39448410D01*
X170027136Y-39718582D01*
X170027000Y-39738031D01*
X170027000Y-39779000D01*
X151933000Y-39779000D01*
X151933000Y-39738031D01*
X151906471Y-39467463D01*
X151827893Y-39207200D01*
X151700259Y-38967157D01*
X151528432Y-38756476D01*
X151318956Y-38583182D01*
X151079809Y-38453876D01*
X150820102Y-38373483D01*
X150549725Y-38345065D01*
X150278978Y-38369705D01*
X150018173Y-38446464D01*
X149777244Y-38572418D01*
X149565369Y-38742771D01*
X149390617Y-38951032D01*
X149259644Y-39189270D01*
X149177440Y-39448410D01*
X149147136Y-39718582D01*
X149147000Y-39738031D01*
X149147000Y-40261969D01*
X149173529Y-40532537D01*
X149177000Y-40544034D01*
X149177000Y-41176000D01*
X146891000Y-41176000D01*
X146891000Y-39906000D01*
X146885972Y-39870619D01*
X146871286Y-39838039D01*
X146853000Y-39816583D01*
X146853000Y-39738031D01*
X146826471Y-39467463D01*
X146747893Y-39207200D01*
X146620259Y-38967157D01*
X146448432Y-38756476D01*
X146256000Y-38597282D01*
X146256000Y-35207000D01*
X150187763Y-35207000D01*
X150450192Y-35264699D01*
X150450192Y-35264699D01*
G37*
X150450192Y-35264699D02*
X150916243Y-35274461D01*
X151298837Y-35207000D01*
X152981763Y-35207000D01*
X153244192Y-35264699D01*
X153710243Y-35274461D01*
X154092837Y-35207000D01*
X227398273Y-35207000D01*
X227591913Y-35291599D01*
X228047192Y-35391699D01*
X228513243Y-35401461D01*
X228972315Y-35320515D01*
X229264973Y-35207000D01*
X244046000Y-35207000D01*
X244046000Y-57051000D01*
X235877997Y-57051000D01*
X230326000Y-47550916D01*
X230326000Y-41325989D01*
X236117904Y-41325989D01*
X236255156Y-42073817D01*
X236535048Y-42780743D01*
X236946919Y-43419842D01*
X237475081Y-43966770D01*
X238099416Y-44400694D01*
X238796144Y-44705087D01*
X239538727Y-44868354D01*
X240298879Y-44884277D01*
X241047647Y-44752249D01*
X241756510Y-44477299D01*
X242398469Y-44069900D01*
X242949070Y-43545569D01*
X243387343Y-42924278D01*
X243696592Y-42229693D01*
X243865040Y-41488268D01*
X243877166Y-40619841D01*
X243729486Y-39874002D01*
X243439751Y-39171052D01*
X243018997Y-38537766D01*
X242483250Y-37998266D01*
X241852917Y-37573101D01*
X241152007Y-37278466D01*
X240407218Y-37125582D01*
X239646917Y-37120274D01*
X238900066Y-37262744D01*
X238195110Y-37547564D01*
X237558903Y-37963887D01*
X237015675Y-38495854D01*
X236586120Y-39123204D01*
X236286599Y-39822040D01*
X236128520Y-40565744D01*
X236117904Y-41325989D01*
X230326000Y-41325989D01*
X230326000Y-40033000D01*
X230300217Y-39895977D01*
X230219237Y-39770129D01*
X230095674Y-39685702D01*
X229949000Y-39656000D01*
X229804957Y-39656000D01*
X229786471Y-39467463D01*
X229707893Y-39207200D01*
X229580259Y-38967157D01*
X229408432Y-38756476D01*
X229198956Y-38583182D01*
X228959809Y-38453876D01*
X228700102Y-38373483D01*
X228429725Y-38345065D01*
X228158978Y-38369705D01*
X227898173Y-38446464D01*
X227657244Y-38572418D01*
X227517310Y-38684929D01*
X227506217Y-38625977D01*
X227425237Y-38500129D01*
X227301674Y-38415702D01*
X227155000Y-38386000D01*
X226200538Y-38386000D01*
X226160102Y-38373483D01*
X225889725Y-38345065D01*
X225618978Y-38369705D01*
X225563612Y-38386000D01*
X224615000Y-38386000D01*
X224477977Y-38411783D01*
X224352129Y-38492763D01*
X224267702Y-38616326D01*
X224252107Y-38693335D01*
X224118956Y-38583182D01*
X223879809Y-38453876D01*
X223620102Y-38373483D01*
X223349725Y-38345065D01*
X223078978Y-38369705D01*
X222818173Y-38446464D01*
X222577244Y-38572418D01*
X222365369Y-38742771D01*
X222190617Y-38951032D01*
X222059644Y-39189270D01*
X221977440Y-39448410D01*
X221954156Y-39656000D01*
X208896158Y-39656000D01*
X207482579Y-38242421D01*
X207362674Y-38161702D01*
X207216000Y-38132000D01*
X201247000Y-38132000D01*
X201109977Y-38157783D01*
X200984129Y-38238763D01*
X200899702Y-38362326D01*
X200870000Y-38509000D01*
X200870000Y-38724682D01*
X200698956Y-38583182D01*
X200459809Y-38453876D01*
X200200102Y-38373483D01*
X199929725Y-38345065D01*
X199658978Y-38369705D01*
X199398173Y-38446464D01*
X199157244Y-38572418D01*
X198945369Y-38742771D01*
X198770617Y-38951032D01*
X198649158Y-39171964D01*
X198540259Y-38967157D01*
X198368432Y-38756476D01*
X198158956Y-38583182D01*
X197919809Y-38453876D01*
X197660102Y-38373483D01*
X197389725Y-38345065D01*
X197118978Y-38369705D01*
X196858173Y-38446464D01*
X196617244Y-38572418D01*
X196405369Y-38742771D01*
X196230617Y-38951032D01*
X196099644Y-39189270D01*
X196017440Y-39448410D01*
X195987136Y-39718582D01*
X195987000Y-39738031D01*
X195987000Y-39779000D01*
X175353000Y-39779000D01*
X175353000Y-39738031D01*
X175326471Y-39467463D01*
X175247893Y-39207200D01*
X175120259Y-38967157D01*
X174948432Y-38756476D01*
X174738956Y-38583182D01*
X174499809Y-38453876D01*
X174240102Y-38373483D01*
X173969725Y-38345065D01*
X173698978Y-38369705D01*
X173438173Y-38446464D01*
X173197244Y-38572418D01*
X172985369Y-38742771D01*
X172810617Y-38951032D01*
X172689158Y-39171964D01*
X172580259Y-38967157D01*
X172408432Y-38756476D01*
X172198956Y-38583182D01*
X171959809Y-38453876D01*
X171700102Y-38373483D01*
X171429725Y-38345065D01*
X171158978Y-38369705D01*
X170898173Y-38446464D01*
X170657244Y-38572418D01*
X170445369Y-38742771D01*
X170270617Y-38951032D01*
X170139644Y-39189270D01*
X170057440Y-39448410D01*
X170027136Y-39718582D01*
X170027000Y-39738031D01*
X170027000Y-39779000D01*
X151933000Y-39779000D01*
X151933000Y-39738031D01*
X151906471Y-39467463D01*
X151827893Y-39207200D01*
X151700259Y-38967157D01*
X151528432Y-38756476D01*
X151318956Y-38583182D01*
X151079809Y-38453876D01*
X150820102Y-38373483D01*
X150549725Y-38345065D01*
X150278978Y-38369705D01*
X150018173Y-38446464D01*
X149777244Y-38572418D01*
X149565369Y-38742771D01*
X149390617Y-38951032D01*
X149259644Y-39189270D01*
X149177440Y-39448410D01*
X149147136Y-39718582D01*
X149147000Y-39738031D01*
X149147000Y-40261969D01*
X149173529Y-40532537D01*
X149177000Y-40544034D01*
X149177000Y-41176000D01*
X146891000Y-41176000D01*
X146891000Y-39906000D01*
X146885972Y-39870619D01*
X146871286Y-39838039D01*
X146853000Y-39816583D01*
X146853000Y-39738031D01*
X146826471Y-39467463D01*
X146747893Y-39207200D01*
X146620259Y-38967157D01*
X146448432Y-38756476D01*
X146256000Y-38597282D01*
X146256000Y-35207000D01*
X150187763Y-35207000D01*
X150450192Y-35264699D01*
G36*
X168518197Y-64887803D02*
X168546771Y-64909266D01*
X168580193Y-64921918D01*
X168608000Y-64925000D01*
X196294000Y-64925000D01*
X196294000Y-69624000D01*
X155285207Y-69624000D01*
X146677535Y-69623163D01*
X145494000Y-68439628D01*
X145494000Y-64068619D01*
X145577667Y-63700359D01*
X145585102Y-63167923D01*
X145494559Y-62710647D01*
X145494000Y-62709291D01*
X145494000Y-57051000D01*
X160681394Y-57051000D01*
X168518197Y-64887803D01*
X168518197Y-64887803D01*
G37*
X168518197Y-64887803D02*
X168546771Y-64909266D01*
X168580193Y-64921918D01*
X168608000Y-64925000D01*
X196294000Y-64925000D01*
X196294000Y-69624000D01*
X155285207Y-69624000D01*
X146677535Y-69623163D01*
X145494000Y-68439628D01*
X145494000Y-64068619D01*
X145577667Y-63700359D01*
X145585102Y-63167923D01*
X145494559Y-62710647D01*
X145494000Y-62709291D01*
X145494000Y-57051000D01*
X160681394Y-57051000D01*
X168518197Y-64887803D01*
G36*
X208650197Y-40122803D02*
X208678771Y-40144266D01*
X208712193Y-40156918D01*
X208740000Y-40160000D01*
X221947000Y-40160000D01*
X221947000Y-40261969D01*
X221973529Y-40532537D01*
X222052107Y-40792800D01*
X222179741Y-41032843D01*
X222351568Y-41243524D01*
X222561044Y-41416818D01*
X222800191Y-41546124D01*
X223059898Y-41626517D01*
X223330275Y-41654935D01*
X223601022Y-41630295D01*
X223861827Y-41553536D01*
X224102756Y-41427582D01*
X224314631Y-41257229D01*
X224489383Y-41048968D01*
X224620356Y-40810730D01*
X224702560Y-40551590D01*
X224732864Y-40281418D01*
X224733000Y-40261969D01*
X224733000Y-40077005D01*
X224740395Y-40053127D01*
X224742000Y-40033000D01*
X224742000Y-38890000D01*
X227028000Y-38890000D01*
X227028000Y-39710879D01*
X227027136Y-39718582D01*
X227027000Y-39738031D01*
X227027000Y-40261969D01*
X227053529Y-40532537D01*
X227132107Y-40792800D01*
X227259741Y-41032843D01*
X227431568Y-41243524D01*
X227641044Y-41416818D01*
X227880191Y-41546124D01*
X228139898Y-41626517D01*
X228410275Y-41654935D01*
X228681022Y-41630295D01*
X228941827Y-41553536D01*
X229182756Y-41427582D01*
X229394631Y-41257229D01*
X229569383Y-41048968D01*
X229700356Y-40810730D01*
X229782560Y-40551590D01*
X229812864Y-40281418D01*
X229813000Y-40261969D01*
X229813000Y-40160000D01*
X229822000Y-40160000D01*
X229822000Y-47653000D01*
X229827028Y-47688381D01*
X229839352Y-47717080D01*
X235554352Y-57496080D01*
X235576545Y-57524090D01*
X235605663Y-57544809D01*
X235639401Y-57556595D01*
X235664000Y-57559000D01*
X244046000Y-57559000D01*
X244046000Y-70640000D01*
X228424369Y-70640000D01*
X228297998Y-45239368D01*
X228292794Y-45204012D01*
X228277947Y-45171506D01*
X228254630Y-45144423D01*
X228224692Y-45124908D01*
X228190503Y-45114506D01*
X228171000Y-45113000D01*
X201374000Y-45113000D01*
X201374000Y-43834759D01*
X201386391Y-43806928D01*
X201489667Y-43352359D01*
X201497102Y-42819923D01*
X201406559Y-42362647D01*
X201374000Y-42283653D01*
X201374000Y-38636000D01*
X207163394Y-38636000D01*
X208650197Y-40122803D01*
X208650197Y-40122803D01*
G37*
X208650197Y-40122803D02*
X208678771Y-40144266D01*
X208712193Y-40156918D01*
X208740000Y-40160000D01*
X221947000Y-40160000D01*
X221947000Y-40261969D01*
X221973529Y-40532537D01*
X222052107Y-40792800D01*
X222179741Y-41032843D01*
X222351568Y-41243524D01*
X222561044Y-41416818D01*
X222800191Y-41546124D01*
X223059898Y-41626517D01*
X223330275Y-41654935D01*
X223601022Y-41630295D01*
X223861827Y-41553536D01*
X224102756Y-41427582D01*
X224314631Y-41257229D01*
X224489383Y-41048968D01*
X224620356Y-40810730D01*
X224702560Y-40551590D01*
X224732864Y-40281418D01*
X224733000Y-40261969D01*
X224733000Y-40077005D01*
X224740395Y-40053127D01*
X224742000Y-40033000D01*
X224742000Y-38890000D01*
X227028000Y-38890000D01*
X227028000Y-39710879D01*
X227027136Y-39718582D01*
X227027000Y-39738031D01*
X227027000Y-40261969D01*
X227053529Y-40532537D01*
X227132107Y-40792800D01*
X227259741Y-41032843D01*
X227431568Y-41243524D01*
X227641044Y-41416818D01*
X227880191Y-41546124D01*
X228139898Y-41626517D01*
X228410275Y-41654935D01*
X228681022Y-41630295D01*
X228941827Y-41553536D01*
X229182756Y-41427582D01*
X229394631Y-41257229D01*
X229569383Y-41048968D01*
X229700356Y-40810730D01*
X229782560Y-40551590D01*
X229812864Y-40281418D01*
X229813000Y-40261969D01*
X229813000Y-40160000D01*
X229822000Y-40160000D01*
X229822000Y-47653000D01*
X229827028Y-47688381D01*
X229839352Y-47717080D01*
X235554352Y-57496080D01*
X235576545Y-57524090D01*
X235605663Y-57544809D01*
X235639401Y-57556595D01*
X235664000Y-57559000D01*
X244046000Y-57559000D01*
X244046000Y-70640000D01*
X228424369Y-70640000D01*
X228297998Y-45239368D01*
X228292794Y-45204012D01*
X228277947Y-45171506D01*
X228254630Y-45144423D01*
X228224692Y-45124908D01*
X228190503Y-45114506D01*
X228171000Y-45113000D01*
X201374000Y-45113000D01*
X201374000Y-43834759D01*
X201386391Y-43806928D01*
X201489667Y-43352359D01*
X201497102Y-42819923D01*
X201406559Y-42362647D01*
X201374000Y-42283653D01*
X201374000Y-38636000D01*
X207163394Y-38636000D01*
X208650197Y-40122803D01*
M02*
