G04 #@! TF.FileFunction,Paste,Top*
%FSLAX46Y46*%
G04 Gerber Fmt 4.6, Leading zero omitted, Abs format (unit mm)*
G04 Created by KiCad (PCBNEW 4.0.1-stable) date 31.08.2016 15:32:53*
%MOMM*%
G01*
G04 APERTURE LIST*
%ADD10C,0.100000*%
%ADD11R,0.800000X0.750000*%
%ADD12R,1.501140X2.700020*%
%ADD13R,1.700000X1.680000*%
%ADD14R,0.600000X1.550000*%
%ADD15R,0.900000X1.700000*%
%ADD16R,0.750000X0.800000*%
G04 APERTURE END LIST*
D10*
D11*
X121850000Y-114500000D03*
X123350000Y-114500000D03*
D12*
X125500000Y-108800000D03*
X120699400Y-108800000D03*
D11*
X122950000Y-106400000D03*
X124450000Y-106400000D03*
D12*
X120699400Y-112100000D03*
X125500000Y-112100000D03*
D11*
X118450000Y-115600000D03*
X119950000Y-115600000D03*
X129150000Y-114100000D03*
X130650000Y-114100000D03*
D13*
X118780000Y-112900000D03*
X115200000Y-112900000D03*
D11*
X127191697Y-112578421D03*
X128691697Y-112578421D03*
D14*
X132200000Y-112800000D03*
X133470000Y-112800000D03*
X134740000Y-112800000D03*
X136010000Y-112800000D03*
X136010000Y-107400000D03*
X134740000Y-107400000D03*
X133470000Y-107400000D03*
X132200000Y-107400000D03*
D13*
X115220000Y-108900000D03*
X118800000Y-108900000D03*
D15*
X118150000Y-105400000D03*
X115250000Y-105400000D03*
D11*
X119850000Y-103600000D03*
X121350000Y-103600000D03*
X115650000Y-101000000D03*
X117150000Y-101000000D03*
D15*
X118150000Y-103000000D03*
X115250000Y-103000000D03*
D11*
X121350000Y-105400000D03*
X119850000Y-105400000D03*
D15*
X130250000Y-106600000D03*
X127350000Y-106600000D03*
D16*
X130500000Y-110950000D03*
X130500000Y-112450000D03*
D15*
X130250000Y-109000000D03*
X127350000Y-109000000D03*
D11*
X135700000Y-105800000D03*
X134200000Y-105800000D03*
X127191697Y-110878421D03*
X128691697Y-110878421D03*
X110700000Y-105800000D03*
X109200000Y-105800000D03*
D15*
X105250000Y-106600000D03*
X102350000Y-106600000D03*
X105250000Y-109000000D03*
X102350000Y-109000000D03*
D14*
X107200000Y-112800000D03*
X108470000Y-112800000D03*
X109740000Y-112800000D03*
X111010000Y-112800000D03*
X111010000Y-107400000D03*
X109740000Y-107400000D03*
X108470000Y-107400000D03*
X107200000Y-107400000D03*
D11*
X93450000Y-92600000D03*
X94950000Y-92600000D03*
X90650000Y-101000000D03*
X92150000Y-101000000D03*
X104150000Y-114100000D03*
X105650000Y-114100000D03*
X102191697Y-110878421D03*
X103691697Y-110878421D03*
D16*
X105500000Y-110950000D03*
X105500000Y-112450000D03*
D11*
X102191697Y-112578421D03*
X103691697Y-112578421D03*
X93450000Y-115600000D03*
X94950000Y-115600000D03*
X96850000Y-114500000D03*
X98350000Y-114500000D03*
D12*
X95699400Y-112100000D03*
X100500000Y-112100000D03*
X100500000Y-108800000D03*
X95699400Y-108800000D03*
D11*
X94850000Y-103600000D03*
X96350000Y-103600000D03*
X97950000Y-106400000D03*
X99450000Y-106400000D03*
D13*
X93780000Y-112900000D03*
X90200000Y-112900000D03*
D11*
X96350000Y-105400000D03*
X94850000Y-105400000D03*
D13*
X90220000Y-108900000D03*
X93800000Y-108900000D03*
D15*
X93150000Y-105400000D03*
X90250000Y-105400000D03*
D11*
X85700000Y-105800000D03*
X84200000Y-105800000D03*
D14*
X82200000Y-112800000D03*
X83470000Y-112800000D03*
X84740000Y-112800000D03*
X86010000Y-112800000D03*
X86010000Y-107400000D03*
X84740000Y-107400000D03*
X83470000Y-107400000D03*
X82200000Y-107400000D03*
D15*
X93150000Y-103000000D03*
X90250000Y-103000000D03*
X80250000Y-106600000D03*
X77350000Y-106600000D03*
D11*
X71850000Y-114500000D03*
X73350000Y-114500000D03*
D13*
X68780000Y-112900000D03*
X65200000Y-112900000D03*
D11*
X68450000Y-115600000D03*
X69950000Y-115600000D03*
D15*
X68150000Y-103000000D03*
X65250000Y-103000000D03*
X68150000Y-105400000D03*
X65250000Y-105400000D03*
D11*
X71350000Y-105400000D03*
X69850000Y-105400000D03*
X69850000Y-103600000D03*
X71350000Y-103600000D03*
D13*
X65220000Y-108900000D03*
X68800000Y-108900000D03*
D11*
X72950000Y-106400000D03*
X74450000Y-106400000D03*
D12*
X75500000Y-108800000D03*
X70699400Y-108800000D03*
D11*
X79150000Y-114100000D03*
X80650000Y-114100000D03*
D12*
X70699400Y-112100000D03*
X75500000Y-112100000D03*
D16*
X80500000Y-110950000D03*
X80500000Y-112450000D03*
D11*
X77191697Y-110878421D03*
X78691697Y-110878421D03*
D15*
X80250000Y-109000000D03*
X77350000Y-109000000D03*
D11*
X77191697Y-112578421D03*
X78691697Y-112578421D03*
X65650000Y-101000000D03*
X67150000Y-101000000D03*
X68450000Y-92600000D03*
X69950000Y-92600000D03*
D13*
X90220000Y-85900000D03*
X93800000Y-85900000D03*
D12*
X100500000Y-85800000D03*
X95699400Y-85800000D03*
D13*
X93780000Y-89900000D03*
X90200000Y-89900000D03*
D11*
X96850000Y-91500000D03*
X98350000Y-91500000D03*
X97950000Y-83400000D03*
X99450000Y-83400000D03*
X96350000Y-82400000D03*
X94850000Y-82400000D03*
D12*
X95699400Y-89100000D03*
X100500000Y-89100000D03*
D11*
X94850000Y-80600000D03*
X96350000Y-80600000D03*
X90650000Y-78000000D03*
X92150000Y-78000000D03*
D15*
X93150000Y-80000000D03*
X90250000Y-80000000D03*
X93150000Y-82400000D03*
X90250000Y-82400000D03*
D11*
X79150000Y-91100000D03*
X80650000Y-91100000D03*
X77191697Y-89578421D03*
X78691697Y-89578421D03*
X77191697Y-87878421D03*
X78691697Y-87878421D03*
D16*
X80500000Y-87950000D03*
X80500000Y-89450000D03*
D11*
X71850000Y-91500000D03*
X73350000Y-91500000D03*
D13*
X68780000Y-89900000D03*
X65200000Y-89900000D03*
D12*
X70699400Y-89100000D03*
X75500000Y-89100000D03*
D13*
X65220000Y-85900000D03*
X68800000Y-85900000D03*
D11*
X72950000Y-83400000D03*
X74450000Y-83400000D03*
D12*
X75500000Y-85800000D03*
X70699400Y-85800000D03*
D11*
X71350000Y-82400000D03*
X69850000Y-82400000D03*
X69850000Y-80600000D03*
X71350000Y-80600000D03*
D15*
X80250000Y-83600000D03*
X77350000Y-83600000D03*
D11*
X85700000Y-82800000D03*
X84200000Y-82800000D03*
D15*
X80250000Y-86000000D03*
X77350000Y-86000000D03*
D14*
X82200000Y-89800000D03*
X83470000Y-89800000D03*
X84740000Y-89800000D03*
X86010000Y-89800000D03*
X86010000Y-84400000D03*
X84740000Y-84400000D03*
X83470000Y-84400000D03*
X82200000Y-84400000D03*
D15*
X68150000Y-82400000D03*
X65250000Y-82400000D03*
D11*
X65650000Y-78000000D03*
X67150000Y-78000000D03*
D15*
X68150000Y-80000000D03*
X65250000Y-80000000D03*
D11*
X110700000Y-82800000D03*
X109200000Y-82800000D03*
D15*
X105250000Y-83600000D03*
X102350000Y-83600000D03*
X105250000Y-86000000D03*
X102350000Y-86000000D03*
D11*
X102191697Y-89578421D03*
X103691697Y-89578421D03*
D16*
X105500000Y-87950000D03*
X105500000Y-89450000D03*
D14*
X107200000Y-89800000D03*
X108470000Y-89800000D03*
X109740000Y-89800000D03*
X111010000Y-89800000D03*
X111010000Y-84400000D03*
X109740000Y-84400000D03*
X108470000Y-84400000D03*
X107200000Y-84400000D03*
D11*
X102191697Y-87878421D03*
X103691697Y-87878421D03*
X104150000Y-91100000D03*
X105650000Y-91100000D03*
X121850000Y-91500000D03*
X123350000Y-91500000D03*
X122950000Y-83400000D03*
X124450000Y-83400000D03*
X121350000Y-82400000D03*
X119850000Y-82400000D03*
D15*
X118150000Y-82400000D03*
X115250000Y-82400000D03*
D12*
X120699400Y-89100000D03*
X125500000Y-89100000D03*
D13*
X118780000Y-89900000D03*
X115200000Y-89900000D03*
X115220000Y-85900000D03*
X118800000Y-85900000D03*
D12*
X125500000Y-85800000D03*
X120699400Y-85800000D03*
D11*
X127191697Y-87878421D03*
X128691697Y-87878421D03*
D15*
X130250000Y-86000000D03*
X127350000Y-86000000D03*
D16*
X130500000Y-87950000D03*
X130500000Y-89450000D03*
D15*
X130250000Y-83600000D03*
X127350000Y-83600000D03*
D11*
X127191697Y-89578421D03*
X128691697Y-89578421D03*
X115650000Y-78000000D03*
X117150000Y-78000000D03*
D15*
X118150000Y-80000000D03*
X115250000Y-80000000D03*
D11*
X119850000Y-80600000D03*
X121350000Y-80600000D03*
X135700000Y-82800000D03*
X134200000Y-82800000D03*
D14*
X132200000Y-89800000D03*
X133470000Y-89800000D03*
X134740000Y-89800000D03*
X136010000Y-89800000D03*
X136010000Y-84400000D03*
X134740000Y-84400000D03*
X133470000Y-84400000D03*
X132200000Y-84400000D03*
D11*
X129150000Y-91100000D03*
X130650000Y-91100000D03*
X118450000Y-92600000D03*
X119950000Y-92600000D03*
X43450000Y-115600000D03*
X44950000Y-115600000D03*
D12*
X45699400Y-112100000D03*
X50500000Y-112100000D03*
X50500000Y-108800000D03*
X45699400Y-108800000D03*
D11*
X46850000Y-114500000D03*
X48350000Y-114500000D03*
X60700000Y-105800000D03*
X59200000Y-105800000D03*
X47950000Y-106400000D03*
X49450000Y-106400000D03*
D13*
X40220000Y-108900000D03*
X43800000Y-108900000D03*
D15*
X43150000Y-105400000D03*
X40250000Y-105400000D03*
D13*
X43780000Y-112900000D03*
X40200000Y-112900000D03*
D11*
X54150000Y-114100000D03*
X55650000Y-114100000D03*
X44850000Y-103600000D03*
X46350000Y-103600000D03*
D15*
X43150000Y-103000000D03*
X40250000Y-103000000D03*
D11*
X40650000Y-101000000D03*
X42150000Y-101000000D03*
X46350000Y-105400000D03*
X44850000Y-105400000D03*
D16*
X55500000Y-110950000D03*
X55500000Y-112450000D03*
D11*
X52191697Y-112578421D03*
X53691697Y-112578421D03*
D15*
X55250000Y-106600000D03*
X52350000Y-106600000D03*
D14*
X57200000Y-112800000D03*
X58470000Y-112800000D03*
X59740000Y-112800000D03*
X61010000Y-112800000D03*
X61010000Y-107400000D03*
X59740000Y-107400000D03*
X58470000Y-107400000D03*
X57200000Y-107400000D03*
D15*
X55250000Y-109000000D03*
X52350000Y-109000000D03*
D11*
X52191697Y-110878421D03*
X53691697Y-110878421D03*
D14*
X57200000Y-89800000D03*
X58470000Y-89800000D03*
X59740000Y-89800000D03*
X61010000Y-89800000D03*
X61010000Y-84400000D03*
X59740000Y-84400000D03*
X58470000Y-84400000D03*
X57200000Y-84400000D03*
D15*
X55250000Y-86000000D03*
X52350000Y-86000000D03*
X55250000Y-83600000D03*
X52350000Y-83600000D03*
D11*
X60700000Y-82800000D03*
X59200000Y-82800000D03*
X54150000Y-91100000D03*
X55650000Y-91100000D03*
X52191697Y-87878421D03*
X53691697Y-87878421D03*
D16*
X55500000Y-87950000D03*
X55500000Y-89450000D03*
D11*
X52191697Y-89578421D03*
X53691697Y-89578421D03*
X47950000Y-83400000D03*
X49450000Y-83400000D03*
X46350000Y-82400000D03*
X44850000Y-82400000D03*
D12*
X50500000Y-85800000D03*
X45699400Y-85800000D03*
D11*
X44850000Y-80600000D03*
X46350000Y-80600000D03*
D15*
X43150000Y-80000000D03*
X40250000Y-80000000D03*
D11*
X40650000Y-78000000D03*
X42150000Y-78000000D03*
D15*
X43150000Y-82400000D03*
X40250000Y-82400000D03*
D12*
X45699400Y-89100000D03*
X50500000Y-89100000D03*
D13*
X43780000Y-89900000D03*
X40200000Y-89900000D03*
D11*
X46850000Y-91500000D03*
X48350000Y-91500000D03*
D13*
X40220000Y-85900000D03*
X43800000Y-85900000D03*
D11*
X43450000Y-92600000D03*
X44950000Y-92600000D03*
D13*
X115220000Y-62900000D03*
X118800000Y-62900000D03*
D11*
X121350000Y-59400000D03*
X119850000Y-59400000D03*
D15*
X118150000Y-57000000D03*
X115250000Y-57000000D03*
D11*
X119850000Y-57600000D03*
X121350000Y-57600000D03*
D15*
X118150000Y-59400000D03*
X115250000Y-59400000D03*
D11*
X118450000Y-46600000D03*
X119950000Y-46600000D03*
X115650000Y-55000000D03*
X117150000Y-55000000D03*
X121850000Y-45500000D03*
X123350000Y-45500000D03*
D12*
X120699400Y-66100000D03*
X125500000Y-66100000D03*
D11*
X122950000Y-60400000D03*
X124450000Y-60400000D03*
D12*
X125500000Y-62800000D03*
X120699400Y-62800000D03*
D11*
X118450000Y-69600000D03*
X119950000Y-69600000D03*
X129150000Y-68100000D03*
X130650000Y-68100000D03*
X121850000Y-68500000D03*
X123350000Y-68500000D03*
D13*
X118780000Y-66900000D03*
X115200000Y-66900000D03*
D11*
X127191697Y-66578421D03*
X128691697Y-66578421D03*
X127191697Y-64878421D03*
X128691697Y-64878421D03*
D15*
X130250000Y-60600000D03*
X127350000Y-60600000D03*
D16*
X130500000Y-64950000D03*
X130500000Y-66450000D03*
D11*
X135700000Y-59800000D03*
X134200000Y-59800000D03*
D15*
X130250000Y-63000000D03*
X127350000Y-63000000D03*
D14*
X132200000Y-66800000D03*
X133470000Y-66800000D03*
X134740000Y-66800000D03*
X136010000Y-66800000D03*
X136010000Y-61400000D03*
X134740000Y-61400000D03*
X133470000Y-61400000D03*
X132200000Y-61400000D03*
D11*
X97950000Y-60400000D03*
X99450000Y-60400000D03*
X104150000Y-68100000D03*
X105650000Y-68100000D03*
X96850000Y-68500000D03*
X98350000Y-68500000D03*
D12*
X100500000Y-62800000D03*
X95699400Y-62800000D03*
D13*
X93780000Y-66900000D03*
X90200000Y-66900000D03*
D11*
X93450000Y-69600000D03*
X94950000Y-69600000D03*
D12*
X95699400Y-66100000D03*
X100500000Y-66100000D03*
D13*
X90220000Y-62900000D03*
X93800000Y-62900000D03*
D16*
X105500000Y-64950000D03*
X105500000Y-66450000D03*
D11*
X102191697Y-64878421D03*
X103691697Y-64878421D03*
X102191697Y-66578421D03*
X103691697Y-66578421D03*
D15*
X105250000Y-63000000D03*
X102350000Y-63000000D03*
D11*
X96350000Y-59400000D03*
X94850000Y-59400000D03*
D15*
X93150000Y-59400000D03*
X90250000Y-59400000D03*
D11*
X94850000Y-57600000D03*
X96350000Y-57600000D03*
D15*
X93150000Y-57000000D03*
X90250000Y-57000000D03*
D11*
X90650000Y-55000000D03*
X92150000Y-55000000D03*
X110700000Y-59800000D03*
X109200000Y-59800000D03*
D15*
X105250000Y-60600000D03*
X102350000Y-60600000D03*
D14*
X107200000Y-66800000D03*
X108470000Y-66800000D03*
X109740000Y-66800000D03*
X111010000Y-66800000D03*
X111010000Y-61400000D03*
X109740000Y-61400000D03*
X108470000Y-61400000D03*
X107200000Y-61400000D03*
D11*
X129150000Y-45100000D03*
X130650000Y-45100000D03*
D14*
X132200000Y-43800000D03*
X133470000Y-43800000D03*
X134740000Y-43800000D03*
X136010000Y-43800000D03*
X136010000Y-38400000D03*
X134740000Y-38400000D03*
X133470000Y-38400000D03*
X132200000Y-38400000D03*
D11*
X127191697Y-43578421D03*
X128691697Y-43578421D03*
X127191697Y-41878421D03*
X128691697Y-41878421D03*
D16*
X130500000Y-41950000D03*
X130500000Y-43450000D03*
D11*
X135700000Y-36800000D03*
X134200000Y-36800000D03*
D15*
X130250000Y-37600000D03*
X127350000Y-37600000D03*
X130250000Y-40000000D03*
X127350000Y-40000000D03*
D13*
X115220000Y-39900000D03*
X118800000Y-39900000D03*
D12*
X120699400Y-43100000D03*
X125500000Y-43100000D03*
D11*
X119850000Y-34600000D03*
X121350000Y-34600000D03*
X121350000Y-36400000D03*
X119850000Y-36400000D03*
X122950000Y-37400000D03*
X124450000Y-37400000D03*
D13*
X118780000Y-43900000D03*
X115200000Y-43900000D03*
D12*
X125500000Y-39800000D03*
X120699400Y-39800000D03*
D15*
X118150000Y-34000000D03*
X115250000Y-34000000D03*
X118150000Y-36400000D03*
X115250000Y-36400000D03*
D11*
X115650000Y-32000000D03*
X117150000Y-32000000D03*
X102191697Y-43578421D03*
X103691697Y-43578421D03*
X102191697Y-41878421D03*
X103691697Y-41878421D03*
D16*
X105500000Y-41950000D03*
X105500000Y-43450000D03*
D11*
X104150000Y-45100000D03*
X105650000Y-45100000D03*
X110700000Y-36800000D03*
X109200000Y-36800000D03*
X94850000Y-34600000D03*
X96350000Y-34600000D03*
X96350000Y-36400000D03*
X94850000Y-36400000D03*
D15*
X105250000Y-40000000D03*
X102350000Y-40000000D03*
D11*
X97950000Y-37400000D03*
X99450000Y-37400000D03*
D15*
X105250000Y-37600000D03*
X102350000Y-37600000D03*
D12*
X100500000Y-39800000D03*
X95699400Y-39800000D03*
D15*
X93150000Y-36400000D03*
X90250000Y-36400000D03*
X93150000Y-34000000D03*
X90250000Y-34000000D03*
D11*
X90650000Y-32000000D03*
X92150000Y-32000000D03*
D14*
X107200000Y-43800000D03*
X108470000Y-43800000D03*
X109740000Y-43800000D03*
X111010000Y-43800000D03*
X111010000Y-38400000D03*
X109740000Y-38400000D03*
X108470000Y-38400000D03*
X107200000Y-38400000D03*
D11*
X93450000Y-46600000D03*
X94950000Y-46600000D03*
D13*
X93780000Y-43900000D03*
X90200000Y-43900000D03*
D11*
X96850000Y-45500000D03*
X98350000Y-45500000D03*
D12*
X95699400Y-43100000D03*
X100500000Y-43100000D03*
D13*
X90220000Y-39900000D03*
X93800000Y-39900000D03*
D11*
X77191697Y-41878421D03*
X78691697Y-41878421D03*
X77191697Y-43578421D03*
X78691697Y-43578421D03*
D16*
X80500000Y-41950000D03*
X80500000Y-43450000D03*
D14*
X82200000Y-43800000D03*
X83470000Y-43800000D03*
X84740000Y-43800000D03*
X86010000Y-43800000D03*
X86010000Y-38400000D03*
X84740000Y-38400000D03*
X83470000Y-38400000D03*
X82200000Y-38400000D03*
D11*
X79150000Y-45100000D03*
X80650000Y-45100000D03*
D15*
X80250000Y-37600000D03*
X77350000Y-37600000D03*
D11*
X72950000Y-37400000D03*
X74450000Y-37400000D03*
X85700000Y-36800000D03*
X84200000Y-36800000D03*
D15*
X80250000Y-40000000D03*
X77350000Y-40000000D03*
D12*
X75500000Y-39800000D03*
X70699400Y-39800000D03*
D15*
X68150000Y-36400000D03*
X65250000Y-36400000D03*
D11*
X65650000Y-32000000D03*
X67150000Y-32000000D03*
X69850000Y-34600000D03*
X71350000Y-34600000D03*
D15*
X68150000Y-34000000D03*
X65250000Y-34000000D03*
D11*
X71350000Y-36400000D03*
X69850000Y-36400000D03*
D12*
X70699400Y-43100000D03*
X75500000Y-43100000D03*
D13*
X65220000Y-39900000D03*
X68800000Y-39900000D03*
D11*
X68450000Y-46600000D03*
X69950000Y-46600000D03*
X71850000Y-45500000D03*
X73350000Y-45500000D03*
D13*
X68780000Y-43900000D03*
X65200000Y-43900000D03*
D11*
X60700000Y-36800000D03*
X59200000Y-36800000D03*
D15*
X55250000Y-37600000D03*
X52350000Y-37600000D03*
D11*
X47950000Y-37400000D03*
X49450000Y-37400000D03*
X54150000Y-45100000D03*
X55650000Y-45100000D03*
D14*
X57200000Y-43800000D03*
X58470000Y-43800000D03*
X59740000Y-43800000D03*
X61010000Y-43800000D03*
X61010000Y-38400000D03*
X59740000Y-38400000D03*
X58470000Y-38400000D03*
X57200000Y-38400000D03*
D11*
X40650000Y-32000000D03*
X42150000Y-32000000D03*
D15*
X43150000Y-34000000D03*
X40250000Y-34000000D03*
D11*
X44850000Y-34600000D03*
X46350000Y-34600000D03*
D15*
X43150000Y-36400000D03*
X40250000Y-36400000D03*
D11*
X46350000Y-36400000D03*
X44850000Y-36400000D03*
X52191697Y-41878421D03*
X53691697Y-41878421D03*
X52191697Y-43578421D03*
X53691697Y-43578421D03*
D16*
X55500000Y-41950000D03*
X55500000Y-43450000D03*
D12*
X50500000Y-39800000D03*
X45699400Y-39800000D03*
D15*
X55250000Y-40000000D03*
X52350000Y-40000000D03*
D13*
X40220000Y-39900000D03*
X43800000Y-39900000D03*
X43780000Y-43900000D03*
X40200000Y-43900000D03*
D11*
X43450000Y-46600000D03*
X44950000Y-46600000D03*
X46850000Y-45500000D03*
X48350000Y-45500000D03*
D12*
X45699400Y-43100000D03*
X50500000Y-43100000D03*
D11*
X68450000Y-69600000D03*
X69950000Y-69600000D03*
D12*
X75500000Y-62800000D03*
X70699400Y-62800000D03*
X70699400Y-66100000D03*
X75500000Y-66100000D03*
D11*
X71850000Y-68500000D03*
X73350000Y-68500000D03*
D13*
X65220000Y-62900000D03*
X68800000Y-62900000D03*
X68780000Y-66900000D03*
X65200000Y-66900000D03*
D11*
X79150000Y-68100000D03*
X80650000Y-68100000D03*
X65650000Y-55000000D03*
X67150000Y-55000000D03*
D15*
X68150000Y-57000000D03*
X65250000Y-57000000D03*
X68150000Y-59400000D03*
X65250000Y-59400000D03*
D11*
X69850000Y-57600000D03*
X71350000Y-57600000D03*
X71350000Y-59400000D03*
X69850000Y-59400000D03*
X85700000Y-59800000D03*
X84200000Y-59800000D03*
D15*
X80250000Y-60600000D03*
X77350000Y-60600000D03*
D11*
X72950000Y-60400000D03*
X74450000Y-60400000D03*
X77191697Y-64878421D03*
X78691697Y-64878421D03*
D16*
X80500000Y-64950000D03*
X80500000Y-66450000D03*
D11*
X77191697Y-66578421D03*
X78691697Y-66578421D03*
D15*
X80250000Y-63000000D03*
X77350000Y-63000000D03*
D14*
X82200000Y-66800000D03*
X83470000Y-66800000D03*
X84740000Y-66800000D03*
X86010000Y-66800000D03*
X86010000Y-61400000D03*
X84740000Y-61400000D03*
X83470000Y-61400000D03*
X82200000Y-61400000D03*
X57200000Y-66800000D03*
X58470000Y-66800000D03*
X59740000Y-66800000D03*
X61010000Y-66800000D03*
X61010000Y-61400000D03*
X59740000Y-61400000D03*
X58470000Y-61400000D03*
X57200000Y-61400000D03*
D11*
X52191697Y-66578421D03*
X53691697Y-66578421D03*
X46350000Y-59400000D03*
X44850000Y-59400000D03*
X52191697Y-64878421D03*
X53691697Y-64878421D03*
X44850000Y-57600000D03*
X46350000Y-57600000D03*
X46850000Y-68500000D03*
X48350000Y-68500000D03*
X47950000Y-60400000D03*
X49450000Y-60400000D03*
D16*
X55500000Y-64950000D03*
X55500000Y-66450000D03*
D11*
X60700000Y-59800000D03*
X59200000Y-59800000D03*
D13*
X43780000Y-66900000D03*
X40200000Y-66900000D03*
X40220000Y-62900000D03*
X43800000Y-62900000D03*
D12*
X45699400Y-66100000D03*
X50500000Y-66100000D03*
X50500000Y-62800000D03*
X45699400Y-62800000D03*
D15*
X43150000Y-57000000D03*
X40250000Y-57000000D03*
X43150000Y-59400000D03*
X40250000Y-59400000D03*
X55250000Y-63000000D03*
X52350000Y-63000000D03*
X55250000Y-60600000D03*
X52350000Y-60600000D03*
D11*
X54150000Y-68100000D03*
X55650000Y-68100000D03*
X40650000Y-55000000D03*
X42150000Y-55000000D03*
X43450000Y-69600000D03*
X44950000Y-69600000D03*
M02*
