G04 #@! TF.FileFunction,Legend,Bot*
%FSLAX46Y46*%
G04 Gerber Fmt 4.6, Leading zero omitted, Abs format (unit mm)*
G04 Created by KiCad (PCBNEW 4.0.1-stable) date 31.08.2016 15:32:53*
%MOMM*%
G01*
G04 APERTURE LIST*
%ADD10C,0.100000*%
%ADD11R,2.060000X2.060000*%
%ADD12O,2.060000X2.060000*%
%ADD13C,1.960000*%
%ADD14C,0.200000*%
G04 APERTURE END LIST*
D10*
%LPC*%
D11*
X115440000Y-115800000D03*
D12*
X125600000Y-115800000D03*
X128140000Y-115800000D03*
X130680000Y-115800000D03*
X133220000Y-115800000D03*
X135760000Y-115800000D03*
D13*
X127100000Y-99260000D03*
X127100000Y-101800000D03*
X131300000Y-99260000D03*
X131300000Y-101800000D03*
D11*
X90440000Y-92800000D03*
D12*
X100600000Y-92800000D03*
X103140000Y-92800000D03*
X105680000Y-92800000D03*
X108220000Y-92800000D03*
X110760000Y-92800000D03*
D13*
X102100000Y-99260000D03*
X102100000Y-101800000D03*
X106300000Y-99260000D03*
X106300000Y-101800000D03*
D11*
X90440000Y-115800000D03*
D12*
X100600000Y-115800000D03*
X103140000Y-115800000D03*
X105680000Y-115800000D03*
X108220000Y-115800000D03*
X110760000Y-115800000D03*
D13*
X77100000Y-99260000D03*
X77100000Y-101800000D03*
X81300000Y-99260000D03*
X81300000Y-101800000D03*
D11*
X65440000Y-115800000D03*
D12*
X75600000Y-115800000D03*
X78140000Y-115800000D03*
X80680000Y-115800000D03*
X83220000Y-115800000D03*
X85760000Y-115800000D03*
D11*
X65440000Y-92800000D03*
D12*
X75600000Y-92800000D03*
X78140000Y-92800000D03*
X80680000Y-92800000D03*
X83220000Y-92800000D03*
X85760000Y-92800000D03*
D13*
X77100000Y-76260000D03*
X77100000Y-78800000D03*
X81300000Y-76260000D03*
X81300000Y-78800000D03*
X102100000Y-76260000D03*
X102100000Y-78800000D03*
X106300000Y-76260000D03*
X106300000Y-78800000D03*
D11*
X115440000Y-92800000D03*
D12*
X125600000Y-92800000D03*
X128140000Y-92800000D03*
X130680000Y-92800000D03*
X133220000Y-92800000D03*
X135760000Y-92800000D03*
D13*
X127100000Y-76260000D03*
X127100000Y-78800000D03*
X131300000Y-76260000D03*
X131300000Y-78800000D03*
D11*
X40440000Y-115800000D03*
D12*
X50600000Y-115800000D03*
X53140000Y-115800000D03*
X55680000Y-115800000D03*
X58220000Y-115800000D03*
X60760000Y-115800000D03*
D13*
X52100000Y-99260000D03*
X52100000Y-101800000D03*
X56300000Y-99260000D03*
X56300000Y-101800000D03*
X52100000Y-76260000D03*
X52100000Y-78800000D03*
X56300000Y-76260000D03*
X56300000Y-78800000D03*
D11*
X40440000Y-92800000D03*
D12*
X50600000Y-92800000D03*
X53140000Y-92800000D03*
X55680000Y-92800000D03*
X58220000Y-92800000D03*
X60760000Y-92800000D03*
D13*
X127100000Y-53260000D03*
X127100000Y-55800000D03*
X131300000Y-53260000D03*
X131300000Y-55800000D03*
D11*
X115440000Y-46800000D03*
D12*
X125600000Y-46800000D03*
X128140000Y-46800000D03*
X130680000Y-46800000D03*
X133220000Y-46800000D03*
X135760000Y-46800000D03*
D11*
X115440000Y-69800000D03*
D12*
X125600000Y-69800000D03*
X128140000Y-69800000D03*
X130680000Y-69800000D03*
X133220000Y-69800000D03*
X135760000Y-69800000D03*
D11*
X90440000Y-69800000D03*
D12*
X100600000Y-69800000D03*
X103140000Y-69800000D03*
X105680000Y-69800000D03*
X108220000Y-69800000D03*
X110760000Y-69800000D03*
D13*
X102100000Y-53260000D03*
X102100000Y-55800000D03*
X106300000Y-53260000D03*
X106300000Y-55800000D03*
X127100000Y-30260000D03*
X127100000Y-32800000D03*
X131300000Y-30260000D03*
X131300000Y-32800000D03*
X102100000Y-30260000D03*
X102100000Y-32800000D03*
X106300000Y-30260000D03*
X106300000Y-32800000D03*
D11*
X90440000Y-46800000D03*
D12*
X100600000Y-46800000D03*
X103140000Y-46800000D03*
X105680000Y-46800000D03*
X108220000Y-46800000D03*
X110760000Y-46800000D03*
D13*
X77100000Y-30260000D03*
X77100000Y-32800000D03*
X81300000Y-30260000D03*
X81300000Y-32800000D03*
D11*
X65440000Y-46800000D03*
D12*
X75600000Y-46800000D03*
X78140000Y-46800000D03*
X80680000Y-46800000D03*
X83220000Y-46800000D03*
X85760000Y-46800000D03*
D13*
X52100000Y-30260000D03*
X52100000Y-32800000D03*
X56300000Y-30260000D03*
X56300000Y-32800000D03*
D11*
X40440000Y-46800000D03*
D12*
X50600000Y-46800000D03*
X53140000Y-46800000D03*
X55680000Y-46800000D03*
X58220000Y-46800000D03*
X60760000Y-46800000D03*
D11*
X65440000Y-69800000D03*
D12*
X75600000Y-69800000D03*
X78140000Y-69800000D03*
X80680000Y-69800000D03*
X83220000Y-69800000D03*
X85760000Y-69800000D03*
D13*
X77100000Y-53260000D03*
X77100000Y-55800000D03*
X81300000Y-53260000D03*
X81300000Y-55800000D03*
X52100000Y-53260000D03*
X52100000Y-55800000D03*
X56300000Y-53260000D03*
X56300000Y-55800000D03*
D11*
X40440000Y-69800000D03*
D12*
X50600000Y-69800000D03*
X53140000Y-69800000D03*
X55680000Y-69800000D03*
X58220000Y-69800000D03*
X60760000Y-69800000D03*
D14*
G36*
X53930000Y-71900000D02*
X52345000Y-71900000D01*
X52345000Y-69900000D01*
X53930000Y-69900000D01*
X53930000Y-71900000D01*
X53930000Y-71900000D01*
G37*
X53930000Y-71900000D02*
X52345000Y-71900000D01*
X52345000Y-69900000D01*
X53930000Y-69900000D01*
X53930000Y-71900000D01*
G36*
X51400000Y-71900000D02*
X49800000Y-71900000D01*
X49800000Y-69900000D01*
X51400000Y-69900000D01*
X51400000Y-71900000D01*
X51400000Y-71900000D01*
G37*
X51400000Y-71900000D02*
X49800000Y-71900000D01*
X49800000Y-69900000D01*
X51400000Y-69900000D01*
X51400000Y-71900000D01*
G36*
X41240000Y-71900000D02*
X39640000Y-71900000D01*
X39640000Y-69900000D01*
X41240000Y-69900000D01*
X41240000Y-71900000D01*
X41240000Y-71900000D01*
G37*
X41240000Y-71900000D02*
X39640000Y-71900000D01*
X39640000Y-69900000D01*
X41240000Y-69900000D01*
X41240000Y-71900000D01*
G36*
X56480000Y-71900000D02*
X54870000Y-71900000D01*
X54870000Y-69900000D01*
X56480000Y-69900000D01*
X56480000Y-71900000D01*
X56480000Y-71900000D01*
G37*
X56480000Y-71900000D02*
X54870000Y-71900000D01*
X54870000Y-69900000D01*
X56480000Y-69900000D01*
X56480000Y-71900000D01*
G36*
X59030000Y-71900000D02*
X57420000Y-71900000D01*
X57420000Y-69870000D01*
X59030000Y-69870000D01*
X59030000Y-71900000D01*
X59030000Y-71900000D01*
G37*
X59030000Y-71900000D02*
X57420000Y-71900000D01*
X57420000Y-69870000D01*
X59030000Y-69870000D01*
X59030000Y-71900000D01*
G36*
X61570000Y-71900000D02*
X59959190Y-71900000D01*
X59959190Y-69900000D01*
X61570000Y-69900000D01*
X61570000Y-71900000D01*
X61570000Y-71900000D01*
G37*
X61570000Y-71900000D02*
X59959190Y-71900000D01*
X59959190Y-69900000D01*
X61570000Y-69900000D01*
X61570000Y-71900000D01*
G36*
X78930000Y-71900000D02*
X77345000Y-71900000D01*
X77345000Y-69900000D01*
X78930000Y-69900000D01*
X78930000Y-71900000D01*
X78930000Y-71900000D01*
G37*
X78930000Y-71900000D02*
X77345000Y-71900000D01*
X77345000Y-69900000D01*
X78930000Y-69900000D01*
X78930000Y-71900000D01*
G36*
X66240000Y-71900000D02*
X64640000Y-71900000D01*
X64640000Y-69900000D01*
X66240000Y-69900000D01*
X66240000Y-71900000D01*
X66240000Y-71900000D01*
G37*
X66240000Y-71900000D02*
X64640000Y-71900000D01*
X64640000Y-69900000D01*
X66240000Y-69900000D01*
X66240000Y-71900000D01*
G36*
X81480000Y-71900000D02*
X79870000Y-71900000D01*
X79870000Y-69900000D01*
X81480000Y-69900000D01*
X81480000Y-71900000D01*
X81480000Y-71900000D01*
G37*
X81480000Y-71900000D02*
X79870000Y-71900000D01*
X79870000Y-69900000D01*
X81480000Y-69900000D01*
X81480000Y-71900000D01*
G36*
X84030000Y-71900000D02*
X82420000Y-71900000D01*
X82420000Y-69870000D01*
X84030000Y-69870000D01*
X84030000Y-71900000D01*
X84030000Y-71900000D01*
G37*
X84030000Y-71900000D02*
X82420000Y-71900000D01*
X82420000Y-69870000D01*
X84030000Y-69870000D01*
X84030000Y-71900000D01*
G36*
X86570000Y-71900000D02*
X84959190Y-71900000D01*
X84959190Y-69900000D01*
X86570000Y-69900000D01*
X86570000Y-71900000D01*
X86570000Y-71900000D01*
G37*
X86570000Y-71900000D02*
X84959190Y-71900000D01*
X84959190Y-69900000D01*
X86570000Y-69900000D01*
X86570000Y-71900000D01*
G36*
X76400000Y-71900000D02*
X74800000Y-71900000D01*
X74800000Y-69900000D01*
X76400000Y-69900000D01*
X76400000Y-71900000D01*
X76400000Y-71900000D01*
G37*
X76400000Y-71900000D02*
X74800000Y-71900000D01*
X74800000Y-69900000D01*
X76400000Y-69900000D01*
X76400000Y-71900000D01*
G36*
X81480000Y-48900000D02*
X79870000Y-48900000D01*
X79870000Y-46900000D01*
X81480000Y-46900000D01*
X81480000Y-48900000D01*
X81480000Y-48900000D01*
G37*
X81480000Y-48900000D02*
X79870000Y-48900000D01*
X79870000Y-46900000D01*
X81480000Y-46900000D01*
X81480000Y-48900000D01*
G36*
X78930000Y-48900000D02*
X77345000Y-48900000D01*
X77345000Y-46900000D01*
X78930000Y-46900000D01*
X78930000Y-48900000D01*
X78930000Y-48900000D01*
G37*
X78930000Y-48900000D02*
X77345000Y-48900000D01*
X77345000Y-46900000D01*
X78930000Y-46900000D01*
X78930000Y-48900000D01*
G36*
X76400000Y-48900000D02*
X74800000Y-48900000D01*
X74800000Y-46900000D01*
X76400000Y-46900000D01*
X76400000Y-48900000D01*
X76400000Y-48900000D01*
G37*
X76400000Y-48900000D02*
X74800000Y-48900000D01*
X74800000Y-46900000D01*
X76400000Y-46900000D01*
X76400000Y-48900000D01*
G36*
X59030000Y-48900000D02*
X57420000Y-48900000D01*
X57420000Y-46870000D01*
X59030000Y-46870000D01*
X59030000Y-48900000D01*
X59030000Y-48900000D01*
G37*
X59030000Y-48900000D02*
X57420000Y-48900000D01*
X57420000Y-46870000D01*
X59030000Y-46870000D01*
X59030000Y-48900000D01*
G36*
X56480000Y-48900000D02*
X54870000Y-48900000D01*
X54870000Y-46900000D01*
X56480000Y-46900000D01*
X56480000Y-48900000D01*
X56480000Y-48900000D01*
G37*
X56480000Y-48900000D02*
X54870000Y-48900000D01*
X54870000Y-46900000D01*
X56480000Y-46900000D01*
X56480000Y-48900000D01*
G36*
X61570000Y-48900000D02*
X59959190Y-48900000D01*
X59959190Y-46900000D01*
X61570000Y-46900000D01*
X61570000Y-48900000D01*
X61570000Y-48900000D01*
G37*
X61570000Y-48900000D02*
X59959190Y-48900000D01*
X59959190Y-46900000D01*
X61570000Y-46900000D01*
X61570000Y-48900000D01*
G36*
X66240000Y-48900000D02*
X64640000Y-48900000D01*
X64640000Y-46900000D01*
X66240000Y-46900000D01*
X66240000Y-48900000D01*
X66240000Y-48900000D01*
G37*
X66240000Y-48900000D02*
X64640000Y-48900000D01*
X64640000Y-46900000D01*
X66240000Y-46900000D01*
X66240000Y-48900000D01*
G36*
X51400000Y-48900000D02*
X49800000Y-48900000D01*
X49800000Y-46900000D01*
X51400000Y-46900000D01*
X51400000Y-48900000D01*
X51400000Y-48900000D01*
G37*
X51400000Y-48900000D02*
X49800000Y-48900000D01*
X49800000Y-46900000D01*
X51400000Y-46900000D01*
X51400000Y-48900000D01*
G36*
X53930000Y-48900000D02*
X52345000Y-48900000D01*
X52345000Y-46900000D01*
X53930000Y-46900000D01*
X53930000Y-48900000D01*
X53930000Y-48900000D01*
G37*
X53930000Y-48900000D02*
X52345000Y-48900000D01*
X52345000Y-46900000D01*
X53930000Y-46900000D01*
X53930000Y-48900000D01*
G36*
X41240000Y-48900000D02*
X39640000Y-48900000D01*
X39640000Y-46900000D01*
X41240000Y-46900000D01*
X41240000Y-48900000D01*
X41240000Y-48900000D01*
G37*
X41240000Y-48900000D02*
X39640000Y-48900000D01*
X39640000Y-46900000D01*
X41240000Y-46900000D01*
X41240000Y-48900000D01*
G36*
X86570000Y-48900000D02*
X84959190Y-48900000D01*
X84959190Y-46900000D01*
X86570000Y-46900000D01*
X86570000Y-48900000D01*
X86570000Y-48900000D01*
G37*
X86570000Y-48900000D02*
X84959190Y-48900000D01*
X84959190Y-46900000D01*
X86570000Y-46900000D01*
X86570000Y-48900000D01*
G36*
X84030000Y-48900000D02*
X82420000Y-48900000D01*
X82420000Y-46870000D01*
X84030000Y-46870000D01*
X84030000Y-48900000D01*
X84030000Y-48900000D01*
G37*
X84030000Y-48900000D02*
X82420000Y-48900000D01*
X82420000Y-46870000D01*
X84030000Y-46870000D01*
X84030000Y-48900000D01*
G36*
X131480000Y-48900000D02*
X129870000Y-48900000D01*
X129870000Y-46900000D01*
X131480000Y-46900000D01*
X131480000Y-48900000D01*
X131480000Y-48900000D01*
G37*
X131480000Y-48900000D02*
X129870000Y-48900000D01*
X129870000Y-46900000D01*
X131480000Y-46900000D01*
X131480000Y-48900000D01*
G36*
X126400000Y-48900000D02*
X124800000Y-48900000D01*
X124800000Y-46900000D01*
X126400000Y-46900000D01*
X126400000Y-48900000D01*
X126400000Y-48900000D01*
G37*
X126400000Y-48900000D02*
X124800000Y-48900000D01*
X124800000Y-46900000D01*
X126400000Y-46900000D01*
X126400000Y-48900000D01*
G36*
X128930000Y-48900000D02*
X127345000Y-48900000D01*
X127345000Y-46900000D01*
X128930000Y-46900000D01*
X128930000Y-48900000D01*
X128930000Y-48900000D01*
G37*
X128930000Y-48900000D02*
X127345000Y-48900000D01*
X127345000Y-46900000D01*
X128930000Y-46900000D01*
X128930000Y-48900000D01*
G36*
X128930000Y-71900000D02*
X127345000Y-71900000D01*
X127345000Y-69900000D01*
X128930000Y-69900000D01*
X128930000Y-71900000D01*
X128930000Y-71900000D01*
G37*
X128930000Y-71900000D02*
X127345000Y-71900000D01*
X127345000Y-69900000D01*
X128930000Y-69900000D01*
X128930000Y-71900000D01*
G36*
X126400000Y-71900000D02*
X124800000Y-71900000D01*
X124800000Y-69900000D01*
X126400000Y-69900000D01*
X126400000Y-71900000D01*
X126400000Y-71900000D01*
G37*
X126400000Y-71900000D02*
X124800000Y-71900000D01*
X124800000Y-69900000D01*
X126400000Y-69900000D01*
X126400000Y-71900000D01*
G36*
X131480000Y-71900000D02*
X129870000Y-71900000D01*
X129870000Y-69900000D01*
X131480000Y-69900000D01*
X131480000Y-71900000D01*
X131480000Y-71900000D01*
G37*
X131480000Y-71900000D02*
X129870000Y-71900000D01*
X129870000Y-69900000D01*
X131480000Y-69900000D01*
X131480000Y-71900000D01*
G36*
X136570000Y-48900000D02*
X134959190Y-48900000D01*
X134959190Y-46900000D01*
X136570000Y-46900000D01*
X136570000Y-48900000D01*
X136570000Y-48900000D01*
G37*
X136570000Y-48900000D02*
X134959190Y-48900000D01*
X134959190Y-46900000D01*
X136570000Y-46900000D01*
X136570000Y-48900000D01*
G36*
X134030000Y-48900000D02*
X132420000Y-48900000D01*
X132420000Y-46870000D01*
X134030000Y-46870000D01*
X134030000Y-48900000D01*
X134030000Y-48900000D01*
G37*
X134030000Y-48900000D02*
X132420000Y-48900000D01*
X132420000Y-46870000D01*
X134030000Y-46870000D01*
X134030000Y-48900000D01*
G36*
X134030000Y-71900000D02*
X132420000Y-71900000D01*
X132420000Y-69870000D01*
X134030000Y-69870000D01*
X134030000Y-71900000D01*
X134030000Y-71900000D01*
G37*
X134030000Y-71900000D02*
X132420000Y-71900000D01*
X132420000Y-69870000D01*
X134030000Y-69870000D01*
X134030000Y-71900000D01*
G36*
X136570000Y-71900000D02*
X134959190Y-71900000D01*
X134959190Y-69900000D01*
X136570000Y-69900000D01*
X136570000Y-71900000D01*
X136570000Y-71900000D01*
G37*
X136570000Y-71900000D02*
X134959190Y-71900000D01*
X134959190Y-69900000D01*
X136570000Y-69900000D01*
X136570000Y-71900000D01*
G36*
X101400000Y-48900000D02*
X99800000Y-48900000D01*
X99800000Y-46900000D01*
X101400000Y-46900000D01*
X101400000Y-48900000D01*
X101400000Y-48900000D01*
G37*
X101400000Y-48900000D02*
X99800000Y-48900000D01*
X99800000Y-46900000D01*
X101400000Y-46900000D01*
X101400000Y-48900000D01*
G36*
X91240000Y-48900000D02*
X89640000Y-48900000D01*
X89640000Y-46900000D01*
X91240000Y-46900000D01*
X91240000Y-48900000D01*
X91240000Y-48900000D01*
G37*
X91240000Y-48900000D02*
X89640000Y-48900000D01*
X89640000Y-46900000D01*
X91240000Y-46900000D01*
X91240000Y-48900000D01*
G36*
X106480000Y-71900000D02*
X104870000Y-71900000D01*
X104870000Y-69900000D01*
X106480000Y-69900000D01*
X106480000Y-71900000D01*
X106480000Y-71900000D01*
G37*
X106480000Y-71900000D02*
X104870000Y-71900000D01*
X104870000Y-69900000D01*
X106480000Y-69900000D01*
X106480000Y-71900000D01*
G36*
X109030000Y-71900000D02*
X107420000Y-71900000D01*
X107420000Y-69870000D01*
X109030000Y-69870000D01*
X109030000Y-71900000D01*
X109030000Y-71900000D01*
G37*
X109030000Y-71900000D02*
X107420000Y-71900000D01*
X107420000Y-69870000D01*
X109030000Y-69870000D01*
X109030000Y-71900000D01*
G36*
X103930000Y-71900000D02*
X102345000Y-71900000D01*
X102345000Y-69900000D01*
X103930000Y-69900000D01*
X103930000Y-71900000D01*
X103930000Y-71900000D01*
G37*
X103930000Y-71900000D02*
X102345000Y-71900000D01*
X102345000Y-69900000D01*
X103930000Y-69900000D01*
X103930000Y-71900000D01*
G36*
X101400000Y-71900000D02*
X99800000Y-71900000D01*
X99800000Y-69900000D01*
X101400000Y-69900000D01*
X101400000Y-71900000D01*
X101400000Y-71900000D01*
G37*
X101400000Y-71900000D02*
X99800000Y-71900000D01*
X99800000Y-69900000D01*
X101400000Y-69900000D01*
X101400000Y-71900000D01*
G36*
X91240000Y-71900000D02*
X89640000Y-71900000D01*
X89640000Y-69900000D01*
X91240000Y-69900000D01*
X91240000Y-71900000D01*
X91240000Y-71900000D01*
G37*
X91240000Y-71900000D02*
X89640000Y-71900000D01*
X89640000Y-69900000D01*
X91240000Y-69900000D01*
X91240000Y-71900000D01*
G36*
X116240000Y-71900000D02*
X114640000Y-71900000D01*
X114640000Y-69900000D01*
X116240000Y-69900000D01*
X116240000Y-71900000D01*
X116240000Y-71900000D01*
G37*
X116240000Y-71900000D02*
X114640000Y-71900000D01*
X114640000Y-69900000D01*
X116240000Y-69900000D01*
X116240000Y-71900000D01*
G36*
X111570000Y-71900000D02*
X109959190Y-71900000D01*
X109959190Y-69900000D01*
X111570000Y-69900000D01*
X111570000Y-71900000D01*
X111570000Y-71900000D01*
G37*
X111570000Y-71900000D02*
X109959190Y-71900000D01*
X109959190Y-69900000D01*
X111570000Y-69900000D01*
X111570000Y-71900000D01*
G36*
X106480000Y-48900000D02*
X104870000Y-48900000D01*
X104870000Y-46900000D01*
X106480000Y-46900000D01*
X106480000Y-48900000D01*
X106480000Y-48900000D01*
G37*
X106480000Y-48900000D02*
X104870000Y-48900000D01*
X104870000Y-46900000D01*
X106480000Y-46900000D01*
X106480000Y-48900000D01*
G36*
X103930000Y-48900000D02*
X102345000Y-48900000D01*
X102345000Y-46900000D01*
X103930000Y-46900000D01*
X103930000Y-48900000D01*
X103930000Y-48900000D01*
G37*
X103930000Y-48900000D02*
X102345000Y-48900000D01*
X102345000Y-46900000D01*
X103930000Y-46900000D01*
X103930000Y-48900000D01*
G36*
X109030000Y-48900000D02*
X107420000Y-48900000D01*
X107420000Y-46870000D01*
X109030000Y-46870000D01*
X109030000Y-48900000D01*
X109030000Y-48900000D01*
G37*
X109030000Y-48900000D02*
X107420000Y-48900000D01*
X107420000Y-46870000D01*
X109030000Y-46870000D01*
X109030000Y-48900000D01*
G36*
X111570000Y-48900000D02*
X109959190Y-48900000D01*
X109959190Y-46900000D01*
X111570000Y-46900000D01*
X111570000Y-48900000D01*
X111570000Y-48900000D01*
G37*
X111570000Y-48900000D02*
X109959190Y-48900000D01*
X109959190Y-46900000D01*
X111570000Y-46900000D01*
X111570000Y-48900000D01*
G36*
X116240000Y-48900000D02*
X114640000Y-48900000D01*
X114640000Y-46900000D01*
X116240000Y-46900000D01*
X116240000Y-48900000D01*
X116240000Y-48900000D01*
G37*
X116240000Y-48900000D02*
X114640000Y-48900000D01*
X114640000Y-46900000D01*
X116240000Y-46900000D01*
X116240000Y-48900000D01*
G36*
X103930000Y-117900000D02*
X102345000Y-117900000D01*
X102345000Y-115900000D01*
X103930000Y-115900000D01*
X103930000Y-117900000D01*
X103930000Y-117900000D01*
G37*
X103930000Y-117900000D02*
X102345000Y-117900000D01*
X102345000Y-115900000D01*
X103930000Y-115900000D01*
X103930000Y-117900000D01*
G36*
X101400000Y-117900000D02*
X99800000Y-117900000D01*
X99800000Y-115900000D01*
X101400000Y-115900000D01*
X101400000Y-117900000D01*
X101400000Y-117900000D01*
G37*
X101400000Y-117900000D02*
X99800000Y-117900000D01*
X99800000Y-115900000D01*
X101400000Y-115900000D01*
X101400000Y-117900000D01*
G36*
X106480000Y-117900000D02*
X104870000Y-117900000D01*
X104870000Y-115900000D01*
X106480000Y-115900000D01*
X106480000Y-117900000D01*
X106480000Y-117900000D01*
G37*
X106480000Y-117900000D02*
X104870000Y-117900000D01*
X104870000Y-115900000D01*
X106480000Y-115900000D01*
X106480000Y-117900000D01*
G36*
X78930000Y-117900000D02*
X77345000Y-117900000D01*
X77345000Y-115900000D01*
X78930000Y-115900000D01*
X78930000Y-117900000D01*
X78930000Y-117900000D01*
G37*
X78930000Y-117900000D02*
X77345000Y-117900000D01*
X77345000Y-115900000D01*
X78930000Y-115900000D01*
X78930000Y-117900000D01*
G36*
X81480000Y-117900000D02*
X79870000Y-117900000D01*
X79870000Y-115900000D01*
X81480000Y-115900000D01*
X81480000Y-117900000D01*
X81480000Y-117900000D01*
G37*
X81480000Y-117900000D02*
X79870000Y-117900000D01*
X79870000Y-115900000D01*
X81480000Y-115900000D01*
X81480000Y-117900000D01*
G36*
X84030000Y-117900000D02*
X82420000Y-117900000D01*
X82420000Y-115870000D01*
X84030000Y-115870000D01*
X84030000Y-117900000D01*
X84030000Y-117900000D01*
G37*
X84030000Y-117900000D02*
X82420000Y-117900000D01*
X82420000Y-115870000D01*
X84030000Y-115870000D01*
X84030000Y-117900000D01*
G36*
X86570000Y-117900000D02*
X84959190Y-117900000D01*
X84959190Y-115900000D01*
X86570000Y-115900000D01*
X86570000Y-117900000D01*
X86570000Y-117900000D01*
G37*
X86570000Y-117900000D02*
X84959190Y-117900000D01*
X84959190Y-115900000D01*
X86570000Y-115900000D01*
X86570000Y-117900000D01*
G36*
X91240000Y-117900000D02*
X89640000Y-117900000D01*
X89640000Y-115900000D01*
X91240000Y-115900000D01*
X91240000Y-117900000D01*
X91240000Y-117900000D01*
G37*
X91240000Y-117900000D02*
X89640000Y-117900000D01*
X89640000Y-115900000D01*
X91240000Y-115900000D01*
X91240000Y-117900000D01*
G36*
X51400000Y-94900000D02*
X49800000Y-94900000D01*
X49800000Y-92900000D01*
X51400000Y-92900000D01*
X51400000Y-94900000D01*
X51400000Y-94900000D01*
G37*
X51400000Y-94900000D02*
X49800000Y-94900000D01*
X49800000Y-92900000D01*
X51400000Y-92900000D01*
X51400000Y-94900000D01*
G36*
X41240000Y-94900000D02*
X39640000Y-94900000D01*
X39640000Y-92900000D01*
X41240000Y-92900000D01*
X41240000Y-94900000D01*
X41240000Y-94900000D01*
G37*
X41240000Y-94900000D02*
X39640000Y-94900000D01*
X39640000Y-92900000D01*
X41240000Y-92900000D01*
X41240000Y-94900000D01*
G36*
X56480000Y-117900000D02*
X54870000Y-117900000D01*
X54870000Y-115900000D01*
X56480000Y-115900000D01*
X56480000Y-117900000D01*
X56480000Y-117900000D01*
G37*
X56480000Y-117900000D02*
X54870000Y-117900000D01*
X54870000Y-115900000D01*
X56480000Y-115900000D01*
X56480000Y-117900000D01*
G36*
X59030000Y-117900000D02*
X57420000Y-117900000D01*
X57420000Y-115870000D01*
X59030000Y-115870000D01*
X59030000Y-117900000D01*
X59030000Y-117900000D01*
G37*
X59030000Y-117900000D02*
X57420000Y-117900000D01*
X57420000Y-115870000D01*
X59030000Y-115870000D01*
X59030000Y-117900000D01*
G36*
X41240000Y-117900000D02*
X39640000Y-117900000D01*
X39640000Y-115900000D01*
X41240000Y-115900000D01*
X41240000Y-117900000D01*
X41240000Y-117900000D01*
G37*
X41240000Y-117900000D02*
X39640000Y-117900000D01*
X39640000Y-115900000D01*
X41240000Y-115900000D01*
X41240000Y-117900000D01*
G36*
X53930000Y-117900000D02*
X52345000Y-117900000D01*
X52345000Y-115900000D01*
X53930000Y-115900000D01*
X53930000Y-117900000D01*
X53930000Y-117900000D01*
G37*
X53930000Y-117900000D02*
X52345000Y-117900000D01*
X52345000Y-115900000D01*
X53930000Y-115900000D01*
X53930000Y-117900000D01*
G36*
X51400000Y-117900000D02*
X49800000Y-117900000D01*
X49800000Y-115900000D01*
X51400000Y-115900000D01*
X51400000Y-117900000D01*
X51400000Y-117900000D01*
G37*
X51400000Y-117900000D02*
X49800000Y-117900000D01*
X49800000Y-115900000D01*
X51400000Y-115900000D01*
X51400000Y-117900000D01*
G36*
X66240000Y-117900000D02*
X64640000Y-117900000D01*
X64640000Y-115900000D01*
X66240000Y-115900000D01*
X66240000Y-117900000D01*
X66240000Y-117900000D01*
G37*
X66240000Y-117900000D02*
X64640000Y-117900000D01*
X64640000Y-115900000D01*
X66240000Y-115900000D01*
X66240000Y-117900000D01*
G36*
X61570000Y-117900000D02*
X59959190Y-117900000D01*
X59959190Y-115900000D01*
X61570000Y-115900000D01*
X61570000Y-117900000D01*
X61570000Y-117900000D01*
G37*
X61570000Y-117900000D02*
X59959190Y-117900000D01*
X59959190Y-115900000D01*
X61570000Y-115900000D01*
X61570000Y-117900000D01*
G36*
X56480000Y-94900000D02*
X54870000Y-94900000D01*
X54870000Y-92900000D01*
X56480000Y-92900000D01*
X56480000Y-94900000D01*
X56480000Y-94900000D01*
G37*
X56480000Y-94900000D02*
X54870000Y-94900000D01*
X54870000Y-92900000D01*
X56480000Y-92900000D01*
X56480000Y-94900000D01*
G36*
X59030000Y-94900000D02*
X57420000Y-94900000D01*
X57420000Y-92870000D01*
X59030000Y-92870000D01*
X59030000Y-94900000D01*
X59030000Y-94900000D01*
G37*
X59030000Y-94900000D02*
X57420000Y-94900000D01*
X57420000Y-92870000D01*
X59030000Y-92870000D01*
X59030000Y-94900000D01*
G36*
X53930000Y-94900000D02*
X52345000Y-94900000D01*
X52345000Y-92900000D01*
X53930000Y-92900000D01*
X53930000Y-94900000D01*
X53930000Y-94900000D01*
G37*
X53930000Y-94900000D02*
X52345000Y-94900000D01*
X52345000Y-92900000D01*
X53930000Y-92900000D01*
X53930000Y-94900000D01*
G36*
X66240000Y-94900000D02*
X64640000Y-94900000D01*
X64640000Y-92900000D01*
X66240000Y-92900000D01*
X66240000Y-94900000D01*
X66240000Y-94900000D01*
G37*
X66240000Y-94900000D02*
X64640000Y-94900000D01*
X64640000Y-92900000D01*
X66240000Y-92900000D01*
X66240000Y-94900000D01*
G36*
X61570000Y-94900000D02*
X59959190Y-94900000D01*
X59959190Y-92900000D01*
X61570000Y-92900000D01*
X61570000Y-94900000D01*
X61570000Y-94900000D01*
G37*
X61570000Y-94900000D02*
X59959190Y-94900000D01*
X59959190Y-92900000D01*
X61570000Y-92900000D01*
X61570000Y-94900000D01*
G36*
X78930000Y-94900000D02*
X77345000Y-94900000D01*
X77345000Y-92900000D01*
X78930000Y-92900000D01*
X78930000Y-94900000D01*
X78930000Y-94900000D01*
G37*
X78930000Y-94900000D02*
X77345000Y-94900000D01*
X77345000Y-92900000D01*
X78930000Y-92900000D01*
X78930000Y-94900000D01*
G36*
X76400000Y-117900000D02*
X74800000Y-117900000D01*
X74800000Y-115900000D01*
X76400000Y-115900000D01*
X76400000Y-117900000D01*
X76400000Y-117900000D01*
G37*
X76400000Y-117900000D02*
X74800000Y-117900000D01*
X74800000Y-115900000D01*
X76400000Y-115900000D01*
X76400000Y-117900000D01*
G36*
X76400000Y-94900000D02*
X74800000Y-94900000D01*
X74800000Y-92900000D01*
X76400000Y-92900000D01*
X76400000Y-94900000D01*
X76400000Y-94900000D01*
G37*
X76400000Y-94900000D02*
X74800000Y-94900000D01*
X74800000Y-92900000D01*
X76400000Y-92900000D01*
X76400000Y-94900000D01*
G36*
X84030000Y-94900000D02*
X82420000Y-94900000D01*
X82420000Y-92870000D01*
X84030000Y-92870000D01*
X84030000Y-94900000D01*
X84030000Y-94900000D01*
G37*
X84030000Y-94900000D02*
X82420000Y-94900000D01*
X82420000Y-92870000D01*
X84030000Y-92870000D01*
X84030000Y-94900000D01*
G36*
X81480000Y-94900000D02*
X79870000Y-94900000D01*
X79870000Y-92900000D01*
X81480000Y-92900000D01*
X81480000Y-94900000D01*
X81480000Y-94900000D01*
G37*
X81480000Y-94900000D02*
X79870000Y-94900000D01*
X79870000Y-92900000D01*
X81480000Y-92900000D01*
X81480000Y-94900000D01*
G36*
X101400000Y-94900000D02*
X99800000Y-94900000D01*
X99800000Y-92900000D01*
X101400000Y-92900000D01*
X101400000Y-94900000D01*
X101400000Y-94900000D01*
G37*
X101400000Y-94900000D02*
X99800000Y-94900000D01*
X99800000Y-92900000D01*
X101400000Y-92900000D01*
X101400000Y-94900000D01*
G36*
X86570000Y-94900000D02*
X84959190Y-94900000D01*
X84959190Y-92900000D01*
X86570000Y-92900000D01*
X86570000Y-94900000D01*
X86570000Y-94900000D01*
G37*
X86570000Y-94900000D02*
X84959190Y-94900000D01*
X84959190Y-92900000D01*
X86570000Y-92900000D01*
X86570000Y-94900000D01*
G36*
X91240000Y-94900000D02*
X89640000Y-94900000D01*
X89640000Y-92900000D01*
X91240000Y-92900000D01*
X91240000Y-94900000D01*
X91240000Y-94900000D01*
G37*
X91240000Y-94900000D02*
X89640000Y-94900000D01*
X89640000Y-92900000D01*
X91240000Y-92900000D01*
X91240000Y-94900000D01*
G36*
X116240000Y-117900000D02*
X114640000Y-117900000D01*
X114640000Y-115900000D01*
X116240000Y-115900000D01*
X116240000Y-117900000D01*
X116240000Y-117900000D01*
G37*
X116240000Y-117900000D02*
X114640000Y-117900000D01*
X114640000Y-115900000D01*
X116240000Y-115900000D01*
X116240000Y-117900000D01*
G36*
X109030000Y-117900000D02*
X107420000Y-117900000D01*
X107420000Y-115870000D01*
X109030000Y-115870000D01*
X109030000Y-117900000D01*
X109030000Y-117900000D01*
G37*
X109030000Y-117900000D02*
X107420000Y-117900000D01*
X107420000Y-115870000D01*
X109030000Y-115870000D01*
X109030000Y-117900000D01*
G36*
X111570000Y-117900000D02*
X109959190Y-117900000D01*
X109959190Y-115900000D01*
X111570000Y-115900000D01*
X111570000Y-117900000D01*
X111570000Y-117900000D01*
G37*
X111570000Y-117900000D02*
X109959190Y-117900000D01*
X109959190Y-115900000D01*
X111570000Y-115900000D01*
X111570000Y-117900000D01*
G36*
X103930000Y-94900000D02*
X102345000Y-94900000D01*
X102345000Y-92900000D01*
X103930000Y-92900000D01*
X103930000Y-94900000D01*
X103930000Y-94900000D01*
G37*
X103930000Y-94900000D02*
X102345000Y-94900000D01*
X102345000Y-92900000D01*
X103930000Y-92900000D01*
X103930000Y-94900000D01*
G36*
X106480000Y-94900000D02*
X104870000Y-94900000D01*
X104870000Y-92900000D01*
X106480000Y-92900000D01*
X106480000Y-94900000D01*
X106480000Y-94900000D01*
G37*
X106480000Y-94900000D02*
X104870000Y-94900000D01*
X104870000Y-92900000D01*
X106480000Y-92900000D01*
X106480000Y-94900000D01*
G36*
X109030000Y-94900000D02*
X107420000Y-94900000D01*
X107420000Y-92870000D01*
X109030000Y-92870000D01*
X109030000Y-94900000D01*
X109030000Y-94900000D01*
G37*
X109030000Y-94900000D02*
X107420000Y-94900000D01*
X107420000Y-92870000D01*
X109030000Y-92870000D01*
X109030000Y-94900000D01*
G36*
X111570000Y-94900000D02*
X109959190Y-94900000D01*
X109959190Y-92900000D01*
X111570000Y-92900000D01*
X111570000Y-94900000D01*
X111570000Y-94900000D01*
G37*
X111570000Y-94900000D02*
X109959190Y-94900000D01*
X109959190Y-92900000D01*
X111570000Y-92900000D01*
X111570000Y-94900000D01*
G36*
X116240000Y-94900000D02*
X114640000Y-94900000D01*
X114640000Y-92900000D01*
X116240000Y-92900000D01*
X116240000Y-94900000D01*
X116240000Y-94900000D01*
G37*
X116240000Y-94900000D02*
X114640000Y-94900000D01*
X114640000Y-92900000D01*
X116240000Y-92900000D01*
X116240000Y-94900000D01*
G36*
X131480000Y-94900000D02*
X129870000Y-94900000D01*
X129870000Y-92900000D01*
X131480000Y-92900000D01*
X131480000Y-94900000D01*
X131480000Y-94900000D01*
G37*
X131480000Y-94900000D02*
X129870000Y-94900000D01*
X129870000Y-92900000D01*
X131480000Y-92900000D01*
X131480000Y-94900000D01*
G36*
X134030000Y-94900000D02*
X132420000Y-94900000D01*
X132420000Y-92870000D01*
X134030000Y-92870000D01*
X134030000Y-94900000D01*
X134030000Y-94900000D01*
G37*
X134030000Y-94900000D02*
X132420000Y-94900000D01*
X132420000Y-92870000D01*
X134030000Y-92870000D01*
X134030000Y-94900000D01*
G36*
X136570000Y-94900000D02*
X134959190Y-94900000D01*
X134959190Y-92900000D01*
X136570000Y-92900000D01*
X136570000Y-94900000D01*
X136570000Y-94900000D01*
G37*
X136570000Y-94900000D02*
X134959190Y-94900000D01*
X134959190Y-92900000D01*
X136570000Y-92900000D01*
X136570000Y-94900000D01*
G36*
X126400000Y-94900000D02*
X124800000Y-94900000D01*
X124800000Y-92900000D01*
X126400000Y-92900000D01*
X126400000Y-94900000D01*
X126400000Y-94900000D01*
G37*
X126400000Y-94900000D02*
X124800000Y-94900000D01*
X124800000Y-92900000D01*
X126400000Y-92900000D01*
X126400000Y-94900000D01*
G36*
X128930000Y-94900000D02*
X127345000Y-94900000D01*
X127345000Y-92900000D01*
X128930000Y-92900000D01*
X128930000Y-94900000D01*
X128930000Y-94900000D01*
G37*
X128930000Y-94900000D02*
X127345000Y-94900000D01*
X127345000Y-92900000D01*
X128930000Y-92900000D01*
X128930000Y-94900000D01*
G36*
X128930000Y-117900000D02*
X127345000Y-117900000D01*
X127345000Y-115900000D01*
X128930000Y-115900000D01*
X128930000Y-117900000D01*
X128930000Y-117900000D01*
G37*
X128930000Y-117900000D02*
X127345000Y-117900000D01*
X127345000Y-115900000D01*
X128930000Y-115900000D01*
X128930000Y-117900000D01*
G36*
X126400000Y-117900000D02*
X124800000Y-117900000D01*
X124800000Y-115900000D01*
X126400000Y-115900000D01*
X126400000Y-117900000D01*
X126400000Y-117900000D01*
G37*
X126400000Y-117900000D02*
X124800000Y-117900000D01*
X124800000Y-115900000D01*
X126400000Y-115900000D01*
X126400000Y-117900000D01*
G36*
X136570000Y-117900000D02*
X134959190Y-117900000D01*
X134959190Y-115900000D01*
X136570000Y-115900000D01*
X136570000Y-117900000D01*
X136570000Y-117900000D01*
G37*
X136570000Y-117900000D02*
X134959190Y-117900000D01*
X134959190Y-115900000D01*
X136570000Y-115900000D01*
X136570000Y-117900000D01*
G36*
X134030000Y-117900000D02*
X132420000Y-117900000D01*
X132420000Y-115870000D01*
X134030000Y-115870000D01*
X134030000Y-117900000D01*
X134030000Y-117900000D01*
G37*
X134030000Y-117900000D02*
X132420000Y-117900000D01*
X132420000Y-115870000D01*
X134030000Y-115870000D01*
X134030000Y-117900000D01*
G36*
X131480000Y-117900000D02*
X129870000Y-117900000D01*
X129870000Y-115900000D01*
X131480000Y-115900000D01*
X131480000Y-117900000D01*
X131480000Y-117900000D01*
G37*
X131480000Y-117900000D02*
X129870000Y-117900000D01*
X129870000Y-115900000D01*
X131480000Y-115900000D01*
X131480000Y-117900000D01*
M02*
