M48
;DRILL file {KiCad 4.0.1-stable} date 31.08.2016 15:32:58
;FORMAT={-:-/ absolute / inch / decimal}
FMAT,2
INCH,TZ
T1C0.016
T2C0.031
T3C0.040
T4C0.248
%
G90
G05
M72
T1
X1.8071Y-1.8346
X1.8071Y-2.7402
X1.8071Y-3.6457
X1.8071Y-4.5512
X1.9272Y-1.822
X1.9272Y-2.7276
X1.9272Y-3.6331
X1.9272Y-4.5386
X1.9331Y-1.6654
X1.9331Y-2.5709
X1.9331Y-3.4764
X1.9331Y-4.3819
X1.9331Y-1.5315
X1.9331Y-1.5984
X1.9331Y-1.7283
X1.9331Y-2.437
X1.9331Y-2.5039
X1.9331Y-2.6339
X1.9331Y-3.3425
X1.9331Y-3.4094
X1.9331Y-3.5394
X1.9331Y-4.248
X1.9331Y-4.315
X1.9331Y-4.4449
X1.937Y-1.7756
X1.937Y-2.6811
X1.937Y-3.5866
X1.937Y-4.4921
X1.9882Y-1.4764
X1.9882Y-2.3819
X1.9882Y-3.2874
X1.9882Y-4.1929
X2.0669Y-1.7717
X2.0669Y-2.6772
X2.0669Y-3.5827
X2.0669Y-4.4882
X2.2077Y-1.7431
X2.2077Y-2.6486
X2.2077Y-3.5541
X2.2077Y-4.4596
X2.2127Y-1.6917
X2.2127Y-2.5972
X2.2127Y-3.5027
X2.2127Y-4.4082
X2.2514Y-1.561
X2.2514Y-2.4665
X2.2514Y-3.372
X2.2514Y-4.2776
X2.2527Y-1.6321
X2.2527Y-2.5376
X2.2527Y-3.4431
X2.2527Y-4.3486
X2.3031Y-1.4134
X2.3031Y-1.7756
X2.3031Y-2.3189
X2.3031Y-2.6811
X2.3031Y-3.2244
X2.3031Y-3.5866
X2.3031Y-4.1299
X2.3031Y-4.4921
X2.3271Y-1.6662
X2.3271Y-2.5717
X2.3271Y-3.4772
X2.3271Y-4.3827
X2.3465Y-1.4134
X2.3465Y-2.3189
X2.3465Y-3.2244
X2.3465Y-4.1299
X2.3761Y-1.6702
X2.3761Y-2.5757
X2.3761Y-3.4812
X2.3761Y-4.3867
X2.3858Y-1.5945
X2.3858Y-2.5
X2.3858Y-3.4055
X2.3858Y-4.311
X2.4488Y-1.6299
X2.4488Y-2.5354
X2.4488Y-3.4409
X2.4488Y-4.3465
X2.4494Y-1.7918
X2.4494Y-2.6974
X2.4494Y-3.6029
X2.4494Y-4.5084
X2.7913Y-1.8346
X2.7913Y-2.7402
X2.7913Y-3.6457
X2.7913Y-4.5512
X2.9114Y-1.822
X2.9114Y-2.7276
X2.9114Y-3.6331
X2.9114Y-4.5386
X2.9173Y-1.6654
X2.9173Y-2.5709
X2.9173Y-3.4764
X2.9173Y-4.3819
X2.9173Y-1.5315
X2.9173Y-1.5984
X2.9173Y-1.7283
X2.9173Y-2.437
X2.9173Y-2.5039
X2.9173Y-2.6339
X2.9173Y-3.3425
X2.9173Y-3.4094
X2.9173Y-3.5394
X2.9173Y-4.248
X2.9173Y-4.315
X2.9173Y-4.4449
X2.9213Y-1.7756
X2.9213Y-2.6811
X2.9213Y-3.5866
X2.9213Y-4.4921
X2.9724Y-1.4764
X2.9724Y-2.3819
X2.9724Y-3.2874
X2.9724Y-4.1929
X3.0512Y-1.7717
X3.0512Y-2.6772
X3.0512Y-3.5827
X3.0512Y-4.4882
X3.1919Y-1.7431
X3.1919Y-2.6486
X3.1919Y-3.5541
X3.1919Y-4.4596
X3.1969Y-1.6917
X3.1969Y-2.5972
X3.1969Y-3.5027
X3.1969Y-4.4082
X3.2356Y-1.561
X3.2356Y-2.4665
X3.2356Y-3.372
X3.2356Y-4.2776
X3.2369Y-1.6321
X3.2369Y-2.5376
X3.2369Y-3.4431
X3.2369Y-4.3486
X3.2874Y-1.4134
X3.2874Y-1.7756
X3.2874Y-2.3189
X3.2874Y-2.6811
X3.2874Y-3.2244
X3.2874Y-3.5866
X3.2874Y-4.1299
X3.2874Y-4.4921
X3.3114Y-1.6662
X3.3114Y-2.5717
X3.3114Y-3.4772
X3.3114Y-4.3827
X3.3307Y-1.4134
X3.3307Y-2.3189
X3.3307Y-3.2244
X3.3307Y-4.1299
X3.3604Y-1.6702
X3.3604Y-2.5757
X3.3604Y-3.4812
X3.3604Y-4.3867
X3.3701Y-1.5945
X3.3701Y-2.5
X3.3701Y-3.4055
X3.3701Y-4.311
X3.4331Y-1.6299
X3.4331Y-2.5354
X3.4331Y-3.4409
X3.4331Y-4.3465
X3.4336Y-1.7918
X3.4336Y-2.6974
X3.4336Y-3.6029
X3.4336Y-4.5084
X3.7756Y-1.8346
X3.7756Y-2.7402
X3.7756Y-3.6457
X3.7756Y-4.5512
X3.8957Y-1.822
X3.8957Y-2.7276
X3.8957Y-3.6331
X3.8957Y-4.5386
X3.9016Y-1.6654
X3.9016Y-2.5709
X3.9016Y-3.4764
X3.9016Y-4.3819
X3.9016Y-1.5315
X3.9016Y-1.5984
X3.9016Y-1.7283
X3.9016Y-2.437
X3.9016Y-2.5039
X3.9016Y-2.6339
X3.9016Y-3.3425
X3.9016Y-3.4094
X3.9016Y-3.5394
X3.9016Y-4.248
X3.9016Y-4.315
X3.9016Y-4.4449
X3.9055Y-1.7756
X3.9055Y-2.6811
X3.9055Y-3.5866
X3.9055Y-4.4921
X3.9567Y-1.4764
X3.9567Y-2.3819
X3.9567Y-3.2874
X3.9567Y-4.1929
X4.0354Y-1.7717
X4.0354Y-2.6772
X4.0354Y-3.5827
X4.0354Y-4.4882
X4.1762Y-1.7431
X4.1762Y-2.6486
X4.1762Y-3.5541
X4.1762Y-4.4596
X4.1812Y-1.6917
X4.1812Y-2.5972
X4.1812Y-3.5027
X4.1812Y-4.4082
X4.2199Y-1.561
X4.2199Y-2.4665
X4.2199Y-3.372
X4.2199Y-4.2776
X4.2212Y-1.6321
X4.2212Y-2.5376
X4.2212Y-3.4431
X4.2212Y-4.3486
X4.2717Y-1.4134
X4.2717Y-1.7756
X4.2717Y-2.3189
X4.2717Y-2.6811
X4.2717Y-3.2244
X4.2717Y-3.5866
X4.2717Y-4.1299
X4.2717Y-4.4921
X4.2956Y-1.6662
X4.2956Y-2.5717
X4.2956Y-3.4772
X4.2956Y-4.3827
X4.315Y-1.4134
X4.315Y-2.3189
X4.315Y-3.2244
X4.315Y-4.1299
X4.3446Y-1.6702
X4.3446Y-2.5757
X4.3446Y-3.4812
X4.3446Y-4.3867
X4.3543Y-1.5945
X4.3543Y-2.5
X4.3543Y-3.4055
X4.3543Y-4.311
X4.4173Y-1.6299
X4.4173Y-2.5354
X4.4173Y-3.4409
X4.4173Y-4.3465
X4.4179Y-1.7918
X4.4179Y-2.6974
X4.4179Y-3.6029
X4.4179Y-4.5084
X4.7598Y-1.8346
X4.7598Y-2.7402
X4.7598Y-3.6457
X4.7598Y-4.5512
X4.8799Y-1.822
X4.8799Y-2.7276
X4.8799Y-3.6331
X4.8799Y-4.5386
X4.8858Y-1.6654
X4.8858Y-2.5709
X4.8858Y-3.4764
X4.8858Y-4.3819
X4.8858Y-1.5315
X4.8858Y-1.5984
X4.8858Y-1.7283
X4.8858Y-2.437
X4.8858Y-2.5039
X4.8858Y-2.6339
X4.8858Y-3.3425
X4.8858Y-3.4094
X4.8858Y-3.5394
X4.8858Y-4.248
X4.8858Y-4.315
X4.8858Y-4.4449
X4.8898Y-1.7756
X4.8898Y-2.6811
X4.8898Y-3.5866
X4.8898Y-4.4921
X4.9409Y-1.4764
X4.9409Y-2.3819
X4.9409Y-3.2874
X4.9409Y-4.1929
X5.0197Y-1.7717
X5.0197Y-2.6772
X5.0197Y-3.5827
X5.0197Y-4.4882
X5.1604Y-1.7431
X5.1604Y-2.6486
X5.1604Y-3.5541
X5.1604Y-4.4596
X5.1654Y-1.6917
X5.1654Y-2.5972
X5.1654Y-3.5027
X5.1654Y-4.4082
X5.2041Y-1.561
X5.2041Y-2.4665
X5.2041Y-3.372
X5.2041Y-4.2776
X5.2054Y-1.6321
X5.2054Y-2.5376
X5.2054Y-3.4431
X5.2054Y-4.3486
X5.2559Y-1.4134
X5.2559Y-1.7756
X5.2559Y-2.3189
X5.2559Y-2.6811
X5.2559Y-3.2244
X5.2559Y-3.5866
X5.2559Y-4.1299
X5.2559Y-4.4921
X5.2799Y-1.6662
X5.2799Y-2.5717
X5.2799Y-3.4772
X5.2799Y-4.3827
X5.2992Y-1.4134
X5.2992Y-2.3189
X5.2992Y-3.2244
X5.2992Y-4.1299
X5.3289Y-1.6702
X5.3289Y-2.5757
X5.3289Y-3.4812
X5.3289Y-4.3867
X5.3386Y-1.5945
X5.3386Y-2.5
X5.3386Y-3.4055
X5.3386Y-4.311
X5.4016Y-1.6299
X5.4016Y-2.5354
X5.4016Y-3.4409
X5.4016Y-4.3465
X5.4021Y-1.7918
X5.4021Y-2.6974
X5.4021Y-3.6029
X5.4021Y-4.5084
T2
X2.0512Y-1.1913
X2.0512Y-1.2913
X2.0512Y-2.0969
X2.0512Y-2.1969
X2.0512Y-3.0024
X2.0512Y-3.1024
X2.0512Y-3.9079
X2.0512Y-4.0079
X2.2165Y-1.1913
X2.2165Y-1.2913
X2.2165Y-2.0969
X2.2165Y-2.1969
X2.2165Y-3.0024
X2.2165Y-3.1024
X2.2165Y-3.9079
X2.2165Y-4.0079
X3.0354Y-1.1913
X3.0354Y-1.2913
X3.0354Y-2.0969
X3.0354Y-2.1969
X3.0354Y-3.0024
X3.0354Y-3.1024
X3.0354Y-3.9079
X3.0354Y-4.0079
X3.2008Y-1.1913
X3.2008Y-1.2913
X3.2008Y-2.0969
X3.2008Y-2.1969
X3.2008Y-3.0024
X3.2008Y-3.1024
X3.2008Y-3.9079
X3.2008Y-4.0079
X4.0197Y-1.1913
X4.0197Y-1.2913
X4.0197Y-2.0969
X4.0197Y-2.1969
X4.0197Y-3.0024
X4.0197Y-3.1024
X4.0197Y-3.9079
X4.0197Y-4.0079
X4.185Y-1.1913
X4.185Y-1.2913
X4.185Y-2.0969
X4.185Y-2.1969
X4.185Y-3.0024
X4.185Y-3.1024
X4.185Y-3.9079
X4.185Y-4.0079
X5.0039Y-1.1913
X5.0039Y-1.2913
X5.0039Y-2.0969
X5.0039Y-2.1969
X5.0039Y-3.0024
X5.0039Y-3.1024
X5.0039Y-3.9079
X5.0039Y-4.0079
X5.1693Y-1.1913
X5.1693Y-1.2913
X5.1693Y-2.0969
X5.1693Y-2.1969
X5.1693Y-3.0024
X5.1693Y-3.1024
X5.1693Y-3.9079
X5.1693Y-4.0079
T3
X1.5921Y-1.8425
X1.5921Y-2.748
X1.5921Y-3.6535
X1.5921Y-4.5591
X1.9921Y-1.8425
X1.9921Y-2.748
X1.9921Y-3.6535
X1.9921Y-4.5591
X2.0921Y-1.8425
X2.0921Y-2.748
X2.0921Y-3.6535
X2.0921Y-4.5591
X2.1921Y-1.8425
X2.1921Y-2.748
X2.1921Y-3.6535
X2.1921Y-4.5591
X2.2921Y-1.8425
X2.2921Y-2.748
X2.2921Y-3.6535
X2.2921Y-4.5591
X2.3921Y-1.8425
X2.3921Y-2.748
X2.3921Y-3.6535
X2.3921Y-4.5591
X2.5764Y-1.8425
X2.5764Y-2.748
X2.5764Y-3.6535
X2.5764Y-4.5591
X2.9764Y-1.8425
X2.9764Y-2.748
X2.9764Y-3.6535
X2.9764Y-4.5591
X3.0764Y-1.8425
X3.0764Y-2.748
X3.0764Y-3.6535
X3.0764Y-4.5591
X3.1764Y-1.8425
X3.1764Y-2.748
X3.1764Y-3.6535
X3.1764Y-4.5591
X3.2764Y-1.8425
X3.2764Y-2.748
X3.2764Y-3.6535
X3.2764Y-4.5591
X3.3764Y-1.8425
X3.3764Y-2.748
X3.3764Y-3.6535
X3.3764Y-4.5591
X3.5606Y-1.8425
X3.5606Y-2.748
X3.5606Y-3.6535
X3.5606Y-4.5591
X3.9606Y-1.8425
X3.9606Y-2.748
X3.9606Y-3.6535
X3.9606Y-4.5591
X4.0606Y-1.8425
X4.0606Y-2.748
X4.0606Y-3.6535
X4.0606Y-4.5591
X4.1606Y-1.8425
X4.1606Y-2.748
X4.1606Y-3.6535
X4.1606Y-4.5591
X4.2606Y-1.8425
X4.2606Y-2.748
X4.2606Y-3.6535
X4.2606Y-4.5591
X4.3606Y-1.8425
X4.3606Y-2.748
X4.3606Y-3.6535
X4.3606Y-4.5591
X4.5449Y-1.8425
X4.5449Y-2.748
X4.5449Y-3.6535
X4.5449Y-4.5591
X4.9449Y-1.8425
X4.9449Y-2.748
X4.9449Y-3.6535
X4.9449Y-4.5591
X5.0449Y-1.8425
X5.0449Y-2.748
X5.0449Y-3.6535
X5.0449Y-4.5591
X5.1449Y-1.8425
X5.1449Y-2.748
X5.1449Y-3.6535
X5.1449Y-4.5591
X5.2449Y-1.8425
X5.2449Y-2.748
X5.2449Y-3.6535
X5.2449Y-4.5591
X5.3449Y-1.8425
X5.3449Y-2.748
X5.3449Y-3.6535
X5.3449Y-4.5591
T4
X1.8067Y-1.1929
X1.8067Y-2.0984
X1.8067Y-3.0039
X1.8067Y-3.9094
X2.7909Y-1.1929
X2.7909Y-2.0984
X2.7909Y-3.0039
X2.7909Y-3.9094
X3.7752Y-1.1929
X3.7752Y-2.0984
X3.7752Y-3.0039
X3.7752Y-3.9094
X4.7594Y-1.1929
X4.7594Y-2.0984
X4.7594Y-3.0039
X4.7594Y-3.9094
T0
M30
