G04 #@! TF.FileFunction,Paste,Top*
%FSLAX46Y46*%
G04 Gerber Fmt 4.6, Leading zero omitted, Abs format (unit mm)*
G04 Created by KiCad (PCBNEW 4.0.1-stable) date 23.06.2016 01:41:27*
%MOMM*%
G01*
G04 APERTURE LIST*
%ADD10C,0.100000*%
%ADD11R,0.900000X0.500000*%
%ADD12R,0.500000X0.900000*%
%ADD13R,0.800000X0.750000*%
%ADD14R,0.750000X0.800000*%
%ADD15R,1.400000X1.200000*%
%ADD16R,0.800100X0.800100*%
%ADD17R,3.657600X2.032000*%
%ADD18R,1.016000X2.032000*%
%ADD19R,1.600000X1.400000*%
%ADD20R,0.700000X1.600000*%
%ADD21R,1.200000X2.200000*%
%ADD22R,3.000000X4.000000*%
%ADD23R,1.100000X2.400000*%
%ADD24R,2.400000X1.100000*%
%ADD25R,0.900000X1.700000*%
%ADD26R,1.500000X0.550000*%
%ADD27R,0.550000X1.500000*%
%ADD28R,0.450000X0.590000*%
%ADD29R,2.999740X1.600200*%
%ADD30R,1.600200X3.599180*%
%ADD31R,3.599180X1.600200*%
G04 APERTURE END LIST*
D10*
D11*
X166200000Y-68750000D03*
X166200000Y-67250000D03*
X187250000Y-74250000D03*
X187250000Y-75750000D03*
X185000000Y-81200000D03*
X185000000Y-82700000D03*
D12*
X158350000Y-63000000D03*
X159850000Y-63000000D03*
X161350000Y-63000000D03*
X162850000Y-63000000D03*
X130229776Y-91844556D03*
X131729776Y-91844556D03*
X131729776Y-90144556D03*
X130229776Y-90144556D03*
X129129776Y-78144556D03*
X130629776Y-78144556D03*
X130629776Y-76444556D03*
X129129776Y-76444556D03*
X189150000Y-118800000D03*
X190650000Y-118800000D03*
X137364888Y-64972278D03*
X138864888Y-64972278D03*
X138864888Y-63272278D03*
X137364888Y-63272278D03*
D11*
X190600000Y-100510000D03*
X190600000Y-99010000D03*
X190300000Y-85510000D03*
X190300000Y-84010000D03*
D12*
X168304519Y-127442121D03*
X166804519Y-127442121D03*
X164304519Y-127442121D03*
X162804519Y-127442121D03*
X160304519Y-127442121D03*
X158804519Y-127442121D03*
X156304519Y-127442121D03*
X154804519Y-127442121D03*
X152304519Y-127442121D03*
X150804519Y-127442121D03*
X172304519Y-127442121D03*
X170804519Y-127442121D03*
X176304519Y-127442121D03*
X174804519Y-127442121D03*
X166054519Y-133442121D03*
X167554519Y-133442121D03*
X162054519Y-133442121D03*
X163554519Y-133442121D03*
X158054519Y-133442121D03*
X159554519Y-133442121D03*
X154054519Y-133442121D03*
X155554519Y-133442121D03*
X150054519Y-133442121D03*
X151554519Y-133442121D03*
X170054519Y-133442121D03*
X171554519Y-133442121D03*
X174054519Y-133442121D03*
X175554519Y-133442121D03*
D11*
X152150824Y-108274652D03*
X152150824Y-109774652D03*
X152073102Y-111174652D03*
X152073102Y-112674652D03*
X148450824Y-112674652D03*
X148450824Y-111174652D03*
X139800000Y-84050000D03*
X139800000Y-85550000D03*
X151000000Y-83650000D03*
X151000000Y-82150000D03*
X151000000Y-84850000D03*
X151000000Y-86350000D03*
D13*
X176250000Y-80000000D03*
X174750000Y-80000000D03*
D14*
X154343887Y-117016741D03*
X154343887Y-115516741D03*
D13*
X131729776Y-88444556D03*
X130229776Y-88444556D03*
X167093887Y-101166741D03*
X168593887Y-101166741D03*
D14*
X174700000Y-105750000D03*
X174700000Y-107250000D03*
X174400000Y-115550000D03*
X174400000Y-117050000D03*
X171043887Y-96316741D03*
X171043887Y-97816741D03*
D13*
X130629776Y-74744556D03*
X129129776Y-74744556D03*
X165593887Y-121266741D03*
X164093887Y-121266741D03*
X167193887Y-99466741D03*
X168693887Y-99466741D03*
X161093887Y-101166741D03*
X162593887Y-101166741D03*
X138864888Y-61572278D03*
X137364888Y-61572278D03*
D14*
X190500000Y-104110000D03*
X190500000Y-102610000D03*
X190400000Y-88910000D03*
X190400000Y-87410000D03*
X142000000Y-84150000D03*
X142000000Y-85650000D03*
X150350824Y-112724652D03*
X150350824Y-111224652D03*
D13*
X140550000Y-79100000D03*
X139050000Y-79100000D03*
D15*
X166843887Y-97466741D03*
X169043887Y-97466741D03*
X166843887Y-95866741D03*
X169043887Y-95866741D03*
D16*
X150350824Y-109624652D03*
X150350824Y-107724652D03*
X148351844Y-108674652D03*
D17*
X179000000Y-96052000D03*
D18*
X179000000Y-89448000D03*
X176714000Y-89448000D03*
X181286000Y-89448000D03*
D17*
X158000000Y-86302000D03*
D18*
X158000000Y-79698000D03*
X155714000Y-79698000D03*
X160286000Y-79698000D03*
D17*
X158000000Y-72000000D03*
D18*
X158000000Y-65396000D03*
X155714000Y-65396000D03*
X160286000Y-65396000D03*
D16*
X176504519Y-129441361D03*
X174604519Y-129441361D03*
X175554519Y-131440341D03*
X172504519Y-129441361D03*
X170604519Y-129441361D03*
X171554519Y-131440341D03*
X152504519Y-129441361D03*
X150604519Y-129441361D03*
X151554519Y-131440341D03*
X156554519Y-129442121D03*
X154654519Y-129442121D03*
X155604519Y-131441101D03*
X160504519Y-129441361D03*
X158604519Y-129441361D03*
X159554519Y-131440341D03*
X164504519Y-129441361D03*
X162604519Y-129441361D03*
X163554519Y-131440341D03*
X168504519Y-129441361D03*
X166604519Y-129441361D03*
X167554519Y-131440341D03*
X188499240Y-80310000D03*
X188499240Y-82210000D03*
X190498220Y-81260000D03*
X188399240Y-94110000D03*
X188399240Y-96010000D03*
X190398220Y-95060000D03*
D19*
X179000000Y-133500000D03*
D20*
X189300000Y-133000000D03*
X187100000Y-133000000D03*
X186000000Y-133000000D03*
X184900000Y-133000000D03*
X183800000Y-133000000D03*
X182700000Y-133000000D03*
X181600000Y-133000000D03*
D19*
X193800000Y-133500000D03*
D20*
X188200000Y-133000000D03*
X180500000Y-133000000D03*
D21*
X194700000Y-143100000D03*
X179200000Y-143100000D03*
D22*
X182000000Y-121000000D03*
X186000000Y-121000000D03*
D23*
X171990000Y-77512278D03*
X173990000Y-77512278D03*
X175990000Y-77512278D03*
X177990000Y-77512278D03*
X179990000Y-77512278D03*
X181990000Y-77512278D03*
D24*
X169000000Y-61762278D03*
X169000000Y-63762278D03*
X169000000Y-65762278D03*
X169000000Y-67762278D03*
X169000000Y-69762278D03*
X169000000Y-71762278D03*
X169000000Y-73762278D03*
X169000000Y-75762278D03*
X185000000Y-75762278D03*
X185000000Y-73762278D03*
X185000000Y-71762278D03*
X185000000Y-69762278D03*
X185000000Y-67762278D03*
X185000000Y-65762278D03*
X185000000Y-63762278D03*
X185000000Y-61762278D03*
D25*
X163993887Y-98666741D03*
X161093887Y-98666741D03*
D26*
X157043887Y-105366741D03*
X157043887Y-106166741D03*
X157043887Y-106966741D03*
X157043887Y-107766741D03*
X157043887Y-108566741D03*
X157043887Y-109366741D03*
X157043887Y-110166741D03*
X157043887Y-110966741D03*
X157043887Y-111766741D03*
X157043887Y-112566741D03*
X157043887Y-113366741D03*
X157043887Y-114166741D03*
X157043887Y-114966741D03*
X157043887Y-115766741D03*
X157043887Y-116566741D03*
X157043887Y-117366741D03*
D27*
X158743887Y-119066741D03*
X159543887Y-119066741D03*
X160343887Y-119066741D03*
X161143887Y-119066741D03*
X161943887Y-119066741D03*
X162743887Y-119066741D03*
X163543887Y-119066741D03*
X164343887Y-119066741D03*
X165143887Y-119066741D03*
X165943887Y-119066741D03*
X166743887Y-119066741D03*
X167543887Y-119066741D03*
X168343887Y-119066741D03*
X169143887Y-119066741D03*
X169943887Y-119066741D03*
X170743887Y-119066741D03*
D26*
X172443887Y-117366741D03*
X172443887Y-116566741D03*
X172443887Y-115766741D03*
X172443887Y-114966741D03*
X172443887Y-114166741D03*
X172443887Y-113366741D03*
X172443887Y-112566741D03*
X172443887Y-111766741D03*
X172443887Y-110966741D03*
X172443887Y-110166741D03*
X172443887Y-109366741D03*
X172443887Y-108566741D03*
X172443887Y-107766741D03*
X172443887Y-106966741D03*
X172443887Y-106166741D03*
X172443887Y-105366741D03*
D27*
X170743887Y-103666741D03*
X169943887Y-103666741D03*
X169143887Y-103666741D03*
X168343887Y-103666741D03*
X167543887Y-103666741D03*
X166743887Y-103666741D03*
X165943887Y-103666741D03*
X165143887Y-103666741D03*
X164343887Y-103666741D03*
X163543887Y-103666741D03*
X162743887Y-103666741D03*
X161943887Y-103666741D03*
X161143887Y-103666741D03*
X160343887Y-103666741D03*
X159543887Y-103666741D03*
X158743887Y-103666741D03*
D16*
X141950000Y-80600000D03*
X140050000Y-80600000D03*
X141000000Y-82598980D03*
X141944888Y-87071518D03*
X140044888Y-87071518D03*
X140994888Y-89070498D03*
D28*
X171750000Y-83305000D03*
X171750000Y-81195000D03*
D29*
X174800360Y-84000000D03*
X179199640Y-84000000D03*
X170799640Y-88400000D03*
X166400360Y-88400000D03*
D30*
X145000000Y-72249180D03*
X145000000Y-77750820D03*
D31*
X147750820Y-58000000D03*
X142249180Y-58000000D03*
D13*
X184050000Y-130700000D03*
X185550000Y-130700000D03*
M02*
