M48
;DRILL file {KiCad 4.0.1-stable} date 23.06.2016 01:41:41
;FORMAT={-:-/ absolute / inch / decimal}
FMAT,2
INCH,TZ
T1C0.016
T2C0.020
T3C0.040
T4C0.047
T5C0.039
T6C0.134
%
G90
G05
M72
T1
X5.1436Y-3.1428
X5.4906Y-2.6765
X5.5157Y-3.7638
X5.5591Y-3.7638
X5.5787Y-3.6299
X5.6181Y-3.7638
X6.0962Y-4.2388
X6.1166Y-4.2804
X6.2402Y-4.4252
X6.2421Y-3.9528
X6.2441Y-4.3465
X6.252Y-4.1378
X6.2638Y-4.5354
X6.2815Y-3.9331
X6.2815Y-3.9764
X6.2992Y-4.248
X6.3228Y-4.2087
X6.3622Y-4.5906
X6.4016Y-4.4449
X6.4764Y-4.4094
X6.5039Y-4.5709
X6.5512Y-4.4409
X6.5551Y-4.6102
X6.5755Y-4.1671
X6.5962Y-4.2302
X6.6181Y-4.622
X6.6296Y-4.872
X6.6836Y-4.1483
X6.6969Y-4.4449
X6.7008Y-4.7795
X6.7205Y-4.5394
X6.7362Y-4.4921
X6.7717Y-4.7559
X6.815Y-4.0315
X6.8228Y-4.0748
X6.8378Y-4.6656
X6.8583Y-4.437
X6.8622Y-4.0945
X6.9046Y-4.6608
X6.9055Y-4.3976
X6.9134Y-4.0866
X6.9173Y-4.1299
X6.9193Y-4.7261
X6.9606Y-4.1299
X6.9961Y-4.2126
X6.9961Y-4.2559
X7.0098Y-4.7587
X7.0177Y-4.6921
T2
X5.0906Y-2.8504
X5.128Y-3.4272
X5.2087Y-3.7677
X5.2094Y-4.0193
X5.2335Y-3.5984
X5.622Y-3.2559
X5.6322Y-4.3263
X5.7913Y-3.063
X5.9193Y-2.4587
X6.2441Y-2.3976
X6.3819Y-3.7874
X6.4409Y-4.8287
X6.4921Y-3.2992
X6.5283Y-4.8465
X6.5748Y-4.7559
X6.6951Y-3.9314
X6.9252Y-4.2126
X6.9252Y-4.5945
X7.0591Y-3.4213
X7.063Y-5.1339
X7.1063Y-5.5512
X7.1732Y-5.1378
X7.3504Y-3.374
X7.5984Y-5.5945
X7.626Y-5.1614
T3
X5.3Y-2.2
X5.3Y-2.3
X5.3Y-2.4
X5.3Y-2.7
X5.3Y-2.8
X5.3Y-2.9
X5.3Y-3.
X5.3Y-3.3
X5.3Y-3.4
X5.3Y-3.5
X5.3Y-3.8
X5.3Y-3.9
X5.3Y-4.
X5.3Y-4.1
X5.3Y-4.2
X5.3Y-4.3
X5.3Y-4.4
X5.3Y-4.5
X5.3Y-4.8
X5.3Y-4.9
X5.3Y-5.
X5.3Y-5.1
X5.3Y-5.4
X5.3Y-5.5
X5.4Y-2.7
X5.4Y-2.8
X5.4Y-2.9
X5.4Y-3.
X5.4Y-3.3
X5.4Y-3.4
X5.4Y-3.5
X5.4Y-3.8
X5.4Y-3.9
X5.4Y-4.
X5.4Y-4.1
X5.4Y-4.2
X5.4Y-4.3
X5.4Y-4.4
X5.4Y-4.5
X5.4Y-5.4
X5.4Y-5.5
X5.5Y-5.4
X5.5Y-5.5
X5.7Y-3.3
X5.7Y-3.4
X5.7Y-3.5
X5.7054Y-4.
X5.7054Y-4.1
X5.7054Y-4.2
X5.8Y-5.4
X5.8Y-5.5
X5.8384Y-3.3
X5.8384Y-3.4
X5.8384Y-3.5
X5.9Y-5.4
X5.9Y-5.5
X6.Y-2.2
X6.Y-2.3
X6.Y-5.4
X6.Y-5.5
X6.1Y-2.2
X6.1Y-2.3
X6.1Y-5.4
X6.1Y-5.5
X6.2Y-2.2
X6.2Y-2.3
X6.4Y-5.4
X6.4Y-5.5
X6.5Y-5.4
X6.5Y-5.5
X6.6Y-5.4
X6.6Y-5.5
X6.7Y-5.4
X6.7Y-5.5
X6.8Y-5.4
X6.8Y-5.5
X6.9Y-5.4
X6.9Y-5.5
X7.6Y-3.2
X7.6Y-3.3
X7.6Y-3.4
X7.6Y-3.5
X7.6Y-3.8
X7.6Y-3.9
X7.6Y-4.
X7.6Y-4.1
T4
X5.4528Y-4.8031
X5.5512Y-5.0015
X5.6496Y-4.8031
T5
X7.1654Y-5.6496
X7.4803Y-5.6496
T6
X5.6693Y-2.5591
X5.6693Y-5.1575
X7.5197Y-2.874
X7.5197Y-4.8425
T0
M30
