G04 #@! TF.FileFunction,Copper,L2,Bot,Signal*
%FSLAX46Y46*%
G04 Gerber Fmt 4.6, Leading zero omitted, Abs format (unit mm)*
G04 Created by KiCad (PCBNEW 4.0.1-stable) date 18.06.2016 02:57:01*
%MOMM*%
G01*
G04 APERTURE LIST*
%ADD10C,0.100000*%
%ADD11R,1.800000X1.800000*%
%ADD12O,1.800000X1.800000*%
%ADD13R,2.032000X1.800000*%
%ADD14O,2.032000X1.800000*%
%ADD15C,2.000000*%
%ADD16C,6.000000*%
%ADD17C,2.499360*%
%ADD18C,1.500000*%
%ADD19C,1.000000*%
%ADD20C,0.250000*%
%ADD21C,0.400000*%
%ADD22C,0.254000*%
G04 APERTURE END LIST*
D10*
D11*
X137160000Y-88900000D03*
D12*
X134620000Y-88900000D03*
X137160000Y-86360000D03*
X134620000Y-86360000D03*
X137160000Y-83820000D03*
X134620000Y-83820000D03*
D13*
X148294888Y-88900000D03*
D14*
X148294888Y-86360000D03*
X148294888Y-83820000D03*
D13*
X144780000Y-88900000D03*
D14*
X144780000Y-86360000D03*
X144780000Y-83820000D03*
D13*
X144916000Y-101600000D03*
D14*
X144916000Y-104140000D03*
X144916000Y-106680000D03*
D11*
X162560000Y-139700000D03*
D12*
X162560000Y-137160000D03*
X165100000Y-139700000D03*
X165100000Y-137160000D03*
X167640000Y-139700000D03*
X167640000Y-137160000D03*
X170180000Y-139700000D03*
X170180000Y-137160000D03*
X172720000Y-139700000D03*
X172720000Y-137160000D03*
X175260000Y-139700000D03*
X175260000Y-137160000D03*
D11*
X137160000Y-114300000D03*
D12*
X134620000Y-114300000D03*
X137160000Y-111760000D03*
X134620000Y-111760000D03*
X137160000Y-109220000D03*
X134620000Y-109220000D03*
X137160000Y-106680000D03*
X134620000Y-106680000D03*
X137160000Y-104140000D03*
X134620000Y-104140000D03*
X137160000Y-101600000D03*
X134620000Y-101600000D03*
X137160000Y-99060000D03*
X134620000Y-99060000D03*
X137160000Y-96520000D03*
X134620000Y-96520000D03*
D11*
X147320000Y-139700000D03*
D12*
X147320000Y-137160000D03*
X149860000Y-139700000D03*
X149860000Y-137160000D03*
X152400000Y-139700000D03*
X152400000Y-137160000D03*
X154940000Y-139700000D03*
X154940000Y-137160000D03*
D15*
X182000000Y-143500000D03*
X190000000Y-143500000D03*
D13*
X193040000Y-88900000D03*
D14*
X193040000Y-86360000D03*
X193040000Y-83820000D03*
X193040000Y-81280000D03*
D13*
X193040000Y-104140000D03*
D14*
X193040000Y-101600000D03*
X193040000Y-99060000D03*
X193040000Y-96520000D03*
D11*
X137160000Y-76200000D03*
D12*
X134620000Y-76200000D03*
X137160000Y-73660000D03*
X134620000Y-73660000D03*
X137160000Y-71120000D03*
X134620000Y-71120000D03*
X137160000Y-68580000D03*
X134620000Y-68580000D03*
D13*
X134620000Y-121920000D03*
D14*
X134620000Y-124460000D03*
X134620000Y-127000000D03*
X134620000Y-129540000D03*
D11*
X139700000Y-137160000D03*
D12*
X139700000Y-139700000D03*
X137160000Y-137160000D03*
X137160000Y-139700000D03*
X134620000Y-137160000D03*
X134620000Y-139700000D03*
D11*
X152400000Y-58420000D03*
D12*
X152400000Y-55880000D03*
X154940000Y-58420000D03*
X154940000Y-55880000D03*
X157480000Y-58420000D03*
X157480000Y-55880000D03*
D16*
X144000000Y-131000000D03*
X144000000Y-65000000D03*
X191000000Y-73000000D03*
X191000000Y-123000000D03*
D17*
X141000640Y-127039360D03*
X138501280Y-122000000D03*
X143500000Y-122000000D03*
D13*
X134620000Y-60960000D03*
D14*
X134620000Y-58420000D03*
X134620000Y-55880000D03*
D18*
X132300000Y-95700000D03*
X132929804Y-91400000D03*
X132319979Y-102090687D03*
X176100000Y-107300000D03*
X170054529Y-99858376D03*
X129987639Y-87461557D03*
X164900000Y-83800000D03*
X186700000Y-85700000D03*
X162100000Y-96200000D03*
X175900000Y-116700000D03*
X193700000Y-131100000D03*
X193000000Y-142100000D03*
X180500000Y-141000000D03*
X182200000Y-130500000D03*
X179400000Y-130400000D03*
X163200000Y-122700000D03*
X179300000Y-86900000D03*
X147100000Y-77800000D03*
X142800000Y-82700000D03*
X129300000Y-72400000D03*
X158600000Y-60900000D03*
X165819166Y-123101141D03*
X167000006Y-120800000D03*
X143058266Y-109888085D03*
X142000000Y-91900000D03*
X143438741Y-95859953D03*
X130646967Y-79826660D03*
X141635524Y-96388009D03*
X150400000Y-61900000D03*
X139459973Y-67981846D03*
X140006071Y-95903309D03*
X158743905Y-112000000D03*
X159243866Y-99150996D03*
X158897315Y-110275020D03*
X158153283Y-97846899D03*
X162700000Y-112500000D03*
X178250020Y-119180100D03*
X159100000Y-115200000D03*
X173680228Y-118505376D03*
X164200015Y-115399972D03*
X179522245Y-105238793D03*
X166200000Y-116550000D03*
X178700000Y-100700000D03*
X168400000Y-116900000D03*
X168390888Y-123750020D03*
X161513187Y-116486813D03*
X176500000Y-100900000D03*
X170200000Y-121400000D03*
X175375940Y-118384548D03*
X172000000Y-120800000D03*
X175749980Y-120042901D03*
X178566131Y-106796653D03*
X170634500Y-115010914D03*
X170743854Y-113314427D03*
X178525031Y-102900000D03*
X168588257Y-113315928D03*
X178050020Y-120872178D03*
X163796677Y-107398708D03*
X154742120Y-108369698D03*
X162198868Y-106751172D03*
X153993844Y-106513256D03*
X173579620Y-101570892D03*
X169764188Y-105366753D03*
X173285531Y-103254696D03*
X167018900Y-105844026D03*
X175400000Y-102900000D03*
X167524980Y-107466962D03*
X180400000Y-112100000D03*
X166306519Y-112559669D03*
X183500000Y-111300000D03*
X164411946Y-112248795D03*
X156799996Y-96600000D03*
X158624996Y-106231545D03*
D19*
X132300000Y-95700000D02*
X132800000Y-95200000D01*
X132800000Y-95200000D02*
X132800000Y-91529804D01*
X132800000Y-91529804D02*
X132929804Y-91400000D01*
X132570687Y-102090687D02*
X132319979Y-102090687D01*
X134620000Y-104140000D02*
X132570687Y-102090687D01*
D20*
X137160000Y-73660000D02*
X135934999Y-74885001D01*
X135934999Y-74885001D02*
X135934999Y-82505001D01*
X135934999Y-82505001D02*
X135519999Y-82920001D01*
X135519999Y-82920001D02*
X134620000Y-83820000D01*
D21*
X147100000Y-76739340D02*
X147100000Y-77800000D01*
X140100000Y-60780000D02*
X140100000Y-66677118D01*
X147100000Y-73677118D02*
X147100000Y-76739340D01*
X140100000Y-66677118D02*
X147100000Y-73677118D01*
X191624000Y-104140000D02*
X191624000Y-106076000D01*
X191624000Y-106076000D02*
X182200000Y-115500000D01*
X182200000Y-115500000D02*
X182200000Y-129439340D01*
X182200000Y-129439340D02*
X182200000Y-130500000D01*
X176100000Y-107000000D02*
X176100000Y-107300000D01*
X179152002Y-104150002D02*
X178949998Y-104150002D01*
X178949998Y-104150002D02*
X176100000Y-107000000D01*
X180800000Y-103600000D02*
X179702004Y-103600000D01*
X181340000Y-104140000D02*
X180800000Y-103600000D01*
X179702004Y-103600000D02*
X179152002Y-104150002D01*
X191624000Y-104140000D02*
X181340000Y-104140000D01*
X191624000Y-104140000D02*
X193040000Y-104140000D01*
X169304530Y-99108377D02*
X170054529Y-99858376D01*
X166396153Y-96200000D02*
X169304530Y-99108377D01*
X170804528Y-99108377D02*
X170054529Y-99858376D01*
X179300000Y-90612905D02*
X170804528Y-99108377D01*
X179300000Y-86900000D02*
X179300000Y-90612905D01*
X162100000Y-96200000D02*
X166396153Y-96200000D01*
X159296153Y-89100000D02*
X170054529Y-99858376D01*
X129300000Y-72400000D02*
X128550001Y-73149999D01*
X129237640Y-86711558D02*
X129987639Y-87461557D01*
X128550001Y-86023919D02*
X129237640Y-86711558D01*
X128550001Y-73149999D02*
X128550001Y-86023919D01*
D20*
X137160000Y-88900000D02*
X137160000Y-88173002D01*
X133394999Y-84408001D02*
X133394999Y-74885001D01*
X137160000Y-88173002D02*
X135845001Y-86858003D01*
X135845001Y-86858003D02*
X135845001Y-85771999D01*
X135845001Y-85771999D02*
X135118003Y-85045001D01*
X133720001Y-74559999D02*
X134620000Y-73660000D01*
X135118003Y-85045001D02*
X134031999Y-85045001D01*
X134031999Y-85045001D02*
X133394999Y-84408001D01*
X133394999Y-74885001D02*
X133720001Y-74559999D01*
D21*
X144780000Y-88900000D02*
X144664000Y-88900000D01*
X144664000Y-88900000D02*
X143200000Y-87436000D01*
X143200000Y-87436000D02*
X143200000Y-83100000D01*
X143200000Y-83100000D02*
X142800000Y-82700000D01*
X159096153Y-88900000D02*
X159296153Y-89100000D01*
X164900000Y-83800000D02*
X159600000Y-89100000D01*
X159600000Y-89100000D02*
X159296153Y-89100000D01*
X163200000Y-122700000D02*
X163200000Y-125100000D01*
X163200000Y-125100000D02*
X175260000Y-137160000D01*
X140100000Y-60780000D02*
X135416000Y-60780000D01*
X146180000Y-60780000D02*
X140100000Y-60780000D01*
X185600000Y-86900000D02*
X191040000Y-86900000D01*
X179300000Y-86900000D02*
X185600000Y-86900000D01*
X185600000Y-86900000D02*
X185600000Y-86800000D01*
X185600000Y-86800000D02*
X186700000Y-85700000D01*
X137160000Y-88900000D02*
X144780000Y-88900000D01*
X176900000Y-117700000D02*
X176900000Y-127900000D01*
X176900000Y-127900000D02*
X179400000Y-130400000D01*
X175900000Y-116700000D02*
X176900000Y-117700000D01*
X130700000Y-124424000D02*
X130700000Y-135780000D01*
X130700000Y-135780000D02*
X134620000Y-139700000D01*
X134620000Y-121920000D02*
X133204000Y-121920000D01*
X133204000Y-121920000D02*
X130700000Y-124424000D01*
X193700000Y-131100000D02*
X193700000Y-141400000D01*
X193700000Y-141400000D02*
X193000000Y-142100000D01*
X193000000Y-142100000D02*
X191939340Y-142100000D01*
X191939340Y-142100000D02*
X190839340Y-141000000D01*
X190839340Y-141000000D02*
X181560660Y-141000000D01*
X181560660Y-141000000D02*
X180500000Y-141000000D01*
X180500000Y-141000000D02*
X176660000Y-137160000D01*
X176660000Y-137160000D02*
X175260000Y-137160000D01*
X175260000Y-137160000D02*
X179400000Y-133020000D01*
X179400000Y-133020000D02*
X179400000Y-130400000D01*
X179400000Y-130400000D02*
X182100000Y-130400000D01*
X182100000Y-130400000D02*
X182200000Y-130500000D01*
X148100000Y-107700000D02*
X144040000Y-111760000D01*
X144040000Y-111760000D02*
X137160000Y-111760000D01*
X148100000Y-103368000D02*
X148100000Y-107700000D01*
X144916000Y-101600000D02*
X146332000Y-101600000D01*
X146332000Y-101600000D02*
X148100000Y-103368000D01*
X137160000Y-99060000D02*
X137160000Y-101600000D01*
X137160000Y-101600000D02*
X138432792Y-101600000D01*
X138432792Y-101600000D02*
X144916000Y-101600000D01*
X137160000Y-104140000D02*
X137160000Y-106680000D01*
X137160000Y-109220000D02*
X137160000Y-106680000D01*
X137160000Y-111760000D02*
X137160000Y-109220000D01*
X137160000Y-114300000D02*
X137160000Y-111760000D01*
X143500000Y-122000000D02*
X137160000Y-115660000D01*
X137160000Y-115660000D02*
X137160000Y-114300000D01*
X139350959Y-133050959D02*
X146000000Y-139700000D01*
X146000000Y-139700000D02*
X147320000Y-139700000D01*
X143500000Y-122000000D02*
X141732686Y-122000000D01*
X141732686Y-122000000D02*
X139350959Y-124381727D01*
X139350959Y-124381727D02*
X139350959Y-133050959D01*
X157160000Y-143800000D02*
X138720000Y-143800000D01*
X138720000Y-143800000D02*
X134620000Y-139700000D01*
X162560000Y-139700000D02*
X161260000Y-139700000D01*
X161260000Y-139700000D02*
X157160000Y-143800000D01*
X134620000Y-121920000D02*
X134620000Y-116840000D01*
X134620000Y-116840000D02*
X137160000Y-114300000D01*
X163200000Y-122700000D02*
X144200000Y-122700000D01*
X144200000Y-122700000D02*
X143500000Y-122000000D01*
X148294888Y-88900000D02*
X159096153Y-88900000D01*
X191040000Y-86900000D02*
X191624000Y-87484000D01*
X191624000Y-87484000D02*
X191624000Y-87600000D01*
X191624000Y-87600000D02*
X192924000Y-88900000D01*
X192924000Y-88900000D02*
X193040000Y-88900000D01*
X193040000Y-104140000D02*
X193156000Y-104140000D01*
X193040000Y-90200000D02*
X193040000Y-88900000D01*
X193156000Y-104140000D02*
X194456010Y-102839990D01*
X194456010Y-102839990D02*
X194456010Y-91616010D01*
X194456010Y-91616010D02*
X193040000Y-90200000D01*
X149100000Y-63700000D02*
X146180000Y-60780000D01*
X134116000Y-62080000D02*
X134000000Y-62080000D01*
X135416000Y-60780000D02*
X134116000Y-62080000D01*
X151700000Y-63700000D02*
X149100000Y-63700000D01*
X152000000Y-63400000D02*
X151700000Y-63700000D01*
X152000000Y-60120000D02*
X152000000Y-63400000D01*
X152400000Y-58420000D02*
X152400000Y-59720000D01*
X152400000Y-59720000D02*
X152000000Y-60120000D01*
X152400000Y-55880000D02*
X152400000Y-58420000D01*
X130580000Y-71120000D02*
X132300000Y-71120000D01*
X134000000Y-62080000D02*
X134000000Y-63380000D01*
X132300000Y-71120000D02*
X134620000Y-71120000D01*
X134000000Y-63380000D02*
X132300000Y-65080000D01*
X132300000Y-65080000D02*
X132300000Y-71120000D01*
X147100000Y-77800000D02*
X142800000Y-82100000D01*
X142800000Y-82100000D02*
X142800000Y-82700000D01*
X129300000Y-72400000D02*
X130580000Y-71120000D01*
X158600000Y-60900000D02*
X157420000Y-60900000D01*
X157420000Y-60900000D02*
X154940000Y-58420000D01*
X167000006Y-121920301D02*
X166569165Y-122351142D01*
X167000006Y-120800000D02*
X167000006Y-121920301D01*
X166569165Y-122351142D02*
X165819166Y-123101141D01*
X144916000Y-106680000D02*
X142980000Y-106680000D01*
X142980000Y-106680000D02*
X140400000Y-104100000D01*
X140400000Y-104100000D02*
X139349998Y-104100000D01*
X139349998Y-104100000D02*
X138074999Y-102825001D01*
X144916000Y-106680000D02*
X144916000Y-108030351D01*
X143808265Y-109138086D02*
X143058266Y-109888085D01*
X144916000Y-108030351D02*
X143808265Y-109138086D01*
D20*
X134620000Y-101600000D02*
X135845001Y-102825001D01*
X135845001Y-102825001D02*
X138074999Y-102825001D01*
X138074999Y-102825001D02*
X138100000Y-102800000D01*
X143438741Y-95859953D02*
X142659953Y-95859953D01*
X142659953Y-95859953D02*
X142000000Y-95200000D01*
X142000000Y-95200000D02*
X141800000Y-95200000D01*
X141800000Y-95200000D02*
X141400000Y-94800000D01*
X141400000Y-92500000D02*
X142000000Y-91900000D01*
X141400000Y-94800000D02*
X141400000Y-92500000D01*
X141635524Y-96388009D02*
X141635524Y-95771916D01*
X141635524Y-95771916D02*
X140949989Y-95086381D01*
X140949989Y-95086381D02*
X140949989Y-92549989D01*
X140949989Y-92549989D02*
X139500000Y-91100000D01*
X139500000Y-91100000D02*
X135077433Y-91100000D01*
X135077433Y-91100000D02*
X131725013Y-87747580D01*
X131725013Y-87747580D02*
X131725013Y-80904706D01*
X131725013Y-80904706D02*
X131396966Y-80576659D01*
X131396966Y-80576659D02*
X130646967Y-79826660D01*
D21*
X146099999Y-141000001D02*
X148559999Y-141000001D01*
X138501280Y-133401282D02*
X146099999Y-141000001D01*
X148960001Y-140599999D02*
X149860000Y-139700000D01*
X138501280Y-122000000D02*
X138501280Y-133401282D01*
X148559999Y-141000001D02*
X148960001Y-140599999D01*
D20*
X173945001Y-138385001D02*
X174360001Y-138800001D01*
X164266413Y-138385001D02*
X173945001Y-138385001D01*
X163041412Y-137160000D02*
X164266413Y-138385001D01*
X162560000Y-137160000D02*
X163041412Y-137160000D01*
X174360001Y-138800001D02*
X175260000Y-139700000D01*
D21*
X150400000Y-55955998D02*
X150400000Y-61900000D01*
X154940000Y-55880000D02*
X153639999Y-54579999D01*
X153639999Y-54579999D02*
X151775999Y-54579999D01*
X151775999Y-54579999D02*
X150400000Y-55955998D01*
D20*
X139459973Y-67981846D02*
X139459973Y-70633029D01*
X139459973Y-70633029D02*
X137658003Y-72434999D01*
X137658003Y-72434999D02*
X134031999Y-72434999D01*
X134031999Y-72434999D02*
X129349493Y-77117505D01*
X129349493Y-80049493D02*
X131275002Y-81975002D01*
X129349493Y-77117505D02*
X129349493Y-80049493D01*
X131275002Y-81975002D02*
X131275002Y-87933980D01*
X131275002Y-87933980D02*
X134941022Y-91600000D01*
X134941022Y-91600000D02*
X139300000Y-91600000D01*
X139300000Y-91600000D02*
X140400000Y-92700000D01*
X140400000Y-92700000D02*
X140400000Y-95509380D01*
X140400000Y-95509380D02*
X140006071Y-95903309D01*
X164871697Y-104734316D02*
X160038376Y-99900995D01*
X164871697Y-108019307D02*
X164871697Y-104734316D01*
X157800000Y-109800000D02*
X158400000Y-109200000D01*
X157800000Y-111056095D02*
X157800000Y-109800000D01*
X160626339Y-109200000D02*
X161352611Y-108473728D01*
X160038376Y-99900995D02*
X159993865Y-99900995D01*
X161352611Y-108473728D02*
X164417276Y-108473728D01*
X158743905Y-112000000D02*
X157800000Y-111056095D01*
X158400000Y-109200000D02*
X160626339Y-109200000D01*
X159993865Y-99900995D02*
X159243866Y-99150996D01*
X164417276Y-108473728D02*
X164871697Y-108019307D01*
X160187730Y-110275020D02*
X159957975Y-110275020D01*
X161539011Y-108923739D02*
X160187730Y-110275020D01*
X165321708Y-104521708D02*
X165321708Y-108205707D01*
X160500000Y-98839340D02*
X160500000Y-99700000D01*
X158153283Y-97846899D02*
X159507559Y-97846899D01*
X159957975Y-110275020D02*
X158897315Y-110275020D01*
X160500000Y-99700000D02*
X165321708Y-104521708D01*
X165321708Y-108205707D02*
X164603676Y-108923739D01*
X164603676Y-108923739D02*
X161539011Y-108923739D01*
X159507559Y-97846899D02*
X160500000Y-98839340D01*
X166166065Y-114390930D02*
X169104259Y-114390930D01*
X169663259Y-113831930D02*
X169663259Y-112804041D01*
X170267300Y-112200000D02*
X171220450Y-112200000D01*
X169104259Y-114390930D02*
X169663259Y-113831930D01*
X162700000Y-112500000D02*
X163577480Y-113377480D01*
X169663259Y-112804041D02*
X170267300Y-112200000D01*
X163577480Y-113377480D02*
X165152615Y-113377480D01*
X165152615Y-113377480D02*
X166166065Y-114390930D01*
X171220450Y-112200000D02*
X171818874Y-112798424D01*
X172913600Y-114750011D02*
X175541013Y-114750011D01*
X171818874Y-112798424D02*
X171818874Y-113655285D01*
X171818874Y-113655285D02*
X172913600Y-114750011D01*
X178250020Y-118119440D02*
X178250020Y-119180100D01*
X175541013Y-114750011D02*
X178250020Y-117459018D01*
X178250020Y-117459018D02*
X178250020Y-118119440D01*
X159100000Y-115200000D02*
X159100000Y-116260660D01*
X167300000Y-117400000D02*
X167300000Y-116284885D01*
X166800000Y-117900000D02*
X167300000Y-117400000D01*
X159100000Y-116260660D02*
X160739340Y-117900000D01*
X167300000Y-116284885D02*
X167806524Y-115778361D01*
X172619568Y-118505376D02*
X173680228Y-118505376D01*
X167806524Y-115778361D02*
X169174534Y-115778361D01*
X169174534Y-115778361D02*
X171901549Y-118505376D01*
X160739340Y-117900000D02*
X166800000Y-117900000D01*
X171901549Y-118505376D02*
X172619568Y-118505376D01*
X179522245Y-105238793D02*
X178603684Y-105238793D01*
X178603684Y-105238793D02*
X177325011Y-106517466D01*
X176741013Y-108449989D02*
X172713600Y-108449989D01*
X177325011Y-106517466D02*
X177325011Y-107865991D01*
X161168939Y-111839455D02*
X161168939Y-113218939D01*
X163450016Y-114649973D02*
X164200015Y-115399972D01*
X177325011Y-107865991D02*
X176741013Y-108449989D01*
X172713600Y-108449989D02*
X171271594Y-109891996D01*
X171271594Y-109891996D02*
X166181063Y-109891996D01*
X161168939Y-113218939D02*
X162599973Y-114649973D01*
X166181063Y-109891996D02*
X165349276Y-110723783D01*
X165349276Y-110723783D02*
X162284611Y-110723783D01*
X162284611Y-110723783D02*
X161168939Y-111839455D01*
X162599973Y-114649973D02*
X163450016Y-114649973D01*
X166200000Y-116550000D02*
X165468745Y-117281255D01*
X177430802Y-103705609D02*
X177430802Y-101969198D01*
X165468745Y-117281255D02*
X163853838Y-117281255D01*
X163853838Y-117281255D02*
X160268917Y-113696334D01*
X160268917Y-113696334D02*
X160268917Y-111466655D01*
X172654400Y-107199956D02*
X173936455Y-107199956D01*
X160268917Y-111466655D02*
X161911811Y-109823761D01*
X161911811Y-109823761D02*
X164976476Y-109823761D01*
X164976476Y-109823761D02*
X165808263Y-108991974D01*
X165808263Y-108991974D02*
X170862383Y-108991974D01*
X170862383Y-108991974D02*
X172654400Y-107199956D01*
X177430802Y-101969198D02*
X178700000Y-100700000D01*
X173936455Y-107199956D02*
X177430802Y-103705609D01*
X168400000Y-116900000D02*
X168390888Y-116909112D01*
X168390888Y-116909112D02*
X168390888Y-123750020D01*
X160763188Y-115736814D02*
X161513187Y-116486813D01*
X160763188Y-114863188D02*
X160763188Y-115736814D01*
X176500000Y-100900000D02*
X176500000Y-104000000D01*
X159818906Y-113918906D02*
X160763188Y-114863188D01*
X176500000Y-104000000D02*
X173750055Y-106749945D01*
X159818906Y-111280255D02*
X159818906Y-113918906D01*
X161725411Y-109373750D02*
X159818906Y-111280255D01*
X165621863Y-108541963D02*
X164790076Y-109373750D01*
X170675983Y-108541963D02*
X165621863Y-108541963D01*
X164790076Y-109373750D02*
X161725411Y-109373750D01*
X172468000Y-106749945D02*
X170675983Y-108541963D01*
X173750055Y-106749945D02*
X172468000Y-106749945D01*
X170200000Y-120339340D02*
X170200000Y-121400000D01*
X175375940Y-118384548D02*
X174160488Y-119600000D01*
X174160488Y-119600000D02*
X170939340Y-119600000D01*
X170939340Y-119600000D02*
X170200000Y-120339340D01*
X174992881Y-120800000D02*
X173060660Y-120800000D01*
X175749980Y-120042901D02*
X174992881Y-120800000D01*
X173060660Y-120800000D02*
X172000000Y-120800000D01*
X170634500Y-115010914D02*
X170464527Y-114840941D01*
X162471011Y-111173794D02*
X165535676Y-111173794D01*
X170464527Y-114840941D02*
X165979665Y-114840941D01*
X165979665Y-114840941D02*
X165066998Y-113928274D01*
X165066998Y-113928274D02*
X162528274Y-113928274D01*
X161618950Y-112025855D02*
X162471011Y-111173794D01*
X166367463Y-110342007D02*
X171457993Y-110342007D01*
X162528274Y-113928274D02*
X161618950Y-113018950D01*
X161618950Y-113018950D02*
X161618950Y-112025855D01*
X172900000Y-108900000D02*
X177523444Y-108900000D01*
X165535676Y-111173794D02*
X166367463Y-110342007D01*
X171457993Y-110342007D02*
X172900000Y-108900000D01*
X177523444Y-108900000D02*
X178566131Y-107857313D01*
X178566131Y-107857313D02*
X178566131Y-106796653D01*
X170743854Y-113314427D02*
X171800000Y-114370573D01*
X174122855Y-107649967D02*
X178525031Y-103247791D01*
X171800000Y-114370573D02*
X171800000Y-115591959D01*
X171800000Y-115591959D02*
X171306044Y-116085915D01*
X171306044Y-116085915D02*
X170118499Y-116085915D01*
X169356943Y-115324359D02*
X165875641Y-115324359D01*
X171048783Y-109441985D02*
X172840800Y-107649967D01*
X163683991Y-116475009D02*
X160718928Y-113509946D01*
X170118499Y-116085915D02*
X169356943Y-115324359D01*
X165875641Y-115324359D02*
X164724991Y-116475009D01*
X164724991Y-116475009D02*
X163683991Y-116475009D01*
X160718928Y-113509946D02*
X160718928Y-111653055D01*
X160718928Y-111653055D02*
X162098211Y-110273772D01*
X165994663Y-109441985D02*
X171048783Y-109441985D01*
X162098211Y-110273772D02*
X165162876Y-110273772D01*
X165162876Y-110273772D02*
X165994663Y-109441985D01*
X172840800Y-107649967D02*
X174122855Y-107649967D01*
X178525031Y-103247791D02*
X178525031Y-102900000D01*
X168588257Y-112255268D02*
X168588257Y-113315928D01*
X171348900Y-111692040D02*
X169151485Y-111692040D01*
X172268885Y-112612025D02*
X171348900Y-111692040D01*
X172268885Y-113468885D02*
X172268885Y-112612025D01*
X173100000Y-114300000D02*
X172268885Y-113468885D01*
X179325022Y-117897609D02*
X175727413Y-114300000D01*
X179325022Y-120657836D02*
X179325022Y-117897609D01*
X169151485Y-111692040D02*
X168588257Y-112255268D01*
X179110680Y-120872178D02*
X179325022Y-120657836D01*
X178050020Y-120872178D02*
X179110680Y-120872178D01*
X175727413Y-114300000D02*
X173100000Y-114300000D01*
X163796677Y-107398708D02*
X163171668Y-108023717D01*
X160942494Y-107800000D02*
X156372478Y-107800000D01*
X155802780Y-108369698D02*
X154742120Y-108369698D01*
X156372478Y-107800000D02*
X155802780Y-108369698D01*
X161166211Y-108023717D02*
X160942494Y-107800000D01*
X163171668Y-108023717D02*
X161166211Y-108023717D01*
X161138208Y-106751172D02*
X160539391Y-107349989D01*
X160539391Y-107349989D02*
X155891237Y-107349989D01*
X155054504Y-106513256D02*
X153993844Y-106513256D01*
X162198868Y-106751172D02*
X161138208Y-106751172D01*
X155891237Y-107349989D02*
X155054504Y-106513256D01*
X173429108Y-101570892D02*
X173579620Y-101570892D01*
X172200000Y-102800000D02*
X173429108Y-101570892D01*
X172200000Y-103900000D02*
X172200000Y-102800000D01*
X170733247Y-105366753D02*
X172200000Y-103900000D01*
X169764188Y-105366753D02*
X170733247Y-105366753D01*
X173285531Y-103478059D02*
X173285531Y-103254696D01*
X168735534Y-106500000D02*
X170263590Y-106500000D01*
X168079560Y-105844026D02*
X168735534Y-106500000D01*
X170263590Y-106500000D02*
X173285531Y-103478059D01*
X167018900Y-105844026D02*
X168079560Y-105844026D01*
X167524980Y-107466962D02*
X167991942Y-107000000D01*
X167991942Y-107000000D02*
X170600000Y-107000000D01*
X170600000Y-107000000D02*
X173200000Y-104400000D01*
X173900000Y-104400000D02*
X174650001Y-103649999D01*
X173200000Y-104400000D02*
X173900000Y-104400000D01*
X174650001Y-103649999D02*
X175400000Y-102900000D01*
X180400000Y-112100000D02*
X179500000Y-113000000D01*
X179500000Y-113000000D02*
X172900000Y-113000000D01*
X172900000Y-113000000D02*
X172718895Y-112818895D01*
X172718895Y-112818895D02*
X172718895Y-112425625D01*
X172718895Y-112425625D02*
X171700000Y-111406730D01*
X171700000Y-111406730D02*
X171700000Y-111400000D01*
X171700000Y-111400000D02*
X171542029Y-111242029D01*
X171542029Y-111242029D02*
X167624159Y-111242029D01*
X167624159Y-111242029D02*
X166306519Y-112559669D01*
X182439340Y-111300000D02*
X183500000Y-111300000D01*
X164411946Y-112248795D02*
X165097086Y-112248795D01*
X166553863Y-110792018D02*
X181931358Y-110792018D01*
X165097086Y-112248795D02*
X166553863Y-110792018D01*
X181931358Y-110792018D02*
X182439340Y-111300000D01*
X156799996Y-97660660D02*
X156799996Y-96600000D01*
X156799996Y-98253617D02*
X156799996Y-97660660D01*
X158890012Y-100343633D02*
X156799996Y-98253617D01*
X164300000Y-104800000D02*
X159843633Y-100343633D01*
X164000000Y-105600000D02*
X164300000Y-105300000D01*
X160968455Y-106231545D02*
X161600000Y-105600000D01*
X161600000Y-105600000D02*
X164000000Y-105600000D01*
X158624996Y-106231545D02*
X160968455Y-106231545D01*
X159843633Y-100343633D02*
X158890012Y-100343633D01*
X164300000Y-105300000D02*
X164300000Y-104800000D01*
X165100000Y-139700000D02*
X164945002Y-139700000D01*
X164945002Y-139700000D02*
X163630003Y-138385001D01*
X163630003Y-138385001D02*
X146185001Y-138385001D01*
X146185001Y-138385001D02*
X140500000Y-132700000D01*
X140500000Y-132700000D02*
X140500000Y-127540000D01*
X140500000Y-127540000D02*
X141000640Y-127039360D01*
D22*
G36*
X167873000Y-59000000D02*
X167881685Y-59046159D01*
X167908965Y-59088553D01*
X167950590Y-59116994D01*
X168000000Y-59127000D01*
X186000000Y-59127000D01*
X186046159Y-59118315D01*
X186088553Y-59091035D01*
X186116994Y-59049410D01*
X186127000Y-59000000D01*
X186127000Y-52402000D01*
X197598000Y-52402000D01*
X197598000Y-146598000D01*
X127402000Y-146598000D01*
X127402000Y-143762798D01*
X180672771Y-143762798D01*
X180874369Y-144250703D01*
X181247334Y-144624319D01*
X181734885Y-144826769D01*
X182262798Y-144827229D01*
X182750703Y-144625631D01*
X183124319Y-144252666D01*
X183326769Y-143765115D01*
X183326771Y-143762798D01*
X188672771Y-143762798D01*
X188874369Y-144250703D01*
X189247334Y-144624319D01*
X189734885Y-144826769D01*
X190262798Y-144827229D01*
X190750703Y-144625631D01*
X191124319Y-144252666D01*
X191326769Y-143765115D01*
X191327229Y-143237202D01*
X191125631Y-142749297D01*
X190752666Y-142375681D01*
X190265115Y-142173231D01*
X189737202Y-142172771D01*
X189249297Y-142374369D01*
X188875681Y-142747334D01*
X188673231Y-143234885D01*
X188672771Y-143762798D01*
X183326771Y-143762798D01*
X183327229Y-143237202D01*
X183125631Y-142749297D01*
X182752666Y-142375681D01*
X182265115Y-142173231D01*
X181737202Y-142172771D01*
X181249297Y-142374369D01*
X180875681Y-142747334D01*
X180673231Y-143234885D01*
X180672771Y-143762798D01*
X127402000Y-143762798D01*
X127402000Y-139914628D01*
X133411918Y-139914628D01*
X133421740Y-139964024D01*
X133613990Y-140402480D01*
X133959395Y-140733990D01*
X134405371Y-140908085D01*
X134597000Y-140845037D01*
X134597000Y-139723000D01*
X134643000Y-139723000D01*
X134643000Y-140845037D01*
X134834629Y-140908085D01*
X135280605Y-140733990D01*
X135626010Y-140402480D01*
X135818260Y-139964024D01*
X135828082Y-139914628D01*
X135765019Y-139723000D01*
X134643000Y-139723000D01*
X134597000Y-139723000D01*
X133474981Y-139723000D01*
X133411918Y-139914628D01*
X127402000Y-139914628D01*
X127402000Y-139700000D01*
X135908962Y-139700000D01*
X136002362Y-140169553D01*
X136268342Y-140567620D01*
X136666409Y-140833600D01*
X137135962Y-140927000D01*
X137184038Y-140927000D01*
X137653591Y-140833600D01*
X138051658Y-140567620D01*
X138317638Y-140169553D01*
X138411038Y-139700000D01*
X138448962Y-139700000D01*
X138542362Y-140169553D01*
X138808342Y-140567620D01*
X139206409Y-140833600D01*
X139675962Y-140927000D01*
X139724038Y-140927000D01*
X140193591Y-140833600D01*
X140591658Y-140567620D01*
X140857638Y-140169553D01*
X140951038Y-139700000D01*
X140857638Y-139230447D01*
X140591658Y-138832380D01*
X140193591Y-138566400D01*
X139724038Y-138473000D01*
X139675962Y-138473000D01*
X139206409Y-138566400D01*
X138808342Y-138832380D01*
X138542362Y-139230447D01*
X138448962Y-139700000D01*
X138411038Y-139700000D01*
X138317638Y-139230447D01*
X138051658Y-138832380D01*
X137653591Y-138566400D01*
X137184038Y-138473000D01*
X137135962Y-138473000D01*
X136666409Y-138566400D01*
X136268342Y-138832380D01*
X136002362Y-139230447D01*
X135908962Y-139700000D01*
X127402000Y-139700000D01*
X127402000Y-139485372D01*
X133411918Y-139485372D01*
X133474981Y-139677000D01*
X134597000Y-139677000D01*
X134597000Y-138554963D01*
X134643000Y-138554963D01*
X134643000Y-139677000D01*
X135765019Y-139677000D01*
X135828082Y-139485372D01*
X135818260Y-139435976D01*
X135626010Y-138997520D01*
X135280605Y-138666010D01*
X134834629Y-138491915D01*
X134643000Y-138554963D01*
X134597000Y-138554963D01*
X134405371Y-138491915D01*
X133959395Y-138666010D01*
X133613990Y-138997520D01*
X133421740Y-139435976D01*
X133411918Y-139485372D01*
X127402000Y-139485372D01*
X127402000Y-137160000D01*
X133368962Y-137160000D01*
X133462362Y-137629553D01*
X133728342Y-138027620D01*
X134126409Y-138293600D01*
X134595962Y-138387000D01*
X134644038Y-138387000D01*
X135113591Y-138293600D01*
X135511658Y-138027620D01*
X135777638Y-137629553D01*
X135871038Y-137160000D01*
X135908962Y-137160000D01*
X136002362Y-137629553D01*
X136268342Y-138027620D01*
X136666409Y-138293600D01*
X137135962Y-138387000D01*
X137184038Y-138387000D01*
X137653591Y-138293600D01*
X138051658Y-138027620D01*
X138317638Y-137629553D01*
X138411038Y-137160000D01*
X138317638Y-136690447D01*
X138051658Y-136292380D01*
X137653591Y-136026400D01*
X137184038Y-135933000D01*
X137135962Y-135933000D01*
X136666409Y-136026400D01*
X136268342Y-136292380D01*
X136002362Y-136690447D01*
X135908962Y-137160000D01*
X135871038Y-137160000D01*
X135777638Y-136690447D01*
X135511658Y-136292380D01*
X135113591Y-136026400D01*
X134644038Y-135933000D01*
X134595962Y-135933000D01*
X134126409Y-136026400D01*
X133728342Y-136292380D01*
X133462362Y-136690447D01*
X133368962Y-137160000D01*
X127402000Y-137160000D01*
X127402000Y-129540000D01*
X133250689Y-129540000D01*
X133344089Y-130009553D01*
X133610069Y-130407620D01*
X134008136Y-130673600D01*
X134477689Y-130767000D01*
X134762311Y-130767000D01*
X135231864Y-130673600D01*
X135629931Y-130407620D01*
X135895911Y-130009553D01*
X135989311Y-129540000D01*
X135895911Y-129070447D01*
X135629931Y-128672380D01*
X135231864Y-128406400D01*
X134762311Y-128313000D01*
X134477689Y-128313000D01*
X134008136Y-128406400D01*
X133610069Y-128672380D01*
X133344089Y-129070447D01*
X133250689Y-129540000D01*
X127402000Y-129540000D01*
X127402000Y-127000000D01*
X133250689Y-127000000D01*
X133344089Y-127469553D01*
X133610069Y-127867620D01*
X134008136Y-128133600D01*
X134477689Y-128227000D01*
X134762311Y-128227000D01*
X135231864Y-128133600D01*
X135629931Y-127867620D01*
X135895911Y-127469553D01*
X135989311Y-127000000D01*
X135895911Y-126530447D01*
X135629931Y-126132380D01*
X135231864Y-125866400D01*
X134762311Y-125773000D01*
X134477689Y-125773000D01*
X134008136Y-125866400D01*
X133610069Y-126132380D01*
X133344089Y-126530447D01*
X133250689Y-127000000D01*
X127402000Y-127000000D01*
X127402000Y-124460000D01*
X133250689Y-124460000D01*
X133344089Y-124929553D01*
X133610069Y-125327620D01*
X134008136Y-125593600D01*
X134477689Y-125687000D01*
X134762311Y-125687000D01*
X135231864Y-125593600D01*
X135629931Y-125327620D01*
X135895911Y-124929553D01*
X135989311Y-124460000D01*
X135895911Y-123990447D01*
X135629931Y-123592380D01*
X135231864Y-123326400D01*
X134762311Y-123233000D01*
X134477689Y-123233000D01*
X134008136Y-123326400D01*
X133610069Y-123592380D01*
X133344089Y-123990447D01*
X133250689Y-124460000D01*
X127402000Y-124460000D01*
X127402000Y-122024750D01*
X133277000Y-122024750D01*
X133277000Y-122885044D01*
X133326783Y-123005230D01*
X133418769Y-123097217D01*
X133538955Y-123147000D01*
X134515250Y-123147000D01*
X134597000Y-123065250D01*
X134597000Y-121943000D01*
X134643000Y-121943000D01*
X134643000Y-123065250D01*
X134724750Y-123147000D01*
X135701045Y-123147000D01*
X135821231Y-123097217D01*
X135913217Y-123005230D01*
X135963000Y-122885044D01*
X135963000Y-122312245D01*
X136924327Y-122312245D01*
X137163856Y-122891951D01*
X137606996Y-123335865D01*
X137974280Y-123488375D01*
X137974280Y-133401282D01*
X138014395Y-133602957D01*
X138128635Y-133773927D01*
X140281302Y-135926594D01*
X138800000Y-135926594D01*
X138678821Y-135949395D01*
X138567526Y-136021012D01*
X138492862Y-136130286D01*
X138466594Y-136260000D01*
X138466594Y-138060000D01*
X138489395Y-138181179D01*
X138561012Y-138292474D01*
X138670286Y-138367138D01*
X138800000Y-138393406D01*
X140600000Y-138393406D01*
X140721179Y-138370605D01*
X140832474Y-138298988D01*
X140907138Y-138189714D01*
X140933406Y-138060000D01*
X140933406Y-136578698D01*
X145727353Y-141372646D01*
X145841593Y-141448979D01*
X145898325Y-141486886D01*
X146099999Y-141527001D01*
X148559999Y-141527001D01*
X148761674Y-141486886D01*
X148932644Y-141372646D01*
X149454223Y-140851067D01*
X149835962Y-140927000D01*
X149884038Y-140927000D01*
X150353591Y-140833600D01*
X150751658Y-140567620D01*
X151017638Y-140169553D01*
X151111038Y-139700000D01*
X151017638Y-139230447D01*
X150754746Y-138837001D01*
X151505254Y-138837001D01*
X151242362Y-139230447D01*
X151148962Y-139700000D01*
X151242362Y-140169553D01*
X151508342Y-140567620D01*
X151906409Y-140833600D01*
X152375962Y-140927000D01*
X152424038Y-140927000D01*
X152893591Y-140833600D01*
X153291658Y-140567620D01*
X153557638Y-140169553D01*
X153651038Y-139700000D01*
X153557638Y-139230447D01*
X153294746Y-138837001D01*
X154045254Y-138837001D01*
X153782362Y-139230447D01*
X153688962Y-139700000D01*
X153782362Y-140169553D01*
X154048342Y-140567620D01*
X154446409Y-140833600D01*
X154915962Y-140927000D01*
X154964038Y-140927000D01*
X155433591Y-140833600D01*
X155831658Y-140567620D01*
X156097638Y-140169553D01*
X156170201Y-139804750D01*
X161333000Y-139804750D01*
X161333000Y-140665045D01*
X161382783Y-140785231D01*
X161474770Y-140877217D01*
X161594956Y-140927000D01*
X162455250Y-140927000D01*
X162537000Y-140845250D01*
X162537000Y-139723000D01*
X162583000Y-139723000D01*
X162583000Y-140845250D01*
X162664750Y-140927000D01*
X163525044Y-140927000D01*
X163645230Y-140877217D01*
X163737217Y-140785231D01*
X163787000Y-140665045D01*
X163787000Y-139804750D01*
X163705250Y-139723000D01*
X162583000Y-139723000D01*
X162537000Y-139723000D01*
X161414750Y-139723000D01*
X161333000Y-139804750D01*
X156170201Y-139804750D01*
X156191038Y-139700000D01*
X156097638Y-139230447D01*
X155834746Y-138837001D01*
X161333000Y-138837001D01*
X161333000Y-139595250D01*
X161414750Y-139677000D01*
X162537000Y-139677000D01*
X162537000Y-139657000D01*
X162583000Y-139657000D01*
X162583000Y-139677000D01*
X163705250Y-139677000D01*
X163787000Y-139595250D01*
X163787000Y-139181222D01*
X163924753Y-139318975D01*
X163848962Y-139700000D01*
X163942362Y-140169553D01*
X164208342Y-140567620D01*
X164606409Y-140833600D01*
X165075962Y-140927000D01*
X165124038Y-140927000D01*
X165593591Y-140833600D01*
X165991658Y-140567620D01*
X166257638Y-140169553D01*
X166351038Y-139700000D01*
X166257638Y-139230447D01*
X165994746Y-138837001D01*
X166745254Y-138837001D01*
X166482362Y-139230447D01*
X166388962Y-139700000D01*
X166482362Y-140169553D01*
X166748342Y-140567620D01*
X167146409Y-140833600D01*
X167615962Y-140927000D01*
X167664038Y-140927000D01*
X168133591Y-140833600D01*
X168531658Y-140567620D01*
X168797638Y-140169553D01*
X168891038Y-139700000D01*
X168797638Y-139230447D01*
X168534746Y-138837001D01*
X169285254Y-138837001D01*
X169022362Y-139230447D01*
X168928962Y-139700000D01*
X169022362Y-140169553D01*
X169288342Y-140567620D01*
X169686409Y-140833600D01*
X170155962Y-140927000D01*
X170204038Y-140927000D01*
X170673591Y-140833600D01*
X171071658Y-140567620D01*
X171337638Y-140169553D01*
X171431038Y-139700000D01*
X171337638Y-139230447D01*
X171074746Y-138837001D01*
X171825254Y-138837001D01*
X171562362Y-139230447D01*
X171468962Y-139700000D01*
X171562362Y-140169553D01*
X171828342Y-140567620D01*
X172226409Y-140833600D01*
X172695962Y-140927000D01*
X172744038Y-140927000D01*
X173213591Y-140833600D01*
X173611658Y-140567620D01*
X173877638Y-140169553D01*
X173971038Y-139700000D01*
X173877638Y-139230447D01*
X173614746Y-138837001D01*
X173757777Y-138837001D01*
X174040389Y-139119614D01*
X174040392Y-139119616D01*
X174121933Y-139201157D01*
X174102362Y-139230447D01*
X174008962Y-139700000D01*
X174102362Y-140169553D01*
X174368342Y-140567620D01*
X174766409Y-140833600D01*
X175235962Y-140927000D01*
X175284038Y-140927000D01*
X175753591Y-140833600D01*
X176151658Y-140567620D01*
X176417638Y-140169553D01*
X176511038Y-139700000D01*
X176417638Y-139230447D01*
X176151658Y-138832380D01*
X175753591Y-138566400D01*
X175284038Y-138473000D01*
X175235962Y-138473000D01*
X174766409Y-138566400D01*
X174765938Y-138566714D01*
X174679616Y-138480392D01*
X174679614Y-138480389D01*
X174264613Y-138065389D01*
X174117974Y-137967407D01*
X173945001Y-137933001D01*
X173674880Y-137933001D01*
X173877638Y-137629553D01*
X173928345Y-137374628D01*
X174051918Y-137374628D01*
X174061740Y-137424024D01*
X174253990Y-137862480D01*
X174599395Y-138193990D01*
X175045371Y-138368085D01*
X175237000Y-138305037D01*
X175237000Y-137183000D01*
X175283000Y-137183000D01*
X175283000Y-138305037D01*
X175474629Y-138368085D01*
X175920605Y-138193990D01*
X176266010Y-137862480D01*
X176458260Y-137424024D01*
X176468082Y-137374628D01*
X176405019Y-137183000D01*
X175283000Y-137183000D01*
X175237000Y-137183000D01*
X174114981Y-137183000D01*
X174051918Y-137374628D01*
X173928345Y-137374628D01*
X173971038Y-137160000D01*
X173928346Y-136945372D01*
X174051918Y-136945372D01*
X174114981Y-137137000D01*
X175237000Y-137137000D01*
X175237000Y-136014963D01*
X175283000Y-136014963D01*
X175283000Y-137137000D01*
X176405019Y-137137000D01*
X176468082Y-136945372D01*
X176458260Y-136895976D01*
X176266010Y-136457520D01*
X175920605Y-136126010D01*
X175474629Y-135951915D01*
X175283000Y-136014963D01*
X175237000Y-136014963D01*
X175045371Y-135951915D01*
X174599395Y-136126010D01*
X174253990Y-136457520D01*
X174061740Y-136895976D01*
X174051918Y-136945372D01*
X173928346Y-136945372D01*
X173877638Y-136690447D01*
X173611658Y-136292380D01*
X173213591Y-136026400D01*
X172744038Y-135933000D01*
X172695962Y-135933000D01*
X172226409Y-136026400D01*
X171828342Y-136292380D01*
X171562362Y-136690447D01*
X171468962Y-137160000D01*
X171562362Y-137629553D01*
X171765120Y-137933001D01*
X171134880Y-137933001D01*
X171337638Y-137629553D01*
X171431038Y-137160000D01*
X171337638Y-136690447D01*
X171071658Y-136292380D01*
X170673591Y-136026400D01*
X170204038Y-135933000D01*
X170155962Y-135933000D01*
X169686409Y-136026400D01*
X169288342Y-136292380D01*
X169022362Y-136690447D01*
X168928962Y-137160000D01*
X169022362Y-137629553D01*
X169225120Y-137933001D01*
X168594880Y-137933001D01*
X168797638Y-137629553D01*
X168891038Y-137160000D01*
X168797638Y-136690447D01*
X168531658Y-136292380D01*
X168133591Y-136026400D01*
X167664038Y-135933000D01*
X167615962Y-135933000D01*
X167146409Y-136026400D01*
X166748342Y-136292380D01*
X166482362Y-136690447D01*
X166388962Y-137160000D01*
X166482362Y-137629553D01*
X166685120Y-137933001D01*
X166054880Y-137933001D01*
X166257638Y-137629553D01*
X166351038Y-137160000D01*
X166257638Y-136690447D01*
X165991658Y-136292380D01*
X165593591Y-136026400D01*
X165124038Y-135933000D01*
X165075962Y-135933000D01*
X164606409Y-136026400D01*
X164208342Y-136292380D01*
X163942362Y-136690447D01*
X163848962Y-137160000D01*
X163890758Y-137370122D01*
X163789403Y-137268767D01*
X163811038Y-137160000D01*
X163717638Y-136690447D01*
X163451658Y-136292380D01*
X163053591Y-136026400D01*
X162584038Y-135933000D01*
X162535962Y-135933000D01*
X162066409Y-136026400D01*
X161668342Y-136292380D01*
X161402362Y-136690447D01*
X161308962Y-137160000D01*
X161402362Y-137629553D01*
X161605120Y-137933001D01*
X155894880Y-137933001D01*
X156097638Y-137629553D01*
X156191038Y-137160000D01*
X156097638Y-136690447D01*
X155831658Y-136292380D01*
X155433591Y-136026400D01*
X154964038Y-135933000D01*
X154915962Y-135933000D01*
X154446409Y-136026400D01*
X154048342Y-136292380D01*
X153782362Y-136690447D01*
X153688962Y-137160000D01*
X153782362Y-137629553D01*
X153985120Y-137933001D01*
X153354880Y-137933001D01*
X153557638Y-137629553D01*
X153651038Y-137160000D01*
X153557638Y-136690447D01*
X153291658Y-136292380D01*
X152893591Y-136026400D01*
X152424038Y-135933000D01*
X152375962Y-135933000D01*
X151906409Y-136026400D01*
X151508342Y-136292380D01*
X151242362Y-136690447D01*
X151148962Y-137160000D01*
X151242362Y-137629553D01*
X151445120Y-137933001D01*
X150814880Y-137933001D01*
X151017638Y-137629553D01*
X151111038Y-137160000D01*
X151017638Y-136690447D01*
X150751658Y-136292380D01*
X150353591Y-136026400D01*
X149884038Y-135933000D01*
X149835962Y-135933000D01*
X149366409Y-136026400D01*
X148968342Y-136292380D01*
X148702362Y-136690447D01*
X148608962Y-137160000D01*
X148702362Y-137629553D01*
X148905120Y-137933001D01*
X148274880Y-137933001D01*
X148477638Y-137629553D01*
X148571038Y-137160000D01*
X148477638Y-136690447D01*
X148211658Y-136292380D01*
X147813591Y-136026400D01*
X147344038Y-135933000D01*
X147295962Y-135933000D01*
X146826409Y-136026400D01*
X146428342Y-136292380D01*
X146162362Y-136690447D01*
X146068962Y-137160000D01*
X146162362Y-137629553D01*
X146350810Y-137911585D01*
X142361128Y-133921903D01*
X143335315Y-134326421D01*
X144658878Y-134327576D01*
X145882132Y-133822138D01*
X146818849Y-132887055D01*
X147326421Y-131664685D01*
X147327576Y-130341122D01*
X146822138Y-129117868D01*
X145887055Y-128181151D01*
X144664685Y-127673579D01*
X143341122Y-127672424D01*
X142117868Y-128177862D01*
X141181151Y-129112945D01*
X140952000Y-129664802D01*
X140952000Y-128615998D01*
X141312885Y-128616313D01*
X141892591Y-128376784D01*
X142336505Y-127933644D01*
X142577046Y-127354357D01*
X142577593Y-126727115D01*
X142338064Y-126147409D01*
X141894924Y-125703495D01*
X141315637Y-125462954D01*
X140688395Y-125462407D01*
X140108689Y-125701936D01*
X139664775Y-126145076D01*
X139424234Y-126724363D01*
X139423687Y-127351605D01*
X139663216Y-127931311D01*
X140048000Y-128316767D01*
X140048000Y-132700000D01*
X140082406Y-132872973D01*
X140180388Y-133019612D01*
X145865389Y-138704614D01*
X146008146Y-138800001D01*
X146012028Y-138802595D01*
X146093000Y-138818701D01*
X146093000Y-139595250D01*
X146174750Y-139677000D01*
X147297000Y-139677000D01*
X147297000Y-139657000D01*
X147343000Y-139657000D01*
X147343000Y-139677000D01*
X148465250Y-139677000D01*
X148547000Y-139595250D01*
X148547000Y-138837001D01*
X148965254Y-138837001D01*
X148702362Y-139230447D01*
X148608962Y-139700000D01*
X148692871Y-140121839D01*
X148547000Y-140267710D01*
X148547000Y-139804750D01*
X148465250Y-139723000D01*
X147343000Y-139723000D01*
X147343000Y-139743000D01*
X147297000Y-139743000D01*
X147297000Y-139723000D01*
X146174750Y-139723000D01*
X146093000Y-139804750D01*
X146093000Y-140247711D01*
X139028280Y-133182992D01*
X139028280Y-123488218D01*
X139393231Y-123337424D01*
X139636020Y-123095058D01*
X142437469Y-123095058D01*
X142573799Y-123313936D01*
X143147123Y-123568361D01*
X143774170Y-123584016D01*
X144359476Y-123358520D01*
X144426201Y-123313936D01*
X144562531Y-123095058D01*
X143500000Y-122032527D01*
X142437469Y-123095058D01*
X139636020Y-123095058D01*
X139837145Y-122894284D01*
X140077686Y-122314997D01*
X140077721Y-122274170D01*
X141915984Y-122274170D01*
X142141480Y-122859476D01*
X142186064Y-122926201D01*
X142404942Y-123062531D01*
X143467473Y-122000000D01*
X143532527Y-122000000D01*
X144595058Y-123062531D01*
X144813936Y-122926201D01*
X145068361Y-122352877D01*
X145084016Y-121725830D01*
X144858520Y-121140524D01*
X144813936Y-121073799D01*
X144595058Y-120937469D01*
X143532527Y-122000000D01*
X143467473Y-122000000D01*
X142404942Y-120937469D01*
X142186064Y-121073799D01*
X141931639Y-121647123D01*
X141915984Y-122274170D01*
X140077721Y-122274170D01*
X140078233Y-121687755D01*
X139838704Y-121108049D01*
X139635952Y-120904942D01*
X142437469Y-120904942D01*
X143500000Y-121967473D01*
X144562531Y-120904942D01*
X144426201Y-120686064D01*
X143852877Y-120431639D01*
X143225830Y-120415984D01*
X142640524Y-120641480D01*
X142573799Y-120686064D01*
X142437469Y-120904942D01*
X139635952Y-120904942D01*
X139395564Y-120664135D01*
X138816277Y-120423594D01*
X138189035Y-120423047D01*
X137609329Y-120662576D01*
X137165415Y-121105716D01*
X136924874Y-121685003D01*
X136924327Y-122312245D01*
X135963000Y-122312245D01*
X135963000Y-122024750D01*
X135881250Y-121943000D01*
X134643000Y-121943000D01*
X134597000Y-121943000D01*
X133358750Y-121943000D01*
X133277000Y-122024750D01*
X127402000Y-122024750D01*
X127402000Y-120954956D01*
X133277000Y-120954956D01*
X133277000Y-121815250D01*
X133358750Y-121897000D01*
X134597000Y-121897000D01*
X134597000Y-120774750D01*
X134643000Y-120774750D01*
X134643000Y-121897000D01*
X135881250Y-121897000D01*
X135963000Y-121815250D01*
X135963000Y-120954956D01*
X135913217Y-120834770D01*
X135821231Y-120742783D01*
X135701045Y-120693000D01*
X134724750Y-120693000D01*
X134643000Y-120774750D01*
X134597000Y-120774750D01*
X134515250Y-120693000D01*
X133538955Y-120693000D01*
X133418769Y-120742783D01*
X133326783Y-120834770D01*
X133277000Y-120954956D01*
X127402000Y-120954956D01*
X127402000Y-114275962D01*
X133393000Y-114275962D01*
X133393000Y-114324038D01*
X133486400Y-114793591D01*
X133752380Y-115191658D01*
X134150447Y-115457638D01*
X134620000Y-115551038D01*
X135089553Y-115457638D01*
X135487620Y-115191658D01*
X135753600Y-114793591D01*
X135830945Y-114404750D01*
X135933000Y-114404750D01*
X135933000Y-115265044D01*
X135982783Y-115385230D01*
X136074769Y-115477217D01*
X136194955Y-115527000D01*
X137055250Y-115527000D01*
X137137000Y-115445250D01*
X137137000Y-114323000D01*
X137183000Y-114323000D01*
X137183000Y-115445250D01*
X137264750Y-115527000D01*
X138125045Y-115527000D01*
X138245231Y-115477217D01*
X138337217Y-115385230D01*
X138387000Y-115265044D01*
X138387000Y-114404750D01*
X138305250Y-114323000D01*
X137183000Y-114323000D01*
X137137000Y-114323000D01*
X136014750Y-114323000D01*
X135933000Y-114404750D01*
X135830945Y-114404750D01*
X135847000Y-114324038D01*
X135847000Y-114275962D01*
X135753600Y-113806409D01*
X135487620Y-113408342D01*
X135377791Y-113334956D01*
X135933000Y-113334956D01*
X135933000Y-114195250D01*
X136014750Y-114277000D01*
X137137000Y-114277000D01*
X137137000Y-113154750D01*
X137183000Y-113154750D01*
X137183000Y-114277000D01*
X138305250Y-114277000D01*
X138387000Y-114195250D01*
X138387000Y-113334956D01*
X138337217Y-113214770D01*
X138245231Y-113122783D01*
X138125045Y-113073000D01*
X137264750Y-113073000D01*
X137183000Y-113154750D01*
X137137000Y-113154750D01*
X137055250Y-113073000D01*
X136194955Y-113073000D01*
X136074769Y-113122783D01*
X135982783Y-113214770D01*
X135933000Y-113334956D01*
X135377791Y-113334956D01*
X135089553Y-113142362D01*
X134620000Y-113048962D01*
X134150447Y-113142362D01*
X133752380Y-113408342D01*
X133486400Y-113806409D01*
X133393000Y-114275962D01*
X127402000Y-114275962D01*
X127402000Y-111735962D01*
X133393000Y-111735962D01*
X133393000Y-111784038D01*
X133486400Y-112253591D01*
X133752380Y-112651658D01*
X134150447Y-112917638D01*
X134620000Y-113011038D01*
X135089553Y-112917638D01*
X135487620Y-112651658D01*
X135753600Y-112253591D01*
X135809089Y-111974629D01*
X135951915Y-111974629D01*
X136126010Y-112420605D01*
X136457520Y-112766010D01*
X136895976Y-112958260D01*
X136945372Y-112968082D01*
X137137000Y-112905019D01*
X137137000Y-111783000D01*
X137183000Y-111783000D01*
X137183000Y-112905019D01*
X137374628Y-112968082D01*
X137424024Y-112958260D01*
X137862480Y-112766010D01*
X138193990Y-112420605D01*
X138368085Y-111974629D01*
X138305037Y-111783000D01*
X137183000Y-111783000D01*
X137137000Y-111783000D01*
X136014963Y-111783000D01*
X135951915Y-111974629D01*
X135809089Y-111974629D01*
X135847000Y-111784038D01*
X135847000Y-111735962D01*
X135809090Y-111545371D01*
X135951915Y-111545371D01*
X136014963Y-111737000D01*
X137137000Y-111737000D01*
X137137000Y-110614981D01*
X137183000Y-110614981D01*
X137183000Y-111737000D01*
X138305037Y-111737000D01*
X138368085Y-111545371D01*
X138193990Y-111099395D01*
X137862480Y-110753990D01*
X137424024Y-110561740D01*
X137374628Y-110551918D01*
X137183000Y-110614981D01*
X137137000Y-110614981D01*
X136945372Y-110551918D01*
X136895976Y-110561740D01*
X136457520Y-110753990D01*
X136126010Y-111099395D01*
X135951915Y-111545371D01*
X135809090Y-111545371D01*
X135753600Y-111266409D01*
X135487620Y-110868342D01*
X135089553Y-110602362D01*
X134620000Y-110508962D01*
X134150447Y-110602362D01*
X133752380Y-110868342D01*
X133486400Y-111266409D01*
X133393000Y-111735962D01*
X127402000Y-111735962D01*
X127402000Y-109195962D01*
X133393000Y-109195962D01*
X133393000Y-109244038D01*
X133486400Y-109713591D01*
X133752380Y-110111658D01*
X134150447Y-110377638D01*
X134620000Y-110471038D01*
X135089553Y-110377638D01*
X135487620Y-110111658D01*
X135753600Y-109713591D01*
X135809089Y-109434629D01*
X135951915Y-109434629D01*
X136126010Y-109880605D01*
X136457520Y-110226010D01*
X136895976Y-110418260D01*
X136945372Y-110428082D01*
X137137000Y-110365019D01*
X137137000Y-109243000D01*
X137183000Y-109243000D01*
X137183000Y-110365019D01*
X137374628Y-110428082D01*
X137424024Y-110418260D01*
X137862480Y-110226010D01*
X138193990Y-109880605D01*
X138368085Y-109434629D01*
X138305037Y-109243000D01*
X137183000Y-109243000D01*
X137137000Y-109243000D01*
X136014963Y-109243000D01*
X135951915Y-109434629D01*
X135809089Y-109434629D01*
X135847000Y-109244038D01*
X135847000Y-109195962D01*
X135809090Y-109005371D01*
X135951915Y-109005371D01*
X136014963Y-109197000D01*
X137137000Y-109197000D01*
X137137000Y-108074981D01*
X137183000Y-108074981D01*
X137183000Y-109197000D01*
X138305037Y-109197000D01*
X138368085Y-109005371D01*
X138193990Y-108559395D01*
X137862480Y-108213990D01*
X137424024Y-108021740D01*
X137374628Y-108011918D01*
X137183000Y-108074981D01*
X137137000Y-108074981D01*
X136945372Y-108011918D01*
X136895976Y-108021740D01*
X136457520Y-108213990D01*
X136126010Y-108559395D01*
X135951915Y-109005371D01*
X135809090Y-109005371D01*
X135753600Y-108726409D01*
X135487620Y-108328342D01*
X135089553Y-108062362D01*
X134620000Y-107968962D01*
X134150447Y-108062362D01*
X133752380Y-108328342D01*
X133486400Y-108726409D01*
X133393000Y-109195962D01*
X127402000Y-109195962D01*
X127402000Y-106655962D01*
X133393000Y-106655962D01*
X133393000Y-106704038D01*
X133486400Y-107173591D01*
X133752380Y-107571658D01*
X134150447Y-107837638D01*
X134620000Y-107931038D01*
X135089553Y-107837638D01*
X135487620Y-107571658D01*
X135753600Y-107173591D01*
X135809089Y-106894629D01*
X135951915Y-106894629D01*
X136126010Y-107340605D01*
X136457520Y-107686010D01*
X136895976Y-107878260D01*
X136945372Y-107888082D01*
X137137000Y-107825019D01*
X137137000Y-106703000D01*
X137183000Y-106703000D01*
X137183000Y-107825019D01*
X137374628Y-107888082D01*
X137424024Y-107878260D01*
X137862480Y-107686010D01*
X138193990Y-107340605D01*
X138368085Y-106894629D01*
X138305037Y-106703000D01*
X137183000Y-106703000D01*
X137137000Y-106703000D01*
X136014963Y-106703000D01*
X135951915Y-106894629D01*
X135809089Y-106894629D01*
X135847000Y-106704038D01*
X135847000Y-106655962D01*
X135809090Y-106465371D01*
X135951915Y-106465371D01*
X136014963Y-106657000D01*
X137137000Y-106657000D01*
X137137000Y-105534981D01*
X137183000Y-105534981D01*
X137183000Y-106657000D01*
X138305037Y-106657000D01*
X138368085Y-106465371D01*
X138193990Y-106019395D01*
X137862480Y-105673990D01*
X137424024Y-105481740D01*
X137374628Y-105471918D01*
X137183000Y-105534981D01*
X137137000Y-105534981D01*
X136945372Y-105471918D01*
X136895976Y-105481740D01*
X136457520Y-105673990D01*
X136126010Y-106019395D01*
X135951915Y-106465371D01*
X135809090Y-106465371D01*
X135753600Y-106186409D01*
X135487620Y-105788342D01*
X135089553Y-105522362D01*
X134620000Y-105428962D01*
X134150447Y-105522362D01*
X133752380Y-105788342D01*
X133486400Y-106186409D01*
X133393000Y-106655962D01*
X127402000Y-106655962D01*
X127402000Y-102303976D01*
X131242792Y-102303976D01*
X131406410Y-102699962D01*
X131709111Y-103003191D01*
X132104811Y-103167500D01*
X132478272Y-103167826D01*
X133398543Y-104088097D01*
X133393000Y-104115962D01*
X133393000Y-104164038D01*
X133486400Y-104633591D01*
X133752380Y-105031658D01*
X134150447Y-105297638D01*
X134620000Y-105391038D01*
X135089553Y-105297638D01*
X135487620Y-105031658D01*
X135753600Y-104633591D01*
X135809089Y-104354629D01*
X135951915Y-104354629D01*
X136126010Y-104800605D01*
X136457520Y-105146010D01*
X136895976Y-105338260D01*
X136945372Y-105348082D01*
X137137000Y-105285019D01*
X137137000Y-104163000D01*
X137183000Y-104163000D01*
X137183000Y-105285019D01*
X137374628Y-105348082D01*
X137424024Y-105338260D01*
X137862480Y-105146010D01*
X138193990Y-104800605D01*
X138368085Y-104354629D01*
X138305037Y-104163000D01*
X137183000Y-104163000D01*
X137137000Y-104163000D01*
X136014963Y-104163000D01*
X135951915Y-104354629D01*
X135809089Y-104354629D01*
X135847000Y-104164038D01*
X135847000Y-104115962D01*
X135753600Y-103646409D01*
X135487620Y-103248342D01*
X135089553Y-102982362D01*
X134620000Y-102888962D01*
X134552035Y-102902481D01*
X134470943Y-102821389D01*
X134620000Y-102851038D01*
X135089553Y-102757638D01*
X135118843Y-102738067D01*
X135525389Y-103144613D01*
X135672028Y-103242595D01*
X135845001Y-103277001D01*
X136320262Y-103277001D01*
X136126010Y-103479395D01*
X135951915Y-103925371D01*
X136014963Y-104117000D01*
X137137000Y-104117000D01*
X137137000Y-104097000D01*
X137183000Y-104097000D01*
X137183000Y-104117000D01*
X138305037Y-104117000D01*
X138368085Y-103925371D01*
X138328388Y-103823680D01*
X138977353Y-104472645D01*
X139148323Y-104586885D01*
X139349998Y-104627000D01*
X140181710Y-104627000D01*
X142607355Y-107052645D01*
X142778325Y-107166885D01*
X142980000Y-107207000D01*
X143678474Y-107207000D01*
X143906069Y-107547620D01*
X144304136Y-107813600D01*
X144373636Y-107827425D01*
X143355650Y-108845411D01*
X143273434Y-108811272D01*
X142844977Y-108810898D01*
X142448991Y-108974516D01*
X142145762Y-109277217D01*
X141981453Y-109672917D01*
X141981079Y-110101374D01*
X142144697Y-110497360D01*
X142447398Y-110800589D01*
X142843098Y-110964898D01*
X143271555Y-110965272D01*
X143667541Y-110801654D01*
X143970770Y-110498953D01*
X144135079Y-110103253D01*
X144135453Y-109674796D01*
X144100774Y-109590867D01*
X145288645Y-108402996D01*
X145402885Y-108232026D01*
X145443000Y-108030351D01*
X145443000Y-107830481D01*
X145527864Y-107813600D01*
X145925931Y-107547620D01*
X146191911Y-107149553D01*
X146276052Y-106726545D01*
X152916657Y-106726545D01*
X153080275Y-107122531D01*
X153382976Y-107425760D01*
X153778676Y-107590069D01*
X153998479Y-107590261D01*
X153829616Y-107758830D01*
X153665307Y-108154530D01*
X153664933Y-108582987D01*
X153828551Y-108978973D01*
X154131252Y-109282202D01*
X154526952Y-109446511D01*
X154955409Y-109446885D01*
X155351395Y-109283267D01*
X155654624Y-108980566D01*
X155720592Y-108821698D01*
X155802780Y-108821698D01*
X155975753Y-108787292D01*
X156122392Y-108689310D01*
X156559703Y-108252000D01*
X160755269Y-108252000D01*
X160845192Y-108341923D01*
X160439115Y-108748000D01*
X158400000Y-108748000D01*
X158227027Y-108782406D01*
X158080388Y-108880388D01*
X157480388Y-109480388D01*
X157382406Y-109627027D01*
X157348000Y-109800000D01*
X157348000Y-111056095D01*
X157382406Y-111229068D01*
X157480388Y-111375707D01*
X157732351Y-111627670D01*
X157667092Y-111784832D01*
X157666718Y-112213289D01*
X157830336Y-112609275D01*
X158133037Y-112912504D01*
X158528737Y-113076813D01*
X158957194Y-113077187D01*
X159353180Y-112913569D01*
X159366906Y-112899867D01*
X159366906Y-113918906D01*
X159401312Y-114091879D01*
X159463344Y-114184715D01*
X159315168Y-114123187D01*
X158886711Y-114122813D01*
X158490725Y-114286431D01*
X158187496Y-114589132D01*
X158023187Y-114984832D01*
X158022813Y-115413289D01*
X158186431Y-115809275D01*
X158489132Y-116112504D01*
X158648000Y-116178472D01*
X158648000Y-116260660D01*
X158682406Y-116433633D01*
X158780388Y-116580272D01*
X160419728Y-118219612D01*
X160566367Y-118317594D01*
X160739340Y-118352000D01*
X166800000Y-118352000D01*
X166972973Y-118317594D01*
X167119612Y-118219612D01*
X167619612Y-117719612D01*
X167650402Y-117673532D01*
X167789132Y-117812504D01*
X167938888Y-117874688D01*
X167938888Y-120251987D01*
X167913575Y-120190725D01*
X167610874Y-119887496D01*
X167215174Y-119723187D01*
X166786717Y-119722813D01*
X166390731Y-119886431D01*
X166087502Y-120189132D01*
X165923193Y-120584832D01*
X165922819Y-121013289D01*
X166086437Y-121409275D01*
X166389138Y-121712504D01*
X166440984Y-121734033D01*
X166116550Y-122058467D01*
X166034334Y-122024328D01*
X165605877Y-122023954D01*
X165209891Y-122187572D01*
X164906662Y-122490273D01*
X164742353Y-122885973D01*
X164741979Y-123314430D01*
X164905597Y-123710416D01*
X165208298Y-124013645D01*
X165603998Y-124177954D01*
X166032455Y-124178328D01*
X166428441Y-124014710D01*
X166731670Y-123712009D01*
X166895979Y-123316309D01*
X166896353Y-122887852D01*
X166861674Y-122803923D01*
X167372651Y-122292946D01*
X167486891Y-122121976D01*
X167515430Y-121978497D01*
X167527006Y-121920301D01*
X167527006Y-121747564D01*
X167609281Y-121713569D01*
X167912510Y-121410868D01*
X167938888Y-121347343D01*
X167938888Y-122771466D01*
X167781613Y-122836451D01*
X167478384Y-123139152D01*
X167314075Y-123534852D01*
X167313701Y-123963309D01*
X167477319Y-124359295D01*
X167780020Y-124662524D01*
X168175720Y-124826833D01*
X168604177Y-124827207D01*
X169000163Y-124663589D01*
X169303392Y-124360888D01*
X169467701Y-123965188D01*
X169467968Y-123658878D01*
X187672424Y-123658878D01*
X188177862Y-124882132D01*
X189112945Y-125818849D01*
X190335315Y-126326421D01*
X191658878Y-126327576D01*
X192882132Y-125822138D01*
X193818849Y-124887055D01*
X194326421Y-123664685D01*
X194327576Y-122341122D01*
X193822138Y-121117868D01*
X192887055Y-120181151D01*
X191664685Y-119673579D01*
X190341122Y-119672424D01*
X189117868Y-120177862D01*
X188181151Y-121112945D01*
X187673579Y-122335315D01*
X187672424Y-123658878D01*
X169467968Y-123658878D01*
X169468075Y-123536731D01*
X169304457Y-123140745D01*
X169001756Y-122837516D01*
X168842888Y-122771548D01*
X168842888Y-117882319D01*
X169009275Y-117813569D01*
X169312504Y-117510868D01*
X169476813Y-117115168D01*
X169477158Y-116720209D01*
X171581937Y-118824989D01*
X171728576Y-118922970D01*
X171901549Y-118957376D01*
X172701674Y-118957376D01*
X172766659Y-119114651D01*
X172799950Y-119148000D01*
X170939340Y-119148000D01*
X170766367Y-119182406D01*
X170619728Y-119280387D01*
X169880388Y-120019728D01*
X169782406Y-120166367D01*
X169748000Y-120339340D01*
X169748000Y-120421446D01*
X169590725Y-120486431D01*
X169287496Y-120789132D01*
X169123187Y-121184832D01*
X169122813Y-121613289D01*
X169286431Y-122009275D01*
X169589132Y-122312504D01*
X169984832Y-122476813D01*
X170413289Y-122477187D01*
X170809275Y-122313569D01*
X171112504Y-122010868D01*
X171276813Y-121615168D01*
X171276826Y-121600002D01*
X171389132Y-121712504D01*
X171784832Y-121876813D01*
X172213289Y-121877187D01*
X172609275Y-121713569D01*
X172912504Y-121410868D01*
X172978472Y-121252000D01*
X174992881Y-121252000D01*
X175165854Y-121217594D01*
X175312493Y-121119612D01*
X175377650Y-121054455D01*
X175534812Y-121119714D01*
X175963269Y-121120088D01*
X176359255Y-120956470D01*
X176662484Y-120653769D01*
X176826793Y-120258069D01*
X176827167Y-119829612D01*
X176663549Y-119433626D01*
X176360848Y-119130397D01*
X176214219Y-119069511D01*
X176288444Y-118995416D01*
X176452753Y-118599716D01*
X176453127Y-118171259D01*
X176289509Y-117775273D01*
X175986808Y-117472044D01*
X175591108Y-117307735D01*
X175162651Y-117307361D01*
X174766665Y-117470979D01*
X174467520Y-117769603D01*
X174291096Y-117592872D01*
X173895396Y-117428563D01*
X173466939Y-117428189D01*
X173070953Y-117591807D01*
X172767724Y-117894508D01*
X172701756Y-118053376D01*
X172088774Y-118053376D01*
X170573312Y-116537915D01*
X171306044Y-116537915D01*
X171479017Y-116503509D01*
X171625656Y-116405527D01*
X172119612Y-115911571D01*
X172217594Y-115764932D01*
X172226614Y-115719584D01*
X172252000Y-115591959D01*
X172252000Y-114727636D01*
X172593987Y-115069623D01*
X172716354Y-115151386D01*
X172740627Y-115167605D01*
X172913600Y-115202011D01*
X175353789Y-115202011D01*
X177798020Y-117646243D01*
X177798020Y-118201546D01*
X177640745Y-118266531D01*
X177337516Y-118569232D01*
X177173207Y-118964932D01*
X177172833Y-119393389D01*
X177336451Y-119789375D01*
X177486513Y-119939698D01*
X177440745Y-119958609D01*
X177137516Y-120261310D01*
X176973207Y-120657010D01*
X176972833Y-121085467D01*
X177136451Y-121481453D01*
X177439152Y-121784682D01*
X177834852Y-121948991D01*
X178263309Y-121949365D01*
X178659295Y-121785747D01*
X178962524Y-121483046D01*
X179028492Y-121324178D01*
X179110680Y-121324178D01*
X179283653Y-121289772D01*
X179430292Y-121191790D01*
X179644634Y-120977449D01*
X179742616Y-120830809D01*
X179750906Y-120789132D01*
X179777022Y-120657836D01*
X179777022Y-117897609D01*
X179742616Y-117724636D01*
X179725386Y-117698849D01*
X179644634Y-117577996D01*
X176047025Y-113980388D01*
X175900386Y-113882406D01*
X175727413Y-113848000D01*
X173287224Y-113848000D01*
X172889045Y-113449821D01*
X172900000Y-113452000D01*
X179500000Y-113452000D01*
X179672973Y-113417594D01*
X179819612Y-113319612D01*
X180027670Y-113111554D01*
X180184832Y-113176813D01*
X180613289Y-113177187D01*
X181009275Y-113013569D01*
X181312504Y-112710868D01*
X181476813Y-112315168D01*
X181477187Y-111886711D01*
X181313569Y-111490725D01*
X181067292Y-111244018D01*
X181744134Y-111244018D01*
X182119728Y-111619612D01*
X182266367Y-111717594D01*
X182439340Y-111752000D01*
X182521446Y-111752000D01*
X182586431Y-111909275D01*
X182889132Y-112212504D01*
X183284832Y-112376813D01*
X183713289Y-112377187D01*
X184109275Y-112213569D01*
X184412504Y-111910868D01*
X184576813Y-111515168D01*
X184577187Y-111086711D01*
X184413569Y-110690725D01*
X184110868Y-110387496D01*
X183715168Y-110223187D01*
X183286711Y-110222813D01*
X182890725Y-110386431D01*
X182587496Y-110689132D01*
X182552346Y-110773782D01*
X182250970Y-110472406D01*
X182104331Y-110374424D01*
X181931358Y-110340018D01*
X172099206Y-110340018D01*
X173087224Y-109352000D01*
X177523444Y-109352000D01*
X177696417Y-109317594D01*
X177843056Y-109219612D01*
X178885743Y-108176925D01*
X178983725Y-108030286D01*
X179018131Y-107857313D01*
X179018131Y-107775207D01*
X179175406Y-107710222D01*
X179478635Y-107407521D01*
X179642944Y-107011821D01*
X179643318Y-106583364D01*
X179532764Y-106315803D01*
X179735534Y-106315980D01*
X180131520Y-106152362D01*
X180434749Y-105849661D01*
X180599058Y-105453961D01*
X180599432Y-105025504D01*
X180435814Y-104629518D01*
X180133113Y-104326289D01*
X179936746Y-104244750D01*
X191697000Y-104244750D01*
X191697000Y-105105044D01*
X191746783Y-105225230D01*
X191838769Y-105317217D01*
X191958955Y-105367000D01*
X192935250Y-105367000D01*
X193017000Y-105285250D01*
X193017000Y-104163000D01*
X193063000Y-104163000D01*
X193063000Y-105285250D01*
X193144750Y-105367000D01*
X194121045Y-105367000D01*
X194241231Y-105317217D01*
X194333217Y-105225230D01*
X194383000Y-105105044D01*
X194383000Y-104244750D01*
X194301250Y-104163000D01*
X193063000Y-104163000D01*
X193017000Y-104163000D01*
X191778750Y-104163000D01*
X191697000Y-104244750D01*
X179936746Y-104244750D01*
X179737413Y-104161980D01*
X179308956Y-104161606D01*
X178912970Y-104325224D01*
X178609741Y-104627925D01*
X178538379Y-104799783D01*
X178430711Y-104821199D01*
X178284072Y-104919181D01*
X177005399Y-106197854D01*
X176907417Y-106344493D01*
X176873011Y-106517466D01*
X176873011Y-107678767D01*
X176553789Y-107997989D01*
X174399949Y-107997989D01*
X174442467Y-107969579D01*
X178435124Y-103976922D01*
X178738320Y-103977187D01*
X179134306Y-103813569D01*
X179437535Y-103510868D01*
X179577017Y-103174956D01*
X191697000Y-103174956D01*
X191697000Y-104035250D01*
X191778750Y-104117000D01*
X193017000Y-104117000D01*
X193017000Y-102994750D01*
X193063000Y-102994750D01*
X193063000Y-104117000D01*
X194301250Y-104117000D01*
X194383000Y-104035250D01*
X194383000Y-103174956D01*
X194333217Y-103054770D01*
X194241231Y-102962783D01*
X194121045Y-102913000D01*
X193144750Y-102913000D01*
X193063000Y-102994750D01*
X193017000Y-102994750D01*
X192935250Y-102913000D01*
X191958955Y-102913000D01*
X191838769Y-102962783D01*
X191746783Y-103054770D01*
X191697000Y-103174956D01*
X179577017Y-103174956D01*
X179601844Y-103115168D01*
X179602218Y-102686711D01*
X179438600Y-102290725D01*
X179135899Y-101987496D01*
X178740199Y-101823187D01*
X178311742Y-101822813D01*
X178149285Y-101889939D01*
X178327670Y-101711554D01*
X178484832Y-101776813D01*
X178913289Y-101777187D01*
X179309275Y-101613569D01*
X179322867Y-101600000D01*
X191670689Y-101600000D01*
X191764089Y-102069553D01*
X192030069Y-102467620D01*
X192428136Y-102733600D01*
X192897689Y-102827000D01*
X193182311Y-102827000D01*
X193651864Y-102733600D01*
X194049931Y-102467620D01*
X194315911Y-102069553D01*
X194409311Y-101600000D01*
X194315911Y-101130447D01*
X194049931Y-100732380D01*
X193651864Y-100466400D01*
X193182311Y-100373000D01*
X192897689Y-100373000D01*
X192428136Y-100466400D01*
X192030069Y-100732380D01*
X191764089Y-101130447D01*
X191670689Y-101600000D01*
X179322867Y-101600000D01*
X179612504Y-101310868D01*
X179776813Y-100915168D01*
X179777187Y-100486711D01*
X179613569Y-100090725D01*
X179310868Y-99787496D01*
X178915168Y-99623187D01*
X178486711Y-99622813D01*
X178090725Y-99786431D01*
X177787496Y-100089132D01*
X177623187Y-100484832D01*
X177622813Y-100913289D01*
X177688504Y-101072272D01*
X177527962Y-101232814D01*
X177576813Y-101115168D01*
X177577187Y-100686711D01*
X177413569Y-100290725D01*
X177110868Y-99987496D01*
X176715168Y-99823187D01*
X176286711Y-99822813D01*
X175890725Y-99986431D01*
X175587496Y-100289132D01*
X175423187Y-100684832D01*
X175422813Y-101113289D01*
X175586431Y-101509275D01*
X175889132Y-101812504D01*
X176048000Y-101878472D01*
X176048000Y-102024693D01*
X176010868Y-101987496D01*
X175615168Y-101823187D01*
X175186711Y-101822813D01*
X174790725Y-101986431D01*
X174487496Y-102289132D01*
X174323187Y-102684832D01*
X174322960Y-102945185D01*
X174199100Y-102645421D01*
X174082362Y-102528479D01*
X174188895Y-102484461D01*
X174492124Y-102181760D01*
X174656433Y-101786060D01*
X174656807Y-101357603D01*
X174493189Y-100961617D01*
X174190488Y-100658388D01*
X173794788Y-100494079D01*
X173366331Y-100493705D01*
X172970345Y-100657323D01*
X172667116Y-100960024D01*
X172502807Y-101355724D01*
X172502433Y-101784181D01*
X172524117Y-101836659D01*
X171880388Y-102480388D01*
X171782406Y-102627027D01*
X171748000Y-102800000D01*
X171748000Y-103712776D01*
X170685225Y-104775551D01*
X170677757Y-104757478D01*
X170375056Y-104454249D01*
X169979356Y-104289940D01*
X169550899Y-104289566D01*
X169154913Y-104453184D01*
X168851684Y-104755885D01*
X168687375Y-105151585D01*
X168687001Y-105580042D01*
X168850501Y-105975743D01*
X168399172Y-105524414D01*
X168252533Y-105426432D01*
X168079560Y-105392026D01*
X167997454Y-105392026D01*
X167932469Y-105234751D01*
X167629768Y-104931522D01*
X167234068Y-104767213D01*
X166805611Y-104766839D01*
X166409625Y-104930457D01*
X166106396Y-105233158D01*
X165942087Y-105628858D01*
X165941713Y-106057315D01*
X166105331Y-106453301D01*
X166408032Y-106756530D01*
X166622856Y-106845733D01*
X166612476Y-106856094D01*
X166448167Y-107251794D01*
X166447793Y-107680251D01*
X166611411Y-108076237D01*
X166625113Y-108089963D01*
X165773708Y-108089963D01*
X165773708Y-104521708D01*
X165739302Y-104348735D01*
X165641320Y-104202096D01*
X160952000Y-99512776D01*
X160952000Y-99060000D01*
X191670689Y-99060000D01*
X191764089Y-99529553D01*
X192030069Y-99927620D01*
X192428136Y-100193600D01*
X192897689Y-100287000D01*
X193182311Y-100287000D01*
X193651864Y-100193600D01*
X194049931Y-99927620D01*
X194315911Y-99529553D01*
X194409311Y-99060000D01*
X194315911Y-98590447D01*
X194049931Y-98192380D01*
X193651864Y-97926400D01*
X193182311Y-97833000D01*
X192897689Y-97833000D01*
X192428136Y-97926400D01*
X192030069Y-98192380D01*
X191764089Y-98590447D01*
X191670689Y-99060000D01*
X160952000Y-99060000D01*
X160952000Y-98839340D01*
X160917594Y-98666367D01*
X160819613Y-98519728D01*
X159827171Y-97527287D01*
X159680532Y-97429305D01*
X159507559Y-97394899D01*
X159131837Y-97394899D01*
X159066852Y-97237624D01*
X158764151Y-96934395D01*
X158368451Y-96770086D01*
X157939994Y-96769712D01*
X157876826Y-96795813D01*
X157877066Y-96520000D01*
X191670689Y-96520000D01*
X191764089Y-96989553D01*
X192030069Y-97387620D01*
X192428136Y-97653600D01*
X192897689Y-97747000D01*
X193182311Y-97747000D01*
X193651864Y-97653600D01*
X194049931Y-97387620D01*
X194315911Y-96989553D01*
X194409311Y-96520000D01*
X194315911Y-96050447D01*
X194049931Y-95652380D01*
X193651864Y-95386400D01*
X193182311Y-95293000D01*
X192897689Y-95293000D01*
X192428136Y-95386400D01*
X192030069Y-95652380D01*
X191764089Y-96050447D01*
X191670689Y-96520000D01*
X157877066Y-96520000D01*
X157877183Y-96386711D01*
X157713565Y-95990725D01*
X157410864Y-95687496D01*
X157015164Y-95523187D01*
X156586707Y-95522813D01*
X156190721Y-95686431D01*
X155887492Y-95989132D01*
X155723183Y-96384832D01*
X155722809Y-96813289D01*
X155886427Y-97209275D01*
X156189128Y-97512504D01*
X156347996Y-97578472D01*
X156347996Y-98253617D01*
X156382402Y-98426590D01*
X156480384Y-98573229D01*
X158570400Y-100663245D01*
X158717039Y-100761227D01*
X158890012Y-100795633D01*
X159656409Y-100795633D01*
X163848000Y-104987225D01*
X163848000Y-105112776D01*
X163812776Y-105148000D01*
X161600000Y-105148000D01*
X161427027Y-105182406D01*
X161280388Y-105280387D01*
X160781231Y-105779545D01*
X159603550Y-105779545D01*
X159538565Y-105622270D01*
X159235864Y-105319041D01*
X158840164Y-105154732D01*
X158411707Y-105154358D01*
X158015721Y-105317976D01*
X157712492Y-105620677D01*
X157548183Y-106016377D01*
X157547809Y-106444834D01*
X157711427Y-106840820D01*
X157768496Y-106897989D01*
X156078461Y-106897989D01*
X155374116Y-106193644D01*
X155227477Y-106095662D01*
X155054504Y-106061256D01*
X154972398Y-106061256D01*
X154907413Y-105903981D01*
X154604712Y-105600752D01*
X154209012Y-105436443D01*
X153780555Y-105436069D01*
X153384569Y-105599687D01*
X153081340Y-105902388D01*
X152917031Y-106298088D01*
X152916657Y-106726545D01*
X146276052Y-106726545D01*
X146285311Y-106680000D01*
X146191911Y-106210447D01*
X145925931Y-105812380D01*
X145527864Y-105546400D01*
X145058311Y-105453000D01*
X144773689Y-105453000D01*
X144304136Y-105546400D01*
X143906069Y-105812380D01*
X143678474Y-106153000D01*
X143198290Y-106153000D01*
X141185290Y-104140000D01*
X143546689Y-104140000D01*
X143640089Y-104609553D01*
X143906069Y-105007620D01*
X144304136Y-105273600D01*
X144773689Y-105367000D01*
X145058311Y-105367000D01*
X145527864Y-105273600D01*
X145925931Y-105007620D01*
X146191911Y-104609553D01*
X146285311Y-104140000D01*
X146191911Y-103670447D01*
X145925931Y-103272380D01*
X145527864Y-103006400D01*
X145058311Y-102913000D01*
X144773689Y-102913000D01*
X144304136Y-103006400D01*
X143906069Y-103272380D01*
X143640089Y-103670447D01*
X143546689Y-104140000D01*
X141185290Y-104140000D01*
X140772645Y-103727355D01*
X140601675Y-103613115D01*
X140400000Y-103573000D01*
X139568288Y-103573000D01*
X138447644Y-102452356D01*
X138276674Y-102338116D01*
X138144777Y-102311881D01*
X138193990Y-102260605D01*
X138368085Y-101814629D01*
X138331934Y-101704750D01*
X143573000Y-101704750D01*
X143573000Y-102565044D01*
X143622783Y-102685230D01*
X143714769Y-102777217D01*
X143834955Y-102827000D01*
X144811250Y-102827000D01*
X144893000Y-102745250D01*
X144893000Y-101623000D01*
X144939000Y-101623000D01*
X144939000Y-102745250D01*
X145020750Y-102827000D01*
X145997045Y-102827000D01*
X146117231Y-102777217D01*
X146209217Y-102685230D01*
X146259000Y-102565044D01*
X146259000Y-101704750D01*
X146177250Y-101623000D01*
X144939000Y-101623000D01*
X144893000Y-101623000D01*
X143654750Y-101623000D01*
X143573000Y-101704750D01*
X138331934Y-101704750D01*
X138305037Y-101623000D01*
X137183000Y-101623000D01*
X137183000Y-101643000D01*
X137137000Y-101643000D01*
X137137000Y-101623000D01*
X136014963Y-101623000D01*
X135951915Y-101814629D01*
X136126010Y-102260605D01*
X136233885Y-102373001D01*
X136032225Y-102373001D01*
X135753286Y-102094062D01*
X135753600Y-102093591D01*
X135847000Y-101624038D01*
X135847000Y-101575962D01*
X135809090Y-101385371D01*
X135951915Y-101385371D01*
X136014963Y-101577000D01*
X137137000Y-101577000D01*
X137137000Y-100454981D01*
X137183000Y-100454981D01*
X137183000Y-101577000D01*
X138305037Y-101577000D01*
X138368085Y-101385371D01*
X138193990Y-100939395D01*
X137901799Y-100634956D01*
X143573000Y-100634956D01*
X143573000Y-101495250D01*
X143654750Y-101577000D01*
X144893000Y-101577000D01*
X144893000Y-100454750D01*
X144939000Y-100454750D01*
X144939000Y-101577000D01*
X146177250Y-101577000D01*
X146259000Y-101495250D01*
X146259000Y-100634956D01*
X146209217Y-100514770D01*
X146117231Y-100422783D01*
X145997045Y-100373000D01*
X145020750Y-100373000D01*
X144939000Y-100454750D01*
X144893000Y-100454750D01*
X144811250Y-100373000D01*
X143834955Y-100373000D01*
X143714769Y-100422783D01*
X143622783Y-100514770D01*
X143573000Y-100634956D01*
X137901799Y-100634956D01*
X137862480Y-100593990D01*
X137424024Y-100401740D01*
X137374628Y-100391918D01*
X137183000Y-100454981D01*
X137137000Y-100454981D01*
X136945372Y-100391918D01*
X136895976Y-100401740D01*
X136457520Y-100593990D01*
X136126010Y-100939395D01*
X135951915Y-101385371D01*
X135809090Y-101385371D01*
X135753600Y-101106409D01*
X135487620Y-100708342D01*
X135089553Y-100442362D01*
X134620000Y-100348962D01*
X134150447Y-100442362D01*
X133752380Y-100708342D01*
X133486400Y-101106409D01*
X133393000Y-101575962D01*
X133393000Y-101624038D01*
X133422649Y-101773095D01*
X133305779Y-101656225D01*
X133233548Y-101481412D01*
X132930847Y-101178183D01*
X132535147Y-101013874D01*
X132106690Y-101013500D01*
X131710704Y-101177118D01*
X131407475Y-101479819D01*
X131243166Y-101875519D01*
X131242792Y-102303976D01*
X127402000Y-102303976D01*
X127402000Y-99035962D01*
X133393000Y-99035962D01*
X133393000Y-99084038D01*
X133486400Y-99553591D01*
X133752380Y-99951658D01*
X134150447Y-100217638D01*
X134620000Y-100311038D01*
X135089553Y-100217638D01*
X135487620Y-99951658D01*
X135753600Y-99553591D01*
X135809089Y-99274629D01*
X135951915Y-99274629D01*
X136126010Y-99720605D01*
X136457520Y-100066010D01*
X136895976Y-100258260D01*
X136945372Y-100268082D01*
X137137000Y-100205019D01*
X137137000Y-99083000D01*
X137183000Y-99083000D01*
X137183000Y-100205019D01*
X137374628Y-100268082D01*
X137424024Y-100258260D01*
X137862480Y-100066010D01*
X138193990Y-99720605D01*
X138368085Y-99274629D01*
X138305037Y-99083000D01*
X137183000Y-99083000D01*
X137137000Y-99083000D01*
X136014963Y-99083000D01*
X135951915Y-99274629D01*
X135809089Y-99274629D01*
X135847000Y-99084038D01*
X135847000Y-99035962D01*
X135809090Y-98845371D01*
X135951915Y-98845371D01*
X136014963Y-99037000D01*
X137137000Y-99037000D01*
X137137000Y-97914981D01*
X137183000Y-97914981D01*
X137183000Y-99037000D01*
X138305037Y-99037000D01*
X138368085Y-98845371D01*
X138193990Y-98399395D01*
X137862480Y-98053990D01*
X137424024Y-97861740D01*
X137374628Y-97851918D01*
X137183000Y-97914981D01*
X137137000Y-97914981D01*
X136945372Y-97851918D01*
X136895976Y-97861740D01*
X136457520Y-98053990D01*
X136126010Y-98399395D01*
X135951915Y-98845371D01*
X135809090Y-98845371D01*
X135753600Y-98566409D01*
X135487620Y-98168342D01*
X135089553Y-97902362D01*
X134620000Y-97808962D01*
X134150447Y-97902362D01*
X133752380Y-98168342D01*
X133486400Y-98566409D01*
X133393000Y-99035962D01*
X127402000Y-99035962D01*
X127402000Y-77117505D01*
X128897493Y-77117505D01*
X128897493Y-80049493D01*
X128931899Y-80222466D01*
X129029881Y-80369105D01*
X130823002Y-82162226D01*
X130823002Y-87933980D01*
X130857408Y-88106953D01*
X130955390Y-88253592D01*
X133024880Y-90323082D01*
X132716515Y-90322813D01*
X132320529Y-90486431D01*
X132017300Y-90789132D01*
X131852991Y-91184832D01*
X131852617Y-91613289D01*
X131973000Y-91904638D01*
X131973000Y-94669797D01*
X131690725Y-94786431D01*
X131387496Y-95089132D01*
X131223187Y-95484832D01*
X131222813Y-95913289D01*
X131386431Y-96309275D01*
X131689132Y-96612504D01*
X132084832Y-96776813D01*
X132513289Y-96777187D01*
X132909275Y-96613569D01*
X133027087Y-96495962D01*
X133393000Y-96495962D01*
X133393000Y-96544038D01*
X133486400Y-97013591D01*
X133752380Y-97411658D01*
X134150447Y-97677638D01*
X134620000Y-97771038D01*
X135089553Y-97677638D01*
X135487620Y-97411658D01*
X135753600Y-97013591D01*
X135847000Y-96544038D01*
X135847000Y-96495962D01*
X135933000Y-96495962D01*
X135933000Y-96544038D01*
X136026400Y-97013591D01*
X136292380Y-97411658D01*
X136690447Y-97677638D01*
X137160000Y-97771038D01*
X137629553Y-97677638D01*
X138027620Y-97411658D01*
X138293600Y-97013591D01*
X138387000Y-96544038D01*
X138387000Y-96495962D01*
X138293600Y-96026409D01*
X138027620Y-95628342D01*
X137629553Y-95362362D01*
X137160000Y-95268962D01*
X136690447Y-95362362D01*
X136292380Y-95628342D01*
X136026400Y-96026409D01*
X135933000Y-96495962D01*
X135847000Y-96495962D01*
X135753600Y-96026409D01*
X135487620Y-95628342D01*
X135089553Y-95362362D01*
X134620000Y-95268962D01*
X134150447Y-95362362D01*
X133752380Y-95628342D01*
X133486400Y-96026409D01*
X133393000Y-96495962D01*
X133027087Y-96495962D01*
X133212504Y-96310868D01*
X133376813Y-95915168D01*
X133376920Y-95792634D01*
X133384777Y-95784777D01*
X133564048Y-95516479D01*
X133627000Y-95200000D01*
X133627000Y-92225801D01*
X133842308Y-92010868D01*
X134006617Y-91615168D01*
X134006888Y-91305090D01*
X134621410Y-91919612D01*
X134768049Y-92017594D01*
X134941022Y-92052000D01*
X139112776Y-92052000D01*
X139948000Y-92887224D01*
X139948000Y-94826257D01*
X139792782Y-94826122D01*
X139396796Y-94989740D01*
X139093567Y-95292441D01*
X138929258Y-95688141D01*
X138928884Y-96116598D01*
X139092502Y-96512584D01*
X139395203Y-96815813D01*
X139790903Y-96980122D01*
X140219360Y-96980496D01*
X140615346Y-96816878D01*
X140638049Y-96794215D01*
X140721955Y-96997284D01*
X141024656Y-97300513D01*
X141420356Y-97464822D01*
X141848813Y-97465196D01*
X142244799Y-97301578D01*
X142548028Y-96998877D01*
X142696635Y-96640991D01*
X142827873Y-96772457D01*
X143223573Y-96936766D01*
X143652030Y-96937140D01*
X144048016Y-96773522D01*
X144351245Y-96470821D01*
X144515554Y-96075121D01*
X144515928Y-95646664D01*
X144352310Y-95250678D01*
X144049609Y-94947449D01*
X143653909Y-94783140D01*
X143225452Y-94782766D01*
X142829466Y-94946384D01*
X142607344Y-95168119D01*
X142319612Y-94880388D01*
X142172973Y-94782406D01*
X142000000Y-94748000D01*
X141987225Y-94748000D01*
X141852000Y-94612776D01*
X141852000Y-92976872D01*
X142213289Y-92977187D01*
X142609275Y-92813569D01*
X142912504Y-92510868D01*
X143076813Y-92115168D01*
X143077187Y-91686711D01*
X142913569Y-91290725D01*
X142610868Y-90987496D01*
X142215168Y-90823187D01*
X141786711Y-90822813D01*
X141390725Y-90986431D01*
X141087496Y-91289132D01*
X140923187Y-91684832D01*
X140923013Y-91883789D01*
X139819612Y-90780388D01*
X139672973Y-90682406D01*
X139500000Y-90648000D01*
X135264657Y-90648000D01*
X134743191Y-90126534D01*
X135089553Y-90057638D01*
X135487620Y-89791658D01*
X135753600Y-89393591D01*
X135830945Y-89004750D01*
X135933000Y-89004750D01*
X135933000Y-89865044D01*
X135982783Y-89985230D01*
X136074769Y-90077217D01*
X136194955Y-90127000D01*
X137055250Y-90127000D01*
X137137000Y-90045250D01*
X137137000Y-88923000D01*
X137183000Y-88923000D01*
X137183000Y-90045250D01*
X137264750Y-90127000D01*
X138125045Y-90127000D01*
X138245231Y-90077217D01*
X138337217Y-89985230D01*
X138387000Y-89865044D01*
X138387000Y-89004750D01*
X143437000Y-89004750D01*
X143437000Y-89865044D01*
X143486783Y-89985230D01*
X143578769Y-90077217D01*
X143698955Y-90127000D01*
X144675250Y-90127000D01*
X144757000Y-90045250D01*
X144757000Y-88923000D01*
X144803000Y-88923000D01*
X144803000Y-90045250D01*
X144884750Y-90127000D01*
X145861045Y-90127000D01*
X145981231Y-90077217D01*
X146073217Y-89985230D01*
X146123000Y-89865044D01*
X146123000Y-89004750D01*
X146951888Y-89004750D01*
X146951888Y-89865044D01*
X147001671Y-89985230D01*
X147093657Y-90077217D01*
X147213843Y-90127000D01*
X148190138Y-90127000D01*
X148271888Y-90045250D01*
X148271888Y-88923000D01*
X148317888Y-88923000D01*
X148317888Y-90045250D01*
X148399638Y-90127000D01*
X149375933Y-90127000D01*
X149496119Y-90077217D01*
X149588105Y-89985230D01*
X149637888Y-89865044D01*
X149637888Y-89004750D01*
X191697000Y-89004750D01*
X191697000Y-89865044D01*
X191746783Y-89985230D01*
X191838769Y-90077217D01*
X191958955Y-90127000D01*
X192935250Y-90127000D01*
X193017000Y-90045250D01*
X193017000Y-88923000D01*
X193063000Y-88923000D01*
X193063000Y-90045250D01*
X193144750Y-90127000D01*
X194121045Y-90127000D01*
X194241231Y-90077217D01*
X194333217Y-89985230D01*
X194383000Y-89865044D01*
X194383000Y-89004750D01*
X194301250Y-88923000D01*
X193063000Y-88923000D01*
X193017000Y-88923000D01*
X191778750Y-88923000D01*
X191697000Y-89004750D01*
X149637888Y-89004750D01*
X149556138Y-88923000D01*
X148317888Y-88923000D01*
X148271888Y-88923000D01*
X147033638Y-88923000D01*
X146951888Y-89004750D01*
X146123000Y-89004750D01*
X146041250Y-88923000D01*
X144803000Y-88923000D01*
X144757000Y-88923000D01*
X143518750Y-88923000D01*
X143437000Y-89004750D01*
X138387000Y-89004750D01*
X138305250Y-88923000D01*
X137183000Y-88923000D01*
X137137000Y-88923000D01*
X136014750Y-88923000D01*
X135933000Y-89004750D01*
X135830945Y-89004750D01*
X135847000Y-88924038D01*
X135847000Y-88875962D01*
X135753600Y-88406409D01*
X135487620Y-88008342D01*
X135377791Y-87934956D01*
X135933000Y-87934956D01*
X135933000Y-88795250D01*
X136014750Y-88877000D01*
X137137000Y-88877000D01*
X137137000Y-87754750D01*
X137183000Y-87754750D01*
X137183000Y-88877000D01*
X138305250Y-88877000D01*
X138387000Y-88795250D01*
X138387000Y-87934956D01*
X143437000Y-87934956D01*
X143437000Y-88795250D01*
X143518750Y-88877000D01*
X144757000Y-88877000D01*
X144757000Y-87754750D01*
X144803000Y-87754750D01*
X144803000Y-88877000D01*
X146041250Y-88877000D01*
X146123000Y-88795250D01*
X146123000Y-87934956D01*
X146951888Y-87934956D01*
X146951888Y-88795250D01*
X147033638Y-88877000D01*
X148271888Y-88877000D01*
X148271888Y-87754750D01*
X148317888Y-87754750D01*
X148317888Y-88877000D01*
X149556138Y-88877000D01*
X149637888Y-88795250D01*
X149637888Y-87934956D01*
X191697000Y-87934956D01*
X191697000Y-88795250D01*
X191778750Y-88877000D01*
X193017000Y-88877000D01*
X193017000Y-87754750D01*
X193063000Y-87754750D01*
X193063000Y-88877000D01*
X194301250Y-88877000D01*
X194383000Y-88795250D01*
X194383000Y-87934956D01*
X194333217Y-87814770D01*
X194241231Y-87722783D01*
X194121045Y-87673000D01*
X193144750Y-87673000D01*
X193063000Y-87754750D01*
X193017000Y-87754750D01*
X192935250Y-87673000D01*
X191958955Y-87673000D01*
X191838769Y-87722783D01*
X191746783Y-87814770D01*
X191697000Y-87934956D01*
X149637888Y-87934956D01*
X149588105Y-87814770D01*
X149496119Y-87722783D01*
X149375933Y-87673000D01*
X148399638Y-87673000D01*
X148317888Y-87754750D01*
X148271888Y-87754750D01*
X148190138Y-87673000D01*
X147213843Y-87673000D01*
X147093657Y-87722783D01*
X147001671Y-87814770D01*
X146951888Y-87934956D01*
X146123000Y-87934956D01*
X146073217Y-87814770D01*
X145981231Y-87722783D01*
X145861045Y-87673000D01*
X144884750Y-87673000D01*
X144803000Y-87754750D01*
X144757000Y-87754750D01*
X144675250Y-87673000D01*
X143698955Y-87673000D01*
X143578769Y-87722783D01*
X143486783Y-87814770D01*
X143437000Y-87934956D01*
X138387000Y-87934956D01*
X138337217Y-87814770D01*
X138245231Y-87722783D01*
X138125045Y-87673000D01*
X137264750Y-87673000D01*
X137183000Y-87754750D01*
X137137000Y-87754750D01*
X137055250Y-87673000D01*
X136194955Y-87673000D01*
X136074769Y-87722783D01*
X135982783Y-87814770D01*
X135933000Y-87934956D01*
X135377791Y-87934956D01*
X135089553Y-87742362D01*
X134620000Y-87648962D01*
X134150447Y-87742362D01*
X133752380Y-88008342D01*
X133486400Y-88406409D01*
X133409528Y-88792871D01*
X132177013Y-87560356D01*
X132177013Y-86335962D01*
X133393000Y-86335962D01*
X133393000Y-86384038D01*
X133486400Y-86853591D01*
X133752380Y-87251658D01*
X134150447Y-87517638D01*
X134620000Y-87611038D01*
X135089553Y-87517638D01*
X135487620Y-87251658D01*
X135753600Y-86853591D01*
X135847000Y-86384038D01*
X135847000Y-86335962D01*
X135933000Y-86335962D01*
X135933000Y-86384038D01*
X136026400Y-86853591D01*
X136292380Y-87251658D01*
X136690447Y-87517638D01*
X137160000Y-87611038D01*
X137629553Y-87517638D01*
X138027620Y-87251658D01*
X138293600Y-86853591D01*
X138387000Y-86384038D01*
X138387000Y-86360000D01*
X143410689Y-86360000D01*
X143504089Y-86829553D01*
X143770069Y-87227620D01*
X144168136Y-87493600D01*
X144637689Y-87587000D01*
X144922311Y-87587000D01*
X145391864Y-87493600D01*
X145789931Y-87227620D01*
X146055911Y-86829553D01*
X146149311Y-86360000D01*
X146925577Y-86360000D01*
X147018977Y-86829553D01*
X147284957Y-87227620D01*
X147683024Y-87493600D01*
X148152577Y-87587000D01*
X148437199Y-87587000D01*
X148906752Y-87493600D01*
X149304819Y-87227620D01*
X149570799Y-86829553D01*
X149664199Y-86360000D01*
X191670689Y-86360000D01*
X191764089Y-86829553D01*
X192030069Y-87227620D01*
X192428136Y-87493600D01*
X192897689Y-87587000D01*
X193182311Y-87587000D01*
X193651864Y-87493600D01*
X194049931Y-87227620D01*
X194315911Y-86829553D01*
X194409311Y-86360000D01*
X194315911Y-85890447D01*
X194049931Y-85492380D01*
X193651864Y-85226400D01*
X193182311Y-85133000D01*
X192897689Y-85133000D01*
X192428136Y-85226400D01*
X192030069Y-85492380D01*
X191764089Y-85890447D01*
X191670689Y-86360000D01*
X149664199Y-86360000D01*
X149570799Y-85890447D01*
X149304819Y-85492380D01*
X148906752Y-85226400D01*
X148437199Y-85133000D01*
X148152577Y-85133000D01*
X147683024Y-85226400D01*
X147284957Y-85492380D01*
X147018977Y-85890447D01*
X146925577Y-86360000D01*
X146149311Y-86360000D01*
X146055911Y-85890447D01*
X145789931Y-85492380D01*
X145391864Y-85226400D01*
X144922311Y-85133000D01*
X144637689Y-85133000D01*
X144168136Y-85226400D01*
X143770069Y-85492380D01*
X143504089Y-85890447D01*
X143410689Y-86360000D01*
X138387000Y-86360000D01*
X138387000Y-86335962D01*
X138293600Y-85866409D01*
X138027620Y-85468342D01*
X137629553Y-85202362D01*
X137160000Y-85108962D01*
X136690447Y-85202362D01*
X136292380Y-85468342D01*
X136026400Y-85866409D01*
X135933000Y-86335962D01*
X135847000Y-86335962D01*
X135753600Y-85866409D01*
X135487620Y-85468342D01*
X135089553Y-85202362D01*
X134620000Y-85108962D01*
X134150447Y-85202362D01*
X133752380Y-85468342D01*
X133486400Y-85866409D01*
X133393000Y-86335962D01*
X132177013Y-86335962D01*
X132177013Y-80904706D01*
X132142607Y-80731733D01*
X132044626Y-80585094D01*
X131716578Y-80257047D01*
X131658521Y-80198990D01*
X131723780Y-80041828D01*
X131724154Y-79613371D01*
X131560536Y-79217385D01*
X131257835Y-78914156D01*
X130862135Y-78749847D01*
X130433678Y-78749473D01*
X130037692Y-78913091D01*
X129801493Y-79148879D01*
X129801493Y-77304729D01*
X133423221Y-73683002D01*
X133474962Y-73683002D01*
X133411915Y-73874629D01*
X133586010Y-74320605D01*
X133917520Y-74666010D01*
X134355976Y-74858260D01*
X134405372Y-74868082D01*
X134597000Y-74805019D01*
X134597000Y-73683000D01*
X134643000Y-73683000D01*
X134643000Y-74805019D01*
X134834628Y-74868082D01*
X134884024Y-74858260D01*
X135322480Y-74666010D01*
X135653990Y-74320605D01*
X135828085Y-73874629D01*
X135765037Y-73683000D01*
X134643000Y-73683000D01*
X134597000Y-73683000D01*
X134577000Y-73683000D01*
X134577000Y-73637000D01*
X134597000Y-73637000D01*
X134597000Y-73617000D01*
X134643000Y-73617000D01*
X134643000Y-73637000D01*
X135765037Y-73637000D01*
X135828085Y-73445371D01*
X135653990Y-72999395D01*
X135546115Y-72886999D01*
X136213096Y-72886999D01*
X136026400Y-73166409D01*
X135933000Y-73635962D01*
X135933000Y-73684038D01*
X136026400Y-74153591D01*
X136026714Y-74154062D01*
X135615387Y-74565389D01*
X135517405Y-74712028D01*
X135482999Y-74885001D01*
X135482999Y-75305254D01*
X135089553Y-75042362D01*
X134620000Y-74948962D01*
X134150447Y-75042362D01*
X133752380Y-75308342D01*
X133486400Y-75706409D01*
X133393000Y-76175962D01*
X133393000Y-76224038D01*
X133486400Y-76693591D01*
X133752380Y-77091658D01*
X134150447Y-77357638D01*
X134620000Y-77451038D01*
X135089553Y-77357638D01*
X135482999Y-77094746D01*
X135482999Y-82317776D01*
X135200387Y-82600389D01*
X135118843Y-82681933D01*
X135089553Y-82662362D01*
X134620000Y-82568962D01*
X134150447Y-82662362D01*
X133752380Y-82928342D01*
X133486400Y-83326409D01*
X133393000Y-83795962D01*
X133393000Y-83844038D01*
X133486400Y-84313591D01*
X133752380Y-84711658D01*
X134150447Y-84977638D01*
X134620000Y-85071038D01*
X135089553Y-84977638D01*
X135487620Y-84711658D01*
X135753600Y-84313591D01*
X135847000Y-83844038D01*
X135847000Y-83795962D01*
X135933000Y-83795962D01*
X135933000Y-83844038D01*
X136026400Y-84313591D01*
X136292380Y-84711658D01*
X136690447Y-84977638D01*
X137160000Y-85071038D01*
X137629553Y-84977638D01*
X138027620Y-84711658D01*
X138293600Y-84313591D01*
X138387000Y-83844038D01*
X138387000Y-83820000D01*
X143410689Y-83820000D01*
X143504089Y-84289553D01*
X143770069Y-84687620D01*
X144168136Y-84953600D01*
X144637689Y-85047000D01*
X144922311Y-85047000D01*
X145391864Y-84953600D01*
X145789931Y-84687620D01*
X146055911Y-84289553D01*
X146149311Y-83820000D01*
X146925577Y-83820000D01*
X147018977Y-84289553D01*
X147284957Y-84687620D01*
X147683024Y-84953600D01*
X148152577Y-85047000D01*
X148437199Y-85047000D01*
X148906752Y-84953600D01*
X149304819Y-84687620D01*
X149570799Y-84289553D01*
X149664199Y-83820000D01*
X191670689Y-83820000D01*
X191764089Y-84289553D01*
X192030069Y-84687620D01*
X192428136Y-84953600D01*
X192897689Y-85047000D01*
X193182311Y-85047000D01*
X193651864Y-84953600D01*
X194049931Y-84687620D01*
X194315911Y-84289553D01*
X194409311Y-83820000D01*
X194315911Y-83350447D01*
X194049931Y-82952380D01*
X193651864Y-82686400D01*
X193182311Y-82593000D01*
X192897689Y-82593000D01*
X192428136Y-82686400D01*
X192030069Y-82952380D01*
X191764089Y-83350447D01*
X191670689Y-83820000D01*
X149664199Y-83820000D01*
X149570799Y-83350447D01*
X149304819Y-82952380D01*
X148906752Y-82686400D01*
X148437199Y-82593000D01*
X148152577Y-82593000D01*
X147683024Y-82686400D01*
X147284957Y-82952380D01*
X147018977Y-83350447D01*
X146925577Y-83820000D01*
X146149311Y-83820000D01*
X146055911Y-83350447D01*
X145789931Y-82952380D01*
X145391864Y-82686400D01*
X144922311Y-82593000D01*
X144637689Y-82593000D01*
X144168136Y-82686400D01*
X143770069Y-82952380D01*
X143504089Y-83350447D01*
X143410689Y-83820000D01*
X138387000Y-83820000D01*
X138387000Y-83795962D01*
X138293600Y-83326409D01*
X138027620Y-82928342D01*
X137629553Y-82662362D01*
X137160000Y-82568962D01*
X136690447Y-82662362D01*
X136292380Y-82928342D01*
X136026400Y-83326409D01*
X135933000Y-83795962D01*
X135847000Y-83795962D01*
X135753600Y-83326409D01*
X135753286Y-83325938D01*
X135839611Y-83239613D01*
X136254612Y-82824613D01*
X136352593Y-82677974D01*
X136386999Y-82505001D01*
X136386999Y-81280000D01*
X191670689Y-81280000D01*
X191764089Y-81749553D01*
X192030069Y-82147620D01*
X192428136Y-82413600D01*
X192897689Y-82507000D01*
X193182311Y-82507000D01*
X193651864Y-82413600D01*
X194049931Y-82147620D01*
X194315911Y-81749553D01*
X194409311Y-81280000D01*
X194315911Y-80810447D01*
X194049931Y-80412380D01*
X193651864Y-80146400D01*
X193182311Y-80053000D01*
X192897689Y-80053000D01*
X192428136Y-80146400D01*
X192030069Y-80412380D01*
X191764089Y-80810447D01*
X191670689Y-81280000D01*
X136386999Y-81280000D01*
X136386999Y-77433406D01*
X138060000Y-77433406D01*
X138181179Y-77410605D01*
X138292474Y-77338988D01*
X138367138Y-77229714D01*
X138393406Y-77100000D01*
X138393406Y-75300000D01*
X138370605Y-75178821D01*
X138298988Y-75067526D01*
X138189714Y-74992862D01*
X138060000Y-74966594D01*
X136492630Y-74966594D01*
X136661157Y-74798067D01*
X136690447Y-74817638D01*
X137160000Y-74911038D01*
X137629553Y-74817638D01*
X138027620Y-74551658D01*
X138293600Y-74153591D01*
X138387000Y-73684038D01*
X138387000Y-73658878D01*
X187672424Y-73658878D01*
X188177862Y-74882132D01*
X189112945Y-75818849D01*
X190335315Y-76326421D01*
X191658878Y-76327576D01*
X192882132Y-75822138D01*
X193818849Y-74887055D01*
X194326421Y-73664685D01*
X194327576Y-72341122D01*
X193822138Y-71117868D01*
X192887055Y-70181151D01*
X191664685Y-69673579D01*
X190341122Y-69672424D01*
X189117868Y-70177862D01*
X188181151Y-71112945D01*
X187673579Y-72335315D01*
X187672424Y-73658878D01*
X138387000Y-73658878D01*
X138387000Y-73635962D01*
X138293600Y-73166409D01*
X138027620Y-72768342D01*
X137989413Y-72742813D01*
X139779585Y-70952642D01*
X139877567Y-70806002D01*
X139911973Y-70633029D01*
X139911973Y-68960400D01*
X140069248Y-68895415D01*
X140372477Y-68592714D01*
X140536786Y-68197014D01*
X140537160Y-67768557D01*
X140373542Y-67372571D01*
X140070841Y-67069342D01*
X139675141Y-66905033D01*
X139246684Y-66904659D01*
X138850698Y-67068277D01*
X138547469Y-67370978D01*
X138383160Y-67766678D01*
X138382786Y-68195135D01*
X138546404Y-68591121D01*
X138849105Y-68894350D01*
X139007973Y-68960318D01*
X139007973Y-70445804D01*
X138382158Y-71071619D01*
X138293600Y-70626409D01*
X138027620Y-70228342D01*
X137629553Y-69962362D01*
X137160000Y-69868962D01*
X136690447Y-69962362D01*
X136292380Y-70228342D01*
X136026400Y-70626409D01*
X135933000Y-71095962D01*
X135933000Y-71144038D01*
X136026400Y-71613591D01*
X136273231Y-71982999D01*
X135459738Y-71982999D01*
X135653990Y-71780605D01*
X135828085Y-71334629D01*
X135765037Y-71143000D01*
X134643000Y-71143000D01*
X134643000Y-71163000D01*
X134597000Y-71163000D01*
X134597000Y-71143000D01*
X133474963Y-71143000D01*
X133411915Y-71334629D01*
X133586010Y-71780605D01*
X133831156Y-72036026D01*
X133712386Y-72115387D01*
X129029881Y-76797893D01*
X128931899Y-76944532D01*
X128897493Y-77117505D01*
X127402000Y-77117505D01*
X127402000Y-70905371D01*
X133411915Y-70905371D01*
X133474963Y-71097000D01*
X134597000Y-71097000D01*
X134597000Y-69974981D01*
X134643000Y-69974981D01*
X134643000Y-71097000D01*
X135765037Y-71097000D01*
X135828085Y-70905371D01*
X135653990Y-70459395D01*
X135322480Y-70113990D01*
X134884024Y-69921740D01*
X134834628Y-69911918D01*
X134643000Y-69974981D01*
X134597000Y-69974981D01*
X134405372Y-69911918D01*
X134355976Y-69921740D01*
X133917520Y-70113990D01*
X133586010Y-70459395D01*
X133411915Y-70905371D01*
X127402000Y-70905371D01*
X127402000Y-68555962D01*
X133393000Y-68555962D01*
X133393000Y-68604038D01*
X133486400Y-69073591D01*
X133752380Y-69471658D01*
X134150447Y-69737638D01*
X134620000Y-69831038D01*
X135089553Y-69737638D01*
X135487620Y-69471658D01*
X135753600Y-69073591D01*
X135847000Y-68604038D01*
X135847000Y-68555962D01*
X135933000Y-68555962D01*
X135933000Y-68604038D01*
X136026400Y-69073591D01*
X136292380Y-69471658D01*
X136690447Y-69737638D01*
X137160000Y-69831038D01*
X137629553Y-69737638D01*
X138027620Y-69471658D01*
X138293600Y-69073591D01*
X138387000Y-68604038D01*
X138387000Y-68555962D01*
X138293600Y-68086409D01*
X138027620Y-67688342D01*
X137629553Y-67422362D01*
X137160000Y-67328962D01*
X136690447Y-67422362D01*
X136292380Y-67688342D01*
X136026400Y-68086409D01*
X135933000Y-68555962D01*
X135847000Y-68555962D01*
X135753600Y-68086409D01*
X135487620Y-67688342D01*
X135089553Y-67422362D01*
X134620000Y-67328962D01*
X134150447Y-67422362D01*
X133752380Y-67688342D01*
X133486400Y-68086409D01*
X133393000Y-68555962D01*
X127402000Y-68555962D01*
X127402000Y-65658878D01*
X140672424Y-65658878D01*
X141177862Y-66882132D01*
X142112945Y-67818849D01*
X143335315Y-68326421D01*
X144658878Y-68327576D01*
X145882132Y-67822138D01*
X146818849Y-66887055D01*
X147326421Y-65664685D01*
X147327576Y-64341122D01*
X146822138Y-63117868D01*
X145887055Y-62181151D01*
X145723626Y-62113289D01*
X149322813Y-62113289D01*
X149486431Y-62509275D01*
X149789132Y-62812504D01*
X150184832Y-62976813D01*
X150613289Y-62977187D01*
X151009275Y-62813569D01*
X151312504Y-62510868D01*
X151476813Y-62115168D01*
X151477187Y-61686711D01*
X151313569Y-61290725D01*
X151010868Y-60987496D01*
X150927000Y-60952671D01*
X150927000Y-58524750D01*
X151173000Y-58524750D01*
X151173000Y-59385045D01*
X151222783Y-59505231D01*
X151314770Y-59597217D01*
X151434956Y-59647000D01*
X152295250Y-59647000D01*
X152377000Y-59565250D01*
X152377000Y-58443000D01*
X152423000Y-58443000D01*
X152423000Y-59565250D01*
X152504750Y-59647000D01*
X153365044Y-59647000D01*
X153485230Y-59597217D01*
X153577217Y-59505231D01*
X153627000Y-59385045D01*
X153627000Y-58524750D01*
X153545250Y-58443000D01*
X152423000Y-58443000D01*
X152377000Y-58443000D01*
X151254750Y-58443000D01*
X151173000Y-58524750D01*
X150927000Y-58524750D01*
X150927000Y-58420000D01*
X153688962Y-58420000D01*
X153782362Y-58889553D01*
X154048342Y-59287620D01*
X154446409Y-59553600D01*
X154915962Y-59647000D01*
X154964038Y-59647000D01*
X155345777Y-59571067D01*
X157047355Y-61272646D01*
X157218326Y-61386885D01*
X157420000Y-61427000D01*
X157652436Y-61427000D01*
X157686431Y-61509275D01*
X157989132Y-61812504D01*
X158384832Y-61976813D01*
X158813289Y-61977187D01*
X159209275Y-61813569D01*
X159512504Y-61510868D01*
X159676813Y-61115168D01*
X159677187Y-60686711D01*
X159513569Y-60290725D01*
X159210868Y-59987496D01*
X158815168Y-59823187D01*
X158386711Y-59822813D01*
X157990725Y-59986431D01*
X157687496Y-60289132D01*
X157652671Y-60373000D01*
X157638291Y-60373000D01*
X156107129Y-58841839D01*
X156191038Y-58420000D01*
X156228962Y-58420000D01*
X156322362Y-58889553D01*
X156588342Y-59287620D01*
X156986409Y-59553600D01*
X157455962Y-59647000D01*
X157504038Y-59647000D01*
X157973591Y-59553600D01*
X158371658Y-59287620D01*
X158637638Y-58889553D01*
X158731038Y-58420000D01*
X158637638Y-57950447D01*
X158371658Y-57552380D01*
X157973591Y-57286400D01*
X157504038Y-57193000D01*
X157455962Y-57193000D01*
X156986409Y-57286400D01*
X156588342Y-57552380D01*
X156322362Y-57950447D01*
X156228962Y-58420000D01*
X156191038Y-58420000D01*
X156097638Y-57950447D01*
X155831658Y-57552380D01*
X155433591Y-57286400D01*
X154964038Y-57193000D01*
X154915962Y-57193000D01*
X154446409Y-57286400D01*
X154048342Y-57552380D01*
X153782362Y-57950447D01*
X153688962Y-58420000D01*
X150927000Y-58420000D01*
X150927000Y-57454955D01*
X151173000Y-57454955D01*
X151173000Y-58315250D01*
X151254750Y-58397000D01*
X152377000Y-58397000D01*
X152377000Y-57274750D01*
X152423000Y-57274750D01*
X152423000Y-58397000D01*
X153545250Y-58397000D01*
X153627000Y-58315250D01*
X153627000Y-57454955D01*
X153577217Y-57334769D01*
X153485230Y-57242783D01*
X153365044Y-57193000D01*
X152504750Y-57193000D01*
X152423000Y-57274750D01*
X152377000Y-57274750D01*
X152295250Y-57193000D01*
X151434956Y-57193000D01*
X151314770Y-57242783D01*
X151222783Y-57334769D01*
X151173000Y-57454955D01*
X150927000Y-57454955D01*
X150927000Y-56174288D01*
X151198286Y-55903002D01*
X151254980Y-55903002D01*
X151191918Y-56094628D01*
X151201740Y-56144024D01*
X151393990Y-56582480D01*
X151739395Y-56913990D01*
X152185371Y-57088085D01*
X152377000Y-57025037D01*
X152377000Y-55903000D01*
X152423000Y-55903000D01*
X152423000Y-57025037D01*
X152614629Y-57088085D01*
X153060605Y-56913990D01*
X153406010Y-56582480D01*
X153598260Y-56144024D01*
X153608082Y-56094628D01*
X153545019Y-55903000D01*
X152423000Y-55903000D01*
X152377000Y-55903000D01*
X152357000Y-55903000D01*
X152357000Y-55857000D01*
X152377000Y-55857000D01*
X152377000Y-55837000D01*
X152423000Y-55837000D01*
X152423000Y-55857000D01*
X153545019Y-55857000D01*
X153608082Y-55665372D01*
X153598260Y-55615976D01*
X153406010Y-55177520D01*
X153332533Y-55106999D01*
X153421709Y-55106999D01*
X153772871Y-55458161D01*
X153688962Y-55880000D01*
X153782362Y-56349553D01*
X154048342Y-56747620D01*
X154446409Y-57013600D01*
X154915962Y-57107000D01*
X154964038Y-57107000D01*
X155433591Y-57013600D01*
X155831658Y-56747620D01*
X156097638Y-56349553D01*
X156191038Y-55880000D01*
X156228962Y-55880000D01*
X156322362Y-56349553D01*
X156588342Y-56747620D01*
X156986409Y-57013600D01*
X157455962Y-57107000D01*
X157504038Y-57107000D01*
X157973591Y-57013600D01*
X158371658Y-56747620D01*
X158637638Y-56349553D01*
X158731038Y-55880000D01*
X158637638Y-55410447D01*
X158371658Y-55012380D01*
X157973591Y-54746400D01*
X157504038Y-54653000D01*
X157455962Y-54653000D01*
X156986409Y-54746400D01*
X156588342Y-55012380D01*
X156322362Y-55410447D01*
X156228962Y-55880000D01*
X156191038Y-55880000D01*
X156097638Y-55410447D01*
X155831658Y-55012380D01*
X155433591Y-54746400D01*
X154964038Y-54653000D01*
X154915962Y-54653000D01*
X154534223Y-54728933D01*
X154012644Y-54207354D01*
X153841674Y-54093114D01*
X153639999Y-54052999D01*
X151775999Y-54052999D01*
X151574325Y-54093114D01*
X151574323Y-54093115D01*
X151574324Y-54093115D01*
X151403353Y-54207354D01*
X150027355Y-55583353D01*
X149913115Y-55754323D01*
X149913115Y-55754324D01*
X149873000Y-55955998D01*
X149873000Y-60952436D01*
X149790725Y-60986431D01*
X149487496Y-61289132D01*
X149323187Y-61684832D01*
X149322813Y-62113289D01*
X145723626Y-62113289D01*
X144664685Y-61673579D01*
X143341122Y-61672424D01*
X142117868Y-62177862D01*
X141181151Y-63112945D01*
X140673579Y-64335315D01*
X140672424Y-65658878D01*
X127402000Y-65658878D01*
X127402000Y-61064750D01*
X133277000Y-61064750D01*
X133277000Y-61925044D01*
X133326783Y-62045230D01*
X133418769Y-62137217D01*
X133538955Y-62187000D01*
X134515250Y-62187000D01*
X134597000Y-62105250D01*
X134597000Y-60983000D01*
X134643000Y-60983000D01*
X134643000Y-62105250D01*
X134724750Y-62187000D01*
X135701045Y-62187000D01*
X135821231Y-62137217D01*
X135913217Y-62045230D01*
X135963000Y-61925044D01*
X135963000Y-61064750D01*
X135881250Y-60983000D01*
X134643000Y-60983000D01*
X134597000Y-60983000D01*
X133358750Y-60983000D01*
X133277000Y-61064750D01*
X127402000Y-61064750D01*
X127402000Y-59994956D01*
X133277000Y-59994956D01*
X133277000Y-60855250D01*
X133358750Y-60937000D01*
X134597000Y-60937000D01*
X134597000Y-59814750D01*
X134643000Y-59814750D01*
X134643000Y-60937000D01*
X135881250Y-60937000D01*
X135963000Y-60855250D01*
X135963000Y-59994956D01*
X135913217Y-59874770D01*
X135821231Y-59782783D01*
X135701045Y-59733000D01*
X134724750Y-59733000D01*
X134643000Y-59814750D01*
X134597000Y-59814750D01*
X134515250Y-59733000D01*
X133538955Y-59733000D01*
X133418769Y-59782783D01*
X133326783Y-59874770D01*
X133277000Y-59994956D01*
X127402000Y-59994956D01*
X127402000Y-58420000D01*
X133250689Y-58420000D01*
X133344089Y-58889553D01*
X133610069Y-59287620D01*
X134008136Y-59553600D01*
X134477689Y-59647000D01*
X134762311Y-59647000D01*
X135231864Y-59553600D01*
X135629931Y-59287620D01*
X135895911Y-58889553D01*
X135989311Y-58420000D01*
X135895911Y-57950447D01*
X135629931Y-57552380D01*
X135231864Y-57286400D01*
X134762311Y-57193000D01*
X134477689Y-57193000D01*
X134008136Y-57286400D01*
X133610069Y-57552380D01*
X133344089Y-57950447D01*
X133250689Y-58420000D01*
X127402000Y-58420000D01*
X127402000Y-55880000D01*
X133250689Y-55880000D01*
X133344089Y-56349553D01*
X133610069Y-56747620D01*
X134008136Y-57013600D01*
X134477689Y-57107000D01*
X134762311Y-57107000D01*
X135231864Y-57013600D01*
X135629931Y-56747620D01*
X135895911Y-56349553D01*
X135989311Y-55880000D01*
X135895911Y-55410447D01*
X135629931Y-55012380D01*
X135231864Y-54746400D01*
X134762311Y-54653000D01*
X134477689Y-54653000D01*
X134008136Y-54746400D01*
X133610069Y-55012380D01*
X133344089Y-55410447D01*
X133250689Y-55880000D01*
X127402000Y-55880000D01*
X127402000Y-52402000D01*
X167873000Y-52402000D01*
X167873000Y-59000000D01*
X167873000Y-59000000D01*
G37*
X167873000Y-59000000D02*
X167881685Y-59046159D01*
X167908965Y-59088553D01*
X167950590Y-59116994D01*
X168000000Y-59127000D01*
X186000000Y-59127000D01*
X186046159Y-59118315D01*
X186088553Y-59091035D01*
X186116994Y-59049410D01*
X186127000Y-59000000D01*
X186127000Y-52402000D01*
X197598000Y-52402000D01*
X197598000Y-146598000D01*
X127402000Y-146598000D01*
X127402000Y-143762798D01*
X180672771Y-143762798D01*
X180874369Y-144250703D01*
X181247334Y-144624319D01*
X181734885Y-144826769D01*
X182262798Y-144827229D01*
X182750703Y-144625631D01*
X183124319Y-144252666D01*
X183326769Y-143765115D01*
X183326771Y-143762798D01*
X188672771Y-143762798D01*
X188874369Y-144250703D01*
X189247334Y-144624319D01*
X189734885Y-144826769D01*
X190262798Y-144827229D01*
X190750703Y-144625631D01*
X191124319Y-144252666D01*
X191326769Y-143765115D01*
X191327229Y-143237202D01*
X191125631Y-142749297D01*
X190752666Y-142375681D01*
X190265115Y-142173231D01*
X189737202Y-142172771D01*
X189249297Y-142374369D01*
X188875681Y-142747334D01*
X188673231Y-143234885D01*
X188672771Y-143762798D01*
X183326771Y-143762798D01*
X183327229Y-143237202D01*
X183125631Y-142749297D01*
X182752666Y-142375681D01*
X182265115Y-142173231D01*
X181737202Y-142172771D01*
X181249297Y-142374369D01*
X180875681Y-142747334D01*
X180673231Y-143234885D01*
X180672771Y-143762798D01*
X127402000Y-143762798D01*
X127402000Y-139914628D01*
X133411918Y-139914628D01*
X133421740Y-139964024D01*
X133613990Y-140402480D01*
X133959395Y-140733990D01*
X134405371Y-140908085D01*
X134597000Y-140845037D01*
X134597000Y-139723000D01*
X134643000Y-139723000D01*
X134643000Y-140845037D01*
X134834629Y-140908085D01*
X135280605Y-140733990D01*
X135626010Y-140402480D01*
X135818260Y-139964024D01*
X135828082Y-139914628D01*
X135765019Y-139723000D01*
X134643000Y-139723000D01*
X134597000Y-139723000D01*
X133474981Y-139723000D01*
X133411918Y-139914628D01*
X127402000Y-139914628D01*
X127402000Y-139700000D01*
X135908962Y-139700000D01*
X136002362Y-140169553D01*
X136268342Y-140567620D01*
X136666409Y-140833600D01*
X137135962Y-140927000D01*
X137184038Y-140927000D01*
X137653591Y-140833600D01*
X138051658Y-140567620D01*
X138317638Y-140169553D01*
X138411038Y-139700000D01*
X138448962Y-139700000D01*
X138542362Y-140169553D01*
X138808342Y-140567620D01*
X139206409Y-140833600D01*
X139675962Y-140927000D01*
X139724038Y-140927000D01*
X140193591Y-140833600D01*
X140591658Y-140567620D01*
X140857638Y-140169553D01*
X140951038Y-139700000D01*
X140857638Y-139230447D01*
X140591658Y-138832380D01*
X140193591Y-138566400D01*
X139724038Y-138473000D01*
X139675962Y-138473000D01*
X139206409Y-138566400D01*
X138808342Y-138832380D01*
X138542362Y-139230447D01*
X138448962Y-139700000D01*
X138411038Y-139700000D01*
X138317638Y-139230447D01*
X138051658Y-138832380D01*
X137653591Y-138566400D01*
X137184038Y-138473000D01*
X137135962Y-138473000D01*
X136666409Y-138566400D01*
X136268342Y-138832380D01*
X136002362Y-139230447D01*
X135908962Y-139700000D01*
X127402000Y-139700000D01*
X127402000Y-139485372D01*
X133411918Y-139485372D01*
X133474981Y-139677000D01*
X134597000Y-139677000D01*
X134597000Y-138554963D01*
X134643000Y-138554963D01*
X134643000Y-139677000D01*
X135765019Y-139677000D01*
X135828082Y-139485372D01*
X135818260Y-139435976D01*
X135626010Y-138997520D01*
X135280605Y-138666010D01*
X134834629Y-138491915D01*
X134643000Y-138554963D01*
X134597000Y-138554963D01*
X134405371Y-138491915D01*
X133959395Y-138666010D01*
X133613990Y-138997520D01*
X133421740Y-139435976D01*
X133411918Y-139485372D01*
X127402000Y-139485372D01*
X127402000Y-137160000D01*
X133368962Y-137160000D01*
X133462362Y-137629553D01*
X133728342Y-138027620D01*
X134126409Y-138293600D01*
X134595962Y-138387000D01*
X134644038Y-138387000D01*
X135113591Y-138293600D01*
X135511658Y-138027620D01*
X135777638Y-137629553D01*
X135871038Y-137160000D01*
X135908962Y-137160000D01*
X136002362Y-137629553D01*
X136268342Y-138027620D01*
X136666409Y-138293600D01*
X137135962Y-138387000D01*
X137184038Y-138387000D01*
X137653591Y-138293600D01*
X138051658Y-138027620D01*
X138317638Y-137629553D01*
X138411038Y-137160000D01*
X138317638Y-136690447D01*
X138051658Y-136292380D01*
X137653591Y-136026400D01*
X137184038Y-135933000D01*
X137135962Y-135933000D01*
X136666409Y-136026400D01*
X136268342Y-136292380D01*
X136002362Y-136690447D01*
X135908962Y-137160000D01*
X135871038Y-137160000D01*
X135777638Y-136690447D01*
X135511658Y-136292380D01*
X135113591Y-136026400D01*
X134644038Y-135933000D01*
X134595962Y-135933000D01*
X134126409Y-136026400D01*
X133728342Y-136292380D01*
X133462362Y-136690447D01*
X133368962Y-137160000D01*
X127402000Y-137160000D01*
X127402000Y-129540000D01*
X133250689Y-129540000D01*
X133344089Y-130009553D01*
X133610069Y-130407620D01*
X134008136Y-130673600D01*
X134477689Y-130767000D01*
X134762311Y-130767000D01*
X135231864Y-130673600D01*
X135629931Y-130407620D01*
X135895911Y-130009553D01*
X135989311Y-129540000D01*
X135895911Y-129070447D01*
X135629931Y-128672380D01*
X135231864Y-128406400D01*
X134762311Y-128313000D01*
X134477689Y-128313000D01*
X134008136Y-128406400D01*
X133610069Y-128672380D01*
X133344089Y-129070447D01*
X133250689Y-129540000D01*
X127402000Y-129540000D01*
X127402000Y-127000000D01*
X133250689Y-127000000D01*
X133344089Y-127469553D01*
X133610069Y-127867620D01*
X134008136Y-128133600D01*
X134477689Y-128227000D01*
X134762311Y-128227000D01*
X135231864Y-128133600D01*
X135629931Y-127867620D01*
X135895911Y-127469553D01*
X135989311Y-127000000D01*
X135895911Y-126530447D01*
X135629931Y-126132380D01*
X135231864Y-125866400D01*
X134762311Y-125773000D01*
X134477689Y-125773000D01*
X134008136Y-125866400D01*
X133610069Y-126132380D01*
X133344089Y-126530447D01*
X133250689Y-127000000D01*
X127402000Y-127000000D01*
X127402000Y-124460000D01*
X133250689Y-124460000D01*
X133344089Y-124929553D01*
X133610069Y-125327620D01*
X134008136Y-125593600D01*
X134477689Y-125687000D01*
X134762311Y-125687000D01*
X135231864Y-125593600D01*
X135629931Y-125327620D01*
X135895911Y-124929553D01*
X135989311Y-124460000D01*
X135895911Y-123990447D01*
X135629931Y-123592380D01*
X135231864Y-123326400D01*
X134762311Y-123233000D01*
X134477689Y-123233000D01*
X134008136Y-123326400D01*
X133610069Y-123592380D01*
X133344089Y-123990447D01*
X133250689Y-124460000D01*
X127402000Y-124460000D01*
X127402000Y-122024750D01*
X133277000Y-122024750D01*
X133277000Y-122885044D01*
X133326783Y-123005230D01*
X133418769Y-123097217D01*
X133538955Y-123147000D01*
X134515250Y-123147000D01*
X134597000Y-123065250D01*
X134597000Y-121943000D01*
X134643000Y-121943000D01*
X134643000Y-123065250D01*
X134724750Y-123147000D01*
X135701045Y-123147000D01*
X135821231Y-123097217D01*
X135913217Y-123005230D01*
X135963000Y-122885044D01*
X135963000Y-122312245D01*
X136924327Y-122312245D01*
X137163856Y-122891951D01*
X137606996Y-123335865D01*
X137974280Y-123488375D01*
X137974280Y-133401282D01*
X138014395Y-133602957D01*
X138128635Y-133773927D01*
X140281302Y-135926594D01*
X138800000Y-135926594D01*
X138678821Y-135949395D01*
X138567526Y-136021012D01*
X138492862Y-136130286D01*
X138466594Y-136260000D01*
X138466594Y-138060000D01*
X138489395Y-138181179D01*
X138561012Y-138292474D01*
X138670286Y-138367138D01*
X138800000Y-138393406D01*
X140600000Y-138393406D01*
X140721179Y-138370605D01*
X140832474Y-138298988D01*
X140907138Y-138189714D01*
X140933406Y-138060000D01*
X140933406Y-136578698D01*
X145727353Y-141372646D01*
X145841593Y-141448979D01*
X145898325Y-141486886D01*
X146099999Y-141527001D01*
X148559999Y-141527001D01*
X148761674Y-141486886D01*
X148932644Y-141372646D01*
X149454223Y-140851067D01*
X149835962Y-140927000D01*
X149884038Y-140927000D01*
X150353591Y-140833600D01*
X150751658Y-140567620D01*
X151017638Y-140169553D01*
X151111038Y-139700000D01*
X151017638Y-139230447D01*
X150754746Y-138837001D01*
X151505254Y-138837001D01*
X151242362Y-139230447D01*
X151148962Y-139700000D01*
X151242362Y-140169553D01*
X151508342Y-140567620D01*
X151906409Y-140833600D01*
X152375962Y-140927000D01*
X152424038Y-140927000D01*
X152893591Y-140833600D01*
X153291658Y-140567620D01*
X153557638Y-140169553D01*
X153651038Y-139700000D01*
X153557638Y-139230447D01*
X153294746Y-138837001D01*
X154045254Y-138837001D01*
X153782362Y-139230447D01*
X153688962Y-139700000D01*
X153782362Y-140169553D01*
X154048342Y-140567620D01*
X154446409Y-140833600D01*
X154915962Y-140927000D01*
X154964038Y-140927000D01*
X155433591Y-140833600D01*
X155831658Y-140567620D01*
X156097638Y-140169553D01*
X156170201Y-139804750D01*
X161333000Y-139804750D01*
X161333000Y-140665045D01*
X161382783Y-140785231D01*
X161474770Y-140877217D01*
X161594956Y-140927000D01*
X162455250Y-140927000D01*
X162537000Y-140845250D01*
X162537000Y-139723000D01*
X162583000Y-139723000D01*
X162583000Y-140845250D01*
X162664750Y-140927000D01*
X163525044Y-140927000D01*
X163645230Y-140877217D01*
X163737217Y-140785231D01*
X163787000Y-140665045D01*
X163787000Y-139804750D01*
X163705250Y-139723000D01*
X162583000Y-139723000D01*
X162537000Y-139723000D01*
X161414750Y-139723000D01*
X161333000Y-139804750D01*
X156170201Y-139804750D01*
X156191038Y-139700000D01*
X156097638Y-139230447D01*
X155834746Y-138837001D01*
X161333000Y-138837001D01*
X161333000Y-139595250D01*
X161414750Y-139677000D01*
X162537000Y-139677000D01*
X162537000Y-139657000D01*
X162583000Y-139657000D01*
X162583000Y-139677000D01*
X163705250Y-139677000D01*
X163787000Y-139595250D01*
X163787000Y-139181222D01*
X163924753Y-139318975D01*
X163848962Y-139700000D01*
X163942362Y-140169553D01*
X164208342Y-140567620D01*
X164606409Y-140833600D01*
X165075962Y-140927000D01*
X165124038Y-140927000D01*
X165593591Y-140833600D01*
X165991658Y-140567620D01*
X166257638Y-140169553D01*
X166351038Y-139700000D01*
X166257638Y-139230447D01*
X165994746Y-138837001D01*
X166745254Y-138837001D01*
X166482362Y-139230447D01*
X166388962Y-139700000D01*
X166482362Y-140169553D01*
X166748342Y-140567620D01*
X167146409Y-140833600D01*
X167615962Y-140927000D01*
X167664038Y-140927000D01*
X168133591Y-140833600D01*
X168531658Y-140567620D01*
X168797638Y-140169553D01*
X168891038Y-139700000D01*
X168797638Y-139230447D01*
X168534746Y-138837001D01*
X169285254Y-138837001D01*
X169022362Y-139230447D01*
X168928962Y-139700000D01*
X169022362Y-140169553D01*
X169288342Y-140567620D01*
X169686409Y-140833600D01*
X170155962Y-140927000D01*
X170204038Y-140927000D01*
X170673591Y-140833600D01*
X171071658Y-140567620D01*
X171337638Y-140169553D01*
X171431038Y-139700000D01*
X171337638Y-139230447D01*
X171074746Y-138837001D01*
X171825254Y-138837001D01*
X171562362Y-139230447D01*
X171468962Y-139700000D01*
X171562362Y-140169553D01*
X171828342Y-140567620D01*
X172226409Y-140833600D01*
X172695962Y-140927000D01*
X172744038Y-140927000D01*
X173213591Y-140833600D01*
X173611658Y-140567620D01*
X173877638Y-140169553D01*
X173971038Y-139700000D01*
X173877638Y-139230447D01*
X173614746Y-138837001D01*
X173757777Y-138837001D01*
X174040389Y-139119614D01*
X174040392Y-139119616D01*
X174121933Y-139201157D01*
X174102362Y-139230447D01*
X174008962Y-139700000D01*
X174102362Y-140169553D01*
X174368342Y-140567620D01*
X174766409Y-140833600D01*
X175235962Y-140927000D01*
X175284038Y-140927000D01*
X175753591Y-140833600D01*
X176151658Y-140567620D01*
X176417638Y-140169553D01*
X176511038Y-139700000D01*
X176417638Y-139230447D01*
X176151658Y-138832380D01*
X175753591Y-138566400D01*
X175284038Y-138473000D01*
X175235962Y-138473000D01*
X174766409Y-138566400D01*
X174765938Y-138566714D01*
X174679616Y-138480392D01*
X174679614Y-138480389D01*
X174264613Y-138065389D01*
X174117974Y-137967407D01*
X173945001Y-137933001D01*
X173674880Y-137933001D01*
X173877638Y-137629553D01*
X173928345Y-137374628D01*
X174051918Y-137374628D01*
X174061740Y-137424024D01*
X174253990Y-137862480D01*
X174599395Y-138193990D01*
X175045371Y-138368085D01*
X175237000Y-138305037D01*
X175237000Y-137183000D01*
X175283000Y-137183000D01*
X175283000Y-138305037D01*
X175474629Y-138368085D01*
X175920605Y-138193990D01*
X176266010Y-137862480D01*
X176458260Y-137424024D01*
X176468082Y-137374628D01*
X176405019Y-137183000D01*
X175283000Y-137183000D01*
X175237000Y-137183000D01*
X174114981Y-137183000D01*
X174051918Y-137374628D01*
X173928345Y-137374628D01*
X173971038Y-137160000D01*
X173928346Y-136945372D01*
X174051918Y-136945372D01*
X174114981Y-137137000D01*
X175237000Y-137137000D01*
X175237000Y-136014963D01*
X175283000Y-136014963D01*
X175283000Y-137137000D01*
X176405019Y-137137000D01*
X176468082Y-136945372D01*
X176458260Y-136895976D01*
X176266010Y-136457520D01*
X175920605Y-136126010D01*
X175474629Y-135951915D01*
X175283000Y-136014963D01*
X175237000Y-136014963D01*
X175045371Y-135951915D01*
X174599395Y-136126010D01*
X174253990Y-136457520D01*
X174061740Y-136895976D01*
X174051918Y-136945372D01*
X173928346Y-136945372D01*
X173877638Y-136690447D01*
X173611658Y-136292380D01*
X173213591Y-136026400D01*
X172744038Y-135933000D01*
X172695962Y-135933000D01*
X172226409Y-136026400D01*
X171828342Y-136292380D01*
X171562362Y-136690447D01*
X171468962Y-137160000D01*
X171562362Y-137629553D01*
X171765120Y-137933001D01*
X171134880Y-137933001D01*
X171337638Y-137629553D01*
X171431038Y-137160000D01*
X171337638Y-136690447D01*
X171071658Y-136292380D01*
X170673591Y-136026400D01*
X170204038Y-135933000D01*
X170155962Y-135933000D01*
X169686409Y-136026400D01*
X169288342Y-136292380D01*
X169022362Y-136690447D01*
X168928962Y-137160000D01*
X169022362Y-137629553D01*
X169225120Y-137933001D01*
X168594880Y-137933001D01*
X168797638Y-137629553D01*
X168891038Y-137160000D01*
X168797638Y-136690447D01*
X168531658Y-136292380D01*
X168133591Y-136026400D01*
X167664038Y-135933000D01*
X167615962Y-135933000D01*
X167146409Y-136026400D01*
X166748342Y-136292380D01*
X166482362Y-136690447D01*
X166388962Y-137160000D01*
X166482362Y-137629553D01*
X166685120Y-137933001D01*
X166054880Y-137933001D01*
X166257638Y-137629553D01*
X166351038Y-137160000D01*
X166257638Y-136690447D01*
X165991658Y-136292380D01*
X165593591Y-136026400D01*
X165124038Y-135933000D01*
X165075962Y-135933000D01*
X164606409Y-136026400D01*
X164208342Y-136292380D01*
X163942362Y-136690447D01*
X163848962Y-137160000D01*
X163890758Y-137370122D01*
X163789403Y-137268767D01*
X163811038Y-137160000D01*
X163717638Y-136690447D01*
X163451658Y-136292380D01*
X163053591Y-136026400D01*
X162584038Y-135933000D01*
X162535962Y-135933000D01*
X162066409Y-136026400D01*
X161668342Y-136292380D01*
X161402362Y-136690447D01*
X161308962Y-137160000D01*
X161402362Y-137629553D01*
X161605120Y-137933001D01*
X155894880Y-137933001D01*
X156097638Y-137629553D01*
X156191038Y-137160000D01*
X156097638Y-136690447D01*
X155831658Y-136292380D01*
X155433591Y-136026400D01*
X154964038Y-135933000D01*
X154915962Y-135933000D01*
X154446409Y-136026400D01*
X154048342Y-136292380D01*
X153782362Y-136690447D01*
X153688962Y-137160000D01*
X153782362Y-137629553D01*
X153985120Y-137933001D01*
X153354880Y-137933001D01*
X153557638Y-137629553D01*
X153651038Y-137160000D01*
X153557638Y-136690447D01*
X153291658Y-136292380D01*
X152893591Y-136026400D01*
X152424038Y-135933000D01*
X152375962Y-135933000D01*
X151906409Y-136026400D01*
X151508342Y-136292380D01*
X151242362Y-136690447D01*
X151148962Y-137160000D01*
X151242362Y-137629553D01*
X151445120Y-137933001D01*
X150814880Y-137933001D01*
X151017638Y-137629553D01*
X151111038Y-137160000D01*
X151017638Y-136690447D01*
X150751658Y-136292380D01*
X150353591Y-136026400D01*
X149884038Y-135933000D01*
X149835962Y-135933000D01*
X149366409Y-136026400D01*
X148968342Y-136292380D01*
X148702362Y-136690447D01*
X148608962Y-137160000D01*
X148702362Y-137629553D01*
X148905120Y-137933001D01*
X148274880Y-137933001D01*
X148477638Y-137629553D01*
X148571038Y-137160000D01*
X148477638Y-136690447D01*
X148211658Y-136292380D01*
X147813591Y-136026400D01*
X147344038Y-135933000D01*
X147295962Y-135933000D01*
X146826409Y-136026400D01*
X146428342Y-136292380D01*
X146162362Y-136690447D01*
X146068962Y-137160000D01*
X146162362Y-137629553D01*
X146350810Y-137911585D01*
X142361128Y-133921903D01*
X143335315Y-134326421D01*
X144658878Y-134327576D01*
X145882132Y-133822138D01*
X146818849Y-132887055D01*
X147326421Y-131664685D01*
X147327576Y-130341122D01*
X146822138Y-129117868D01*
X145887055Y-128181151D01*
X144664685Y-127673579D01*
X143341122Y-127672424D01*
X142117868Y-128177862D01*
X141181151Y-129112945D01*
X140952000Y-129664802D01*
X140952000Y-128615998D01*
X141312885Y-128616313D01*
X141892591Y-128376784D01*
X142336505Y-127933644D01*
X142577046Y-127354357D01*
X142577593Y-126727115D01*
X142338064Y-126147409D01*
X141894924Y-125703495D01*
X141315637Y-125462954D01*
X140688395Y-125462407D01*
X140108689Y-125701936D01*
X139664775Y-126145076D01*
X139424234Y-126724363D01*
X139423687Y-127351605D01*
X139663216Y-127931311D01*
X140048000Y-128316767D01*
X140048000Y-132700000D01*
X140082406Y-132872973D01*
X140180388Y-133019612D01*
X145865389Y-138704614D01*
X146008146Y-138800001D01*
X146012028Y-138802595D01*
X146093000Y-138818701D01*
X146093000Y-139595250D01*
X146174750Y-139677000D01*
X147297000Y-139677000D01*
X147297000Y-139657000D01*
X147343000Y-139657000D01*
X147343000Y-139677000D01*
X148465250Y-139677000D01*
X148547000Y-139595250D01*
X148547000Y-138837001D01*
X148965254Y-138837001D01*
X148702362Y-139230447D01*
X148608962Y-139700000D01*
X148692871Y-140121839D01*
X148547000Y-140267710D01*
X148547000Y-139804750D01*
X148465250Y-139723000D01*
X147343000Y-139723000D01*
X147343000Y-139743000D01*
X147297000Y-139743000D01*
X147297000Y-139723000D01*
X146174750Y-139723000D01*
X146093000Y-139804750D01*
X146093000Y-140247711D01*
X139028280Y-133182992D01*
X139028280Y-123488218D01*
X139393231Y-123337424D01*
X139636020Y-123095058D01*
X142437469Y-123095058D01*
X142573799Y-123313936D01*
X143147123Y-123568361D01*
X143774170Y-123584016D01*
X144359476Y-123358520D01*
X144426201Y-123313936D01*
X144562531Y-123095058D01*
X143500000Y-122032527D01*
X142437469Y-123095058D01*
X139636020Y-123095058D01*
X139837145Y-122894284D01*
X140077686Y-122314997D01*
X140077721Y-122274170D01*
X141915984Y-122274170D01*
X142141480Y-122859476D01*
X142186064Y-122926201D01*
X142404942Y-123062531D01*
X143467473Y-122000000D01*
X143532527Y-122000000D01*
X144595058Y-123062531D01*
X144813936Y-122926201D01*
X145068361Y-122352877D01*
X145084016Y-121725830D01*
X144858520Y-121140524D01*
X144813936Y-121073799D01*
X144595058Y-120937469D01*
X143532527Y-122000000D01*
X143467473Y-122000000D01*
X142404942Y-120937469D01*
X142186064Y-121073799D01*
X141931639Y-121647123D01*
X141915984Y-122274170D01*
X140077721Y-122274170D01*
X140078233Y-121687755D01*
X139838704Y-121108049D01*
X139635952Y-120904942D01*
X142437469Y-120904942D01*
X143500000Y-121967473D01*
X144562531Y-120904942D01*
X144426201Y-120686064D01*
X143852877Y-120431639D01*
X143225830Y-120415984D01*
X142640524Y-120641480D01*
X142573799Y-120686064D01*
X142437469Y-120904942D01*
X139635952Y-120904942D01*
X139395564Y-120664135D01*
X138816277Y-120423594D01*
X138189035Y-120423047D01*
X137609329Y-120662576D01*
X137165415Y-121105716D01*
X136924874Y-121685003D01*
X136924327Y-122312245D01*
X135963000Y-122312245D01*
X135963000Y-122024750D01*
X135881250Y-121943000D01*
X134643000Y-121943000D01*
X134597000Y-121943000D01*
X133358750Y-121943000D01*
X133277000Y-122024750D01*
X127402000Y-122024750D01*
X127402000Y-120954956D01*
X133277000Y-120954956D01*
X133277000Y-121815250D01*
X133358750Y-121897000D01*
X134597000Y-121897000D01*
X134597000Y-120774750D01*
X134643000Y-120774750D01*
X134643000Y-121897000D01*
X135881250Y-121897000D01*
X135963000Y-121815250D01*
X135963000Y-120954956D01*
X135913217Y-120834770D01*
X135821231Y-120742783D01*
X135701045Y-120693000D01*
X134724750Y-120693000D01*
X134643000Y-120774750D01*
X134597000Y-120774750D01*
X134515250Y-120693000D01*
X133538955Y-120693000D01*
X133418769Y-120742783D01*
X133326783Y-120834770D01*
X133277000Y-120954956D01*
X127402000Y-120954956D01*
X127402000Y-114275962D01*
X133393000Y-114275962D01*
X133393000Y-114324038D01*
X133486400Y-114793591D01*
X133752380Y-115191658D01*
X134150447Y-115457638D01*
X134620000Y-115551038D01*
X135089553Y-115457638D01*
X135487620Y-115191658D01*
X135753600Y-114793591D01*
X135830945Y-114404750D01*
X135933000Y-114404750D01*
X135933000Y-115265044D01*
X135982783Y-115385230D01*
X136074769Y-115477217D01*
X136194955Y-115527000D01*
X137055250Y-115527000D01*
X137137000Y-115445250D01*
X137137000Y-114323000D01*
X137183000Y-114323000D01*
X137183000Y-115445250D01*
X137264750Y-115527000D01*
X138125045Y-115527000D01*
X138245231Y-115477217D01*
X138337217Y-115385230D01*
X138387000Y-115265044D01*
X138387000Y-114404750D01*
X138305250Y-114323000D01*
X137183000Y-114323000D01*
X137137000Y-114323000D01*
X136014750Y-114323000D01*
X135933000Y-114404750D01*
X135830945Y-114404750D01*
X135847000Y-114324038D01*
X135847000Y-114275962D01*
X135753600Y-113806409D01*
X135487620Y-113408342D01*
X135377791Y-113334956D01*
X135933000Y-113334956D01*
X135933000Y-114195250D01*
X136014750Y-114277000D01*
X137137000Y-114277000D01*
X137137000Y-113154750D01*
X137183000Y-113154750D01*
X137183000Y-114277000D01*
X138305250Y-114277000D01*
X138387000Y-114195250D01*
X138387000Y-113334956D01*
X138337217Y-113214770D01*
X138245231Y-113122783D01*
X138125045Y-113073000D01*
X137264750Y-113073000D01*
X137183000Y-113154750D01*
X137137000Y-113154750D01*
X137055250Y-113073000D01*
X136194955Y-113073000D01*
X136074769Y-113122783D01*
X135982783Y-113214770D01*
X135933000Y-113334956D01*
X135377791Y-113334956D01*
X135089553Y-113142362D01*
X134620000Y-113048962D01*
X134150447Y-113142362D01*
X133752380Y-113408342D01*
X133486400Y-113806409D01*
X133393000Y-114275962D01*
X127402000Y-114275962D01*
X127402000Y-111735962D01*
X133393000Y-111735962D01*
X133393000Y-111784038D01*
X133486400Y-112253591D01*
X133752380Y-112651658D01*
X134150447Y-112917638D01*
X134620000Y-113011038D01*
X135089553Y-112917638D01*
X135487620Y-112651658D01*
X135753600Y-112253591D01*
X135809089Y-111974629D01*
X135951915Y-111974629D01*
X136126010Y-112420605D01*
X136457520Y-112766010D01*
X136895976Y-112958260D01*
X136945372Y-112968082D01*
X137137000Y-112905019D01*
X137137000Y-111783000D01*
X137183000Y-111783000D01*
X137183000Y-112905019D01*
X137374628Y-112968082D01*
X137424024Y-112958260D01*
X137862480Y-112766010D01*
X138193990Y-112420605D01*
X138368085Y-111974629D01*
X138305037Y-111783000D01*
X137183000Y-111783000D01*
X137137000Y-111783000D01*
X136014963Y-111783000D01*
X135951915Y-111974629D01*
X135809089Y-111974629D01*
X135847000Y-111784038D01*
X135847000Y-111735962D01*
X135809090Y-111545371D01*
X135951915Y-111545371D01*
X136014963Y-111737000D01*
X137137000Y-111737000D01*
X137137000Y-110614981D01*
X137183000Y-110614981D01*
X137183000Y-111737000D01*
X138305037Y-111737000D01*
X138368085Y-111545371D01*
X138193990Y-111099395D01*
X137862480Y-110753990D01*
X137424024Y-110561740D01*
X137374628Y-110551918D01*
X137183000Y-110614981D01*
X137137000Y-110614981D01*
X136945372Y-110551918D01*
X136895976Y-110561740D01*
X136457520Y-110753990D01*
X136126010Y-111099395D01*
X135951915Y-111545371D01*
X135809090Y-111545371D01*
X135753600Y-111266409D01*
X135487620Y-110868342D01*
X135089553Y-110602362D01*
X134620000Y-110508962D01*
X134150447Y-110602362D01*
X133752380Y-110868342D01*
X133486400Y-111266409D01*
X133393000Y-111735962D01*
X127402000Y-111735962D01*
X127402000Y-109195962D01*
X133393000Y-109195962D01*
X133393000Y-109244038D01*
X133486400Y-109713591D01*
X133752380Y-110111658D01*
X134150447Y-110377638D01*
X134620000Y-110471038D01*
X135089553Y-110377638D01*
X135487620Y-110111658D01*
X135753600Y-109713591D01*
X135809089Y-109434629D01*
X135951915Y-109434629D01*
X136126010Y-109880605D01*
X136457520Y-110226010D01*
X136895976Y-110418260D01*
X136945372Y-110428082D01*
X137137000Y-110365019D01*
X137137000Y-109243000D01*
X137183000Y-109243000D01*
X137183000Y-110365019D01*
X137374628Y-110428082D01*
X137424024Y-110418260D01*
X137862480Y-110226010D01*
X138193990Y-109880605D01*
X138368085Y-109434629D01*
X138305037Y-109243000D01*
X137183000Y-109243000D01*
X137137000Y-109243000D01*
X136014963Y-109243000D01*
X135951915Y-109434629D01*
X135809089Y-109434629D01*
X135847000Y-109244038D01*
X135847000Y-109195962D01*
X135809090Y-109005371D01*
X135951915Y-109005371D01*
X136014963Y-109197000D01*
X137137000Y-109197000D01*
X137137000Y-108074981D01*
X137183000Y-108074981D01*
X137183000Y-109197000D01*
X138305037Y-109197000D01*
X138368085Y-109005371D01*
X138193990Y-108559395D01*
X137862480Y-108213990D01*
X137424024Y-108021740D01*
X137374628Y-108011918D01*
X137183000Y-108074981D01*
X137137000Y-108074981D01*
X136945372Y-108011918D01*
X136895976Y-108021740D01*
X136457520Y-108213990D01*
X136126010Y-108559395D01*
X135951915Y-109005371D01*
X135809090Y-109005371D01*
X135753600Y-108726409D01*
X135487620Y-108328342D01*
X135089553Y-108062362D01*
X134620000Y-107968962D01*
X134150447Y-108062362D01*
X133752380Y-108328342D01*
X133486400Y-108726409D01*
X133393000Y-109195962D01*
X127402000Y-109195962D01*
X127402000Y-106655962D01*
X133393000Y-106655962D01*
X133393000Y-106704038D01*
X133486400Y-107173591D01*
X133752380Y-107571658D01*
X134150447Y-107837638D01*
X134620000Y-107931038D01*
X135089553Y-107837638D01*
X135487620Y-107571658D01*
X135753600Y-107173591D01*
X135809089Y-106894629D01*
X135951915Y-106894629D01*
X136126010Y-107340605D01*
X136457520Y-107686010D01*
X136895976Y-107878260D01*
X136945372Y-107888082D01*
X137137000Y-107825019D01*
X137137000Y-106703000D01*
X137183000Y-106703000D01*
X137183000Y-107825019D01*
X137374628Y-107888082D01*
X137424024Y-107878260D01*
X137862480Y-107686010D01*
X138193990Y-107340605D01*
X138368085Y-106894629D01*
X138305037Y-106703000D01*
X137183000Y-106703000D01*
X137137000Y-106703000D01*
X136014963Y-106703000D01*
X135951915Y-106894629D01*
X135809089Y-106894629D01*
X135847000Y-106704038D01*
X135847000Y-106655962D01*
X135809090Y-106465371D01*
X135951915Y-106465371D01*
X136014963Y-106657000D01*
X137137000Y-106657000D01*
X137137000Y-105534981D01*
X137183000Y-105534981D01*
X137183000Y-106657000D01*
X138305037Y-106657000D01*
X138368085Y-106465371D01*
X138193990Y-106019395D01*
X137862480Y-105673990D01*
X137424024Y-105481740D01*
X137374628Y-105471918D01*
X137183000Y-105534981D01*
X137137000Y-105534981D01*
X136945372Y-105471918D01*
X136895976Y-105481740D01*
X136457520Y-105673990D01*
X136126010Y-106019395D01*
X135951915Y-106465371D01*
X135809090Y-106465371D01*
X135753600Y-106186409D01*
X135487620Y-105788342D01*
X135089553Y-105522362D01*
X134620000Y-105428962D01*
X134150447Y-105522362D01*
X133752380Y-105788342D01*
X133486400Y-106186409D01*
X133393000Y-106655962D01*
X127402000Y-106655962D01*
X127402000Y-102303976D01*
X131242792Y-102303976D01*
X131406410Y-102699962D01*
X131709111Y-103003191D01*
X132104811Y-103167500D01*
X132478272Y-103167826D01*
X133398543Y-104088097D01*
X133393000Y-104115962D01*
X133393000Y-104164038D01*
X133486400Y-104633591D01*
X133752380Y-105031658D01*
X134150447Y-105297638D01*
X134620000Y-105391038D01*
X135089553Y-105297638D01*
X135487620Y-105031658D01*
X135753600Y-104633591D01*
X135809089Y-104354629D01*
X135951915Y-104354629D01*
X136126010Y-104800605D01*
X136457520Y-105146010D01*
X136895976Y-105338260D01*
X136945372Y-105348082D01*
X137137000Y-105285019D01*
X137137000Y-104163000D01*
X137183000Y-104163000D01*
X137183000Y-105285019D01*
X137374628Y-105348082D01*
X137424024Y-105338260D01*
X137862480Y-105146010D01*
X138193990Y-104800605D01*
X138368085Y-104354629D01*
X138305037Y-104163000D01*
X137183000Y-104163000D01*
X137137000Y-104163000D01*
X136014963Y-104163000D01*
X135951915Y-104354629D01*
X135809089Y-104354629D01*
X135847000Y-104164038D01*
X135847000Y-104115962D01*
X135753600Y-103646409D01*
X135487620Y-103248342D01*
X135089553Y-102982362D01*
X134620000Y-102888962D01*
X134552035Y-102902481D01*
X134470943Y-102821389D01*
X134620000Y-102851038D01*
X135089553Y-102757638D01*
X135118843Y-102738067D01*
X135525389Y-103144613D01*
X135672028Y-103242595D01*
X135845001Y-103277001D01*
X136320262Y-103277001D01*
X136126010Y-103479395D01*
X135951915Y-103925371D01*
X136014963Y-104117000D01*
X137137000Y-104117000D01*
X137137000Y-104097000D01*
X137183000Y-104097000D01*
X137183000Y-104117000D01*
X138305037Y-104117000D01*
X138368085Y-103925371D01*
X138328388Y-103823680D01*
X138977353Y-104472645D01*
X139148323Y-104586885D01*
X139349998Y-104627000D01*
X140181710Y-104627000D01*
X142607355Y-107052645D01*
X142778325Y-107166885D01*
X142980000Y-107207000D01*
X143678474Y-107207000D01*
X143906069Y-107547620D01*
X144304136Y-107813600D01*
X144373636Y-107827425D01*
X143355650Y-108845411D01*
X143273434Y-108811272D01*
X142844977Y-108810898D01*
X142448991Y-108974516D01*
X142145762Y-109277217D01*
X141981453Y-109672917D01*
X141981079Y-110101374D01*
X142144697Y-110497360D01*
X142447398Y-110800589D01*
X142843098Y-110964898D01*
X143271555Y-110965272D01*
X143667541Y-110801654D01*
X143970770Y-110498953D01*
X144135079Y-110103253D01*
X144135453Y-109674796D01*
X144100774Y-109590867D01*
X145288645Y-108402996D01*
X145402885Y-108232026D01*
X145443000Y-108030351D01*
X145443000Y-107830481D01*
X145527864Y-107813600D01*
X145925931Y-107547620D01*
X146191911Y-107149553D01*
X146276052Y-106726545D01*
X152916657Y-106726545D01*
X153080275Y-107122531D01*
X153382976Y-107425760D01*
X153778676Y-107590069D01*
X153998479Y-107590261D01*
X153829616Y-107758830D01*
X153665307Y-108154530D01*
X153664933Y-108582987D01*
X153828551Y-108978973D01*
X154131252Y-109282202D01*
X154526952Y-109446511D01*
X154955409Y-109446885D01*
X155351395Y-109283267D01*
X155654624Y-108980566D01*
X155720592Y-108821698D01*
X155802780Y-108821698D01*
X155975753Y-108787292D01*
X156122392Y-108689310D01*
X156559703Y-108252000D01*
X160755269Y-108252000D01*
X160845192Y-108341923D01*
X160439115Y-108748000D01*
X158400000Y-108748000D01*
X158227027Y-108782406D01*
X158080388Y-108880388D01*
X157480388Y-109480388D01*
X157382406Y-109627027D01*
X157348000Y-109800000D01*
X157348000Y-111056095D01*
X157382406Y-111229068D01*
X157480388Y-111375707D01*
X157732351Y-111627670D01*
X157667092Y-111784832D01*
X157666718Y-112213289D01*
X157830336Y-112609275D01*
X158133037Y-112912504D01*
X158528737Y-113076813D01*
X158957194Y-113077187D01*
X159353180Y-112913569D01*
X159366906Y-112899867D01*
X159366906Y-113918906D01*
X159401312Y-114091879D01*
X159463344Y-114184715D01*
X159315168Y-114123187D01*
X158886711Y-114122813D01*
X158490725Y-114286431D01*
X158187496Y-114589132D01*
X158023187Y-114984832D01*
X158022813Y-115413289D01*
X158186431Y-115809275D01*
X158489132Y-116112504D01*
X158648000Y-116178472D01*
X158648000Y-116260660D01*
X158682406Y-116433633D01*
X158780388Y-116580272D01*
X160419728Y-118219612D01*
X160566367Y-118317594D01*
X160739340Y-118352000D01*
X166800000Y-118352000D01*
X166972973Y-118317594D01*
X167119612Y-118219612D01*
X167619612Y-117719612D01*
X167650402Y-117673532D01*
X167789132Y-117812504D01*
X167938888Y-117874688D01*
X167938888Y-120251987D01*
X167913575Y-120190725D01*
X167610874Y-119887496D01*
X167215174Y-119723187D01*
X166786717Y-119722813D01*
X166390731Y-119886431D01*
X166087502Y-120189132D01*
X165923193Y-120584832D01*
X165922819Y-121013289D01*
X166086437Y-121409275D01*
X166389138Y-121712504D01*
X166440984Y-121734033D01*
X166116550Y-122058467D01*
X166034334Y-122024328D01*
X165605877Y-122023954D01*
X165209891Y-122187572D01*
X164906662Y-122490273D01*
X164742353Y-122885973D01*
X164741979Y-123314430D01*
X164905597Y-123710416D01*
X165208298Y-124013645D01*
X165603998Y-124177954D01*
X166032455Y-124178328D01*
X166428441Y-124014710D01*
X166731670Y-123712009D01*
X166895979Y-123316309D01*
X166896353Y-122887852D01*
X166861674Y-122803923D01*
X167372651Y-122292946D01*
X167486891Y-122121976D01*
X167515430Y-121978497D01*
X167527006Y-121920301D01*
X167527006Y-121747564D01*
X167609281Y-121713569D01*
X167912510Y-121410868D01*
X167938888Y-121347343D01*
X167938888Y-122771466D01*
X167781613Y-122836451D01*
X167478384Y-123139152D01*
X167314075Y-123534852D01*
X167313701Y-123963309D01*
X167477319Y-124359295D01*
X167780020Y-124662524D01*
X168175720Y-124826833D01*
X168604177Y-124827207D01*
X169000163Y-124663589D01*
X169303392Y-124360888D01*
X169467701Y-123965188D01*
X169467968Y-123658878D01*
X187672424Y-123658878D01*
X188177862Y-124882132D01*
X189112945Y-125818849D01*
X190335315Y-126326421D01*
X191658878Y-126327576D01*
X192882132Y-125822138D01*
X193818849Y-124887055D01*
X194326421Y-123664685D01*
X194327576Y-122341122D01*
X193822138Y-121117868D01*
X192887055Y-120181151D01*
X191664685Y-119673579D01*
X190341122Y-119672424D01*
X189117868Y-120177862D01*
X188181151Y-121112945D01*
X187673579Y-122335315D01*
X187672424Y-123658878D01*
X169467968Y-123658878D01*
X169468075Y-123536731D01*
X169304457Y-123140745D01*
X169001756Y-122837516D01*
X168842888Y-122771548D01*
X168842888Y-117882319D01*
X169009275Y-117813569D01*
X169312504Y-117510868D01*
X169476813Y-117115168D01*
X169477158Y-116720209D01*
X171581937Y-118824989D01*
X171728576Y-118922970D01*
X171901549Y-118957376D01*
X172701674Y-118957376D01*
X172766659Y-119114651D01*
X172799950Y-119148000D01*
X170939340Y-119148000D01*
X170766367Y-119182406D01*
X170619728Y-119280387D01*
X169880388Y-120019728D01*
X169782406Y-120166367D01*
X169748000Y-120339340D01*
X169748000Y-120421446D01*
X169590725Y-120486431D01*
X169287496Y-120789132D01*
X169123187Y-121184832D01*
X169122813Y-121613289D01*
X169286431Y-122009275D01*
X169589132Y-122312504D01*
X169984832Y-122476813D01*
X170413289Y-122477187D01*
X170809275Y-122313569D01*
X171112504Y-122010868D01*
X171276813Y-121615168D01*
X171276826Y-121600002D01*
X171389132Y-121712504D01*
X171784832Y-121876813D01*
X172213289Y-121877187D01*
X172609275Y-121713569D01*
X172912504Y-121410868D01*
X172978472Y-121252000D01*
X174992881Y-121252000D01*
X175165854Y-121217594D01*
X175312493Y-121119612D01*
X175377650Y-121054455D01*
X175534812Y-121119714D01*
X175963269Y-121120088D01*
X176359255Y-120956470D01*
X176662484Y-120653769D01*
X176826793Y-120258069D01*
X176827167Y-119829612D01*
X176663549Y-119433626D01*
X176360848Y-119130397D01*
X176214219Y-119069511D01*
X176288444Y-118995416D01*
X176452753Y-118599716D01*
X176453127Y-118171259D01*
X176289509Y-117775273D01*
X175986808Y-117472044D01*
X175591108Y-117307735D01*
X175162651Y-117307361D01*
X174766665Y-117470979D01*
X174467520Y-117769603D01*
X174291096Y-117592872D01*
X173895396Y-117428563D01*
X173466939Y-117428189D01*
X173070953Y-117591807D01*
X172767724Y-117894508D01*
X172701756Y-118053376D01*
X172088774Y-118053376D01*
X170573312Y-116537915D01*
X171306044Y-116537915D01*
X171479017Y-116503509D01*
X171625656Y-116405527D01*
X172119612Y-115911571D01*
X172217594Y-115764932D01*
X172226614Y-115719584D01*
X172252000Y-115591959D01*
X172252000Y-114727636D01*
X172593987Y-115069623D01*
X172716354Y-115151386D01*
X172740627Y-115167605D01*
X172913600Y-115202011D01*
X175353789Y-115202011D01*
X177798020Y-117646243D01*
X177798020Y-118201546D01*
X177640745Y-118266531D01*
X177337516Y-118569232D01*
X177173207Y-118964932D01*
X177172833Y-119393389D01*
X177336451Y-119789375D01*
X177486513Y-119939698D01*
X177440745Y-119958609D01*
X177137516Y-120261310D01*
X176973207Y-120657010D01*
X176972833Y-121085467D01*
X177136451Y-121481453D01*
X177439152Y-121784682D01*
X177834852Y-121948991D01*
X178263309Y-121949365D01*
X178659295Y-121785747D01*
X178962524Y-121483046D01*
X179028492Y-121324178D01*
X179110680Y-121324178D01*
X179283653Y-121289772D01*
X179430292Y-121191790D01*
X179644634Y-120977449D01*
X179742616Y-120830809D01*
X179750906Y-120789132D01*
X179777022Y-120657836D01*
X179777022Y-117897609D01*
X179742616Y-117724636D01*
X179725386Y-117698849D01*
X179644634Y-117577996D01*
X176047025Y-113980388D01*
X175900386Y-113882406D01*
X175727413Y-113848000D01*
X173287224Y-113848000D01*
X172889045Y-113449821D01*
X172900000Y-113452000D01*
X179500000Y-113452000D01*
X179672973Y-113417594D01*
X179819612Y-113319612D01*
X180027670Y-113111554D01*
X180184832Y-113176813D01*
X180613289Y-113177187D01*
X181009275Y-113013569D01*
X181312504Y-112710868D01*
X181476813Y-112315168D01*
X181477187Y-111886711D01*
X181313569Y-111490725D01*
X181067292Y-111244018D01*
X181744134Y-111244018D01*
X182119728Y-111619612D01*
X182266367Y-111717594D01*
X182439340Y-111752000D01*
X182521446Y-111752000D01*
X182586431Y-111909275D01*
X182889132Y-112212504D01*
X183284832Y-112376813D01*
X183713289Y-112377187D01*
X184109275Y-112213569D01*
X184412504Y-111910868D01*
X184576813Y-111515168D01*
X184577187Y-111086711D01*
X184413569Y-110690725D01*
X184110868Y-110387496D01*
X183715168Y-110223187D01*
X183286711Y-110222813D01*
X182890725Y-110386431D01*
X182587496Y-110689132D01*
X182552346Y-110773782D01*
X182250970Y-110472406D01*
X182104331Y-110374424D01*
X181931358Y-110340018D01*
X172099206Y-110340018D01*
X173087224Y-109352000D01*
X177523444Y-109352000D01*
X177696417Y-109317594D01*
X177843056Y-109219612D01*
X178885743Y-108176925D01*
X178983725Y-108030286D01*
X179018131Y-107857313D01*
X179018131Y-107775207D01*
X179175406Y-107710222D01*
X179478635Y-107407521D01*
X179642944Y-107011821D01*
X179643318Y-106583364D01*
X179532764Y-106315803D01*
X179735534Y-106315980D01*
X180131520Y-106152362D01*
X180434749Y-105849661D01*
X180599058Y-105453961D01*
X180599432Y-105025504D01*
X180435814Y-104629518D01*
X180133113Y-104326289D01*
X179936746Y-104244750D01*
X191697000Y-104244750D01*
X191697000Y-105105044D01*
X191746783Y-105225230D01*
X191838769Y-105317217D01*
X191958955Y-105367000D01*
X192935250Y-105367000D01*
X193017000Y-105285250D01*
X193017000Y-104163000D01*
X193063000Y-104163000D01*
X193063000Y-105285250D01*
X193144750Y-105367000D01*
X194121045Y-105367000D01*
X194241231Y-105317217D01*
X194333217Y-105225230D01*
X194383000Y-105105044D01*
X194383000Y-104244750D01*
X194301250Y-104163000D01*
X193063000Y-104163000D01*
X193017000Y-104163000D01*
X191778750Y-104163000D01*
X191697000Y-104244750D01*
X179936746Y-104244750D01*
X179737413Y-104161980D01*
X179308956Y-104161606D01*
X178912970Y-104325224D01*
X178609741Y-104627925D01*
X178538379Y-104799783D01*
X178430711Y-104821199D01*
X178284072Y-104919181D01*
X177005399Y-106197854D01*
X176907417Y-106344493D01*
X176873011Y-106517466D01*
X176873011Y-107678767D01*
X176553789Y-107997989D01*
X174399949Y-107997989D01*
X174442467Y-107969579D01*
X178435124Y-103976922D01*
X178738320Y-103977187D01*
X179134306Y-103813569D01*
X179437535Y-103510868D01*
X179577017Y-103174956D01*
X191697000Y-103174956D01*
X191697000Y-104035250D01*
X191778750Y-104117000D01*
X193017000Y-104117000D01*
X193017000Y-102994750D01*
X193063000Y-102994750D01*
X193063000Y-104117000D01*
X194301250Y-104117000D01*
X194383000Y-104035250D01*
X194383000Y-103174956D01*
X194333217Y-103054770D01*
X194241231Y-102962783D01*
X194121045Y-102913000D01*
X193144750Y-102913000D01*
X193063000Y-102994750D01*
X193017000Y-102994750D01*
X192935250Y-102913000D01*
X191958955Y-102913000D01*
X191838769Y-102962783D01*
X191746783Y-103054770D01*
X191697000Y-103174956D01*
X179577017Y-103174956D01*
X179601844Y-103115168D01*
X179602218Y-102686711D01*
X179438600Y-102290725D01*
X179135899Y-101987496D01*
X178740199Y-101823187D01*
X178311742Y-101822813D01*
X178149285Y-101889939D01*
X178327670Y-101711554D01*
X178484832Y-101776813D01*
X178913289Y-101777187D01*
X179309275Y-101613569D01*
X179322867Y-101600000D01*
X191670689Y-101600000D01*
X191764089Y-102069553D01*
X192030069Y-102467620D01*
X192428136Y-102733600D01*
X192897689Y-102827000D01*
X193182311Y-102827000D01*
X193651864Y-102733600D01*
X194049931Y-102467620D01*
X194315911Y-102069553D01*
X194409311Y-101600000D01*
X194315911Y-101130447D01*
X194049931Y-100732380D01*
X193651864Y-100466400D01*
X193182311Y-100373000D01*
X192897689Y-100373000D01*
X192428136Y-100466400D01*
X192030069Y-100732380D01*
X191764089Y-101130447D01*
X191670689Y-101600000D01*
X179322867Y-101600000D01*
X179612504Y-101310868D01*
X179776813Y-100915168D01*
X179777187Y-100486711D01*
X179613569Y-100090725D01*
X179310868Y-99787496D01*
X178915168Y-99623187D01*
X178486711Y-99622813D01*
X178090725Y-99786431D01*
X177787496Y-100089132D01*
X177623187Y-100484832D01*
X177622813Y-100913289D01*
X177688504Y-101072272D01*
X177527962Y-101232814D01*
X177576813Y-101115168D01*
X177577187Y-100686711D01*
X177413569Y-100290725D01*
X177110868Y-99987496D01*
X176715168Y-99823187D01*
X176286711Y-99822813D01*
X175890725Y-99986431D01*
X175587496Y-100289132D01*
X175423187Y-100684832D01*
X175422813Y-101113289D01*
X175586431Y-101509275D01*
X175889132Y-101812504D01*
X176048000Y-101878472D01*
X176048000Y-102024693D01*
X176010868Y-101987496D01*
X175615168Y-101823187D01*
X175186711Y-101822813D01*
X174790725Y-101986431D01*
X174487496Y-102289132D01*
X174323187Y-102684832D01*
X174322960Y-102945185D01*
X174199100Y-102645421D01*
X174082362Y-102528479D01*
X174188895Y-102484461D01*
X174492124Y-102181760D01*
X174656433Y-101786060D01*
X174656807Y-101357603D01*
X174493189Y-100961617D01*
X174190488Y-100658388D01*
X173794788Y-100494079D01*
X173366331Y-100493705D01*
X172970345Y-100657323D01*
X172667116Y-100960024D01*
X172502807Y-101355724D01*
X172502433Y-101784181D01*
X172524117Y-101836659D01*
X171880388Y-102480388D01*
X171782406Y-102627027D01*
X171748000Y-102800000D01*
X171748000Y-103712776D01*
X170685225Y-104775551D01*
X170677757Y-104757478D01*
X170375056Y-104454249D01*
X169979356Y-104289940D01*
X169550899Y-104289566D01*
X169154913Y-104453184D01*
X168851684Y-104755885D01*
X168687375Y-105151585D01*
X168687001Y-105580042D01*
X168850501Y-105975743D01*
X168399172Y-105524414D01*
X168252533Y-105426432D01*
X168079560Y-105392026D01*
X167997454Y-105392026D01*
X167932469Y-105234751D01*
X167629768Y-104931522D01*
X167234068Y-104767213D01*
X166805611Y-104766839D01*
X166409625Y-104930457D01*
X166106396Y-105233158D01*
X165942087Y-105628858D01*
X165941713Y-106057315D01*
X166105331Y-106453301D01*
X166408032Y-106756530D01*
X166622856Y-106845733D01*
X166612476Y-106856094D01*
X166448167Y-107251794D01*
X166447793Y-107680251D01*
X166611411Y-108076237D01*
X166625113Y-108089963D01*
X165773708Y-108089963D01*
X165773708Y-104521708D01*
X165739302Y-104348735D01*
X165641320Y-104202096D01*
X160952000Y-99512776D01*
X160952000Y-99060000D01*
X191670689Y-99060000D01*
X191764089Y-99529553D01*
X192030069Y-99927620D01*
X192428136Y-100193600D01*
X192897689Y-100287000D01*
X193182311Y-100287000D01*
X193651864Y-100193600D01*
X194049931Y-99927620D01*
X194315911Y-99529553D01*
X194409311Y-99060000D01*
X194315911Y-98590447D01*
X194049931Y-98192380D01*
X193651864Y-97926400D01*
X193182311Y-97833000D01*
X192897689Y-97833000D01*
X192428136Y-97926400D01*
X192030069Y-98192380D01*
X191764089Y-98590447D01*
X191670689Y-99060000D01*
X160952000Y-99060000D01*
X160952000Y-98839340D01*
X160917594Y-98666367D01*
X160819613Y-98519728D01*
X159827171Y-97527287D01*
X159680532Y-97429305D01*
X159507559Y-97394899D01*
X159131837Y-97394899D01*
X159066852Y-97237624D01*
X158764151Y-96934395D01*
X158368451Y-96770086D01*
X157939994Y-96769712D01*
X157876826Y-96795813D01*
X157877066Y-96520000D01*
X191670689Y-96520000D01*
X191764089Y-96989553D01*
X192030069Y-97387620D01*
X192428136Y-97653600D01*
X192897689Y-97747000D01*
X193182311Y-97747000D01*
X193651864Y-97653600D01*
X194049931Y-97387620D01*
X194315911Y-96989553D01*
X194409311Y-96520000D01*
X194315911Y-96050447D01*
X194049931Y-95652380D01*
X193651864Y-95386400D01*
X193182311Y-95293000D01*
X192897689Y-95293000D01*
X192428136Y-95386400D01*
X192030069Y-95652380D01*
X191764089Y-96050447D01*
X191670689Y-96520000D01*
X157877066Y-96520000D01*
X157877183Y-96386711D01*
X157713565Y-95990725D01*
X157410864Y-95687496D01*
X157015164Y-95523187D01*
X156586707Y-95522813D01*
X156190721Y-95686431D01*
X155887492Y-95989132D01*
X155723183Y-96384832D01*
X155722809Y-96813289D01*
X155886427Y-97209275D01*
X156189128Y-97512504D01*
X156347996Y-97578472D01*
X156347996Y-98253617D01*
X156382402Y-98426590D01*
X156480384Y-98573229D01*
X158570400Y-100663245D01*
X158717039Y-100761227D01*
X158890012Y-100795633D01*
X159656409Y-100795633D01*
X163848000Y-104987225D01*
X163848000Y-105112776D01*
X163812776Y-105148000D01*
X161600000Y-105148000D01*
X161427027Y-105182406D01*
X161280388Y-105280387D01*
X160781231Y-105779545D01*
X159603550Y-105779545D01*
X159538565Y-105622270D01*
X159235864Y-105319041D01*
X158840164Y-105154732D01*
X158411707Y-105154358D01*
X158015721Y-105317976D01*
X157712492Y-105620677D01*
X157548183Y-106016377D01*
X157547809Y-106444834D01*
X157711427Y-106840820D01*
X157768496Y-106897989D01*
X156078461Y-106897989D01*
X155374116Y-106193644D01*
X155227477Y-106095662D01*
X155054504Y-106061256D01*
X154972398Y-106061256D01*
X154907413Y-105903981D01*
X154604712Y-105600752D01*
X154209012Y-105436443D01*
X153780555Y-105436069D01*
X153384569Y-105599687D01*
X153081340Y-105902388D01*
X152917031Y-106298088D01*
X152916657Y-106726545D01*
X146276052Y-106726545D01*
X146285311Y-106680000D01*
X146191911Y-106210447D01*
X145925931Y-105812380D01*
X145527864Y-105546400D01*
X145058311Y-105453000D01*
X144773689Y-105453000D01*
X144304136Y-105546400D01*
X143906069Y-105812380D01*
X143678474Y-106153000D01*
X143198290Y-106153000D01*
X141185290Y-104140000D01*
X143546689Y-104140000D01*
X143640089Y-104609553D01*
X143906069Y-105007620D01*
X144304136Y-105273600D01*
X144773689Y-105367000D01*
X145058311Y-105367000D01*
X145527864Y-105273600D01*
X145925931Y-105007620D01*
X146191911Y-104609553D01*
X146285311Y-104140000D01*
X146191911Y-103670447D01*
X145925931Y-103272380D01*
X145527864Y-103006400D01*
X145058311Y-102913000D01*
X144773689Y-102913000D01*
X144304136Y-103006400D01*
X143906069Y-103272380D01*
X143640089Y-103670447D01*
X143546689Y-104140000D01*
X141185290Y-104140000D01*
X140772645Y-103727355D01*
X140601675Y-103613115D01*
X140400000Y-103573000D01*
X139568288Y-103573000D01*
X138447644Y-102452356D01*
X138276674Y-102338116D01*
X138144777Y-102311881D01*
X138193990Y-102260605D01*
X138368085Y-101814629D01*
X138331934Y-101704750D01*
X143573000Y-101704750D01*
X143573000Y-102565044D01*
X143622783Y-102685230D01*
X143714769Y-102777217D01*
X143834955Y-102827000D01*
X144811250Y-102827000D01*
X144893000Y-102745250D01*
X144893000Y-101623000D01*
X144939000Y-101623000D01*
X144939000Y-102745250D01*
X145020750Y-102827000D01*
X145997045Y-102827000D01*
X146117231Y-102777217D01*
X146209217Y-102685230D01*
X146259000Y-102565044D01*
X146259000Y-101704750D01*
X146177250Y-101623000D01*
X144939000Y-101623000D01*
X144893000Y-101623000D01*
X143654750Y-101623000D01*
X143573000Y-101704750D01*
X138331934Y-101704750D01*
X138305037Y-101623000D01*
X137183000Y-101623000D01*
X137183000Y-101643000D01*
X137137000Y-101643000D01*
X137137000Y-101623000D01*
X136014963Y-101623000D01*
X135951915Y-101814629D01*
X136126010Y-102260605D01*
X136233885Y-102373001D01*
X136032225Y-102373001D01*
X135753286Y-102094062D01*
X135753600Y-102093591D01*
X135847000Y-101624038D01*
X135847000Y-101575962D01*
X135809090Y-101385371D01*
X135951915Y-101385371D01*
X136014963Y-101577000D01*
X137137000Y-101577000D01*
X137137000Y-100454981D01*
X137183000Y-100454981D01*
X137183000Y-101577000D01*
X138305037Y-101577000D01*
X138368085Y-101385371D01*
X138193990Y-100939395D01*
X137901799Y-100634956D01*
X143573000Y-100634956D01*
X143573000Y-101495250D01*
X143654750Y-101577000D01*
X144893000Y-101577000D01*
X144893000Y-100454750D01*
X144939000Y-100454750D01*
X144939000Y-101577000D01*
X146177250Y-101577000D01*
X146259000Y-101495250D01*
X146259000Y-100634956D01*
X146209217Y-100514770D01*
X146117231Y-100422783D01*
X145997045Y-100373000D01*
X145020750Y-100373000D01*
X144939000Y-100454750D01*
X144893000Y-100454750D01*
X144811250Y-100373000D01*
X143834955Y-100373000D01*
X143714769Y-100422783D01*
X143622783Y-100514770D01*
X143573000Y-100634956D01*
X137901799Y-100634956D01*
X137862480Y-100593990D01*
X137424024Y-100401740D01*
X137374628Y-100391918D01*
X137183000Y-100454981D01*
X137137000Y-100454981D01*
X136945372Y-100391918D01*
X136895976Y-100401740D01*
X136457520Y-100593990D01*
X136126010Y-100939395D01*
X135951915Y-101385371D01*
X135809090Y-101385371D01*
X135753600Y-101106409D01*
X135487620Y-100708342D01*
X135089553Y-100442362D01*
X134620000Y-100348962D01*
X134150447Y-100442362D01*
X133752380Y-100708342D01*
X133486400Y-101106409D01*
X133393000Y-101575962D01*
X133393000Y-101624038D01*
X133422649Y-101773095D01*
X133305779Y-101656225D01*
X133233548Y-101481412D01*
X132930847Y-101178183D01*
X132535147Y-101013874D01*
X132106690Y-101013500D01*
X131710704Y-101177118D01*
X131407475Y-101479819D01*
X131243166Y-101875519D01*
X131242792Y-102303976D01*
X127402000Y-102303976D01*
X127402000Y-99035962D01*
X133393000Y-99035962D01*
X133393000Y-99084038D01*
X133486400Y-99553591D01*
X133752380Y-99951658D01*
X134150447Y-100217638D01*
X134620000Y-100311038D01*
X135089553Y-100217638D01*
X135487620Y-99951658D01*
X135753600Y-99553591D01*
X135809089Y-99274629D01*
X135951915Y-99274629D01*
X136126010Y-99720605D01*
X136457520Y-100066010D01*
X136895976Y-100258260D01*
X136945372Y-100268082D01*
X137137000Y-100205019D01*
X137137000Y-99083000D01*
X137183000Y-99083000D01*
X137183000Y-100205019D01*
X137374628Y-100268082D01*
X137424024Y-100258260D01*
X137862480Y-100066010D01*
X138193990Y-99720605D01*
X138368085Y-99274629D01*
X138305037Y-99083000D01*
X137183000Y-99083000D01*
X137137000Y-99083000D01*
X136014963Y-99083000D01*
X135951915Y-99274629D01*
X135809089Y-99274629D01*
X135847000Y-99084038D01*
X135847000Y-99035962D01*
X135809090Y-98845371D01*
X135951915Y-98845371D01*
X136014963Y-99037000D01*
X137137000Y-99037000D01*
X137137000Y-97914981D01*
X137183000Y-97914981D01*
X137183000Y-99037000D01*
X138305037Y-99037000D01*
X138368085Y-98845371D01*
X138193990Y-98399395D01*
X137862480Y-98053990D01*
X137424024Y-97861740D01*
X137374628Y-97851918D01*
X137183000Y-97914981D01*
X137137000Y-97914981D01*
X136945372Y-97851918D01*
X136895976Y-97861740D01*
X136457520Y-98053990D01*
X136126010Y-98399395D01*
X135951915Y-98845371D01*
X135809090Y-98845371D01*
X135753600Y-98566409D01*
X135487620Y-98168342D01*
X135089553Y-97902362D01*
X134620000Y-97808962D01*
X134150447Y-97902362D01*
X133752380Y-98168342D01*
X133486400Y-98566409D01*
X133393000Y-99035962D01*
X127402000Y-99035962D01*
X127402000Y-77117505D01*
X128897493Y-77117505D01*
X128897493Y-80049493D01*
X128931899Y-80222466D01*
X129029881Y-80369105D01*
X130823002Y-82162226D01*
X130823002Y-87933980D01*
X130857408Y-88106953D01*
X130955390Y-88253592D01*
X133024880Y-90323082D01*
X132716515Y-90322813D01*
X132320529Y-90486431D01*
X132017300Y-90789132D01*
X131852991Y-91184832D01*
X131852617Y-91613289D01*
X131973000Y-91904638D01*
X131973000Y-94669797D01*
X131690725Y-94786431D01*
X131387496Y-95089132D01*
X131223187Y-95484832D01*
X131222813Y-95913289D01*
X131386431Y-96309275D01*
X131689132Y-96612504D01*
X132084832Y-96776813D01*
X132513289Y-96777187D01*
X132909275Y-96613569D01*
X133027087Y-96495962D01*
X133393000Y-96495962D01*
X133393000Y-96544038D01*
X133486400Y-97013591D01*
X133752380Y-97411658D01*
X134150447Y-97677638D01*
X134620000Y-97771038D01*
X135089553Y-97677638D01*
X135487620Y-97411658D01*
X135753600Y-97013591D01*
X135847000Y-96544038D01*
X135847000Y-96495962D01*
X135933000Y-96495962D01*
X135933000Y-96544038D01*
X136026400Y-97013591D01*
X136292380Y-97411658D01*
X136690447Y-97677638D01*
X137160000Y-97771038D01*
X137629553Y-97677638D01*
X138027620Y-97411658D01*
X138293600Y-97013591D01*
X138387000Y-96544038D01*
X138387000Y-96495962D01*
X138293600Y-96026409D01*
X138027620Y-95628342D01*
X137629553Y-95362362D01*
X137160000Y-95268962D01*
X136690447Y-95362362D01*
X136292380Y-95628342D01*
X136026400Y-96026409D01*
X135933000Y-96495962D01*
X135847000Y-96495962D01*
X135753600Y-96026409D01*
X135487620Y-95628342D01*
X135089553Y-95362362D01*
X134620000Y-95268962D01*
X134150447Y-95362362D01*
X133752380Y-95628342D01*
X133486400Y-96026409D01*
X133393000Y-96495962D01*
X133027087Y-96495962D01*
X133212504Y-96310868D01*
X133376813Y-95915168D01*
X133376920Y-95792634D01*
X133384777Y-95784777D01*
X133564048Y-95516479D01*
X133627000Y-95200000D01*
X133627000Y-92225801D01*
X133842308Y-92010868D01*
X134006617Y-91615168D01*
X134006888Y-91305090D01*
X134621410Y-91919612D01*
X134768049Y-92017594D01*
X134941022Y-92052000D01*
X139112776Y-92052000D01*
X139948000Y-92887224D01*
X139948000Y-94826257D01*
X139792782Y-94826122D01*
X139396796Y-94989740D01*
X139093567Y-95292441D01*
X138929258Y-95688141D01*
X138928884Y-96116598D01*
X139092502Y-96512584D01*
X139395203Y-96815813D01*
X139790903Y-96980122D01*
X140219360Y-96980496D01*
X140615346Y-96816878D01*
X140638049Y-96794215D01*
X140721955Y-96997284D01*
X141024656Y-97300513D01*
X141420356Y-97464822D01*
X141848813Y-97465196D01*
X142244799Y-97301578D01*
X142548028Y-96998877D01*
X142696635Y-96640991D01*
X142827873Y-96772457D01*
X143223573Y-96936766D01*
X143652030Y-96937140D01*
X144048016Y-96773522D01*
X144351245Y-96470821D01*
X144515554Y-96075121D01*
X144515928Y-95646664D01*
X144352310Y-95250678D01*
X144049609Y-94947449D01*
X143653909Y-94783140D01*
X143225452Y-94782766D01*
X142829466Y-94946384D01*
X142607344Y-95168119D01*
X142319612Y-94880388D01*
X142172973Y-94782406D01*
X142000000Y-94748000D01*
X141987225Y-94748000D01*
X141852000Y-94612776D01*
X141852000Y-92976872D01*
X142213289Y-92977187D01*
X142609275Y-92813569D01*
X142912504Y-92510868D01*
X143076813Y-92115168D01*
X143077187Y-91686711D01*
X142913569Y-91290725D01*
X142610868Y-90987496D01*
X142215168Y-90823187D01*
X141786711Y-90822813D01*
X141390725Y-90986431D01*
X141087496Y-91289132D01*
X140923187Y-91684832D01*
X140923013Y-91883789D01*
X139819612Y-90780388D01*
X139672973Y-90682406D01*
X139500000Y-90648000D01*
X135264657Y-90648000D01*
X134743191Y-90126534D01*
X135089553Y-90057638D01*
X135487620Y-89791658D01*
X135753600Y-89393591D01*
X135830945Y-89004750D01*
X135933000Y-89004750D01*
X135933000Y-89865044D01*
X135982783Y-89985230D01*
X136074769Y-90077217D01*
X136194955Y-90127000D01*
X137055250Y-90127000D01*
X137137000Y-90045250D01*
X137137000Y-88923000D01*
X137183000Y-88923000D01*
X137183000Y-90045250D01*
X137264750Y-90127000D01*
X138125045Y-90127000D01*
X138245231Y-90077217D01*
X138337217Y-89985230D01*
X138387000Y-89865044D01*
X138387000Y-89004750D01*
X143437000Y-89004750D01*
X143437000Y-89865044D01*
X143486783Y-89985230D01*
X143578769Y-90077217D01*
X143698955Y-90127000D01*
X144675250Y-90127000D01*
X144757000Y-90045250D01*
X144757000Y-88923000D01*
X144803000Y-88923000D01*
X144803000Y-90045250D01*
X144884750Y-90127000D01*
X145861045Y-90127000D01*
X145981231Y-90077217D01*
X146073217Y-89985230D01*
X146123000Y-89865044D01*
X146123000Y-89004750D01*
X146951888Y-89004750D01*
X146951888Y-89865044D01*
X147001671Y-89985230D01*
X147093657Y-90077217D01*
X147213843Y-90127000D01*
X148190138Y-90127000D01*
X148271888Y-90045250D01*
X148271888Y-88923000D01*
X148317888Y-88923000D01*
X148317888Y-90045250D01*
X148399638Y-90127000D01*
X149375933Y-90127000D01*
X149496119Y-90077217D01*
X149588105Y-89985230D01*
X149637888Y-89865044D01*
X149637888Y-89004750D01*
X191697000Y-89004750D01*
X191697000Y-89865044D01*
X191746783Y-89985230D01*
X191838769Y-90077217D01*
X191958955Y-90127000D01*
X192935250Y-90127000D01*
X193017000Y-90045250D01*
X193017000Y-88923000D01*
X193063000Y-88923000D01*
X193063000Y-90045250D01*
X193144750Y-90127000D01*
X194121045Y-90127000D01*
X194241231Y-90077217D01*
X194333217Y-89985230D01*
X194383000Y-89865044D01*
X194383000Y-89004750D01*
X194301250Y-88923000D01*
X193063000Y-88923000D01*
X193017000Y-88923000D01*
X191778750Y-88923000D01*
X191697000Y-89004750D01*
X149637888Y-89004750D01*
X149556138Y-88923000D01*
X148317888Y-88923000D01*
X148271888Y-88923000D01*
X147033638Y-88923000D01*
X146951888Y-89004750D01*
X146123000Y-89004750D01*
X146041250Y-88923000D01*
X144803000Y-88923000D01*
X144757000Y-88923000D01*
X143518750Y-88923000D01*
X143437000Y-89004750D01*
X138387000Y-89004750D01*
X138305250Y-88923000D01*
X137183000Y-88923000D01*
X137137000Y-88923000D01*
X136014750Y-88923000D01*
X135933000Y-89004750D01*
X135830945Y-89004750D01*
X135847000Y-88924038D01*
X135847000Y-88875962D01*
X135753600Y-88406409D01*
X135487620Y-88008342D01*
X135377791Y-87934956D01*
X135933000Y-87934956D01*
X135933000Y-88795250D01*
X136014750Y-88877000D01*
X137137000Y-88877000D01*
X137137000Y-87754750D01*
X137183000Y-87754750D01*
X137183000Y-88877000D01*
X138305250Y-88877000D01*
X138387000Y-88795250D01*
X138387000Y-87934956D01*
X143437000Y-87934956D01*
X143437000Y-88795250D01*
X143518750Y-88877000D01*
X144757000Y-88877000D01*
X144757000Y-87754750D01*
X144803000Y-87754750D01*
X144803000Y-88877000D01*
X146041250Y-88877000D01*
X146123000Y-88795250D01*
X146123000Y-87934956D01*
X146951888Y-87934956D01*
X146951888Y-88795250D01*
X147033638Y-88877000D01*
X148271888Y-88877000D01*
X148271888Y-87754750D01*
X148317888Y-87754750D01*
X148317888Y-88877000D01*
X149556138Y-88877000D01*
X149637888Y-88795250D01*
X149637888Y-87934956D01*
X191697000Y-87934956D01*
X191697000Y-88795250D01*
X191778750Y-88877000D01*
X193017000Y-88877000D01*
X193017000Y-87754750D01*
X193063000Y-87754750D01*
X193063000Y-88877000D01*
X194301250Y-88877000D01*
X194383000Y-88795250D01*
X194383000Y-87934956D01*
X194333217Y-87814770D01*
X194241231Y-87722783D01*
X194121045Y-87673000D01*
X193144750Y-87673000D01*
X193063000Y-87754750D01*
X193017000Y-87754750D01*
X192935250Y-87673000D01*
X191958955Y-87673000D01*
X191838769Y-87722783D01*
X191746783Y-87814770D01*
X191697000Y-87934956D01*
X149637888Y-87934956D01*
X149588105Y-87814770D01*
X149496119Y-87722783D01*
X149375933Y-87673000D01*
X148399638Y-87673000D01*
X148317888Y-87754750D01*
X148271888Y-87754750D01*
X148190138Y-87673000D01*
X147213843Y-87673000D01*
X147093657Y-87722783D01*
X147001671Y-87814770D01*
X146951888Y-87934956D01*
X146123000Y-87934956D01*
X146073217Y-87814770D01*
X145981231Y-87722783D01*
X145861045Y-87673000D01*
X144884750Y-87673000D01*
X144803000Y-87754750D01*
X144757000Y-87754750D01*
X144675250Y-87673000D01*
X143698955Y-87673000D01*
X143578769Y-87722783D01*
X143486783Y-87814770D01*
X143437000Y-87934956D01*
X138387000Y-87934956D01*
X138337217Y-87814770D01*
X138245231Y-87722783D01*
X138125045Y-87673000D01*
X137264750Y-87673000D01*
X137183000Y-87754750D01*
X137137000Y-87754750D01*
X137055250Y-87673000D01*
X136194955Y-87673000D01*
X136074769Y-87722783D01*
X135982783Y-87814770D01*
X135933000Y-87934956D01*
X135377791Y-87934956D01*
X135089553Y-87742362D01*
X134620000Y-87648962D01*
X134150447Y-87742362D01*
X133752380Y-88008342D01*
X133486400Y-88406409D01*
X133409528Y-88792871D01*
X132177013Y-87560356D01*
X132177013Y-86335962D01*
X133393000Y-86335962D01*
X133393000Y-86384038D01*
X133486400Y-86853591D01*
X133752380Y-87251658D01*
X134150447Y-87517638D01*
X134620000Y-87611038D01*
X135089553Y-87517638D01*
X135487620Y-87251658D01*
X135753600Y-86853591D01*
X135847000Y-86384038D01*
X135847000Y-86335962D01*
X135933000Y-86335962D01*
X135933000Y-86384038D01*
X136026400Y-86853591D01*
X136292380Y-87251658D01*
X136690447Y-87517638D01*
X137160000Y-87611038D01*
X137629553Y-87517638D01*
X138027620Y-87251658D01*
X138293600Y-86853591D01*
X138387000Y-86384038D01*
X138387000Y-86360000D01*
X143410689Y-86360000D01*
X143504089Y-86829553D01*
X143770069Y-87227620D01*
X144168136Y-87493600D01*
X144637689Y-87587000D01*
X144922311Y-87587000D01*
X145391864Y-87493600D01*
X145789931Y-87227620D01*
X146055911Y-86829553D01*
X146149311Y-86360000D01*
X146925577Y-86360000D01*
X147018977Y-86829553D01*
X147284957Y-87227620D01*
X147683024Y-87493600D01*
X148152577Y-87587000D01*
X148437199Y-87587000D01*
X148906752Y-87493600D01*
X149304819Y-87227620D01*
X149570799Y-86829553D01*
X149664199Y-86360000D01*
X191670689Y-86360000D01*
X191764089Y-86829553D01*
X192030069Y-87227620D01*
X192428136Y-87493600D01*
X192897689Y-87587000D01*
X193182311Y-87587000D01*
X193651864Y-87493600D01*
X194049931Y-87227620D01*
X194315911Y-86829553D01*
X194409311Y-86360000D01*
X194315911Y-85890447D01*
X194049931Y-85492380D01*
X193651864Y-85226400D01*
X193182311Y-85133000D01*
X192897689Y-85133000D01*
X192428136Y-85226400D01*
X192030069Y-85492380D01*
X191764089Y-85890447D01*
X191670689Y-86360000D01*
X149664199Y-86360000D01*
X149570799Y-85890447D01*
X149304819Y-85492380D01*
X148906752Y-85226400D01*
X148437199Y-85133000D01*
X148152577Y-85133000D01*
X147683024Y-85226400D01*
X147284957Y-85492380D01*
X147018977Y-85890447D01*
X146925577Y-86360000D01*
X146149311Y-86360000D01*
X146055911Y-85890447D01*
X145789931Y-85492380D01*
X145391864Y-85226400D01*
X144922311Y-85133000D01*
X144637689Y-85133000D01*
X144168136Y-85226400D01*
X143770069Y-85492380D01*
X143504089Y-85890447D01*
X143410689Y-86360000D01*
X138387000Y-86360000D01*
X138387000Y-86335962D01*
X138293600Y-85866409D01*
X138027620Y-85468342D01*
X137629553Y-85202362D01*
X137160000Y-85108962D01*
X136690447Y-85202362D01*
X136292380Y-85468342D01*
X136026400Y-85866409D01*
X135933000Y-86335962D01*
X135847000Y-86335962D01*
X135753600Y-85866409D01*
X135487620Y-85468342D01*
X135089553Y-85202362D01*
X134620000Y-85108962D01*
X134150447Y-85202362D01*
X133752380Y-85468342D01*
X133486400Y-85866409D01*
X133393000Y-86335962D01*
X132177013Y-86335962D01*
X132177013Y-80904706D01*
X132142607Y-80731733D01*
X132044626Y-80585094D01*
X131716578Y-80257047D01*
X131658521Y-80198990D01*
X131723780Y-80041828D01*
X131724154Y-79613371D01*
X131560536Y-79217385D01*
X131257835Y-78914156D01*
X130862135Y-78749847D01*
X130433678Y-78749473D01*
X130037692Y-78913091D01*
X129801493Y-79148879D01*
X129801493Y-77304729D01*
X133423221Y-73683002D01*
X133474962Y-73683002D01*
X133411915Y-73874629D01*
X133586010Y-74320605D01*
X133917520Y-74666010D01*
X134355976Y-74858260D01*
X134405372Y-74868082D01*
X134597000Y-74805019D01*
X134597000Y-73683000D01*
X134643000Y-73683000D01*
X134643000Y-74805019D01*
X134834628Y-74868082D01*
X134884024Y-74858260D01*
X135322480Y-74666010D01*
X135653990Y-74320605D01*
X135828085Y-73874629D01*
X135765037Y-73683000D01*
X134643000Y-73683000D01*
X134597000Y-73683000D01*
X134577000Y-73683000D01*
X134577000Y-73637000D01*
X134597000Y-73637000D01*
X134597000Y-73617000D01*
X134643000Y-73617000D01*
X134643000Y-73637000D01*
X135765037Y-73637000D01*
X135828085Y-73445371D01*
X135653990Y-72999395D01*
X135546115Y-72886999D01*
X136213096Y-72886999D01*
X136026400Y-73166409D01*
X135933000Y-73635962D01*
X135933000Y-73684038D01*
X136026400Y-74153591D01*
X136026714Y-74154062D01*
X135615387Y-74565389D01*
X135517405Y-74712028D01*
X135482999Y-74885001D01*
X135482999Y-75305254D01*
X135089553Y-75042362D01*
X134620000Y-74948962D01*
X134150447Y-75042362D01*
X133752380Y-75308342D01*
X133486400Y-75706409D01*
X133393000Y-76175962D01*
X133393000Y-76224038D01*
X133486400Y-76693591D01*
X133752380Y-77091658D01*
X134150447Y-77357638D01*
X134620000Y-77451038D01*
X135089553Y-77357638D01*
X135482999Y-77094746D01*
X135482999Y-82317776D01*
X135200387Y-82600389D01*
X135118843Y-82681933D01*
X135089553Y-82662362D01*
X134620000Y-82568962D01*
X134150447Y-82662362D01*
X133752380Y-82928342D01*
X133486400Y-83326409D01*
X133393000Y-83795962D01*
X133393000Y-83844038D01*
X133486400Y-84313591D01*
X133752380Y-84711658D01*
X134150447Y-84977638D01*
X134620000Y-85071038D01*
X135089553Y-84977638D01*
X135487620Y-84711658D01*
X135753600Y-84313591D01*
X135847000Y-83844038D01*
X135847000Y-83795962D01*
X135933000Y-83795962D01*
X135933000Y-83844038D01*
X136026400Y-84313591D01*
X136292380Y-84711658D01*
X136690447Y-84977638D01*
X137160000Y-85071038D01*
X137629553Y-84977638D01*
X138027620Y-84711658D01*
X138293600Y-84313591D01*
X138387000Y-83844038D01*
X138387000Y-83820000D01*
X143410689Y-83820000D01*
X143504089Y-84289553D01*
X143770069Y-84687620D01*
X144168136Y-84953600D01*
X144637689Y-85047000D01*
X144922311Y-85047000D01*
X145391864Y-84953600D01*
X145789931Y-84687620D01*
X146055911Y-84289553D01*
X146149311Y-83820000D01*
X146925577Y-83820000D01*
X147018977Y-84289553D01*
X147284957Y-84687620D01*
X147683024Y-84953600D01*
X148152577Y-85047000D01*
X148437199Y-85047000D01*
X148906752Y-84953600D01*
X149304819Y-84687620D01*
X149570799Y-84289553D01*
X149664199Y-83820000D01*
X191670689Y-83820000D01*
X191764089Y-84289553D01*
X192030069Y-84687620D01*
X192428136Y-84953600D01*
X192897689Y-85047000D01*
X193182311Y-85047000D01*
X193651864Y-84953600D01*
X194049931Y-84687620D01*
X194315911Y-84289553D01*
X194409311Y-83820000D01*
X194315911Y-83350447D01*
X194049931Y-82952380D01*
X193651864Y-82686400D01*
X193182311Y-82593000D01*
X192897689Y-82593000D01*
X192428136Y-82686400D01*
X192030069Y-82952380D01*
X191764089Y-83350447D01*
X191670689Y-83820000D01*
X149664199Y-83820000D01*
X149570799Y-83350447D01*
X149304819Y-82952380D01*
X148906752Y-82686400D01*
X148437199Y-82593000D01*
X148152577Y-82593000D01*
X147683024Y-82686400D01*
X147284957Y-82952380D01*
X147018977Y-83350447D01*
X146925577Y-83820000D01*
X146149311Y-83820000D01*
X146055911Y-83350447D01*
X145789931Y-82952380D01*
X145391864Y-82686400D01*
X144922311Y-82593000D01*
X144637689Y-82593000D01*
X144168136Y-82686400D01*
X143770069Y-82952380D01*
X143504089Y-83350447D01*
X143410689Y-83820000D01*
X138387000Y-83820000D01*
X138387000Y-83795962D01*
X138293600Y-83326409D01*
X138027620Y-82928342D01*
X137629553Y-82662362D01*
X137160000Y-82568962D01*
X136690447Y-82662362D01*
X136292380Y-82928342D01*
X136026400Y-83326409D01*
X135933000Y-83795962D01*
X135847000Y-83795962D01*
X135753600Y-83326409D01*
X135753286Y-83325938D01*
X135839611Y-83239613D01*
X136254612Y-82824613D01*
X136352593Y-82677974D01*
X136386999Y-82505001D01*
X136386999Y-81280000D01*
X191670689Y-81280000D01*
X191764089Y-81749553D01*
X192030069Y-82147620D01*
X192428136Y-82413600D01*
X192897689Y-82507000D01*
X193182311Y-82507000D01*
X193651864Y-82413600D01*
X194049931Y-82147620D01*
X194315911Y-81749553D01*
X194409311Y-81280000D01*
X194315911Y-80810447D01*
X194049931Y-80412380D01*
X193651864Y-80146400D01*
X193182311Y-80053000D01*
X192897689Y-80053000D01*
X192428136Y-80146400D01*
X192030069Y-80412380D01*
X191764089Y-80810447D01*
X191670689Y-81280000D01*
X136386999Y-81280000D01*
X136386999Y-77433406D01*
X138060000Y-77433406D01*
X138181179Y-77410605D01*
X138292474Y-77338988D01*
X138367138Y-77229714D01*
X138393406Y-77100000D01*
X138393406Y-75300000D01*
X138370605Y-75178821D01*
X138298988Y-75067526D01*
X138189714Y-74992862D01*
X138060000Y-74966594D01*
X136492630Y-74966594D01*
X136661157Y-74798067D01*
X136690447Y-74817638D01*
X137160000Y-74911038D01*
X137629553Y-74817638D01*
X138027620Y-74551658D01*
X138293600Y-74153591D01*
X138387000Y-73684038D01*
X138387000Y-73658878D01*
X187672424Y-73658878D01*
X188177862Y-74882132D01*
X189112945Y-75818849D01*
X190335315Y-76326421D01*
X191658878Y-76327576D01*
X192882132Y-75822138D01*
X193818849Y-74887055D01*
X194326421Y-73664685D01*
X194327576Y-72341122D01*
X193822138Y-71117868D01*
X192887055Y-70181151D01*
X191664685Y-69673579D01*
X190341122Y-69672424D01*
X189117868Y-70177862D01*
X188181151Y-71112945D01*
X187673579Y-72335315D01*
X187672424Y-73658878D01*
X138387000Y-73658878D01*
X138387000Y-73635962D01*
X138293600Y-73166409D01*
X138027620Y-72768342D01*
X137989413Y-72742813D01*
X139779585Y-70952642D01*
X139877567Y-70806002D01*
X139911973Y-70633029D01*
X139911973Y-68960400D01*
X140069248Y-68895415D01*
X140372477Y-68592714D01*
X140536786Y-68197014D01*
X140537160Y-67768557D01*
X140373542Y-67372571D01*
X140070841Y-67069342D01*
X139675141Y-66905033D01*
X139246684Y-66904659D01*
X138850698Y-67068277D01*
X138547469Y-67370978D01*
X138383160Y-67766678D01*
X138382786Y-68195135D01*
X138546404Y-68591121D01*
X138849105Y-68894350D01*
X139007973Y-68960318D01*
X139007973Y-70445804D01*
X138382158Y-71071619D01*
X138293600Y-70626409D01*
X138027620Y-70228342D01*
X137629553Y-69962362D01*
X137160000Y-69868962D01*
X136690447Y-69962362D01*
X136292380Y-70228342D01*
X136026400Y-70626409D01*
X135933000Y-71095962D01*
X135933000Y-71144038D01*
X136026400Y-71613591D01*
X136273231Y-71982999D01*
X135459738Y-71982999D01*
X135653990Y-71780605D01*
X135828085Y-71334629D01*
X135765037Y-71143000D01*
X134643000Y-71143000D01*
X134643000Y-71163000D01*
X134597000Y-71163000D01*
X134597000Y-71143000D01*
X133474963Y-71143000D01*
X133411915Y-71334629D01*
X133586010Y-71780605D01*
X133831156Y-72036026D01*
X133712386Y-72115387D01*
X129029881Y-76797893D01*
X128931899Y-76944532D01*
X128897493Y-77117505D01*
X127402000Y-77117505D01*
X127402000Y-70905371D01*
X133411915Y-70905371D01*
X133474963Y-71097000D01*
X134597000Y-71097000D01*
X134597000Y-69974981D01*
X134643000Y-69974981D01*
X134643000Y-71097000D01*
X135765037Y-71097000D01*
X135828085Y-70905371D01*
X135653990Y-70459395D01*
X135322480Y-70113990D01*
X134884024Y-69921740D01*
X134834628Y-69911918D01*
X134643000Y-69974981D01*
X134597000Y-69974981D01*
X134405372Y-69911918D01*
X134355976Y-69921740D01*
X133917520Y-70113990D01*
X133586010Y-70459395D01*
X133411915Y-70905371D01*
X127402000Y-70905371D01*
X127402000Y-68555962D01*
X133393000Y-68555962D01*
X133393000Y-68604038D01*
X133486400Y-69073591D01*
X133752380Y-69471658D01*
X134150447Y-69737638D01*
X134620000Y-69831038D01*
X135089553Y-69737638D01*
X135487620Y-69471658D01*
X135753600Y-69073591D01*
X135847000Y-68604038D01*
X135847000Y-68555962D01*
X135933000Y-68555962D01*
X135933000Y-68604038D01*
X136026400Y-69073591D01*
X136292380Y-69471658D01*
X136690447Y-69737638D01*
X137160000Y-69831038D01*
X137629553Y-69737638D01*
X138027620Y-69471658D01*
X138293600Y-69073591D01*
X138387000Y-68604038D01*
X138387000Y-68555962D01*
X138293600Y-68086409D01*
X138027620Y-67688342D01*
X137629553Y-67422362D01*
X137160000Y-67328962D01*
X136690447Y-67422362D01*
X136292380Y-67688342D01*
X136026400Y-68086409D01*
X135933000Y-68555962D01*
X135847000Y-68555962D01*
X135753600Y-68086409D01*
X135487620Y-67688342D01*
X135089553Y-67422362D01*
X134620000Y-67328962D01*
X134150447Y-67422362D01*
X133752380Y-67688342D01*
X133486400Y-68086409D01*
X133393000Y-68555962D01*
X127402000Y-68555962D01*
X127402000Y-65658878D01*
X140672424Y-65658878D01*
X141177862Y-66882132D01*
X142112945Y-67818849D01*
X143335315Y-68326421D01*
X144658878Y-68327576D01*
X145882132Y-67822138D01*
X146818849Y-66887055D01*
X147326421Y-65664685D01*
X147327576Y-64341122D01*
X146822138Y-63117868D01*
X145887055Y-62181151D01*
X145723626Y-62113289D01*
X149322813Y-62113289D01*
X149486431Y-62509275D01*
X149789132Y-62812504D01*
X150184832Y-62976813D01*
X150613289Y-62977187D01*
X151009275Y-62813569D01*
X151312504Y-62510868D01*
X151476813Y-62115168D01*
X151477187Y-61686711D01*
X151313569Y-61290725D01*
X151010868Y-60987496D01*
X150927000Y-60952671D01*
X150927000Y-58524750D01*
X151173000Y-58524750D01*
X151173000Y-59385045D01*
X151222783Y-59505231D01*
X151314770Y-59597217D01*
X151434956Y-59647000D01*
X152295250Y-59647000D01*
X152377000Y-59565250D01*
X152377000Y-58443000D01*
X152423000Y-58443000D01*
X152423000Y-59565250D01*
X152504750Y-59647000D01*
X153365044Y-59647000D01*
X153485230Y-59597217D01*
X153577217Y-59505231D01*
X153627000Y-59385045D01*
X153627000Y-58524750D01*
X153545250Y-58443000D01*
X152423000Y-58443000D01*
X152377000Y-58443000D01*
X151254750Y-58443000D01*
X151173000Y-58524750D01*
X150927000Y-58524750D01*
X150927000Y-58420000D01*
X153688962Y-58420000D01*
X153782362Y-58889553D01*
X154048342Y-59287620D01*
X154446409Y-59553600D01*
X154915962Y-59647000D01*
X154964038Y-59647000D01*
X155345777Y-59571067D01*
X157047355Y-61272646D01*
X157218326Y-61386885D01*
X157420000Y-61427000D01*
X157652436Y-61427000D01*
X157686431Y-61509275D01*
X157989132Y-61812504D01*
X158384832Y-61976813D01*
X158813289Y-61977187D01*
X159209275Y-61813569D01*
X159512504Y-61510868D01*
X159676813Y-61115168D01*
X159677187Y-60686711D01*
X159513569Y-60290725D01*
X159210868Y-59987496D01*
X158815168Y-59823187D01*
X158386711Y-59822813D01*
X157990725Y-59986431D01*
X157687496Y-60289132D01*
X157652671Y-60373000D01*
X157638291Y-60373000D01*
X156107129Y-58841839D01*
X156191038Y-58420000D01*
X156228962Y-58420000D01*
X156322362Y-58889553D01*
X156588342Y-59287620D01*
X156986409Y-59553600D01*
X157455962Y-59647000D01*
X157504038Y-59647000D01*
X157973591Y-59553600D01*
X158371658Y-59287620D01*
X158637638Y-58889553D01*
X158731038Y-58420000D01*
X158637638Y-57950447D01*
X158371658Y-57552380D01*
X157973591Y-57286400D01*
X157504038Y-57193000D01*
X157455962Y-57193000D01*
X156986409Y-57286400D01*
X156588342Y-57552380D01*
X156322362Y-57950447D01*
X156228962Y-58420000D01*
X156191038Y-58420000D01*
X156097638Y-57950447D01*
X155831658Y-57552380D01*
X155433591Y-57286400D01*
X154964038Y-57193000D01*
X154915962Y-57193000D01*
X154446409Y-57286400D01*
X154048342Y-57552380D01*
X153782362Y-57950447D01*
X153688962Y-58420000D01*
X150927000Y-58420000D01*
X150927000Y-57454955D01*
X151173000Y-57454955D01*
X151173000Y-58315250D01*
X151254750Y-58397000D01*
X152377000Y-58397000D01*
X152377000Y-57274750D01*
X152423000Y-57274750D01*
X152423000Y-58397000D01*
X153545250Y-58397000D01*
X153627000Y-58315250D01*
X153627000Y-57454955D01*
X153577217Y-57334769D01*
X153485230Y-57242783D01*
X153365044Y-57193000D01*
X152504750Y-57193000D01*
X152423000Y-57274750D01*
X152377000Y-57274750D01*
X152295250Y-57193000D01*
X151434956Y-57193000D01*
X151314770Y-57242783D01*
X151222783Y-57334769D01*
X151173000Y-57454955D01*
X150927000Y-57454955D01*
X150927000Y-56174288D01*
X151198286Y-55903002D01*
X151254980Y-55903002D01*
X151191918Y-56094628D01*
X151201740Y-56144024D01*
X151393990Y-56582480D01*
X151739395Y-56913990D01*
X152185371Y-57088085D01*
X152377000Y-57025037D01*
X152377000Y-55903000D01*
X152423000Y-55903000D01*
X152423000Y-57025037D01*
X152614629Y-57088085D01*
X153060605Y-56913990D01*
X153406010Y-56582480D01*
X153598260Y-56144024D01*
X153608082Y-56094628D01*
X153545019Y-55903000D01*
X152423000Y-55903000D01*
X152377000Y-55903000D01*
X152357000Y-55903000D01*
X152357000Y-55857000D01*
X152377000Y-55857000D01*
X152377000Y-55837000D01*
X152423000Y-55837000D01*
X152423000Y-55857000D01*
X153545019Y-55857000D01*
X153608082Y-55665372D01*
X153598260Y-55615976D01*
X153406010Y-55177520D01*
X153332533Y-55106999D01*
X153421709Y-55106999D01*
X153772871Y-55458161D01*
X153688962Y-55880000D01*
X153782362Y-56349553D01*
X154048342Y-56747620D01*
X154446409Y-57013600D01*
X154915962Y-57107000D01*
X154964038Y-57107000D01*
X155433591Y-57013600D01*
X155831658Y-56747620D01*
X156097638Y-56349553D01*
X156191038Y-55880000D01*
X156228962Y-55880000D01*
X156322362Y-56349553D01*
X156588342Y-56747620D01*
X156986409Y-57013600D01*
X157455962Y-57107000D01*
X157504038Y-57107000D01*
X157973591Y-57013600D01*
X158371658Y-56747620D01*
X158637638Y-56349553D01*
X158731038Y-55880000D01*
X158637638Y-55410447D01*
X158371658Y-55012380D01*
X157973591Y-54746400D01*
X157504038Y-54653000D01*
X157455962Y-54653000D01*
X156986409Y-54746400D01*
X156588342Y-55012380D01*
X156322362Y-55410447D01*
X156228962Y-55880000D01*
X156191038Y-55880000D01*
X156097638Y-55410447D01*
X155831658Y-55012380D01*
X155433591Y-54746400D01*
X154964038Y-54653000D01*
X154915962Y-54653000D01*
X154534223Y-54728933D01*
X154012644Y-54207354D01*
X153841674Y-54093114D01*
X153639999Y-54052999D01*
X151775999Y-54052999D01*
X151574325Y-54093114D01*
X151574323Y-54093115D01*
X151574324Y-54093115D01*
X151403353Y-54207354D01*
X150027355Y-55583353D01*
X149913115Y-55754323D01*
X149913115Y-55754324D01*
X149873000Y-55955998D01*
X149873000Y-60952436D01*
X149790725Y-60986431D01*
X149487496Y-61289132D01*
X149323187Y-61684832D01*
X149322813Y-62113289D01*
X145723626Y-62113289D01*
X144664685Y-61673579D01*
X143341122Y-61672424D01*
X142117868Y-62177862D01*
X141181151Y-63112945D01*
X140673579Y-64335315D01*
X140672424Y-65658878D01*
X127402000Y-65658878D01*
X127402000Y-61064750D01*
X133277000Y-61064750D01*
X133277000Y-61925044D01*
X133326783Y-62045230D01*
X133418769Y-62137217D01*
X133538955Y-62187000D01*
X134515250Y-62187000D01*
X134597000Y-62105250D01*
X134597000Y-60983000D01*
X134643000Y-60983000D01*
X134643000Y-62105250D01*
X134724750Y-62187000D01*
X135701045Y-62187000D01*
X135821231Y-62137217D01*
X135913217Y-62045230D01*
X135963000Y-61925044D01*
X135963000Y-61064750D01*
X135881250Y-60983000D01*
X134643000Y-60983000D01*
X134597000Y-60983000D01*
X133358750Y-60983000D01*
X133277000Y-61064750D01*
X127402000Y-61064750D01*
X127402000Y-59994956D01*
X133277000Y-59994956D01*
X133277000Y-60855250D01*
X133358750Y-60937000D01*
X134597000Y-60937000D01*
X134597000Y-59814750D01*
X134643000Y-59814750D01*
X134643000Y-60937000D01*
X135881250Y-60937000D01*
X135963000Y-60855250D01*
X135963000Y-59994956D01*
X135913217Y-59874770D01*
X135821231Y-59782783D01*
X135701045Y-59733000D01*
X134724750Y-59733000D01*
X134643000Y-59814750D01*
X134597000Y-59814750D01*
X134515250Y-59733000D01*
X133538955Y-59733000D01*
X133418769Y-59782783D01*
X133326783Y-59874770D01*
X133277000Y-59994956D01*
X127402000Y-59994956D01*
X127402000Y-58420000D01*
X133250689Y-58420000D01*
X133344089Y-58889553D01*
X133610069Y-59287620D01*
X134008136Y-59553600D01*
X134477689Y-59647000D01*
X134762311Y-59647000D01*
X135231864Y-59553600D01*
X135629931Y-59287620D01*
X135895911Y-58889553D01*
X135989311Y-58420000D01*
X135895911Y-57950447D01*
X135629931Y-57552380D01*
X135231864Y-57286400D01*
X134762311Y-57193000D01*
X134477689Y-57193000D01*
X134008136Y-57286400D01*
X133610069Y-57552380D01*
X133344089Y-57950447D01*
X133250689Y-58420000D01*
X127402000Y-58420000D01*
X127402000Y-55880000D01*
X133250689Y-55880000D01*
X133344089Y-56349553D01*
X133610069Y-56747620D01*
X134008136Y-57013600D01*
X134477689Y-57107000D01*
X134762311Y-57107000D01*
X135231864Y-57013600D01*
X135629931Y-56747620D01*
X135895911Y-56349553D01*
X135989311Y-55880000D01*
X135895911Y-55410447D01*
X135629931Y-55012380D01*
X135231864Y-54746400D01*
X134762311Y-54653000D01*
X134477689Y-54653000D01*
X134008136Y-54746400D01*
X133610069Y-55012380D01*
X133344089Y-55410447D01*
X133250689Y-55880000D01*
X127402000Y-55880000D01*
X127402000Y-52402000D01*
X167873000Y-52402000D01*
X167873000Y-59000000D01*
M02*
