G04 #@! TF.FileFunction,Legend,Top*
%FSLAX46Y46*%
G04 Gerber Fmt 4.6, Leading zero omitted, Abs format (unit mm)*
G04 Created by KiCad (PCBNEW 4.0.1-stable) date 23.06.2016 01:41:27*
%MOMM*%
G01*
G04 APERTURE LIST*
%ADD10C,0.100000*%
%ADD11C,0.200000*%
%ADD12C,0.150000*%
%ADD13R,1.100000X0.700000*%
%ADD14R,0.700000X1.100000*%
%ADD15R,1.000000X0.950000*%
%ADD16R,0.950000X1.000000*%
%ADD17R,1.600000X1.400000*%
%ADD18R,1.000100X1.000100*%
%ADD19R,3.857600X2.232000*%
%ADD20R,1.216000X2.232000*%
%ADD21R,2.000000X2.000000*%
%ADD22O,2.000000X2.000000*%
%ADD23R,2.232000X2.000000*%
%ADD24O,2.232000X2.000000*%
%ADD25R,1.800000X1.600000*%
%ADD26R,0.900000X1.800000*%
%ADD27R,1.400000X2.400000*%
%ADD28C,2.200000*%
%ADD29R,3.200000X4.200000*%
%ADD30R,1.300000X2.600000*%
%ADD31R,2.600000X1.300000*%
%ADD32R,1.100000X1.900000*%
%ADD33R,1.700000X0.750000*%
%ADD34R,0.750000X1.700000*%
%ADD35R,0.650000X0.790000*%
%ADD36R,3.199740X1.800200*%
%ADD37R,1.800200X3.799180*%
%ADD38R,3.799180X1.800200*%
%ADD39C,2.699360*%
%ADD40C,6.200000*%
G04 APERTURE END LIST*
D10*
D11*
X151395238Y-91902381D02*
X151966667Y-91902381D01*
X151680952Y-92902381D02*
X151680952Y-91902381D01*
X152680953Y-92854762D02*
X152585715Y-92902381D01*
X152395238Y-92902381D01*
X152300000Y-92854762D01*
X152252381Y-92759524D01*
X152252381Y-92378571D01*
X152300000Y-92283333D01*
X152395238Y-92235714D01*
X152585715Y-92235714D01*
X152680953Y-92283333D01*
X152728572Y-92378571D01*
X152728572Y-92473810D01*
X152252381Y-92569048D01*
X153109524Y-92854762D02*
X153204762Y-92902381D01*
X153395238Y-92902381D01*
X153490477Y-92854762D01*
X153538096Y-92759524D01*
X153538096Y-92711905D01*
X153490477Y-92616667D01*
X153395238Y-92569048D01*
X153252381Y-92569048D01*
X153157143Y-92521429D01*
X153109524Y-92426190D01*
X153109524Y-92378571D01*
X153157143Y-92283333D01*
X153252381Y-92235714D01*
X153395238Y-92235714D01*
X153490477Y-92283333D01*
X154109524Y-92902381D02*
X154014286Y-92854762D01*
X153966667Y-92759524D01*
X153966667Y-91902381D01*
X154919049Y-92902381D02*
X154919049Y-92378571D01*
X154871430Y-92283333D01*
X154776192Y-92235714D01*
X154585715Y-92235714D01*
X154490477Y-92283333D01*
X154919049Y-92854762D02*
X154823811Y-92902381D01*
X154585715Y-92902381D01*
X154490477Y-92854762D01*
X154442858Y-92759524D01*
X154442858Y-92664286D01*
X154490477Y-92569048D01*
X154585715Y-92521429D01*
X154823811Y-92521429D01*
X154919049Y-92473810D01*
X155966668Y-92807143D02*
X155919049Y-92854762D01*
X155776192Y-92902381D01*
X155680954Y-92902381D01*
X155538096Y-92854762D01*
X155442858Y-92759524D01*
X155395239Y-92664286D01*
X155347620Y-92473810D01*
X155347620Y-92330952D01*
X155395239Y-92140476D01*
X155442858Y-92045238D01*
X155538096Y-91950000D01*
X155680954Y-91902381D01*
X155776192Y-91902381D01*
X155919049Y-91950000D01*
X155966668Y-91997619D01*
X156538096Y-92902381D02*
X156442858Y-92854762D01*
X156395239Y-92807143D01*
X156347620Y-92711905D01*
X156347620Y-92426190D01*
X156395239Y-92330952D01*
X156442858Y-92283333D01*
X156538096Y-92235714D01*
X156680954Y-92235714D01*
X156776192Y-92283333D01*
X156823811Y-92330952D01*
X156871430Y-92426190D01*
X156871430Y-92711905D01*
X156823811Y-92807143D01*
X156776192Y-92854762D01*
X156680954Y-92902381D01*
X156538096Y-92902381D01*
X157300001Y-92235714D02*
X157300001Y-92902381D01*
X157300001Y-92330952D02*
X157347620Y-92283333D01*
X157442858Y-92235714D01*
X157585716Y-92235714D01*
X157680954Y-92283333D01*
X157728573Y-92378571D01*
X157728573Y-92902381D01*
X158061906Y-92235714D02*
X158442858Y-92235714D01*
X158204763Y-91902381D02*
X158204763Y-92759524D01*
X158252382Y-92854762D01*
X158347620Y-92902381D01*
X158442858Y-92902381D01*
X158776192Y-92902381D02*
X158776192Y-92235714D01*
X158776192Y-92426190D02*
X158823811Y-92330952D01*
X158871430Y-92283333D01*
X158966668Y-92235714D01*
X159061907Y-92235714D01*
X159538097Y-92902381D02*
X159442859Y-92854762D01*
X159395240Y-92807143D01*
X159347621Y-92711905D01*
X159347621Y-92426190D01*
X159395240Y-92330952D01*
X159442859Y-92283333D01*
X159538097Y-92235714D01*
X159680955Y-92235714D01*
X159776193Y-92283333D01*
X159823812Y-92330952D01*
X159871431Y-92426190D01*
X159871431Y-92711905D01*
X159823812Y-92807143D01*
X159776193Y-92854762D01*
X159680955Y-92902381D01*
X159538097Y-92902381D01*
X160442859Y-92902381D02*
X160347621Y-92854762D01*
X160300002Y-92759524D01*
X160300002Y-91902381D01*
X160966669Y-92902381D02*
X160871431Y-92854762D01*
X160823812Y-92759524D01*
X160823812Y-91902381D01*
X161728575Y-92854762D02*
X161633337Y-92902381D01*
X161442860Y-92902381D01*
X161347622Y-92854762D01*
X161300003Y-92759524D01*
X161300003Y-92378571D01*
X161347622Y-92283333D01*
X161442860Y-92235714D01*
X161633337Y-92235714D01*
X161728575Y-92283333D01*
X161776194Y-92378571D01*
X161776194Y-92473810D01*
X161300003Y-92569048D01*
X162204765Y-92902381D02*
X162204765Y-92235714D01*
X162204765Y-92426190D02*
X162252384Y-92330952D01*
X162300003Y-92283333D01*
X162395241Y-92235714D01*
X162490480Y-92235714D01*
X164157147Y-92902381D02*
X163823813Y-92426190D01*
X163585718Y-92902381D02*
X163585718Y-91902381D01*
X163966671Y-91902381D01*
X164061909Y-91950000D01*
X164109528Y-91997619D01*
X164157147Y-92092857D01*
X164157147Y-92235714D01*
X164109528Y-92330952D01*
X164061909Y-92378571D01*
X163966671Y-92426190D01*
X163585718Y-92426190D01*
X164966671Y-92854762D02*
X164871433Y-92902381D01*
X164680956Y-92902381D01*
X164585718Y-92854762D01*
X164538099Y-92759524D01*
X164538099Y-92378571D01*
X164585718Y-92283333D01*
X164680956Y-92235714D01*
X164871433Y-92235714D01*
X164966671Y-92283333D01*
X165014290Y-92378571D01*
X165014290Y-92473810D01*
X164538099Y-92569048D01*
X165347623Y-92235714D02*
X165585718Y-92902381D01*
X165823814Y-92235714D01*
X167490481Y-92902381D02*
X166919052Y-92902381D01*
X167204766Y-92902381D02*
X167204766Y-91902381D01*
X167109528Y-92045238D01*
X167014290Y-92140476D01*
X166919052Y-92188095D01*
X167919052Y-92807143D02*
X167966671Y-92854762D01*
X167919052Y-92902381D01*
X167871433Y-92854762D01*
X167919052Y-92807143D01*
X167919052Y-92902381D01*
X168585718Y-91902381D02*
X168680957Y-91902381D01*
X168776195Y-91950000D01*
X168823814Y-91997619D01*
X168871433Y-92092857D01*
X168919052Y-92283333D01*
X168919052Y-92521429D01*
X168871433Y-92711905D01*
X168823814Y-92807143D01*
X168776195Y-92854762D01*
X168680957Y-92902381D01*
X168585718Y-92902381D01*
X168490480Y-92854762D01*
X168442861Y-92807143D01*
X168395242Y-92711905D01*
X168347623Y-92521429D01*
X168347623Y-92283333D01*
X168395242Y-92092857D01*
X168442861Y-91997619D01*
X168490480Y-91950000D01*
X168585718Y-91902381D01*
X151728571Y-93502381D02*
X151823810Y-93502381D01*
X151919048Y-93550000D01*
X151966667Y-93597619D01*
X152014286Y-93692857D01*
X152061905Y-93883333D01*
X152061905Y-94121429D01*
X152014286Y-94311905D01*
X151966667Y-94407143D01*
X151919048Y-94454762D01*
X151823810Y-94502381D01*
X151728571Y-94502381D01*
X151633333Y-94454762D01*
X151585714Y-94407143D01*
X151538095Y-94311905D01*
X151490476Y-94121429D01*
X151490476Y-93883333D01*
X151538095Y-93692857D01*
X151585714Y-93597619D01*
X151633333Y-93550000D01*
X151728571Y-93502381D01*
X152919048Y-93502381D02*
X152728571Y-93502381D01*
X152633333Y-93550000D01*
X152585714Y-93597619D01*
X152490476Y-93740476D01*
X152442857Y-93930952D01*
X152442857Y-94311905D01*
X152490476Y-94407143D01*
X152538095Y-94454762D01*
X152633333Y-94502381D01*
X152823810Y-94502381D01*
X152919048Y-94454762D01*
X152966667Y-94407143D01*
X153014286Y-94311905D01*
X153014286Y-94073810D01*
X152966667Y-93978571D01*
X152919048Y-93930952D01*
X152823810Y-93883333D01*
X152633333Y-93883333D01*
X152538095Y-93930952D01*
X152490476Y-93978571D01*
X152442857Y-94073810D01*
X153442857Y-94121429D02*
X154204762Y-94121429D01*
X154633333Y-93597619D02*
X154680952Y-93550000D01*
X154776190Y-93502381D01*
X155014286Y-93502381D01*
X155109524Y-93550000D01*
X155157143Y-93597619D01*
X155204762Y-93692857D01*
X155204762Y-93788095D01*
X155157143Y-93930952D01*
X154585714Y-94502381D01*
X155204762Y-94502381D01*
X155823809Y-93502381D02*
X155919048Y-93502381D01*
X156014286Y-93550000D01*
X156061905Y-93597619D01*
X156109524Y-93692857D01*
X156157143Y-93883333D01*
X156157143Y-94121429D01*
X156109524Y-94311905D01*
X156061905Y-94407143D01*
X156014286Y-94454762D01*
X155919048Y-94502381D01*
X155823809Y-94502381D01*
X155728571Y-94454762D01*
X155680952Y-94407143D01*
X155633333Y-94311905D01*
X155585714Y-94121429D01*
X155585714Y-93883333D01*
X155633333Y-93692857D01*
X155680952Y-93597619D01*
X155728571Y-93550000D01*
X155823809Y-93502381D01*
X157109524Y-94502381D02*
X156538095Y-94502381D01*
X156823809Y-94502381D02*
X156823809Y-93502381D01*
X156728571Y-93645238D01*
X156633333Y-93740476D01*
X156538095Y-93788095D01*
X157966667Y-93502381D02*
X157776190Y-93502381D01*
X157680952Y-93550000D01*
X157633333Y-93597619D01*
X157538095Y-93740476D01*
X157490476Y-93930952D01*
X157490476Y-94311905D01*
X157538095Y-94407143D01*
X157585714Y-94454762D01*
X157680952Y-94502381D01*
X157871429Y-94502381D01*
X157966667Y-94454762D01*
X158014286Y-94407143D01*
X158061905Y-94311905D01*
X158061905Y-94073810D01*
X158014286Y-93978571D01*
X157966667Y-93930952D01*
X157871429Y-93883333D01*
X157680952Y-93883333D01*
X157585714Y-93930952D01*
X157538095Y-93978571D01*
X157490476Y-94073810D01*
X151538095Y-96102381D02*
X151538095Y-95102381D01*
X152109524Y-96102381D02*
X151680952Y-95530952D01*
X152109524Y-95102381D02*
X151538095Y-95673810D01*
X152966667Y-95435714D02*
X152966667Y-96102381D01*
X152538095Y-95435714D02*
X152538095Y-95959524D01*
X152585714Y-96054762D01*
X152680952Y-96102381D01*
X152823810Y-96102381D01*
X152919048Y-96054762D01*
X152966667Y-96007143D01*
X153442857Y-96102381D02*
X153442857Y-95435714D01*
X153442857Y-95626190D02*
X153490476Y-95530952D01*
X153538095Y-95483333D01*
X153633333Y-95435714D01*
X153728572Y-95435714D01*
X153919048Y-95435714D02*
X154300000Y-95435714D01*
X154061905Y-95102381D02*
X154061905Y-95959524D01*
X154109524Y-96054762D01*
X154204762Y-96102381D01*
X154300000Y-96102381D01*
X155347620Y-96054762D02*
X155490477Y-96102381D01*
X155728573Y-96102381D01*
X155823811Y-96054762D01*
X155871430Y-96007143D01*
X155919049Y-95911905D01*
X155919049Y-95816667D01*
X155871430Y-95721429D01*
X155823811Y-95673810D01*
X155728573Y-95626190D01*
X155538096Y-95578571D01*
X155442858Y-95530952D01*
X155395239Y-95483333D01*
X155347620Y-95388095D01*
X155347620Y-95292857D01*
X155395239Y-95197619D01*
X155442858Y-95150000D01*
X155538096Y-95102381D01*
X155776192Y-95102381D01*
X155919049Y-95150000D01*
X156347620Y-96102381D02*
X156347620Y-95102381D01*
X156442858Y-95721429D02*
X156728573Y-96102381D01*
X156728573Y-95435714D02*
X156347620Y-95816667D01*
X157585716Y-96102381D02*
X157585716Y-95578571D01*
X157538097Y-95483333D01*
X157442859Y-95435714D01*
X157252382Y-95435714D01*
X157157144Y-95483333D01*
X157585716Y-96054762D02*
X157490478Y-96102381D01*
X157252382Y-96102381D01*
X157157144Y-96054762D01*
X157109525Y-95959524D01*
X157109525Y-95864286D01*
X157157144Y-95769048D01*
X157252382Y-95721429D01*
X157490478Y-95721429D01*
X157585716Y-95673810D01*
X158490478Y-95435714D02*
X158490478Y-96102381D01*
X158061906Y-95435714D02*
X158061906Y-95959524D01*
X158109525Y-96054762D01*
X158204763Y-96102381D01*
X158347621Y-96102381D01*
X158442859Y-96054762D01*
X158490478Y-96007143D01*
X159347621Y-96054762D02*
X159252383Y-96102381D01*
X159061906Y-96102381D01*
X158966668Y-96054762D01*
X158919049Y-95959524D01*
X158919049Y-95578571D01*
X158966668Y-95483333D01*
X159061906Y-95435714D01*
X159252383Y-95435714D01*
X159347621Y-95483333D01*
X159395240Y-95578571D01*
X159395240Y-95673810D01*
X158919049Y-95769048D01*
X159823811Y-95435714D02*
X159823811Y-96102381D01*
X159823811Y-95530952D02*
X159871430Y-95483333D01*
X159966668Y-95435714D01*
X160109526Y-95435714D01*
X160204764Y-95483333D01*
X160252383Y-95578571D01*
X160252383Y-96102381D01*
D12*
X166875000Y-67500000D02*
X166875000Y-68500000D01*
X165525000Y-68500000D02*
X165525000Y-67500000D01*
X186575000Y-75500000D02*
X186575000Y-74500000D01*
X187925000Y-74500000D02*
X187925000Y-75500000D01*
X184325000Y-82450000D02*
X184325000Y-81450000D01*
X185675000Y-81450000D02*
X185675000Y-82450000D01*
X159600000Y-63675000D02*
X158600000Y-63675000D01*
X158600000Y-62325000D02*
X159600000Y-62325000D01*
X162600000Y-63675000D02*
X161600000Y-63675000D01*
X161600000Y-62325000D02*
X162600000Y-62325000D01*
X131479776Y-92519556D02*
X130479776Y-92519556D01*
X130479776Y-91169556D02*
X131479776Y-91169556D01*
X130479776Y-89469556D02*
X131479776Y-89469556D01*
X131479776Y-90819556D02*
X130479776Y-90819556D01*
X130379776Y-78819556D02*
X129379776Y-78819556D01*
X129379776Y-77469556D02*
X130379776Y-77469556D01*
X129379776Y-75769556D02*
X130379776Y-75769556D01*
X130379776Y-77119556D02*
X129379776Y-77119556D01*
X190400000Y-119475000D02*
X189400000Y-119475000D01*
X189400000Y-118125000D02*
X190400000Y-118125000D01*
X138614888Y-65647278D02*
X137614888Y-65647278D01*
X137614888Y-64297278D02*
X138614888Y-64297278D01*
X137614888Y-62597278D02*
X138614888Y-62597278D01*
X138614888Y-63947278D02*
X137614888Y-63947278D01*
X191275000Y-99260000D02*
X191275000Y-100260000D01*
X189925000Y-100260000D02*
X189925000Y-99260000D01*
X190975000Y-84260000D02*
X190975000Y-85260000D01*
X189625000Y-85260000D02*
X189625000Y-84260000D01*
X167054519Y-126767121D02*
X168054519Y-126767121D01*
X168054519Y-128117121D02*
X167054519Y-128117121D01*
X163054519Y-126767121D02*
X164054519Y-126767121D01*
X164054519Y-128117121D02*
X163054519Y-128117121D01*
X159054519Y-126767121D02*
X160054519Y-126767121D01*
X160054519Y-128117121D02*
X159054519Y-128117121D01*
X155054519Y-126767121D02*
X156054519Y-126767121D01*
X156054519Y-128117121D02*
X155054519Y-128117121D01*
X151054519Y-126767121D02*
X152054519Y-126767121D01*
X152054519Y-128117121D02*
X151054519Y-128117121D01*
X171054519Y-126767121D02*
X172054519Y-126767121D01*
X172054519Y-128117121D02*
X171054519Y-128117121D01*
X175054519Y-126767121D02*
X176054519Y-126767121D01*
X176054519Y-128117121D02*
X175054519Y-128117121D01*
X167304519Y-134117121D02*
X166304519Y-134117121D01*
X166304519Y-132767121D02*
X167304519Y-132767121D01*
X163304519Y-134117121D02*
X162304519Y-134117121D01*
X162304519Y-132767121D02*
X163304519Y-132767121D01*
X159304519Y-134117121D02*
X158304519Y-134117121D01*
X158304519Y-132767121D02*
X159304519Y-132767121D01*
X155304519Y-134117121D02*
X154304519Y-134117121D01*
X154304519Y-132767121D02*
X155304519Y-132767121D01*
X151304519Y-134117121D02*
X150304519Y-134117121D01*
X150304519Y-132767121D02*
X151304519Y-132767121D01*
X171304519Y-134117121D02*
X170304519Y-134117121D01*
X170304519Y-132767121D02*
X171304519Y-132767121D01*
X175304519Y-134117121D02*
X174304519Y-134117121D01*
X174304519Y-132767121D02*
X175304519Y-132767121D01*
X151475824Y-109524652D02*
X151475824Y-108524652D01*
X152825824Y-108524652D02*
X152825824Y-109524652D01*
X151398102Y-112424652D02*
X151398102Y-111424652D01*
X152748102Y-111424652D02*
X152748102Y-112424652D01*
X149125824Y-111424652D02*
X149125824Y-112424652D01*
X147775824Y-112424652D02*
X147775824Y-111424652D01*
X139125000Y-85300000D02*
X139125000Y-84300000D01*
X140475000Y-84300000D02*
X140475000Y-85300000D01*
X151675000Y-82400000D02*
X151675000Y-83400000D01*
X150325000Y-83400000D02*
X150325000Y-82400000D01*
X150325000Y-86100000D02*
X150325000Y-85100000D01*
X151675000Y-85100000D02*
X151675000Y-86100000D01*
X175850000Y-80600000D02*
X175150000Y-80600000D01*
X175150000Y-79400000D02*
X175850000Y-79400000D01*
X153743887Y-116616741D02*
X153743887Y-115916741D01*
X154943887Y-115916741D02*
X154943887Y-116616741D01*
X131329776Y-89044556D02*
X130629776Y-89044556D01*
X130629776Y-87844556D02*
X131329776Y-87844556D01*
X167493887Y-100566741D02*
X168193887Y-100566741D01*
X168193887Y-101766741D02*
X167493887Y-101766741D01*
X175300000Y-106150000D02*
X175300000Y-106850000D01*
X174100000Y-106850000D02*
X174100000Y-106150000D01*
X175000000Y-115950000D02*
X175000000Y-116650000D01*
X173800000Y-116650000D02*
X173800000Y-115950000D01*
X171643887Y-96716741D02*
X171643887Y-97416741D01*
X170443887Y-97416741D02*
X170443887Y-96716741D01*
X130229776Y-75344556D02*
X129529776Y-75344556D01*
X129529776Y-74144556D02*
X130229776Y-74144556D01*
X165193887Y-121866741D02*
X164493887Y-121866741D01*
X164493887Y-120666741D02*
X165193887Y-120666741D01*
X167593887Y-98866741D02*
X168293887Y-98866741D01*
X168293887Y-100066741D02*
X167593887Y-100066741D01*
X161493887Y-100566741D02*
X162193887Y-100566741D01*
X162193887Y-101766741D02*
X161493887Y-101766741D01*
X138464888Y-62172278D02*
X137764888Y-62172278D01*
X137764888Y-60972278D02*
X138464888Y-60972278D01*
X189900000Y-103710000D02*
X189900000Y-103010000D01*
X191100000Y-103010000D02*
X191100000Y-103710000D01*
X189800000Y-88510000D02*
X189800000Y-87810000D01*
X191000000Y-87810000D02*
X191000000Y-88510000D01*
X142600000Y-84550000D02*
X142600000Y-85250000D01*
X141400000Y-85250000D02*
X141400000Y-84550000D01*
X149750824Y-112324652D02*
X149750824Y-111624652D01*
X150950824Y-111624652D02*
X150950824Y-112324652D01*
X140150000Y-79700000D02*
X139450000Y-79700000D01*
X139450000Y-78500000D02*
X140150000Y-78500000D01*
X166185308Y-98266741D02*
G75*
G03X166185308Y-98266741I-141421J0D01*
G01*
X166343887Y-95366741D02*
X169543887Y-95366741D01*
X169543887Y-95366741D02*
X169543887Y-97966741D01*
X169543887Y-97966741D02*
X166343887Y-97966741D01*
X166343887Y-97966741D02*
X166343887Y-95366741D01*
X148699824Y-107375492D02*
X148699824Y-107423752D01*
X149400864Y-110174472D02*
X148699824Y-110174472D01*
X148699824Y-110174472D02*
X148699824Y-109925552D01*
X148699824Y-107375492D02*
X148699824Y-107174832D01*
X148699824Y-107174832D02*
X149400864Y-107174832D01*
X182556000Y-91226000D02*
X182556000Y-88178000D01*
X182556000Y-88178000D02*
X175444000Y-88178000D01*
X175444000Y-88178000D02*
X175444000Y-91226000D01*
X182556000Y-94274000D02*
X182556000Y-95036000D01*
X182556000Y-95036000D02*
X181032000Y-97322000D01*
X181032000Y-97322000D02*
X176968000Y-97322000D01*
X176968000Y-97322000D02*
X175444000Y-95036000D01*
X175444000Y-95036000D02*
X175444000Y-94274000D01*
X161556000Y-81476000D02*
X161556000Y-78428000D01*
X161556000Y-78428000D02*
X154444000Y-78428000D01*
X154444000Y-78428000D02*
X154444000Y-81476000D01*
X161556000Y-84524000D02*
X161556000Y-85286000D01*
X161556000Y-85286000D02*
X160032000Y-87572000D01*
X160032000Y-87572000D02*
X155968000Y-87572000D01*
X155968000Y-87572000D02*
X154444000Y-85286000D01*
X154444000Y-85286000D02*
X154444000Y-84524000D01*
X161556000Y-67174000D02*
X161556000Y-64126000D01*
X161556000Y-64126000D02*
X154444000Y-64126000D01*
X154444000Y-64126000D02*
X154444000Y-67174000D01*
X161556000Y-70222000D02*
X161556000Y-70984000D01*
X161556000Y-70984000D02*
X160032000Y-73270000D01*
X160032000Y-73270000D02*
X155968000Y-73270000D01*
X155968000Y-73270000D02*
X154444000Y-70984000D01*
X154444000Y-70984000D02*
X154444000Y-70222000D01*
X174255359Y-131092361D02*
X174303619Y-131092361D01*
X177054339Y-130391321D02*
X177054339Y-131092361D01*
X177054339Y-131092361D02*
X176805419Y-131092361D01*
X174255359Y-131092361D02*
X174054699Y-131092361D01*
X174054699Y-131092361D02*
X174054699Y-130391321D01*
X170255359Y-131092361D02*
X170303619Y-131092361D01*
X173054339Y-130391321D02*
X173054339Y-131092361D01*
X173054339Y-131092361D02*
X172805419Y-131092361D01*
X170255359Y-131092361D02*
X170054699Y-131092361D01*
X170054699Y-131092361D02*
X170054699Y-130391321D01*
X150255359Y-131092361D02*
X150303619Y-131092361D01*
X153054339Y-130391321D02*
X153054339Y-131092361D01*
X153054339Y-131092361D02*
X152805419Y-131092361D01*
X150255359Y-131092361D02*
X150054699Y-131092361D01*
X150054699Y-131092361D02*
X150054699Y-130391321D01*
X154305359Y-131093121D02*
X154353619Y-131093121D01*
X157104339Y-130392081D02*
X157104339Y-131093121D01*
X157104339Y-131093121D02*
X156855419Y-131093121D01*
X154305359Y-131093121D02*
X154104699Y-131093121D01*
X154104699Y-131093121D02*
X154104699Y-130392081D01*
X158255359Y-131092361D02*
X158303619Y-131092361D01*
X161054339Y-130391321D02*
X161054339Y-131092361D01*
X161054339Y-131092361D02*
X160805419Y-131092361D01*
X158255359Y-131092361D02*
X158054699Y-131092361D01*
X158054699Y-131092361D02*
X158054699Y-130391321D01*
X162255359Y-131092361D02*
X162303619Y-131092361D01*
X165054339Y-130391321D02*
X165054339Y-131092361D01*
X165054339Y-131092361D02*
X164805419Y-131092361D01*
X162255359Y-131092361D02*
X162054699Y-131092361D01*
X162054699Y-131092361D02*
X162054699Y-130391321D01*
X166255359Y-131092361D02*
X166303619Y-131092361D01*
X169054339Y-130391321D02*
X169054339Y-131092361D01*
X169054339Y-131092361D02*
X168805419Y-131092361D01*
X166255359Y-131092361D02*
X166054699Y-131092361D01*
X166054699Y-131092361D02*
X166054699Y-130391321D01*
X190150240Y-82559160D02*
X190150240Y-82510900D01*
X189449200Y-79760180D02*
X190150240Y-79760180D01*
X190150240Y-79760180D02*
X190150240Y-80009100D01*
X190150240Y-82559160D02*
X190150240Y-82759820D01*
X190150240Y-82759820D02*
X189449200Y-82759820D01*
X190050240Y-96359160D02*
X190050240Y-96310900D01*
X189349200Y-93560180D02*
X190050240Y-93560180D01*
X190050240Y-93560180D02*
X190050240Y-93809100D01*
X190050240Y-96359160D02*
X190050240Y-96559820D01*
X190050240Y-96559820D02*
X189349200Y-96559820D01*
X138430000Y-82550000D02*
X138430000Y-87630000D01*
X138710000Y-90450000D02*
X138710000Y-88900000D01*
X135890000Y-90170000D02*
X135890000Y-87630000D01*
X135890000Y-87630000D02*
X138430000Y-87630000D01*
X138430000Y-82550000D02*
X133350000Y-82550000D01*
X133350000Y-82550000D02*
X133350000Y-87630000D01*
X138710000Y-90450000D02*
X137160000Y-90450000D01*
X133350000Y-90170000D02*
X135890000Y-90170000D01*
X133350000Y-87630000D02*
X133350000Y-90170000D01*
X146744888Y-88900000D02*
X146744888Y-90450000D01*
X146744888Y-90450000D02*
X149844888Y-90450000D01*
X149844888Y-90450000D02*
X149844888Y-88900000D01*
X147024888Y-87630000D02*
X147024888Y-82550000D01*
X147024888Y-82550000D02*
X149564888Y-82550000D01*
X149564888Y-82550000D02*
X149564888Y-87630000D01*
X149564888Y-87630000D02*
X147024888Y-87630000D01*
X143230000Y-88900000D02*
X143230000Y-90450000D01*
X143230000Y-90450000D02*
X146330000Y-90450000D01*
X146330000Y-90450000D02*
X146330000Y-88900000D01*
X143510000Y-87630000D02*
X143510000Y-82550000D01*
X143510000Y-82550000D02*
X146050000Y-82550000D01*
X146050000Y-82550000D02*
X146050000Y-87630000D01*
X146050000Y-87630000D02*
X143510000Y-87630000D01*
X146466000Y-101600000D02*
X146466000Y-100050000D01*
X146466000Y-100050000D02*
X143366000Y-100050000D01*
X143366000Y-100050000D02*
X143366000Y-101600000D01*
X146186000Y-102870000D02*
X146186000Y-107950000D01*
X146186000Y-107950000D02*
X143646000Y-107950000D01*
X143646000Y-107950000D02*
X143646000Y-102870000D01*
X143646000Y-102870000D02*
X146186000Y-102870000D01*
X176530000Y-135890000D02*
X161290000Y-135890000D01*
X163830000Y-140970000D02*
X176530000Y-140970000D01*
X176530000Y-135890000D02*
X176530000Y-140970000D01*
X161290000Y-135890000D02*
X161290000Y-138430000D01*
X162560000Y-141250000D02*
X161010000Y-141250000D01*
X161290000Y-138430000D02*
X163830000Y-138430000D01*
X163830000Y-138430000D02*
X163830000Y-140970000D01*
X161010000Y-141250000D02*
X161010000Y-139700000D01*
X148590000Y-140970000D02*
X156210000Y-140970000D01*
X156210000Y-140970000D02*
X156210000Y-135890000D01*
X156210000Y-135890000D02*
X146050000Y-135890000D01*
X146050000Y-135890000D02*
X146050000Y-138430000D01*
X147320000Y-141250000D02*
X145770000Y-141250000D01*
X146050000Y-138430000D02*
X148590000Y-138430000D01*
X148590000Y-138430000D02*
X148590000Y-140970000D01*
X145770000Y-141250000D02*
X145770000Y-139700000D01*
X179600000Y-146799000D02*
X190100000Y-146799000D01*
X190799000Y-147500000D02*
X194300000Y-147500000D01*
X179600000Y-141753000D02*
X179600000Y-134451000D01*
X194300000Y-134451000D02*
X194300000Y-141753000D01*
X192826000Y-133000000D02*
X189809000Y-133000000D01*
X190799000Y-147500000D02*
X190100000Y-146799000D01*
X179600000Y-146799000D02*
X179600000Y-144452000D01*
X194300000Y-144521000D02*
X194300000Y-147500000D01*
X191770000Y-87630000D02*
X191770000Y-80010000D01*
X194310000Y-87630000D02*
X194310000Y-80010000D01*
X194590000Y-90450000D02*
X194590000Y-88900000D01*
X191770000Y-80010000D02*
X194310000Y-80010000D01*
X194310000Y-87630000D02*
X191770000Y-87630000D01*
X191490000Y-88900000D02*
X191490000Y-90450000D01*
X191490000Y-90450000D02*
X194590000Y-90450000D01*
X191770000Y-102870000D02*
X191770000Y-95250000D01*
X194310000Y-102870000D02*
X194310000Y-95250000D01*
X194590000Y-105690000D02*
X194590000Y-104140000D01*
X191770000Y-95250000D02*
X194310000Y-95250000D01*
X194310000Y-102870000D02*
X191770000Y-102870000D01*
X191490000Y-104140000D02*
X191490000Y-105690000D01*
X191490000Y-105690000D02*
X194590000Y-105690000D01*
X138430000Y-74930000D02*
X138430000Y-67310000D01*
X138430000Y-67310000D02*
X133350000Y-67310000D01*
X133350000Y-67310000D02*
X133350000Y-77470000D01*
X133350000Y-77470000D02*
X135890000Y-77470000D01*
X138710000Y-76200000D02*
X138710000Y-77750000D01*
X135890000Y-77470000D02*
X135890000Y-74930000D01*
X135890000Y-74930000D02*
X138430000Y-74930000D01*
X138710000Y-77750000D02*
X137160000Y-77750000D01*
X188500000Y-121001000D02*
X188500000Y-117713000D01*
X187811000Y-121001000D02*
X188500000Y-121001000D01*
X183683000Y-121001000D02*
X184317000Y-121001000D01*
X179872000Y-121001000D02*
X179500000Y-121001000D01*
X179500000Y-117736000D02*
X179500000Y-121001000D01*
X187309009Y-118312939D02*
G75*
G03X180722000Y-118326000I-3309009J7812939D01*
G01*
X187000000Y-110500000D02*
G75*
G03X187000000Y-110500000I-3000000J0D01*
G01*
X135890000Y-123190000D02*
X135890000Y-130810000D01*
X133350000Y-123190000D02*
X133350000Y-130810000D01*
X133070000Y-120370000D02*
X133070000Y-121920000D01*
X135890000Y-130810000D02*
X133350000Y-130810000D01*
X133350000Y-123190000D02*
X135890000Y-123190000D01*
X136170000Y-121920000D02*
X136170000Y-120370000D01*
X136170000Y-120370000D02*
X133070000Y-120370000D01*
X133350000Y-135890000D02*
X138430000Y-135890000D01*
X141250000Y-135610000D02*
X139700000Y-135610000D01*
X140970000Y-138430000D02*
X138430000Y-138430000D01*
X138430000Y-138430000D02*
X138430000Y-135890000D01*
X133350000Y-135890000D02*
X133350000Y-140970000D01*
X133350000Y-140970000D02*
X138430000Y-140970000D01*
X141250000Y-135610000D02*
X141250000Y-137160000D01*
X140970000Y-140970000D02*
X140970000Y-138430000D01*
X138430000Y-140970000D02*
X140970000Y-140970000D01*
X158750000Y-59690000D02*
X153670000Y-59690000D01*
X150850000Y-59970000D02*
X152400000Y-59970000D01*
X151130000Y-57150000D02*
X153670000Y-57150000D01*
X153670000Y-57150000D02*
X153670000Y-59690000D01*
X158750000Y-59690000D02*
X158750000Y-54610000D01*
X158750000Y-54610000D02*
X153670000Y-54610000D01*
X150850000Y-59970000D02*
X150850000Y-58420000D01*
X151130000Y-54610000D02*
X151130000Y-57150000D01*
X153670000Y-54610000D02*
X151130000Y-54610000D01*
X161543887Y-97591741D02*
X163543887Y-97591741D01*
X163543887Y-99741741D02*
X161543887Y-99741741D01*
X157568887Y-104191741D02*
X157568887Y-104866741D01*
X171918887Y-104191741D02*
X171918887Y-104866741D01*
X171918887Y-118541741D02*
X171918887Y-117866741D01*
X157568887Y-118541741D02*
X157568887Y-117866741D01*
X157568887Y-104191741D02*
X158243887Y-104191741D01*
X157568887Y-118541741D02*
X158243887Y-118541741D01*
X171918887Y-118541741D02*
X171243887Y-118541741D01*
X171918887Y-104191741D02*
X171243887Y-104191741D01*
X157568887Y-104866741D02*
X156293887Y-104866741D01*
X139700840Y-82251000D02*
X139749100Y-82251000D01*
X142499820Y-81549960D02*
X142499820Y-82251000D01*
X142499820Y-82251000D02*
X142250900Y-82251000D01*
X139700840Y-82251000D02*
X139500180Y-82251000D01*
X139500180Y-82251000D02*
X139500180Y-81549960D01*
X139695728Y-88722518D02*
X139743988Y-88722518D01*
X142494708Y-88021478D02*
X142494708Y-88722518D01*
X142494708Y-88722518D02*
X142245788Y-88722518D01*
X139695728Y-88722518D02*
X139495068Y-88722518D01*
X139495068Y-88722518D02*
X139495068Y-88021478D01*
X171750000Y-82000000D02*
X171750000Y-81750000D01*
X171750000Y-82500000D02*
X171750000Y-82750000D01*
X171750000Y-82500000D02*
X171400000Y-82000000D01*
X171400000Y-82000000D02*
X172100000Y-82000000D01*
X172100000Y-82000000D02*
X171750000Y-82500000D01*
X171400000Y-82500000D02*
X172100000Y-82500000D01*
X172550000Y-83550000D02*
X172550000Y-81150000D01*
X170950000Y-83550000D02*
X170950000Y-81150000D01*
X179286000Y-84635000D02*
X179286000Y-83238000D01*
X179159000Y-84889000D02*
X179159000Y-83111000D01*
X179032000Y-85270000D02*
X179032000Y-82730000D01*
X178905000Y-82603000D02*
X178905000Y-85397000D01*
X178778000Y-85524000D02*
X178778000Y-82476000D01*
X178651000Y-82349000D02*
X178651000Y-85651000D01*
X178524000Y-85778000D02*
X178524000Y-82222000D01*
X179667000Y-86667000D02*
X175095000Y-86667000D01*
X175095000Y-86667000D02*
X174333000Y-85905000D01*
X174333000Y-85905000D02*
X174333000Y-82095000D01*
X174333000Y-82095000D02*
X175095000Y-81333000D01*
X175095000Y-81333000D02*
X179667000Y-81333000D01*
X179667000Y-81333000D02*
X179667000Y-86667000D01*
X174841000Y-84000000D02*
X175603000Y-84000000D01*
X175222000Y-84381000D02*
X175222000Y-83619000D01*
X179413000Y-84000000D02*
G75*
G03X179413000Y-84000000I-2413000J0D01*
G01*
X166314000Y-87765000D02*
X166314000Y-89162000D01*
X166441000Y-87511000D02*
X166441000Y-89289000D01*
X166568000Y-87130000D02*
X166568000Y-89670000D01*
X166695000Y-89797000D02*
X166695000Y-87003000D01*
X166822000Y-86876000D02*
X166822000Y-89924000D01*
X166949000Y-90051000D02*
X166949000Y-86749000D01*
X167076000Y-86622000D02*
X167076000Y-90178000D01*
X165933000Y-85733000D02*
X170505000Y-85733000D01*
X170505000Y-85733000D02*
X171267000Y-86495000D01*
X171267000Y-86495000D02*
X171267000Y-90305000D01*
X171267000Y-90305000D02*
X170505000Y-91067000D01*
X170505000Y-91067000D02*
X165933000Y-91067000D01*
X165933000Y-91067000D02*
X165933000Y-85733000D01*
X170759000Y-88400000D02*
X169997000Y-88400000D01*
X170378000Y-88019000D02*
X170378000Y-88781000D01*
X171013000Y-88400000D02*
G75*
G03X171013000Y-88400000I-2413000J0D01*
G01*
X144238000Y-77921000D02*
X145762000Y-77921000D01*
X146143000Y-77794000D02*
X143857000Y-77794000D01*
X143603000Y-77667000D02*
X146397000Y-77667000D01*
X146651000Y-77540000D02*
X143349000Y-77540000D01*
X143222000Y-77413000D02*
X146778000Y-77413000D01*
X141698000Y-78302000D02*
X148302000Y-78302000D01*
X148302000Y-78302000D02*
X148302000Y-72460000D01*
X148302000Y-72460000D02*
X147540000Y-71698000D01*
X147540000Y-71698000D02*
X142460000Y-71698000D01*
X142460000Y-71698000D02*
X141698000Y-72460000D01*
X141698000Y-72460000D02*
X141698000Y-78302000D01*
X145000000Y-72841000D02*
X145000000Y-73603000D01*
X144619000Y-73222000D02*
X145381000Y-73222000D01*
X148048000Y-75000000D02*
G75*
G03X148048000Y-75000000I-3048000J0D01*
G01*
X142079000Y-57238000D02*
X142079000Y-58762000D01*
X142206000Y-59143000D02*
X142206000Y-56857000D01*
X142333000Y-56603000D02*
X142333000Y-59397000D01*
X142460000Y-59651000D02*
X142460000Y-56349000D01*
X142587000Y-56222000D02*
X142587000Y-59778000D01*
X141698000Y-54698000D02*
X141698000Y-61302000D01*
X141698000Y-61302000D02*
X147540000Y-61302000D01*
X147540000Y-61302000D02*
X148302000Y-60540000D01*
X148302000Y-60540000D02*
X148302000Y-55460000D01*
X148302000Y-55460000D02*
X147540000Y-54698000D01*
X147540000Y-54698000D02*
X141698000Y-54698000D01*
X147159000Y-58000000D02*
X146397000Y-58000000D01*
X146778000Y-57619000D02*
X146778000Y-58381000D01*
X148048000Y-58000000D02*
G75*
G03X148048000Y-58000000I-3048000J0D01*
G01*
X184450000Y-130100000D02*
X185150000Y-130100000D01*
X185150000Y-131300000D02*
X184450000Y-131300000D01*
X141254640Y-124880360D02*
X141254640Y-125642360D01*
X140746640Y-124880360D02*
X140746640Y-125642360D01*
X141254640Y-122848360D02*
G75*
G03X139349640Y-124245360I-254000J-1651000D01*
G01*
X142651640Y-124372360D02*
G75*
G03X140873640Y-122848360I-1651000J-127000D01*
G01*
X139603640Y-123610360D02*
G75*
G03X140111640Y-125896360I1397000J-889000D01*
G01*
X141889640Y-125896360D02*
G75*
G03X142397640Y-123610360I-889000J1397000D01*
G01*
X144302640Y-120689360D02*
X144302640Y-120816360D01*
X144302640Y-124499360D02*
X144302640Y-123102360D01*
X137698640Y-120689360D02*
X137698640Y-120816360D01*
X137698640Y-124499360D02*
X137698640Y-123102360D01*
X142143640Y-121578360D02*
X141762640Y-121451360D01*
X141762640Y-121451360D02*
X141000640Y-121324360D01*
X141000640Y-121324360D02*
X140238640Y-121451360D01*
X140238640Y-121451360D02*
X139857640Y-121578360D01*
X142270640Y-122467360D02*
X139730640Y-122467360D01*
X138079640Y-123229360D02*
G75*
G03X139730640Y-127420360I2921000J-1270000D01*
G01*
X142270640Y-127420360D02*
G75*
G03X143921640Y-123229360I-1270000J2921000D01*
G01*
X138968640Y-127801360D02*
X139857640Y-127801360D01*
X142143640Y-127801360D02*
X143032640Y-127801360D01*
X139349640Y-124880360D02*
X138841640Y-124880360D01*
X138841640Y-124880360D02*
X138841640Y-124118360D01*
X138841640Y-124118360D02*
X139349640Y-124118360D01*
X142651640Y-124880360D02*
X143159640Y-124880360D01*
X143159640Y-124880360D02*
X143159640Y-124118360D01*
X143159640Y-124118360D02*
X142651640Y-124118360D01*
X140492640Y-124245360D02*
X139349640Y-124245360D01*
X140492640Y-124753360D02*
X139349640Y-124753360D01*
X141508640Y-124245360D02*
X142651640Y-124245360D01*
X141508640Y-124753360D02*
X142651640Y-124753360D01*
X140746640Y-124118360D02*
X140746640Y-122848360D01*
X141254640Y-124118360D02*
X141254640Y-122848360D01*
X141508640Y-124880360D02*
X141508640Y-124118360D01*
X141508640Y-124118360D02*
X140492640Y-124118360D01*
X140492640Y-124118360D02*
X140492640Y-124880360D01*
X140492640Y-124880360D02*
X141508640Y-124880360D01*
X143032640Y-127801360D02*
X144302640Y-126404360D01*
X144302640Y-126404360D02*
X144302640Y-124499360D01*
X138968640Y-127801360D02*
X137698640Y-126404360D01*
X137698640Y-126404360D02*
X137698640Y-124499360D01*
X137952640Y-120689360D02*
X137952640Y-120435360D01*
X137952640Y-120435360D02*
X139095640Y-120435360D01*
X139095640Y-120435360D02*
X139095640Y-120689360D01*
X144048640Y-120689360D02*
X144048640Y-120435360D01*
X144048640Y-120435360D02*
X142905640Y-120435360D01*
X142905640Y-120435360D02*
X142905640Y-120689360D01*
X144302640Y-120689360D02*
X137698640Y-120689360D01*
X152000000Y-88900000D02*
X164000000Y-88900000D01*
X152000000Y-85300000D02*
X164000000Y-85300000D01*
X152000000Y-80900000D02*
X164000000Y-80900000D01*
X152000000Y-77300000D02*
X164000000Y-77300000D01*
X152000000Y-85100000D02*
X164000000Y-85100000D01*
X152000000Y-81100000D02*
X164000000Y-81100000D01*
X152000000Y-89100000D02*
X152000000Y-77100000D01*
X164000000Y-89100000D02*
X152000000Y-89100000D01*
X164000000Y-77100000D02*
X164000000Y-89100000D01*
X152000000Y-77100000D02*
X164000000Y-77100000D01*
X152000000Y-74800000D02*
X164000000Y-74800000D01*
X152000000Y-71200000D02*
X164000000Y-71200000D01*
X152000000Y-66800000D02*
X164000000Y-66800000D01*
X152000000Y-63200000D02*
X164000000Y-63200000D01*
X152000000Y-71000000D02*
X164000000Y-71000000D01*
X152000000Y-67000000D02*
X164000000Y-67000000D01*
X152000000Y-75000000D02*
X152000000Y-63000000D01*
X164000000Y-75000000D02*
X152000000Y-75000000D01*
X164000000Y-63000000D02*
X164000000Y-75000000D01*
X152000000Y-63000000D02*
X164000000Y-63000000D01*
X173400000Y-99200000D02*
X185400000Y-99200000D01*
X173400000Y-95600000D02*
X185400000Y-95600000D01*
X173400000Y-91200000D02*
X185400000Y-91200000D01*
X173400000Y-87600000D02*
X185400000Y-87600000D01*
X173400000Y-95400000D02*
X185400000Y-95400000D01*
X173400000Y-91400000D02*
X185400000Y-91400000D01*
X173400000Y-99400000D02*
X173400000Y-87400000D01*
X185400000Y-99400000D02*
X173400000Y-99400000D01*
X185400000Y-87400000D02*
X185400000Y-99400000D01*
X173400000Y-87400000D02*
X185400000Y-87400000D01*
X133070000Y-60960000D02*
X133070000Y-62510000D01*
X133070000Y-62510000D02*
X136170000Y-62510000D01*
X136170000Y-62510000D02*
X136170000Y-60960000D01*
X133350000Y-59690000D02*
X133350000Y-54610000D01*
X133350000Y-54610000D02*
X135890000Y-54610000D01*
X135890000Y-54610000D02*
X135890000Y-59690000D01*
X135890000Y-59690000D02*
X133350000Y-59690000D01*
X133335570Y-95250000D02*
X133335570Y-115570000D01*
X138415570Y-113030000D02*
X138415570Y-95250000D01*
X133335570Y-95250000D02*
X138415570Y-95250000D01*
X133335570Y-115570000D02*
X135875570Y-115570000D01*
X138695570Y-114300000D02*
X138695570Y-115850000D01*
X135875570Y-115570000D02*
X135875570Y-113030000D01*
X135875570Y-113030000D02*
X138415570Y-113030000D01*
X138695570Y-115850000D02*
X137145570Y-115850000D01*
X166452381Y-70966666D02*
X165976190Y-71300000D01*
X166452381Y-71538095D02*
X165452381Y-71538095D01*
X165452381Y-71157142D01*
X165500000Y-71061904D01*
X165547619Y-71014285D01*
X165642857Y-70966666D01*
X165785714Y-70966666D01*
X165880952Y-71014285D01*
X165928571Y-71061904D01*
X165976190Y-71157142D01*
X165976190Y-71538095D01*
X166452381Y-70014285D02*
X166452381Y-70585714D01*
X166452381Y-70300000D02*
X165452381Y-70300000D01*
X165595238Y-70395238D01*
X165690476Y-70490476D01*
X165738095Y-70585714D01*
X187652381Y-77766666D02*
X187176190Y-78100000D01*
X187652381Y-78338095D02*
X186652381Y-78338095D01*
X186652381Y-77957142D01*
X186700000Y-77861904D01*
X186747619Y-77814285D01*
X186842857Y-77766666D01*
X186985714Y-77766666D01*
X187080952Y-77814285D01*
X187128571Y-77861904D01*
X187176190Y-77957142D01*
X187176190Y-78338095D01*
X186747619Y-77385714D02*
X186700000Y-77338095D01*
X186652381Y-77242857D01*
X186652381Y-77004761D01*
X186700000Y-76909523D01*
X186747619Y-76861904D01*
X186842857Y-76814285D01*
X186938095Y-76814285D01*
X187080952Y-76861904D01*
X187652381Y-77433333D01*
X187652381Y-76814285D01*
X185452381Y-84666666D02*
X184976190Y-85000000D01*
X185452381Y-85238095D02*
X184452381Y-85238095D01*
X184452381Y-84857142D01*
X184500000Y-84761904D01*
X184547619Y-84714285D01*
X184642857Y-84666666D01*
X184785714Y-84666666D01*
X184880952Y-84714285D01*
X184928571Y-84761904D01*
X184976190Y-84857142D01*
X184976190Y-85238095D01*
X184452381Y-84333333D02*
X184452381Y-83714285D01*
X184833333Y-84047619D01*
X184833333Y-83904761D01*
X184880952Y-83809523D01*
X184928571Y-83761904D01*
X185023810Y-83714285D01*
X185261905Y-83714285D01*
X185357143Y-83761904D01*
X185404762Y-83809523D01*
X185452381Y-83904761D01*
X185452381Y-84190476D01*
X185404762Y-84285714D01*
X185357143Y-84333333D01*
X158933334Y-61552381D02*
X158600000Y-61076190D01*
X158361905Y-61552381D02*
X158361905Y-60552381D01*
X158742858Y-60552381D01*
X158838096Y-60600000D01*
X158885715Y-60647619D01*
X158933334Y-60742857D01*
X158933334Y-60885714D01*
X158885715Y-60980952D01*
X158838096Y-61028571D01*
X158742858Y-61076190D01*
X158361905Y-61076190D01*
X159790477Y-60885714D02*
X159790477Y-61552381D01*
X159552381Y-60504762D02*
X159314286Y-61219048D01*
X159933334Y-61219048D01*
X161933334Y-61552381D02*
X161600000Y-61076190D01*
X161361905Y-61552381D02*
X161361905Y-60552381D01*
X161742858Y-60552381D01*
X161838096Y-60600000D01*
X161885715Y-60647619D01*
X161933334Y-60742857D01*
X161933334Y-60885714D01*
X161885715Y-60980952D01*
X161838096Y-61028571D01*
X161742858Y-61076190D01*
X161361905Y-61076190D01*
X162838096Y-60552381D02*
X162361905Y-60552381D01*
X162314286Y-61028571D01*
X162361905Y-60980952D01*
X162457143Y-60933333D01*
X162695239Y-60933333D01*
X162790477Y-60980952D01*
X162838096Y-61028571D01*
X162885715Y-61123810D01*
X162885715Y-61361905D01*
X162838096Y-61457143D01*
X162790477Y-61504762D01*
X162695239Y-61552381D01*
X162457143Y-61552381D01*
X162361905Y-61504762D01*
X162314286Y-61457143D01*
X133633334Y-92352381D02*
X133300000Y-91876190D01*
X133061905Y-92352381D02*
X133061905Y-91352381D01*
X133442858Y-91352381D01*
X133538096Y-91400000D01*
X133585715Y-91447619D01*
X133633334Y-91542857D01*
X133633334Y-91685714D01*
X133585715Y-91780952D01*
X133538096Y-91828571D01*
X133442858Y-91876190D01*
X133061905Y-91876190D01*
X134490477Y-91352381D02*
X134300000Y-91352381D01*
X134204762Y-91400000D01*
X134157143Y-91447619D01*
X134061905Y-91590476D01*
X134014286Y-91780952D01*
X134014286Y-92161905D01*
X134061905Y-92257143D01*
X134109524Y-92304762D01*
X134204762Y-92352381D01*
X134395239Y-92352381D01*
X134490477Y-92304762D01*
X134538096Y-92257143D01*
X134585715Y-92161905D01*
X134585715Y-91923810D01*
X134538096Y-91828571D01*
X134490477Y-91780952D01*
X134395239Y-91733333D01*
X134204762Y-91733333D01*
X134109524Y-91780952D01*
X134061905Y-91828571D01*
X134014286Y-91923810D01*
X128233334Y-90652381D02*
X127900000Y-90176190D01*
X127661905Y-90652381D02*
X127661905Y-89652381D01*
X128042858Y-89652381D01*
X128138096Y-89700000D01*
X128185715Y-89747619D01*
X128233334Y-89842857D01*
X128233334Y-89985714D01*
X128185715Y-90080952D01*
X128138096Y-90128571D01*
X128042858Y-90176190D01*
X127661905Y-90176190D01*
X128566667Y-89652381D02*
X129233334Y-89652381D01*
X128804762Y-90652381D01*
X128933334Y-80352381D02*
X128600000Y-79876190D01*
X128361905Y-80352381D02*
X128361905Y-79352381D01*
X128742858Y-79352381D01*
X128838096Y-79400000D01*
X128885715Y-79447619D01*
X128933334Y-79542857D01*
X128933334Y-79685714D01*
X128885715Y-79780952D01*
X128838096Y-79828571D01*
X128742858Y-79876190D01*
X128361905Y-79876190D01*
X129504762Y-79780952D02*
X129409524Y-79733333D01*
X129361905Y-79685714D01*
X129314286Y-79590476D01*
X129314286Y-79542857D01*
X129361905Y-79447619D01*
X129409524Y-79400000D01*
X129504762Y-79352381D01*
X129695239Y-79352381D01*
X129790477Y-79400000D01*
X129838096Y-79447619D01*
X129885715Y-79542857D01*
X129885715Y-79590476D01*
X129838096Y-79685714D01*
X129790477Y-79733333D01*
X129695239Y-79780952D01*
X129504762Y-79780952D01*
X129409524Y-79828571D01*
X129361905Y-79876190D01*
X129314286Y-79971429D01*
X129314286Y-80161905D01*
X129361905Y-80257143D01*
X129409524Y-80304762D01*
X129504762Y-80352381D01*
X129695239Y-80352381D01*
X129790477Y-80304762D01*
X129838096Y-80257143D01*
X129885715Y-80161905D01*
X129885715Y-79971429D01*
X129838096Y-79876190D01*
X129790477Y-79828571D01*
X129695239Y-79780952D01*
X132033334Y-76952381D02*
X131700000Y-76476190D01*
X131461905Y-76952381D02*
X131461905Y-75952381D01*
X131842858Y-75952381D01*
X131938096Y-76000000D01*
X131985715Y-76047619D01*
X132033334Y-76142857D01*
X132033334Y-76285714D01*
X131985715Y-76380952D01*
X131938096Y-76428571D01*
X131842858Y-76476190D01*
X131461905Y-76476190D01*
X132509524Y-76952381D02*
X132700000Y-76952381D01*
X132795239Y-76904762D01*
X132842858Y-76857143D01*
X132938096Y-76714286D01*
X132985715Y-76523810D01*
X132985715Y-76142857D01*
X132938096Y-76047619D01*
X132890477Y-76000000D01*
X132795239Y-75952381D01*
X132604762Y-75952381D01*
X132509524Y-76000000D01*
X132461905Y-76047619D01*
X132414286Y-76142857D01*
X132414286Y-76380952D01*
X132461905Y-76476190D01*
X132509524Y-76523810D01*
X132604762Y-76571429D01*
X132795239Y-76571429D01*
X132890477Y-76523810D01*
X132938096Y-76476190D01*
X132985715Y-76380952D01*
X192257143Y-119252381D02*
X191923809Y-118776190D01*
X191685714Y-119252381D02*
X191685714Y-118252381D01*
X192066667Y-118252381D01*
X192161905Y-118300000D01*
X192209524Y-118347619D01*
X192257143Y-118442857D01*
X192257143Y-118585714D01*
X192209524Y-118680952D01*
X192161905Y-118728571D01*
X192066667Y-118776190D01*
X191685714Y-118776190D01*
X193209524Y-119252381D02*
X192638095Y-119252381D01*
X192923809Y-119252381D02*
X192923809Y-118252381D01*
X192828571Y-118395238D01*
X192733333Y-118490476D01*
X192638095Y-118538095D01*
X193828571Y-118252381D02*
X193923810Y-118252381D01*
X194019048Y-118300000D01*
X194066667Y-118347619D01*
X194114286Y-118442857D01*
X194161905Y-118633333D01*
X194161905Y-118871429D01*
X194114286Y-119061905D01*
X194066667Y-119157143D01*
X194019048Y-119204762D01*
X193923810Y-119252381D01*
X193828571Y-119252381D01*
X193733333Y-119204762D01*
X193685714Y-119157143D01*
X193638095Y-119061905D01*
X193590476Y-118871429D01*
X193590476Y-118633333D01*
X193638095Y-118442857D01*
X193685714Y-118347619D01*
X193733333Y-118300000D01*
X193828571Y-118252381D01*
X134507143Y-65702381D02*
X134173809Y-65226190D01*
X133935714Y-65702381D02*
X133935714Y-64702381D01*
X134316667Y-64702381D01*
X134411905Y-64750000D01*
X134459524Y-64797619D01*
X134507143Y-64892857D01*
X134507143Y-65035714D01*
X134459524Y-65130952D01*
X134411905Y-65178571D01*
X134316667Y-65226190D01*
X133935714Y-65226190D01*
X135459524Y-65702381D02*
X134888095Y-65702381D01*
X135173809Y-65702381D02*
X135173809Y-64702381D01*
X135078571Y-64845238D01*
X134983333Y-64940476D01*
X134888095Y-64988095D01*
X136411905Y-65702381D02*
X135840476Y-65702381D01*
X136126190Y-65702381D02*
X136126190Y-64702381D01*
X136030952Y-64845238D01*
X135935714Y-64940476D01*
X135840476Y-64988095D01*
X134407143Y-64102381D02*
X134073809Y-63626190D01*
X133835714Y-64102381D02*
X133835714Y-63102381D01*
X134216667Y-63102381D01*
X134311905Y-63150000D01*
X134359524Y-63197619D01*
X134407143Y-63292857D01*
X134407143Y-63435714D01*
X134359524Y-63530952D01*
X134311905Y-63578571D01*
X134216667Y-63626190D01*
X133835714Y-63626190D01*
X135359524Y-64102381D02*
X134788095Y-64102381D01*
X135073809Y-64102381D02*
X135073809Y-63102381D01*
X134978571Y-63245238D01*
X134883333Y-63340476D01*
X134788095Y-63388095D01*
X135740476Y-63197619D02*
X135788095Y-63150000D01*
X135883333Y-63102381D01*
X136121429Y-63102381D01*
X136216667Y-63150000D01*
X136264286Y-63197619D01*
X136311905Y-63292857D01*
X136311905Y-63388095D01*
X136264286Y-63530952D01*
X135692857Y-64102381D01*
X136311905Y-64102381D01*
X187607143Y-99352381D02*
X187273809Y-98876190D01*
X187035714Y-99352381D02*
X187035714Y-98352381D01*
X187416667Y-98352381D01*
X187511905Y-98400000D01*
X187559524Y-98447619D01*
X187607143Y-98542857D01*
X187607143Y-98685714D01*
X187559524Y-98780952D01*
X187511905Y-98828571D01*
X187416667Y-98876190D01*
X187035714Y-98876190D01*
X188559524Y-99352381D02*
X187988095Y-99352381D01*
X188273809Y-99352381D02*
X188273809Y-98352381D01*
X188178571Y-98495238D01*
X188083333Y-98590476D01*
X187988095Y-98638095D01*
X188892857Y-98352381D02*
X189511905Y-98352381D01*
X189178571Y-98733333D01*
X189321429Y-98733333D01*
X189416667Y-98780952D01*
X189464286Y-98828571D01*
X189511905Y-98923810D01*
X189511905Y-99161905D01*
X189464286Y-99257143D01*
X189416667Y-99304762D01*
X189321429Y-99352381D01*
X189035714Y-99352381D01*
X188940476Y-99304762D01*
X188892857Y-99257143D01*
X188852381Y-85402857D02*
X188376190Y-85736191D01*
X188852381Y-85974286D02*
X187852381Y-85974286D01*
X187852381Y-85593333D01*
X187900000Y-85498095D01*
X187947619Y-85450476D01*
X188042857Y-85402857D01*
X188185714Y-85402857D01*
X188280952Y-85450476D01*
X188328571Y-85498095D01*
X188376190Y-85593333D01*
X188376190Y-85974286D01*
X188852381Y-84450476D02*
X188852381Y-85021905D01*
X188852381Y-84736191D02*
X187852381Y-84736191D01*
X187995238Y-84831429D01*
X188090476Y-84926667D01*
X188138095Y-85021905D01*
X188185714Y-83593333D02*
X188852381Y-83593333D01*
X187804762Y-83831429D02*
X188519048Y-84069524D01*
X188519048Y-83450476D01*
X167157143Y-123252381D02*
X166823809Y-122776190D01*
X166585714Y-123252381D02*
X166585714Y-122252381D01*
X166966667Y-122252381D01*
X167061905Y-122300000D01*
X167109524Y-122347619D01*
X167157143Y-122442857D01*
X167157143Y-122585714D01*
X167109524Y-122680952D01*
X167061905Y-122728571D01*
X166966667Y-122776190D01*
X166585714Y-122776190D01*
X168109524Y-123252381D02*
X167538095Y-123252381D01*
X167823809Y-123252381D02*
X167823809Y-122252381D01*
X167728571Y-122395238D01*
X167633333Y-122490476D01*
X167538095Y-122538095D01*
X169014286Y-122252381D02*
X168538095Y-122252381D01*
X168490476Y-122728571D01*
X168538095Y-122680952D01*
X168633333Y-122633333D01*
X168871429Y-122633333D01*
X168966667Y-122680952D01*
X169014286Y-122728571D01*
X169061905Y-122823810D01*
X169061905Y-123061905D01*
X169014286Y-123157143D01*
X168966667Y-123204762D01*
X168871429Y-123252381D01*
X168633333Y-123252381D01*
X168538095Y-123204762D01*
X168490476Y-123157143D01*
X163057143Y-123252381D02*
X162723809Y-122776190D01*
X162485714Y-123252381D02*
X162485714Y-122252381D01*
X162866667Y-122252381D01*
X162961905Y-122300000D01*
X163009524Y-122347619D01*
X163057143Y-122442857D01*
X163057143Y-122585714D01*
X163009524Y-122680952D01*
X162961905Y-122728571D01*
X162866667Y-122776190D01*
X162485714Y-122776190D01*
X164009524Y-123252381D02*
X163438095Y-123252381D01*
X163723809Y-123252381D02*
X163723809Y-122252381D01*
X163628571Y-122395238D01*
X163533333Y-122490476D01*
X163438095Y-122538095D01*
X164866667Y-122252381D02*
X164676190Y-122252381D01*
X164580952Y-122300000D01*
X164533333Y-122347619D01*
X164438095Y-122490476D01*
X164390476Y-122680952D01*
X164390476Y-123061905D01*
X164438095Y-123157143D01*
X164485714Y-123204762D01*
X164580952Y-123252381D01*
X164771429Y-123252381D01*
X164866667Y-123204762D01*
X164914286Y-123157143D01*
X164961905Y-123061905D01*
X164961905Y-122823810D01*
X164914286Y-122728571D01*
X164866667Y-122680952D01*
X164771429Y-122633333D01*
X164580952Y-122633333D01*
X164485714Y-122680952D01*
X164438095Y-122728571D01*
X164390476Y-122823810D01*
X159157143Y-122952381D02*
X158823809Y-122476190D01*
X158585714Y-122952381D02*
X158585714Y-121952381D01*
X158966667Y-121952381D01*
X159061905Y-122000000D01*
X159109524Y-122047619D01*
X159157143Y-122142857D01*
X159157143Y-122285714D01*
X159109524Y-122380952D01*
X159061905Y-122428571D01*
X158966667Y-122476190D01*
X158585714Y-122476190D01*
X160109524Y-122952381D02*
X159538095Y-122952381D01*
X159823809Y-122952381D02*
X159823809Y-121952381D01*
X159728571Y-122095238D01*
X159633333Y-122190476D01*
X159538095Y-122238095D01*
X160442857Y-121952381D02*
X161109524Y-121952381D01*
X160680952Y-122952381D01*
X155057143Y-122952381D02*
X154723809Y-122476190D01*
X154485714Y-122952381D02*
X154485714Y-121952381D01*
X154866667Y-121952381D01*
X154961905Y-122000000D01*
X155009524Y-122047619D01*
X155057143Y-122142857D01*
X155057143Y-122285714D01*
X155009524Y-122380952D01*
X154961905Y-122428571D01*
X154866667Y-122476190D01*
X154485714Y-122476190D01*
X156009524Y-122952381D02*
X155438095Y-122952381D01*
X155723809Y-122952381D02*
X155723809Y-121952381D01*
X155628571Y-122095238D01*
X155533333Y-122190476D01*
X155438095Y-122238095D01*
X156580952Y-122380952D02*
X156485714Y-122333333D01*
X156438095Y-122285714D01*
X156390476Y-122190476D01*
X156390476Y-122142857D01*
X156438095Y-122047619D01*
X156485714Y-122000000D01*
X156580952Y-121952381D01*
X156771429Y-121952381D01*
X156866667Y-122000000D01*
X156914286Y-122047619D01*
X156961905Y-122142857D01*
X156961905Y-122190476D01*
X156914286Y-122285714D01*
X156866667Y-122333333D01*
X156771429Y-122380952D01*
X156580952Y-122380952D01*
X156485714Y-122428571D01*
X156438095Y-122476190D01*
X156390476Y-122571429D01*
X156390476Y-122761905D01*
X156438095Y-122857143D01*
X156485714Y-122904762D01*
X156580952Y-122952381D01*
X156771429Y-122952381D01*
X156866667Y-122904762D01*
X156914286Y-122857143D01*
X156961905Y-122761905D01*
X156961905Y-122571429D01*
X156914286Y-122476190D01*
X156866667Y-122428571D01*
X156771429Y-122380952D01*
X150911662Y-122952381D02*
X150578328Y-122476190D01*
X150340233Y-122952381D02*
X150340233Y-121952381D01*
X150721186Y-121952381D01*
X150816424Y-122000000D01*
X150864043Y-122047619D01*
X150911662Y-122142857D01*
X150911662Y-122285714D01*
X150864043Y-122380952D01*
X150816424Y-122428571D01*
X150721186Y-122476190D01*
X150340233Y-122476190D01*
X151864043Y-122952381D02*
X151292614Y-122952381D01*
X151578328Y-122952381D02*
X151578328Y-121952381D01*
X151483090Y-122095238D01*
X151387852Y-122190476D01*
X151292614Y-122238095D01*
X152340233Y-122952381D02*
X152530709Y-122952381D01*
X152625948Y-122904762D01*
X152673567Y-122857143D01*
X152768805Y-122714286D01*
X152816424Y-122523810D01*
X152816424Y-122142857D01*
X152768805Y-122047619D01*
X152721186Y-122000000D01*
X152625948Y-121952381D01*
X152435471Y-121952381D01*
X152340233Y-122000000D01*
X152292614Y-122047619D01*
X152244995Y-122142857D01*
X152244995Y-122380952D01*
X152292614Y-122476190D01*
X152340233Y-122523810D01*
X152435471Y-122571429D01*
X152625948Y-122571429D01*
X152721186Y-122523810D01*
X152768805Y-122476190D01*
X152816424Y-122380952D01*
X171257143Y-123252381D02*
X170923809Y-122776190D01*
X170685714Y-123252381D02*
X170685714Y-122252381D01*
X171066667Y-122252381D01*
X171161905Y-122300000D01*
X171209524Y-122347619D01*
X171257143Y-122442857D01*
X171257143Y-122585714D01*
X171209524Y-122680952D01*
X171161905Y-122728571D01*
X171066667Y-122776190D01*
X170685714Y-122776190D01*
X171638095Y-122347619D02*
X171685714Y-122300000D01*
X171780952Y-122252381D01*
X172019048Y-122252381D01*
X172114286Y-122300000D01*
X172161905Y-122347619D01*
X172209524Y-122442857D01*
X172209524Y-122538095D01*
X172161905Y-122680952D01*
X171590476Y-123252381D01*
X172209524Y-123252381D01*
X172828571Y-122252381D02*
X172923810Y-122252381D01*
X173019048Y-122300000D01*
X173066667Y-122347619D01*
X173114286Y-122442857D01*
X173161905Y-122633333D01*
X173161905Y-122871429D01*
X173114286Y-123061905D01*
X173066667Y-123157143D01*
X173019048Y-123204762D01*
X172923810Y-123252381D01*
X172828571Y-123252381D01*
X172733333Y-123204762D01*
X172685714Y-123157143D01*
X172638095Y-123061905D01*
X172590476Y-122871429D01*
X172590476Y-122633333D01*
X172638095Y-122442857D01*
X172685714Y-122347619D01*
X172733333Y-122300000D01*
X172828571Y-122252381D01*
X174911662Y-123352381D02*
X174578328Y-122876190D01*
X174340233Y-123352381D02*
X174340233Y-122352381D01*
X174721186Y-122352381D01*
X174816424Y-122400000D01*
X174864043Y-122447619D01*
X174911662Y-122542857D01*
X174911662Y-122685714D01*
X174864043Y-122780952D01*
X174816424Y-122828571D01*
X174721186Y-122876190D01*
X174340233Y-122876190D01*
X175292614Y-122447619D02*
X175340233Y-122400000D01*
X175435471Y-122352381D01*
X175673567Y-122352381D01*
X175768805Y-122400000D01*
X175816424Y-122447619D01*
X175864043Y-122542857D01*
X175864043Y-122638095D01*
X175816424Y-122780952D01*
X175244995Y-123352381D01*
X175864043Y-123352381D01*
X176816424Y-123352381D02*
X176244995Y-123352381D01*
X176530709Y-123352381D02*
X176530709Y-122352381D01*
X176435471Y-122495238D01*
X176340233Y-122590476D01*
X176244995Y-122638095D01*
X167057143Y-126152381D02*
X166723809Y-125676190D01*
X166485714Y-126152381D02*
X166485714Y-125152381D01*
X166866667Y-125152381D01*
X166961905Y-125200000D01*
X167009524Y-125247619D01*
X167057143Y-125342857D01*
X167057143Y-125485714D01*
X167009524Y-125580952D01*
X166961905Y-125628571D01*
X166866667Y-125676190D01*
X166485714Y-125676190D01*
X167438095Y-125247619D02*
X167485714Y-125200000D01*
X167580952Y-125152381D01*
X167819048Y-125152381D01*
X167914286Y-125200000D01*
X167961905Y-125247619D01*
X168009524Y-125342857D01*
X168009524Y-125438095D01*
X167961905Y-125580952D01*
X167390476Y-126152381D01*
X168009524Y-126152381D01*
X168390476Y-125247619D02*
X168438095Y-125200000D01*
X168533333Y-125152381D01*
X168771429Y-125152381D01*
X168866667Y-125200000D01*
X168914286Y-125247619D01*
X168961905Y-125342857D01*
X168961905Y-125438095D01*
X168914286Y-125580952D01*
X168342857Y-126152381D01*
X168961905Y-126152381D01*
X163057143Y-126052381D02*
X162723809Y-125576190D01*
X162485714Y-126052381D02*
X162485714Y-125052381D01*
X162866667Y-125052381D01*
X162961905Y-125100000D01*
X163009524Y-125147619D01*
X163057143Y-125242857D01*
X163057143Y-125385714D01*
X163009524Y-125480952D01*
X162961905Y-125528571D01*
X162866667Y-125576190D01*
X162485714Y-125576190D01*
X163438095Y-125147619D02*
X163485714Y-125100000D01*
X163580952Y-125052381D01*
X163819048Y-125052381D01*
X163914286Y-125100000D01*
X163961905Y-125147619D01*
X164009524Y-125242857D01*
X164009524Y-125338095D01*
X163961905Y-125480952D01*
X163390476Y-126052381D01*
X164009524Y-126052381D01*
X164342857Y-125052381D02*
X164961905Y-125052381D01*
X164628571Y-125433333D01*
X164771429Y-125433333D01*
X164866667Y-125480952D01*
X164914286Y-125528571D01*
X164961905Y-125623810D01*
X164961905Y-125861905D01*
X164914286Y-125957143D01*
X164866667Y-126004762D01*
X164771429Y-126052381D01*
X164485714Y-126052381D01*
X164390476Y-126004762D01*
X164342857Y-125957143D01*
X159057143Y-126152381D02*
X158723809Y-125676190D01*
X158485714Y-126152381D02*
X158485714Y-125152381D01*
X158866667Y-125152381D01*
X158961905Y-125200000D01*
X159009524Y-125247619D01*
X159057143Y-125342857D01*
X159057143Y-125485714D01*
X159009524Y-125580952D01*
X158961905Y-125628571D01*
X158866667Y-125676190D01*
X158485714Y-125676190D01*
X159438095Y-125247619D02*
X159485714Y-125200000D01*
X159580952Y-125152381D01*
X159819048Y-125152381D01*
X159914286Y-125200000D01*
X159961905Y-125247619D01*
X160009524Y-125342857D01*
X160009524Y-125438095D01*
X159961905Y-125580952D01*
X159390476Y-126152381D01*
X160009524Y-126152381D01*
X160866667Y-125485714D02*
X160866667Y-126152381D01*
X160628571Y-125104762D02*
X160390476Y-125819048D01*
X161009524Y-125819048D01*
X155157143Y-126152381D02*
X154823809Y-125676190D01*
X154585714Y-126152381D02*
X154585714Y-125152381D01*
X154966667Y-125152381D01*
X155061905Y-125200000D01*
X155109524Y-125247619D01*
X155157143Y-125342857D01*
X155157143Y-125485714D01*
X155109524Y-125580952D01*
X155061905Y-125628571D01*
X154966667Y-125676190D01*
X154585714Y-125676190D01*
X155538095Y-125247619D02*
X155585714Y-125200000D01*
X155680952Y-125152381D01*
X155919048Y-125152381D01*
X156014286Y-125200000D01*
X156061905Y-125247619D01*
X156109524Y-125342857D01*
X156109524Y-125438095D01*
X156061905Y-125580952D01*
X155490476Y-126152381D01*
X156109524Y-126152381D01*
X157014286Y-125152381D02*
X156538095Y-125152381D01*
X156490476Y-125628571D01*
X156538095Y-125580952D01*
X156633333Y-125533333D01*
X156871429Y-125533333D01*
X156966667Y-125580952D01*
X157014286Y-125628571D01*
X157061905Y-125723810D01*
X157061905Y-125961905D01*
X157014286Y-126057143D01*
X156966667Y-126104762D01*
X156871429Y-126152381D01*
X156633333Y-126152381D01*
X156538095Y-126104762D01*
X156490476Y-126057143D01*
X150957143Y-126252381D02*
X150623809Y-125776190D01*
X150385714Y-126252381D02*
X150385714Y-125252381D01*
X150766667Y-125252381D01*
X150861905Y-125300000D01*
X150909524Y-125347619D01*
X150957143Y-125442857D01*
X150957143Y-125585714D01*
X150909524Y-125680952D01*
X150861905Y-125728571D01*
X150766667Y-125776190D01*
X150385714Y-125776190D01*
X151338095Y-125347619D02*
X151385714Y-125300000D01*
X151480952Y-125252381D01*
X151719048Y-125252381D01*
X151814286Y-125300000D01*
X151861905Y-125347619D01*
X151909524Y-125442857D01*
X151909524Y-125538095D01*
X151861905Y-125680952D01*
X151290476Y-126252381D01*
X151909524Y-126252381D01*
X152766667Y-125252381D02*
X152576190Y-125252381D01*
X152480952Y-125300000D01*
X152433333Y-125347619D01*
X152338095Y-125490476D01*
X152290476Y-125680952D01*
X152290476Y-126061905D01*
X152338095Y-126157143D01*
X152385714Y-126204762D01*
X152480952Y-126252381D01*
X152671429Y-126252381D01*
X152766667Y-126204762D01*
X152814286Y-126157143D01*
X152861905Y-126061905D01*
X152861905Y-125823810D01*
X152814286Y-125728571D01*
X152766667Y-125680952D01*
X152671429Y-125633333D01*
X152480952Y-125633333D01*
X152385714Y-125680952D01*
X152338095Y-125728571D01*
X152290476Y-125823810D01*
X171157143Y-126252381D02*
X170823809Y-125776190D01*
X170585714Y-126252381D02*
X170585714Y-125252381D01*
X170966667Y-125252381D01*
X171061905Y-125300000D01*
X171109524Y-125347619D01*
X171157143Y-125442857D01*
X171157143Y-125585714D01*
X171109524Y-125680952D01*
X171061905Y-125728571D01*
X170966667Y-125776190D01*
X170585714Y-125776190D01*
X171538095Y-125347619D02*
X171585714Y-125300000D01*
X171680952Y-125252381D01*
X171919048Y-125252381D01*
X172014286Y-125300000D01*
X172061905Y-125347619D01*
X172109524Y-125442857D01*
X172109524Y-125538095D01*
X172061905Y-125680952D01*
X171490476Y-126252381D01*
X172109524Y-126252381D01*
X172442857Y-125252381D02*
X173109524Y-125252381D01*
X172680952Y-126252381D01*
X174957143Y-126252381D02*
X174623809Y-125776190D01*
X174385714Y-126252381D02*
X174385714Y-125252381D01*
X174766667Y-125252381D01*
X174861905Y-125300000D01*
X174909524Y-125347619D01*
X174957143Y-125442857D01*
X174957143Y-125585714D01*
X174909524Y-125680952D01*
X174861905Y-125728571D01*
X174766667Y-125776190D01*
X174385714Y-125776190D01*
X175338095Y-125347619D02*
X175385714Y-125300000D01*
X175480952Y-125252381D01*
X175719048Y-125252381D01*
X175814286Y-125300000D01*
X175861905Y-125347619D01*
X175909524Y-125442857D01*
X175909524Y-125538095D01*
X175861905Y-125680952D01*
X175290476Y-126252381D01*
X175909524Y-126252381D01*
X176480952Y-125680952D02*
X176385714Y-125633333D01*
X176338095Y-125585714D01*
X176290476Y-125490476D01*
X176290476Y-125442857D01*
X176338095Y-125347619D01*
X176385714Y-125300000D01*
X176480952Y-125252381D01*
X176671429Y-125252381D01*
X176766667Y-125300000D01*
X176814286Y-125347619D01*
X176861905Y-125442857D01*
X176861905Y-125490476D01*
X176814286Y-125585714D01*
X176766667Y-125633333D01*
X176671429Y-125680952D01*
X176480952Y-125680952D01*
X176385714Y-125728571D01*
X176338095Y-125776190D01*
X176290476Y-125871429D01*
X176290476Y-126061905D01*
X176338095Y-126157143D01*
X176385714Y-126204762D01*
X176480952Y-126252381D01*
X176671429Y-126252381D01*
X176766667Y-126204762D01*
X176814286Y-126157143D01*
X176861905Y-126061905D01*
X176861905Y-125871429D01*
X176814286Y-125776190D01*
X176766667Y-125728571D01*
X176671429Y-125680952D01*
X152552381Y-106642857D02*
X152076190Y-106976191D01*
X152552381Y-107214286D02*
X151552381Y-107214286D01*
X151552381Y-106833333D01*
X151600000Y-106738095D01*
X151647619Y-106690476D01*
X151742857Y-106642857D01*
X151885714Y-106642857D01*
X151980952Y-106690476D01*
X152028571Y-106738095D01*
X152076190Y-106833333D01*
X152076190Y-107214286D01*
X151647619Y-106261905D02*
X151600000Y-106214286D01*
X151552381Y-106119048D01*
X151552381Y-105880952D01*
X151600000Y-105785714D01*
X151647619Y-105738095D01*
X151742857Y-105690476D01*
X151838095Y-105690476D01*
X151980952Y-105738095D01*
X152552381Y-106309524D01*
X152552381Y-105690476D01*
X152552381Y-105214286D02*
X152552381Y-105023810D01*
X152504762Y-104928571D01*
X152457143Y-104880952D01*
X152314286Y-104785714D01*
X152123810Y-104738095D01*
X151742857Y-104738095D01*
X151647619Y-104785714D01*
X151600000Y-104833333D01*
X151552381Y-104928571D01*
X151552381Y-105119048D01*
X151600000Y-105214286D01*
X151647619Y-105261905D01*
X151742857Y-105309524D01*
X151980952Y-105309524D01*
X152076190Y-105261905D01*
X152123810Y-105214286D01*
X152171429Y-105119048D01*
X152171429Y-104928571D01*
X152123810Y-104833333D01*
X152076190Y-104785714D01*
X151980952Y-104738095D01*
X152552381Y-115742857D02*
X152076190Y-116076191D01*
X152552381Y-116314286D02*
X151552381Y-116314286D01*
X151552381Y-115933333D01*
X151600000Y-115838095D01*
X151647619Y-115790476D01*
X151742857Y-115742857D01*
X151885714Y-115742857D01*
X151980952Y-115790476D01*
X152028571Y-115838095D01*
X152076190Y-115933333D01*
X152076190Y-116314286D01*
X151552381Y-115409524D02*
X151552381Y-114790476D01*
X151933333Y-115123810D01*
X151933333Y-114980952D01*
X151980952Y-114885714D01*
X152028571Y-114838095D01*
X152123810Y-114790476D01*
X152361905Y-114790476D01*
X152457143Y-114838095D01*
X152504762Y-114885714D01*
X152552381Y-114980952D01*
X152552381Y-115266667D01*
X152504762Y-115361905D01*
X152457143Y-115409524D01*
X151552381Y-114171429D02*
X151552381Y-114076190D01*
X151600000Y-113980952D01*
X151647619Y-113933333D01*
X151742857Y-113885714D01*
X151933333Y-113838095D01*
X152171429Y-113838095D01*
X152361905Y-113885714D01*
X152457143Y-113933333D01*
X152504762Y-113980952D01*
X152552381Y-114076190D01*
X152552381Y-114171429D01*
X152504762Y-114266667D01*
X152457143Y-114314286D01*
X152361905Y-114361905D01*
X152171429Y-114409524D01*
X151933333Y-114409524D01*
X151742857Y-114361905D01*
X151647619Y-114314286D01*
X151600000Y-114266667D01*
X151552381Y-114171429D01*
X148752381Y-115742857D02*
X148276190Y-116076191D01*
X148752381Y-116314286D02*
X147752381Y-116314286D01*
X147752381Y-115933333D01*
X147800000Y-115838095D01*
X147847619Y-115790476D01*
X147942857Y-115742857D01*
X148085714Y-115742857D01*
X148180952Y-115790476D01*
X148228571Y-115838095D01*
X148276190Y-115933333D01*
X148276190Y-116314286D01*
X147752381Y-115409524D02*
X147752381Y-114790476D01*
X148133333Y-115123810D01*
X148133333Y-114980952D01*
X148180952Y-114885714D01*
X148228571Y-114838095D01*
X148323810Y-114790476D01*
X148561905Y-114790476D01*
X148657143Y-114838095D01*
X148704762Y-114885714D01*
X148752381Y-114980952D01*
X148752381Y-115266667D01*
X148704762Y-115361905D01*
X148657143Y-115409524D01*
X148752381Y-113838095D02*
X148752381Y-114409524D01*
X148752381Y-114123810D02*
X147752381Y-114123810D01*
X147895238Y-114219048D01*
X147990476Y-114314286D01*
X148038095Y-114409524D01*
X140452381Y-92142857D02*
X139976190Y-92476191D01*
X140452381Y-92714286D02*
X139452381Y-92714286D01*
X139452381Y-92333333D01*
X139500000Y-92238095D01*
X139547619Y-92190476D01*
X139642857Y-92142857D01*
X139785714Y-92142857D01*
X139880952Y-92190476D01*
X139928571Y-92238095D01*
X139976190Y-92333333D01*
X139976190Y-92714286D01*
X139452381Y-91809524D02*
X139452381Y-91190476D01*
X139833333Y-91523810D01*
X139833333Y-91380952D01*
X139880952Y-91285714D01*
X139928571Y-91238095D01*
X140023810Y-91190476D01*
X140261905Y-91190476D01*
X140357143Y-91238095D01*
X140404762Y-91285714D01*
X140452381Y-91380952D01*
X140452381Y-91666667D01*
X140404762Y-91761905D01*
X140357143Y-91809524D01*
X139547619Y-90809524D02*
X139500000Y-90761905D01*
X139452381Y-90666667D01*
X139452381Y-90428571D01*
X139500000Y-90333333D01*
X139547619Y-90285714D01*
X139642857Y-90238095D01*
X139738095Y-90238095D01*
X139880952Y-90285714D01*
X140452381Y-90857143D01*
X140452381Y-90238095D01*
X151352381Y-80242857D02*
X150876190Y-80576191D01*
X151352381Y-80814286D02*
X150352381Y-80814286D01*
X150352381Y-80433333D01*
X150400000Y-80338095D01*
X150447619Y-80290476D01*
X150542857Y-80242857D01*
X150685714Y-80242857D01*
X150780952Y-80290476D01*
X150828571Y-80338095D01*
X150876190Y-80433333D01*
X150876190Y-80814286D01*
X150352381Y-79909524D02*
X150352381Y-79290476D01*
X150733333Y-79623810D01*
X150733333Y-79480952D01*
X150780952Y-79385714D01*
X150828571Y-79338095D01*
X150923810Y-79290476D01*
X151161905Y-79290476D01*
X151257143Y-79338095D01*
X151304762Y-79385714D01*
X151352381Y-79480952D01*
X151352381Y-79766667D01*
X151304762Y-79861905D01*
X151257143Y-79909524D01*
X150352381Y-78957143D02*
X150352381Y-78338095D01*
X150733333Y-78671429D01*
X150733333Y-78528571D01*
X150780952Y-78433333D01*
X150828571Y-78385714D01*
X150923810Y-78338095D01*
X151161905Y-78338095D01*
X151257143Y-78385714D01*
X151304762Y-78433333D01*
X151352381Y-78528571D01*
X151352381Y-78814286D01*
X151304762Y-78909524D01*
X151257143Y-78957143D01*
X151452381Y-89542857D02*
X150976190Y-89876191D01*
X151452381Y-90114286D02*
X150452381Y-90114286D01*
X150452381Y-89733333D01*
X150500000Y-89638095D01*
X150547619Y-89590476D01*
X150642857Y-89542857D01*
X150785714Y-89542857D01*
X150880952Y-89590476D01*
X150928571Y-89638095D01*
X150976190Y-89733333D01*
X150976190Y-90114286D01*
X150452381Y-89209524D02*
X150452381Y-88590476D01*
X150833333Y-88923810D01*
X150833333Y-88780952D01*
X150880952Y-88685714D01*
X150928571Y-88638095D01*
X151023810Y-88590476D01*
X151261905Y-88590476D01*
X151357143Y-88638095D01*
X151404762Y-88685714D01*
X151452381Y-88780952D01*
X151452381Y-89066667D01*
X151404762Y-89161905D01*
X151357143Y-89209524D01*
X150785714Y-87733333D02*
X151452381Y-87733333D01*
X150404762Y-87971429D02*
X151119048Y-88209524D01*
X151119048Y-87590476D01*
X175333334Y-82257143D02*
X175285715Y-82304762D01*
X175142858Y-82352381D01*
X175047620Y-82352381D01*
X174904762Y-82304762D01*
X174809524Y-82209524D01*
X174761905Y-82114286D01*
X174714286Y-81923810D01*
X174714286Y-81780952D01*
X174761905Y-81590476D01*
X174809524Y-81495238D01*
X174904762Y-81400000D01*
X175047620Y-81352381D01*
X175142858Y-81352381D01*
X175285715Y-81400000D01*
X175333334Y-81447619D01*
X175714286Y-81447619D02*
X175761905Y-81400000D01*
X175857143Y-81352381D01*
X176095239Y-81352381D01*
X176190477Y-81400000D01*
X176238096Y-81447619D01*
X176285715Y-81542857D01*
X176285715Y-81638095D01*
X176238096Y-81780952D01*
X175666667Y-82352381D01*
X176285715Y-82352381D01*
X154657143Y-119466666D02*
X154704762Y-119514285D01*
X154752381Y-119657142D01*
X154752381Y-119752380D01*
X154704762Y-119895238D01*
X154609524Y-119990476D01*
X154514286Y-120038095D01*
X154323810Y-120085714D01*
X154180952Y-120085714D01*
X153990476Y-120038095D01*
X153895238Y-119990476D01*
X153800000Y-119895238D01*
X153752381Y-119752380D01*
X153752381Y-119657142D01*
X153800000Y-119514285D01*
X153847619Y-119466666D01*
X153752381Y-119133333D02*
X153752381Y-118514285D01*
X154133333Y-118847619D01*
X154133333Y-118704761D01*
X154180952Y-118609523D01*
X154228571Y-118561904D01*
X154323810Y-118514285D01*
X154561905Y-118514285D01*
X154657143Y-118561904D01*
X154704762Y-118609523D01*
X154752381Y-118704761D01*
X154752381Y-118990476D01*
X154704762Y-119085714D01*
X154657143Y-119133333D01*
X128333334Y-88857143D02*
X128285715Y-88904762D01*
X128142858Y-88952381D01*
X128047620Y-88952381D01*
X127904762Y-88904762D01*
X127809524Y-88809524D01*
X127761905Y-88714286D01*
X127714286Y-88523810D01*
X127714286Y-88380952D01*
X127761905Y-88190476D01*
X127809524Y-88095238D01*
X127904762Y-88000000D01*
X128047620Y-87952381D01*
X128142858Y-87952381D01*
X128285715Y-88000000D01*
X128333334Y-88047619D01*
X129190477Y-88285714D02*
X129190477Y-88952381D01*
X128952381Y-87904762D02*
X128714286Y-88619048D01*
X129333334Y-88619048D01*
X170733334Y-101557143D02*
X170685715Y-101604762D01*
X170542858Y-101652381D01*
X170447620Y-101652381D01*
X170304762Y-101604762D01*
X170209524Y-101509524D01*
X170161905Y-101414286D01*
X170114286Y-101223810D01*
X170114286Y-101080952D01*
X170161905Y-100890476D01*
X170209524Y-100795238D01*
X170304762Y-100700000D01*
X170447620Y-100652381D01*
X170542858Y-100652381D01*
X170685715Y-100700000D01*
X170733334Y-100747619D01*
X171590477Y-100652381D02*
X171400000Y-100652381D01*
X171304762Y-100700000D01*
X171257143Y-100747619D01*
X171161905Y-100890476D01*
X171114286Y-101080952D01*
X171114286Y-101461905D01*
X171161905Y-101557143D01*
X171209524Y-101604762D01*
X171304762Y-101652381D01*
X171495239Y-101652381D01*
X171590477Y-101604762D01*
X171638096Y-101557143D01*
X171685715Y-101461905D01*
X171685715Y-101223810D01*
X171638096Y-101128571D01*
X171590477Y-101080952D01*
X171495239Y-101033333D01*
X171304762Y-101033333D01*
X171209524Y-101080952D01*
X171161905Y-101128571D01*
X171114286Y-101223810D01*
X174957143Y-109466666D02*
X175004762Y-109514285D01*
X175052381Y-109657142D01*
X175052381Y-109752380D01*
X175004762Y-109895238D01*
X174909524Y-109990476D01*
X174814286Y-110038095D01*
X174623810Y-110085714D01*
X174480952Y-110085714D01*
X174290476Y-110038095D01*
X174195238Y-109990476D01*
X174100000Y-109895238D01*
X174052381Y-109752380D01*
X174052381Y-109657142D01*
X174100000Y-109514285D01*
X174147619Y-109466666D01*
X174052381Y-109133333D02*
X174052381Y-108466666D01*
X175052381Y-108895238D01*
X174757143Y-119266666D02*
X174804762Y-119314285D01*
X174852381Y-119457142D01*
X174852381Y-119552380D01*
X174804762Y-119695238D01*
X174709524Y-119790476D01*
X174614286Y-119838095D01*
X174423810Y-119885714D01*
X174280952Y-119885714D01*
X174090476Y-119838095D01*
X173995238Y-119790476D01*
X173900000Y-119695238D01*
X173852381Y-119552380D01*
X173852381Y-119457142D01*
X173900000Y-119314285D01*
X173947619Y-119266666D01*
X174280952Y-118695238D02*
X174233333Y-118790476D01*
X174185714Y-118838095D01*
X174090476Y-118885714D01*
X174042857Y-118885714D01*
X173947619Y-118838095D01*
X173900000Y-118790476D01*
X173852381Y-118695238D01*
X173852381Y-118504761D01*
X173900000Y-118409523D01*
X173947619Y-118361904D01*
X174042857Y-118314285D01*
X174090476Y-118314285D01*
X174185714Y-118361904D01*
X174233333Y-118409523D01*
X174280952Y-118504761D01*
X174280952Y-118695238D01*
X174328571Y-118790476D01*
X174376190Y-118838095D01*
X174471429Y-118885714D01*
X174661905Y-118885714D01*
X174757143Y-118838095D01*
X174804762Y-118790476D01*
X174852381Y-118695238D01*
X174852381Y-118504761D01*
X174804762Y-118409523D01*
X174757143Y-118361904D01*
X174661905Y-118314285D01*
X174471429Y-118314285D01*
X174376190Y-118361904D01*
X174328571Y-118409523D01*
X174280952Y-118504761D01*
X171357143Y-94566666D02*
X171404762Y-94614285D01*
X171452381Y-94757142D01*
X171452381Y-94852380D01*
X171404762Y-94995238D01*
X171309524Y-95090476D01*
X171214286Y-95138095D01*
X171023810Y-95185714D01*
X170880952Y-95185714D01*
X170690476Y-95138095D01*
X170595238Y-95090476D01*
X170500000Y-94995238D01*
X170452381Y-94852380D01*
X170452381Y-94757142D01*
X170500000Y-94614285D01*
X170547619Y-94566666D01*
X171452381Y-94090476D02*
X171452381Y-93900000D01*
X171404762Y-93804761D01*
X171357143Y-93757142D01*
X171214286Y-93661904D01*
X171023810Y-93614285D01*
X170642857Y-93614285D01*
X170547619Y-93661904D01*
X170500000Y-93709523D01*
X170452381Y-93804761D01*
X170452381Y-93995238D01*
X170500000Y-94090476D01*
X170547619Y-94138095D01*
X170642857Y-94185714D01*
X170880952Y-94185714D01*
X170976190Y-94138095D01*
X171023810Y-94090476D01*
X171071429Y-93995238D01*
X171071429Y-93804761D01*
X171023810Y-93709523D01*
X170976190Y-93661904D01*
X170880952Y-93614285D01*
X128457143Y-73057143D02*
X128409524Y-73104762D01*
X128266667Y-73152381D01*
X128171429Y-73152381D01*
X128028571Y-73104762D01*
X127933333Y-73009524D01*
X127885714Y-72914286D01*
X127838095Y-72723810D01*
X127838095Y-72580952D01*
X127885714Y-72390476D01*
X127933333Y-72295238D01*
X128028571Y-72200000D01*
X128171429Y-72152381D01*
X128266667Y-72152381D01*
X128409524Y-72200000D01*
X128457143Y-72247619D01*
X129409524Y-73152381D02*
X128838095Y-73152381D01*
X129123809Y-73152381D02*
X129123809Y-72152381D01*
X129028571Y-72295238D01*
X128933333Y-72390476D01*
X128838095Y-72438095D01*
X130028571Y-72152381D02*
X130123810Y-72152381D01*
X130219048Y-72200000D01*
X130266667Y-72247619D01*
X130314286Y-72342857D01*
X130361905Y-72533333D01*
X130361905Y-72771429D01*
X130314286Y-72961905D01*
X130266667Y-73057143D01*
X130219048Y-73104762D01*
X130123810Y-73152381D01*
X130028571Y-73152381D01*
X129933333Y-73104762D01*
X129885714Y-73057143D01*
X129838095Y-72961905D01*
X129790476Y-72771429D01*
X129790476Y-72533333D01*
X129838095Y-72342857D01*
X129885714Y-72247619D01*
X129933333Y-72200000D01*
X130028571Y-72152381D01*
X167557143Y-121657143D02*
X167509524Y-121704762D01*
X167366667Y-121752381D01*
X167271429Y-121752381D01*
X167128571Y-121704762D01*
X167033333Y-121609524D01*
X166985714Y-121514286D01*
X166938095Y-121323810D01*
X166938095Y-121180952D01*
X166985714Y-120990476D01*
X167033333Y-120895238D01*
X167128571Y-120800000D01*
X167271429Y-120752381D01*
X167366667Y-120752381D01*
X167509524Y-120800000D01*
X167557143Y-120847619D01*
X168509524Y-121752381D02*
X167938095Y-121752381D01*
X168223809Y-121752381D02*
X168223809Y-120752381D01*
X168128571Y-120895238D01*
X168033333Y-120990476D01*
X167938095Y-121038095D01*
X169461905Y-121752381D02*
X168890476Y-121752381D01*
X169176190Y-121752381D02*
X169176190Y-120752381D01*
X169080952Y-120895238D01*
X168985714Y-120990476D01*
X168890476Y-121038095D01*
X170357143Y-99957143D02*
X170309524Y-100004762D01*
X170166667Y-100052381D01*
X170071429Y-100052381D01*
X169928571Y-100004762D01*
X169833333Y-99909524D01*
X169785714Y-99814286D01*
X169738095Y-99623810D01*
X169738095Y-99480952D01*
X169785714Y-99290476D01*
X169833333Y-99195238D01*
X169928571Y-99100000D01*
X170071429Y-99052381D01*
X170166667Y-99052381D01*
X170309524Y-99100000D01*
X170357143Y-99147619D01*
X171309524Y-100052381D02*
X170738095Y-100052381D01*
X171023809Y-100052381D02*
X171023809Y-99052381D01*
X170928571Y-99195238D01*
X170833333Y-99290476D01*
X170738095Y-99338095D01*
X171642857Y-99052381D02*
X172261905Y-99052381D01*
X171928571Y-99433333D01*
X172071429Y-99433333D01*
X172166667Y-99480952D01*
X172214286Y-99528571D01*
X172261905Y-99623810D01*
X172261905Y-99861905D01*
X172214286Y-99957143D01*
X172166667Y-100004762D01*
X172071429Y-100052381D01*
X171785714Y-100052381D01*
X171690476Y-100004762D01*
X171642857Y-99957143D01*
X157957143Y-101557143D02*
X157909524Y-101604762D01*
X157766667Y-101652381D01*
X157671429Y-101652381D01*
X157528571Y-101604762D01*
X157433333Y-101509524D01*
X157385714Y-101414286D01*
X157338095Y-101223810D01*
X157338095Y-101080952D01*
X157385714Y-100890476D01*
X157433333Y-100795238D01*
X157528571Y-100700000D01*
X157671429Y-100652381D01*
X157766667Y-100652381D01*
X157909524Y-100700000D01*
X157957143Y-100747619D01*
X158909524Y-101652381D02*
X158338095Y-101652381D01*
X158623809Y-101652381D02*
X158623809Y-100652381D01*
X158528571Y-100795238D01*
X158433333Y-100890476D01*
X158338095Y-100938095D01*
X159766667Y-100985714D02*
X159766667Y-101652381D01*
X159528571Y-100604762D02*
X159290476Y-101319048D01*
X159909524Y-101319048D01*
X137807143Y-60157143D02*
X137759524Y-60204762D01*
X137616667Y-60252381D01*
X137521429Y-60252381D01*
X137378571Y-60204762D01*
X137283333Y-60109524D01*
X137235714Y-60014286D01*
X137188095Y-59823810D01*
X137188095Y-59680952D01*
X137235714Y-59490476D01*
X137283333Y-59395238D01*
X137378571Y-59300000D01*
X137521429Y-59252381D01*
X137616667Y-59252381D01*
X137759524Y-59300000D01*
X137807143Y-59347619D01*
X138759524Y-60252381D02*
X138188095Y-60252381D01*
X138473809Y-60252381D02*
X138473809Y-59252381D01*
X138378571Y-59395238D01*
X138283333Y-59490476D01*
X138188095Y-59538095D01*
X139664286Y-59252381D02*
X139188095Y-59252381D01*
X139140476Y-59728571D01*
X139188095Y-59680952D01*
X139283333Y-59633333D01*
X139521429Y-59633333D01*
X139616667Y-59680952D01*
X139664286Y-59728571D01*
X139711905Y-59823810D01*
X139711905Y-60061905D01*
X139664286Y-60157143D01*
X139616667Y-60204762D01*
X139521429Y-60252381D01*
X139283333Y-60252381D01*
X139188095Y-60204762D01*
X139140476Y-60157143D01*
X187707143Y-102257143D02*
X187659524Y-102304762D01*
X187516667Y-102352381D01*
X187421429Y-102352381D01*
X187278571Y-102304762D01*
X187183333Y-102209524D01*
X187135714Y-102114286D01*
X187088095Y-101923810D01*
X187088095Y-101780952D01*
X187135714Y-101590476D01*
X187183333Y-101495238D01*
X187278571Y-101400000D01*
X187421429Y-101352381D01*
X187516667Y-101352381D01*
X187659524Y-101400000D01*
X187707143Y-101447619D01*
X188659524Y-102352381D02*
X188088095Y-102352381D01*
X188373809Y-102352381D02*
X188373809Y-101352381D01*
X188278571Y-101495238D01*
X188183333Y-101590476D01*
X188088095Y-101638095D01*
X188992857Y-101352381D02*
X189659524Y-101352381D01*
X189230952Y-102352381D01*
X188857143Y-88802857D02*
X188904762Y-88850476D01*
X188952381Y-88993333D01*
X188952381Y-89088571D01*
X188904762Y-89231429D01*
X188809524Y-89326667D01*
X188714286Y-89374286D01*
X188523810Y-89421905D01*
X188380952Y-89421905D01*
X188190476Y-89374286D01*
X188095238Y-89326667D01*
X188000000Y-89231429D01*
X187952381Y-89088571D01*
X187952381Y-88993333D01*
X188000000Y-88850476D01*
X188047619Y-88802857D01*
X188952381Y-87850476D02*
X188952381Y-88421905D01*
X188952381Y-88136191D02*
X187952381Y-88136191D01*
X188095238Y-88231429D01*
X188190476Y-88326667D01*
X188238095Y-88421905D01*
X188380952Y-87279048D02*
X188333333Y-87374286D01*
X188285714Y-87421905D01*
X188190476Y-87469524D01*
X188142857Y-87469524D01*
X188047619Y-87421905D01*
X188000000Y-87374286D01*
X187952381Y-87279048D01*
X187952381Y-87088571D01*
X188000000Y-86993333D01*
X188047619Y-86945714D01*
X188142857Y-86898095D01*
X188190476Y-86898095D01*
X188285714Y-86945714D01*
X188333333Y-86993333D01*
X188380952Y-87088571D01*
X188380952Y-87279048D01*
X188428571Y-87374286D01*
X188476190Y-87421905D01*
X188571429Y-87469524D01*
X188761905Y-87469524D01*
X188857143Y-87421905D01*
X188904762Y-87374286D01*
X188952381Y-87279048D01*
X188952381Y-87088571D01*
X188904762Y-86993333D01*
X188857143Y-86945714D01*
X188761905Y-86898095D01*
X188571429Y-86898095D01*
X188476190Y-86945714D01*
X188428571Y-86993333D01*
X188380952Y-87088571D01*
X142357143Y-92142857D02*
X142404762Y-92190476D01*
X142452381Y-92333333D01*
X142452381Y-92428571D01*
X142404762Y-92571429D01*
X142309524Y-92666667D01*
X142214286Y-92714286D01*
X142023810Y-92761905D01*
X141880952Y-92761905D01*
X141690476Y-92714286D01*
X141595238Y-92666667D01*
X141500000Y-92571429D01*
X141452381Y-92428571D01*
X141452381Y-92333333D01*
X141500000Y-92190476D01*
X141547619Y-92142857D01*
X142452381Y-91190476D02*
X142452381Y-91761905D01*
X142452381Y-91476191D02*
X141452381Y-91476191D01*
X141595238Y-91571429D01*
X141690476Y-91666667D01*
X141738095Y-91761905D01*
X142452381Y-90714286D02*
X142452381Y-90523810D01*
X142404762Y-90428571D01*
X142357143Y-90380952D01*
X142214286Y-90285714D01*
X142023810Y-90238095D01*
X141642857Y-90238095D01*
X141547619Y-90285714D01*
X141500000Y-90333333D01*
X141452381Y-90428571D01*
X141452381Y-90619048D01*
X141500000Y-90714286D01*
X141547619Y-90761905D01*
X141642857Y-90809524D01*
X141880952Y-90809524D01*
X141976190Y-90761905D01*
X142023810Y-90714286D01*
X142071429Y-90619048D01*
X142071429Y-90428571D01*
X142023810Y-90333333D01*
X141976190Y-90285714D01*
X141880952Y-90238095D01*
X150557143Y-115742857D02*
X150604762Y-115790476D01*
X150652381Y-115933333D01*
X150652381Y-116028571D01*
X150604762Y-116171429D01*
X150509524Y-116266667D01*
X150414286Y-116314286D01*
X150223810Y-116361905D01*
X150080952Y-116361905D01*
X149890476Y-116314286D01*
X149795238Y-116266667D01*
X149700000Y-116171429D01*
X149652381Y-116028571D01*
X149652381Y-115933333D01*
X149700000Y-115790476D01*
X149747619Y-115742857D01*
X149747619Y-115361905D02*
X149700000Y-115314286D01*
X149652381Y-115219048D01*
X149652381Y-114980952D01*
X149700000Y-114885714D01*
X149747619Y-114838095D01*
X149842857Y-114790476D01*
X149938095Y-114790476D01*
X150080952Y-114838095D01*
X150652381Y-115409524D01*
X150652381Y-114790476D01*
X150652381Y-113838095D02*
X150652381Y-114409524D01*
X150652381Y-114123810D02*
X149652381Y-114123810D01*
X149795238Y-114219048D01*
X149890476Y-114314286D01*
X149938095Y-114409524D01*
X135957143Y-79457143D02*
X135909524Y-79504762D01*
X135766667Y-79552381D01*
X135671429Y-79552381D01*
X135528571Y-79504762D01*
X135433333Y-79409524D01*
X135385714Y-79314286D01*
X135338095Y-79123810D01*
X135338095Y-78980952D01*
X135385714Y-78790476D01*
X135433333Y-78695238D01*
X135528571Y-78600000D01*
X135671429Y-78552381D01*
X135766667Y-78552381D01*
X135909524Y-78600000D01*
X135957143Y-78647619D01*
X136338095Y-78647619D02*
X136385714Y-78600000D01*
X136480952Y-78552381D01*
X136719048Y-78552381D01*
X136814286Y-78600000D01*
X136861905Y-78647619D01*
X136909524Y-78742857D01*
X136909524Y-78838095D01*
X136861905Y-78980952D01*
X136290476Y-79552381D01*
X136909524Y-79552381D01*
X137290476Y-78647619D02*
X137338095Y-78600000D01*
X137433333Y-78552381D01*
X137671429Y-78552381D01*
X137766667Y-78600000D01*
X137814286Y-78647619D01*
X137861905Y-78742857D01*
X137861905Y-78838095D01*
X137814286Y-78980952D01*
X137242857Y-79552381D01*
X137861905Y-79552381D01*
X167367696Y-94342931D02*
X167367696Y-94819122D01*
X167034363Y-93819122D02*
X167367696Y-94342931D01*
X167701030Y-93819122D01*
X168558173Y-94819122D02*
X167986744Y-94819122D01*
X168272458Y-94819122D02*
X168272458Y-93819122D01*
X168177220Y-93961979D01*
X168081982Y-94057217D01*
X167986744Y-94104836D01*
X148952381Y-106061905D02*
X149761905Y-106061905D01*
X149857143Y-106014286D01*
X149904762Y-105966667D01*
X149952381Y-105871429D01*
X149952381Y-105680952D01*
X149904762Y-105585714D01*
X149857143Y-105538095D01*
X149761905Y-105490476D01*
X148952381Y-105490476D01*
X149285714Y-104585714D02*
X149952381Y-104585714D01*
X148904762Y-104823810D02*
X149619048Y-105061905D01*
X149619048Y-104442857D01*
X183438095Y-89052381D02*
X183438095Y-89861905D01*
X183485714Y-89957143D01*
X183533333Y-90004762D01*
X183628571Y-90052381D01*
X183819048Y-90052381D01*
X183914286Y-90004762D01*
X183961905Y-89957143D01*
X184009524Y-89861905D01*
X184009524Y-89052381D01*
X184390476Y-89052381D02*
X185009524Y-89052381D01*
X184676190Y-89433333D01*
X184819048Y-89433333D01*
X184914286Y-89480952D01*
X184961905Y-89528571D01*
X185009524Y-89623810D01*
X185009524Y-89861905D01*
X184961905Y-89957143D01*
X184914286Y-90004762D01*
X184819048Y-90052381D01*
X184533333Y-90052381D01*
X184438095Y-90004762D01*
X184390476Y-89957143D01*
X152438095Y-78552381D02*
X152438095Y-79361905D01*
X152485714Y-79457143D01*
X152533333Y-79504762D01*
X152628571Y-79552381D01*
X152819048Y-79552381D01*
X152914286Y-79504762D01*
X152961905Y-79457143D01*
X153009524Y-79361905D01*
X153009524Y-78552381D01*
X153438095Y-78647619D02*
X153485714Y-78600000D01*
X153580952Y-78552381D01*
X153819048Y-78552381D01*
X153914286Y-78600000D01*
X153961905Y-78647619D01*
X154009524Y-78742857D01*
X154009524Y-78838095D01*
X153961905Y-78980952D01*
X153390476Y-79552381D01*
X154009524Y-79552381D01*
X152138095Y-67952381D02*
X152138095Y-68761905D01*
X152185714Y-68857143D01*
X152233333Y-68904762D01*
X152328571Y-68952381D01*
X152519048Y-68952381D01*
X152614286Y-68904762D01*
X152661905Y-68857143D01*
X152709524Y-68761905D01*
X152709524Y-67952381D01*
X153709524Y-68952381D02*
X153138095Y-68952381D01*
X153423809Y-68952381D02*
X153423809Y-67952381D01*
X153328571Y-68095238D01*
X153233333Y-68190476D01*
X153138095Y-68238095D01*
X175459281Y-124847619D02*
X175364043Y-124800000D01*
X175268805Y-124704762D01*
X175125948Y-124561905D01*
X175030709Y-124514286D01*
X174935471Y-124514286D01*
X174983090Y-124752381D02*
X174887852Y-124704762D01*
X174792614Y-124609524D01*
X174744995Y-124419048D01*
X174744995Y-124085714D01*
X174792614Y-123895238D01*
X174887852Y-123800000D01*
X174983090Y-123752381D01*
X175173567Y-123752381D01*
X175268805Y-123800000D01*
X175364043Y-123895238D01*
X175411662Y-124085714D01*
X175411662Y-124419048D01*
X175364043Y-124609524D01*
X175268805Y-124704762D01*
X175173567Y-124752381D01*
X174983090Y-124752381D01*
X175887852Y-124752381D02*
X176078328Y-124752381D01*
X176173567Y-124704762D01*
X176221186Y-124657143D01*
X176316424Y-124514286D01*
X176364043Y-124323810D01*
X176364043Y-123942857D01*
X176316424Y-123847619D01*
X176268805Y-123800000D01*
X176173567Y-123752381D01*
X175983090Y-123752381D01*
X175887852Y-123800000D01*
X175840233Y-123847619D01*
X175792614Y-123942857D01*
X175792614Y-124180952D01*
X175840233Y-124276190D01*
X175887852Y-124323810D01*
X175983090Y-124371429D01*
X176173567Y-124371429D01*
X176268805Y-124323810D01*
X176316424Y-124276190D01*
X176364043Y-124180952D01*
X171804762Y-124747619D02*
X171709524Y-124700000D01*
X171614286Y-124604762D01*
X171471429Y-124461905D01*
X171376190Y-124414286D01*
X171280952Y-124414286D01*
X171328571Y-124652381D02*
X171233333Y-124604762D01*
X171138095Y-124509524D01*
X171090476Y-124319048D01*
X171090476Y-123985714D01*
X171138095Y-123795238D01*
X171233333Y-123700000D01*
X171328571Y-123652381D01*
X171519048Y-123652381D01*
X171614286Y-123700000D01*
X171709524Y-123795238D01*
X171757143Y-123985714D01*
X171757143Y-124319048D01*
X171709524Y-124509524D01*
X171614286Y-124604762D01*
X171519048Y-124652381D01*
X171328571Y-124652381D01*
X172328571Y-124080952D02*
X172233333Y-124033333D01*
X172185714Y-123985714D01*
X172138095Y-123890476D01*
X172138095Y-123842857D01*
X172185714Y-123747619D01*
X172233333Y-123700000D01*
X172328571Y-123652381D01*
X172519048Y-123652381D01*
X172614286Y-123700000D01*
X172661905Y-123747619D01*
X172709524Y-123842857D01*
X172709524Y-123890476D01*
X172661905Y-123985714D01*
X172614286Y-124033333D01*
X172519048Y-124080952D01*
X172328571Y-124080952D01*
X172233333Y-124128571D01*
X172185714Y-124176190D01*
X172138095Y-124271429D01*
X172138095Y-124461905D01*
X172185714Y-124557143D01*
X172233333Y-124604762D01*
X172328571Y-124652381D01*
X172519048Y-124652381D01*
X172614286Y-124604762D01*
X172661905Y-124557143D01*
X172709524Y-124461905D01*
X172709524Y-124271429D01*
X172661905Y-124176190D01*
X172614286Y-124128571D01*
X172519048Y-124080952D01*
X151459281Y-124647619D02*
X151364043Y-124600000D01*
X151268805Y-124504762D01*
X151125948Y-124361905D01*
X151030709Y-124314286D01*
X150935471Y-124314286D01*
X150983090Y-124552381D02*
X150887852Y-124504762D01*
X150792614Y-124409524D01*
X150744995Y-124219048D01*
X150744995Y-123885714D01*
X150792614Y-123695238D01*
X150887852Y-123600000D01*
X150983090Y-123552381D01*
X151173567Y-123552381D01*
X151268805Y-123600000D01*
X151364043Y-123695238D01*
X151411662Y-123885714D01*
X151411662Y-124219048D01*
X151364043Y-124409524D01*
X151268805Y-124504762D01*
X151173567Y-124552381D01*
X150983090Y-124552381D01*
X151744995Y-123552381D02*
X152411662Y-123552381D01*
X151983090Y-124552381D01*
X155704762Y-124647619D02*
X155609524Y-124600000D01*
X155514286Y-124504762D01*
X155371429Y-124361905D01*
X155276190Y-124314286D01*
X155180952Y-124314286D01*
X155228571Y-124552381D02*
X155133333Y-124504762D01*
X155038095Y-124409524D01*
X154990476Y-124219048D01*
X154990476Y-123885714D01*
X155038095Y-123695238D01*
X155133333Y-123600000D01*
X155228571Y-123552381D01*
X155419048Y-123552381D01*
X155514286Y-123600000D01*
X155609524Y-123695238D01*
X155657143Y-123885714D01*
X155657143Y-124219048D01*
X155609524Y-124409524D01*
X155514286Y-124504762D01*
X155419048Y-124552381D01*
X155228571Y-124552381D01*
X156514286Y-123552381D02*
X156323809Y-123552381D01*
X156228571Y-123600000D01*
X156180952Y-123647619D01*
X156085714Y-123790476D01*
X156038095Y-123980952D01*
X156038095Y-124361905D01*
X156085714Y-124457143D01*
X156133333Y-124504762D01*
X156228571Y-124552381D01*
X156419048Y-124552381D01*
X156514286Y-124504762D01*
X156561905Y-124457143D01*
X156609524Y-124361905D01*
X156609524Y-124123810D01*
X156561905Y-124028571D01*
X156514286Y-123980952D01*
X156419048Y-123933333D01*
X156228571Y-123933333D01*
X156133333Y-123980952D01*
X156085714Y-124028571D01*
X156038095Y-124123810D01*
X159604762Y-124647619D02*
X159509524Y-124600000D01*
X159414286Y-124504762D01*
X159271429Y-124361905D01*
X159176190Y-124314286D01*
X159080952Y-124314286D01*
X159128571Y-124552381D02*
X159033333Y-124504762D01*
X158938095Y-124409524D01*
X158890476Y-124219048D01*
X158890476Y-123885714D01*
X158938095Y-123695238D01*
X159033333Y-123600000D01*
X159128571Y-123552381D01*
X159319048Y-123552381D01*
X159414286Y-123600000D01*
X159509524Y-123695238D01*
X159557143Y-123885714D01*
X159557143Y-124219048D01*
X159509524Y-124409524D01*
X159414286Y-124504762D01*
X159319048Y-124552381D01*
X159128571Y-124552381D01*
X160461905Y-123552381D02*
X159985714Y-123552381D01*
X159938095Y-124028571D01*
X159985714Y-123980952D01*
X160080952Y-123933333D01*
X160319048Y-123933333D01*
X160414286Y-123980952D01*
X160461905Y-124028571D01*
X160509524Y-124123810D01*
X160509524Y-124361905D01*
X160461905Y-124457143D01*
X160414286Y-124504762D01*
X160319048Y-124552381D01*
X160080952Y-124552381D01*
X159985714Y-124504762D01*
X159938095Y-124457143D01*
X163704762Y-124647619D02*
X163609524Y-124600000D01*
X163514286Y-124504762D01*
X163371429Y-124361905D01*
X163276190Y-124314286D01*
X163180952Y-124314286D01*
X163228571Y-124552381D02*
X163133333Y-124504762D01*
X163038095Y-124409524D01*
X162990476Y-124219048D01*
X162990476Y-123885714D01*
X163038095Y-123695238D01*
X163133333Y-123600000D01*
X163228571Y-123552381D01*
X163419048Y-123552381D01*
X163514286Y-123600000D01*
X163609524Y-123695238D01*
X163657143Y-123885714D01*
X163657143Y-124219048D01*
X163609524Y-124409524D01*
X163514286Y-124504762D01*
X163419048Y-124552381D01*
X163228571Y-124552381D01*
X164514286Y-123885714D02*
X164514286Y-124552381D01*
X164276190Y-123504762D02*
X164038095Y-124219048D01*
X164657143Y-124219048D01*
X167604762Y-124747619D02*
X167509524Y-124700000D01*
X167414286Y-124604762D01*
X167271429Y-124461905D01*
X167176190Y-124414286D01*
X167080952Y-124414286D01*
X167128571Y-124652381D02*
X167033333Y-124604762D01*
X166938095Y-124509524D01*
X166890476Y-124319048D01*
X166890476Y-123985714D01*
X166938095Y-123795238D01*
X167033333Y-123700000D01*
X167128571Y-123652381D01*
X167319048Y-123652381D01*
X167414286Y-123700000D01*
X167509524Y-123795238D01*
X167557143Y-123985714D01*
X167557143Y-124319048D01*
X167509524Y-124509524D01*
X167414286Y-124604762D01*
X167319048Y-124652381D01*
X167128571Y-124652381D01*
X167890476Y-123652381D02*
X168509524Y-123652381D01*
X168176190Y-124033333D01*
X168319048Y-124033333D01*
X168414286Y-124080952D01*
X168461905Y-124128571D01*
X168509524Y-124223810D01*
X168509524Y-124461905D01*
X168461905Y-124557143D01*
X168414286Y-124604762D01*
X168319048Y-124652381D01*
X168033333Y-124652381D01*
X167938095Y-124604762D01*
X167890476Y-124557143D01*
X190247619Y-78495238D02*
X190200000Y-78590476D01*
X190104762Y-78685714D01*
X189961905Y-78828571D01*
X189914286Y-78923810D01*
X189914286Y-79019048D01*
X190152381Y-78971429D02*
X190104762Y-79066667D01*
X190009524Y-79161905D01*
X189819048Y-79209524D01*
X189485714Y-79209524D01*
X189295238Y-79161905D01*
X189200000Y-79066667D01*
X189152381Y-78971429D01*
X189152381Y-78780952D01*
X189200000Y-78685714D01*
X189295238Y-78590476D01*
X189485714Y-78542857D01*
X189819048Y-78542857D01*
X190009524Y-78590476D01*
X190104762Y-78685714D01*
X190152381Y-78780952D01*
X190152381Y-78971429D01*
X189247619Y-78161905D02*
X189200000Y-78114286D01*
X189152381Y-78019048D01*
X189152381Y-77780952D01*
X189200000Y-77685714D01*
X189247619Y-77638095D01*
X189342857Y-77590476D01*
X189438095Y-77590476D01*
X189580952Y-77638095D01*
X190152381Y-78209524D01*
X190152381Y-77590476D01*
X187447619Y-95395238D02*
X187400000Y-95490476D01*
X187304762Y-95585714D01*
X187161905Y-95728571D01*
X187114286Y-95823810D01*
X187114286Y-95919048D01*
X187352381Y-95871429D02*
X187304762Y-95966667D01*
X187209524Y-96061905D01*
X187019048Y-96109524D01*
X186685714Y-96109524D01*
X186495238Y-96061905D01*
X186400000Y-95966667D01*
X186352381Y-95871429D01*
X186352381Y-95680952D01*
X186400000Y-95585714D01*
X186495238Y-95490476D01*
X186685714Y-95442857D01*
X187019048Y-95442857D01*
X187209524Y-95490476D01*
X187304762Y-95585714D01*
X187352381Y-95680952D01*
X187352381Y-95871429D01*
X187352381Y-94490476D02*
X187352381Y-95061905D01*
X187352381Y-94776191D02*
X186352381Y-94776191D01*
X186495238Y-94871429D01*
X186590476Y-94966667D01*
X186638095Y-95061905D01*
X135052381Y-81514286D02*
X134052381Y-81514286D01*
X134052381Y-81133333D01*
X134100000Y-81038095D01*
X134147619Y-80990476D01*
X134242857Y-80942857D01*
X134385714Y-80942857D01*
X134480952Y-80990476D01*
X134528571Y-81038095D01*
X134576190Y-81133333D01*
X134576190Y-81514286D01*
X135052381Y-79990476D02*
X135052381Y-80561905D01*
X135052381Y-80276191D02*
X134052381Y-80276191D01*
X134195238Y-80371429D01*
X134290476Y-80466667D01*
X134338095Y-80561905D01*
X134052381Y-79657143D02*
X134052381Y-78990476D01*
X135052381Y-79419048D01*
X131757143Y-85580952D02*
X131804762Y-85628571D01*
X131852381Y-85771428D01*
X131852381Y-85866666D01*
X131804762Y-86009524D01*
X131709524Y-86104762D01*
X131614286Y-86152381D01*
X131423810Y-86200000D01*
X131280952Y-86200000D01*
X131090476Y-86152381D01*
X130995238Y-86104762D01*
X130900000Y-86009524D01*
X130852381Y-85866666D01*
X130852381Y-85771428D01*
X130900000Y-85628571D01*
X130947619Y-85580952D01*
X130852381Y-85152381D02*
X131661905Y-85152381D01*
X131757143Y-85104762D01*
X131804762Y-85057143D01*
X131852381Y-84961905D01*
X131852381Y-84771428D01*
X131804762Y-84676190D01*
X131757143Y-84628571D01*
X131661905Y-84580952D01*
X130852381Y-84580952D01*
X131852381Y-83533333D02*
X131376190Y-83866667D01*
X131852381Y-84104762D02*
X130852381Y-84104762D01*
X130852381Y-83723809D01*
X130900000Y-83628571D01*
X130947619Y-83580952D01*
X131042857Y-83533333D01*
X131185714Y-83533333D01*
X131280952Y-83580952D01*
X131328571Y-83628571D01*
X131376190Y-83723809D01*
X131376190Y-84104762D01*
X131852381Y-82533333D02*
X131376190Y-82866667D01*
X131852381Y-83104762D02*
X130852381Y-83104762D01*
X130852381Y-82723809D01*
X130900000Y-82628571D01*
X130947619Y-82580952D01*
X131042857Y-82533333D01*
X131185714Y-82533333D01*
X131280952Y-82580952D01*
X131328571Y-82628571D01*
X131376190Y-82723809D01*
X131376190Y-83104762D01*
X131328571Y-82104762D02*
X131328571Y-81771428D01*
X131852381Y-81628571D02*
X131852381Y-82104762D01*
X130852381Y-82104762D01*
X130852381Y-81628571D01*
X131852381Y-81200000D02*
X130852381Y-81200000D01*
X131852381Y-80628571D01*
X130852381Y-80628571D01*
X130852381Y-80295238D02*
X130852381Y-79723809D01*
X131852381Y-80009524D02*
X130852381Y-80009524D01*
X131947619Y-79628571D02*
X131947619Y-78866666D01*
X131804762Y-78676190D02*
X131852381Y-78533333D01*
X131852381Y-78295237D01*
X131804762Y-78199999D01*
X131757143Y-78152380D01*
X131661905Y-78104761D01*
X131566667Y-78104761D01*
X131471429Y-78152380D01*
X131423810Y-78199999D01*
X131376190Y-78295237D01*
X131328571Y-78485714D01*
X131280952Y-78580952D01*
X131233333Y-78628571D01*
X131138095Y-78676190D01*
X131042857Y-78676190D01*
X130947619Y-78628571D01*
X130900000Y-78580952D01*
X130852381Y-78485714D01*
X130852381Y-78247618D01*
X130900000Y-78104761D01*
X131328571Y-77676190D02*
X131328571Y-77342856D01*
X131852381Y-77199999D02*
X131852381Y-77676190D01*
X130852381Y-77676190D01*
X130852381Y-77199999D01*
X131852381Y-76771428D02*
X130852381Y-76771428D01*
X131852381Y-76199999D01*
X130852381Y-76199999D01*
X131804762Y-75771428D02*
X131852381Y-75628571D01*
X131852381Y-75390475D01*
X131804762Y-75295237D01*
X131757143Y-75247618D01*
X131661905Y-75199999D01*
X131566667Y-75199999D01*
X131471429Y-75247618D01*
X131423810Y-75295237D01*
X131376190Y-75390475D01*
X131328571Y-75580952D01*
X131280952Y-75676190D01*
X131233333Y-75723809D01*
X131138095Y-75771428D01*
X131042857Y-75771428D01*
X130947619Y-75723809D01*
X130900000Y-75676190D01*
X130852381Y-75580952D01*
X130852381Y-75342856D01*
X130900000Y-75199999D01*
X146685714Y-81752381D02*
X146685714Y-80752381D01*
X147066667Y-80752381D01*
X147161905Y-80800000D01*
X147209524Y-80847619D01*
X147257143Y-80942857D01*
X147257143Y-81085714D01*
X147209524Y-81180952D01*
X147161905Y-81228571D01*
X147066667Y-81276190D01*
X146685714Y-81276190D01*
X148209524Y-81752381D02*
X147638095Y-81752381D01*
X147923809Y-81752381D02*
X147923809Y-80752381D01*
X147828571Y-80895238D01*
X147733333Y-80990476D01*
X147638095Y-81038095D01*
X149066667Y-80752381D02*
X148876190Y-80752381D01*
X148780952Y-80800000D01*
X148733333Y-80847619D01*
X148638095Y-80990476D01*
X148590476Y-81180952D01*
X148590476Y-81561905D01*
X148638095Y-81657143D01*
X148685714Y-81704762D01*
X148780952Y-81752381D01*
X148971429Y-81752381D01*
X149066667Y-81704762D01*
X149114286Y-81657143D01*
X149161905Y-81561905D01*
X149161905Y-81323810D01*
X149114286Y-81228571D01*
X149066667Y-81180952D01*
X148971429Y-81133333D01*
X148780952Y-81133333D01*
X148685714Y-81180952D01*
X148638095Y-81228571D01*
X148590476Y-81323810D01*
X147852381Y-95585714D02*
X147852381Y-95014285D01*
X148852381Y-95300000D02*
X147852381Y-95300000D01*
X148328571Y-94680952D02*
X148328571Y-94347618D01*
X148852381Y-94204761D02*
X148852381Y-94680952D01*
X147852381Y-94680952D01*
X147852381Y-94204761D01*
X148852381Y-93776190D02*
X147852381Y-93776190D01*
X148566667Y-93442856D01*
X147852381Y-93109523D01*
X148852381Y-93109523D01*
X148852381Y-92633333D02*
X147852381Y-92633333D01*
X147852381Y-92252380D01*
X147900000Y-92157142D01*
X147947619Y-92109523D01*
X148042857Y-92061904D01*
X148185714Y-92061904D01*
X148280952Y-92109523D01*
X148328571Y-92157142D01*
X148376190Y-92252380D01*
X148376190Y-92633333D01*
X147947619Y-91680952D02*
X147900000Y-91633333D01*
X147852381Y-91538095D01*
X147852381Y-91299999D01*
X147900000Y-91204761D01*
X147947619Y-91157142D01*
X148042857Y-91109523D01*
X148138095Y-91109523D01*
X148280952Y-91157142D01*
X148852381Y-91728571D01*
X148852381Y-91109523D01*
X143685714Y-81652381D02*
X143685714Y-80652381D01*
X144066667Y-80652381D01*
X144161905Y-80700000D01*
X144209524Y-80747619D01*
X144257143Y-80842857D01*
X144257143Y-80985714D01*
X144209524Y-81080952D01*
X144161905Y-81128571D01*
X144066667Y-81176190D01*
X143685714Y-81176190D01*
X145209524Y-81652381D02*
X144638095Y-81652381D01*
X144923809Y-81652381D02*
X144923809Y-80652381D01*
X144828571Y-80795238D01*
X144733333Y-80890476D01*
X144638095Y-80938095D01*
X146114286Y-80652381D02*
X145638095Y-80652381D01*
X145590476Y-81128571D01*
X145638095Y-81080952D01*
X145733333Y-81033333D01*
X145971429Y-81033333D01*
X146066667Y-81080952D01*
X146114286Y-81128571D01*
X146161905Y-81223810D01*
X146161905Y-81461905D01*
X146114286Y-81557143D01*
X146066667Y-81604762D01*
X145971429Y-81652381D01*
X145733333Y-81652381D01*
X145638095Y-81604762D01*
X145590476Y-81557143D01*
X144252381Y-95185714D02*
X144252381Y-94614285D01*
X145252381Y-94900000D02*
X144252381Y-94900000D01*
X144728571Y-94280952D02*
X144728571Y-93947618D01*
X145252381Y-93804761D02*
X145252381Y-94280952D01*
X144252381Y-94280952D01*
X144252381Y-93804761D01*
X145252381Y-93376190D02*
X144252381Y-93376190D01*
X144966667Y-93042856D01*
X144252381Y-92709523D01*
X145252381Y-92709523D01*
X145252381Y-92233333D02*
X144252381Y-92233333D01*
X144252381Y-91852380D01*
X144300000Y-91757142D01*
X144347619Y-91709523D01*
X144442857Y-91661904D01*
X144585714Y-91661904D01*
X144680952Y-91709523D01*
X144728571Y-91757142D01*
X144776190Y-91852380D01*
X144776190Y-92233333D01*
X145252381Y-90709523D02*
X145252381Y-91280952D01*
X145252381Y-90995238D02*
X144252381Y-90995238D01*
X144395238Y-91090476D01*
X144490476Y-91185714D01*
X144538095Y-91280952D01*
X148052381Y-102814286D02*
X147052381Y-102814286D01*
X147052381Y-102433333D01*
X147100000Y-102338095D01*
X147147619Y-102290476D01*
X147242857Y-102242857D01*
X147385714Y-102242857D01*
X147480952Y-102290476D01*
X147528571Y-102338095D01*
X147576190Y-102433333D01*
X147576190Y-102814286D01*
X148052381Y-101290476D02*
X148052381Y-101861905D01*
X148052381Y-101576191D02*
X147052381Y-101576191D01*
X147195238Y-101671429D01*
X147290476Y-101766667D01*
X147338095Y-101861905D01*
X147385714Y-100433333D02*
X148052381Y-100433333D01*
X147004762Y-100671429D02*
X147719048Y-100909524D01*
X147719048Y-100290476D01*
X142552381Y-106009524D02*
X141552381Y-106009524D01*
X142552381Y-105533334D02*
X141552381Y-105533334D01*
X142552381Y-104961905D01*
X141552381Y-104961905D01*
X141552381Y-104628572D02*
X142552381Y-104295239D01*
X141552381Y-103961905D01*
X142647619Y-103866667D02*
X142647619Y-103104762D01*
X142028571Y-102866667D02*
X142028571Y-102533333D01*
X142552381Y-102390476D02*
X142552381Y-102866667D01*
X141552381Y-102866667D01*
X141552381Y-102390476D01*
X142552381Y-101961905D02*
X141552381Y-101961905D01*
X142552381Y-101390476D01*
X141552381Y-101390476D01*
X157885714Y-136652381D02*
X157885714Y-135652381D01*
X158266667Y-135652381D01*
X158361905Y-135700000D01*
X158409524Y-135747619D01*
X158457143Y-135842857D01*
X158457143Y-135985714D01*
X158409524Y-136080952D01*
X158361905Y-136128571D01*
X158266667Y-136176190D01*
X157885714Y-136176190D01*
X159409524Y-136652381D02*
X158838095Y-136652381D01*
X159123809Y-136652381D02*
X159123809Y-135652381D01*
X159028571Y-135795238D01*
X158933333Y-135890476D01*
X158838095Y-135938095D01*
X159742857Y-135652381D02*
X160361905Y-135652381D01*
X160028571Y-136033333D01*
X160171429Y-136033333D01*
X160266667Y-136080952D01*
X160314286Y-136128571D01*
X160361905Y-136223810D01*
X160361905Y-136461905D01*
X160314286Y-136557143D01*
X160266667Y-136604762D01*
X160171429Y-136652381D01*
X159885714Y-136652381D01*
X159790476Y-136604762D01*
X159742857Y-136557143D01*
X165361905Y-144352381D02*
X165361905Y-143352381D01*
X165600000Y-143352381D01*
X165742858Y-143400000D01*
X165838096Y-143495238D01*
X165885715Y-143590476D01*
X165933334Y-143780952D01*
X165933334Y-143923810D01*
X165885715Y-144114286D01*
X165838096Y-144209524D01*
X165742858Y-144304762D01*
X165600000Y-144352381D01*
X165361905Y-144352381D01*
X166361905Y-144352381D02*
X166361905Y-143352381D01*
X166790476Y-144304762D02*
X166933333Y-144352381D01*
X167171429Y-144352381D01*
X167266667Y-144304762D01*
X167314286Y-144257143D01*
X167361905Y-144161905D01*
X167361905Y-144066667D01*
X167314286Y-143971429D01*
X167266667Y-143923810D01*
X167171429Y-143876190D01*
X166980952Y-143828571D01*
X166885714Y-143780952D01*
X166838095Y-143733333D01*
X166790476Y-143638095D01*
X166790476Y-143542857D01*
X166838095Y-143447619D01*
X166885714Y-143400000D01*
X166980952Y-143352381D01*
X167219048Y-143352381D01*
X167361905Y-143400000D01*
X167790476Y-144352381D02*
X167790476Y-143352381D01*
X168171429Y-143352381D01*
X168266667Y-143400000D01*
X168314286Y-143447619D01*
X168361905Y-143542857D01*
X168361905Y-143685714D01*
X168314286Y-143780952D01*
X168266667Y-143828571D01*
X168171429Y-143876190D01*
X167790476Y-143876190D01*
X169266667Y-144352381D02*
X168790476Y-144352381D01*
X168790476Y-143352381D01*
X169552381Y-144066667D02*
X170028572Y-144066667D01*
X169457143Y-144352381D02*
X169790476Y-143352381D01*
X170123810Y-144352381D01*
X170647619Y-143876190D02*
X170647619Y-144352381D01*
X170314286Y-143352381D02*
X170647619Y-143876190D01*
X170980953Y-143352381D01*
X142685714Y-136652381D02*
X142685714Y-135652381D01*
X143066667Y-135652381D01*
X143161905Y-135700000D01*
X143209524Y-135747619D01*
X143257143Y-135842857D01*
X143257143Y-135985714D01*
X143209524Y-136080952D01*
X143161905Y-136128571D01*
X143066667Y-136176190D01*
X142685714Y-136176190D01*
X144209524Y-136652381D02*
X143638095Y-136652381D01*
X143923809Y-136652381D02*
X143923809Y-135652381D01*
X143828571Y-135795238D01*
X143733333Y-135890476D01*
X143638095Y-135938095D01*
X145161905Y-136652381D02*
X144590476Y-136652381D01*
X144876190Y-136652381D02*
X144876190Y-135652381D01*
X144780952Y-135795238D01*
X144685714Y-135890476D01*
X144590476Y-135938095D01*
X146804762Y-144252381D02*
X146804762Y-143252381D01*
X147376191Y-144252381D02*
X146947619Y-143680952D01*
X147376191Y-143252381D02*
X146804762Y-143823810D01*
X147804762Y-143728571D02*
X148138096Y-143728571D01*
X148280953Y-144252381D02*
X147804762Y-144252381D01*
X147804762Y-143252381D01*
X148280953Y-143252381D01*
X148900000Y-143776190D02*
X148900000Y-144252381D01*
X148566667Y-143252381D02*
X148900000Y-143776190D01*
X149233334Y-143252381D01*
X149900001Y-143728571D02*
X150042858Y-143776190D01*
X150090477Y-143823810D01*
X150138096Y-143919048D01*
X150138096Y-144061905D01*
X150090477Y-144157143D01*
X150042858Y-144204762D01*
X149947620Y-144252381D01*
X149566667Y-144252381D01*
X149566667Y-143252381D01*
X149900001Y-143252381D01*
X149995239Y-143300000D01*
X150042858Y-143347619D01*
X150090477Y-143442857D01*
X150090477Y-143538095D01*
X150042858Y-143633333D01*
X149995239Y-143680952D01*
X149900001Y-143728571D01*
X149566667Y-143728571D01*
X150757143Y-143252381D02*
X150947620Y-143252381D01*
X151042858Y-143300000D01*
X151138096Y-143395238D01*
X151185715Y-143585714D01*
X151185715Y-143919048D01*
X151138096Y-144109524D01*
X151042858Y-144204762D01*
X150947620Y-144252381D01*
X150757143Y-144252381D01*
X150661905Y-144204762D01*
X150566667Y-144109524D01*
X150519048Y-143919048D01*
X150519048Y-143585714D01*
X150566667Y-143395238D01*
X150661905Y-143300000D01*
X150757143Y-143252381D01*
X151566667Y-143966667D02*
X152042858Y-143966667D01*
X151471429Y-144252381D02*
X151804762Y-143252381D01*
X152138096Y-144252381D01*
X153042858Y-144252381D02*
X152709524Y-143776190D01*
X152471429Y-144252381D02*
X152471429Y-143252381D01*
X152852382Y-143252381D01*
X152947620Y-143300000D01*
X152995239Y-143347619D01*
X153042858Y-143442857D01*
X153042858Y-143585714D01*
X152995239Y-143680952D01*
X152947620Y-143728571D01*
X152852382Y-143776190D01*
X152471429Y-143776190D01*
X153471429Y-144252381D02*
X153471429Y-143252381D01*
X153709524Y-143252381D01*
X153852382Y-143300000D01*
X153947620Y-143395238D01*
X153995239Y-143490476D01*
X154042858Y-143680952D01*
X154042858Y-143823810D01*
X153995239Y-144014286D01*
X153947620Y-144109524D01*
X153852382Y-144204762D01*
X153709524Y-144252381D01*
X153471429Y-144252381D01*
X179485714Y-131052381D02*
X179485714Y-130052381D01*
X179866667Y-130052381D01*
X179961905Y-130100000D01*
X180009524Y-130147619D01*
X180057143Y-130242857D01*
X180057143Y-130385714D01*
X180009524Y-130480952D01*
X179961905Y-130528571D01*
X179866667Y-130576190D01*
X179485714Y-130576190D01*
X181009524Y-131052381D02*
X180438095Y-131052381D01*
X180723809Y-131052381D02*
X180723809Y-130052381D01*
X180628571Y-130195238D01*
X180533333Y-130290476D01*
X180438095Y-130338095D01*
X181628571Y-130052381D02*
X181723810Y-130052381D01*
X181819048Y-130100000D01*
X181866667Y-130147619D01*
X181914286Y-130242857D01*
X181961905Y-130433333D01*
X181961905Y-130671429D01*
X181914286Y-130861905D01*
X181866667Y-130957143D01*
X181819048Y-131004762D01*
X181723810Y-131052381D01*
X181628571Y-131052381D01*
X181533333Y-131004762D01*
X181485714Y-130957143D01*
X181438095Y-130861905D01*
X181390476Y-130671429D01*
X181390476Y-130433333D01*
X181438095Y-130242857D01*
X181485714Y-130147619D01*
X181533333Y-130100000D01*
X181628571Y-130052381D01*
X187261905Y-131252381D02*
X187261905Y-130252381D01*
X187595239Y-130966667D01*
X187928572Y-130252381D01*
X187928572Y-131252381D01*
X188404762Y-131252381D02*
X188404762Y-130585714D01*
X188404762Y-130252381D02*
X188357143Y-130300000D01*
X188404762Y-130347619D01*
X188452381Y-130300000D01*
X188404762Y-130252381D01*
X188404762Y-130347619D01*
X189309524Y-131204762D02*
X189214286Y-131252381D01*
X189023809Y-131252381D01*
X188928571Y-131204762D01*
X188880952Y-131157143D01*
X188833333Y-131061905D01*
X188833333Y-130776190D01*
X188880952Y-130680952D01*
X188928571Y-130633333D01*
X189023809Y-130585714D01*
X189214286Y-130585714D01*
X189309524Y-130633333D01*
X189738095Y-131252381D02*
X189738095Y-130585714D01*
X189738095Y-130776190D02*
X189785714Y-130680952D01*
X189833333Y-130633333D01*
X189928571Y-130585714D01*
X190023810Y-130585714D01*
X190500000Y-131252381D02*
X190404762Y-131204762D01*
X190357143Y-131157143D01*
X190309524Y-131061905D01*
X190309524Y-130776190D01*
X190357143Y-130680952D01*
X190404762Y-130633333D01*
X190500000Y-130585714D01*
X190642858Y-130585714D01*
X190738096Y-130633333D01*
X190785715Y-130680952D01*
X190833334Y-130776190D01*
X190833334Y-131061905D01*
X190785715Y-131157143D01*
X190738096Y-131204762D01*
X190642858Y-131252381D01*
X190500000Y-131252381D01*
X191214286Y-131204762D02*
X191357143Y-131252381D01*
X191595239Y-131252381D01*
X191690477Y-131204762D01*
X191738096Y-131157143D01*
X191785715Y-131061905D01*
X191785715Y-130966667D01*
X191738096Y-130871429D01*
X191690477Y-130823810D01*
X191595239Y-130776190D01*
X191404762Y-130728571D01*
X191309524Y-130680952D01*
X191261905Y-130633333D01*
X191214286Y-130538095D01*
X191214286Y-130442857D01*
X191261905Y-130347619D01*
X191309524Y-130300000D01*
X191404762Y-130252381D01*
X191642858Y-130252381D01*
X191785715Y-130300000D01*
X192214286Y-131252381D02*
X192214286Y-130252381D01*
X192452381Y-130252381D01*
X192595239Y-130300000D01*
X192690477Y-130395238D01*
X192738096Y-130490476D01*
X192785715Y-130680952D01*
X192785715Y-130823810D01*
X192738096Y-131014286D01*
X192690477Y-131109524D01*
X192595239Y-131204762D01*
X192452381Y-131252381D01*
X192214286Y-131252381D01*
X192361905Y-92152381D02*
X192361905Y-91152381D01*
X192742858Y-91152381D01*
X192838096Y-91200000D01*
X192885715Y-91247619D01*
X192933334Y-91342857D01*
X192933334Y-91485714D01*
X192885715Y-91580952D01*
X192838096Y-91628571D01*
X192742858Y-91676190D01*
X192361905Y-91676190D01*
X193409524Y-92152381D02*
X193600000Y-92152381D01*
X193695239Y-92104762D01*
X193742858Y-92057143D01*
X193838096Y-91914286D01*
X193885715Y-91723810D01*
X193885715Y-91342857D01*
X193838096Y-91247619D01*
X193790477Y-91200000D01*
X193695239Y-91152381D01*
X193504762Y-91152381D01*
X193409524Y-91200000D01*
X193361905Y-91247619D01*
X193314286Y-91342857D01*
X193314286Y-91580952D01*
X193361905Y-91676190D01*
X193409524Y-91723810D01*
X193504762Y-91771429D01*
X193695239Y-91771429D01*
X193790477Y-91723810D01*
X193838096Y-91676190D01*
X193885715Y-91580952D01*
X195928571Y-86785714D02*
X195928571Y-87119048D01*
X196452381Y-87119048D02*
X195452381Y-87119048D01*
X195452381Y-86642857D01*
X196166667Y-86309524D02*
X196166667Y-85833333D01*
X196452381Y-86404762D02*
X195452381Y-86071429D01*
X196452381Y-85738095D01*
X196452381Y-85404762D02*
X195452381Y-85404762D01*
X196452381Y-84833333D01*
X195452381Y-84833333D01*
X195547619Y-84404762D02*
X195500000Y-84357143D01*
X195452381Y-84261905D01*
X195452381Y-84023809D01*
X195500000Y-83928571D01*
X195547619Y-83880952D01*
X195642857Y-83833333D01*
X195738095Y-83833333D01*
X195880952Y-83880952D01*
X196452381Y-84452381D01*
X196452381Y-83833333D01*
X192861905Y-107252381D02*
X192861905Y-106252381D01*
X193242858Y-106252381D01*
X193338096Y-106300000D01*
X193385715Y-106347619D01*
X193433334Y-106442857D01*
X193433334Y-106585714D01*
X193385715Y-106680952D01*
X193338096Y-106728571D01*
X193242858Y-106776190D01*
X192861905Y-106776190D01*
X194004762Y-106680952D02*
X193909524Y-106633333D01*
X193861905Y-106585714D01*
X193814286Y-106490476D01*
X193814286Y-106442857D01*
X193861905Y-106347619D01*
X193909524Y-106300000D01*
X194004762Y-106252381D01*
X194195239Y-106252381D01*
X194290477Y-106300000D01*
X194338096Y-106347619D01*
X194385715Y-106442857D01*
X194385715Y-106490476D01*
X194338096Y-106585714D01*
X194290477Y-106633333D01*
X194195239Y-106680952D01*
X194004762Y-106680952D01*
X193909524Y-106728571D01*
X193861905Y-106776190D01*
X193814286Y-106871429D01*
X193814286Y-107061905D01*
X193861905Y-107157143D01*
X193909524Y-107204762D01*
X194004762Y-107252381D01*
X194195239Y-107252381D01*
X194290477Y-107204762D01*
X194338096Y-107157143D01*
X194385715Y-107061905D01*
X194385715Y-106871429D01*
X194338096Y-106776190D01*
X194290477Y-106728571D01*
X194195239Y-106680952D01*
X195928571Y-101585714D02*
X195928571Y-101919048D01*
X196452381Y-101919048D02*
X195452381Y-101919048D01*
X195452381Y-101442857D01*
X196166667Y-101109524D02*
X196166667Y-100633333D01*
X196452381Y-101204762D02*
X195452381Y-100871429D01*
X196452381Y-100538095D01*
X196452381Y-100204762D02*
X195452381Y-100204762D01*
X196452381Y-99633333D01*
X195452381Y-99633333D01*
X196452381Y-98633333D02*
X196452381Y-99204762D01*
X196452381Y-98919048D02*
X195452381Y-98919048D01*
X195595238Y-99014286D01*
X195690476Y-99109524D01*
X195738095Y-99204762D01*
X140302381Y-70038095D02*
X139302381Y-70038095D01*
X139302381Y-69657142D01*
X139350000Y-69561904D01*
X139397619Y-69514285D01*
X139492857Y-69466666D01*
X139635714Y-69466666D01*
X139730952Y-69514285D01*
X139778571Y-69561904D01*
X139826190Y-69657142D01*
X139826190Y-70038095D01*
X139302381Y-69133333D02*
X139302381Y-68466666D01*
X140302381Y-68895238D01*
X131928571Y-73804762D02*
X131928571Y-73471428D01*
X132452381Y-73328571D02*
X132452381Y-73804762D01*
X131452381Y-73804762D01*
X131452381Y-73328571D01*
X131452381Y-72995238D02*
X132452381Y-72328571D01*
X131452381Y-72328571D02*
X132452381Y-72995238D01*
X132452381Y-71947619D02*
X131452381Y-71947619D01*
X131452381Y-71566666D01*
X131500000Y-71471428D01*
X131547619Y-71423809D01*
X131642857Y-71376190D01*
X131785714Y-71376190D01*
X131880952Y-71423809D01*
X131928571Y-71471428D01*
X131976190Y-71566666D01*
X131976190Y-71947619D01*
X132166667Y-70995238D02*
X132166667Y-70519047D01*
X132452381Y-71090476D02*
X131452381Y-70757143D01*
X132452381Y-70423809D01*
X132452381Y-70090476D02*
X131452381Y-70090476D01*
X132452381Y-69519047D01*
X131452381Y-69519047D01*
X132404762Y-69090476D02*
X132452381Y-68947619D01*
X132452381Y-68709523D01*
X132404762Y-68614285D01*
X132357143Y-68566666D01*
X132261905Y-68519047D01*
X132166667Y-68519047D01*
X132071429Y-68566666D01*
X132023810Y-68614285D01*
X131976190Y-68709523D01*
X131928571Y-68900000D01*
X131880952Y-68995238D01*
X131833333Y-69042857D01*
X131738095Y-69090476D01*
X131642857Y-69090476D01*
X131547619Y-69042857D01*
X131500000Y-68995238D01*
X131452381Y-68900000D01*
X131452381Y-68661904D01*
X131500000Y-68519047D01*
X132452381Y-68090476D02*
X131452381Y-68090476D01*
X131452381Y-67423810D02*
X131452381Y-67233333D01*
X131500000Y-67138095D01*
X131595238Y-67042857D01*
X131785714Y-66995238D01*
X132119048Y-66995238D01*
X132309524Y-67042857D01*
X132404762Y-67138095D01*
X132452381Y-67233333D01*
X132452381Y-67423810D01*
X132404762Y-67519048D01*
X132309524Y-67614286D01*
X132119048Y-67661905D01*
X131785714Y-67661905D01*
X131595238Y-67614286D01*
X131500000Y-67519048D01*
X131452381Y-67423810D01*
X132452381Y-66566667D02*
X131452381Y-66566667D01*
X132452381Y-65995238D01*
X131452381Y-65995238D01*
X183261905Y-111452381D02*
X183261905Y-110452381D01*
X183642858Y-110452381D01*
X183738096Y-110500000D01*
X183785715Y-110547619D01*
X183833334Y-110642857D01*
X183833334Y-110785714D01*
X183785715Y-110880952D01*
X183738096Y-110928571D01*
X183642858Y-110976190D01*
X183261905Y-110976190D01*
X184690477Y-110452381D02*
X184500000Y-110452381D01*
X184404762Y-110500000D01*
X184357143Y-110547619D01*
X184261905Y-110690476D01*
X184214286Y-110880952D01*
X184214286Y-111261905D01*
X184261905Y-111357143D01*
X184309524Y-111404762D01*
X184404762Y-111452381D01*
X184595239Y-111452381D01*
X184690477Y-111404762D01*
X184738096Y-111357143D01*
X184785715Y-111261905D01*
X184785715Y-111023810D01*
X184738096Y-110928571D01*
X184690477Y-110880952D01*
X184595239Y-110833333D01*
X184404762Y-110833333D01*
X184309524Y-110880952D01*
X184261905Y-110928571D01*
X184214286Y-111023810D01*
X193428571Y-113757142D02*
X193476190Y-113614285D01*
X193523810Y-113566666D01*
X193619048Y-113519047D01*
X193761905Y-113519047D01*
X193857143Y-113566666D01*
X193904762Y-113614285D01*
X193952381Y-113709523D01*
X193952381Y-114090476D01*
X192952381Y-114090476D01*
X192952381Y-113757142D01*
X193000000Y-113661904D01*
X193047619Y-113614285D01*
X193142857Y-113566666D01*
X193238095Y-113566666D01*
X193333333Y-113614285D01*
X193380952Y-113661904D01*
X193428571Y-113757142D01*
X193428571Y-114090476D01*
X192952381Y-113090476D02*
X193761905Y-113090476D01*
X193857143Y-113042857D01*
X193904762Y-112995238D01*
X193952381Y-112900000D01*
X193952381Y-112709523D01*
X193904762Y-112614285D01*
X193857143Y-112566666D01*
X193761905Y-112519047D01*
X192952381Y-112519047D01*
X192952381Y-112138095D02*
X192952381Y-111471428D01*
X193952381Y-112138095D01*
X193952381Y-111471428D01*
X192952381Y-111185714D02*
X192952381Y-110519047D01*
X193952381Y-111185714D01*
X193952381Y-110519047D01*
X193428571Y-110138095D02*
X193428571Y-109804761D01*
X193952381Y-109661904D02*
X193952381Y-110138095D01*
X192952381Y-110138095D01*
X192952381Y-109661904D01*
X193952381Y-108661904D02*
X193476190Y-108995238D01*
X193952381Y-109233333D02*
X192952381Y-109233333D01*
X192952381Y-108852380D01*
X193000000Y-108757142D01*
X193047619Y-108709523D01*
X193142857Y-108661904D01*
X193285714Y-108661904D01*
X193380952Y-108709523D01*
X193428571Y-108757142D01*
X193476190Y-108852380D01*
X193476190Y-109233333D01*
X135152381Y-133238095D02*
X134152381Y-133238095D01*
X134152381Y-132857142D01*
X134200000Y-132761904D01*
X134247619Y-132714285D01*
X134342857Y-132666666D01*
X134485714Y-132666666D01*
X134580952Y-132714285D01*
X134628571Y-132761904D01*
X134676190Y-132857142D01*
X134676190Y-133238095D01*
X134152381Y-131761904D02*
X134152381Y-132238095D01*
X134628571Y-132285714D01*
X134580952Y-132238095D01*
X134533333Y-132142857D01*
X134533333Y-131904761D01*
X134580952Y-131809523D01*
X134628571Y-131761904D01*
X134723810Y-131714285D01*
X134961905Y-131714285D01*
X135057143Y-131761904D01*
X135104762Y-131809523D01*
X135152381Y-131904761D01*
X135152381Y-132142857D01*
X135104762Y-132238095D01*
X135057143Y-132285714D01*
X131552381Y-128038095D02*
X130552381Y-128038095D01*
X130552381Y-127800000D01*
X130600000Y-127657142D01*
X130695238Y-127561904D01*
X130790476Y-127514285D01*
X130980952Y-127466666D01*
X131123810Y-127466666D01*
X131314286Y-127514285D01*
X131409524Y-127561904D01*
X131504762Y-127657142D01*
X131552381Y-127800000D01*
X131552381Y-128038095D01*
X131028571Y-127038095D02*
X131028571Y-126704761D01*
X131552381Y-126561904D02*
X131552381Y-127038095D01*
X130552381Y-127038095D01*
X130552381Y-126561904D01*
X131028571Y-125799999D02*
X131076190Y-125657142D01*
X131123810Y-125609523D01*
X131219048Y-125561904D01*
X131361905Y-125561904D01*
X131457143Y-125609523D01*
X131504762Y-125657142D01*
X131552381Y-125752380D01*
X131552381Y-126133333D01*
X130552381Y-126133333D01*
X130552381Y-125799999D01*
X130600000Y-125704761D01*
X130647619Y-125657142D01*
X130742857Y-125609523D01*
X130838095Y-125609523D01*
X130933333Y-125657142D01*
X130980952Y-125704761D01*
X131028571Y-125799999D01*
X131028571Y-126133333D01*
X130552381Y-125133333D02*
X131361905Y-125133333D01*
X131457143Y-125085714D01*
X131504762Y-125038095D01*
X131552381Y-124942857D01*
X131552381Y-124752380D01*
X131504762Y-124657142D01*
X131457143Y-124609523D01*
X131361905Y-124561904D01*
X130552381Y-124561904D01*
X130600000Y-123561904D02*
X130552381Y-123657142D01*
X130552381Y-123799999D01*
X130600000Y-123942857D01*
X130695238Y-124038095D01*
X130790476Y-124085714D01*
X130980952Y-124133333D01*
X131123810Y-124133333D01*
X131314286Y-124085714D01*
X131409524Y-124038095D01*
X131504762Y-123942857D01*
X131552381Y-123799999D01*
X131552381Y-123704761D01*
X131504762Y-123561904D01*
X131457143Y-123514285D01*
X131123810Y-123514285D01*
X131123810Y-123704761D01*
X130661905Y-136752381D02*
X130661905Y-135752381D01*
X131042858Y-135752381D01*
X131138096Y-135800000D01*
X131185715Y-135847619D01*
X131233334Y-135942857D01*
X131233334Y-136085714D01*
X131185715Y-136180952D01*
X131138096Y-136228571D01*
X131042858Y-136276190D01*
X130661905Y-136276190D01*
X132090477Y-136085714D02*
X132090477Y-136752381D01*
X131852381Y-135704762D02*
X131614286Y-136419048D01*
X132233334Y-136419048D01*
X135323810Y-144352381D02*
X135323810Y-143352381D01*
X135752381Y-144304762D02*
X135895238Y-144352381D01*
X136133334Y-144352381D01*
X136228572Y-144304762D01*
X136276191Y-144257143D01*
X136323810Y-144161905D01*
X136323810Y-144066667D01*
X136276191Y-143971429D01*
X136228572Y-143923810D01*
X136133334Y-143876190D01*
X135942857Y-143828571D01*
X135847619Y-143780952D01*
X135800000Y-143733333D01*
X135752381Y-143638095D01*
X135752381Y-143542857D01*
X135800000Y-143447619D01*
X135847619Y-143400000D01*
X135942857Y-143352381D01*
X136180953Y-143352381D01*
X136323810Y-143400000D01*
X136752381Y-144352381D02*
X136752381Y-143352381D01*
X137133334Y-143352381D01*
X137228572Y-143400000D01*
X137276191Y-143447619D01*
X137323810Y-143542857D01*
X137323810Y-143685714D01*
X137276191Y-143780952D01*
X137228572Y-143828571D01*
X137133334Y-143876190D01*
X136752381Y-143876190D01*
X186161905Y-60152381D02*
X186161905Y-59152381D01*
X186542858Y-59152381D01*
X186638096Y-59200000D01*
X186685715Y-59247619D01*
X186733334Y-59342857D01*
X186733334Y-59485714D01*
X186685715Y-59580952D01*
X186638096Y-59628571D01*
X186542858Y-59676190D01*
X186161905Y-59676190D01*
X187066667Y-59152381D02*
X187685715Y-59152381D01*
X187352381Y-59533333D01*
X187495239Y-59533333D01*
X187590477Y-59580952D01*
X187638096Y-59628571D01*
X187685715Y-59723810D01*
X187685715Y-59961905D01*
X187638096Y-60057143D01*
X187590477Y-60104762D01*
X187495239Y-60152381D01*
X187209524Y-60152381D01*
X187114286Y-60104762D01*
X187066667Y-60057143D01*
X159861905Y-58652381D02*
X159861905Y-57652381D01*
X160242858Y-57652381D01*
X160338096Y-57700000D01*
X160385715Y-57747619D01*
X160433334Y-57842857D01*
X160433334Y-57985714D01*
X160385715Y-58080952D01*
X160338096Y-58128571D01*
X160242858Y-58176190D01*
X159861905Y-58176190D01*
X160814286Y-57747619D02*
X160861905Y-57700000D01*
X160957143Y-57652381D01*
X161195239Y-57652381D01*
X161290477Y-57700000D01*
X161338096Y-57747619D01*
X161385715Y-57842857D01*
X161385715Y-57938095D01*
X161338096Y-58080952D01*
X160766667Y-58652381D01*
X161385715Y-58652381D01*
X151780952Y-53552381D02*
X151780952Y-52552381D01*
X152161905Y-52552381D01*
X152257143Y-52600000D01*
X152304762Y-52647619D01*
X152352381Y-52742857D01*
X152352381Y-52885714D01*
X152304762Y-52980952D01*
X152257143Y-53028571D01*
X152161905Y-53076190D01*
X151780952Y-53076190D01*
X152685714Y-52552381D02*
X152923809Y-53552381D01*
X153114286Y-52838095D01*
X153304762Y-53552381D01*
X153542857Y-52552381D01*
X154495238Y-53552381D02*
X154161904Y-53076190D01*
X153923809Y-53552381D02*
X153923809Y-52552381D01*
X154304762Y-52552381D01*
X154400000Y-52600000D01*
X154447619Y-52647619D01*
X154495238Y-52742857D01*
X154495238Y-52885714D01*
X154447619Y-52980952D01*
X154400000Y-53028571D01*
X154304762Y-53076190D01*
X153923809Y-53076190D01*
X154685714Y-53647619D02*
X155447619Y-53647619D01*
X155876190Y-52552381D02*
X156066667Y-52552381D01*
X156161905Y-52600000D01*
X156257143Y-52695238D01*
X156304762Y-52885714D01*
X156304762Y-53219048D01*
X156257143Y-53409524D01*
X156161905Y-53504762D01*
X156066667Y-53552381D01*
X155876190Y-53552381D01*
X155780952Y-53504762D01*
X155685714Y-53409524D01*
X155638095Y-53219048D01*
X155638095Y-52885714D01*
X155685714Y-52695238D01*
X155780952Y-52600000D01*
X155876190Y-52552381D01*
X156733333Y-52552381D02*
X156733333Y-53361905D01*
X156780952Y-53457143D01*
X156828571Y-53504762D01*
X156923809Y-53552381D01*
X157114286Y-53552381D01*
X157209524Y-53504762D01*
X157257143Y-53457143D01*
X157304762Y-53361905D01*
X157304762Y-52552381D01*
X157638095Y-52552381D02*
X158209524Y-52552381D01*
X157923809Y-53552381D02*
X157923809Y-52552381D01*
X159066667Y-53552381D02*
X158495238Y-53552381D01*
X158780952Y-53552381D02*
X158780952Y-52552381D01*
X158685714Y-52695238D01*
X158590476Y-52790476D01*
X158495238Y-52838095D01*
X159033334Y-99152381D02*
X158557143Y-99152381D01*
X158557143Y-98152381D01*
X159890477Y-99152381D02*
X159319048Y-99152381D01*
X159604762Y-99152381D02*
X159604762Y-98152381D01*
X159509524Y-98295238D01*
X159414286Y-98390476D01*
X159319048Y-98438095D01*
X163767697Y-102369122D02*
X163767697Y-101369122D01*
X164815316Y-102273884D02*
X164767697Y-102321503D01*
X164624840Y-102369122D01*
X164529602Y-102369122D01*
X164386744Y-102321503D01*
X164291506Y-102226265D01*
X164243887Y-102131027D01*
X164196268Y-101940551D01*
X164196268Y-101797693D01*
X164243887Y-101607217D01*
X164291506Y-101511979D01*
X164386744Y-101416741D01*
X164529602Y-101369122D01*
X164624840Y-101369122D01*
X164767697Y-101416741D01*
X164815316Y-101464360D01*
X165767697Y-102369122D02*
X165196268Y-102369122D01*
X165481982Y-102369122D02*
X165481982Y-101369122D01*
X165386744Y-101511979D01*
X165291506Y-101607217D01*
X165196268Y-101654836D01*
X137261905Y-81252381D02*
X137261905Y-80252381D01*
X137500000Y-80252381D01*
X137642858Y-80300000D01*
X137738096Y-80395238D01*
X137785715Y-80490476D01*
X137833334Y-80680952D01*
X137833334Y-80823810D01*
X137785715Y-81014286D01*
X137738096Y-81109524D01*
X137642858Y-81204762D01*
X137500000Y-81252381D01*
X137261905Y-81252381D01*
X138166667Y-80252381D02*
X138785715Y-80252381D01*
X138452381Y-80633333D01*
X138595239Y-80633333D01*
X138690477Y-80680952D01*
X138738096Y-80728571D01*
X138785715Y-80823810D01*
X138785715Y-81061905D01*
X138738096Y-81157143D01*
X138690477Y-81204762D01*
X138595239Y-81252381D01*
X138309524Y-81252381D01*
X138214286Y-81204762D01*
X138166667Y-81157143D01*
X140261905Y-94252381D02*
X140261905Y-93252381D01*
X140500000Y-93252381D01*
X140642858Y-93300000D01*
X140738096Y-93395238D01*
X140785715Y-93490476D01*
X140833334Y-93680952D01*
X140833334Y-93823810D01*
X140785715Y-94014286D01*
X140738096Y-94109524D01*
X140642858Y-94204762D01*
X140500000Y-94252381D01*
X140261905Y-94252381D01*
X141214286Y-93347619D02*
X141261905Y-93300000D01*
X141357143Y-93252381D01*
X141595239Y-93252381D01*
X141690477Y-93300000D01*
X141738096Y-93347619D01*
X141785715Y-93442857D01*
X141785715Y-93538095D01*
X141738096Y-93680952D01*
X141166667Y-94252381D01*
X141785715Y-94252381D01*
X170352381Y-82988095D02*
X169352381Y-82988095D01*
X169352381Y-82750000D01*
X169400000Y-82607142D01*
X169495238Y-82511904D01*
X169590476Y-82464285D01*
X169780952Y-82416666D01*
X169923810Y-82416666D01*
X170114286Y-82464285D01*
X170209524Y-82511904D01*
X170304762Y-82607142D01*
X170352381Y-82750000D01*
X170352381Y-82988095D01*
X170352381Y-81464285D02*
X170352381Y-82035714D01*
X170352381Y-81750000D02*
X169352381Y-81750000D01*
X169495238Y-81845238D01*
X169590476Y-81940476D01*
X169638095Y-82035714D01*
X176357143Y-88167143D02*
X176309524Y-88214762D01*
X176166667Y-88262381D01*
X176071429Y-88262381D01*
X175928571Y-88214762D01*
X175833333Y-88119524D01*
X175785714Y-88024286D01*
X175738095Y-87833810D01*
X175738095Y-87690952D01*
X175785714Y-87500476D01*
X175833333Y-87405238D01*
X175928571Y-87310000D01*
X176071429Y-87262381D01*
X176166667Y-87262381D01*
X176309524Y-87310000D01*
X176357143Y-87357619D01*
X177309524Y-88262381D02*
X176738095Y-88262381D01*
X177023809Y-88262381D02*
X177023809Y-87262381D01*
X176928571Y-87405238D01*
X176833333Y-87500476D01*
X176738095Y-87548095D01*
X178166667Y-87262381D02*
X177976190Y-87262381D01*
X177880952Y-87310000D01*
X177833333Y-87357619D01*
X177738095Y-87500476D01*
X177690476Y-87690952D01*
X177690476Y-88071905D01*
X177738095Y-88167143D01*
X177785714Y-88214762D01*
X177880952Y-88262381D01*
X178071429Y-88262381D01*
X178166667Y-88214762D01*
X178214286Y-88167143D01*
X178261905Y-88071905D01*
X178261905Y-87833810D01*
X178214286Y-87738571D01*
X178166667Y-87690952D01*
X178071429Y-87643333D01*
X177880952Y-87643333D01*
X177785714Y-87690952D01*
X177738095Y-87738571D01*
X177690476Y-87833810D01*
X167957143Y-84947143D02*
X167909524Y-84994762D01*
X167766667Y-85042381D01*
X167671429Y-85042381D01*
X167528571Y-84994762D01*
X167433333Y-84899524D01*
X167385714Y-84804286D01*
X167338095Y-84613810D01*
X167338095Y-84470952D01*
X167385714Y-84280476D01*
X167433333Y-84185238D01*
X167528571Y-84090000D01*
X167671429Y-84042381D01*
X167766667Y-84042381D01*
X167909524Y-84090000D01*
X167957143Y-84137619D01*
X168909524Y-85042381D02*
X168338095Y-85042381D01*
X168623809Y-85042381D02*
X168623809Y-84042381D01*
X168528571Y-84185238D01*
X168433333Y-84280476D01*
X168338095Y-84328095D01*
X169290476Y-84137619D02*
X169338095Y-84090000D01*
X169433333Y-84042381D01*
X169671429Y-84042381D01*
X169766667Y-84090000D01*
X169814286Y-84137619D01*
X169861905Y-84232857D01*
X169861905Y-84328095D01*
X169814286Y-84470952D01*
X169242857Y-85042381D01*
X169861905Y-85042381D01*
X141039143Y-75166666D02*
X141086762Y-75214285D01*
X141134381Y-75357142D01*
X141134381Y-75452380D01*
X141086762Y-75595238D01*
X140991524Y-75690476D01*
X140896286Y-75738095D01*
X140705810Y-75785714D01*
X140562952Y-75785714D01*
X140372476Y-75738095D01*
X140277238Y-75690476D01*
X140182000Y-75595238D01*
X140134381Y-75452380D01*
X140134381Y-75357142D01*
X140182000Y-75214285D01*
X140229619Y-75166666D01*
X140134381Y-74261904D02*
X140134381Y-74738095D01*
X140610571Y-74785714D01*
X140562952Y-74738095D01*
X140515333Y-74642857D01*
X140515333Y-74404761D01*
X140562952Y-74309523D01*
X140610571Y-74261904D01*
X140705810Y-74214285D01*
X140943905Y-74214285D01*
X141039143Y-74261904D01*
X141086762Y-74309523D01*
X141134381Y-74404761D01*
X141134381Y-74642857D01*
X141086762Y-74738095D01*
X141039143Y-74785714D01*
X144833334Y-54039143D02*
X144785715Y-54086762D01*
X144642858Y-54134381D01*
X144547620Y-54134381D01*
X144404762Y-54086762D01*
X144309524Y-53991524D01*
X144261905Y-53896286D01*
X144214286Y-53705810D01*
X144214286Y-53562952D01*
X144261905Y-53372476D01*
X144309524Y-53277238D01*
X144404762Y-53182000D01*
X144547620Y-53134381D01*
X144642858Y-53134381D01*
X144785715Y-53182000D01*
X144833334Y-53229619D01*
X145785715Y-54134381D02*
X145214286Y-54134381D01*
X145500000Y-54134381D02*
X145500000Y-53134381D01*
X145404762Y-53277238D01*
X145309524Y-53372476D01*
X145214286Y-53420095D01*
X184157143Y-129157143D02*
X184109524Y-129204762D01*
X183966667Y-129252381D01*
X183871429Y-129252381D01*
X183728571Y-129204762D01*
X183633333Y-129109524D01*
X183585714Y-129014286D01*
X183538095Y-128823810D01*
X183538095Y-128680952D01*
X183585714Y-128490476D01*
X183633333Y-128395238D01*
X183728571Y-128300000D01*
X183871429Y-128252381D01*
X183966667Y-128252381D01*
X184109524Y-128300000D01*
X184157143Y-128347619D01*
X184538095Y-128347619D02*
X184585714Y-128300000D01*
X184680952Y-128252381D01*
X184919048Y-128252381D01*
X185014286Y-128300000D01*
X185061905Y-128347619D01*
X185109524Y-128442857D01*
X185109524Y-128538095D01*
X185061905Y-128680952D01*
X184490476Y-129252381D01*
X185109524Y-129252381D01*
X185728571Y-128252381D02*
X185823810Y-128252381D01*
X185919048Y-128300000D01*
X185966667Y-128347619D01*
X186014286Y-128442857D01*
X186061905Y-128633333D01*
X186061905Y-128871429D01*
X186014286Y-129061905D01*
X185966667Y-129157143D01*
X185919048Y-129204762D01*
X185823810Y-129252381D01*
X185728571Y-129252381D01*
X185633333Y-129204762D01*
X185585714Y-129157143D01*
X185538095Y-129061905D01*
X185490476Y-128871429D01*
X185490476Y-128633333D01*
X185538095Y-128442857D01*
X185585714Y-128347619D01*
X185633333Y-128300000D01*
X185728571Y-128252381D01*
X145804762Y-124652381D02*
X145471428Y-124176190D01*
X145233333Y-124652381D02*
X145233333Y-123652381D01*
X145614286Y-123652381D01*
X145709524Y-123700000D01*
X145757143Y-123747619D01*
X145804762Y-123842857D01*
X145804762Y-123985714D01*
X145757143Y-124080952D01*
X145709524Y-124128571D01*
X145614286Y-124176190D01*
X145233333Y-124176190D01*
X146090476Y-123652381D02*
X146423809Y-124652381D01*
X146757143Y-123652381D01*
X147614286Y-124652381D02*
X147042857Y-124652381D01*
X147328571Y-124652381D02*
X147328571Y-123652381D01*
X147233333Y-123795238D01*
X147138095Y-123890476D01*
X147042857Y-123938095D01*
X137852381Y-56638095D02*
X136852381Y-56638095D01*
X136852381Y-56257142D01*
X136900000Y-56161904D01*
X136947619Y-56114285D01*
X137042857Y-56066666D01*
X137185714Y-56066666D01*
X137280952Y-56114285D01*
X137328571Y-56161904D01*
X137376190Y-56257142D01*
X137376190Y-56638095D01*
X137852381Y-55114285D02*
X137852381Y-55685714D01*
X137852381Y-55400000D02*
X136852381Y-55400000D01*
X136995238Y-55495238D01*
X137090476Y-55590476D01*
X137138095Y-55685714D01*
X132052381Y-60576190D02*
X131052381Y-60576190D01*
X131052381Y-60195237D01*
X131100000Y-60099999D01*
X131147619Y-60052380D01*
X131242857Y-60004761D01*
X131385714Y-60004761D01*
X131480952Y-60052380D01*
X131528571Y-60099999D01*
X131576190Y-60195237D01*
X131576190Y-60576190D01*
X131052381Y-59671428D02*
X132052381Y-59433333D01*
X131338095Y-59242856D01*
X132052381Y-59052380D01*
X131052381Y-58814285D01*
X132052381Y-57861904D02*
X131576190Y-58195238D01*
X132052381Y-58433333D02*
X131052381Y-58433333D01*
X131052381Y-58052380D01*
X131100000Y-57957142D01*
X131147619Y-57909523D01*
X131242857Y-57861904D01*
X131385714Y-57861904D01*
X131480952Y-57909523D01*
X131528571Y-57957142D01*
X131576190Y-58052380D01*
X131576190Y-58433333D01*
X132147619Y-57671428D02*
X132147619Y-56909523D01*
X132052381Y-56671428D02*
X131052381Y-56671428D01*
X132052381Y-56195238D02*
X131052381Y-56195238D01*
X132052381Y-55623809D01*
X131052381Y-55623809D01*
X140652381Y-115714286D02*
X139652381Y-115714286D01*
X139652381Y-115333333D01*
X139700000Y-115238095D01*
X139747619Y-115190476D01*
X139842857Y-115142857D01*
X139985714Y-115142857D01*
X140080952Y-115190476D01*
X140128571Y-115238095D01*
X140176190Y-115333333D01*
X140176190Y-115714286D01*
X140652381Y-114190476D02*
X140652381Y-114761905D01*
X140652381Y-114476191D02*
X139652381Y-114476191D01*
X139795238Y-114571429D01*
X139890476Y-114666667D01*
X139938095Y-114761905D01*
X139747619Y-113809524D02*
X139700000Y-113761905D01*
X139652381Y-113666667D01*
X139652381Y-113428571D01*
X139700000Y-113333333D01*
X139747619Y-113285714D01*
X139842857Y-113238095D01*
X139938095Y-113238095D01*
X140080952Y-113285714D01*
X140652381Y-113857143D01*
X140652381Y-113238095D01*
X131452381Y-109838095D02*
X130452381Y-109838095D01*
X131452381Y-109361905D02*
X130452381Y-109361905D01*
X131452381Y-108790476D01*
X130452381Y-108790476D01*
X130452381Y-108457143D02*
X131452381Y-108123810D01*
X130452381Y-107790476D01*
X130928571Y-107457143D02*
X130928571Y-107123809D01*
X131452381Y-106980952D02*
X131452381Y-107457143D01*
X130452381Y-107457143D01*
X130452381Y-106980952D01*
X131452381Y-105980952D02*
X130976190Y-106314286D01*
X131452381Y-106552381D02*
X130452381Y-106552381D01*
X130452381Y-106171428D01*
X130500000Y-106076190D01*
X130547619Y-106028571D01*
X130642857Y-105980952D01*
X130785714Y-105980952D01*
X130880952Y-106028571D01*
X130928571Y-106076190D01*
X130976190Y-106171428D01*
X130976190Y-106552381D01*
X130452381Y-105695238D02*
X130452381Y-105123809D01*
X131452381Y-105409524D02*
X130452381Y-105409524D01*
X130928571Y-104790476D02*
X130928571Y-104457142D01*
X131452381Y-104314285D02*
X131452381Y-104790476D01*
X130452381Y-104790476D01*
X130452381Y-104314285D01*
X131452381Y-103314285D02*
X130976190Y-103647619D01*
X131452381Y-103885714D02*
X130452381Y-103885714D01*
X130452381Y-103504761D01*
X130500000Y-103409523D01*
X130547619Y-103361904D01*
X130642857Y-103314285D01*
X130785714Y-103314285D01*
X130880952Y-103361904D01*
X130928571Y-103409523D01*
X130976190Y-103504761D01*
X130976190Y-103885714D01*
%LPC*%
D13*
X166200000Y-68750000D03*
X166200000Y-67250000D03*
X187250000Y-74250000D03*
X187250000Y-75750000D03*
X185000000Y-81200000D03*
X185000000Y-82700000D03*
D14*
X158350000Y-63000000D03*
X159850000Y-63000000D03*
X161350000Y-63000000D03*
X162850000Y-63000000D03*
X130229776Y-91844556D03*
X131729776Y-91844556D03*
X131729776Y-90144556D03*
X130229776Y-90144556D03*
X129129776Y-78144556D03*
X130629776Y-78144556D03*
X130629776Y-76444556D03*
X129129776Y-76444556D03*
X189150000Y-118800000D03*
X190650000Y-118800000D03*
X137364888Y-64972278D03*
X138864888Y-64972278D03*
X138864888Y-63272278D03*
X137364888Y-63272278D03*
D13*
X190600000Y-100510000D03*
X190600000Y-99010000D03*
X190300000Y-85510000D03*
X190300000Y-84010000D03*
D14*
X168304519Y-127442121D03*
X166804519Y-127442121D03*
X164304519Y-127442121D03*
X162804519Y-127442121D03*
X160304519Y-127442121D03*
X158804519Y-127442121D03*
X156304519Y-127442121D03*
X154804519Y-127442121D03*
X152304519Y-127442121D03*
X150804519Y-127442121D03*
X172304519Y-127442121D03*
X170804519Y-127442121D03*
X176304519Y-127442121D03*
X174804519Y-127442121D03*
X166054519Y-133442121D03*
X167554519Y-133442121D03*
X162054519Y-133442121D03*
X163554519Y-133442121D03*
X158054519Y-133442121D03*
X159554519Y-133442121D03*
X154054519Y-133442121D03*
X155554519Y-133442121D03*
X150054519Y-133442121D03*
X151554519Y-133442121D03*
X170054519Y-133442121D03*
X171554519Y-133442121D03*
X174054519Y-133442121D03*
X175554519Y-133442121D03*
D13*
X152150824Y-108274652D03*
X152150824Y-109774652D03*
X152073102Y-111174652D03*
X152073102Y-112674652D03*
X148450824Y-112674652D03*
X148450824Y-111174652D03*
X139800000Y-84050000D03*
X139800000Y-85550000D03*
X151000000Y-83650000D03*
X151000000Y-82150000D03*
X151000000Y-84850000D03*
X151000000Y-86350000D03*
D15*
X176250000Y-80000000D03*
X174750000Y-80000000D03*
D16*
X154343887Y-117016741D03*
X154343887Y-115516741D03*
D15*
X131729776Y-88444556D03*
X130229776Y-88444556D03*
X167093887Y-101166741D03*
X168593887Y-101166741D03*
D16*
X174700000Y-105750000D03*
X174700000Y-107250000D03*
X174400000Y-115550000D03*
X174400000Y-117050000D03*
X171043887Y-96316741D03*
X171043887Y-97816741D03*
D15*
X130629776Y-74744556D03*
X129129776Y-74744556D03*
X165593887Y-121266741D03*
X164093887Y-121266741D03*
X167193887Y-99466741D03*
X168693887Y-99466741D03*
X161093887Y-101166741D03*
X162593887Y-101166741D03*
X138864888Y-61572278D03*
X137364888Y-61572278D03*
D16*
X190500000Y-104110000D03*
X190500000Y-102610000D03*
X190400000Y-88910000D03*
X190400000Y-87410000D03*
X142000000Y-84150000D03*
X142000000Y-85650000D03*
X150350824Y-112724652D03*
X150350824Y-111224652D03*
D15*
X140550000Y-79100000D03*
X139050000Y-79100000D03*
D17*
X166843887Y-97466741D03*
X169043887Y-97466741D03*
X166843887Y-95866741D03*
X169043887Y-95866741D03*
D18*
X150350824Y-109624652D03*
X150350824Y-107724652D03*
X148351844Y-108674652D03*
D19*
X179000000Y-96052000D03*
D20*
X179000000Y-89448000D03*
X176714000Y-89448000D03*
X181286000Y-89448000D03*
D19*
X158000000Y-86302000D03*
D20*
X158000000Y-79698000D03*
X155714000Y-79698000D03*
X160286000Y-79698000D03*
D19*
X158000000Y-72000000D03*
D20*
X158000000Y-65396000D03*
X155714000Y-65396000D03*
X160286000Y-65396000D03*
D18*
X176504519Y-129441361D03*
X174604519Y-129441361D03*
X175554519Y-131440341D03*
X172504519Y-129441361D03*
X170604519Y-129441361D03*
X171554519Y-131440341D03*
X152504519Y-129441361D03*
X150604519Y-129441361D03*
X151554519Y-131440341D03*
X156554519Y-129442121D03*
X154654519Y-129442121D03*
X155604519Y-131441101D03*
X160504519Y-129441361D03*
X158604519Y-129441361D03*
X159554519Y-131440341D03*
X164504519Y-129441361D03*
X162604519Y-129441361D03*
X163554519Y-131440341D03*
X168504519Y-129441361D03*
X166604519Y-129441361D03*
X167554519Y-131440341D03*
X188499240Y-80310000D03*
X188499240Y-82210000D03*
X190498220Y-81260000D03*
X188399240Y-94110000D03*
X188399240Y-96010000D03*
X190398220Y-95060000D03*
D21*
X137160000Y-88900000D03*
D22*
X134620000Y-88900000D03*
X137160000Y-86360000D03*
X134620000Y-86360000D03*
X137160000Y-83820000D03*
X134620000Y-83820000D03*
D23*
X148294888Y-88900000D03*
D24*
X148294888Y-86360000D03*
X148294888Y-83820000D03*
D23*
X144780000Y-88900000D03*
D24*
X144780000Y-86360000D03*
X144780000Y-83820000D03*
D23*
X144916000Y-101600000D03*
D24*
X144916000Y-104140000D03*
X144916000Y-106680000D03*
D21*
X162560000Y-139700000D03*
D22*
X162560000Y-137160000D03*
X165100000Y-139700000D03*
X165100000Y-137160000D03*
X167640000Y-139700000D03*
X167640000Y-137160000D03*
X170180000Y-139700000D03*
X170180000Y-137160000D03*
X172720000Y-139700000D03*
X172720000Y-137160000D03*
X175260000Y-139700000D03*
X175260000Y-137160000D03*
D21*
X147320000Y-139700000D03*
D22*
X147320000Y-137160000D03*
X149860000Y-139700000D03*
X149860000Y-137160000D03*
X152400000Y-139700000D03*
X152400000Y-137160000D03*
X154940000Y-139700000D03*
X154940000Y-137160000D03*
D25*
X179000000Y-133500000D03*
D26*
X189300000Y-133000000D03*
X187100000Y-133000000D03*
X186000000Y-133000000D03*
X184900000Y-133000000D03*
X183800000Y-133000000D03*
X182700000Y-133000000D03*
X181600000Y-133000000D03*
D25*
X193800000Y-133500000D03*
D26*
X188200000Y-133000000D03*
X180500000Y-133000000D03*
D27*
X194700000Y-143100000D03*
X179200000Y-143100000D03*
D28*
X182000000Y-143500000D03*
X190000000Y-143500000D03*
D23*
X193040000Y-88900000D03*
D24*
X193040000Y-86360000D03*
X193040000Y-83820000D03*
X193040000Y-81280000D03*
D23*
X193040000Y-104140000D03*
D24*
X193040000Y-101600000D03*
X193040000Y-99060000D03*
X193040000Y-96520000D03*
D21*
X137160000Y-76200000D03*
D22*
X134620000Y-76200000D03*
X137160000Y-73660000D03*
X134620000Y-73660000D03*
X137160000Y-71120000D03*
X134620000Y-71120000D03*
X137160000Y-68580000D03*
X134620000Y-68580000D03*
D29*
X182000000Y-121000000D03*
X186000000Y-121000000D03*
D23*
X134620000Y-121920000D03*
D24*
X134620000Y-124460000D03*
X134620000Y-127000000D03*
X134620000Y-129540000D03*
D21*
X139700000Y-137160000D03*
D22*
X139700000Y-139700000D03*
X137160000Y-137160000D03*
X137160000Y-139700000D03*
X134620000Y-137160000D03*
X134620000Y-139700000D03*
D30*
X171990000Y-77512278D03*
X173990000Y-77512278D03*
X175990000Y-77512278D03*
X177990000Y-77512278D03*
X179990000Y-77512278D03*
X181990000Y-77512278D03*
D31*
X169000000Y-61762278D03*
X169000000Y-63762278D03*
X169000000Y-65762278D03*
X169000000Y-67762278D03*
X169000000Y-69762278D03*
X169000000Y-71762278D03*
X169000000Y-73762278D03*
X169000000Y-75762278D03*
X185000000Y-75762278D03*
X185000000Y-73762278D03*
X185000000Y-71762278D03*
X185000000Y-69762278D03*
X185000000Y-67762278D03*
X185000000Y-65762278D03*
X185000000Y-63762278D03*
X185000000Y-61762278D03*
D21*
X152400000Y-58420000D03*
D22*
X152400000Y-55880000D03*
X154940000Y-58420000D03*
X154940000Y-55880000D03*
X157480000Y-58420000D03*
X157480000Y-55880000D03*
D32*
X163993887Y-98666741D03*
X161093887Y-98666741D03*
D33*
X157043887Y-105366741D03*
X157043887Y-106166741D03*
X157043887Y-106966741D03*
X157043887Y-107766741D03*
X157043887Y-108566741D03*
X157043887Y-109366741D03*
X157043887Y-110166741D03*
X157043887Y-110966741D03*
X157043887Y-111766741D03*
X157043887Y-112566741D03*
X157043887Y-113366741D03*
X157043887Y-114166741D03*
X157043887Y-114966741D03*
X157043887Y-115766741D03*
X157043887Y-116566741D03*
X157043887Y-117366741D03*
D34*
X158743887Y-119066741D03*
X159543887Y-119066741D03*
X160343887Y-119066741D03*
X161143887Y-119066741D03*
X161943887Y-119066741D03*
X162743887Y-119066741D03*
X163543887Y-119066741D03*
X164343887Y-119066741D03*
X165143887Y-119066741D03*
X165943887Y-119066741D03*
X166743887Y-119066741D03*
X167543887Y-119066741D03*
X168343887Y-119066741D03*
X169143887Y-119066741D03*
X169943887Y-119066741D03*
X170743887Y-119066741D03*
D33*
X172443887Y-117366741D03*
X172443887Y-116566741D03*
X172443887Y-115766741D03*
X172443887Y-114966741D03*
X172443887Y-114166741D03*
X172443887Y-113366741D03*
X172443887Y-112566741D03*
X172443887Y-111766741D03*
X172443887Y-110966741D03*
X172443887Y-110166741D03*
X172443887Y-109366741D03*
X172443887Y-108566741D03*
X172443887Y-107766741D03*
X172443887Y-106966741D03*
X172443887Y-106166741D03*
X172443887Y-105366741D03*
D34*
X170743887Y-103666741D03*
X169943887Y-103666741D03*
X169143887Y-103666741D03*
X168343887Y-103666741D03*
X167543887Y-103666741D03*
X166743887Y-103666741D03*
X165943887Y-103666741D03*
X165143887Y-103666741D03*
X164343887Y-103666741D03*
X163543887Y-103666741D03*
X162743887Y-103666741D03*
X161943887Y-103666741D03*
X161143887Y-103666741D03*
X160343887Y-103666741D03*
X159543887Y-103666741D03*
X158743887Y-103666741D03*
D18*
X141950000Y-80600000D03*
X140050000Y-80600000D03*
X141000000Y-82598980D03*
X141944888Y-87071518D03*
X140044888Y-87071518D03*
X140994888Y-89070498D03*
D35*
X171750000Y-83305000D03*
X171750000Y-81195000D03*
D36*
X174800360Y-84000000D03*
X179199640Y-84000000D03*
X170799640Y-88400000D03*
X166400360Y-88400000D03*
D37*
X145000000Y-72249180D03*
X145000000Y-77750820D03*
D38*
X147750820Y-58000000D03*
X142249180Y-58000000D03*
D15*
X184050000Y-130700000D03*
X185550000Y-130700000D03*
D39*
X141000640Y-127039360D03*
X138501280Y-122000000D03*
X143500000Y-122000000D03*
D23*
X134620000Y-60960000D03*
D24*
X134620000Y-58420000D03*
X134620000Y-55880000D03*
D40*
X191000000Y-123000000D03*
X191000000Y-73000000D03*
X144000000Y-65000000D03*
X144000000Y-131000000D03*
D21*
X137160000Y-114300000D03*
D22*
X134620000Y-114300000D03*
X137160000Y-111760000D03*
X134620000Y-111760000D03*
X137160000Y-109220000D03*
X134620000Y-109220000D03*
X137160000Y-106680000D03*
X134620000Y-106680000D03*
X137160000Y-104140000D03*
X134620000Y-104140000D03*
X137160000Y-101600000D03*
X134620000Y-101600000D03*
X137160000Y-99060000D03*
X134620000Y-99060000D03*
X137160000Y-96520000D03*
X134620000Y-96520000D03*
M02*
