M48
;DRILL file {KiCad 4.0.1-stable} date 18.06.2016 02:57:05
;FORMAT={-:-/ absolute / metric / decimal}
FMAT,2
METRIC,TZ
T1C0.500
T2C1.016
T3C1.199
T4C1.000
T5C3.000
%
G90
G05
M71
T1
X129.3Y-72.4
X129.988Y-87.462
X130.647Y-79.827
X132.3Y-95.7
X132.32Y-102.091
X132.93Y-91.4
X139.46Y-67.982
X140.006Y-95.903
X141.636Y-96.388
X142.Y-91.9
X142.8Y-82.7
X143.058Y-109.888
X143.439Y-95.86
X147.1Y-77.8
X150.4Y-61.9
X153.994Y-106.513
X154.742Y-108.37
X156.8Y-96.6
X158.153Y-97.847
X158.6Y-60.9
X158.625Y-106.232
X158.744Y-112.
X158.897Y-110.275
X159.1Y-115.2
X159.244Y-99.151
X161.513Y-116.487
X162.1Y-96.2
X162.199Y-106.751
X162.7Y-112.5
X163.2Y-122.7
X163.797Y-107.399
X164.2Y-115.4
X164.412Y-112.249
X164.9Y-83.8
X165.819Y-123.101
X166.2Y-116.55
X166.307Y-112.56
X167.Y-120.8
X167.019Y-105.844
X167.525Y-107.467
X168.391Y-123.75
X168.4Y-116.9
X168.588Y-113.316
X169.764Y-105.367
X170.055Y-99.858
X170.2Y-121.4
X170.635Y-115.011
X170.744Y-113.314
X172.Y-120.8
X173.286Y-103.255
X173.58Y-101.571
X173.68Y-118.505
X175.376Y-118.385
X175.4Y-102.9
X175.75Y-120.043
X175.9Y-116.7
X176.1Y-107.3
X176.5Y-100.9
X178.05Y-120.872
X178.25Y-119.18
X178.525Y-102.9
X178.566Y-106.797
X178.7Y-100.7
X179.3Y-86.9
X179.4Y-130.4
X179.522Y-105.239
X180.4Y-112.1
X180.5Y-141.
X182.2Y-130.5
X183.5Y-111.3
X186.7Y-85.7
X193.Y-142.1
X193.7Y-131.1
T2
X134.62Y-55.88
X134.62Y-58.42
X134.62Y-60.96
X134.62Y-68.58
X134.62Y-71.12
X134.62Y-73.66
X134.62Y-76.2
X134.62Y-83.82
X134.62Y-86.36
X134.62Y-88.9
X134.62Y-96.52
X134.62Y-99.06
X134.62Y-101.6
X134.62Y-104.14
X134.62Y-106.68
X134.62Y-109.22
X134.62Y-111.76
X134.62Y-114.3
X134.62Y-121.92
X134.62Y-124.46
X134.62Y-127.
X134.62Y-129.54
X134.62Y-137.16
X134.62Y-139.7
X137.16Y-68.58
X137.16Y-71.12
X137.16Y-73.66
X137.16Y-76.2
X137.16Y-83.82
X137.16Y-86.36
X137.16Y-88.9
X137.16Y-96.52
X137.16Y-99.06
X137.16Y-101.6
X137.16Y-104.14
X137.16Y-106.68
X137.16Y-109.22
X137.16Y-111.76
X137.16Y-114.3
X137.16Y-137.16
X137.16Y-139.7
X139.7Y-137.16
X139.7Y-139.7
X144.78Y-83.82
X144.78Y-86.36
X144.78Y-88.9
X144.916Y-101.6
X144.916Y-104.14
X144.916Y-106.68
X147.32Y-137.16
X147.32Y-139.7
X148.295Y-83.82
X148.295Y-86.36
X148.295Y-88.9
X149.86Y-137.16
X149.86Y-139.7
X152.4Y-55.88
X152.4Y-58.42
X152.4Y-137.16
X152.4Y-139.7
X154.94Y-55.88
X154.94Y-58.42
X154.94Y-137.16
X154.94Y-139.7
X157.48Y-55.88
X157.48Y-58.42
X162.56Y-137.16
X162.56Y-139.7
X165.1Y-137.16
X165.1Y-139.7
X167.64Y-137.16
X167.64Y-139.7
X170.18Y-137.16
X170.18Y-139.7
X172.72Y-137.16
X172.72Y-139.7
X175.26Y-137.16
X175.26Y-139.7
X193.04Y-81.28
X193.04Y-83.82
X193.04Y-86.36
X193.04Y-88.9
X193.04Y-96.52
X193.04Y-99.06
X193.04Y-101.6
X193.04Y-104.14
T3
X138.501Y-122.
X141.001Y-127.039
X143.5Y-122.
T4
X182.Y-143.5
X190.Y-143.5
T5
X144.Y-65.
X144.Y-131.
X191.Y-73.
X191.Y-123.
T0
M30
