G04 #@! TF.FileFunction,Copper,L2,Bot,Signal*
%FSLAX46Y46*%
G04 Gerber Fmt 4.6, Leading zero omitted, Abs format (unit mm)*
G04 Created by KiCad (PCBNEW 4.0.1-stable) date 23.06.2016 01:41:27*
%MOMM*%
G01*
G04 APERTURE LIST*
%ADD10C,0.100000*%
%ADD11R,1.800000X1.800000*%
%ADD12O,1.800000X1.800000*%
%ADD13R,2.032000X1.800000*%
%ADD14O,2.032000X1.800000*%
%ADD15C,2.000000*%
%ADD16C,2.499360*%
%ADD17C,6.000000*%
%ADD18C,1.300000*%
%ADD19C,0.900000*%
%ADD20C,1.000000*%
%ADD21C,0.250000*%
%ADD22C,0.400000*%
%ADD23C,0.200000*%
%ADD24C,0.254000*%
G04 APERTURE END LIST*
D10*
D11*
X137160000Y-88900000D03*
D12*
X134620000Y-88900000D03*
X137160000Y-86360000D03*
X134620000Y-86360000D03*
X137160000Y-83820000D03*
X134620000Y-83820000D03*
D13*
X148294888Y-88900000D03*
D14*
X148294888Y-86360000D03*
X148294888Y-83820000D03*
D13*
X144780000Y-88900000D03*
D14*
X144780000Y-86360000D03*
X144780000Y-83820000D03*
D13*
X144916000Y-101600000D03*
D14*
X144916000Y-104140000D03*
X144916000Y-106680000D03*
D11*
X162560000Y-139700000D03*
D12*
X162560000Y-137160000D03*
X165100000Y-139700000D03*
X165100000Y-137160000D03*
X167640000Y-139700000D03*
X167640000Y-137160000D03*
X170180000Y-139700000D03*
X170180000Y-137160000D03*
X172720000Y-139700000D03*
X172720000Y-137160000D03*
X175260000Y-139700000D03*
X175260000Y-137160000D03*
D11*
X147320000Y-139700000D03*
D12*
X147320000Y-137160000D03*
X149860000Y-139700000D03*
X149860000Y-137160000D03*
X152400000Y-139700000D03*
X152400000Y-137160000D03*
X154940000Y-139700000D03*
X154940000Y-137160000D03*
D15*
X182000000Y-143500000D03*
X190000000Y-143500000D03*
D13*
X193040000Y-88900000D03*
D14*
X193040000Y-86360000D03*
X193040000Y-83820000D03*
X193040000Y-81280000D03*
D13*
X193040000Y-104140000D03*
D14*
X193040000Y-101600000D03*
X193040000Y-99060000D03*
X193040000Y-96520000D03*
D11*
X137160000Y-76200000D03*
D12*
X134620000Y-76200000D03*
X137160000Y-73660000D03*
X134620000Y-73660000D03*
X137160000Y-71120000D03*
X134620000Y-71120000D03*
X137160000Y-68580000D03*
X134620000Y-68580000D03*
D13*
X134620000Y-121920000D03*
D14*
X134620000Y-124460000D03*
X134620000Y-127000000D03*
X134620000Y-129540000D03*
D11*
X139700000Y-137160000D03*
D12*
X139700000Y-139700000D03*
X137160000Y-137160000D03*
X137160000Y-139700000D03*
X134620000Y-137160000D03*
X134620000Y-139700000D03*
D11*
X152400000Y-58420000D03*
D12*
X152400000Y-55880000D03*
X154940000Y-58420000D03*
X154940000Y-55880000D03*
X157480000Y-58420000D03*
X157480000Y-55880000D03*
D16*
X141000640Y-127039360D03*
X138501280Y-122000000D03*
X143500000Y-122000000D03*
D13*
X134620000Y-60960000D03*
D14*
X134620000Y-58420000D03*
X134620000Y-55880000D03*
D17*
X191000000Y-123000000D03*
X191000000Y-73000000D03*
X144000000Y-65000000D03*
X144000000Y-131000000D03*
D11*
X137160000Y-114300000D03*
D12*
X134620000Y-114300000D03*
X137160000Y-111760000D03*
X134620000Y-111760000D03*
X137160000Y-109220000D03*
X134620000Y-109220000D03*
X137160000Y-106680000D03*
X134620000Y-106680000D03*
X137160000Y-104140000D03*
X134620000Y-104140000D03*
X137160000Y-101600000D03*
X134620000Y-101600000D03*
X137160000Y-99060000D03*
X134620000Y-99060000D03*
X137160000Y-96520000D03*
X134620000Y-96520000D03*
D18*
X132300075Y-95700000D03*
X132929804Y-91400000D03*
X132319979Y-102090687D03*
X163600000Y-122650000D03*
X130250020Y-87050000D03*
X175900000Y-107000000D03*
X170054529Y-99858376D03*
X164900000Y-83800000D03*
X186700000Y-85700000D03*
X162100000Y-96200000D03*
X175900000Y-116700000D03*
X193700000Y-131100000D03*
X193000000Y-142100000D03*
X180500000Y-141000000D03*
X182200000Y-130500000D03*
X179400000Y-130400000D03*
X179300000Y-86900000D03*
X147100000Y-77800000D03*
X142800000Y-82700000D03*
X129300000Y-72400000D03*
X158600000Y-60900000D03*
X165819166Y-123101141D03*
X167000006Y-120800000D03*
X143058266Y-109888085D03*
D19*
X142700000Y-95600000D03*
X141700000Y-92200000D03*
X141200000Y-95600000D03*
X130646967Y-79826660D03*
D18*
X150350000Y-62450000D03*
D19*
X140100000Y-95600000D03*
X139459973Y-67981846D03*
X159550000Y-101000000D03*
X158500000Y-112400000D03*
X159550000Y-99900000D03*
X158600000Y-110400000D03*
X162600000Y-112900000D03*
X178250020Y-119180100D03*
X159100000Y-115200000D03*
X173680228Y-118505376D03*
X177700000Y-107000000D03*
X165200000Y-116100000D03*
X175700000Y-104900000D03*
X166500000Y-117100000D03*
X168100000Y-117400000D03*
X168390888Y-123750020D03*
X161600000Y-116600000D03*
X175600000Y-103800000D03*
X170200000Y-121400000D03*
X175375940Y-118384548D03*
X172000000Y-120800000D03*
X175749980Y-120042901D03*
X177700000Y-108100000D03*
X170700000Y-115300000D03*
X176800000Y-104900000D03*
X171100000Y-114100000D03*
X170100000Y-112900000D03*
X178050020Y-120872178D03*
X155362325Y-108723421D03*
X160000000Y-107900000D03*
X154843855Y-107665118D03*
X160600000Y-106900000D03*
X173100000Y-102400000D03*
X169764188Y-105366753D03*
X173300000Y-103500000D03*
X167018900Y-105844026D03*
X167543993Y-107447949D03*
X174300000Y-104000000D03*
X174200000Y-112700000D03*
X166400000Y-112800000D03*
X175400000Y-111700000D03*
X164500000Y-112000000D03*
X158550000Y-100400000D03*
X158800000Y-105100000D03*
D20*
X132929804Y-95070271D02*
X132300075Y-95700000D01*
X132929804Y-91400000D02*
X132929804Y-95070271D01*
X132570687Y-102090687D02*
X132319979Y-102090687D01*
X134620000Y-104140000D02*
X132570687Y-102090687D01*
D21*
X137160000Y-73660000D02*
X135934999Y-74885001D01*
X135934999Y-74885001D02*
X135934999Y-82505001D01*
X135934999Y-82505001D02*
X135519999Y-82920001D01*
X135519999Y-82920001D02*
X134620000Y-83820000D01*
D22*
X144200000Y-122700000D02*
X143500000Y-122000000D01*
X163600000Y-122650000D02*
X163600000Y-125500000D01*
X163600000Y-122650000D02*
X163550000Y-122700000D01*
X163600000Y-125500000D02*
X175260000Y-137160000D01*
X163550000Y-122700000D02*
X144200000Y-122700000D01*
X128650001Y-73049999D02*
X128650001Y-85449981D01*
X128650001Y-85449981D02*
X129600021Y-86400001D01*
X129300000Y-72400000D02*
X128650001Y-73049999D01*
X129600021Y-86400001D02*
X130250020Y-87050000D01*
X175900000Y-107000000D02*
X176100000Y-107000000D01*
X176100000Y-107000000D02*
X178949998Y-104150002D01*
X178949998Y-104150002D02*
X179152002Y-104150002D01*
X179152002Y-104150002D02*
X179702004Y-103600000D01*
X179702004Y-103600000D02*
X180800000Y-103600000D01*
X180800000Y-103600000D02*
X181340000Y-104140000D01*
X181340000Y-104140000D02*
X191624000Y-104140000D01*
X147100000Y-76739340D02*
X147100000Y-77800000D01*
X140100000Y-60780000D02*
X140100000Y-66677118D01*
X147100000Y-73677118D02*
X147100000Y-76739340D01*
X140100000Y-66677118D02*
X147100000Y-73677118D01*
X191624000Y-104140000D02*
X191624000Y-106076000D01*
X191624000Y-106076000D02*
X182200000Y-115500000D01*
X182200000Y-115500000D02*
X182200000Y-129439340D01*
X182200000Y-129439340D02*
X182200000Y-130500000D01*
X191624000Y-104140000D02*
X193040000Y-104140000D01*
X169304530Y-99108377D02*
X170054529Y-99858376D01*
X166396153Y-96200000D02*
X169304530Y-99108377D01*
X170804528Y-99108377D02*
X170054529Y-99858376D01*
X179300000Y-90612905D02*
X170804528Y-99108377D01*
X179300000Y-86900000D02*
X179300000Y-90612905D01*
X162100000Y-96200000D02*
X166396153Y-96200000D01*
X159296153Y-89100000D02*
X170054529Y-99858376D01*
D21*
X137160000Y-88900000D02*
X137160000Y-88173002D01*
X133394999Y-84408001D02*
X133394999Y-74885001D01*
X137160000Y-88173002D02*
X135845001Y-86858003D01*
X135845001Y-86858003D02*
X135845001Y-85771999D01*
X135845001Y-85771999D02*
X135118003Y-85045001D01*
X133720001Y-74559999D02*
X134620000Y-73660000D01*
X135118003Y-85045001D02*
X134031999Y-85045001D01*
X134031999Y-85045001D02*
X133394999Y-84408001D01*
X133394999Y-74885001D02*
X133720001Y-74559999D01*
D22*
X144780000Y-88900000D02*
X144664000Y-88900000D01*
X144664000Y-88900000D02*
X143200000Y-87436000D01*
X143200000Y-87436000D02*
X143200000Y-83100000D01*
X143200000Y-83100000D02*
X142800000Y-82700000D01*
X159096153Y-88900000D02*
X159296153Y-89100000D01*
X164900000Y-83800000D02*
X159600000Y-89100000D01*
X159600000Y-89100000D02*
X159296153Y-89100000D01*
X140100000Y-60780000D02*
X135416000Y-60780000D01*
X146180000Y-60780000D02*
X140100000Y-60780000D01*
X185600000Y-86900000D02*
X191040000Y-86900000D01*
X179300000Y-86900000D02*
X185600000Y-86900000D01*
X185600000Y-86900000D02*
X185600000Y-86800000D01*
X185600000Y-86800000D02*
X186700000Y-85700000D01*
X137160000Y-88900000D02*
X144780000Y-88900000D01*
X176900000Y-117700000D02*
X176900000Y-127900000D01*
X176900000Y-127900000D02*
X179400000Y-130400000D01*
X175900000Y-116700000D02*
X176900000Y-117700000D01*
X130700000Y-124424000D02*
X130700000Y-135780000D01*
X130700000Y-135780000D02*
X134620000Y-139700000D01*
X134620000Y-121920000D02*
X133204000Y-121920000D01*
X133204000Y-121920000D02*
X130700000Y-124424000D01*
X193700000Y-131100000D02*
X193700000Y-141400000D01*
X193700000Y-141400000D02*
X193000000Y-142100000D01*
X193000000Y-142100000D02*
X191939340Y-142100000D01*
X191939340Y-142100000D02*
X190839340Y-141000000D01*
X190839340Y-141000000D02*
X181560660Y-141000000D01*
X181560660Y-141000000D02*
X180500000Y-141000000D01*
X180500000Y-141000000D02*
X176660000Y-137160000D01*
X176660000Y-137160000D02*
X175260000Y-137160000D01*
X175260000Y-137160000D02*
X179400000Y-133020000D01*
X179400000Y-133020000D02*
X179400000Y-130400000D01*
X179400000Y-130400000D02*
X182100000Y-130400000D01*
X182100000Y-130400000D02*
X182200000Y-130500000D01*
X148100000Y-107700000D02*
X144040000Y-111760000D01*
X144040000Y-111760000D02*
X137160000Y-111760000D01*
X148100000Y-103368000D02*
X148100000Y-107700000D01*
X144916000Y-101600000D02*
X146332000Y-101600000D01*
X146332000Y-101600000D02*
X148100000Y-103368000D01*
X137160000Y-99060000D02*
X137160000Y-101600000D01*
X137160000Y-101600000D02*
X138432792Y-101600000D01*
X138432792Y-101600000D02*
X144916000Y-101600000D01*
X137160000Y-104140000D02*
X137160000Y-106680000D01*
X137160000Y-109220000D02*
X137160000Y-106680000D01*
X137160000Y-111760000D02*
X137160000Y-109220000D01*
X137160000Y-114300000D02*
X137160000Y-111760000D01*
X143500000Y-122000000D02*
X137160000Y-115660000D01*
X137160000Y-115660000D02*
X137160000Y-114300000D01*
X139350959Y-133050959D02*
X146000000Y-139700000D01*
X146000000Y-139700000D02*
X147320000Y-139700000D01*
X143500000Y-122000000D02*
X141732686Y-122000000D01*
X141732686Y-122000000D02*
X139350959Y-124381727D01*
X139350959Y-124381727D02*
X139350959Y-133050959D01*
X157160000Y-143800000D02*
X138720000Y-143800000D01*
X138720000Y-143800000D02*
X134620000Y-139700000D01*
X162560000Y-139700000D02*
X161260000Y-139700000D01*
X161260000Y-139700000D02*
X157160000Y-143800000D01*
X134620000Y-121920000D02*
X134620000Y-116840000D01*
X134620000Y-116840000D02*
X137160000Y-114300000D01*
X148294888Y-88900000D02*
X159096153Y-88900000D01*
X191040000Y-86900000D02*
X191624000Y-87484000D01*
X191624000Y-87484000D02*
X191624000Y-87600000D01*
X191624000Y-87600000D02*
X192924000Y-88900000D01*
X192924000Y-88900000D02*
X193040000Y-88900000D01*
X193040000Y-104140000D02*
X193156000Y-104140000D01*
X193040000Y-90200000D02*
X193040000Y-88900000D01*
X193156000Y-104140000D02*
X194456010Y-102839990D01*
X194456010Y-102839990D02*
X194456010Y-91616010D01*
X194456010Y-91616010D02*
X193040000Y-90200000D01*
X149100000Y-63700000D02*
X146180000Y-60780000D01*
X134116000Y-62080000D02*
X134000000Y-62080000D01*
X135416000Y-60780000D02*
X134116000Y-62080000D01*
X151700000Y-63700000D02*
X149100000Y-63700000D01*
X152000000Y-63400000D02*
X151700000Y-63700000D01*
X152000000Y-60120000D02*
X152000000Y-63400000D01*
X152400000Y-58420000D02*
X152400000Y-59720000D01*
X152400000Y-59720000D02*
X152000000Y-60120000D01*
X152400000Y-55880000D02*
X152400000Y-58420000D01*
X130580000Y-71120000D02*
X132300000Y-71120000D01*
X134000000Y-62080000D02*
X134000000Y-63380000D01*
X132300000Y-71120000D02*
X134620000Y-71120000D01*
X134000000Y-63380000D02*
X132300000Y-65080000D01*
X132300000Y-65080000D02*
X132300000Y-71120000D01*
X147100000Y-77800000D02*
X142800000Y-82100000D01*
X142800000Y-82100000D02*
X142800000Y-82700000D01*
X129300000Y-72400000D02*
X130580000Y-71120000D01*
X158600000Y-60900000D02*
X157420000Y-60900000D01*
X157420000Y-60900000D02*
X154940000Y-58420000D01*
X167000006Y-121920301D02*
X166569165Y-122351142D01*
X167000006Y-120800000D02*
X167000006Y-121920301D01*
X166569165Y-122351142D02*
X165819166Y-123101141D01*
X144916000Y-106680000D02*
X142980000Y-106680000D01*
X142980000Y-106680000D02*
X140400000Y-104100000D01*
X140400000Y-104100000D02*
X139349998Y-104100000D01*
X139349998Y-104100000D02*
X138074999Y-102825001D01*
X144916000Y-106680000D02*
X144916000Y-108030351D01*
X143808265Y-109138086D02*
X143058266Y-109888085D01*
X144916000Y-108030351D02*
X143808265Y-109138086D01*
D21*
X134620000Y-101600000D02*
X135845001Y-102825001D01*
X135845001Y-102825001D02*
X138074999Y-102825001D01*
X138074999Y-102825001D02*
X138100000Y-102800000D01*
D23*
X142700000Y-95600000D02*
X142400000Y-95600000D01*
X141400000Y-94600000D02*
X141400000Y-92500000D01*
X142400000Y-95600000D02*
X141400000Y-94600000D01*
X141400000Y-92500000D02*
X141700000Y-92200000D01*
X141200000Y-95600000D02*
X141200000Y-95336392D01*
X141200000Y-95336392D02*
X140949989Y-95086381D01*
X140949989Y-95086381D02*
X140949989Y-92549989D01*
X131396966Y-80576659D02*
X130646967Y-79826660D01*
X140949989Y-92549989D02*
X140150000Y-91750000D01*
X140150000Y-91750000D02*
X135727433Y-91750000D01*
X135727433Y-91750000D02*
X131725013Y-87747580D01*
X131725013Y-87747580D02*
X131725013Y-80904706D01*
X131725013Y-80904706D02*
X131396966Y-80576659D01*
D22*
X150350000Y-56005998D02*
X150350000Y-61530762D01*
X153639999Y-54579999D02*
X151775999Y-54579999D01*
X154940000Y-55880000D02*
X153639999Y-54579999D01*
X150350000Y-61530762D02*
X150350000Y-62450000D01*
X151775999Y-54579999D02*
X150350000Y-56005998D01*
X146099999Y-141000001D02*
X148559999Y-141000001D01*
X138501280Y-133401282D02*
X146099999Y-141000001D01*
X148960001Y-140599999D02*
X149860000Y-139700000D01*
X138501280Y-122000000D02*
X138501280Y-133401282D01*
X148559999Y-141000001D02*
X148960001Y-140599999D01*
D21*
X173945001Y-138385001D02*
X174360001Y-138800001D01*
X164266413Y-138385001D02*
X173945001Y-138385001D01*
X163041412Y-137160000D02*
X164266413Y-138385001D01*
X162560000Y-137160000D02*
X163041412Y-137160000D01*
X174360001Y-138800001D02*
X175260000Y-139700000D01*
D23*
X140100000Y-95600000D02*
X140400000Y-95300000D01*
X129349493Y-77117505D02*
X134031999Y-72434999D01*
X140400000Y-95300000D02*
X140400000Y-92700000D01*
X140400000Y-92700000D02*
X139900000Y-92200000D01*
X139900000Y-92200000D02*
X135541022Y-92200000D01*
X135541022Y-92200000D02*
X131275002Y-87933980D01*
X131275002Y-87933980D02*
X131275002Y-81975002D01*
X131275002Y-81975002D02*
X129349493Y-80049493D01*
X134031999Y-72434999D02*
X137658003Y-72434999D01*
X129349493Y-80049493D02*
X129349493Y-77117505D01*
X137658003Y-72434999D02*
X139459973Y-70633029D01*
X139459973Y-70633029D02*
X139459973Y-67981846D01*
X159550000Y-101000000D02*
X159550000Y-103500000D01*
X159550000Y-103500000D02*
X161900000Y-105850000D01*
X161900000Y-105850000D02*
X161900000Y-107950000D01*
X161900000Y-107950000D02*
X160350000Y-109500000D01*
X160350000Y-109500000D02*
X158400000Y-109500000D01*
X158400000Y-109500000D02*
X157800000Y-110100000D01*
X157800000Y-110100000D02*
X157800000Y-111700000D01*
X157800000Y-111700000D02*
X158500000Y-112400000D01*
X159550000Y-99900000D02*
X159750000Y-99700000D01*
X159750000Y-99700000D02*
X159750000Y-100100000D01*
X158724980Y-110275020D02*
X158600000Y-110400000D01*
X159750000Y-100100000D02*
X160350000Y-100700000D01*
X160350000Y-100700000D02*
X160350000Y-101300000D01*
X160350000Y-101300000D02*
X160000000Y-101650000D01*
X160000000Y-101650000D02*
X160000000Y-103250000D01*
X162350000Y-108200000D02*
X160274980Y-110275020D01*
X160000000Y-103250000D02*
X162350000Y-105600000D01*
X160274980Y-110275020D02*
X158724980Y-110275020D01*
X162350000Y-105600000D02*
X162350000Y-108200000D01*
X162600000Y-112900000D02*
X162600000Y-113300000D01*
X162600000Y-113300000D02*
X164100000Y-114800000D01*
X164100000Y-114800000D02*
X165700000Y-114800000D01*
X169000000Y-115100000D02*
X170800000Y-113300000D01*
X170800000Y-113300000D02*
X171500000Y-113300000D01*
X165700000Y-114800000D02*
X166000000Y-115100000D01*
X166000000Y-115100000D02*
X169000000Y-115100000D01*
X178250020Y-118119440D02*
X178250020Y-119180100D01*
X171500000Y-113300000D02*
X172950011Y-114750011D01*
X178250020Y-117459018D02*
X178250020Y-118119440D01*
X172950011Y-114750011D02*
X175541013Y-114750011D01*
X175541013Y-114750011D02*
X178250020Y-117459018D01*
X159100000Y-115200000D02*
X159100000Y-116260660D01*
X169996173Y-116600000D02*
X171901549Y-118505376D01*
X159100000Y-116260660D02*
X160739340Y-117900000D01*
X167800000Y-116600000D02*
X169996173Y-116600000D01*
X160739340Y-117900000D02*
X166800000Y-117900000D01*
X166800000Y-117900000D02*
X167300000Y-117400000D01*
X167300000Y-117400000D02*
X167300000Y-117100000D01*
X167300000Y-117100000D02*
X167800000Y-116600000D01*
X171901549Y-118505376D02*
X172619568Y-118505376D01*
X172619568Y-118505376D02*
X173680228Y-118505376D01*
X177700000Y-107000000D02*
X177250001Y-107449999D01*
X176850001Y-107449999D02*
X175850011Y-108449989D01*
X177250001Y-107449999D02*
X176850001Y-107449999D01*
X175850011Y-108449989D02*
X172713600Y-108449989D01*
X172713600Y-108449989D02*
X171271594Y-109891996D01*
X171271594Y-109891996D02*
X166181063Y-109891996D01*
X164050000Y-116100000D02*
X164563604Y-116100000D01*
X166181063Y-109891996D02*
X165349276Y-110723783D01*
X162976217Y-110723783D02*
X161349989Y-112350011D01*
X161349989Y-112350011D02*
X161349989Y-113399989D01*
X161349989Y-113399989D02*
X164050000Y-116100000D01*
X165349276Y-110723783D02*
X162976217Y-110723783D01*
X164563604Y-116100000D02*
X165200000Y-116100000D01*
X175700000Y-104900000D02*
X175100000Y-105500000D01*
X175100000Y-105500000D02*
X174354357Y-105500000D01*
X174354357Y-105500000D02*
X170862383Y-108991974D01*
X170862383Y-108991974D02*
X165808263Y-108991974D01*
X165808263Y-108991974D02*
X164976476Y-109823761D01*
X160549967Y-113734267D02*
X164215700Y-117400000D01*
X164976476Y-109823761D02*
X162626239Y-109823761D01*
X162626239Y-109823761D02*
X160549967Y-111900033D01*
X160549967Y-111900033D02*
X160549967Y-113734267D01*
X164215700Y-117400000D02*
X166200000Y-117400000D01*
X166200000Y-117400000D02*
X166500000Y-117100000D01*
D21*
X168390888Y-117690888D02*
X168390888Y-123750020D01*
X168100000Y-117400000D02*
X168390888Y-117690888D01*
D23*
X175150001Y-104249999D02*
X175600000Y-103800000D01*
X174400000Y-104800000D02*
X174600000Y-104800000D01*
X160149956Y-111687244D02*
X162463450Y-109373750D01*
X165621863Y-108541963D02*
X170658037Y-108541963D01*
X162463450Y-109373750D02*
X164790076Y-109373750D01*
X160149956Y-115149956D02*
X160149956Y-111687244D01*
X174600000Y-104800000D02*
X175150001Y-104249999D01*
X170658037Y-108541963D02*
X174400000Y-104800000D01*
X161600000Y-116600000D02*
X160149956Y-115149956D01*
X164790076Y-109373750D02*
X165621863Y-108541963D01*
D21*
X170200000Y-120339340D02*
X170200000Y-121400000D01*
X175375940Y-118384548D02*
X174160488Y-119600000D01*
X174160488Y-119600000D02*
X170939340Y-119600000D01*
X170939340Y-119600000D02*
X170200000Y-120339340D01*
X174992881Y-120800000D02*
X173060660Y-120800000D01*
X175749980Y-120042901D02*
X174992881Y-120800000D01*
X173060660Y-120800000D02*
X172000000Y-120800000D01*
D23*
X177700000Y-108100000D02*
X176900000Y-108100000D01*
X163900000Y-115300000D02*
X165520606Y-115300000D01*
X176900000Y-108100000D02*
X176100000Y-108900000D01*
X176100000Y-108900000D02*
X172900000Y-108900000D01*
X172900000Y-108900000D02*
X171457993Y-110342007D01*
X171457993Y-110342007D02*
X166367463Y-110342007D01*
X165520606Y-115300000D02*
X165820606Y-115600000D01*
X166367463Y-110342007D02*
X165535676Y-111173794D01*
X161750000Y-113150000D02*
X163900000Y-115300000D01*
X165535676Y-111173794D02*
X163226206Y-111173794D01*
X163226206Y-111173794D02*
X161750000Y-112650000D01*
X161750000Y-112650000D02*
X161750000Y-113150000D01*
X165820606Y-115600000D02*
X170400000Y-115600000D01*
X170400000Y-115600000D02*
X170700000Y-115300000D01*
X176800000Y-104900000D02*
X175700000Y-106000000D01*
X164281400Y-116900000D02*
X165600000Y-116900000D01*
X175700000Y-106000000D02*
X174490768Y-106000000D01*
X174490768Y-106000000D02*
X171048783Y-109441985D01*
X171048783Y-109441985D02*
X165994663Y-109441985D01*
X165994663Y-109441985D02*
X165162876Y-110273772D01*
X171549999Y-115841960D02*
X171549999Y-114549999D01*
X171549999Y-114549999D02*
X171100000Y-114100000D01*
X165162876Y-110273772D02*
X162776228Y-110273772D01*
X166414085Y-116085915D02*
X171306044Y-116085915D01*
X162776228Y-110273772D02*
X160949978Y-112100022D01*
X160949978Y-112100022D02*
X160949978Y-113568578D01*
X160949978Y-113568578D02*
X164281400Y-116900000D01*
X165600000Y-116900000D02*
X166414085Y-116085915D01*
X171306044Y-116085915D02*
X171549999Y-115841960D01*
X170100000Y-112900000D02*
X170400000Y-112600000D01*
X170400000Y-112600000D02*
X171400000Y-112600000D01*
X171400000Y-112600000D02*
X173100000Y-114300000D01*
X173100000Y-114300000D02*
X175727413Y-114300000D01*
X175727413Y-114300000D02*
X179325022Y-117897609D01*
X179325022Y-120657836D02*
X179110680Y-120872178D01*
X179325022Y-117897609D02*
X179325022Y-120657836D01*
X179110680Y-120872178D02*
X178050020Y-120872178D01*
X160000000Y-107900000D02*
X156185746Y-107900000D01*
X156185746Y-107900000D02*
X155812324Y-108273422D01*
X155812324Y-108273422D02*
X155362325Y-108723421D01*
X155608973Y-106900000D02*
X155293854Y-107215119D01*
X155293854Y-107215119D02*
X154843855Y-107665118D01*
X160600000Y-106900000D02*
X155608973Y-106900000D01*
X173100000Y-102400000D02*
X172900000Y-102400000D01*
X172900000Y-102400000D02*
X169933247Y-105366753D01*
X169933247Y-105366753D02*
X169764188Y-105366753D01*
X168687437Y-107512563D02*
X167018900Y-105844026D01*
X168700000Y-107500000D02*
X168687437Y-107512563D01*
X173300000Y-104500000D02*
X170300000Y-107500000D01*
X173300000Y-103500000D02*
X173300000Y-104500000D01*
X170300000Y-107500000D02*
X168700000Y-107500000D01*
X167993992Y-107897948D02*
X167543993Y-107447949D01*
X170500000Y-108000000D02*
X168096044Y-108000000D01*
X173850001Y-104449999D02*
X173850001Y-104649999D01*
X173850001Y-104649999D02*
X170500000Y-108000000D01*
X168096044Y-108000000D02*
X167993992Y-107897948D01*
X174300000Y-104000000D02*
X173850001Y-104449999D01*
X174200000Y-112700000D02*
X173900000Y-113000000D01*
X172500000Y-113000000D02*
X171600000Y-112100000D01*
X173900000Y-113000000D02*
X172500000Y-113000000D01*
X171600000Y-112100000D02*
X167100000Y-112100000D01*
X167100000Y-112100000D02*
X166400000Y-112800000D01*
X175400000Y-111700000D02*
X174492018Y-110792018D01*
X174492018Y-110792018D02*
X166553863Y-110792018D01*
X166553863Y-110792018D02*
X165345881Y-112000000D01*
X165345881Y-112000000D02*
X164500000Y-112000000D01*
X158550000Y-100400000D02*
X158550000Y-101100000D01*
X158550000Y-101100000D02*
X159100000Y-101650000D01*
X159100000Y-101650000D02*
X159100000Y-104800000D01*
X159100000Y-104800000D02*
X158800000Y-105100000D01*
D21*
X165100000Y-139700000D02*
X164945002Y-139700000D01*
X164945002Y-139700000D02*
X163630003Y-138385001D01*
X163630003Y-138385001D02*
X146185001Y-138385001D01*
X146185001Y-138385001D02*
X140500000Y-132700000D01*
X140500000Y-132700000D02*
X140500000Y-127540000D01*
X140500000Y-127540000D02*
X141000640Y-127039360D01*
D24*
G36*
X167873000Y-58600000D02*
X167881685Y-58646159D01*
X167908965Y-58688553D01*
X167950590Y-58716994D01*
X168000000Y-58727000D01*
X186000000Y-58727000D01*
X186046159Y-58718315D01*
X186088553Y-58691035D01*
X186116994Y-58649410D01*
X186127000Y-58600000D01*
X186127000Y-52402000D01*
X197598000Y-52402000D01*
X197598000Y-146598000D01*
X127402000Y-146598000D01*
X127402000Y-143762798D01*
X180672771Y-143762798D01*
X180874369Y-144250703D01*
X181247334Y-144624319D01*
X181734885Y-144826769D01*
X182262798Y-144827229D01*
X182750703Y-144625631D01*
X183124319Y-144252666D01*
X183326769Y-143765115D01*
X183326771Y-143762798D01*
X188672771Y-143762798D01*
X188874369Y-144250703D01*
X189247334Y-144624319D01*
X189734885Y-144826769D01*
X190262798Y-144827229D01*
X190750703Y-144625631D01*
X191124319Y-144252666D01*
X191326769Y-143765115D01*
X191327229Y-143237202D01*
X191125631Y-142749297D01*
X190752666Y-142375681D01*
X190265115Y-142173231D01*
X189737202Y-142172771D01*
X189249297Y-142374369D01*
X188875681Y-142747334D01*
X188673231Y-143234885D01*
X188672771Y-143762798D01*
X183326771Y-143762798D01*
X183327229Y-143237202D01*
X183125631Y-142749297D01*
X182752666Y-142375681D01*
X182265115Y-142173231D01*
X181737202Y-142172771D01*
X181249297Y-142374369D01*
X180875681Y-142747334D01*
X180673231Y-143234885D01*
X180672771Y-143762798D01*
X127402000Y-143762798D01*
X127402000Y-139914628D01*
X133411918Y-139914628D01*
X133421740Y-139964024D01*
X133613990Y-140402480D01*
X133959395Y-140733990D01*
X134405371Y-140908085D01*
X134597000Y-140845037D01*
X134597000Y-139723000D01*
X134643000Y-139723000D01*
X134643000Y-140845037D01*
X134834629Y-140908085D01*
X135280605Y-140733990D01*
X135626010Y-140402480D01*
X135818260Y-139964024D01*
X135828082Y-139914628D01*
X135765019Y-139723000D01*
X134643000Y-139723000D01*
X134597000Y-139723000D01*
X133474981Y-139723000D01*
X133411918Y-139914628D01*
X127402000Y-139914628D01*
X127402000Y-139700000D01*
X135908962Y-139700000D01*
X136002362Y-140169553D01*
X136268342Y-140567620D01*
X136666409Y-140833600D01*
X137135962Y-140927000D01*
X137184038Y-140927000D01*
X137653591Y-140833600D01*
X138051658Y-140567620D01*
X138317638Y-140169553D01*
X138411038Y-139700000D01*
X138448962Y-139700000D01*
X138542362Y-140169553D01*
X138808342Y-140567620D01*
X139206409Y-140833600D01*
X139675962Y-140927000D01*
X139724038Y-140927000D01*
X140193591Y-140833600D01*
X140591658Y-140567620D01*
X140857638Y-140169553D01*
X140951038Y-139700000D01*
X140857638Y-139230447D01*
X140591658Y-138832380D01*
X140193591Y-138566400D01*
X139724038Y-138473000D01*
X139675962Y-138473000D01*
X139206409Y-138566400D01*
X138808342Y-138832380D01*
X138542362Y-139230447D01*
X138448962Y-139700000D01*
X138411038Y-139700000D01*
X138317638Y-139230447D01*
X138051658Y-138832380D01*
X137653591Y-138566400D01*
X137184038Y-138473000D01*
X137135962Y-138473000D01*
X136666409Y-138566400D01*
X136268342Y-138832380D01*
X136002362Y-139230447D01*
X135908962Y-139700000D01*
X127402000Y-139700000D01*
X127402000Y-139485372D01*
X133411918Y-139485372D01*
X133474981Y-139677000D01*
X134597000Y-139677000D01*
X134597000Y-138554963D01*
X134643000Y-138554963D01*
X134643000Y-139677000D01*
X135765019Y-139677000D01*
X135828082Y-139485372D01*
X135818260Y-139435976D01*
X135626010Y-138997520D01*
X135280605Y-138666010D01*
X134834629Y-138491915D01*
X134643000Y-138554963D01*
X134597000Y-138554963D01*
X134405371Y-138491915D01*
X133959395Y-138666010D01*
X133613990Y-138997520D01*
X133421740Y-139435976D01*
X133411918Y-139485372D01*
X127402000Y-139485372D01*
X127402000Y-137160000D01*
X133368962Y-137160000D01*
X133462362Y-137629553D01*
X133728342Y-138027620D01*
X134126409Y-138293600D01*
X134595962Y-138387000D01*
X134644038Y-138387000D01*
X135113591Y-138293600D01*
X135511658Y-138027620D01*
X135777638Y-137629553D01*
X135871038Y-137160000D01*
X135908962Y-137160000D01*
X136002362Y-137629553D01*
X136268342Y-138027620D01*
X136666409Y-138293600D01*
X137135962Y-138387000D01*
X137184038Y-138387000D01*
X137653591Y-138293600D01*
X138051658Y-138027620D01*
X138317638Y-137629553D01*
X138411038Y-137160000D01*
X138317638Y-136690447D01*
X138051658Y-136292380D01*
X137653591Y-136026400D01*
X137184038Y-135933000D01*
X137135962Y-135933000D01*
X136666409Y-136026400D01*
X136268342Y-136292380D01*
X136002362Y-136690447D01*
X135908962Y-137160000D01*
X135871038Y-137160000D01*
X135777638Y-136690447D01*
X135511658Y-136292380D01*
X135113591Y-136026400D01*
X134644038Y-135933000D01*
X134595962Y-135933000D01*
X134126409Y-136026400D01*
X133728342Y-136292380D01*
X133462362Y-136690447D01*
X133368962Y-137160000D01*
X127402000Y-137160000D01*
X127402000Y-129540000D01*
X133250689Y-129540000D01*
X133344089Y-130009553D01*
X133610069Y-130407620D01*
X134008136Y-130673600D01*
X134477689Y-130767000D01*
X134762311Y-130767000D01*
X135231864Y-130673600D01*
X135629931Y-130407620D01*
X135895911Y-130009553D01*
X135989311Y-129540000D01*
X135895911Y-129070447D01*
X135629931Y-128672380D01*
X135231864Y-128406400D01*
X134762311Y-128313000D01*
X134477689Y-128313000D01*
X134008136Y-128406400D01*
X133610069Y-128672380D01*
X133344089Y-129070447D01*
X133250689Y-129540000D01*
X127402000Y-129540000D01*
X127402000Y-127000000D01*
X133250689Y-127000000D01*
X133344089Y-127469553D01*
X133610069Y-127867620D01*
X134008136Y-128133600D01*
X134477689Y-128227000D01*
X134762311Y-128227000D01*
X135231864Y-128133600D01*
X135629931Y-127867620D01*
X135895911Y-127469553D01*
X135989311Y-127000000D01*
X135895911Y-126530447D01*
X135629931Y-126132380D01*
X135231864Y-125866400D01*
X134762311Y-125773000D01*
X134477689Y-125773000D01*
X134008136Y-125866400D01*
X133610069Y-126132380D01*
X133344089Y-126530447D01*
X133250689Y-127000000D01*
X127402000Y-127000000D01*
X127402000Y-124460000D01*
X133250689Y-124460000D01*
X133344089Y-124929553D01*
X133610069Y-125327620D01*
X134008136Y-125593600D01*
X134477689Y-125687000D01*
X134762311Y-125687000D01*
X135231864Y-125593600D01*
X135629931Y-125327620D01*
X135895911Y-124929553D01*
X135989311Y-124460000D01*
X135895911Y-123990447D01*
X135629931Y-123592380D01*
X135231864Y-123326400D01*
X134762311Y-123233000D01*
X134477689Y-123233000D01*
X134008136Y-123326400D01*
X133610069Y-123592380D01*
X133344089Y-123990447D01*
X133250689Y-124460000D01*
X127402000Y-124460000D01*
X127402000Y-122024750D01*
X133277000Y-122024750D01*
X133277000Y-122885044D01*
X133326783Y-123005230D01*
X133418769Y-123097217D01*
X133538955Y-123147000D01*
X134515250Y-123147000D01*
X134597000Y-123065250D01*
X134597000Y-121943000D01*
X134643000Y-121943000D01*
X134643000Y-123065250D01*
X134724750Y-123147000D01*
X135701045Y-123147000D01*
X135821231Y-123097217D01*
X135913217Y-123005230D01*
X135963000Y-122885044D01*
X135963000Y-122312245D01*
X136924327Y-122312245D01*
X137163856Y-122891951D01*
X137606996Y-123335865D01*
X137974280Y-123488375D01*
X137974280Y-133401282D01*
X138014395Y-133602957D01*
X138128635Y-133773927D01*
X140281302Y-135926594D01*
X138800000Y-135926594D01*
X138678821Y-135949395D01*
X138567526Y-136021012D01*
X138492862Y-136130286D01*
X138466594Y-136260000D01*
X138466594Y-138060000D01*
X138489395Y-138181179D01*
X138561012Y-138292474D01*
X138670286Y-138367138D01*
X138800000Y-138393406D01*
X140600000Y-138393406D01*
X140721179Y-138370605D01*
X140832474Y-138298988D01*
X140907138Y-138189714D01*
X140933406Y-138060000D01*
X140933406Y-136578698D01*
X145727353Y-141372646D01*
X145841593Y-141448979D01*
X145898325Y-141486886D01*
X146099999Y-141527001D01*
X148559999Y-141527001D01*
X148761674Y-141486886D01*
X148932644Y-141372646D01*
X149454223Y-140851067D01*
X149835962Y-140927000D01*
X149884038Y-140927000D01*
X150353591Y-140833600D01*
X150751658Y-140567620D01*
X151017638Y-140169553D01*
X151111038Y-139700000D01*
X151017638Y-139230447D01*
X150754746Y-138837001D01*
X151505254Y-138837001D01*
X151242362Y-139230447D01*
X151148962Y-139700000D01*
X151242362Y-140169553D01*
X151508342Y-140567620D01*
X151906409Y-140833600D01*
X152375962Y-140927000D01*
X152424038Y-140927000D01*
X152893591Y-140833600D01*
X153291658Y-140567620D01*
X153557638Y-140169553D01*
X153651038Y-139700000D01*
X153557638Y-139230447D01*
X153294746Y-138837001D01*
X154045254Y-138837001D01*
X153782362Y-139230447D01*
X153688962Y-139700000D01*
X153782362Y-140169553D01*
X154048342Y-140567620D01*
X154446409Y-140833600D01*
X154915962Y-140927000D01*
X154964038Y-140927000D01*
X155433591Y-140833600D01*
X155831658Y-140567620D01*
X156097638Y-140169553D01*
X156170201Y-139804750D01*
X161333000Y-139804750D01*
X161333000Y-140665045D01*
X161382783Y-140785231D01*
X161474770Y-140877217D01*
X161594956Y-140927000D01*
X162455250Y-140927000D01*
X162537000Y-140845250D01*
X162537000Y-139723000D01*
X162583000Y-139723000D01*
X162583000Y-140845250D01*
X162664750Y-140927000D01*
X163525044Y-140927000D01*
X163645230Y-140877217D01*
X163737217Y-140785231D01*
X163787000Y-140665045D01*
X163787000Y-139804750D01*
X163705250Y-139723000D01*
X162583000Y-139723000D01*
X162537000Y-139723000D01*
X161414750Y-139723000D01*
X161333000Y-139804750D01*
X156170201Y-139804750D01*
X156191038Y-139700000D01*
X156097638Y-139230447D01*
X155834746Y-138837001D01*
X161333000Y-138837001D01*
X161333000Y-139595250D01*
X161414750Y-139677000D01*
X162537000Y-139677000D01*
X162537000Y-139657000D01*
X162583000Y-139657000D01*
X162583000Y-139677000D01*
X163705250Y-139677000D01*
X163787000Y-139595250D01*
X163787000Y-139181222D01*
X163924753Y-139318975D01*
X163848962Y-139700000D01*
X163942362Y-140169553D01*
X164208342Y-140567620D01*
X164606409Y-140833600D01*
X165075962Y-140927000D01*
X165124038Y-140927000D01*
X165593591Y-140833600D01*
X165991658Y-140567620D01*
X166257638Y-140169553D01*
X166351038Y-139700000D01*
X166257638Y-139230447D01*
X165994746Y-138837001D01*
X166745254Y-138837001D01*
X166482362Y-139230447D01*
X166388962Y-139700000D01*
X166482362Y-140169553D01*
X166748342Y-140567620D01*
X167146409Y-140833600D01*
X167615962Y-140927000D01*
X167664038Y-140927000D01*
X168133591Y-140833600D01*
X168531658Y-140567620D01*
X168797638Y-140169553D01*
X168891038Y-139700000D01*
X168797638Y-139230447D01*
X168534746Y-138837001D01*
X169285254Y-138837001D01*
X169022362Y-139230447D01*
X168928962Y-139700000D01*
X169022362Y-140169553D01*
X169288342Y-140567620D01*
X169686409Y-140833600D01*
X170155962Y-140927000D01*
X170204038Y-140927000D01*
X170673591Y-140833600D01*
X171071658Y-140567620D01*
X171337638Y-140169553D01*
X171431038Y-139700000D01*
X171337638Y-139230447D01*
X171074746Y-138837001D01*
X171825254Y-138837001D01*
X171562362Y-139230447D01*
X171468962Y-139700000D01*
X171562362Y-140169553D01*
X171828342Y-140567620D01*
X172226409Y-140833600D01*
X172695962Y-140927000D01*
X172744038Y-140927000D01*
X173213591Y-140833600D01*
X173611658Y-140567620D01*
X173877638Y-140169553D01*
X173971038Y-139700000D01*
X173877638Y-139230447D01*
X173614746Y-138837001D01*
X173757777Y-138837001D01*
X174040389Y-139119614D01*
X174040392Y-139119616D01*
X174121933Y-139201157D01*
X174102362Y-139230447D01*
X174008962Y-139700000D01*
X174102362Y-140169553D01*
X174368342Y-140567620D01*
X174766409Y-140833600D01*
X175235962Y-140927000D01*
X175284038Y-140927000D01*
X175753591Y-140833600D01*
X176151658Y-140567620D01*
X176417638Y-140169553D01*
X176511038Y-139700000D01*
X176417638Y-139230447D01*
X176151658Y-138832380D01*
X175753591Y-138566400D01*
X175284038Y-138473000D01*
X175235962Y-138473000D01*
X174766409Y-138566400D01*
X174765938Y-138566714D01*
X174679616Y-138480392D01*
X174679614Y-138480389D01*
X174264613Y-138065389D01*
X174117974Y-137967407D01*
X173945001Y-137933001D01*
X173674880Y-137933001D01*
X173877638Y-137629553D01*
X173928345Y-137374628D01*
X174051918Y-137374628D01*
X174061740Y-137424024D01*
X174253990Y-137862480D01*
X174599395Y-138193990D01*
X175045371Y-138368085D01*
X175237000Y-138305037D01*
X175237000Y-137183000D01*
X175283000Y-137183000D01*
X175283000Y-138305037D01*
X175474629Y-138368085D01*
X175920605Y-138193990D01*
X176266010Y-137862480D01*
X176458260Y-137424024D01*
X176468082Y-137374628D01*
X176405019Y-137183000D01*
X175283000Y-137183000D01*
X175237000Y-137183000D01*
X174114981Y-137183000D01*
X174051918Y-137374628D01*
X173928345Y-137374628D01*
X173971038Y-137160000D01*
X173928346Y-136945372D01*
X174051918Y-136945372D01*
X174114981Y-137137000D01*
X175237000Y-137137000D01*
X175237000Y-136014963D01*
X175283000Y-136014963D01*
X175283000Y-137137000D01*
X176405019Y-137137000D01*
X176468082Y-136945372D01*
X176458260Y-136895976D01*
X176266010Y-136457520D01*
X175920605Y-136126010D01*
X175474629Y-135951915D01*
X175283000Y-136014963D01*
X175237000Y-136014963D01*
X175045371Y-135951915D01*
X174599395Y-136126010D01*
X174253990Y-136457520D01*
X174061740Y-136895976D01*
X174051918Y-136945372D01*
X173928346Y-136945372D01*
X173877638Y-136690447D01*
X173611658Y-136292380D01*
X173213591Y-136026400D01*
X172744038Y-135933000D01*
X172695962Y-135933000D01*
X172226409Y-136026400D01*
X171828342Y-136292380D01*
X171562362Y-136690447D01*
X171468962Y-137160000D01*
X171562362Y-137629553D01*
X171765120Y-137933001D01*
X171134880Y-137933001D01*
X171337638Y-137629553D01*
X171431038Y-137160000D01*
X171337638Y-136690447D01*
X171071658Y-136292380D01*
X170673591Y-136026400D01*
X170204038Y-135933000D01*
X170155962Y-135933000D01*
X169686409Y-136026400D01*
X169288342Y-136292380D01*
X169022362Y-136690447D01*
X168928962Y-137160000D01*
X169022362Y-137629553D01*
X169225120Y-137933001D01*
X168594880Y-137933001D01*
X168797638Y-137629553D01*
X168891038Y-137160000D01*
X168797638Y-136690447D01*
X168531658Y-136292380D01*
X168133591Y-136026400D01*
X167664038Y-135933000D01*
X167615962Y-135933000D01*
X167146409Y-136026400D01*
X166748342Y-136292380D01*
X166482362Y-136690447D01*
X166388962Y-137160000D01*
X166482362Y-137629553D01*
X166685120Y-137933001D01*
X166054880Y-137933001D01*
X166257638Y-137629553D01*
X166351038Y-137160000D01*
X166257638Y-136690447D01*
X165991658Y-136292380D01*
X165593591Y-136026400D01*
X165124038Y-135933000D01*
X165075962Y-135933000D01*
X164606409Y-136026400D01*
X164208342Y-136292380D01*
X163942362Y-136690447D01*
X163848962Y-137160000D01*
X163890758Y-137370122D01*
X163789403Y-137268767D01*
X163811038Y-137160000D01*
X163717638Y-136690447D01*
X163451658Y-136292380D01*
X163053591Y-136026400D01*
X162584038Y-135933000D01*
X162535962Y-135933000D01*
X162066409Y-136026400D01*
X161668342Y-136292380D01*
X161402362Y-136690447D01*
X161308962Y-137160000D01*
X161402362Y-137629553D01*
X161605120Y-137933001D01*
X155894880Y-137933001D01*
X156097638Y-137629553D01*
X156191038Y-137160000D01*
X156097638Y-136690447D01*
X155831658Y-136292380D01*
X155433591Y-136026400D01*
X154964038Y-135933000D01*
X154915962Y-135933000D01*
X154446409Y-136026400D01*
X154048342Y-136292380D01*
X153782362Y-136690447D01*
X153688962Y-137160000D01*
X153782362Y-137629553D01*
X153985120Y-137933001D01*
X153354880Y-137933001D01*
X153557638Y-137629553D01*
X153651038Y-137160000D01*
X153557638Y-136690447D01*
X153291658Y-136292380D01*
X152893591Y-136026400D01*
X152424038Y-135933000D01*
X152375962Y-135933000D01*
X151906409Y-136026400D01*
X151508342Y-136292380D01*
X151242362Y-136690447D01*
X151148962Y-137160000D01*
X151242362Y-137629553D01*
X151445120Y-137933001D01*
X150814880Y-137933001D01*
X151017638Y-137629553D01*
X151111038Y-137160000D01*
X151017638Y-136690447D01*
X150751658Y-136292380D01*
X150353591Y-136026400D01*
X149884038Y-135933000D01*
X149835962Y-135933000D01*
X149366409Y-136026400D01*
X148968342Y-136292380D01*
X148702362Y-136690447D01*
X148608962Y-137160000D01*
X148702362Y-137629553D01*
X148905120Y-137933001D01*
X148274880Y-137933001D01*
X148477638Y-137629553D01*
X148571038Y-137160000D01*
X148477638Y-136690447D01*
X148211658Y-136292380D01*
X147813591Y-136026400D01*
X147344038Y-135933000D01*
X147295962Y-135933000D01*
X146826409Y-136026400D01*
X146428342Y-136292380D01*
X146162362Y-136690447D01*
X146068962Y-137160000D01*
X146162362Y-137629553D01*
X146350810Y-137911585D01*
X142361128Y-133921903D01*
X143335315Y-134326421D01*
X144658878Y-134327576D01*
X145882132Y-133822138D01*
X146818849Y-132887055D01*
X147326421Y-131664685D01*
X147327576Y-130341122D01*
X146822138Y-129117868D01*
X145887055Y-128181151D01*
X144664685Y-127673579D01*
X143341122Y-127672424D01*
X142117868Y-128177862D01*
X141181151Y-129112945D01*
X140952000Y-129664802D01*
X140952000Y-128615998D01*
X141312885Y-128616313D01*
X141892591Y-128376784D01*
X142336505Y-127933644D01*
X142577046Y-127354357D01*
X142577593Y-126727115D01*
X142338064Y-126147409D01*
X141894924Y-125703495D01*
X141315637Y-125462954D01*
X140688395Y-125462407D01*
X140108689Y-125701936D01*
X139664775Y-126145076D01*
X139424234Y-126724363D01*
X139423687Y-127351605D01*
X139663216Y-127931311D01*
X140048000Y-128316767D01*
X140048000Y-132700000D01*
X140082406Y-132872973D01*
X140180388Y-133019612D01*
X145865389Y-138704614D01*
X146008146Y-138800001D01*
X146012028Y-138802595D01*
X146093000Y-138818701D01*
X146093000Y-139595250D01*
X146174750Y-139677000D01*
X147297000Y-139677000D01*
X147297000Y-139657000D01*
X147343000Y-139657000D01*
X147343000Y-139677000D01*
X148465250Y-139677000D01*
X148547000Y-139595250D01*
X148547000Y-138837001D01*
X148965254Y-138837001D01*
X148702362Y-139230447D01*
X148608962Y-139700000D01*
X148692871Y-140121839D01*
X148547000Y-140267710D01*
X148547000Y-139804750D01*
X148465250Y-139723000D01*
X147343000Y-139723000D01*
X147343000Y-139743000D01*
X147297000Y-139743000D01*
X147297000Y-139723000D01*
X146174750Y-139723000D01*
X146093000Y-139804750D01*
X146093000Y-140247711D01*
X139028280Y-133182992D01*
X139028280Y-123488218D01*
X139393231Y-123337424D01*
X139636020Y-123095058D01*
X142437469Y-123095058D01*
X142573799Y-123313936D01*
X143147123Y-123568361D01*
X143774170Y-123584016D01*
X144359476Y-123358520D01*
X144426201Y-123313936D01*
X144562531Y-123095058D01*
X143500000Y-122032527D01*
X142437469Y-123095058D01*
X139636020Y-123095058D01*
X139837145Y-122894284D01*
X140077686Y-122314997D01*
X140077721Y-122274170D01*
X141915984Y-122274170D01*
X142141480Y-122859476D01*
X142186064Y-122926201D01*
X142404942Y-123062531D01*
X143467473Y-122000000D01*
X143532527Y-122000000D01*
X144595058Y-123062531D01*
X144813936Y-122926201D01*
X145068361Y-122352877D01*
X145084016Y-121725830D01*
X144858520Y-121140524D01*
X144813936Y-121073799D01*
X144595058Y-120937469D01*
X143532527Y-122000000D01*
X143467473Y-122000000D01*
X142404942Y-120937469D01*
X142186064Y-121073799D01*
X141931639Y-121647123D01*
X141915984Y-122274170D01*
X140077721Y-122274170D01*
X140078233Y-121687755D01*
X139838704Y-121108049D01*
X139635952Y-120904942D01*
X142437469Y-120904942D01*
X143500000Y-121967473D01*
X144562531Y-120904942D01*
X144426201Y-120686064D01*
X143852877Y-120431639D01*
X143225830Y-120415984D01*
X142640524Y-120641480D01*
X142573799Y-120686064D01*
X142437469Y-120904942D01*
X139635952Y-120904942D01*
X139395564Y-120664135D01*
X138816277Y-120423594D01*
X138189035Y-120423047D01*
X137609329Y-120662576D01*
X137165415Y-121105716D01*
X136924874Y-121685003D01*
X136924327Y-122312245D01*
X135963000Y-122312245D01*
X135963000Y-122024750D01*
X135881250Y-121943000D01*
X134643000Y-121943000D01*
X134597000Y-121943000D01*
X133358750Y-121943000D01*
X133277000Y-122024750D01*
X127402000Y-122024750D01*
X127402000Y-120954956D01*
X133277000Y-120954956D01*
X133277000Y-121815250D01*
X133358750Y-121897000D01*
X134597000Y-121897000D01*
X134597000Y-120774750D01*
X134643000Y-120774750D01*
X134643000Y-121897000D01*
X135881250Y-121897000D01*
X135963000Y-121815250D01*
X135963000Y-120954956D01*
X135913217Y-120834770D01*
X135821231Y-120742783D01*
X135701045Y-120693000D01*
X134724750Y-120693000D01*
X134643000Y-120774750D01*
X134597000Y-120774750D01*
X134515250Y-120693000D01*
X133538955Y-120693000D01*
X133418769Y-120742783D01*
X133326783Y-120834770D01*
X133277000Y-120954956D01*
X127402000Y-120954956D01*
X127402000Y-114275962D01*
X133393000Y-114275962D01*
X133393000Y-114324038D01*
X133486400Y-114793591D01*
X133752380Y-115191658D01*
X134150447Y-115457638D01*
X134620000Y-115551038D01*
X135089553Y-115457638D01*
X135487620Y-115191658D01*
X135753600Y-114793591D01*
X135830945Y-114404750D01*
X135933000Y-114404750D01*
X135933000Y-115265044D01*
X135982783Y-115385230D01*
X136074769Y-115477217D01*
X136194955Y-115527000D01*
X137055250Y-115527000D01*
X137137000Y-115445250D01*
X137137000Y-114323000D01*
X137183000Y-114323000D01*
X137183000Y-115445250D01*
X137264750Y-115527000D01*
X138125045Y-115527000D01*
X138245231Y-115477217D01*
X138337217Y-115385230D01*
X138350203Y-115353877D01*
X158322866Y-115353877D01*
X158440908Y-115639560D01*
X158659290Y-115858324D01*
X158673000Y-115864017D01*
X158673000Y-116260655D01*
X158672999Y-116260660D01*
X158705503Y-116424066D01*
X158798065Y-116562595D01*
X160437403Y-118201932D01*
X160437405Y-118201935D01*
X160480412Y-118230671D01*
X160575934Y-118294497D01*
X160739340Y-118327001D01*
X160739345Y-118327000D01*
X166799995Y-118327000D01*
X166800000Y-118327001D01*
X166963406Y-118294497D01*
X167101935Y-118201935D01*
X167452598Y-117851271D01*
X167659290Y-118058324D01*
X167938888Y-118174424D01*
X167938888Y-120513851D01*
X167828750Y-120247297D01*
X167554155Y-119972222D01*
X167195196Y-119823170D01*
X166806521Y-119822830D01*
X166447303Y-119971256D01*
X166172228Y-120245851D01*
X166023176Y-120604810D01*
X166022836Y-120993485D01*
X166171262Y-121352703D01*
X166445857Y-121627778D01*
X166473006Y-121639051D01*
X166473006Y-121702011D01*
X166040041Y-122134976D01*
X166014356Y-122124311D01*
X165625681Y-122123971D01*
X165266463Y-122272397D01*
X164991388Y-122546992D01*
X164842336Y-122905951D01*
X164841996Y-123294626D01*
X164990422Y-123653844D01*
X165265017Y-123928919D01*
X165623976Y-124077971D01*
X166012651Y-124078311D01*
X166371869Y-123929885D01*
X166646944Y-123655290D01*
X166795996Y-123296331D01*
X166796336Y-122907656D01*
X166785110Y-122880487D01*
X167372651Y-122292946D01*
X167486891Y-122121976D01*
X167515430Y-121978497D01*
X167527006Y-121920301D01*
X167527006Y-121639364D01*
X167552709Y-121628744D01*
X167827784Y-121354149D01*
X167938888Y-121086579D01*
X167938888Y-123103346D01*
X167732564Y-123309310D01*
X167614023Y-123594787D01*
X167613754Y-123903897D01*
X167731796Y-124189580D01*
X167950178Y-124408344D01*
X168235655Y-124526885D01*
X168544765Y-124527154D01*
X168830448Y-124409112D01*
X169049212Y-124190730D01*
X169167753Y-123905253D01*
X169167967Y-123658878D01*
X187672424Y-123658878D01*
X188177862Y-124882132D01*
X189112945Y-125818849D01*
X190335315Y-126326421D01*
X191658878Y-126327576D01*
X192882132Y-125822138D01*
X193818849Y-124887055D01*
X194326421Y-123664685D01*
X194327576Y-122341122D01*
X193822138Y-121117868D01*
X192887055Y-120181151D01*
X191664685Y-119673579D01*
X190341122Y-119672424D01*
X189117868Y-120177862D01*
X188181151Y-121112945D01*
X187673579Y-122335315D01*
X187672424Y-123658878D01*
X169167967Y-123658878D01*
X169168022Y-123596143D01*
X169049980Y-123310460D01*
X168842888Y-123103006D01*
X168842888Y-117690888D01*
X168835649Y-117654493D01*
X168876865Y-117555233D01*
X168877134Y-117246123D01*
X168786594Y-117027000D01*
X169819303Y-117027000D01*
X171599612Y-118807308D01*
X171599614Y-118807311D01*
X171624753Y-118824108D01*
X171738143Y-118899873D01*
X171901549Y-118932377D01*
X171901554Y-118932376D01*
X173015946Y-118932376D01*
X173021136Y-118944936D01*
X173223845Y-119148000D01*
X170939340Y-119148000D01*
X170766367Y-119182406D01*
X170619728Y-119280387D01*
X169880388Y-120019728D01*
X169782406Y-120166367D01*
X169748000Y-120339340D01*
X169748000Y-120753326D01*
X169541676Y-120959290D01*
X169423135Y-121244767D01*
X169422866Y-121553877D01*
X169540908Y-121839560D01*
X169759290Y-122058324D01*
X170044767Y-122176865D01*
X170353877Y-122177134D01*
X170639560Y-122059092D01*
X170858324Y-121840710D01*
X170976865Y-121555233D01*
X170977134Y-121246123D01*
X170859092Y-120960440D01*
X170652000Y-120752986D01*
X170652000Y-120526564D01*
X171126565Y-120052000D01*
X171775613Y-120052000D01*
X171560440Y-120140908D01*
X171341676Y-120359290D01*
X171223135Y-120644767D01*
X171222866Y-120953877D01*
X171340908Y-121239560D01*
X171559290Y-121458324D01*
X171844767Y-121576865D01*
X172153877Y-121577134D01*
X172439560Y-121459092D01*
X172647014Y-121252000D01*
X174992881Y-121252000D01*
X175165854Y-121217594D01*
X175312493Y-121119612D01*
X175612324Y-120819781D01*
X175903857Y-120820035D01*
X176189540Y-120701993D01*
X176408304Y-120483611D01*
X176526845Y-120198134D01*
X176527114Y-119889024D01*
X176409072Y-119603341D01*
X176190690Y-119384577D01*
X175905213Y-119266036D01*
X175596103Y-119265767D01*
X175310420Y-119383809D01*
X175091656Y-119602191D01*
X174973115Y-119887668D01*
X174972860Y-120180797D01*
X174805657Y-120348000D01*
X172646674Y-120348000D01*
X172440710Y-120141676D01*
X172224747Y-120052000D01*
X174160488Y-120052000D01*
X174333461Y-120017594D01*
X174480100Y-119919612D01*
X175238284Y-119161428D01*
X175529817Y-119161682D01*
X175815500Y-119043640D01*
X176034264Y-118825258D01*
X176152805Y-118539781D01*
X176153074Y-118230671D01*
X176035032Y-117944988D01*
X175816650Y-117726224D01*
X175531173Y-117607683D01*
X175222063Y-117607414D01*
X174936380Y-117725456D01*
X174717616Y-117943838D01*
X174599075Y-118229315D01*
X174598820Y-118522444D01*
X174454564Y-118666700D01*
X174457093Y-118660609D01*
X174457362Y-118351499D01*
X174339320Y-118065816D01*
X174120938Y-117847052D01*
X173835461Y-117728511D01*
X173526351Y-117728242D01*
X173240668Y-117846284D01*
X173021904Y-118064666D01*
X173016211Y-118078376D01*
X172078418Y-118078376D01*
X170512958Y-116512915D01*
X171306039Y-116512915D01*
X171306044Y-116512916D01*
X171469450Y-116480412D01*
X171607979Y-116387850D01*
X171851931Y-116143897D01*
X171851934Y-116143895D01*
X171944496Y-116005366D01*
X171976999Y-115841960D01*
X171976999Y-114550004D01*
X171977000Y-114549999D01*
X171944496Y-114386593D01*
X171902011Y-114323010D01*
X171869146Y-114273823D01*
X171869383Y-114273252D01*
X172648074Y-115051943D01*
X172648076Y-115051946D01*
X172786605Y-115144508D01*
X172950011Y-115177011D01*
X175364143Y-115177011D01*
X177823020Y-117635887D01*
X177823020Y-118515818D01*
X177810460Y-118521008D01*
X177591696Y-118739390D01*
X177473155Y-119024867D01*
X177472886Y-119333977D01*
X177590928Y-119619660D01*
X177809310Y-119838424D01*
X178094787Y-119956965D01*
X178403897Y-119957234D01*
X178689580Y-119839192D01*
X178898022Y-119631114D01*
X178898022Y-120445178D01*
X178714302Y-120445178D01*
X178709112Y-120432618D01*
X178490730Y-120213854D01*
X178205253Y-120095313D01*
X177896143Y-120095044D01*
X177610460Y-120213086D01*
X177391696Y-120431468D01*
X177273155Y-120716945D01*
X177272886Y-121026055D01*
X177390928Y-121311738D01*
X177609310Y-121530502D01*
X177894787Y-121649043D01*
X178203897Y-121649312D01*
X178489580Y-121531270D01*
X178708344Y-121312888D01*
X178714037Y-121299178D01*
X179110675Y-121299178D01*
X179110680Y-121299179D01*
X179274086Y-121266675D01*
X179412615Y-121174113D01*
X179626954Y-120959773D01*
X179626957Y-120959771D01*
X179719519Y-120821242D01*
X179752022Y-120657836D01*
X179752022Y-117897609D01*
X179719519Y-117734203D01*
X179626957Y-117595674D01*
X179626954Y-117595672D01*
X176029348Y-113998065D01*
X175890819Y-113905503D01*
X175727413Y-113872999D01*
X175727408Y-113873000D01*
X173276870Y-113873000D01*
X172830870Y-113427000D01*
X173899995Y-113427000D01*
X173900000Y-113427001D01*
X173916688Y-113423682D01*
X174044767Y-113476865D01*
X174353877Y-113477134D01*
X174639560Y-113359092D01*
X174858324Y-113140710D01*
X174976865Y-112855233D01*
X174977134Y-112546123D01*
X174859092Y-112260440D01*
X174640710Y-112041676D01*
X174355233Y-111923135D01*
X174046123Y-111922866D01*
X173760440Y-112040908D01*
X173541676Y-112259290D01*
X173423135Y-112544767D01*
X173423110Y-112573000D01*
X172676869Y-112573000D01*
X171901935Y-111798065D01*
X171763406Y-111705503D01*
X171600000Y-111672999D01*
X171599995Y-111673000D01*
X167100000Y-111673000D01*
X166936594Y-111705503D01*
X166798065Y-111798065D01*
X166798063Y-111798068D01*
X166567784Y-112028347D01*
X166555233Y-112023135D01*
X166246123Y-112022866D01*
X165960440Y-112140908D01*
X165741676Y-112359290D01*
X165623135Y-112644767D01*
X165622866Y-112953877D01*
X165740908Y-113239560D01*
X165959290Y-113458324D01*
X166244767Y-113576865D01*
X166553877Y-113577134D01*
X166839560Y-113459092D01*
X167058324Y-113240710D01*
X167176865Y-112955233D01*
X167177134Y-112646123D01*
X167171465Y-112632404D01*
X167276869Y-112527000D01*
X169413560Y-112527000D01*
X169323135Y-112744767D01*
X169322866Y-113053877D01*
X169440908Y-113339560D01*
X169659290Y-113558324D01*
X169856088Y-113640042D01*
X168823130Y-114673000D01*
X166176870Y-114673000D01*
X166001935Y-114498065D01*
X165863406Y-114405503D01*
X165700000Y-114372999D01*
X165699995Y-114373000D01*
X164276869Y-114373000D01*
X163251446Y-113347576D01*
X163258324Y-113340710D01*
X163376865Y-113055233D01*
X163377134Y-112746123D01*
X163259092Y-112460440D01*
X163040710Y-112241676D01*
X162843912Y-112159958D01*
X163403075Y-111600794D01*
X163824442Y-111600794D01*
X163723135Y-111844767D01*
X163722866Y-112153877D01*
X163840908Y-112439560D01*
X164059290Y-112658324D01*
X164344767Y-112776865D01*
X164653877Y-112777134D01*
X164939560Y-112659092D01*
X165158324Y-112440710D01*
X165164017Y-112427000D01*
X165345876Y-112427000D01*
X165345881Y-112427001D01*
X165509287Y-112394497D01*
X165647816Y-112301935D01*
X166730732Y-111219018D01*
X174315148Y-111219018D01*
X174628347Y-111532216D01*
X174623135Y-111544767D01*
X174622866Y-111853877D01*
X174740908Y-112139560D01*
X174959290Y-112358324D01*
X175244767Y-112476865D01*
X175553877Y-112477134D01*
X175839560Y-112359092D01*
X176058324Y-112140710D01*
X176176865Y-111855233D01*
X176177134Y-111546123D01*
X176059092Y-111260440D01*
X175840710Y-111041676D01*
X175555233Y-110923135D01*
X175246123Y-110922866D01*
X175232404Y-110928535D01*
X174793953Y-110490083D01*
X174655424Y-110397521D01*
X174492018Y-110365017D01*
X174492013Y-110365018D01*
X172038852Y-110365018D01*
X173076869Y-109327000D01*
X176099995Y-109327000D01*
X176100000Y-109327001D01*
X176263406Y-109294497D01*
X176401935Y-109201935D01*
X177052598Y-108551271D01*
X177259290Y-108758324D01*
X177544767Y-108876865D01*
X177853877Y-108877134D01*
X178139560Y-108759092D01*
X178358324Y-108540710D01*
X178476865Y-108255233D01*
X178477134Y-107946123D01*
X178359092Y-107660440D01*
X178248844Y-107549999D01*
X178358324Y-107440710D01*
X178476865Y-107155233D01*
X178477134Y-106846123D01*
X178359092Y-106560440D01*
X178140710Y-106341676D01*
X177855233Y-106223135D01*
X177546123Y-106222866D01*
X177260440Y-106340908D01*
X177041676Y-106559290D01*
X176923135Y-106844767D01*
X176922980Y-107022999D01*
X176850001Y-107022999D01*
X176686595Y-107055502D01*
X176548066Y-107148064D01*
X176548064Y-107148067D01*
X175673141Y-108022989D01*
X173071649Y-108022989D01*
X174667638Y-106427000D01*
X175699995Y-106427000D01*
X175700000Y-106427001D01*
X175863406Y-106394497D01*
X176001935Y-106301935D01*
X176632216Y-105671654D01*
X176644767Y-105676865D01*
X176953877Y-105677134D01*
X177239560Y-105559092D01*
X177458324Y-105340710D01*
X177576865Y-105055233D01*
X177577134Y-104746123D01*
X177459092Y-104460440D01*
X177243779Y-104244750D01*
X191697000Y-104244750D01*
X191697000Y-105105044D01*
X191746783Y-105225230D01*
X191838769Y-105317217D01*
X191958955Y-105367000D01*
X192935250Y-105367000D01*
X193017000Y-105285250D01*
X193017000Y-104163000D01*
X193063000Y-104163000D01*
X193063000Y-105285250D01*
X193144750Y-105367000D01*
X194121045Y-105367000D01*
X194241231Y-105317217D01*
X194333217Y-105225230D01*
X194383000Y-105105044D01*
X194383000Y-104244750D01*
X194301250Y-104163000D01*
X193063000Y-104163000D01*
X193017000Y-104163000D01*
X191778750Y-104163000D01*
X191697000Y-104244750D01*
X177243779Y-104244750D01*
X177240710Y-104241676D01*
X176955233Y-104123135D01*
X176646123Y-104122866D01*
X176360440Y-104240908D01*
X176249999Y-104351156D01*
X176198931Y-104299999D01*
X176258324Y-104240710D01*
X176376865Y-103955233D01*
X176377134Y-103646123D01*
X176259092Y-103360440D01*
X176073932Y-103174956D01*
X191697000Y-103174956D01*
X191697000Y-104035250D01*
X191778750Y-104117000D01*
X193017000Y-104117000D01*
X193017000Y-102994750D01*
X193063000Y-102994750D01*
X193063000Y-104117000D01*
X194301250Y-104117000D01*
X194383000Y-104035250D01*
X194383000Y-103174956D01*
X194333217Y-103054770D01*
X194241231Y-102962783D01*
X194121045Y-102913000D01*
X193144750Y-102913000D01*
X193063000Y-102994750D01*
X193017000Y-102994750D01*
X192935250Y-102913000D01*
X191958955Y-102913000D01*
X191838769Y-102962783D01*
X191746783Y-103054770D01*
X191697000Y-103174956D01*
X176073932Y-103174956D01*
X176040710Y-103141676D01*
X175755233Y-103023135D01*
X175446123Y-103022866D01*
X175160440Y-103140908D01*
X174941676Y-103359290D01*
X174887804Y-103489027D01*
X174740710Y-103341676D01*
X174455233Y-103223135D01*
X174146123Y-103222866D01*
X174043693Y-103265189D01*
X173959092Y-103060440D01*
X173749019Y-102849999D01*
X173758324Y-102840710D01*
X173876865Y-102555233D01*
X173877134Y-102246123D01*
X173759092Y-101960440D01*
X173540710Y-101741676D01*
X173255233Y-101623135D01*
X172946123Y-101622866D01*
X172660440Y-101740908D01*
X172441676Y-101959290D01*
X172323135Y-102244767D01*
X172323023Y-102373108D01*
X170051428Y-104644702D01*
X169919421Y-104589888D01*
X169610311Y-104589619D01*
X169324628Y-104707661D01*
X169105864Y-104926043D01*
X168987323Y-105211520D01*
X168987054Y-105520630D01*
X169105096Y-105806313D01*
X169323478Y-106025077D01*
X169608955Y-106143618D01*
X169918065Y-106143887D01*
X170203748Y-106025845D01*
X170422512Y-105807463D01*
X170541053Y-105521986D01*
X170541192Y-105362678D01*
X172523104Y-103380766D01*
X172522866Y-103653877D01*
X172640908Y-103939560D01*
X172859290Y-104158324D01*
X172873000Y-104164017D01*
X172873000Y-104323131D01*
X170123130Y-107073000D01*
X168851743Y-107073000D01*
X167790553Y-106011810D01*
X167795765Y-105999259D01*
X167796034Y-105690149D01*
X167677992Y-105404466D01*
X167459610Y-105185702D01*
X167174133Y-105067161D01*
X166865023Y-105066892D01*
X166579340Y-105184934D01*
X166360576Y-105403316D01*
X166242035Y-105688793D01*
X166241766Y-105997903D01*
X166359808Y-106283586D01*
X166578190Y-106502350D01*
X166863667Y-106620891D01*
X167172777Y-106621160D01*
X167186496Y-106615492D01*
X167285179Y-106714174D01*
X167104433Y-106788857D01*
X166885669Y-107007239D01*
X166767128Y-107292716D01*
X166766859Y-107601826D01*
X166884901Y-107887509D01*
X167103283Y-108106273D01*
X167124211Y-108114963D01*
X165621863Y-108114963D01*
X165458457Y-108147466D01*
X165319928Y-108240028D01*
X165319926Y-108240031D01*
X164613206Y-108946750D01*
X162463455Y-108946750D01*
X162463450Y-108946749D01*
X162300044Y-108979253D01*
X162161515Y-109071815D01*
X162161513Y-109071818D01*
X159848021Y-111385309D01*
X159755459Y-111523838D01*
X159722955Y-111687244D01*
X159722956Y-111687249D01*
X159722956Y-114724241D01*
X159540710Y-114541676D01*
X159255233Y-114423135D01*
X158946123Y-114422866D01*
X158660440Y-114540908D01*
X158441676Y-114759290D01*
X158323135Y-115044767D01*
X158322866Y-115353877D01*
X138350203Y-115353877D01*
X138387000Y-115265044D01*
X138387000Y-114404750D01*
X138305250Y-114323000D01*
X137183000Y-114323000D01*
X137137000Y-114323000D01*
X136014750Y-114323000D01*
X135933000Y-114404750D01*
X135830945Y-114404750D01*
X135847000Y-114324038D01*
X135847000Y-114275962D01*
X135753600Y-113806409D01*
X135487620Y-113408342D01*
X135377791Y-113334956D01*
X135933000Y-113334956D01*
X135933000Y-114195250D01*
X136014750Y-114277000D01*
X137137000Y-114277000D01*
X137137000Y-113154750D01*
X137183000Y-113154750D01*
X137183000Y-114277000D01*
X138305250Y-114277000D01*
X138387000Y-114195250D01*
X138387000Y-113334956D01*
X138337217Y-113214770D01*
X138245231Y-113122783D01*
X138125045Y-113073000D01*
X137264750Y-113073000D01*
X137183000Y-113154750D01*
X137137000Y-113154750D01*
X137055250Y-113073000D01*
X136194955Y-113073000D01*
X136074769Y-113122783D01*
X135982783Y-113214770D01*
X135933000Y-113334956D01*
X135377791Y-113334956D01*
X135089553Y-113142362D01*
X134620000Y-113048962D01*
X134150447Y-113142362D01*
X133752380Y-113408342D01*
X133486400Y-113806409D01*
X133393000Y-114275962D01*
X127402000Y-114275962D01*
X127402000Y-111735962D01*
X133393000Y-111735962D01*
X133393000Y-111784038D01*
X133486400Y-112253591D01*
X133752380Y-112651658D01*
X134150447Y-112917638D01*
X134620000Y-113011038D01*
X135089553Y-112917638D01*
X135487620Y-112651658D01*
X135753600Y-112253591D01*
X135809089Y-111974629D01*
X135951915Y-111974629D01*
X136126010Y-112420605D01*
X136457520Y-112766010D01*
X136895976Y-112958260D01*
X136945372Y-112968082D01*
X137137000Y-112905019D01*
X137137000Y-111783000D01*
X137183000Y-111783000D01*
X137183000Y-112905019D01*
X137374628Y-112968082D01*
X137424024Y-112958260D01*
X137862480Y-112766010D01*
X138193990Y-112420605D01*
X138368085Y-111974629D01*
X138305037Y-111783000D01*
X137183000Y-111783000D01*
X137137000Y-111783000D01*
X136014963Y-111783000D01*
X135951915Y-111974629D01*
X135809089Y-111974629D01*
X135847000Y-111784038D01*
X135847000Y-111735962D01*
X135809090Y-111545371D01*
X135951915Y-111545371D01*
X136014963Y-111737000D01*
X137137000Y-111737000D01*
X137137000Y-110614981D01*
X137183000Y-110614981D01*
X137183000Y-111737000D01*
X138305037Y-111737000D01*
X138368085Y-111545371D01*
X138193990Y-111099395D01*
X137862480Y-110753990D01*
X137424024Y-110561740D01*
X137374628Y-110551918D01*
X137183000Y-110614981D01*
X137137000Y-110614981D01*
X136945372Y-110551918D01*
X136895976Y-110561740D01*
X136457520Y-110753990D01*
X136126010Y-111099395D01*
X135951915Y-111545371D01*
X135809090Y-111545371D01*
X135753600Y-111266409D01*
X135487620Y-110868342D01*
X135089553Y-110602362D01*
X134620000Y-110508962D01*
X134150447Y-110602362D01*
X133752380Y-110868342D01*
X133486400Y-111266409D01*
X133393000Y-111735962D01*
X127402000Y-111735962D01*
X127402000Y-109195962D01*
X133393000Y-109195962D01*
X133393000Y-109244038D01*
X133486400Y-109713591D01*
X133752380Y-110111658D01*
X134150447Y-110377638D01*
X134620000Y-110471038D01*
X135089553Y-110377638D01*
X135487620Y-110111658D01*
X135753600Y-109713591D01*
X135809089Y-109434629D01*
X135951915Y-109434629D01*
X136126010Y-109880605D01*
X136457520Y-110226010D01*
X136895976Y-110418260D01*
X136945372Y-110428082D01*
X137137000Y-110365019D01*
X137137000Y-109243000D01*
X137183000Y-109243000D01*
X137183000Y-110365019D01*
X137374628Y-110428082D01*
X137424024Y-110418260D01*
X137862480Y-110226010D01*
X138193990Y-109880605D01*
X138368085Y-109434629D01*
X138305037Y-109243000D01*
X137183000Y-109243000D01*
X137137000Y-109243000D01*
X136014963Y-109243000D01*
X135951915Y-109434629D01*
X135809089Y-109434629D01*
X135847000Y-109244038D01*
X135847000Y-109195962D01*
X135809090Y-109005371D01*
X135951915Y-109005371D01*
X136014963Y-109197000D01*
X137137000Y-109197000D01*
X137137000Y-108074981D01*
X137183000Y-108074981D01*
X137183000Y-109197000D01*
X138305037Y-109197000D01*
X138368085Y-109005371D01*
X138193990Y-108559395D01*
X137862480Y-108213990D01*
X137424024Y-108021740D01*
X137374628Y-108011918D01*
X137183000Y-108074981D01*
X137137000Y-108074981D01*
X136945372Y-108011918D01*
X136895976Y-108021740D01*
X136457520Y-108213990D01*
X136126010Y-108559395D01*
X135951915Y-109005371D01*
X135809090Y-109005371D01*
X135753600Y-108726409D01*
X135487620Y-108328342D01*
X135089553Y-108062362D01*
X134620000Y-107968962D01*
X134150447Y-108062362D01*
X133752380Y-108328342D01*
X133486400Y-108726409D01*
X133393000Y-109195962D01*
X127402000Y-109195962D01*
X127402000Y-106655962D01*
X133393000Y-106655962D01*
X133393000Y-106704038D01*
X133486400Y-107173591D01*
X133752380Y-107571658D01*
X134150447Y-107837638D01*
X134620000Y-107931038D01*
X135089553Y-107837638D01*
X135487620Y-107571658D01*
X135753600Y-107173591D01*
X135809089Y-106894629D01*
X135951915Y-106894629D01*
X136126010Y-107340605D01*
X136457520Y-107686010D01*
X136895976Y-107878260D01*
X136945372Y-107888082D01*
X137137000Y-107825019D01*
X137137000Y-106703000D01*
X137183000Y-106703000D01*
X137183000Y-107825019D01*
X137374628Y-107888082D01*
X137424024Y-107878260D01*
X137862480Y-107686010D01*
X138193990Y-107340605D01*
X138368085Y-106894629D01*
X138305037Y-106703000D01*
X137183000Y-106703000D01*
X137137000Y-106703000D01*
X136014963Y-106703000D01*
X135951915Y-106894629D01*
X135809089Y-106894629D01*
X135847000Y-106704038D01*
X135847000Y-106655962D01*
X135809090Y-106465371D01*
X135951915Y-106465371D01*
X136014963Y-106657000D01*
X137137000Y-106657000D01*
X137137000Y-105534981D01*
X137183000Y-105534981D01*
X137183000Y-106657000D01*
X138305037Y-106657000D01*
X138368085Y-106465371D01*
X138193990Y-106019395D01*
X137862480Y-105673990D01*
X137424024Y-105481740D01*
X137374628Y-105471918D01*
X137183000Y-105534981D01*
X137137000Y-105534981D01*
X136945372Y-105471918D01*
X136895976Y-105481740D01*
X136457520Y-105673990D01*
X136126010Y-106019395D01*
X135951915Y-106465371D01*
X135809090Y-106465371D01*
X135753600Y-106186409D01*
X135487620Y-105788342D01*
X135089553Y-105522362D01*
X134620000Y-105428962D01*
X134150447Y-105522362D01*
X133752380Y-105788342D01*
X133486400Y-106186409D01*
X133393000Y-106655962D01*
X127402000Y-106655962D01*
X127402000Y-102284172D01*
X131342809Y-102284172D01*
X131491235Y-102643390D01*
X131765830Y-102918465D01*
X132124789Y-103067517D01*
X132378185Y-103067739D01*
X133398543Y-104088097D01*
X133393000Y-104115962D01*
X133393000Y-104164038D01*
X133486400Y-104633591D01*
X133752380Y-105031658D01*
X134150447Y-105297638D01*
X134620000Y-105391038D01*
X135089553Y-105297638D01*
X135487620Y-105031658D01*
X135753600Y-104633591D01*
X135809089Y-104354629D01*
X135951915Y-104354629D01*
X136126010Y-104800605D01*
X136457520Y-105146010D01*
X136895976Y-105338260D01*
X136945372Y-105348082D01*
X137137000Y-105285019D01*
X137137000Y-104163000D01*
X137183000Y-104163000D01*
X137183000Y-105285019D01*
X137374628Y-105348082D01*
X137424024Y-105338260D01*
X137862480Y-105146010D01*
X138193990Y-104800605D01*
X138368085Y-104354629D01*
X138305037Y-104163000D01*
X137183000Y-104163000D01*
X137137000Y-104163000D01*
X136014963Y-104163000D01*
X135951915Y-104354629D01*
X135809089Y-104354629D01*
X135847000Y-104164038D01*
X135847000Y-104115962D01*
X135753600Y-103646409D01*
X135487620Y-103248342D01*
X135089553Y-102982362D01*
X134620000Y-102888962D01*
X134552035Y-102902481D01*
X134470943Y-102821389D01*
X134620000Y-102851038D01*
X135089553Y-102757638D01*
X135118843Y-102738067D01*
X135525389Y-103144613D01*
X135672028Y-103242595D01*
X135845001Y-103277001D01*
X136320262Y-103277001D01*
X136126010Y-103479395D01*
X135951915Y-103925371D01*
X136014963Y-104117000D01*
X137137000Y-104117000D01*
X137137000Y-104097000D01*
X137183000Y-104097000D01*
X137183000Y-104117000D01*
X138305037Y-104117000D01*
X138368085Y-103925371D01*
X138328388Y-103823680D01*
X138977353Y-104472645D01*
X139148323Y-104586885D01*
X139349998Y-104627000D01*
X140181710Y-104627000D01*
X142607355Y-107052645D01*
X142778325Y-107166885D01*
X142980000Y-107207000D01*
X143678474Y-107207000D01*
X143906069Y-107547620D01*
X144304136Y-107813600D01*
X144373636Y-107827425D01*
X143279141Y-108921920D01*
X143253456Y-108911255D01*
X142864781Y-108910915D01*
X142505563Y-109059341D01*
X142230488Y-109333936D01*
X142081436Y-109692895D01*
X142081096Y-110081570D01*
X142229522Y-110440788D01*
X142504117Y-110715863D01*
X142863076Y-110864915D01*
X143251751Y-110865255D01*
X143610969Y-110716829D01*
X143886044Y-110442234D01*
X144028151Y-110100000D01*
X157372999Y-110100000D01*
X157373000Y-110100005D01*
X157373000Y-111699995D01*
X157372999Y-111700000D01*
X157405503Y-111863406D01*
X157498065Y-112001935D01*
X157728347Y-112232216D01*
X157723135Y-112244767D01*
X157722866Y-112553877D01*
X157840908Y-112839560D01*
X158059290Y-113058324D01*
X158344767Y-113176865D01*
X158653877Y-113177134D01*
X158939560Y-113059092D01*
X159158324Y-112840710D01*
X159276865Y-112555233D01*
X159277134Y-112246123D01*
X159159092Y-111960440D01*
X158940710Y-111741676D01*
X158655233Y-111623135D01*
X158346123Y-111622866D01*
X158332404Y-111628535D01*
X158227000Y-111523130D01*
X158227000Y-111086440D01*
X158444767Y-111176865D01*
X158753877Y-111177134D01*
X159039560Y-111059092D01*
X159258324Y-110840710D01*
X159315913Y-110702020D01*
X160274975Y-110702020D01*
X160274980Y-110702021D01*
X160438386Y-110669517D01*
X160576915Y-110576955D01*
X162651932Y-108501937D01*
X162651935Y-108501935D01*
X162744497Y-108363406D01*
X162777000Y-108200000D01*
X162777000Y-105600005D01*
X162777001Y-105600000D01*
X162744497Y-105436594D01*
X162651935Y-105298065D01*
X160427000Y-103073130D01*
X160427000Y-101826870D01*
X160651932Y-101601937D01*
X160651935Y-101601935D01*
X160653227Y-101600000D01*
X191670689Y-101600000D01*
X191764089Y-102069553D01*
X192030069Y-102467620D01*
X192428136Y-102733600D01*
X192897689Y-102827000D01*
X193182311Y-102827000D01*
X193651864Y-102733600D01*
X194049931Y-102467620D01*
X194315911Y-102069553D01*
X194409311Y-101600000D01*
X194315911Y-101130447D01*
X194049931Y-100732380D01*
X193651864Y-100466400D01*
X193182311Y-100373000D01*
X192897689Y-100373000D01*
X192428136Y-100466400D01*
X192030069Y-100732380D01*
X191764089Y-101130447D01*
X191670689Y-101600000D01*
X160653227Y-101600000D01*
X160744497Y-101463406D01*
X160777001Y-101300000D01*
X160777000Y-101299995D01*
X160777000Y-100700000D01*
X160744497Y-100536594D01*
X160651935Y-100398065D01*
X160651932Y-100398063D01*
X160321653Y-100067784D01*
X160326865Y-100055233D01*
X160327134Y-99746123D01*
X160209092Y-99460440D01*
X159990710Y-99241676D01*
X159705233Y-99123135D01*
X159396123Y-99122866D01*
X159110440Y-99240908D01*
X158891676Y-99459290D01*
X158806228Y-99665072D01*
X158705233Y-99623135D01*
X158396123Y-99622866D01*
X158110440Y-99740908D01*
X157891676Y-99959290D01*
X157773135Y-100244767D01*
X157772866Y-100553877D01*
X157890908Y-100839560D01*
X158109290Y-101058324D01*
X158123000Y-101064017D01*
X158123000Y-101099995D01*
X158122999Y-101100000D01*
X158155503Y-101263406D01*
X158248065Y-101401935D01*
X158673000Y-101826869D01*
X158673000Y-104322889D01*
X158646123Y-104322866D01*
X158360440Y-104440908D01*
X158141676Y-104659290D01*
X158023135Y-104944767D01*
X158022866Y-105253877D01*
X158140908Y-105539560D01*
X158359290Y-105758324D01*
X158644767Y-105876865D01*
X158953877Y-105877134D01*
X159239560Y-105759092D01*
X159458324Y-105540710D01*
X159576865Y-105255233D01*
X159577134Y-104946123D01*
X159523672Y-104816735D01*
X159527001Y-104800000D01*
X159527000Y-104799995D01*
X159527000Y-104080870D01*
X161473000Y-106026870D01*
X161473000Y-107773130D01*
X160173130Y-109073000D01*
X158400000Y-109073000D01*
X158236594Y-109105503D01*
X158098065Y-109198065D01*
X158098063Y-109198068D01*
X157498065Y-109798065D01*
X157405503Y-109936594D01*
X157372999Y-110100000D01*
X144028151Y-110100000D01*
X144035096Y-110083275D01*
X144035436Y-109694600D01*
X144024210Y-109667431D01*
X145288645Y-108402996D01*
X145402885Y-108232026D01*
X145443000Y-108030351D01*
X145443000Y-107830481D01*
X145500742Y-107818995D01*
X154066721Y-107818995D01*
X154184763Y-108104678D01*
X154403145Y-108323442D01*
X154645330Y-108424006D01*
X154585460Y-108568188D01*
X154585191Y-108877298D01*
X154703233Y-109162981D01*
X154921615Y-109381745D01*
X155207092Y-109500286D01*
X155516202Y-109500555D01*
X155801885Y-109382513D01*
X156020649Y-109164131D01*
X156139190Y-108878654D01*
X156139459Y-108569544D01*
X156133791Y-108555825D01*
X156362615Y-108327000D01*
X159335718Y-108327000D01*
X159340908Y-108339560D01*
X159559290Y-108558324D01*
X159844767Y-108676865D01*
X160153877Y-108677134D01*
X160439560Y-108559092D01*
X160658324Y-108340710D01*
X160776865Y-108055233D01*
X160777134Y-107746123D01*
X160748626Y-107677129D01*
X160753877Y-107677134D01*
X161039560Y-107559092D01*
X161258324Y-107340710D01*
X161376865Y-107055233D01*
X161377134Y-106746123D01*
X161259092Y-106460440D01*
X161040710Y-106241676D01*
X160755233Y-106123135D01*
X160446123Y-106122866D01*
X160160440Y-106240908D01*
X159941676Y-106459290D01*
X159935983Y-106473000D01*
X155608978Y-106473000D01*
X155608973Y-106472999D01*
X155461418Y-106502350D01*
X155445567Y-106505503D01*
X155307038Y-106598065D01*
X155307036Y-106598068D01*
X155011639Y-106893464D01*
X154999088Y-106888253D01*
X154689978Y-106887984D01*
X154404295Y-107006026D01*
X154185531Y-107224408D01*
X154066990Y-107509885D01*
X154066721Y-107818995D01*
X145500742Y-107818995D01*
X145527864Y-107813600D01*
X145925931Y-107547620D01*
X146191911Y-107149553D01*
X146285311Y-106680000D01*
X146191911Y-106210447D01*
X145925931Y-105812380D01*
X145527864Y-105546400D01*
X145058311Y-105453000D01*
X144773689Y-105453000D01*
X144304136Y-105546400D01*
X143906069Y-105812380D01*
X143678474Y-106153000D01*
X143198290Y-106153000D01*
X141185290Y-104140000D01*
X143546689Y-104140000D01*
X143640089Y-104609553D01*
X143906069Y-105007620D01*
X144304136Y-105273600D01*
X144773689Y-105367000D01*
X145058311Y-105367000D01*
X145527864Y-105273600D01*
X145925931Y-105007620D01*
X146191911Y-104609553D01*
X146285311Y-104140000D01*
X146191911Y-103670447D01*
X145925931Y-103272380D01*
X145527864Y-103006400D01*
X145058311Y-102913000D01*
X144773689Y-102913000D01*
X144304136Y-103006400D01*
X143906069Y-103272380D01*
X143640089Y-103670447D01*
X143546689Y-104140000D01*
X141185290Y-104140000D01*
X140772645Y-103727355D01*
X140601675Y-103613115D01*
X140400000Y-103573000D01*
X139568288Y-103573000D01*
X138447644Y-102452356D01*
X138276674Y-102338116D01*
X138144777Y-102311881D01*
X138193990Y-102260605D01*
X138368085Y-101814629D01*
X138331934Y-101704750D01*
X143573000Y-101704750D01*
X143573000Y-102565044D01*
X143622783Y-102685230D01*
X143714769Y-102777217D01*
X143834955Y-102827000D01*
X144811250Y-102827000D01*
X144893000Y-102745250D01*
X144893000Y-101623000D01*
X144939000Y-101623000D01*
X144939000Y-102745250D01*
X145020750Y-102827000D01*
X145997045Y-102827000D01*
X146117231Y-102777217D01*
X146209217Y-102685230D01*
X146259000Y-102565044D01*
X146259000Y-101704750D01*
X146177250Y-101623000D01*
X144939000Y-101623000D01*
X144893000Y-101623000D01*
X143654750Y-101623000D01*
X143573000Y-101704750D01*
X138331934Y-101704750D01*
X138305037Y-101623000D01*
X137183000Y-101623000D01*
X137183000Y-101643000D01*
X137137000Y-101643000D01*
X137137000Y-101623000D01*
X136014963Y-101623000D01*
X135951915Y-101814629D01*
X136126010Y-102260605D01*
X136233885Y-102373001D01*
X136032225Y-102373001D01*
X135753286Y-102094062D01*
X135753600Y-102093591D01*
X135847000Y-101624038D01*
X135847000Y-101575962D01*
X135809090Y-101385371D01*
X135951915Y-101385371D01*
X136014963Y-101577000D01*
X137137000Y-101577000D01*
X137137000Y-100454981D01*
X137183000Y-100454981D01*
X137183000Y-101577000D01*
X138305037Y-101577000D01*
X138368085Y-101385371D01*
X138193990Y-100939395D01*
X137901799Y-100634956D01*
X143573000Y-100634956D01*
X143573000Y-101495250D01*
X143654750Y-101577000D01*
X144893000Y-101577000D01*
X144893000Y-100454750D01*
X144939000Y-100454750D01*
X144939000Y-101577000D01*
X146177250Y-101577000D01*
X146259000Y-101495250D01*
X146259000Y-100634956D01*
X146209217Y-100514770D01*
X146117231Y-100422783D01*
X145997045Y-100373000D01*
X145020750Y-100373000D01*
X144939000Y-100454750D01*
X144893000Y-100454750D01*
X144811250Y-100373000D01*
X143834955Y-100373000D01*
X143714769Y-100422783D01*
X143622783Y-100514770D01*
X143573000Y-100634956D01*
X137901799Y-100634956D01*
X137862480Y-100593990D01*
X137424024Y-100401740D01*
X137374628Y-100391918D01*
X137183000Y-100454981D01*
X137137000Y-100454981D01*
X136945372Y-100391918D01*
X136895976Y-100401740D01*
X136457520Y-100593990D01*
X136126010Y-100939395D01*
X135951915Y-101385371D01*
X135809090Y-101385371D01*
X135753600Y-101106409D01*
X135487620Y-100708342D01*
X135089553Y-100442362D01*
X134620000Y-100348962D01*
X134150447Y-100442362D01*
X133752380Y-100708342D01*
X133486400Y-101106409D01*
X133393000Y-101575962D01*
X133393000Y-101624038D01*
X133422649Y-101773095D01*
X133155464Y-101505910D01*
X133039066Y-101428135D01*
X132874128Y-101262909D01*
X132515169Y-101113857D01*
X132126494Y-101113517D01*
X131767276Y-101261943D01*
X131492201Y-101536538D01*
X131343149Y-101895497D01*
X131342809Y-102284172D01*
X127402000Y-102284172D01*
X127402000Y-99035962D01*
X133393000Y-99035962D01*
X133393000Y-99084038D01*
X133486400Y-99553591D01*
X133752380Y-99951658D01*
X134150447Y-100217638D01*
X134620000Y-100311038D01*
X135089553Y-100217638D01*
X135487620Y-99951658D01*
X135753600Y-99553591D01*
X135809089Y-99274629D01*
X135951915Y-99274629D01*
X136126010Y-99720605D01*
X136457520Y-100066010D01*
X136895976Y-100258260D01*
X136945372Y-100268082D01*
X137137000Y-100205019D01*
X137137000Y-99083000D01*
X137183000Y-99083000D01*
X137183000Y-100205019D01*
X137374628Y-100268082D01*
X137424024Y-100258260D01*
X137862480Y-100066010D01*
X138193990Y-99720605D01*
X138368085Y-99274629D01*
X138305037Y-99083000D01*
X137183000Y-99083000D01*
X137137000Y-99083000D01*
X136014963Y-99083000D01*
X135951915Y-99274629D01*
X135809089Y-99274629D01*
X135847000Y-99084038D01*
X135847000Y-99060000D01*
X191670689Y-99060000D01*
X191764089Y-99529553D01*
X192030069Y-99927620D01*
X192428136Y-100193600D01*
X192897689Y-100287000D01*
X193182311Y-100287000D01*
X193651864Y-100193600D01*
X194049931Y-99927620D01*
X194315911Y-99529553D01*
X194409311Y-99060000D01*
X194315911Y-98590447D01*
X194049931Y-98192380D01*
X193651864Y-97926400D01*
X193182311Y-97833000D01*
X192897689Y-97833000D01*
X192428136Y-97926400D01*
X192030069Y-98192380D01*
X191764089Y-98590447D01*
X191670689Y-99060000D01*
X135847000Y-99060000D01*
X135847000Y-99035962D01*
X135809090Y-98845371D01*
X135951915Y-98845371D01*
X136014963Y-99037000D01*
X137137000Y-99037000D01*
X137137000Y-97914981D01*
X137183000Y-97914981D01*
X137183000Y-99037000D01*
X138305037Y-99037000D01*
X138368085Y-98845371D01*
X138193990Y-98399395D01*
X137862480Y-98053990D01*
X137424024Y-97861740D01*
X137374628Y-97851918D01*
X137183000Y-97914981D01*
X137137000Y-97914981D01*
X136945372Y-97851918D01*
X136895976Y-97861740D01*
X136457520Y-98053990D01*
X136126010Y-98399395D01*
X135951915Y-98845371D01*
X135809090Y-98845371D01*
X135753600Y-98566409D01*
X135487620Y-98168342D01*
X135089553Y-97902362D01*
X134620000Y-97808962D01*
X134150447Y-97902362D01*
X133752380Y-98168342D01*
X133486400Y-98566409D01*
X133393000Y-99035962D01*
X127402000Y-99035962D01*
X127402000Y-77117505D01*
X128922492Y-77117505D01*
X128922493Y-77117510D01*
X128922493Y-80049488D01*
X128922492Y-80049493D01*
X128954996Y-80212899D01*
X129047558Y-80351428D01*
X130848002Y-82151872D01*
X130848002Y-87933975D01*
X130848001Y-87933980D01*
X130880505Y-88097386D01*
X130973067Y-88235915D01*
X133185409Y-90448256D01*
X133124994Y-90423170D01*
X132736319Y-90422830D01*
X132377101Y-90571256D01*
X132102026Y-90845851D01*
X131952974Y-91204810D01*
X131952634Y-91593485D01*
X132101060Y-91952703D01*
X132102804Y-91954450D01*
X132102804Y-94724394D01*
X131747372Y-94871256D01*
X131472297Y-95145851D01*
X131323245Y-95504810D01*
X131322905Y-95893485D01*
X131471331Y-96252703D01*
X131745926Y-96527778D01*
X132104885Y-96676830D01*
X132493560Y-96677170D01*
X132852778Y-96528744D01*
X132885617Y-96495962D01*
X133393000Y-96495962D01*
X133393000Y-96544038D01*
X133486400Y-97013591D01*
X133752380Y-97411658D01*
X134150447Y-97677638D01*
X134620000Y-97771038D01*
X135089553Y-97677638D01*
X135487620Y-97411658D01*
X135753600Y-97013591D01*
X135847000Y-96544038D01*
X135847000Y-96495962D01*
X135933000Y-96495962D01*
X135933000Y-96544038D01*
X136026400Y-97013591D01*
X136292380Y-97411658D01*
X136690447Y-97677638D01*
X137160000Y-97771038D01*
X137629553Y-97677638D01*
X138027620Y-97411658D01*
X138293600Y-97013591D01*
X138387000Y-96544038D01*
X138387000Y-96520000D01*
X191670689Y-96520000D01*
X191764089Y-96989553D01*
X192030069Y-97387620D01*
X192428136Y-97653600D01*
X192897689Y-97747000D01*
X193182311Y-97747000D01*
X193651864Y-97653600D01*
X194049931Y-97387620D01*
X194315911Y-96989553D01*
X194409311Y-96520000D01*
X194315911Y-96050447D01*
X194049931Y-95652380D01*
X193651864Y-95386400D01*
X193182311Y-95293000D01*
X192897689Y-95293000D01*
X192428136Y-95386400D01*
X192030069Y-95652380D01*
X191764089Y-96050447D01*
X191670689Y-96520000D01*
X138387000Y-96520000D01*
X138387000Y-96495962D01*
X138293600Y-96026409D01*
X138027620Y-95628342D01*
X137629553Y-95362362D01*
X137160000Y-95268962D01*
X136690447Y-95362362D01*
X136292380Y-95628342D01*
X136026400Y-96026409D01*
X135933000Y-96495962D01*
X135847000Y-96495962D01*
X135753600Y-96026409D01*
X135487620Y-95628342D01*
X135089553Y-95362362D01*
X134620000Y-95268962D01*
X134150447Y-95362362D01*
X133752380Y-95628342D01*
X133486400Y-96026409D01*
X133393000Y-96495962D01*
X132885617Y-96495962D01*
X133127853Y-96254149D01*
X133276905Y-95895190D01*
X133276907Y-95892722D01*
X133514581Y-95655049D01*
X133693852Y-95386750D01*
X133703869Y-95336392D01*
X133756804Y-95070271D01*
X133756804Y-91954926D01*
X133757582Y-91954149D01*
X133906634Y-91595190D01*
X133906974Y-91206515D01*
X133881137Y-91143984D01*
X135239085Y-92501932D01*
X135239087Y-92501935D01*
X135377616Y-92594497D01*
X135541022Y-92627000D01*
X139723130Y-92627000D01*
X139973000Y-92876869D01*
X139973000Y-94822889D01*
X139946123Y-94822866D01*
X139660440Y-94940908D01*
X139441676Y-95159290D01*
X139323135Y-95444767D01*
X139322866Y-95753877D01*
X139440908Y-96039560D01*
X139659290Y-96258324D01*
X139944767Y-96376865D01*
X140253877Y-96377134D01*
X140539560Y-96259092D01*
X140650001Y-96148844D01*
X140759290Y-96258324D01*
X141044767Y-96376865D01*
X141353877Y-96377134D01*
X141639560Y-96259092D01*
X141858324Y-96040710D01*
X141950080Y-95819739D01*
X142040908Y-96039560D01*
X142259290Y-96258324D01*
X142544767Y-96376865D01*
X142853877Y-96377134D01*
X143139560Y-96259092D01*
X143358324Y-96040710D01*
X143476865Y-95755233D01*
X143477134Y-95446123D01*
X143359092Y-95160440D01*
X143140710Y-94941676D01*
X142855233Y-94823135D01*
X142546123Y-94822866D01*
X142320119Y-94916249D01*
X141827000Y-94423130D01*
X141827000Y-92977111D01*
X141853877Y-92977134D01*
X142139560Y-92859092D01*
X142358324Y-92640710D01*
X142476865Y-92355233D01*
X142477134Y-92046123D01*
X142359092Y-91760440D01*
X142140710Y-91541676D01*
X141855233Y-91423135D01*
X141546123Y-91422866D01*
X141260440Y-91540908D01*
X141041676Y-91759290D01*
X140959958Y-91956088D01*
X140451935Y-91448065D01*
X140313406Y-91355503D01*
X140150000Y-91322999D01*
X140149995Y-91323000D01*
X135904302Y-91323000D01*
X134713702Y-90132400D01*
X135089553Y-90057638D01*
X135487620Y-89791658D01*
X135753600Y-89393591D01*
X135830945Y-89004750D01*
X135933000Y-89004750D01*
X135933000Y-89865044D01*
X135982783Y-89985230D01*
X136074769Y-90077217D01*
X136194955Y-90127000D01*
X137055250Y-90127000D01*
X137137000Y-90045250D01*
X137137000Y-88923000D01*
X137183000Y-88923000D01*
X137183000Y-90045250D01*
X137264750Y-90127000D01*
X138125045Y-90127000D01*
X138245231Y-90077217D01*
X138337217Y-89985230D01*
X138387000Y-89865044D01*
X138387000Y-89004750D01*
X143437000Y-89004750D01*
X143437000Y-89865044D01*
X143486783Y-89985230D01*
X143578769Y-90077217D01*
X143698955Y-90127000D01*
X144675250Y-90127000D01*
X144757000Y-90045250D01*
X144757000Y-88923000D01*
X144803000Y-88923000D01*
X144803000Y-90045250D01*
X144884750Y-90127000D01*
X145861045Y-90127000D01*
X145981231Y-90077217D01*
X146073217Y-89985230D01*
X146123000Y-89865044D01*
X146123000Y-89004750D01*
X146951888Y-89004750D01*
X146951888Y-89865044D01*
X147001671Y-89985230D01*
X147093657Y-90077217D01*
X147213843Y-90127000D01*
X148190138Y-90127000D01*
X148271888Y-90045250D01*
X148271888Y-88923000D01*
X148317888Y-88923000D01*
X148317888Y-90045250D01*
X148399638Y-90127000D01*
X149375933Y-90127000D01*
X149496119Y-90077217D01*
X149588105Y-89985230D01*
X149637888Y-89865044D01*
X149637888Y-89004750D01*
X191697000Y-89004750D01*
X191697000Y-89865044D01*
X191746783Y-89985230D01*
X191838769Y-90077217D01*
X191958955Y-90127000D01*
X192935250Y-90127000D01*
X193017000Y-90045250D01*
X193017000Y-88923000D01*
X193063000Y-88923000D01*
X193063000Y-90045250D01*
X193144750Y-90127000D01*
X194121045Y-90127000D01*
X194241231Y-90077217D01*
X194333217Y-89985230D01*
X194383000Y-89865044D01*
X194383000Y-89004750D01*
X194301250Y-88923000D01*
X193063000Y-88923000D01*
X193017000Y-88923000D01*
X191778750Y-88923000D01*
X191697000Y-89004750D01*
X149637888Y-89004750D01*
X149556138Y-88923000D01*
X148317888Y-88923000D01*
X148271888Y-88923000D01*
X147033638Y-88923000D01*
X146951888Y-89004750D01*
X146123000Y-89004750D01*
X146041250Y-88923000D01*
X144803000Y-88923000D01*
X144757000Y-88923000D01*
X143518750Y-88923000D01*
X143437000Y-89004750D01*
X138387000Y-89004750D01*
X138305250Y-88923000D01*
X137183000Y-88923000D01*
X137137000Y-88923000D01*
X136014750Y-88923000D01*
X135933000Y-89004750D01*
X135830945Y-89004750D01*
X135847000Y-88924038D01*
X135847000Y-88875962D01*
X135753600Y-88406409D01*
X135487620Y-88008342D01*
X135377791Y-87934956D01*
X135933000Y-87934956D01*
X135933000Y-88795250D01*
X136014750Y-88877000D01*
X137137000Y-88877000D01*
X137137000Y-87754750D01*
X137183000Y-87754750D01*
X137183000Y-88877000D01*
X138305250Y-88877000D01*
X138387000Y-88795250D01*
X138387000Y-87934956D01*
X143437000Y-87934956D01*
X143437000Y-88795250D01*
X143518750Y-88877000D01*
X144757000Y-88877000D01*
X144757000Y-87754750D01*
X144803000Y-87754750D01*
X144803000Y-88877000D01*
X146041250Y-88877000D01*
X146123000Y-88795250D01*
X146123000Y-87934956D01*
X146951888Y-87934956D01*
X146951888Y-88795250D01*
X147033638Y-88877000D01*
X148271888Y-88877000D01*
X148271888Y-87754750D01*
X148317888Y-87754750D01*
X148317888Y-88877000D01*
X149556138Y-88877000D01*
X149637888Y-88795250D01*
X149637888Y-87934956D01*
X191697000Y-87934956D01*
X191697000Y-88795250D01*
X191778750Y-88877000D01*
X193017000Y-88877000D01*
X193017000Y-87754750D01*
X193063000Y-87754750D01*
X193063000Y-88877000D01*
X194301250Y-88877000D01*
X194383000Y-88795250D01*
X194383000Y-87934956D01*
X194333217Y-87814770D01*
X194241231Y-87722783D01*
X194121045Y-87673000D01*
X193144750Y-87673000D01*
X193063000Y-87754750D01*
X193017000Y-87754750D01*
X192935250Y-87673000D01*
X191958955Y-87673000D01*
X191838769Y-87722783D01*
X191746783Y-87814770D01*
X191697000Y-87934956D01*
X149637888Y-87934956D01*
X149588105Y-87814770D01*
X149496119Y-87722783D01*
X149375933Y-87673000D01*
X148399638Y-87673000D01*
X148317888Y-87754750D01*
X148271888Y-87754750D01*
X148190138Y-87673000D01*
X147213843Y-87673000D01*
X147093657Y-87722783D01*
X147001671Y-87814770D01*
X146951888Y-87934956D01*
X146123000Y-87934956D01*
X146073217Y-87814770D01*
X145981231Y-87722783D01*
X145861045Y-87673000D01*
X144884750Y-87673000D01*
X144803000Y-87754750D01*
X144757000Y-87754750D01*
X144675250Y-87673000D01*
X143698955Y-87673000D01*
X143578769Y-87722783D01*
X143486783Y-87814770D01*
X143437000Y-87934956D01*
X138387000Y-87934956D01*
X138337217Y-87814770D01*
X138245231Y-87722783D01*
X138125045Y-87673000D01*
X137264750Y-87673000D01*
X137183000Y-87754750D01*
X137137000Y-87754750D01*
X137055250Y-87673000D01*
X136194955Y-87673000D01*
X136074769Y-87722783D01*
X135982783Y-87814770D01*
X135933000Y-87934956D01*
X135377791Y-87934956D01*
X135089553Y-87742362D01*
X134620000Y-87648962D01*
X134150447Y-87742362D01*
X133752380Y-88008342D01*
X133486400Y-88406409D01*
X133403662Y-88822360D01*
X132152013Y-87570710D01*
X132152013Y-86335962D01*
X133393000Y-86335962D01*
X133393000Y-86384038D01*
X133486400Y-86853591D01*
X133752380Y-87251658D01*
X134150447Y-87517638D01*
X134620000Y-87611038D01*
X135089553Y-87517638D01*
X135487620Y-87251658D01*
X135753600Y-86853591D01*
X135847000Y-86384038D01*
X135847000Y-86335962D01*
X135933000Y-86335962D01*
X135933000Y-86384038D01*
X136026400Y-86853591D01*
X136292380Y-87251658D01*
X136690447Y-87517638D01*
X137160000Y-87611038D01*
X137629553Y-87517638D01*
X138027620Y-87251658D01*
X138293600Y-86853591D01*
X138387000Y-86384038D01*
X138387000Y-86360000D01*
X143410689Y-86360000D01*
X143504089Y-86829553D01*
X143770069Y-87227620D01*
X144168136Y-87493600D01*
X144637689Y-87587000D01*
X144922311Y-87587000D01*
X145391864Y-87493600D01*
X145789931Y-87227620D01*
X146055911Y-86829553D01*
X146149311Y-86360000D01*
X146925577Y-86360000D01*
X147018977Y-86829553D01*
X147284957Y-87227620D01*
X147683024Y-87493600D01*
X148152577Y-87587000D01*
X148437199Y-87587000D01*
X148906752Y-87493600D01*
X149304819Y-87227620D01*
X149570799Y-86829553D01*
X149664199Y-86360000D01*
X191670689Y-86360000D01*
X191764089Y-86829553D01*
X192030069Y-87227620D01*
X192428136Y-87493600D01*
X192897689Y-87587000D01*
X193182311Y-87587000D01*
X193651864Y-87493600D01*
X194049931Y-87227620D01*
X194315911Y-86829553D01*
X194409311Y-86360000D01*
X194315911Y-85890447D01*
X194049931Y-85492380D01*
X193651864Y-85226400D01*
X193182311Y-85133000D01*
X192897689Y-85133000D01*
X192428136Y-85226400D01*
X192030069Y-85492380D01*
X191764089Y-85890447D01*
X191670689Y-86360000D01*
X149664199Y-86360000D01*
X149570799Y-85890447D01*
X149304819Y-85492380D01*
X148906752Y-85226400D01*
X148437199Y-85133000D01*
X148152577Y-85133000D01*
X147683024Y-85226400D01*
X147284957Y-85492380D01*
X147018977Y-85890447D01*
X146925577Y-86360000D01*
X146149311Y-86360000D01*
X146055911Y-85890447D01*
X145789931Y-85492380D01*
X145391864Y-85226400D01*
X144922311Y-85133000D01*
X144637689Y-85133000D01*
X144168136Y-85226400D01*
X143770069Y-85492380D01*
X143504089Y-85890447D01*
X143410689Y-86360000D01*
X138387000Y-86360000D01*
X138387000Y-86335962D01*
X138293600Y-85866409D01*
X138027620Y-85468342D01*
X137629553Y-85202362D01*
X137160000Y-85108962D01*
X136690447Y-85202362D01*
X136292380Y-85468342D01*
X136026400Y-85866409D01*
X135933000Y-86335962D01*
X135847000Y-86335962D01*
X135753600Y-85866409D01*
X135487620Y-85468342D01*
X135089553Y-85202362D01*
X134620000Y-85108962D01*
X134150447Y-85202362D01*
X133752380Y-85468342D01*
X133486400Y-85866409D01*
X133393000Y-86335962D01*
X132152013Y-86335962D01*
X132152013Y-80904711D01*
X132152014Y-80904706D01*
X132119510Y-80741300D01*
X132118685Y-80740065D01*
X132026948Y-80602771D01*
X132026945Y-80602769D01*
X131698901Y-80274724D01*
X131698898Y-80274722D01*
X131418620Y-79994444D01*
X131423832Y-79981893D01*
X131424101Y-79672783D01*
X131306059Y-79387100D01*
X131087677Y-79168336D01*
X130802200Y-79049795D01*
X130493090Y-79049526D01*
X130207407Y-79167568D01*
X129988643Y-79385950D01*
X129870102Y-79671427D01*
X129869846Y-79965976D01*
X129776493Y-79872623D01*
X129776493Y-77294375D01*
X133393000Y-73677867D01*
X133393000Y-73683002D01*
X133474962Y-73683002D01*
X133411915Y-73874629D01*
X133586010Y-74320605D01*
X133917520Y-74666010D01*
X134355976Y-74858260D01*
X134405372Y-74868082D01*
X134597000Y-74805019D01*
X134597000Y-73683000D01*
X134643000Y-73683000D01*
X134643000Y-74805019D01*
X134834628Y-74868082D01*
X134884024Y-74858260D01*
X135322480Y-74666010D01*
X135653990Y-74320605D01*
X135828085Y-73874629D01*
X135765037Y-73683000D01*
X134643000Y-73683000D01*
X134597000Y-73683000D01*
X134577000Y-73683000D01*
X134577000Y-73637000D01*
X134597000Y-73637000D01*
X134597000Y-73617000D01*
X134643000Y-73617000D01*
X134643000Y-73637000D01*
X135765037Y-73637000D01*
X135828085Y-73445371D01*
X135653990Y-72999395D01*
X135522121Y-72861999D01*
X136229800Y-72861999D01*
X136026400Y-73166409D01*
X135933000Y-73635962D01*
X135933000Y-73684038D01*
X136026400Y-74153591D01*
X136026714Y-74154062D01*
X135615387Y-74565389D01*
X135517405Y-74712028D01*
X135482999Y-74885001D01*
X135482999Y-75305254D01*
X135089553Y-75042362D01*
X134620000Y-74948962D01*
X134150447Y-75042362D01*
X133752380Y-75308342D01*
X133486400Y-75706409D01*
X133393000Y-76175962D01*
X133393000Y-76224038D01*
X133486400Y-76693591D01*
X133752380Y-77091658D01*
X134150447Y-77357638D01*
X134620000Y-77451038D01*
X135089553Y-77357638D01*
X135482999Y-77094746D01*
X135482999Y-82317776D01*
X135200387Y-82600389D01*
X135118843Y-82681933D01*
X135089553Y-82662362D01*
X134620000Y-82568962D01*
X134150447Y-82662362D01*
X133752380Y-82928342D01*
X133486400Y-83326409D01*
X133393000Y-83795962D01*
X133393000Y-83844038D01*
X133486400Y-84313591D01*
X133752380Y-84711658D01*
X134150447Y-84977638D01*
X134620000Y-85071038D01*
X135089553Y-84977638D01*
X135487620Y-84711658D01*
X135753600Y-84313591D01*
X135847000Y-83844038D01*
X135847000Y-83795962D01*
X135933000Y-83795962D01*
X135933000Y-83844038D01*
X136026400Y-84313591D01*
X136292380Y-84711658D01*
X136690447Y-84977638D01*
X137160000Y-85071038D01*
X137629553Y-84977638D01*
X138027620Y-84711658D01*
X138293600Y-84313591D01*
X138387000Y-83844038D01*
X138387000Y-83820000D01*
X143410689Y-83820000D01*
X143504089Y-84289553D01*
X143770069Y-84687620D01*
X144168136Y-84953600D01*
X144637689Y-85047000D01*
X144922311Y-85047000D01*
X145391864Y-84953600D01*
X145789931Y-84687620D01*
X146055911Y-84289553D01*
X146149311Y-83820000D01*
X146925577Y-83820000D01*
X147018977Y-84289553D01*
X147284957Y-84687620D01*
X147683024Y-84953600D01*
X148152577Y-85047000D01*
X148437199Y-85047000D01*
X148906752Y-84953600D01*
X149304819Y-84687620D01*
X149570799Y-84289553D01*
X149664199Y-83820000D01*
X191670689Y-83820000D01*
X191764089Y-84289553D01*
X192030069Y-84687620D01*
X192428136Y-84953600D01*
X192897689Y-85047000D01*
X193182311Y-85047000D01*
X193651864Y-84953600D01*
X194049931Y-84687620D01*
X194315911Y-84289553D01*
X194409311Y-83820000D01*
X194315911Y-83350447D01*
X194049931Y-82952380D01*
X193651864Y-82686400D01*
X193182311Y-82593000D01*
X192897689Y-82593000D01*
X192428136Y-82686400D01*
X192030069Y-82952380D01*
X191764089Y-83350447D01*
X191670689Y-83820000D01*
X149664199Y-83820000D01*
X149570799Y-83350447D01*
X149304819Y-82952380D01*
X148906752Y-82686400D01*
X148437199Y-82593000D01*
X148152577Y-82593000D01*
X147683024Y-82686400D01*
X147284957Y-82952380D01*
X147018977Y-83350447D01*
X146925577Y-83820000D01*
X146149311Y-83820000D01*
X146055911Y-83350447D01*
X145789931Y-82952380D01*
X145391864Y-82686400D01*
X144922311Y-82593000D01*
X144637689Y-82593000D01*
X144168136Y-82686400D01*
X143770069Y-82952380D01*
X143504089Y-83350447D01*
X143410689Y-83820000D01*
X138387000Y-83820000D01*
X138387000Y-83795962D01*
X138293600Y-83326409D01*
X138027620Y-82928342D01*
X137629553Y-82662362D01*
X137160000Y-82568962D01*
X136690447Y-82662362D01*
X136292380Y-82928342D01*
X136026400Y-83326409D01*
X135933000Y-83795962D01*
X135847000Y-83795962D01*
X135753600Y-83326409D01*
X135753286Y-83325938D01*
X135839611Y-83239613D01*
X136254612Y-82824613D01*
X136352593Y-82677974D01*
X136386999Y-82505001D01*
X136386999Y-81280000D01*
X191670689Y-81280000D01*
X191764089Y-81749553D01*
X192030069Y-82147620D01*
X192428136Y-82413600D01*
X192897689Y-82507000D01*
X193182311Y-82507000D01*
X193651864Y-82413600D01*
X194049931Y-82147620D01*
X194315911Y-81749553D01*
X194409311Y-81280000D01*
X194315911Y-80810447D01*
X194049931Y-80412380D01*
X193651864Y-80146400D01*
X193182311Y-80053000D01*
X192897689Y-80053000D01*
X192428136Y-80146400D01*
X192030069Y-80412380D01*
X191764089Y-80810447D01*
X191670689Y-81280000D01*
X136386999Y-81280000D01*
X136386999Y-77433406D01*
X138060000Y-77433406D01*
X138181179Y-77410605D01*
X138292474Y-77338988D01*
X138367138Y-77229714D01*
X138393406Y-77100000D01*
X138393406Y-75300000D01*
X138370605Y-75178821D01*
X138298988Y-75067526D01*
X138189714Y-74992862D01*
X138060000Y-74966594D01*
X136492630Y-74966594D01*
X136661157Y-74798067D01*
X136690447Y-74817638D01*
X137160000Y-74911038D01*
X137629553Y-74817638D01*
X138027620Y-74551658D01*
X138293600Y-74153591D01*
X138387000Y-73684038D01*
X138387000Y-73658878D01*
X187672424Y-73658878D01*
X188177862Y-74882132D01*
X189112945Y-75818849D01*
X190335315Y-76326421D01*
X191658878Y-76327576D01*
X192882132Y-75822138D01*
X193818849Y-74887055D01*
X194326421Y-73664685D01*
X194327576Y-72341122D01*
X193822138Y-71117868D01*
X192887055Y-70181151D01*
X191664685Y-69673579D01*
X190341122Y-69672424D01*
X189117868Y-70177862D01*
X188181151Y-71112945D01*
X187673579Y-72335315D01*
X187672424Y-73658878D01*
X138387000Y-73658878D01*
X138387000Y-73635962D01*
X138293600Y-73166409D01*
X138027620Y-72768342D01*
X137968220Y-72728652D01*
X139761905Y-70934966D01*
X139761908Y-70934964D01*
X139854470Y-70796435D01*
X139886973Y-70633029D01*
X139886973Y-68646128D01*
X139899533Y-68640938D01*
X140118297Y-68422556D01*
X140236838Y-68137079D01*
X140237107Y-67827969D01*
X140119065Y-67542286D01*
X139900683Y-67323522D01*
X139615206Y-67204981D01*
X139306096Y-67204712D01*
X139020413Y-67322754D01*
X138801649Y-67541136D01*
X138683108Y-67826613D01*
X138682839Y-68135723D01*
X138800881Y-68421406D01*
X139019263Y-68640170D01*
X139032973Y-68645863D01*
X139032973Y-70456160D01*
X138387000Y-71102133D01*
X138387000Y-71095962D01*
X138293600Y-70626409D01*
X138027620Y-70228342D01*
X137629553Y-69962362D01*
X137160000Y-69868962D01*
X136690447Y-69962362D01*
X136292380Y-70228342D01*
X136026400Y-70626409D01*
X135933000Y-71095962D01*
X135933000Y-71144038D01*
X136026400Y-71613591D01*
X136289935Y-72007999D01*
X135435744Y-72007999D01*
X135653990Y-71780605D01*
X135828085Y-71334629D01*
X135765037Y-71143000D01*
X134643000Y-71143000D01*
X134643000Y-71163000D01*
X134597000Y-71163000D01*
X134597000Y-71143000D01*
X133474963Y-71143000D01*
X133411915Y-71334629D01*
X133586010Y-71780605D01*
X133848401Y-72053994D01*
X133730064Y-72133064D01*
X133730062Y-72133067D01*
X129047558Y-76815570D01*
X128954996Y-76954099D01*
X128922492Y-77117505D01*
X127402000Y-77117505D01*
X127402000Y-70905371D01*
X133411915Y-70905371D01*
X133474963Y-71097000D01*
X134597000Y-71097000D01*
X134597000Y-69974981D01*
X134643000Y-69974981D01*
X134643000Y-71097000D01*
X135765037Y-71097000D01*
X135828085Y-70905371D01*
X135653990Y-70459395D01*
X135322480Y-70113990D01*
X134884024Y-69921740D01*
X134834628Y-69911918D01*
X134643000Y-69974981D01*
X134597000Y-69974981D01*
X134405372Y-69911918D01*
X134355976Y-69921740D01*
X133917520Y-70113990D01*
X133586010Y-70459395D01*
X133411915Y-70905371D01*
X127402000Y-70905371D01*
X127402000Y-68555962D01*
X133393000Y-68555962D01*
X133393000Y-68604038D01*
X133486400Y-69073591D01*
X133752380Y-69471658D01*
X134150447Y-69737638D01*
X134620000Y-69831038D01*
X135089553Y-69737638D01*
X135487620Y-69471658D01*
X135753600Y-69073591D01*
X135847000Y-68604038D01*
X135847000Y-68555962D01*
X135933000Y-68555962D01*
X135933000Y-68604038D01*
X136026400Y-69073591D01*
X136292380Y-69471658D01*
X136690447Y-69737638D01*
X137160000Y-69831038D01*
X137629553Y-69737638D01*
X138027620Y-69471658D01*
X138293600Y-69073591D01*
X138387000Y-68604038D01*
X138387000Y-68555962D01*
X138293600Y-68086409D01*
X138027620Y-67688342D01*
X137629553Y-67422362D01*
X137160000Y-67328962D01*
X136690447Y-67422362D01*
X136292380Y-67688342D01*
X136026400Y-68086409D01*
X135933000Y-68555962D01*
X135847000Y-68555962D01*
X135753600Y-68086409D01*
X135487620Y-67688342D01*
X135089553Y-67422362D01*
X134620000Y-67328962D01*
X134150447Y-67422362D01*
X133752380Y-67688342D01*
X133486400Y-68086409D01*
X133393000Y-68555962D01*
X127402000Y-68555962D01*
X127402000Y-65658878D01*
X140672424Y-65658878D01*
X141177862Y-66882132D01*
X142112945Y-67818849D01*
X143335315Y-68326421D01*
X144658878Y-68327576D01*
X145882132Y-67822138D01*
X146818849Y-66887055D01*
X147326421Y-65664685D01*
X147327576Y-64341122D01*
X146822138Y-63117868D01*
X146348583Y-62643485D01*
X149372830Y-62643485D01*
X149521256Y-63002703D01*
X149795851Y-63277778D01*
X150154810Y-63426830D01*
X150543485Y-63427170D01*
X150902703Y-63278744D01*
X151177778Y-63004149D01*
X151326830Y-62645190D01*
X151327170Y-62256515D01*
X151178744Y-61897297D01*
X150904149Y-61622222D01*
X150877000Y-61610949D01*
X150877000Y-58524750D01*
X151173000Y-58524750D01*
X151173000Y-59385045D01*
X151222783Y-59505231D01*
X151314770Y-59597217D01*
X151434956Y-59647000D01*
X152295250Y-59647000D01*
X152377000Y-59565250D01*
X152377000Y-58443000D01*
X152423000Y-58443000D01*
X152423000Y-59565250D01*
X152504750Y-59647000D01*
X153365044Y-59647000D01*
X153485230Y-59597217D01*
X153577217Y-59505231D01*
X153627000Y-59385045D01*
X153627000Y-58524750D01*
X153545250Y-58443000D01*
X152423000Y-58443000D01*
X152377000Y-58443000D01*
X151254750Y-58443000D01*
X151173000Y-58524750D01*
X150877000Y-58524750D01*
X150877000Y-58420000D01*
X153688962Y-58420000D01*
X153782362Y-58889553D01*
X154048342Y-59287620D01*
X154446409Y-59553600D01*
X154915962Y-59647000D01*
X154964038Y-59647000D01*
X155345777Y-59571067D01*
X157047355Y-61272646D01*
X157218326Y-61386885D01*
X157420000Y-61427000D01*
X157760636Y-61427000D01*
X157771256Y-61452703D01*
X158045851Y-61727778D01*
X158404810Y-61876830D01*
X158793485Y-61877170D01*
X159152703Y-61728744D01*
X159427778Y-61454149D01*
X159576830Y-61095190D01*
X159577170Y-60706515D01*
X159428744Y-60347297D01*
X159154149Y-60072222D01*
X158795190Y-59923170D01*
X158406515Y-59922830D01*
X158047297Y-60071256D01*
X157772222Y-60345851D01*
X157760949Y-60373000D01*
X157638291Y-60373000D01*
X156107129Y-58841839D01*
X156191038Y-58420000D01*
X156228962Y-58420000D01*
X156322362Y-58889553D01*
X156588342Y-59287620D01*
X156986409Y-59553600D01*
X157455962Y-59647000D01*
X157504038Y-59647000D01*
X157973591Y-59553600D01*
X158371658Y-59287620D01*
X158637638Y-58889553D01*
X158731038Y-58420000D01*
X158637638Y-57950447D01*
X158371658Y-57552380D01*
X157973591Y-57286400D01*
X157504038Y-57193000D01*
X157455962Y-57193000D01*
X156986409Y-57286400D01*
X156588342Y-57552380D01*
X156322362Y-57950447D01*
X156228962Y-58420000D01*
X156191038Y-58420000D01*
X156097638Y-57950447D01*
X155831658Y-57552380D01*
X155433591Y-57286400D01*
X154964038Y-57193000D01*
X154915962Y-57193000D01*
X154446409Y-57286400D01*
X154048342Y-57552380D01*
X153782362Y-57950447D01*
X153688962Y-58420000D01*
X150877000Y-58420000D01*
X150877000Y-57454955D01*
X151173000Y-57454955D01*
X151173000Y-58315250D01*
X151254750Y-58397000D01*
X152377000Y-58397000D01*
X152377000Y-57274750D01*
X152423000Y-57274750D01*
X152423000Y-58397000D01*
X153545250Y-58397000D01*
X153627000Y-58315250D01*
X153627000Y-57454955D01*
X153577217Y-57334769D01*
X153485230Y-57242783D01*
X153365044Y-57193000D01*
X152504750Y-57193000D01*
X152423000Y-57274750D01*
X152377000Y-57274750D01*
X152295250Y-57193000D01*
X151434956Y-57193000D01*
X151314770Y-57242783D01*
X151222783Y-57334769D01*
X151173000Y-57454955D01*
X150877000Y-57454955D01*
X150877000Y-56224288D01*
X151198286Y-55903002D01*
X151254980Y-55903002D01*
X151191918Y-56094628D01*
X151201740Y-56144024D01*
X151393990Y-56582480D01*
X151739395Y-56913990D01*
X152185371Y-57088085D01*
X152377000Y-57025037D01*
X152377000Y-55903000D01*
X152423000Y-55903000D01*
X152423000Y-57025037D01*
X152614629Y-57088085D01*
X153060605Y-56913990D01*
X153406010Y-56582480D01*
X153598260Y-56144024D01*
X153608082Y-56094628D01*
X153545019Y-55903000D01*
X152423000Y-55903000D01*
X152377000Y-55903000D01*
X152357000Y-55903000D01*
X152357000Y-55857000D01*
X152377000Y-55857000D01*
X152377000Y-55837000D01*
X152423000Y-55837000D01*
X152423000Y-55857000D01*
X153545019Y-55857000D01*
X153608082Y-55665372D01*
X153598260Y-55615976D01*
X153406010Y-55177520D01*
X153332533Y-55106999D01*
X153421709Y-55106999D01*
X153772871Y-55458161D01*
X153688962Y-55880000D01*
X153782362Y-56349553D01*
X154048342Y-56747620D01*
X154446409Y-57013600D01*
X154915962Y-57107000D01*
X154964038Y-57107000D01*
X155433591Y-57013600D01*
X155831658Y-56747620D01*
X156097638Y-56349553D01*
X156191038Y-55880000D01*
X156228962Y-55880000D01*
X156322362Y-56349553D01*
X156588342Y-56747620D01*
X156986409Y-57013600D01*
X157455962Y-57107000D01*
X157504038Y-57107000D01*
X157973591Y-57013600D01*
X158371658Y-56747620D01*
X158637638Y-56349553D01*
X158731038Y-55880000D01*
X158637638Y-55410447D01*
X158371658Y-55012380D01*
X157973591Y-54746400D01*
X157504038Y-54653000D01*
X157455962Y-54653000D01*
X156986409Y-54746400D01*
X156588342Y-55012380D01*
X156322362Y-55410447D01*
X156228962Y-55880000D01*
X156191038Y-55880000D01*
X156097638Y-55410447D01*
X155831658Y-55012380D01*
X155433591Y-54746400D01*
X154964038Y-54653000D01*
X154915962Y-54653000D01*
X154534223Y-54728933D01*
X154012644Y-54207354D01*
X153841674Y-54093114D01*
X153639999Y-54052999D01*
X151775999Y-54052999D01*
X151574324Y-54093114D01*
X151403354Y-54207354D01*
X149977355Y-55633353D01*
X149863115Y-55804323D01*
X149863115Y-55804324D01*
X149823000Y-56005998D01*
X149823000Y-61610636D01*
X149797297Y-61621256D01*
X149522222Y-61895851D01*
X149373170Y-62254810D01*
X149372830Y-62643485D01*
X146348583Y-62643485D01*
X145887055Y-62181151D01*
X144664685Y-61673579D01*
X143341122Y-61672424D01*
X142117868Y-62177862D01*
X141181151Y-63112945D01*
X140673579Y-64335315D01*
X140672424Y-65658878D01*
X127402000Y-65658878D01*
X127402000Y-61064750D01*
X133277000Y-61064750D01*
X133277000Y-61925044D01*
X133326783Y-62045230D01*
X133418769Y-62137217D01*
X133538955Y-62187000D01*
X134515250Y-62187000D01*
X134597000Y-62105250D01*
X134597000Y-60983000D01*
X134643000Y-60983000D01*
X134643000Y-62105250D01*
X134724750Y-62187000D01*
X135701045Y-62187000D01*
X135821231Y-62137217D01*
X135913217Y-62045230D01*
X135963000Y-61925044D01*
X135963000Y-61064750D01*
X135881250Y-60983000D01*
X134643000Y-60983000D01*
X134597000Y-60983000D01*
X133358750Y-60983000D01*
X133277000Y-61064750D01*
X127402000Y-61064750D01*
X127402000Y-59994956D01*
X133277000Y-59994956D01*
X133277000Y-60855250D01*
X133358750Y-60937000D01*
X134597000Y-60937000D01*
X134597000Y-59814750D01*
X134643000Y-59814750D01*
X134643000Y-60937000D01*
X135881250Y-60937000D01*
X135963000Y-60855250D01*
X135963000Y-59994956D01*
X135913217Y-59874770D01*
X135821231Y-59782783D01*
X135701045Y-59733000D01*
X134724750Y-59733000D01*
X134643000Y-59814750D01*
X134597000Y-59814750D01*
X134515250Y-59733000D01*
X133538955Y-59733000D01*
X133418769Y-59782783D01*
X133326783Y-59874770D01*
X133277000Y-59994956D01*
X127402000Y-59994956D01*
X127402000Y-58420000D01*
X133250689Y-58420000D01*
X133344089Y-58889553D01*
X133610069Y-59287620D01*
X134008136Y-59553600D01*
X134477689Y-59647000D01*
X134762311Y-59647000D01*
X135231864Y-59553600D01*
X135629931Y-59287620D01*
X135895911Y-58889553D01*
X135989311Y-58420000D01*
X135895911Y-57950447D01*
X135629931Y-57552380D01*
X135231864Y-57286400D01*
X134762311Y-57193000D01*
X134477689Y-57193000D01*
X134008136Y-57286400D01*
X133610069Y-57552380D01*
X133344089Y-57950447D01*
X133250689Y-58420000D01*
X127402000Y-58420000D01*
X127402000Y-55880000D01*
X133250689Y-55880000D01*
X133344089Y-56349553D01*
X133610069Y-56747620D01*
X134008136Y-57013600D01*
X134477689Y-57107000D01*
X134762311Y-57107000D01*
X135231864Y-57013600D01*
X135629931Y-56747620D01*
X135895911Y-56349553D01*
X135989311Y-55880000D01*
X135895911Y-55410447D01*
X135629931Y-55012380D01*
X135231864Y-54746400D01*
X134762311Y-54653000D01*
X134477689Y-54653000D01*
X134008136Y-54746400D01*
X133610069Y-55012380D01*
X133344089Y-55410447D01*
X133250689Y-55880000D01*
X127402000Y-55880000D01*
X127402000Y-52402000D01*
X167873000Y-52402000D01*
X167873000Y-58600000D01*
X167873000Y-58600000D01*
G37*
X167873000Y-58600000D02*
X167881685Y-58646159D01*
X167908965Y-58688553D01*
X167950590Y-58716994D01*
X168000000Y-58727000D01*
X186000000Y-58727000D01*
X186046159Y-58718315D01*
X186088553Y-58691035D01*
X186116994Y-58649410D01*
X186127000Y-58600000D01*
X186127000Y-52402000D01*
X197598000Y-52402000D01*
X197598000Y-146598000D01*
X127402000Y-146598000D01*
X127402000Y-143762798D01*
X180672771Y-143762798D01*
X180874369Y-144250703D01*
X181247334Y-144624319D01*
X181734885Y-144826769D01*
X182262798Y-144827229D01*
X182750703Y-144625631D01*
X183124319Y-144252666D01*
X183326769Y-143765115D01*
X183326771Y-143762798D01*
X188672771Y-143762798D01*
X188874369Y-144250703D01*
X189247334Y-144624319D01*
X189734885Y-144826769D01*
X190262798Y-144827229D01*
X190750703Y-144625631D01*
X191124319Y-144252666D01*
X191326769Y-143765115D01*
X191327229Y-143237202D01*
X191125631Y-142749297D01*
X190752666Y-142375681D01*
X190265115Y-142173231D01*
X189737202Y-142172771D01*
X189249297Y-142374369D01*
X188875681Y-142747334D01*
X188673231Y-143234885D01*
X188672771Y-143762798D01*
X183326771Y-143762798D01*
X183327229Y-143237202D01*
X183125631Y-142749297D01*
X182752666Y-142375681D01*
X182265115Y-142173231D01*
X181737202Y-142172771D01*
X181249297Y-142374369D01*
X180875681Y-142747334D01*
X180673231Y-143234885D01*
X180672771Y-143762798D01*
X127402000Y-143762798D01*
X127402000Y-139914628D01*
X133411918Y-139914628D01*
X133421740Y-139964024D01*
X133613990Y-140402480D01*
X133959395Y-140733990D01*
X134405371Y-140908085D01*
X134597000Y-140845037D01*
X134597000Y-139723000D01*
X134643000Y-139723000D01*
X134643000Y-140845037D01*
X134834629Y-140908085D01*
X135280605Y-140733990D01*
X135626010Y-140402480D01*
X135818260Y-139964024D01*
X135828082Y-139914628D01*
X135765019Y-139723000D01*
X134643000Y-139723000D01*
X134597000Y-139723000D01*
X133474981Y-139723000D01*
X133411918Y-139914628D01*
X127402000Y-139914628D01*
X127402000Y-139700000D01*
X135908962Y-139700000D01*
X136002362Y-140169553D01*
X136268342Y-140567620D01*
X136666409Y-140833600D01*
X137135962Y-140927000D01*
X137184038Y-140927000D01*
X137653591Y-140833600D01*
X138051658Y-140567620D01*
X138317638Y-140169553D01*
X138411038Y-139700000D01*
X138448962Y-139700000D01*
X138542362Y-140169553D01*
X138808342Y-140567620D01*
X139206409Y-140833600D01*
X139675962Y-140927000D01*
X139724038Y-140927000D01*
X140193591Y-140833600D01*
X140591658Y-140567620D01*
X140857638Y-140169553D01*
X140951038Y-139700000D01*
X140857638Y-139230447D01*
X140591658Y-138832380D01*
X140193591Y-138566400D01*
X139724038Y-138473000D01*
X139675962Y-138473000D01*
X139206409Y-138566400D01*
X138808342Y-138832380D01*
X138542362Y-139230447D01*
X138448962Y-139700000D01*
X138411038Y-139700000D01*
X138317638Y-139230447D01*
X138051658Y-138832380D01*
X137653591Y-138566400D01*
X137184038Y-138473000D01*
X137135962Y-138473000D01*
X136666409Y-138566400D01*
X136268342Y-138832380D01*
X136002362Y-139230447D01*
X135908962Y-139700000D01*
X127402000Y-139700000D01*
X127402000Y-139485372D01*
X133411918Y-139485372D01*
X133474981Y-139677000D01*
X134597000Y-139677000D01*
X134597000Y-138554963D01*
X134643000Y-138554963D01*
X134643000Y-139677000D01*
X135765019Y-139677000D01*
X135828082Y-139485372D01*
X135818260Y-139435976D01*
X135626010Y-138997520D01*
X135280605Y-138666010D01*
X134834629Y-138491915D01*
X134643000Y-138554963D01*
X134597000Y-138554963D01*
X134405371Y-138491915D01*
X133959395Y-138666010D01*
X133613990Y-138997520D01*
X133421740Y-139435976D01*
X133411918Y-139485372D01*
X127402000Y-139485372D01*
X127402000Y-137160000D01*
X133368962Y-137160000D01*
X133462362Y-137629553D01*
X133728342Y-138027620D01*
X134126409Y-138293600D01*
X134595962Y-138387000D01*
X134644038Y-138387000D01*
X135113591Y-138293600D01*
X135511658Y-138027620D01*
X135777638Y-137629553D01*
X135871038Y-137160000D01*
X135908962Y-137160000D01*
X136002362Y-137629553D01*
X136268342Y-138027620D01*
X136666409Y-138293600D01*
X137135962Y-138387000D01*
X137184038Y-138387000D01*
X137653591Y-138293600D01*
X138051658Y-138027620D01*
X138317638Y-137629553D01*
X138411038Y-137160000D01*
X138317638Y-136690447D01*
X138051658Y-136292380D01*
X137653591Y-136026400D01*
X137184038Y-135933000D01*
X137135962Y-135933000D01*
X136666409Y-136026400D01*
X136268342Y-136292380D01*
X136002362Y-136690447D01*
X135908962Y-137160000D01*
X135871038Y-137160000D01*
X135777638Y-136690447D01*
X135511658Y-136292380D01*
X135113591Y-136026400D01*
X134644038Y-135933000D01*
X134595962Y-135933000D01*
X134126409Y-136026400D01*
X133728342Y-136292380D01*
X133462362Y-136690447D01*
X133368962Y-137160000D01*
X127402000Y-137160000D01*
X127402000Y-129540000D01*
X133250689Y-129540000D01*
X133344089Y-130009553D01*
X133610069Y-130407620D01*
X134008136Y-130673600D01*
X134477689Y-130767000D01*
X134762311Y-130767000D01*
X135231864Y-130673600D01*
X135629931Y-130407620D01*
X135895911Y-130009553D01*
X135989311Y-129540000D01*
X135895911Y-129070447D01*
X135629931Y-128672380D01*
X135231864Y-128406400D01*
X134762311Y-128313000D01*
X134477689Y-128313000D01*
X134008136Y-128406400D01*
X133610069Y-128672380D01*
X133344089Y-129070447D01*
X133250689Y-129540000D01*
X127402000Y-129540000D01*
X127402000Y-127000000D01*
X133250689Y-127000000D01*
X133344089Y-127469553D01*
X133610069Y-127867620D01*
X134008136Y-128133600D01*
X134477689Y-128227000D01*
X134762311Y-128227000D01*
X135231864Y-128133600D01*
X135629931Y-127867620D01*
X135895911Y-127469553D01*
X135989311Y-127000000D01*
X135895911Y-126530447D01*
X135629931Y-126132380D01*
X135231864Y-125866400D01*
X134762311Y-125773000D01*
X134477689Y-125773000D01*
X134008136Y-125866400D01*
X133610069Y-126132380D01*
X133344089Y-126530447D01*
X133250689Y-127000000D01*
X127402000Y-127000000D01*
X127402000Y-124460000D01*
X133250689Y-124460000D01*
X133344089Y-124929553D01*
X133610069Y-125327620D01*
X134008136Y-125593600D01*
X134477689Y-125687000D01*
X134762311Y-125687000D01*
X135231864Y-125593600D01*
X135629931Y-125327620D01*
X135895911Y-124929553D01*
X135989311Y-124460000D01*
X135895911Y-123990447D01*
X135629931Y-123592380D01*
X135231864Y-123326400D01*
X134762311Y-123233000D01*
X134477689Y-123233000D01*
X134008136Y-123326400D01*
X133610069Y-123592380D01*
X133344089Y-123990447D01*
X133250689Y-124460000D01*
X127402000Y-124460000D01*
X127402000Y-122024750D01*
X133277000Y-122024750D01*
X133277000Y-122885044D01*
X133326783Y-123005230D01*
X133418769Y-123097217D01*
X133538955Y-123147000D01*
X134515250Y-123147000D01*
X134597000Y-123065250D01*
X134597000Y-121943000D01*
X134643000Y-121943000D01*
X134643000Y-123065250D01*
X134724750Y-123147000D01*
X135701045Y-123147000D01*
X135821231Y-123097217D01*
X135913217Y-123005230D01*
X135963000Y-122885044D01*
X135963000Y-122312245D01*
X136924327Y-122312245D01*
X137163856Y-122891951D01*
X137606996Y-123335865D01*
X137974280Y-123488375D01*
X137974280Y-133401282D01*
X138014395Y-133602957D01*
X138128635Y-133773927D01*
X140281302Y-135926594D01*
X138800000Y-135926594D01*
X138678821Y-135949395D01*
X138567526Y-136021012D01*
X138492862Y-136130286D01*
X138466594Y-136260000D01*
X138466594Y-138060000D01*
X138489395Y-138181179D01*
X138561012Y-138292474D01*
X138670286Y-138367138D01*
X138800000Y-138393406D01*
X140600000Y-138393406D01*
X140721179Y-138370605D01*
X140832474Y-138298988D01*
X140907138Y-138189714D01*
X140933406Y-138060000D01*
X140933406Y-136578698D01*
X145727353Y-141372646D01*
X145841593Y-141448979D01*
X145898325Y-141486886D01*
X146099999Y-141527001D01*
X148559999Y-141527001D01*
X148761674Y-141486886D01*
X148932644Y-141372646D01*
X149454223Y-140851067D01*
X149835962Y-140927000D01*
X149884038Y-140927000D01*
X150353591Y-140833600D01*
X150751658Y-140567620D01*
X151017638Y-140169553D01*
X151111038Y-139700000D01*
X151017638Y-139230447D01*
X150754746Y-138837001D01*
X151505254Y-138837001D01*
X151242362Y-139230447D01*
X151148962Y-139700000D01*
X151242362Y-140169553D01*
X151508342Y-140567620D01*
X151906409Y-140833600D01*
X152375962Y-140927000D01*
X152424038Y-140927000D01*
X152893591Y-140833600D01*
X153291658Y-140567620D01*
X153557638Y-140169553D01*
X153651038Y-139700000D01*
X153557638Y-139230447D01*
X153294746Y-138837001D01*
X154045254Y-138837001D01*
X153782362Y-139230447D01*
X153688962Y-139700000D01*
X153782362Y-140169553D01*
X154048342Y-140567620D01*
X154446409Y-140833600D01*
X154915962Y-140927000D01*
X154964038Y-140927000D01*
X155433591Y-140833600D01*
X155831658Y-140567620D01*
X156097638Y-140169553D01*
X156170201Y-139804750D01*
X161333000Y-139804750D01*
X161333000Y-140665045D01*
X161382783Y-140785231D01*
X161474770Y-140877217D01*
X161594956Y-140927000D01*
X162455250Y-140927000D01*
X162537000Y-140845250D01*
X162537000Y-139723000D01*
X162583000Y-139723000D01*
X162583000Y-140845250D01*
X162664750Y-140927000D01*
X163525044Y-140927000D01*
X163645230Y-140877217D01*
X163737217Y-140785231D01*
X163787000Y-140665045D01*
X163787000Y-139804750D01*
X163705250Y-139723000D01*
X162583000Y-139723000D01*
X162537000Y-139723000D01*
X161414750Y-139723000D01*
X161333000Y-139804750D01*
X156170201Y-139804750D01*
X156191038Y-139700000D01*
X156097638Y-139230447D01*
X155834746Y-138837001D01*
X161333000Y-138837001D01*
X161333000Y-139595250D01*
X161414750Y-139677000D01*
X162537000Y-139677000D01*
X162537000Y-139657000D01*
X162583000Y-139657000D01*
X162583000Y-139677000D01*
X163705250Y-139677000D01*
X163787000Y-139595250D01*
X163787000Y-139181222D01*
X163924753Y-139318975D01*
X163848962Y-139700000D01*
X163942362Y-140169553D01*
X164208342Y-140567620D01*
X164606409Y-140833600D01*
X165075962Y-140927000D01*
X165124038Y-140927000D01*
X165593591Y-140833600D01*
X165991658Y-140567620D01*
X166257638Y-140169553D01*
X166351038Y-139700000D01*
X166257638Y-139230447D01*
X165994746Y-138837001D01*
X166745254Y-138837001D01*
X166482362Y-139230447D01*
X166388962Y-139700000D01*
X166482362Y-140169553D01*
X166748342Y-140567620D01*
X167146409Y-140833600D01*
X167615962Y-140927000D01*
X167664038Y-140927000D01*
X168133591Y-140833600D01*
X168531658Y-140567620D01*
X168797638Y-140169553D01*
X168891038Y-139700000D01*
X168797638Y-139230447D01*
X168534746Y-138837001D01*
X169285254Y-138837001D01*
X169022362Y-139230447D01*
X168928962Y-139700000D01*
X169022362Y-140169553D01*
X169288342Y-140567620D01*
X169686409Y-140833600D01*
X170155962Y-140927000D01*
X170204038Y-140927000D01*
X170673591Y-140833600D01*
X171071658Y-140567620D01*
X171337638Y-140169553D01*
X171431038Y-139700000D01*
X171337638Y-139230447D01*
X171074746Y-138837001D01*
X171825254Y-138837001D01*
X171562362Y-139230447D01*
X171468962Y-139700000D01*
X171562362Y-140169553D01*
X171828342Y-140567620D01*
X172226409Y-140833600D01*
X172695962Y-140927000D01*
X172744038Y-140927000D01*
X173213591Y-140833600D01*
X173611658Y-140567620D01*
X173877638Y-140169553D01*
X173971038Y-139700000D01*
X173877638Y-139230447D01*
X173614746Y-138837001D01*
X173757777Y-138837001D01*
X174040389Y-139119614D01*
X174040392Y-139119616D01*
X174121933Y-139201157D01*
X174102362Y-139230447D01*
X174008962Y-139700000D01*
X174102362Y-140169553D01*
X174368342Y-140567620D01*
X174766409Y-140833600D01*
X175235962Y-140927000D01*
X175284038Y-140927000D01*
X175753591Y-140833600D01*
X176151658Y-140567620D01*
X176417638Y-140169553D01*
X176511038Y-139700000D01*
X176417638Y-139230447D01*
X176151658Y-138832380D01*
X175753591Y-138566400D01*
X175284038Y-138473000D01*
X175235962Y-138473000D01*
X174766409Y-138566400D01*
X174765938Y-138566714D01*
X174679616Y-138480392D01*
X174679614Y-138480389D01*
X174264613Y-138065389D01*
X174117974Y-137967407D01*
X173945001Y-137933001D01*
X173674880Y-137933001D01*
X173877638Y-137629553D01*
X173928345Y-137374628D01*
X174051918Y-137374628D01*
X174061740Y-137424024D01*
X174253990Y-137862480D01*
X174599395Y-138193990D01*
X175045371Y-138368085D01*
X175237000Y-138305037D01*
X175237000Y-137183000D01*
X175283000Y-137183000D01*
X175283000Y-138305037D01*
X175474629Y-138368085D01*
X175920605Y-138193990D01*
X176266010Y-137862480D01*
X176458260Y-137424024D01*
X176468082Y-137374628D01*
X176405019Y-137183000D01*
X175283000Y-137183000D01*
X175237000Y-137183000D01*
X174114981Y-137183000D01*
X174051918Y-137374628D01*
X173928345Y-137374628D01*
X173971038Y-137160000D01*
X173928346Y-136945372D01*
X174051918Y-136945372D01*
X174114981Y-137137000D01*
X175237000Y-137137000D01*
X175237000Y-136014963D01*
X175283000Y-136014963D01*
X175283000Y-137137000D01*
X176405019Y-137137000D01*
X176468082Y-136945372D01*
X176458260Y-136895976D01*
X176266010Y-136457520D01*
X175920605Y-136126010D01*
X175474629Y-135951915D01*
X175283000Y-136014963D01*
X175237000Y-136014963D01*
X175045371Y-135951915D01*
X174599395Y-136126010D01*
X174253990Y-136457520D01*
X174061740Y-136895976D01*
X174051918Y-136945372D01*
X173928346Y-136945372D01*
X173877638Y-136690447D01*
X173611658Y-136292380D01*
X173213591Y-136026400D01*
X172744038Y-135933000D01*
X172695962Y-135933000D01*
X172226409Y-136026400D01*
X171828342Y-136292380D01*
X171562362Y-136690447D01*
X171468962Y-137160000D01*
X171562362Y-137629553D01*
X171765120Y-137933001D01*
X171134880Y-137933001D01*
X171337638Y-137629553D01*
X171431038Y-137160000D01*
X171337638Y-136690447D01*
X171071658Y-136292380D01*
X170673591Y-136026400D01*
X170204038Y-135933000D01*
X170155962Y-135933000D01*
X169686409Y-136026400D01*
X169288342Y-136292380D01*
X169022362Y-136690447D01*
X168928962Y-137160000D01*
X169022362Y-137629553D01*
X169225120Y-137933001D01*
X168594880Y-137933001D01*
X168797638Y-137629553D01*
X168891038Y-137160000D01*
X168797638Y-136690447D01*
X168531658Y-136292380D01*
X168133591Y-136026400D01*
X167664038Y-135933000D01*
X167615962Y-135933000D01*
X167146409Y-136026400D01*
X166748342Y-136292380D01*
X166482362Y-136690447D01*
X166388962Y-137160000D01*
X166482362Y-137629553D01*
X166685120Y-137933001D01*
X166054880Y-137933001D01*
X166257638Y-137629553D01*
X166351038Y-137160000D01*
X166257638Y-136690447D01*
X165991658Y-136292380D01*
X165593591Y-136026400D01*
X165124038Y-135933000D01*
X165075962Y-135933000D01*
X164606409Y-136026400D01*
X164208342Y-136292380D01*
X163942362Y-136690447D01*
X163848962Y-137160000D01*
X163890758Y-137370122D01*
X163789403Y-137268767D01*
X163811038Y-137160000D01*
X163717638Y-136690447D01*
X163451658Y-136292380D01*
X163053591Y-136026400D01*
X162584038Y-135933000D01*
X162535962Y-135933000D01*
X162066409Y-136026400D01*
X161668342Y-136292380D01*
X161402362Y-136690447D01*
X161308962Y-137160000D01*
X161402362Y-137629553D01*
X161605120Y-137933001D01*
X155894880Y-137933001D01*
X156097638Y-137629553D01*
X156191038Y-137160000D01*
X156097638Y-136690447D01*
X155831658Y-136292380D01*
X155433591Y-136026400D01*
X154964038Y-135933000D01*
X154915962Y-135933000D01*
X154446409Y-136026400D01*
X154048342Y-136292380D01*
X153782362Y-136690447D01*
X153688962Y-137160000D01*
X153782362Y-137629553D01*
X153985120Y-137933001D01*
X153354880Y-137933001D01*
X153557638Y-137629553D01*
X153651038Y-137160000D01*
X153557638Y-136690447D01*
X153291658Y-136292380D01*
X152893591Y-136026400D01*
X152424038Y-135933000D01*
X152375962Y-135933000D01*
X151906409Y-136026400D01*
X151508342Y-136292380D01*
X151242362Y-136690447D01*
X151148962Y-137160000D01*
X151242362Y-137629553D01*
X151445120Y-137933001D01*
X150814880Y-137933001D01*
X151017638Y-137629553D01*
X151111038Y-137160000D01*
X151017638Y-136690447D01*
X150751658Y-136292380D01*
X150353591Y-136026400D01*
X149884038Y-135933000D01*
X149835962Y-135933000D01*
X149366409Y-136026400D01*
X148968342Y-136292380D01*
X148702362Y-136690447D01*
X148608962Y-137160000D01*
X148702362Y-137629553D01*
X148905120Y-137933001D01*
X148274880Y-137933001D01*
X148477638Y-137629553D01*
X148571038Y-137160000D01*
X148477638Y-136690447D01*
X148211658Y-136292380D01*
X147813591Y-136026400D01*
X147344038Y-135933000D01*
X147295962Y-135933000D01*
X146826409Y-136026400D01*
X146428342Y-136292380D01*
X146162362Y-136690447D01*
X146068962Y-137160000D01*
X146162362Y-137629553D01*
X146350810Y-137911585D01*
X142361128Y-133921903D01*
X143335315Y-134326421D01*
X144658878Y-134327576D01*
X145882132Y-133822138D01*
X146818849Y-132887055D01*
X147326421Y-131664685D01*
X147327576Y-130341122D01*
X146822138Y-129117868D01*
X145887055Y-128181151D01*
X144664685Y-127673579D01*
X143341122Y-127672424D01*
X142117868Y-128177862D01*
X141181151Y-129112945D01*
X140952000Y-129664802D01*
X140952000Y-128615998D01*
X141312885Y-128616313D01*
X141892591Y-128376784D01*
X142336505Y-127933644D01*
X142577046Y-127354357D01*
X142577593Y-126727115D01*
X142338064Y-126147409D01*
X141894924Y-125703495D01*
X141315637Y-125462954D01*
X140688395Y-125462407D01*
X140108689Y-125701936D01*
X139664775Y-126145076D01*
X139424234Y-126724363D01*
X139423687Y-127351605D01*
X139663216Y-127931311D01*
X140048000Y-128316767D01*
X140048000Y-132700000D01*
X140082406Y-132872973D01*
X140180388Y-133019612D01*
X145865389Y-138704614D01*
X146008146Y-138800001D01*
X146012028Y-138802595D01*
X146093000Y-138818701D01*
X146093000Y-139595250D01*
X146174750Y-139677000D01*
X147297000Y-139677000D01*
X147297000Y-139657000D01*
X147343000Y-139657000D01*
X147343000Y-139677000D01*
X148465250Y-139677000D01*
X148547000Y-139595250D01*
X148547000Y-138837001D01*
X148965254Y-138837001D01*
X148702362Y-139230447D01*
X148608962Y-139700000D01*
X148692871Y-140121839D01*
X148547000Y-140267710D01*
X148547000Y-139804750D01*
X148465250Y-139723000D01*
X147343000Y-139723000D01*
X147343000Y-139743000D01*
X147297000Y-139743000D01*
X147297000Y-139723000D01*
X146174750Y-139723000D01*
X146093000Y-139804750D01*
X146093000Y-140247711D01*
X139028280Y-133182992D01*
X139028280Y-123488218D01*
X139393231Y-123337424D01*
X139636020Y-123095058D01*
X142437469Y-123095058D01*
X142573799Y-123313936D01*
X143147123Y-123568361D01*
X143774170Y-123584016D01*
X144359476Y-123358520D01*
X144426201Y-123313936D01*
X144562531Y-123095058D01*
X143500000Y-122032527D01*
X142437469Y-123095058D01*
X139636020Y-123095058D01*
X139837145Y-122894284D01*
X140077686Y-122314997D01*
X140077721Y-122274170D01*
X141915984Y-122274170D01*
X142141480Y-122859476D01*
X142186064Y-122926201D01*
X142404942Y-123062531D01*
X143467473Y-122000000D01*
X143532527Y-122000000D01*
X144595058Y-123062531D01*
X144813936Y-122926201D01*
X145068361Y-122352877D01*
X145084016Y-121725830D01*
X144858520Y-121140524D01*
X144813936Y-121073799D01*
X144595058Y-120937469D01*
X143532527Y-122000000D01*
X143467473Y-122000000D01*
X142404942Y-120937469D01*
X142186064Y-121073799D01*
X141931639Y-121647123D01*
X141915984Y-122274170D01*
X140077721Y-122274170D01*
X140078233Y-121687755D01*
X139838704Y-121108049D01*
X139635952Y-120904942D01*
X142437469Y-120904942D01*
X143500000Y-121967473D01*
X144562531Y-120904942D01*
X144426201Y-120686064D01*
X143852877Y-120431639D01*
X143225830Y-120415984D01*
X142640524Y-120641480D01*
X142573799Y-120686064D01*
X142437469Y-120904942D01*
X139635952Y-120904942D01*
X139395564Y-120664135D01*
X138816277Y-120423594D01*
X138189035Y-120423047D01*
X137609329Y-120662576D01*
X137165415Y-121105716D01*
X136924874Y-121685003D01*
X136924327Y-122312245D01*
X135963000Y-122312245D01*
X135963000Y-122024750D01*
X135881250Y-121943000D01*
X134643000Y-121943000D01*
X134597000Y-121943000D01*
X133358750Y-121943000D01*
X133277000Y-122024750D01*
X127402000Y-122024750D01*
X127402000Y-120954956D01*
X133277000Y-120954956D01*
X133277000Y-121815250D01*
X133358750Y-121897000D01*
X134597000Y-121897000D01*
X134597000Y-120774750D01*
X134643000Y-120774750D01*
X134643000Y-121897000D01*
X135881250Y-121897000D01*
X135963000Y-121815250D01*
X135963000Y-120954956D01*
X135913217Y-120834770D01*
X135821231Y-120742783D01*
X135701045Y-120693000D01*
X134724750Y-120693000D01*
X134643000Y-120774750D01*
X134597000Y-120774750D01*
X134515250Y-120693000D01*
X133538955Y-120693000D01*
X133418769Y-120742783D01*
X133326783Y-120834770D01*
X133277000Y-120954956D01*
X127402000Y-120954956D01*
X127402000Y-114275962D01*
X133393000Y-114275962D01*
X133393000Y-114324038D01*
X133486400Y-114793591D01*
X133752380Y-115191658D01*
X134150447Y-115457638D01*
X134620000Y-115551038D01*
X135089553Y-115457638D01*
X135487620Y-115191658D01*
X135753600Y-114793591D01*
X135830945Y-114404750D01*
X135933000Y-114404750D01*
X135933000Y-115265044D01*
X135982783Y-115385230D01*
X136074769Y-115477217D01*
X136194955Y-115527000D01*
X137055250Y-115527000D01*
X137137000Y-115445250D01*
X137137000Y-114323000D01*
X137183000Y-114323000D01*
X137183000Y-115445250D01*
X137264750Y-115527000D01*
X138125045Y-115527000D01*
X138245231Y-115477217D01*
X138337217Y-115385230D01*
X138350203Y-115353877D01*
X158322866Y-115353877D01*
X158440908Y-115639560D01*
X158659290Y-115858324D01*
X158673000Y-115864017D01*
X158673000Y-116260655D01*
X158672999Y-116260660D01*
X158705503Y-116424066D01*
X158798065Y-116562595D01*
X160437403Y-118201932D01*
X160437405Y-118201935D01*
X160480412Y-118230671D01*
X160575934Y-118294497D01*
X160739340Y-118327001D01*
X160739345Y-118327000D01*
X166799995Y-118327000D01*
X166800000Y-118327001D01*
X166963406Y-118294497D01*
X167101935Y-118201935D01*
X167452598Y-117851271D01*
X167659290Y-118058324D01*
X167938888Y-118174424D01*
X167938888Y-120513851D01*
X167828750Y-120247297D01*
X167554155Y-119972222D01*
X167195196Y-119823170D01*
X166806521Y-119822830D01*
X166447303Y-119971256D01*
X166172228Y-120245851D01*
X166023176Y-120604810D01*
X166022836Y-120993485D01*
X166171262Y-121352703D01*
X166445857Y-121627778D01*
X166473006Y-121639051D01*
X166473006Y-121702011D01*
X166040041Y-122134976D01*
X166014356Y-122124311D01*
X165625681Y-122123971D01*
X165266463Y-122272397D01*
X164991388Y-122546992D01*
X164842336Y-122905951D01*
X164841996Y-123294626D01*
X164990422Y-123653844D01*
X165265017Y-123928919D01*
X165623976Y-124077971D01*
X166012651Y-124078311D01*
X166371869Y-123929885D01*
X166646944Y-123655290D01*
X166795996Y-123296331D01*
X166796336Y-122907656D01*
X166785110Y-122880487D01*
X167372651Y-122292946D01*
X167486891Y-122121976D01*
X167515430Y-121978497D01*
X167527006Y-121920301D01*
X167527006Y-121639364D01*
X167552709Y-121628744D01*
X167827784Y-121354149D01*
X167938888Y-121086579D01*
X167938888Y-123103346D01*
X167732564Y-123309310D01*
X167614023Y-123594787D01*
X167613754Y-123903897D01*
X167731796Y-124189580D01*
X167950178Y-124408344D01*
X168235655Y-124526885D01*
X168544765Y-124527154D01*
X168830448Y-124409112D01*
X169049212Y-124190730D01*
X169167753Y-123905253D01*
X169167967Y-123658878D01*
X187672424Y-123658878D01*
X188177862Y-124882132D01*
X189112945Y-125818849D01*
X190335315Y-126326421D01*
X191658878Y-126327576D01*
X192882132Y-125822138D01*
X193818849Y-124887055D01*
X194326421Y-123664685D01*
X194327576Y-122341122D01*
X193822138Y-121117868D01*
X192887055Y-120181151D01*
X191664685Y-119673579D01*
X190341122Y-119672424D01*
X189117868Y-120177862D01*
X188181151Y-121112945D01*
X187673579Y-122335315D01*
X187672424Y-123658878D01*
X169167967Y-123658878D01*
X169168022Y-123596143D01*
X169049980Y-123310460D01*
X168842888Y-123103006D01*
X168842888Y-117690888D01*
X168835649Y-117654493D01*
X168876865Y-117555233D01*
X168877134Y-117246123D01*
X168786594Y-117027000D01*
X169819303Y-117027000D01*
X171599612Y-118807308D01*
X171599614Y-118807311D01*
X171624753Y-118824108D01*
X171738143Y-118899873D01*
X171901549Y-118932377D01*
X171901554Y-118932376D01*
X173015946Y-118932376D01*
X173021136Y-118944936D01*
X173223845Y-119148000D01*
X170939340Y-119148000D01*
X170766367Y-119182406D01*
X170619728Y-119280387D01*
X169880388Y-120019728D01*
X169782406Y-120166367D01*
X169748000Y-120339340D01*
X169748000Y-120753326D01*
X169541676Y-120959290D01*
X169423135Y-121244767D01*
X169422866Y-121553877D01*
X169540908Y-121839560D01*
X169759290Y-122058324D01*
X170044767Y-122176865D01*
X170353877Y-122177134D01*
X170639560Y-122059092D01*
X170858324Y-121840710D01*
X170976865Y-121555233D01*
X170977134Y-121246123D01*
X170859092Y-120960440D01*
X170652000Y-120752986D01*
X170652000Y-120526564D01*
X171126565Y-120052000D01*
X171775613Y-120052000D01*
X171560440Y-120140908D01*
X171341676Y-120359290D01*
X171223135Y-120644767D01*
X171222866Y-120953877D01*
X171340908Y-121239560D01*
X171559290Y-121458324D01*
X171844767Y-121576865D01*
X172153877Y-121577134D01*
X172439560Y-121459092D01*
X172647014Y-121252000D01*
X174992881Y-121252000D01*
X175165854Y-121217594D01*
X175312493Y-121119612D01*
X175612324Y-120819781D01*
X175903857Y-120820035D01*
X176189540Y-120701993D01*
X176408304Y-120483611D01*
X176526845Y-120198134D01*
X176527114Y-119889024D01*
X176409072Y-119603341D01*
X176190690Y-119384577D01*
X175905213Y-119266036D01*
X175596103Y-119265767D01*
X175310420Y-119383809D01*
X175091656Y-119602191D01*
X174973115Y-119887668D01*
X174972860Y-120180797D01*
X174805657Y-120348000D01*
X172646674Y-120348000D01*
X172440710Y-120141676D01*
X172224747Y-120052000D01*
X174160488Y-120052000D01*
X174333461Y-120017594D01*
X174480100Y-119919612D01*
X175238284Y-119161428D01*
X175529817Y-119161682D01*
X175815500Y-119043640D01*
X176034264Y-118825258D01*
X176152805Y-118539781D01*
X176153074Y-118230671D01*
X176035032Y-117944988D01*
X175816650Y-117726224D01*
X175531173Y-117607683D01*
X175222063Y-117607414D01*
X174936380Y-117725456D01*
X174717616Y-117943838D01*
X174599075Y-118229315D01*
X174598820Y-118522444D01*
X174454564Y-118666700D01*
X174457093Y-118660609D01*
X174457362Y-118351499D01*
X174339320Y-118065816D01*
X174120938Y-117847052D01*
X173835461Y-117728511D01*
X173526351Y-117728242D01*
X173240668Y-117846284D01*
X173021904Y-118064666D01*
X173016211Y-118078376D01*
X172078418Y-118078376D01*
X170512958Y-116512915D01*
X171306039Y-116512915D01*
X171306044Y-116512916D01*
X171469450Y-116480412D01*
X171607979Y-116387850D01*
X171851931Y-116143897D01*
X171851934Y-116143895D01*
X171944496Y-116005366D01*
X171976999Y-115841960D01*
X171976999Y-114550004D01*
X171977000Y-114549999D01*
X171944496Y-114386593D01*
X171902011Y-114323010D01*
X171869146Y-114273823D01*
X171869383Y-114273252D01*
X172648074Y-115051943D01*
X172648076Y-115051946D01*
X172786605Y-115144508D01*
X172950011Y-115177011D01*
X175364143Y-115177011D01*
X177823020Y-117635887D01*
X177823020Y-118515818D01*
X177810460Y-118521008D01*
X177591696Y-118739390D01*
X177473155Y-119024867D01*
X177472886Y-119333977D01*
X177590928Y-119619660D01*
X177809310Y-119838424D01*
X178094787Y-119956965D01*
X178403897Y-119957234D01*
X178689580Y-119839192D01*
X178898022Y-119631114D01*
X178898022Y-120445178D01*
X178714302Y-120445178D01*
X178709112Y-120432618D01*
X178490730Y-120213854D01*
X178205253Y-120095313D01*
X177896143Y-120095044D01*
X177610460Y-120213086D01*
X177391696Y-120431468D01*
X177273155Y-120716945D01*
X177272886Y-121026055D01*
X177390928Y-121311738D01*
X177609310Y-121530502D01*
X177894787Y-121649043D01*
X178203897Y-121649312D01*
X178489580Y-121531270D01*
X178708344Y-121312888D01*
X178714037Y-121299178D01*
X179110675Y-121299178D01*
X179110680Y-121299179D01*
X179274086Y-121266675D01*
X179412615Y-121174113D01*
X179626954Y-120959773D01*
X179626957Y-120959771D01*
X179719519Y-120821242D01*
X179752022Y-120657836D01*
X179752022Y-117897609D01*
X179719519Y-117734203D01*
X179626957Y-117595674D01*
X179626954Y-117595672D01*
X176029348Y-113998065D01*
X175890819Y-113905503D01*
X175727413Y-113872999D01*
X175727408Y-113873000D01*
X173276870Y-113873000D01*
X172830870Y-113427000D01*
X173899995Y-113427000D01*
X173900000Y-113427001D01*
X173916688Y-113423682D01*
X174044767Y-113476865D01*
X174353877Y-113477134D01*
X174639560Y-113359092D01*
X174858324Y-113140710D01*
X174976865Y-112855233D01*
X174977134Y-112546123D01*
X174859092Y-112260440D01*
X174640710Y-112041676D01*
X174355233Y-111923135D01*
X174046123Y-111922866D01*
X173760440Y-112040908D01*
X173541676Y-112259290D01*
X173423135Y-112544767D01*
X173423110Y-112573000D01*
X172676869Y-112573000D01*
X171901935Y-111798065D01*
X171763406Y-111705503D01*
X171600000Y-111672999D01*
X171599995Y-111673000D01*
X167100000Y-111673000D01*
X166936594Y-111705503D01*
X166798065Y-111798065D01*
X166798063Y-111798068D01*
X166567784Y-112028347D01*
X166555233Y-112023135D01*
X166246123Y-112022866D01*
X165960440Y-112140908D01*
X165741676Y-112359290D01*
X165623135Y-112644767D01*
X165622866Y-112953877D01*
X165740908Y-113239560D01*
X165959290Y-113458324D01*
X166244767Y-113576865D01*
X166553877Y-113577134D01*
X166839560Y-113459092D01*
X167058324Y-113240710D01*
X167176865Y-112955233D01*
X167177134Y-112646123D01*
X167171465Y-112632404D01*
X167276869Y-112527000D01*
X169413560Y-112527000D01*
X169323135Y-112744767D01*
X169322866Y-113053877D01*
X169440908Y-113339560D01*
X169659290Y-113558324D01*
X169856088Y-113640042D01*
X168823130Y-114673000D01*
X166176870Y-114673000D01*
X166001935Y-114498065D01*
X165863406Y-114405503D01*
X165700000Y-114372999D01*
X165699995Y-114373000D01*
X164276869Y-114373000D01*
X163251446Y-113347576D01*
X163258324Y-113340710D01*
X163376865Y-113055233D01*
X163377134Y-112746123D01*
X163259092Y-112460440D01*
X163040710Y-112241676D01*
X162843912Y-112159958D01*
X163403075Y-111600794D01*
X163824442Y-111600794D01*
X163723135Y-111844767D01*
X163722866Y-112153877D01*
X163840908Y-112439560D01*
X164059290Y-112658324D01*
X164344767Y-112776865D01*
X164653877Y-112777134D01*
X164939560Y-112659092D01*
X165158324Y-112440710D01*
X165164017Y-112427000D01*
X165345876Y-112427000D01*
X165345881Y-112427001D01*
X165509287Y-112394497D01*
X165647816Y-112301935D01*
X166730732Y-111219018D01*
X174315148Y-111219018D01*
X174628347Y-111532216D01*
X174623135Y-111544767D01*
X174622866Y-111853877D01*
X174740908Y-112139560D01*
X174959290Y-112358324D01*
X175244767Y-112476865D01*
X175553877Y-112477134D01*
X175839560Y-112359092D01*
X176058324Y-112140710D01*
X176176865Y-111855233D01*
X176177134Y-111546123D01*
X176059092Y-111260440D01*
X175840710Y-111041676D01*
X175555233Y-110923135D01*
X175246123Y-110922866D01*
X175232404Y-110928535D01*
X174793953Y-110490083D01*
X174655424Y-110397521D01*
X174492018Y-110365017D01*
X174492013Y-110365018D01*
X172038852Y-110365018D01*
X173076869Y-109327000D01*
X176099995Y-109327000D01*
X176100000Y-109327001D01*
X176263406Y-109294497D01*
X176401935Y-109201935D01*
X177052598Y-108551271D01*
X177259290Y-108758324D01*
X177544767Y-108876865D01*
X177853877Y-108877134D01*
X178139560Y-108759092D01*
X178358324Y-108540710D01*
X178476865Y-108255233D01*
X178477134Y-107946123D01*
X178359092Y-107660440D01*
X178248844Y-107549999D01*
X178358324Y-107440710D01*
X178476865Y-107155233D01*
X178477134Y-106846123D01*
X178359092Y-106560440D01*
X178140710Y-106341676D01*
X177855233Y-106223135D01*
X177546123Y-106222866D01*
X177260440Y-106340908D01*
X177041676Y-106559290D01*
X176923135Y-106844767D01*
X176922980Y-107022999D01*
X176850001Y-107022999D01*
X176686595Y-107055502D01*
X176548066Y-107148064D01*
X176548064Y-107148067D01*
X175673141Y-108022989D01*
X173071649Y-108022989D01*
X174667638Y-106427000D01*
X175699995Y-106427000D01*
X175700000Y-106427001D01*
X175863406Y-106394497D01*
X176001935Y-106301935D01*
X176632216Y-105671654D01*
X176644767Y-105676865D01*
X176953877Y-105677134D01*
X177239560Y-105559092D01*
X177458324Y-105340710D01*
X177576865Y-105055233D01*
X177577134Y-104746123D01*
X177459092Y-104460440D01*
X177243779Y-104244750D01*
X191697000Y-104244750D01*
X191697000Y-105105044D01*
X191746783Y-105225230D01*
X191838769Y-105317217D01*
X191958955Y-105367000D01*
X192935250Y-105367000D01*
X193017000Y-105285250D01*
X193017000Y-104163000D01*
X193063000Y-104163000D01*
X193063000Y-105285250D01*
X193144750Y-105367000D01*
X194121045Y-105367000D01*
X194241231Y-105317217D01*
X194333217Y-105225230D01*
X194383000Y-105105044D01*
X194383000Y-104244750D01*
X194301250Y-104163000D01*
X193063000Y-104163000D01*
X193017000Y-104163000D01*
X191778750Y-104163000D01*
X191697000Y-104244750D01*
X177243779Y-104244750D01*
X177240710Y-104241676D01*
X176955233Y-104123135D01*
X176646123Y-104122866D01*
X176360440Y-104240908D01*
X176249999Y-104351156D01*
X176198931Y-104299999D01*
X176258324Y-104240710D01*
X176376865Y-103955233D01*
X176377134Y-103646123D01*
X176259092Y-103360440D01*
X176073932Y-103174956D01*
X191697000Y-103174956D01*
X191697000Y-104035250D01*
X191778750Y-104117000D01*
X193017000Y-104117000D01*
X193017000Y-102994750D01*
X193063000Y-102994750D01*
X193063000Y-104117000D01*
X194301250Y-104117000D01*
X194383000Y-104035250D01*
X194383000Y-103174956D01*
X194333217Y-103054770D01*
X194241231Y-102962783D01*
X194121045Y-102913000D01*
X193144750Y-102913000D01*
X193063000Y-102994750D01*
X193017000Y-102994750D01*
X192935250Y-102913000D01*
X191958955Y-102913000D01*
X191838769Y-102962783D01*
X191746783Y-103054770D01*
X191697000Y-103174956D01*
X176073932Y-103174956D01*
X176040710Y-103141676D01*
X175755233Y-103023135D01*
X175446123Y-103022866D01*
X175160440Y-103140908D01*
X174941676Y-103359290D01*
X174887804Y-103489027D01*
X174740710Y-103341676D01*
X174455233Y-103223135D01*
X174146123Y-103222866D01*
X174043693Y-103265189D01*
X173959092Y-103060440D01*
X173749019Y-102849999D01*
X173758324Y-102840710D01*
X173876865Y-102555233D01*
X173877134Y-102246123D01*
X173759092Y-101960440D01*
X173540710Y-101741676D01*
X173255233Y-101623135D01*
X172946123Y-101622866D01*
X172660440Y-101740908D01*
X172441676Y-101959290D01*
X172323135Y-102244767D01*
X172323023Y-102373108D01*
X170051428Y-104644702D01*
X169919421Y-104589888D01*
X169610311Y-104589619D01*
X169324628Y-104707661D01*
X169105864Y-104926043D01*
X168987323Y-105211520D01*
X168987054Y-105520630D01*
X169105096Y-105806313D01*
X169323478Y-106025077D01*
X169608955Y-106143618D01*
X169918065Y-106143887D01*
X170203748Y-106025845D01*
X170422512Y-105807463D01*
X170541053Y-105521986D01*
X170541192Y-105362678D01*
X172523104Y-103380766D01*
X172522866Y-103653877D01*
X172640908Y-103939560D01*
X172859290Y-104158324D01*
X172873000Y-104164017D01*
X172873000Y-104323131D01*
X170123130Y-107073000D01*
X168851743Y-107073000D01*
X167790553Y-106011810D01*
X167795765Y-105999259D01*
X167796034Y-105690149D01*
X167677992Y-105404466D01*
X167459610Y-105185702D01*
X167174133Y-105067161D01*
X166865023Y-105066892D01*
X166579340Y-105184934D01*
X166360576Y-105403316D01*
X166242035Y-105688793D01*
X166241766Y-105997903D01*
X166359808Y-106283586D01*
X166578190Y-106502350D01*
X166863667Y-106620891D01*
X167172777Y-106621160D01*
X167186496Y-106615492D01*
X167285179Y-106714174D01*
X167104433Y-106788857D01*
X166885669Y-107007239D01*
X166767128Y-107292716D01*
X166766859Y-107601826D01*
X166884901Y-107887509D01*
X167103283Y-108106273D01*
X167124211Y-108114963D01*
X165621863Y-108114963D01*
X165458457Y-108147466D01*
X165319928Y-108240028D01*
X165319926Y-108240031D01*
X164613206Y-108946750D01*
X162463455Y-108946750D01*
X162463450Y-108946749D01*
X162300044Y-108979253D01*
X162161515Y-109071815D01*
X162161513Y-109071818D01*
X159848021Y-111385309D01*
X159755459Y-111523838D01*
X159722955Y-111687244D01*
X159722956Y-111687249D01*
X159722956Y-114724241D01*
X159540710Y-114541676D01*
X159255233Y-114423135D01*
X158946123Y-114422866D01*
X158660440Y-114540908D01*
X158441676Y-114759290D01*
X158323135Y-115044767D01*
X158322866Y-115353877D01*
X138350203Y-115353877D01*
X138387000Y-115265044D01*
X138387000Y-114404750D01*
X138305250Y-114323000D01*
X137183000Y-114323000D01*
X137137000Y-114323000D01*
X136014750Y-114323000D01*
X135933000Y-114404750D01*
X135830945Y-114404750D01*
X135847000Y-114324038D01*
X135847000Y-114275962D01*
X135753600Y-113806409D01*
X135487620Y-113408342D01*
X135377791Y-113334956D01*
X135933000Y-113334956D01*
X135933000Y-114195250D01*
X136014750Y-114277000D01*
X137137000Y-114277000D01*
X137137000Y-113154750D01*
X137183000Y-113154750D01*
X137183000Y-114277000D01*
X138305250Y-114277000D01*
X138387000Y-114195250D01*
X138387000Y-113334956D01*
X138337217Y-113214770D01*
X138245231Y-113122783D01*
X138125045Y-113073000D01*
X137264750Y-113073000D01*
X137183000Y-113154750D01*
X137137000Y-113154750D01*
X137055250Y-113073000D01*
X136194955Y-113073000D01*
X136074769Y-113122783D01*
X135982783Y-113214770D01*
X135933000Y-113334956D01*
X135377791Y-113334956D01*
X135089553Y-113142362D01*
X134620000Y-113048962D01*
X134150447Y-113142362D01*
X133752380Y-113408342D01*
X133486400Y-113806409D01*
X133393000Y-114275962D01*
X127402000Y-114275962D01*
X127402000Y-111735962D01*
X133393000Y-111735962D01*
X133393000Y-111784038D01*
X133486400Y-112253591D01*
X133752380Y-112651658D01*
X134150447Y-112917638D01*
X134620000Y-113011038D01*
X135089553Y-112917638D01*
X135487620Y-112651658D01*
X135753600Y-112253591D01*
X135809089Y-111974629D01*
X135951915Y-111974629D01*
X136126010Y-112420605D01*
X136457520Y-112766010D01*
X136895976Y-112958260D01*
X136945372Y-112968082D01*
X137137000Y-112905019D01*
X137137000Y-111783000D01*
X137183000Y-111783000D01*
X137183000Y-112905019D01*
X137374628Y-112968082D01*
X137424024Y-112958260D01*
X137862480Y-112766010D01*
X138193990Y-112420605D01*
X138368085Y-111974629D01*
X138305037Y-111783000D01*
X137183000Y-111783000D01*
X137137000Y-111783000D01*
X136014963Y-111783000D01*
X135951915Y-111974629D01*
X135809089Y-111974629D01*
X135847000Y-111784038D01*
X135847000Y-111735962D01*
X135809090Y-111545371D01*
X135951915Y-111545371D01*
X136014963Y-111737000D01*
X137137000Y-111737000D01*
X137137000Y-110614981D01*
X137183000Y-110614981D01*
X137183000Y-111737000D01*
X138305037Y-111737000D01*
X138368085Y-111545371D01*
X138193990Y-111099395D01*
X137862480Y-110753990D01*
X137424024Y-110561740D01*
X137374628Y-110551918D01*
X137183000Y-110614981D01*
X137137000Y-110614981D01*
X136945372Y-110551918D01*
X136895976Y-110561740D01*
X136457520Y-110753990D01*
X136126010Y-111099395D01*
X135951915Y-111545371D01*
X135809090Y-111545371D01*
X135753600Y-111266409D01*
X135487620Y-110868342D01*
X135089553Y-110602362D01*
X134620000Y-110508962D01*
X134150447Y-110602362D01*
X133752380Y-110868342D01*
X133486400Y-111266409D01*
X133393000Y-111735962D01*
X127402000Y-111735962D01*
X127402000Y-109195962D01*
X133393000Y-109195962D01*
X133393000Y-109244038D01*
X133486400Y-109713591D01*
X133752380Y-110111658D01*
X134150447Y-110377638D01*
X134620000Y-110471038D01*
X135089553Y-110377638D01*
X135487620Y-110111658D01*
X135753600Y-109713591D01*
X135809089Y-109434629D01*
X135951915Y-109434629D01*
X136126010Y-109880605D01*
X136457520Y-110226010D01*
X136895976Y-110418260D01*
X136945372Y-110428082D01*
X137137000Y-110365019D01*
X137137000Y-109243000D01*
X137183000Y-109243000D01*
X137183000Y-110365019D01*
X137374628Y-110428082D01*
X137424024Y-110418260D01*
X137862480Y-110226010D01*
X138193990Y-109880605D01*
X138368085Y-109434629D01*
X138305037Y-109243000D01*
X137183000Y-109243000D01*
X137137000Y-109243000D01*
X136014963Y-109243000D01*
X135951915Y-109434629D01*
X135809089Y-109434629D01*
X135847000Y-109244038D01*
X135847000Y-109195962D01*
X135809090Y-109005371D01*
X135951915Y-109005371D01*
X136014963Y-109197000D01*
X137137000Y-109197000D01*
X137137000Y-108074981D01*
X137183000Y-108074981D01*
X137183000Y-109197000D01*
X138305037Y-109197000D01*
X138368085Y-109005371D01*
X138193990Y-108559395D01*
X137862480Y-108213990D01*
X137424024Y-108021740D01*
X137374628Y-108011918D01*
X137183000Y-108074981D01*
X137137000Y-108074981D01*
X136945372Y-108011918D01*
X136895976Y-108021740D01*
X136457520Y-108213990D01*
X136126010Y-108559395D01*
X135951915Y-109005371D01*
X135809090Y-109005371D01*
X135753600Y-108726409D01*
X135487620Y-108328342D01*
X135089553Y-108062362D01*
X134620000Y-107968962D01*
X134150447Y-108062362D01*
X133752380Y-108328342D01*
X133486400Y-108726409D01*
X133393000Y-109195962D01*
X127402000Y-109195962D01*
X127402000Y-106655962D01*
X133393000Y-106655962D01*
X133393000Y-106704038D01*
X133486400Y-107173591D01*
X133752380Y-107571658D01*
X134150447Y-107837638D01*
X134620000Y-107931038D01*
X135089553Y-107837638D01*
X135487620Y-107571658D01*
X135753600Y-107173591D01*
X135809089Y-106894629D01*
X135951915Y-106894629D01*
X136126010Y-107340605D01*
X136457520Y-107686010D01*
X136895976Y-107878260D01*
X136945372Y-107888082D01*
X137137000Y-107825019D01*
X137137000Y-106703000D01*
X137183000Y-106703000D01*
X137183000Y-107825019D01*
X137374628Y-107888082D01*
X137424024Y-107878260D01*
X137862480Y-107686010D01*
X138193990Y-107340605D01*
X138368085Y-106894629D01*
X138305037Y-106703000D01*
X137183000Y-106703000D01*
X137137000Y-106703000D01*
X136014963Y-106703000D01*
X135951915Y-106894629D01*
X135809089Y-106894629D01*
X135847000Y-106704038D01*
X135847000Y-106655962D01*
X135809090Y-106465371D01*
X135951915Y-106465371D01*
X136014963Y-106657000D01*
X137137000Y-106657000D01*
X137137000Y-105534981D01*
X137183000Y-105534981D01*
X137183000Y-106657000D01*
X138305037Y-106657000D01*
X138368085Y-106465371D01*
X138193990Y-106019395D01*
X137862480Y-105673990D01*
X137424024Y-105481740D01*
X137374628Y-105471918D01*
X137183000Y-105534981D01*
X137137000Y-105534981D01*
X136945372Y-105471918D01*
X136895976Y-105481740D01*
X136457520Y-105673990D01*
X136126010Y-106019395D01*
X135951915Y-106465371D01*
X135809090Y-106465371D01*
X135753600Y-106186409D01*
X135487620Y-105788342D01*
X135089553Y-105522362D01*
X134620000Y-105428962D01*
X134150447Y-105522362D01*
X133752380Y-105788342D01*
X133486400Y-106186409D01*
X133393000Y-106655962D01*
X127402000Y-106655962D01*
X127402000Y-102284172D01*
X131342809Y-102284172D01*
X131491235Y-102643390D01*
X131765830Y-102918465D01*
X132124789Y-103067517D01*
X132378185Y-103067739D01*
X133398543Y-104088097D01*
X133393000Y-104115962D01*
X133393000Y-104164038D01*
X133486400Y-104633591D01*
X133752380Y-105031658D01*
X134150447Y-105297638D01*
X134620000Y-105391038D01*
X135089553Y-105297638D01*
X135487620Y-105031658D01*
X135753600Y-104633591D01*
X135809089Y-104354629D01*
X135951915Y-104354629D01*
X136126010Y-104800605D01*
X136457520Y-105146010D01*
X136895976Y-105338260D01*
X136945372Y-105348082D01*
X137137000Y-105285019D01*
X137137000Y-104163000D01*
X137183000Y-104163000D01*
X137183000Y-105285019D01*
X137374628Y-105348082D01*
X137424024Y-105338260D01*
X137862480Y-105146010D01*
X138193990Y-104800605D01*
X138368085Y-104354629D01*
X138305037Y-104163000D01*
X137183000Y-104163000D01*
X137137000Y-104163000D01*
X136014963Y-104163000D01*
X135951915Y-104354629D01*
X135809089Y-104354629D01*
X135847000Y-104164038D01*
X135847000Y-104115962D01*
X135753600Y-103646409D01*
X135487620Y-103248342D01*
X135089553Y-102982362D01*
X134620000Y-102888962D01*
X134552035Y-102902481D01*
X134470943Y-102821389D01*
X134620000Y-102851038D01*
X135089553Y-102757638D01*
X135118843Y-102738067D01*
X135525389Y-103144613D01*
X135672028Y-103242595D01*
X135845001Y-103277001D01*
X136320262Y-103277001D01*
X136126010Y-103479395D01*
X135951915Y-103925371D01*
X136014963Y-104117000D01*
X137137000Y-104117000D01*
X137137000Y-104097000D01*
X137183000Y-104097000D01*
X137183000Y-104117000D01*
X138305037Y-104117000D01*
X138368085Y-103925371D01*
X138328388Y-103823680D01*
X138977353Y-104472645D01*
X139148323Y-104586885D01*
X139349998Y-104627000D01*
X140181710Y-104627000D01*
X142607355Y-107052645D01*
X142778325Y-107166885D01*
X142980000Y-107207000D01*
X143678474Y-107207000D01*
X143906069Y-107547620D01*
X144304136Y-107813600D01*
X144373636Y-107827425D01*
X143279141Y-108921920D01*
X143253456Y-108911255D01*
X142864781Y-108910915D01*
X142505563Y-109059341D01*
X142230488Y-109333936D01*
X142081436Y-109692895D01*
X142081096Y-110081570D01*
X142229522Y-110440788D01*
X142504117Y-110715863D01*
X142863076Y-110864915D01*
X143251751Y-110865255D01*
X143610969Y-110716829D01*
X143886044Y-110442234D01*
X144028151Y-110100000D01*
X157372999Y-110100000D01*
X157373000Y-110100005D01*
X157373000Y-111699995D01*
X157372999Y-111700000D01*
X157405503Y-111863406D01*
X157498065Y-112001935D01*
X157728347Y-112232216D01*
X157723135Y-112244767D01*
X157722866Y-112553877D01*
X157840908Y-112839560D01*
X158059290Y-113058324D01*
X158344767Y-113176865D01*
X158653877Y-113177134D01*
X158939560Y-113059092D01*
X159158324Y-112840710D01*
X159276865Y-112555233D01*
X159277134Y-112246123D01*
X159159092Y-111960440D01*
X158940710Y-111741676D01*
X158655233Y-111623135D01*
X158346123Y-111622866D01*
X158332404Y-111628535D01*
X158227000Y-111523130D01*
X158227000Y-111086440D01*
X158444767Y-111176865D01*
X158753877Y-111177134D01*
X159039560Y-111059092D01*
X159258324Y-110840710D01*
X159315913Y-110702020D01*
X160274975Y-110702020D01*
X160274980Y-110702021D01*
X160438386Y-110669517D01*
X160576915Y-110576955D01*
X162651932Y-108501937D01*
X162651935Y-108501935D01*
X162744497Y-108363406D01*
X162777000Y-108200000D01*
X162777000Y-105600005D01*
X162777001Y-105600000D01*
X162744497Y-105436594D01*
X162651935Y-105298065D01*
X160427000Y-103073130D01*
X160427000Y-101826870D01*
X160651932Y-101601937D01*
X160651935Y-101601935D01*
X160653227Y-101600000D01*
X191670689Y-101600000D01*
X191764089Y-102069553D01*
X192030069Y-102467620D01*
X192428136Y-102733600D01*
X192897689Y-102827000D01*
X193182311Y-102827000D01*
X193651864Y-102733600D01*
X194049931Y-102467620D01*
X194315911Y-102069553D01*
X194409311Y-101600000D01*
X194315911Y-101130447D01*
X194049931Y-100732380D01*
X193651864Y-100466400D01*
X193182311Y-100373000D01*
X192897689Y-100373000D01*
X192428136Y-100466400D01*
X192030069Y-100732380D01*
X191764089Y-101130447D01*
X191670689Y-101600000D01*
X160653227Y-101600000D01*
X160744497Y-101463406D01*
X160777001Y-101300000D01*
X160777000Y-101299995D01*
X160777000Y-100700000D01*
X160744497Y-100536594D01*
X160651935Y-100398065D01*
X160651932Y-100398063D01*
X160321653Y-100067784D01*
X160326865Y-100055233D01*
X160327134Y-99746123D01*
X160209092Y-99460440D01*
X159990710Y-99241676D01*
X159705233Y-99123135D01*
X159396123Y-99122866D01*
X159110440Y-99240908D01*
X158891676Y-99459290D01*
X158806228Y-99665072D01*
X158705233Y-99623135D01*
X158396123Y-99622866D01*
X158110440Y-99740908D01*
X157891676Y-99959290D01*
X157773135Y-100244767D01*
X157772866Y-100553877D01*
X157890908Y-100839560D01*
X158109290Y-101058324D01*
X158123000Y-101064017D01*
X158123000Y-101099995D01*
X158122999Y-101100000D01*
X158155503Y-101263406D01*
X158248065Y-101401935D01*
X158673000Y-101826869D01*
X158673000Y-104322889D01*
X158646123Y-104322866D01*
X158360440Y-104440908D01*
X158141676Y-104659290D01*
X158023135Y-104944767D01*
X158022866Y-105253877D01*
X158140908Y-105539560D01*
X158359290Y-105758324D01*
X158644767Y-105876865D01*
X158953877Y-105877134D01*
X159239560Y-105759092D01*
X159458324Y-105540710D01*
X159576865Y-105255233D01*
X159577134Y-104946123D01*
X159523672Y-104816735D01*
X159527001Y-104800000D01*
X159527000Y-104799995D01*
X159527000Y-104080870D01*
X161473000Y-106026870D01*
X161473000Y-107773130D01*
X160173130Y-109073000D01*
X158400000Y-109073000D01*
X158236594Y-109105503D01*
X158098065Y-109198065D01*
X158098063Y-109198068D01*
X157498065Y-109798065D01*
X157405503Y-109936594D01*
X157372999Y-110100000D01*
X144028151Y-110100000D01*
X144035096Y-110083275D01*
X144035436Y-109694600D01*
X144024210Y-109667431D01*
X145288645Y-108402996D01*
X145402885Y-108232026D01*
X145443000Y-108030351D01*
X145443000Y-107830481D01*
X145500742Y-107818995D01*
X154066721Y-107818995D01*
X154184763Y-108104678D01*
X154403145Y-108323442D01*
X154645330Y-108424006D01*
X154585460Y-108568188D01*
X154585191Y-108877298D01*
X154703233Y-109162981D01*
X154921615Y-109381745D01*
X155207092Y-109500286D01*
X155516202Y-109500555D01*
X155801885Y-109382513D01*
X156020649Y-109164131D01*
X156139190Y-108878654D01*
X156139459Y-108569544D01*
X156133791Y-108555825D01*
X156362615Y-108327000D01*
X159335718Y-108327000D01*
X159340908Y-108339560D01*
X159559290Y-108558324D01*
X159844767Y-108676865D01*
X160153877Y-108677134D01*
X160439560Y-108559092D01*
X160658324Y-108340710D01*
X160776865Y-108055233D01*
X160777134Y-107746123D01*
X160748626Y-107677129D01*
X160753877Y-107677134D01*
X161039560Y-107559092D01*
X161258324Y-107340710D01*
X161376865Y-107055233D01*
X161377134Y-106746123D01*
X161259092Y-106460440D01*
X161040710Y-106241676D01*
X160755233Y-106123135D01*
X160446123Y-106122866D01*
X160160440Y-106240908D01*
X159941676Y-106459290D01*
X159935983Y-106473000D01*
X155608978Y-106473000D01*
X155608973Y-106472999D01*
X155461418Y-106502350D01*
X155445567Y-106505503D01*
X155307038Y-106598065D01*
X155307036Y-106598068D01*
X155011639Y-106893464D01*
X154999088Y-106888253D01*
X154689978Y-106887984D01*
X154404295Y-107006026D01*
X154185531Y-107224408D01*
X154066990Y-107509885D01*
X154066721Y-107818995D01*
X145500742Y-107818995D01*
X145527864Y-107813600D01*
X145925931Y-107547620D01*
X146191911Y-107149553D01*
X146285311Y-106680000D01*
X146191911Y-106210447D01*
X145925931Y-105812380D01*
X145527864Y-105546400D01*
X145058311Y-105453000D01*
X144773689Y-105453000D01*
X144304136Y-105546400D01*
X143906069Y-105812380D01*
X143678474Y-106153000D01*
X143198290Y-106153000D01*
X141185290Y-104140000D01*
X143546689Y-104140000D01*
X143640089Y-104609553D01*
X143906069Y-105007620D01*
X144304136Y-105273600D01*
X144773689Y-105367000D01*
X145058311Y-105367000D01*
X145527864Y-105273600D01*
X145925931Y-105007620D01*
X146191911Y-104609553D01*
X146285311Y-104140000D01*
X146191911Y-103670447D01*
X145925931Y-103272380D01*
X145527864Y-103006400D01*
X145058311Y-102913000D01*
X144773689Y-102913000D01*
X144304136Y-103006400D01*
X143906069Y-103272380D01*
X143640089Y-103670447D01*
X143546689Y-104140000D01*
X141185290Y-104140000D01*
X140772645Y-103727355D01*
X140601675Y-103613115D01*
X140400000Y-103573000D01*
X139568288Y-103573000D01*
X138447644Y-102452356D01*
X138276674Y-102338116D01*
X138144777Y-102311881D01*
X138193990Y-102260605D01*
X138368085Y-101814629D01*
X138331934Y-101704750D01*
X143573000Y-101704750D01*
X143573000Y-102565044D01*
X143622783Y-102685230D01*
X143714769Y-102777217D01*
X143834955Y-102827000D01*
X144811250Y-102827000D01*
X144893000Y-102745250D01*
X144893000Y-101623000D01*
X144939000Y-101623000D01*
X144939000Y-102745250D01*
X145020750Y-102827000D01*
X145997045Y-102827000D01*
X146117231Y-102777217D01*
X146209217Y-102685230D01*
X146259000Y-102565044D01*
X146259000Y-101704750D01*
X146177250Y-101623000D01*
X144939000Y-101623000D01*
X144893000Y-101623000D01*
X143654750Y-101623000D01*
X143573000Y-101704750D01*
X138331934Y-101704750D01*
X138305037Y-101623000D01*
X137183000Y-101623000D01*
X137183000Y-101643000D01*
X137137000Y-101643000D01*
X137137000Y-101623000D01*
X136014963Y-101623000D01*
X135951915Y-101814629D01*
X136126010Y-102260605D01*
X136233885Y-102373001D01*
X136032225Y-102373001D01*
X135753286Y-102094062D01*
X135753600Y-102093591D01*
X135847000Y-101624038D01*
X135847000Y-101575962D01*
X135809090Y-101385371D01*
X135951915Y-101385371D01*
X136014963Y-101577000D01*
X137137000Y-101577000D01*
X137137000Y-100454981D01*
X137183000Y-100454981D01*
X137183000Y-101577000D01*
X138305037Y-101577000D01*
X138368085Y-101385371D01*
X138193990Y-100939395D01*
X137901799Y-100634956D01*
X143573000Y-100634956D01*
X143573000Y-101495250D01*
X143654750Y-101577000D01*
X144893000Y-101577000D01*
X144893000Y-100454750D01*
X144939000Y-100454750D01*
X144939000Y-101577000D01*
X146177250Y-101577000D01*
X146259000Y-101495250D01*
X146259000Y-100634956D01*
X146209217Y-100514770D01*
X146117231Y-100422783D01*
X145997045Y-100373000D01*
X145020750Y-100373000D01*
X144939000Y-100454750D01*
X144893000Y-100454750D01*
X144811250Y-100373000D01*
X143834955Y-100373000D01*
X143714769Y-100422783D01*
X143622783Y-100514770D01*
X143573000Y-100634956D01*
X137901799Y-100634956D01*
X137862480Y-100593990D01*
X137424024Y-100401740D01*
X137374628Y-100391918D01*
X137183000Y-100454981D01*
X137137000Y-100454981D01*
X136945372Y-100391918D01*
X136895976Y-100401740D01*
X136457520Y-100593990D01*
X136126010Y-100939395D01*
X135951915Y-101385371D01*
X135809090Y-101385371D01*
X135753600Y-101106409D01*
X135487620Y-100708342D01*
X135089553Y-100442362D01*
X134620000Y-100348962D01*
X134150447Y-100442362D01*
X133752380Y-100708342D01*
X133486400Y-101106409D01*
X133393000Y-101575962D01*
X133393000Y-101624038D01*
X133422649Y-101773095D01*
X133155464Y-101505910D01*
X133039066Y-101428135D01*
X132874128Y-101262909D01*
X132515169Y-101113857D01*
X132126494Y-101113517D01*
X131767276Y-101261943D01*
X131492201Y-101536538D01*
X131343149Y-101895497D01*
X131342809Y-102284172D01*
X127402000Y-102284172D01*
X127402000Y-99035962D01*
X133393000Y-99035962D01*
X133393000Y-99084038D01*
X133486400Y-99553591D01*
X133752380Y-99951658D01*
X134150447Y-100217638D01*
X134620000Y-100311038D01*
X135089553Y-100217638D01*
X135487620Y-99951658D01*
X135753600Y-99553591D01*
X135809089Y-99274629D01*
X135951915Y-99274629D01*
X136126010Y-99720605D01*
X136457520Y-100066010D01*
X136895976Y-100258260D01*
X136945372Y-100268082D01*
X137137000Y-100205019D01*
X137137000Y-99083000D01*
X137183000Y-99083000D01*
X137183000Y-100205019D01*
X137374628Y-100268082D01*
X137424024Y-100258260D01*
X137862480Y-100066010D01*
X138193990Y-99720605D01*
X138368085Y-99274629D01*
X138305037Y-99083000D01*
X137183000Y-99083000D01*
X137137000Y-99083000D01*
X136014963Y-99083000D01*
X135951915Y-99274629D01*
X135809089Y-99274629D01*
X135847000Y-99084038D01*
X135847000Y-99060000D01*
X191670689Y-99060000D01*
X191764089Y-99529553D01*
X192030069Y-99927620D01*
X192428136Y-100193600D01*
X192897689Y-100287000D01*
X193182311Y-100287000D01*
X193651864Y-100193600D01*
X194049931Y-99927620D01*
X194315911Y-99529553D01*
X194409311Y-99060000D01*
X194315911Y-98590447D01*
X194049931Y-98192380D01*
X193651864Y-97926400D01*
X193182311Y-97833000D01*
X192897689Y-97833000D01*
X192428136Y-97926400D01*
X192030069Y-98192380D01*
X191764089Y-98590447D01*
X191670689Y-99060000D01*
X135847000Y-99060000D01*
X135847000Y-99035962D01*
X135809090Y-98845371D01*
X135951915Y-98845371D01*
X136014963Y-99037000D01*
X137137000Y-99037000D01*
X137137000Y-97914981D01*
X137183000Y-97914981D01*
X137183000Y-99037000D01*
X138305037Y-99037000D01*
X138368085Y-98845371D01*
X138193990Y-98399395D01*
X137862480Y-98053990D01*
X137424024Y-97861740D01*
X137374628Y-97851918D01*
X137183000Y-97914981D01*
X137137000Y-97914981D01*
X136945372Y-97851918D01*
X136895976Y-97861740D01*
X136457520Y-98053990D01*
X136126010Y-98399395D01*
X135951915Y-98845371D01*
X135809090Y-98845371D01*
X135753600Y-98566409D01*
X135487620Y-98168342D01*
X135089553Y-97902362D01*
X134620000Y-97808962D01*
X134150447Y-97902362D01*
X133752380Y-98168342D01*
X133486400Y-98566409D01*
X133393000Y-99035962D01*
X127402000Y-99035962D01*
X127402000Y-77117505D01*
X128922492Y-77117505D01*
X128922493Y-77117510D01*
X128922493Y-80049488D01*
X128922492Y-80049493D01*
X128954996Y-80212899D01*
X129047558Y-80351428D01*
X130848002Y-82151872D01*
X130848002Y-87933975D01*
X130848001Y-87933980D01*
X130880505Y-88097386D01*
X130973067Y-88235915D01*
X133185409Y-90448256D01*
X133124994Y-90423170D01*
X132736319Y-90422830D01*
X132377101Y-90571256D01*
X132102026Y-90845851D01*
X131952974Y-91204810D01*
X131952634Y-91593485D01*
X132101060Y-91952703D01*
X132102804Y-91954450D01*
X132102804Y-94724394D01*
X131747372Y-94871256D01*
X131472297Y-95145851D01*
X131323245Y-95504810D01*
X131322905Y-95893485D01*
X131471331Y-96252703D01*
X131745926Y-96527778D01*
X132104885Y-96676830D01*
X132493560Y-96677170D01*
X132852778Y-96528744D01*
X132885617Y-96495962D01*
X133393000Y-96495962D01*
X133393000Y-96544038D01*
X133486400Y-97013591D01*
X133752380Y-97411658D01*
X134150447Y-97677638D01*
X134620000Y-97771038D01*
X135089553Y-97677638D01*
X135487620Y-97411658D01*
X135753600Y-97013591D01*
X135847000Y-96544038D01*
X135847000Y-96495962D01*
X135933000Y-96495962D01*
X135933000Y-96544038D01*
X136026400Y-97013591D01*
X136292380Y-97411658D01*
X136690447Y-97677638D01*
X137160000Y-97771038D01*
X137629553Y-97677638D01*
X138027620Y-97411658D01*
X138293600Y-97013591D01*
X138387000Y-96544038D01*
X138387000Y-96520000D01*
X191670689Y-96520000D01*
X191764089Y-96989553D01*
X192030069Y-97387620D01*
X192428136Y-97653600D01*
X192897689Y-97747000D01*
X193182311Y-97747000D01*
X193651864Y-97653600D01*
X194049931Y-97387620D01*
X194315911Y-96989553D01*
X194409311Y-96520000D01*
X194315911Y-96050447D01*
X194049931Y-95652380D01*
X193651864Y-95386400D01*
X193182311Y-95293000D01*
X192897689Y-95293000D01*
X192428136Y-95386400D01*
X192030069Y-95652380D01*
X191764089Y-96050447D01*
X191670689Y-96520000D01*
X138387000Y-96520000D01*
X138387000Y-96495962D01*
X138293600Y-96026409D01*
X138027620Y-95628342D01*
X137629553Y-95362362D01*
X137160000Y-95268962D01*
X136690447Y-95362362D01*
X136292380Y-95628342D01*
X136026400Y-96026409D01*
X135933000Y-96495962D01*
X135847000Y-96495962D01*
X135753600Y-96026409D01*
X135487620Y-95628342D01*
X135089553Y-95362362D01*
X134620000Y-95268962D01*
X134150447Y-95362362D01*
X133752380Y-95628342D01*
X133486400Y-96026409D01*
X133393000Y-96495962D01*
X132885617Y-96495962D01*
X133127853Y-96254149D01*
X133276905Y-95895190D01*
X133276907Y-95892722D01*
X133514581Y-95655049D01*
X133693852Y-95386750D01*
X133703869Y-95336392D01*
X133756804Y-95070271D01*
X133756804Y-91954926D01*
X133757582Y-91954149D01*
X133906634Y-91595190D01*
X133906974Y-91206515D01*
X133881137Y-91143984D01*
X135239085Y-92501932D01*
X135239087Y-92501935D01*
X135377616Y-92594497D01*
X135541022Y-92627000D01*
X139723130Y-92627000D01*
X139973000Y-92876869D01*
X139973000Y-94822889D01*
X139946123Y-94822866D01*
X139660440Y-94940908D01*
X139441676Y-95159290D01*
X139323135Y-95444767D01*
X139322866Y-95753877D01*
X139440908Y-96039560D01*
X139659290Y-96258324D01*
X139944767Y-96376865D01*
X140253877Y-96377134D01*
X140539560Y-96259092D01*
X140650001Y-96148844D01*
X140759290Y-96258324D01*
X141044767Y-96376865D01*
X141353877Y-96377134D01*
X141639560Y-96259092D01*
X141858324Y-96040710D01*
X141950080Y-95819739D01*
X142040908Y-96039560D01*
X142259290Y-96258324D01*
X142544767Y-96376865D01*
X142853877Y-96377134D01*
X143139560Y-96259092D01*
X143358324Y-96040710D01*
X143476865Y-95755233D01*
X143477134Y-95446123D01*
X143359092Y-95160440D01*
X143140710Y-94941676D01*
X142855233Y-94823135D01*
X142546123Y-94822866D01*
X142320119Y-94916249D01*
X141827000Y-94423130D01*
X141827000Y-92977111D01*
X141853877Y-92977134D01*
X142139560Y-92859092D01*
X142358324Y-92640710D01*
X142476865Y-92355233D01*
X142477134Y-92046123D01*
X142359092Y-91760440D01*
X142140710Y-91541676D01*
X141855233Y-91423135D01*
X141546123Y-91422866D01*
X141260440Y-91540908D01*
X141041676Y-91759290D01*
X140959958Y-91956088D01*
X140451935Y-91448065D01*
X140313406Y-91355503D01*
X140150000Y-91322999D01*
X140149995Y-91323000D01*
X135904302Y-91323000D01*
X134713702Y-90132400D01*
X135089553Y-90057638D01*
X135487620Y-89791658D01*
X135753600Y-89393591D01*
X135830945Y-89004750D01*
X135933000Y-89004750D01*
X135933000Y-89865044D01*
X135982783Y-89985230D01*
X136074769Y-90077217D01*
X136194955Y-90127000D01*
X137055250Y-90127000D01*
X137137000Y-90045250D01*
X137137000Y-88923000D01*
X137183000Y-88923000D01*
X137183000Y-90045250D01*
X137264750Y-90127000D01*
X138125045Y-90127000D01*
X138245231Y-90077217D01*
X138337217Y-89985230D01*
X138387000Y-89865044D01*
X138387000Y-89004750D01*
X143437000Y-89004750D01*
X143437000Y-89865044D01*
X143486783Y-89985230D01*
X143578769Y-90077217D01*
X143698955Y-90127000D01*
X144675250Y-90127000D01*
X144757000Y-90045250D01*
X144757000Y-88923000D01*
X144803000Y-88923000D01*
X144803000Y-90045250D01*
X144884750Y-90127000D01*
X145861045Y-90127000D01*
X145981231Y-90077217D01*
X146073217Y-89985230D01*
X146123000Y-89865044D01*
X146123000Y-89004750D01*
X146951888Y-89004750D01*
X146951888Y-89865044D01*
X147001671Y-89985230D01*
X147093657Y-90077217D01*
X147213843Y-90127000D01*
X148190138Y-90127000D01*
X148271888Y-90045250D01*
X148271888Y-88923000D01*
X148317888Y-88923000D01*
X148317888Y-90045250D01*
X148399638Y-90127000D01*
X149375933Y-90127000D01*
X149496119Y-90077217D01*
X149588105Y-89985230D01*
X149637888Y-89865044D01*
X149637888Y-89004750D01*
X191697000Y-89004750D01*
X191697000Y-89865044D01*
X191746783Y-89985230D01*
X191838769Y-90077217D01*
X191958955Y-90127000D01*
X192935250Y-90127000D01*
X193017000Y-90045250D01*
X193017000Y-88923000D01*
X193063000Y-88923000D01*
X193063000Y-90045250D01*
X193144750Y-90127000D01*
X194121045Y-90127000D01*
X194241231Y-90077217D01*
X194333217Y-89985230D01*
X194383000Y-89865044D01*
X194383000Y-89004750D01*
X194301250Y-88923000D01*
X193063000Y-88923000D01*
X193017000Y-88923000D01*
X191778750Y-88923000D01*
X191697000Y-89004750D01*
X149637888Y-89004750D01*
X149556138Y-88923000D01*
X148317888Y-88923000D01*
X148271888Y-88923000D01*
X147033638Y-88923000D01*
X146951888Y-89004750D01*
X146123000Y-89004750D01*
X146041250Y-88923000D01*
X144803000Y-88923000D01*
X144757000Y-88923000D01*
X143518750Y-88923000D01*
X143437000Y-89004750D01*
X138387000Y-89004750D01*
X138305250Y-88923000D01*
X137183000Y-88923000D01*
X137137000Y-88923000D01*
X136014750Y-88923000D01*
X135933000Y-89004750D01*
X135830945Y-89004750D01*
X135847000Y-88924038D01*
X135847000Y-88875962D01*
X135753600Y-88406409D01*
X135487620Y-88008342D01*
X135377791Y-87934956D01*
X135933000Y-87934956D01*
X135933000Y-88795250D01*
X136014750Y-88877000D01*
X137137000Y-88877000D01*
X137137000Y-87754750D01*
X137183000Y-87754750D01*
X137183000Y-88877000D01*
X138305250Y-88877000D01*
X138387000Y-88795250D01*
X138387000Y-87934956D01*
X143437000Y-87934956D01*
X143437000Y-88795250D01*
X143518750Y-88877000D01*
X144757000Y-88877000D01*
X144757000Y-87754750D01*
X144803000Y-87754750D01*
X144803000Y-88877000D01*
X146041250Y-88877000D01*
X146123000Y-88795250D01*
X146123000Y-87934956D01*
X146951888Y-87934956D01*
X146951888Y-88795250D01*
X147033638Y-88877000D01*
X148271888Y-88877000D01*
X148271888Y-87754750D01*
X148317888Y-87754750D01*
X148317888Y-88877000D01*
X149556138Y-88877000D01*
X149637888Y-88795250D01*
X149637888Y-87934956D01*
X191697000Y-87934956D01*
X191697000Y-88795250D01*
X191778750Y-88877000D01*
X193017000Y-88877000D01*
X193017000Y-87754750D01*
X193063000Y-87754750D01*
X193063000Y-88877000D01*
X194301250Y-88877000D01*
X194383000Y-88795250D01*
X194383000Y-87934956D01*
X194333217Y-87814770D01*
X194241231Y-87722783D01*
X194121045Y-87673000D01*
X193144750Y-87673000D01*
X193063000Y-87754750D01*
X193017000Y-87754750D01*
X192935250Y-87673000D01*
X191958955Y-87673000D01*
X191838769Y-87722783D01*
X191746783Y-87814770D01*
X191697000Y-87934956D01*
X149637888Y-87934956D01*
X149588105Y-87814770D01*
X149496119Y-87722783D01*
X149375933Y-87673000D01*
X148399638Y-87673000D01*
X148317888Y-87754750D01*
X148271888Y-87754750D01*
X148190138Y-87673000D01*
X147213843Y-87673000D01*
X147093657Y-87722783D01*
X147001671Y-87814770D01*
X146951888Y-87934956D01*
X146123000Y-87934956D01*
X146073217Y-87814770D01*
X145981231Y-87722783D01*
X145861045Y-87673000D01*
X144884750Y-87673000D01*
X144803000Y-87754750D01*
X144757000Y-87754750D01*
X144675250Y-87673000D01*
X143698955Y-87673000D01*
X143578769Y-87722783D01*
X143486783Y-87814770D01*
X143437000Y-87934956D01*
X138387000Y-87934956D01*
X138337217Y-87814770D01*
X138245231Y-87722783D01*
X138125045Y-87673000D01*
X137264750Y-87673000D01*
X137183000Y-87754750D01*
X137137000Y-87754750D01*
X137055250Y-87673000D01*
X136194955Y-87673000D01*
X136074769Y-87722783D01*
X135982783Y-87814770D01*
X135933000Y-87934956D01*
X135377791Y-87934956D01*
X135089553Y-87742362D01*
X134620000Y-87648962D01*
X134150447Y-87742362D01*
X133752380Y-88008342D01*
X133486400Y-88406409D01*
X133403662Y-88822360D01*
X132152013Y-87570710D01*
X132152013Y-86335962D01*
X133393000Y-86335962D01*
X133393000Y-86384038D01*
X133486400Y-86853591D01*
X133752380Y-87251658D01*
X134150447Y-87517638D01*
X134620000Y-87611038D01*
X135089553Y-87517638D01*
X135487620Y-87251658D01*
X135753600Y-86853591D01*
X135847000Y-86384038D01*
X135847000Y-86335962D01*
X135933000Y-86335962D01*
X135933000Y-86384038D01*
X136026400Y-86853591D01*
X136292380Y-87251658D01*
X136690447Y-87517638D01*
X137160000Y-87611038D01*
X137629553Y-87517638D01*
X138027620Y-87251658D01*
X138293600Y-86853591D01*
X138387000Y-86384038D01*
X138387000Y-86360000D01*
X143410689Y-86360000D01*
X143504089Y-86829553D01*
X143770069Y-87227620D01*
X144168136Y-87493600D01*
X144637689Y-87587000D01*
X144922311Y-87587000D01*
X145391864Y-87493600D01*
X145789931Y-87227620D01*
X146055911Y-86829553D01*
X146149311Y-86360000D01*
X146925577Y-86360000D01*
X147018977Y-86829553D01*
X147284957Y-87227620D01*
X147683024Y-87493600D01*
X148152577Y-87587000D01*
X148437199Y-87587000D01*
X148906752Y-87493600D01*
X149304819Y-87227620D01*
X149570799Y-86829553D01*
X149664199Y-86360000D01*
X191670689Y-86360000D01*
X191764089Y-86829553D01*
X192030069Y-87227620D01*
X192428136Y-87493600D01*
X192897689Y-87587000D01*
X193182311Y-87587000D01*
X193651864Y-87493600D01*
X194049931Y-87227620D01*
X194315911Y-86829553D01*
X194409311Y-86360000D01*
X194315911Y-85890447D01*
X194049931Y-85492380D01*
X193651864Y-85226400D01*
X193182311Y-85133000D01*
X192897689Y-85133000D01*
X192428136Y-85226400D01*
X192030069Y-85492380D01*
X191764089Y-85890447D01*
X191670689Y-86360000D01*
X149664199Y-86360000D01*
X149570799Y-85890447D01*
X149304819Y-85492380D01*
X148906752Y-85226400D01*
X148437199Y-85133000D01*
X148152577Y-85133000D01*
X147683024Y-85226400D01*
X147284957Y-85492380D01*
X147018977Y-85890447D01*
X146925577Y-86360000D01*
X146149311Y-86360000D01*
X146055911Y-85890447D01*
X145789931Y-85492380D01*
X145391864Y-85226400D01*
X144922311Y-85133000D01*
X144637689Y-85133000D01*
X144168136Y-85226400D01*
X143770069Y-85492380D01*
X143504089Y-85890447D01*
X143410689Y-86360000D01*
X138387000Y-86360000D01*
X138387000Y-86335962D01*
X138293600Y-85866409D01*
X138027620Y-85468342D01*
X137629553Y-85202362D01*
X137160000Y-85108962D01*
X136690447Y-85202362D01*
X136292380Y-85468342D01*
X136026400Y-85866409D01*
X135933000Y-86335962D01*
X135847000Y-86335962D01*
X135753600Y-85866409D01*
X135487620Y-85468342D01*
X135089553Y-85202362D01*
X134620000Y-85108962D01*
X134150447Y-85202362D01*
X133752380Y-85468342D01*
X133486400Y-85866409D01*
X133393000Y-86335962D01*
X132152013Y-86335962D01*
X132152013Y-80904711D01*
X132152014Y-80904706D01*
X132119510Y-80741300D01*
X132118685Y-80740065D01*
X132026948Y-80602771D01*
X132026945Y-80602769D01*
X131698901Y-80274724D01*
X131698898Y-80274722D01*
X131418620Y-79994444D01*
X131423832Y-79981893D01*
X131424101Y-79672783D01*
X131306059Y-79387100D01*
X131087677Y-79168336D01*
X130802200Y-79049795D01*
X130493090Y-79049526D01*
X130207407Y-79167568D01*
X129988643Y-79385950D01*
X129870102Y-79671427D01*
X129869846Y-79965976D01*
X129776493Y-79872623D01*
X129776493Y-77294375D01*
X133393000Y-73677867D01*
X133393000Y-73683002D01*
X133474962Y-73683002D01*
X133411915Y-73874629D01*
X133586010Y-74320605D01*
X133917520Y-74666010D01*
X134355976Y-74858260D01*
X134405372Y-74868082D01*
X134597000Y-74805019D01*
X134597000Y-73683000D01*
X134643000Y-73683000D01*
X134643000Y-74805019D01*
X134834628Y-74868082D01*
X134884024Y-74858260D01*
X135322480Y-74666010D01*
X135653990Y-74320605D01*
X135828085Y-73874629D01*
X135765037Y-73683000D01*
X134643000Y-73683000D01*
X134597000Y-73683000D01*
X134577000Y-73683000D01*
X134577000Y-73637000D01*
X134597000Y-73637000D01*
X134597000Y-73617000D01*
X134643000Y-73617000D01*
X134643000Y-73637000D01*
X135765037Y-73637000D01*
X135828085Y-73445371D01*
X135653990Y-72999395D01*
X135522121Y-72861999D01*
X136229800Y-72861999D01*
X136026400Y-73166409D01*
X135933000Y-73635962D01*
X135933000Y-73684038D01*
X136026400Y-74153591D01*
X136026714Y-74154062D01*
X135615387Y-74565389D01*
X135517405Y-74712028D01*
X135482999Y-74885001D01*
X135482999Y-75305254D01*
X135089553Y-75042362D01*
X134620000Y-74948962D01*
X134150447Y-75042362D01*
X133752380Y-75308342D01*
X133486400Y-75706409D01*
X133393000Y-76175962D01*
X133393000Y-76224038D01*
X133486400Y-76693591D01*
X133752380Y-77091658D01*
X134150447Y-77357638D01*
X134620000Y-77451038D01*
X135089553Y-77357638D01*
X135482999Y-77094746D01*
X135482999Y-82317776D01*
X135200387Y-82600389D01*
X135118843Y-82681933D01*
X135089553Y-82662362D01*
X134620000Y-82568962D01*
X134150447Y-82662362D01*
X133752380Y-82928342D01*
X133486400Y-83326409D01*
X133393000Y-83795962D01*
X133393000Y-83844038D01*
X133486400Y-84313591D01*
X133752380Y-84711658D01*
X134150447Y-84977638D01*
X134620000Y-85071038D01*
X135089553Y-84977638D01*
X135487620Y-84711658D01*
X135753600Y-84313591D01*
X135847000Y-83844038D01*
X135847000Y-83795962D01*
X135933000Y-83795962D01*
X135933000Y-83844038D01*
X136026400Y-84313591D01*
X136292380Y-84711658D01*
X136690447Y-84977638D01*
X137160000Y-85071038D01*
X137629553Y-84977638D01*
X138027620Y-84711658D01*
X138293600Y-84313591D01*
X138387000Y-83844038D01*
X138387000Y-83820000D01*
X143410689Y-83820000D01*
X143504089Y-84289553D01*
X143770069Y-84687620D01*
X144168136Y-84953600D01*
X144637689Y-85047000D01*
X144922311Y-85047000D01*
X145391864Y-84953600D01*
X145789931Y-84687620D01*
X146055911Y-84289553D01*
X146149311Y-83820000D01*
X146925577Y-83820000D01*
X147018977Y-84289553D01*
X147284957Y-84687620D01*
X147683024Y-84953600D01*
X148152577Y-85047000D01*
X148437199Y-85047000D01*
X148906752Y-84953600D01*
X149304819Y-84687620D01*
X149570799Y-84289553D01*
X149664199Y-83820000D01*
X191670689Y-83820000D01*
X191764089Y-84289553D01*
X192030069Y-84687620D01*
X192428136Y-84953600D01*
X192897689Y-85047000D01*
X193182311Y-85047000D01*
X193651864Y-84953600D01*
X194049931Y-84687620D01*
X194315911Y-84289553D01*
X194409311Y-83820000D01*
X194315911Y-83350447D01*
X194049931Y-82952380D01*
X193651864Y-82686400D01*
X193182311Y-82593000D01*
X192897689Y-82593000D01*
X192428136Y-82686400D01*
X192030069Y-82952380D01*
X191764089Y-83350447D01*
X191670689Y-83820000D01*
X149664199Y-83820000D01*
X149570799Y-83350447D01*
X149304819Y-82952380D01*
X148906752Y-82686400D01*
X148437199Y-82593000D01*
X148152577Y-82593000D01*
X147683024Y-82686400D01*
X147284957Y-82952380D01*
X147018977Y-83350447D01*
X146925577Y-83820000D01*
X146149311Y-83820000D01*
X146055911Y-83350447D01*
X145789931Y-82952380D01*
X145391864Y-82686400D01*
X144922311Y-82593000D01*
X144637689Y-82593000D01*
X144168136Y-82686400D01*
X143770069Y-82952380D01*
X143504089Y-83350447D01*
X143410689Y-83820000D01*
X138387000Y-83820000D01*
X138387000Y-83795962D01*
X138293600Y-83326409D01*
X138027620Y-82928342D01*
X137629553Y-82662362D01*
X137160000Y-82568962D01*
X136690447Y-82662362D01*
X136292380Y-82928342D01*
X136026400Y-83326409D01*
X135933000Y-83795962D01*
X135847000Y-83795962D01*
X135753600Y-83326409D01*
X135753286Y-83325938D01*
X135839611Y-83239613D01*
X136254612Y-82824613D01*
X136352593Y-82677974D01*
X136386999Y-82505001D01*
X136386999Y-81280000D01*
X191670689Y-81280000D01*
X191764089Y-81749553D01*
X192030069Y-82147620D01*
X192428136Y-82413600D01*
X192897689Y-82507000D01*
X193182311Y-82507000D01*
X193651864Y-82413600D01*
X194049931Y-82147620D01*
X194315911Y-81749553D01*
X194409311Y-81280000D01*
X194315911Y-80810447D01*
X194049931Y-80412380D01*
X193651864Y-80146400D01*
X193182311Y-80053000D01*
X192897689Y-80053000D01*
X192428136Y-80146400D01*
X192030069Y-80412380D01*
X191764089Y-80810447D01*
X191670689Y-81280000D01*
X136386999Y-81280000D01*
X136386999Y-77433406D01*
X138060000Y-77433406D01*
X138181179Y-77410605D01*
X138292474Y-77338988D01*
X138367138Y-77229714D01*
X138393406Y-77100000D01*
X138393406Y-75300000D01*
X138370605Y-75178821D01*
X138298988Y-75067526D01*
X138189714Y-74992862D01*
X138060000Y-74966594D01*
X136492630Y-74966594D01*
X136661157Y-74798067D01*
X136690447Y-74817638D01*
X137160000Y-74911038D01*
X137629553Y-74817638D01*
X138027620Y-74551658D01*
X138293600Y-74153591D01*
X138387000Y-73684038D01*
X138387000Y-73658878D01*
X187672424Y-73658878D01*
X188177862Y-74882132D01*
X189112945Y-75818849D01*
X190335315Y-76326421D01*
X191658878Y-76327576D01*
X192882132Y-75822138D01*
X193818849Y-74887055D01*
X194326421Y-73664685D01*
X194327576Y-72341122D01*
X193822138Y-71117868D01*
X192887055Y-70181151D01*
X191664685Y-69673579D01*
X190341122Y-69672424D01*
X189117868Y-70177862D01*
X188181151Y-71112945D01*
X187673579Y-72335315D01*
X187672424Y-73658878D01*
X138387000Y-73658878D01*
X138387000Y-73635962D01*
X138293600Y-73166409D01*
X138027620Y-72768342D01*
X137968220Y-72728652D01*
X139761905Y-70934966D01*
X139761908Y-70934964D01*
X139854470Y-70796435D01*
X139886973Y-70633029D01*
X139886973Y-68646128D01*
X139899533Y-68640938D01*
X140118297Y-68422556D01*
X140236838Y-68137079D01*
X140237107Y-67827969D01*
X140119065Y-67542286D01*
X139900683Y-67323522D01*
X139615206Y-67204981D01*
X139306096Y-67204712D01*
X139020413Y-67322754D01*
X138801649Y-67541136D01*
X138683108Y-67826613D01*
X138682839Y-68135723D01*
X138800881Y-68421406D01*
X139019263Y-68640170D01*
X139032973Y-68645863D01*
X139032973Y-70456160D01*
X138387000Y-71102133D01*
X138387000Y-71095962D01*
X138293600Y-70626409D01*
X138027620Y-70228342D01*
X137629553Y-69962362D01*
X137160000Y-69868962D01*
X136690447Y-69962362D01*
X136292380Y-70228342D01*
X136026400Y-70626409D01*
X135933000Y-71095962D01*
X135933000Y-71144038D01*
X136026400Y-71613591D01*
X136289935Y-72007999D01*
X135435744Y-72007999D01*
X135653990Y-71780605D01*
X135828085Y-71334629D01*
X135765037Y-71143000D01*
X134643000Y-71143000D01*
X134643000Y-71163000D01*
X134597000Y-71163000D01*
X134597000Y-71143000D01*
X133474963Y-71143000D01*
X133411915Y-71334629D01*
X133586010Y-71780605D01*
X133848401Y-72053994D01*
X133730064Y-72133064D01*
X133730062Y-72133067D01*
X129047558Y-76815570D01*
X128954996Y-76954099D01*
X128922492Y-77117505D01*
X127402000Y-77117505D01*
X127402000Y-70905371D01*
X133411915Y-70905371D01*
X133474963Y-71097000D01*
X134597000Y-71097000D01*
X134597000Y-69974981D01*
X134643000Y-69974981D01*
X134643000Y-71097000D01*
X135765037Y-71097000D01*
X135828085Y-70905371D01*
X135653990Y-70459395D01*
X135322480Y-70113990D01*
X134884024Y-69921740D01*
X134834628Y-69911918D01*
X134643000Y-69974981D01*
X134597000Y-69974981D01*
X134405372Y-69911918D01*
X134355976Y-69921740D01*
X133917520Y-70113990D01*
X133586010Y-70459395D01*
X133411915Y-70905371D01*
X127402000Y-70905371D01*
X127402000Y-68555962D01*
X133393000Y-68555962D01*
X133393000Y-68604038D01*
X133486400Y-69073591D01*
X133752380Y-69471658D01*
X134150447Y-69737638D01*
X134620000Y-69831038D01*
X135089553Y-69737638D01*
X135487620Y-69471658D01*
X135753600Y-69073591D01*
X135847000Y-68604038D01*
X135847000Y-68555962D01*
X135933000Y-68555962D01*
X135933000Y-68604038D01*
X136026400Y-69073591D01*
X136292380Y-69471658D01*
X136690447Y-69737638D01*
X137160000Y-69831038D01*
X137629553Y-69737638D01*
X138027620Y-69471658D01*
X138293600Y-69073591D01*
X138387000Y-68604038D01*
X138387000Y-68555962D01*
X138293600Y-68086409D01*
X138027620Y-67688342D01*
X137629553Y-67422362D01*
X137160000Y-67328962D01*
X136690447Y-67422362D01*
X136292380Y-67688342D01*
X136026400Y-68086409D01*
X135933000Y-68555962D01*
X135847000Y-68555962D01*
X135753600Y-68086409D01*
X135487620Y-67688342D01*
X135089553Y-67422362D01*
X134620000Y-67328962D01*
X134150447Y-67422362D01*
X133752380Y-67688342D01*
X133486400Y-68086409D01*
X133393000Y-68555962D01*
X127402000Y-68555962D01*
X127402000Y-65658878D01*
X140672424Y-65658878D01*
X141177862Y-66882132D01*
X142112945Y-67818849D01*
X143335315Y-68326421D01*
X144658878Y-68327576D01*
X145882132Y-67822138D01*
X146818849Y-66887055D01*
X147326421Y-65664685D01*
X147327576Y-64341122D01*
X146822138Y-63117868D01*
X146348583Y-62643485D01*
X149372830Y-62643485D01*
X149521256Y-63002703D01*
X149795851Y-63277778D01*
X150154810Y-63426830D01*
X150543485Y-63427170D01*
X150902703Y-63278744D01*
X151177778Y-63004149D01*
X151326830Y-62645190D01*
X151327170Y-62256515D01*
X151178744Y-61897297D01*
X150904149Y-61622222D01*
X150877000Y-61610949D01*
X150877000Y-58524750D01*
X151173000Y-58524750D01*
X151173000Y-59385045D01*
X151222783Y-59505231D01*
X151314770Y-59597217D01*
X151434956Y-59647000D01*
X152295250Y-59647000D01*
X152377000Y-59565250D01*
X152377000Y-58443000D01*
X152423000Y-58443000D01*
X152423000Y-59565250D01*
X152504750Y-59647000D01*
X153365044Y-59647000D01*
X153485230Y-59597217D01*
X153577217Y-59505231D01*
X153627000Y-59385045D01*
X153627000Y-58524750D01*
X153545250Y-58443000D01*
X152423000Y-58443000D01*
X152377000Y-58443000D01*
X151254750Y-58443000D01*
X151173000Y-58524750D01*
X150877000Y-58524750D01*
X150877000Y-58420000D01*
X153688962Y-58420000D01*
X153782362Y-58889553D01*
X154048342Y-59287620D01*
X154446409Y-59553600D01*
X154915962Y-59647000D01*
X154964038Y-59647000D01*
X155345777Y-59571067D01*
X157047355Y-61272646D01*
X157218326Y-61386885D01*
X157420000Y-61427000D01*
X157760636Y-61427000D01*
X157771256Y-61452703D01*
X158045851Y-61727778D01*
X158404810Y-61876830D01*
X158793485Y-61877170D01*
X159152703Y-61728744D01*
X159427778Y-61454149D01*
X159576830Y-61095190D01*
X159577170Y-60706515D01*
X159428744Y-60347297D01*
X159154149Y-60072222D01*
X158795190Y-59923170D01*
X158406515Y-59922830D01*
X158047297Y-60071256D01*
X157772222Y-60345851D01*
X157760949Y-60373000D01*
X157638291Y-60373000D01*
X156107129Y-58841839D01*
X156191038Y-58420000D01*
X156228962Y-58420000D01*
X156322362Y-58889553D01*
X156588342Y-59287620D01*
X156986409Y-59553600D01*
X157455962Y-59647000D01*
X157504038Y-59647000D01*
X157973591Y-59553600D01*
X158371658Y-59287620D01*
X158637638Y-58889553D01*
X158731038Y-58420000D01*
X158637638Y-57950447D01*
X158371658Y-57552380D01*
X157973591Y-57286400D01*
X157504038Y-57193000D01*
X157455962Y-57193000D01*
X156986409Y-57286400D01*
X156588342Y-57552380D01*
X156322362Y-57950447D01*
X156228962Y-58420000D01*
X156191038Y-58420000D01*
X156097638Y-57950447D01*
X155831658Y-57552380D01*
X155433591Y-57286400D01*
X154964038Y-57193000D01*
X154915962Y-57193000D01*
X154446409Y-57286400D01*
X154048342Y-57552380D01*
X153782362Y-57950447D01*
X153688962Y-58420000D01*
X150877000Y-58420000D01*
X150877000Y-57454955D01*
X151173000Y-57454955D01*
X151173000Y-58315250D01*
X151254750Y-58397000D01*
X152377000Y-58397000D01*
X152377000Y-57274750D01*
X152423000Y-57274750D01*
X152423000Y-58397000D01*
X153545250Y-58397000D01*
X153627000Y-58315250D01*
X153627000Y-57454955D01*
X153577217Y-57334769D01*
X153485230Y-57242783D01*
X153365044Y-57193000D01*
X152504750Y-57193000D01*
X152423000Y-57274750D01*
X152377000Y-57274750D01*
X152295250Y-57193000D01*
X151434956Y-57193000D01*
X151314770Y-57242783D01*
X151222783Y-57334769D01*
X151173000Y-57454955D01*
X150877000Y-57454955D01*
X150877000Y-56224288D01*
X151198286Y-55903002D01*
X151254980Y-55903002D01*
X151191918Y-56094628D01*
X151201740Y-56144024D01*
X151393990Y-56582480D01*
X151739395Y-56913990D01*
X152185371Y-57088085D01*
X152377000Y-57025037D01*
X152377000Y-55903000D01*
X152423000Y-55903000D01*
X152423000Y-57025037D01*
X152614629Y-57088085D01*
X153060605Y-56913990D01*
X153406010Y-56582480D01*
X153598260Y-56144024D01*
X153608082Y-56094628D01*
X153545019Y-55903000D01*
X152423000Y-55903000D01*
X152377000Y-55903000D01*
X152357000Y-55903000D01*
X152357000Y-55857000D01*
X152377000Y-55857000D01*
X152377000Y-55837000D01*
X152423000Y-55837000D01*
X152423000Y-55857000D01*
X153545019Y-55857000D01*
X153608082Y-55665372D01*
X153598260Y-55615976D01*
X153406010Y-55177520D01*
X153332533Y-55106999D01*
X153421709Y-55106999D01*
X153772871Y-55458161D01*
X153688962Y-55880000D01*
X153782362Y-56349553D01*
X154048342Y-56747620D01*
X154446409Y-57013600D01*
X154915962Y-57107000D01*
X154964038Y-57107000D01*
X155433591Y-57013600D01*
X155831658Y-56747620D01*
X156097638Y-56349553D01*
X156191038Y-55880000D01*
X156228962Y-55880000D01*
X156322362Y-56349553D01*
X156588342Y-56747620D01*
X156986409Y-57013600D01*
X157455962Y-57107000D01*
X157504038Y-57107000D01*
X157973591Y-57013600D01*
X158371658Y-56747620D01*
X158637638Y-56349553D01*
X158731038Y-55880000D01*
X158637638Y-55410447D01*
X158371658Y-55012380D01*
X157973591Y-54746400D01*
X157504038Y-54653000D01*
X157455962Y-54653000D01*
X156986409Y-54746400D01*
X156588342Y-55012380D01*
X156322362Y-55410447D01*
X156228962Y-55880000D01*
X156191038Y-55880000D01*
X156097638Y-55410447D01*
X155831658Y-55012380D01*
X155433591Y-54746400D01*
X154964038Y-54653000D01*
X154915962Y-54653000D01*
X154534223Y-54728933D01*
X154012644Y-54207354D01*
X153841674Y-54093114D01*
X153639999Y-54052999D01*
X151775999Y-54052999D01*
X151574324Y-54093114D01*
X151403354Y-54207354D01*
X149977355Y-55633353D01*
X149863115Y-55804323D01*
X149863115Y-55804324D01*
X149823000Y-56005998D01*
X149823000Y-61610636D01*
X149797297Y-61621256D01*
X149522222Y-61895851D01*
X149373170Y-62254810D01*
X149372830Y-62643485D01*
X146348583Y-62643485D01*
X145887055Y-62181151D01*
X144664685Y-61673579D01*
X143341122Y-61672424D01*
X142117868Y-62177862D01*
X141181151Y-63112945D01*
X140673579Y-64335315D01*
X140672424Y-65658878D01*
X127402000Y-65658878D01*
X127402000Y-61064750D01*
X133277000Y-61064750D01*
X133277000Y-61925044D01*
X133326783Y-62045230D01*
X133418769Y-62137217D01*
X133538955Y-62187000D01*
X134515250Y-62187000D01*
X134597000Y-62105250D01*
X134597000Y-60983000D01*
X134643000Y-60983000D01*
X134643000Y-62105250D01*
X134724750Y-62187000D01*
X135701045Y-62187000D01*
X135821231Y-62137217D01*
X135913217Y-62045230D01*
X135963000Y-61925044D01*
X135963000Y-61064750D01*
X135881250Y-60983000D01*
X134643000Y-60983000D01*
X134597000Y-60983000D01*
X133358750Y-60983000D01*
X133277000Y-61064750D01*
X127402000Y-61064750D01*
X127402000Y-59994956D01*
X133277000Y-59994956D01*
X133277000Y-60855250D01*
X133358750Y-60937000D01*
X134597000Y-60937000D01*
X134597000Y-59814750D01*
X134643000Y-59814750D01*
X134643000Y-60937000D01*
X135881250Y-60937000D01*
X135963000Y-60855250D01*
X135963000Y-59994956D01*
X135913217Y-59874770D01*
X135821231Y-59782783D01*
X135701045Y-59733000D01*
X134724750Y-59733000D01*
X134643000Y-59814750D01*
X134597000Y-59814750D01*
X134515250Y-59733000D01*
X133538955Y-59733000D01*
X133418769Y-59782783D01*
X133326783Y-59874770D01*
X133277000Y-59994956D01*
X127402000Y-59994956D01*
X127402000Y-58420000D01*
X133250689Y-58420000D01*
X133344089Y-58889553D01*
X133610069Y-59287620D01*
X134008136Y-59553600D01*
X134477689Y-59647000D01*
X134762311Y-59647000D01*
X135231864Y-59553600D01*
X135629931Y-59287620D01*
X135895911Y-58889553D01*
X135989311Y-58420000D01*
X135895911Y-57950447D01*
X135629931Y-57552380D01*
X135231864Y-57286400D01*
X134762311Y-57193000D01*
X134477689Y-57193000D01*
X134008136Y-57286400D01*
X133610069Y-57552380D01*
X133344089Y-57950447D01*
X133250689Y-58420000D01*
X127402000Y-58420000D01*
X127402000Y-55880000D01*
X133250689Y-55880000D01*
X133344089Y-56349553D01*
X133610069Y-56747620D01*
X134008136Y-57013600D01*
X134477689Y-57107000D01*
X134762311Y-57107000D01*
X135231864Y-57013600D01*
X135629931Y-56747620D01*
X135895911Y-56349553D01*
X135989311Y-55880000D01*
X135895911Y-55410447D01*
X135629931Y-55012380D01*
X135231864Y-54746400D01*
X134762311Y-54653000D01*
X134477689Y-54653000D01*
X134008136Y-54746400D01*
X133610069Y-55012380D01*
X133344089Y-55410447D01*
X133250689Y-55880000D01*
X127402000Y-55880000D01*
X127402000Y-52402000D01*
X167873000Y-52402000D01*
X167873000Y-58600000D01*
M02*
