G04 #@! TF.FileFunction,Legend,Bot*
%FSLAX46Y46*%
G04 Gerber Fmt 4.6, Leading zero omitted, Abs format (unit mm)*
G04 Created by KiCad (PCBNEW 4.0.1-stable) date 18.06.2016 02:57:01*
%MOMM*%
G01*
G04 APERTURE LIST*
%ADD10C,0.100000*%
%ADD11C,0.150000*%
%ADD12R,2.000000X2.000000*%
%ADD13O,2.000000X2.000000*%
%ADD14R,2.232000X2.000000*%
%ADD15O,2.232000X2.000000*%
%ADD16C,2.200000*%
%ADD17C,6.200000*%
%ADD18C,2.699360*%
%ADD19C,1.700000*%
G04 APERTURE END LIST*
D10*
D11*
X133635570Y-95250000D02*
X133635570Y-115570000D01*
X138715570Y-113030000D02*
X138715570Y-95250000D01*
X133635570Y-95250000D02*
X138715570Y-95250000D01*
X133635570Y-115570000D02*
X136175570Y-115570000D01*
X138995570Y-114300000D02*
X138995570Y-115850000D01*
X136175570Y-115570000D02*
X136175570Y-113030000D01*
X136175570Y-113030000D02*
X138715570Y-113030000D01*
X138995570Y-115850000D02*
X137445570Y-115850000D01*
%LPC*%
D12*
X137160000Y-88900000D03*
D13*
X134620000Y-88900000D03*
X137160000Y-86360000D03*
X134620000Y-86360000D03*
X137160000Y-83820000D03*
X134620000Y-83820000D03*
D14*
X148294888Y-88900000D03*
D15*
X148294888Y-86360000D03*
X148294888Y-83820000D03*
D14*
X144780000Y-88900000D03*
D15*
X144780000Y-86360000D03*
X144780000Y-83820000D03*
D14*
X144916000Y-101600000D03*
D15*
X144916000Y-104140000D03*
X144916000Y-106680000D03*
D12*
X162560000Y-139700000D03*
D13*
X162560000Y-137160000D03*
X165100000Y-139700000D03*
X165100000Y-137160000D03*
X167640000Y-139700000D03*
X167640000Y-137160000D03*
X170180000Y-139700000D03*
X170180000Y-137160000D03*
X172720000Y-139700000D03*
X172720000Y-137160000D03*
X175260000Y-139700000D03*
X175260000Y-137160000D03*
D12*
X137160000Y-114300000D03*
D13*
X134620000Y-114300000D03*
X137160000Y-111760000D03*
X134620000Y-111760000D03*
X137160000Y-109220000D03*
X134620000Y-109220000D03*
X137160000Y-106680000D03*
X134620000Y-106680000D03*
X137160000Y-104140000D03*
X134620000Y-104140000D03*
X137160000Y-101600000D03*
X134620000Y-101600000D03*
X137160000Y-99060000D03*
X134620000Y-99060000D03*
X137160000Y-96520000D03*
X134620000Y-96520000D03*
D12*
X147320000Y-139700000D03*
D13*
X147320000Y-137160000D03*
X149860000Y-139700000D03*
X149860000Y-137160000D03*
X152400000Y-139700000D03*
X152400000Y-137160000D03*
X154940000Y-139700000D03*
X154940000Y-137160000D03*
D16*
X182000000Y-143500000D03*
X190000000Y-143500000D03*
D14*
X193040000Y-88900000D03*
D15*
X193040000Y-86360000D03*
X193040000Y-83820000D03*
X193040000Y-81280000D03*
D14*
X193040000Y-104140000D03*
D15*
X193040000Y-101600000D03*
X193040000Y-99060000D03*
X193040000Y-96520000D03*
D12*
X137160000Y-76200000D03*
D13*
X134620000Y-76200000D03*
X137160000Y-73660000D03*
X134620000Y-73660000D03*
X137160000Y-71120000D03*
X134620000Y-71120000D03*
X137160000Y-68580000D03*
X134620000Y-68580000D03*
D14*
X134620000Y-121920000D03*
D15*
X134620000Y-124460000D03*
X134620000Y-127000000D03*
X134620000Y-129540000D03*
D12*
X139700000Y-137160000D03*
D13*
X139700000Y-139700000D03*
X137160000Y-137160000D03*
X137160000Y-139700000D03*
X134620000Y-137160000D03*
X134620000Y-139700000D03*
D12*
X152400000Y-58420000D03*
D13*
X152400000Y-55880000D03*
X154940000Y-58420000D03*
X154940000Y-55880000D03*
X157480000Y-58420000D03*
X157480000Y-55880000D03*
D17*
X144000000Y-131000000D03*
X144000000Y-65000000D03*
X191000000Y-73000000D03*
X191000000Y-123000000D03*
D18*
X141000640Y-127039360D03*
X138501280Y-122000000D03*
X143500000Y-122000000D03*
D14*
X134620000Y-60960000D03*
D15*
X134620000Y-58420000D03*
X134620000Y-55880000D03*
D19*
X132300000Y-95700000D03*
X132929804Y-91400000D03*
X132319979Y-102090687D03*
X176100000Y-107300000D03*
X170054529Y-99858376D03*
X129987639Y-87461557D03*
X164900000Y-83800000D03*
X186700000Y-85700000D03*
X162100000Y-96200000D03*
X175900000Y-116700000D03*
X193700000Y-131100000D03*
X193000000Y-142100000D03*
X180500000Y-141000000D03*
X182200000Y-130500000D03*
X179400000Y-130400000D03*
X163200000Y-122700000D03*
X179300000Y-86900000D03*
X147100000Y-77800000D03*
X142800000Y-82700000D03*
X129300000Y-72400000D03*
X158600000Y-60900000D03*
X165819166Y-123101141D03*
X167000006Y-120800000D03*
X143058266Y-109888085D03*
X142000000Y-91900000D03*
X143438741Y-95859953D03*
X130646967Y-79826660D03*
X141635524Y-96388009D03*
X150400000Y-61900000D03*
X139459973Y-67981846D03*
X140006071Y-95903309D03*
X158743905Y-112000000D03*
X159243866Y-99150996D03*
X158897315Y-110275020D03*
X158153283Y-97846899D03*
X162700000Y-112500000D03*
X178250020Y-119180100D03*
X159100000Y-115200000D03*
X173680228Y-118505376D03*
X164200015Y-115399972D03*
X179522245Y-105238793D03*
X166200000Y-116550000D03*
X178700000Y-100700000D03*
X168400000Y-116900000D03*
X168390888Y-123750020D03*
X161513187Y-116486813D03*
X176500000Y-100900000D03*
X170200000Y-121400000D03*
X175375940Y-118384548D03*
X172000000Y-120800000D03*
X175749980Y-120042901D03*
X178566131Y-106796653D03*
X170634500Y-115010914D03*
X170743854Y-113314427D03*
X178525031Y-102900000D03*
X168588257Y-113315928D03*
X178050020Y-120872178D03*
X163796677Y-107398708D03*
X154742120Y-108369698D03*
X162198868Y-106751172D03*
X153993844Y-106513256D03*
X173579620Y-101570892D03*
X169764188Y-105366753D03*
X173285531Y-103254696D03*
X167018900Y-105844026D03*
X175400000Y-102900000D03*
X167524980Y-107466962D03*
X180400000Y-112100000D03*
X166306519Y-112559669D03*
X183500000Y-111300000D03*
X164411946Y-112248795D03*
X156799996Y-96600000D03*
X158624996Y-106231545D03*
M02*
