G04 #@! TF.FileFunction,Soldermask,Top*
%FSLAX46Y46*%
G04 Gerber Fmt 4.6, Leading zero omitted, Abs format (unit mm)*
G04 Created by KiCad (PCBNEW 4.0.1-stable) date 18.06.2016 02:57:02*
%MOMM*%
G01*
G04 APERTURE LIST*
%ADD10C,0.100000*%
%ADD11R,1.100000X0.700000*%
%ADD12R,0.700000X1.100000*%
%ADD13R,1.000000X0.950000*%
%ADD14R,0.950000X1.000000*%
%ADD15R,1.600000X1.400000*%
%ADD16R,1.000100X1.000100*%
%ADD17R,3.857600X2.232000*%
%ADD18R,1.216000X2.232000*%
%ADD19R,2.000000X2.000000*%
%ADD20O,2.000000X2.000000*%
%ADD21R,2.232000X2.000000*%
%ADD22O,2.232000X2.000000*%
%ADD23R,1.800000X1.600000*%
%ADD24R,0.900000X1.800000*%
%ADD25R,1.400000X2.400000*%
%ADD26C,2.200000*%
%ADD27R,3.200000X4.200000*%
%ADD28R,1.300000X2.600000*%
%ADD29R,2.600000X1.300000*%
%ADD30R,1.100000X1.900000*%
%ADD31R,1.700000X0.750000*%
%ADD32R,0.750000X1.700000*%
%ADD33R,0.650000X0.790000*%
%ADD34R,3.199740X1.800200*%
%ADD35R,1.800200X3.799180*%
%ADD36R,3.799180X1.800200*%
%ADD37C,6.200000*%
%ADD38C,2.699360*%
%ADD39C,1.700000*%
G04 APERTURE END LIST*
D10*
D11*
X166200000Y-68750000D03*
X166200000Y-67250000D03*
X187250000Y-74250000D03*
X187250000Y-75750000D03*
X185000000Y-81200000D03*
X185000000Y-82700000D03*
D12*
X158350000Y-63000000D03*
X159850000Y-63000000D03*
X161350000Y-63000000D03*
X162850000Y-63000000D03*
X130229776Y-91844556D03*
X131729776Y-91844556D03*
X131729776Y-90144556D03*
X130229776Y-90144556D03*
X129129776Y-78144556D03*
X130629776Y-78144556D03*
X130629776Y-76444556D03*
X129129776Y-76444556D03*
X189150000Y-118800000D03*
X190650000Y-118800000D03*
X137364888Y-64972278D03*
X138864888Y-64972278D03*
X138864888Y-63272278D03*
X137364888Y-63272278D03*
D11*
X190600000Y-100510000D03*
X190600000Y-99010000D03*
X190300000Y-85510000D03*
X190300000Y-84010000D03*
D12*
X168304519Y-127442121D03*
X166804519Y-127442121D03*
X164304519Y-127442121D03*
X162804519Y-127442121D03*
X160304519Y-127442121D03*
X158804519Y-127442121D03*
X156304519Y-127442121D03*
X154804519Y-127442121D03*
X152304519Y-127442121D03*
X150804519Y-127442121D03*
X172304519Y-127442121D03*
X170804519Y-127442121D03*
X176304519Y-127442121D03*
X174804519Y-127442121D03*
X166054519Y-133442121D03*
X167554519Y-133442121D03*
X162054519Y-133442121D03*
X163554519Y-133442121D03*
X158054519Y-133442121D03*
X159554519Y-133442121D03*
X154054519Y-133442121D03*
X155554519Y-133442121D03*
X150054519Y-133442121D03*
X151554519Y-133442121D03*
X170054519Y-133442121D03*
X171554519Y-133442121D03*
X174054519Y-133442121D03*
X175554519Y-133442121D03*
D11*
X152150824Y-108274652D03*
X152150824Y-109774652D03*
X152073102Y-111174652D03*
X152073102Y-112674652D03*
X148450824Y-112674652D03*
X148450824Y-111174652D03*
X139800000Y-84050000D03*
X139800000Y-85550000D03*
X151000000Y-83650000D03*
X151000000Y-82150000D03*
X151000000Y-84850000D03*
X151000000Y-86350000D03*
D13*
X176250000Y-80000000D03*
X174750000Y-80000000D03*
D14*
X154343887Y-117016741D03*
X154343887Y-115516741D03*
D13*
X131729776Y-88444556D03*
X130229776Y-88444556D03*
X167093887Y-101166741D03*
X168593887Y-101166741D03*
D14*
X174700000Y-105750000D03*
X174700000Y-107250000D03*
X174400000Y-115550000D03*
X174400000Y-117050000D03*
X171043887Y-96316741D03*
X171043887Y-97816741D03*
D13*
X130629776Y-74744556D03*
X129129776Y-74744556D03*
X165593887Y-121266741D03*
X164093887Y-121266741D03*
X167193887Y-99466741D03*
X168693887Y-99466741D03*
X161093887Y-101166741D03*
X162593887Y-101166741D03*
X138864888Y-61572278D03*
X137364888Y-61572278D03*
D14*
X190500000Y-104110000D03*
X190500000Y-102610000D03*
X190400000Y-88910000D03*
X190400000Y-87410000D03*
X142000000Y-84150000D03*
X142000000Y-85650000D03*
X150350824Y-112724652D03*
X150350824Y-111224652D03*
D13*
X140550000Y-79100000D03*
X139050000Y-79100000D03*
D15*
X166843887Y-97466741D03*
X169043887Y-97466741D03*
X166843887Y-95866741D03*
X169043887Y-95866741D03*
D16*
X150350824Y-109624652D03*
X150350824Y-107724652D03*
X148351844Y-108674652D03*
D17*
X179000000Y-96052000D03*
D18*
X179000000Y-89448000D03*
X176714000Y-89448000D03*
X181286000Y-89448000D03*
D17*
X158000000Y-86302000D03*
D18*
X158000000Y-79698000D03*
X155714000Y-79698000D03*
X160286000Y-79698000D03*
D17*
X158000000Y-72000000D03*
D18*
X158000000Y-65396000D03*
X155714000Y-65396000D03*
X160286000Y-65396000D03*
D16*
X176504519Y-129441361D03*
X174604519Y-129441361D03*
X175554519Y-131440341D03*
X172504519Y-129441361D03*
X170604519Y-129441361D03*
X171554519Y-131440341D03*
X152504519Y-129441361D03*
X150604519Y-129441361D03*
X151554519Y-131440341D03*
X156554519Y-129442121D03*
X154654519Y-129442121D03*
X155604519Y-131441101D03*
X160504519Y-129441361D03*
X158604519Y-129441361D03*
X159554519Y-131440341D03*
X164504519Y-129441361D03*
X162604519Y-129441361D03*
X163554519Y-131440341D03*
X168504519Y-129441361D03*
X166604519Y-129441361D03*
X167554519Y-131440341D03*
X188499240Y-80310000D03*
X188499240Y-82210000D03*
X190498220Y-81260000D03*
X188399240Y-94110000D03*
X188399240Y-96010000D03*
X190398220Y-95060000D03*
D19*
X137160000Y-88900000D03*
D20*
X134620000Y-88900000D03*
X137160000Y-86360000D03*
X134620000Y-86360000D03*
X137160000Y-83820000D03*
X134620000Y-83820000D03*
D21*
X148294888Y-88900000D03*
D22*
X148294888Y-86360000D03*
X148294888Y-83820000D03*
D21*
X144780000Y-88900000D03*
D22*
X144780000Y-86360000D03*
X144780000Y-83820000D03*
D21*
X144916000Y-101600000D03*
D22*
X144916000Y-104140000D03*
X144916000Y-106680000D03*
D19*
X162560000Y-139700000D03*
D20*
X162560000Y-137160000D03*
X165100000Y-139700000D03*
X165100000Y-137160000D03*
X167640000Y-139700000D03*
X167640000Y-137160000D03*
X170180000Y-139700000D03*
X170180000Y-137160000D03*
X172720000Y-139700000D03*
X172720000Y-137160000D03*
X175260000Y-139700000D03*
X175260000Y-137160000D03*
D19*
X137160000Y-114300000D03*
D20*
X134620000Y-114300000D03*
X137160000Y-111760000D03*
X134620000Y-111760000D03*
X137160000Y-109220000D03*
X134620000Y-109220000D03*
X137160000Y-106680000D03*
X134620000Y-106680000D03*
X137160000Y-104140000D03*
X134620000Y-104140000D03*
X137160000Y-101600000D03*
X134620000Y-101600000D03*
X137160000Y-99060000D03*
X134620000Y-99060000D03*
X137160000Y-96520000D03*
X134620000Y-96520000D03*
D19*
X147320000Y-139700000D03*
D20*
X147320000Y-137160000D03*
X149860000Y-139700000D03*
X149860000Y-137160000D03*
X152400000Y-139700000D03*
X152400000Y-137160000D03*
X154940000Y-139700000D03*
X154940000Y-137160000D03*
D23*
X179000000Y-133500000D03*
D24*
X189300000Y-133000000D03*
X187100000Y-133000000D03*
X186000000Y-133000000D03*
X184900000Y-133000000D03*
X183800000Y-133000000D03*
X182700000Y-133000000D03*
X181600000Y-133000000D03*
D23*
X193800000Y-133500000D03*
D24*
X188200000Y-133000000D03*
X180500000Y-133000000D03*
D25*
X194700000Y-143100000D03*
X179200000Y-143100000D03*
D26*
X182000000Y-143500000D03*
X190000000Y-143500000D03*
D21*
X193040000Y-88900000D03*
D22*
X193040000Y-86360000D03*
X193040000Y-83820000D03*
X193040000Y-81280000D03*
D21*
X193040000Y-104140000D03*
D22*
X193040000Y-101600000D03*
X193040000Y-99060000D03*
X193040000Y-96520000D03*
D19*
X137160000Y-76200000D03*
D20*
X134620000Y-76200000D03*
X137160000Y-73660000D03*
X134620000Y-73660000D03*
X137160000Y-71120000D03*
X134620000Y-71120000D03*
X137160000Y-68580000D03*
X134620000Y-68580000D03*
D27*
X182000000Y-121000000D03*
X186000000Y-121000000D03*
D21*
X134620000Y-121920000D03*
D22*
X134620000Y-124460000D03*
X134620000Y-127000000D03*
X134620000Y-129540000D03*
D19*
X139700000Y-137160000D03*
D20*
X139700000Y-139700000D03*
X137160000Y-137160000D03*
X137160000Y-139700000D03*
X134620000Y-137160000D03*
X134620000Y-139700000D03*
D28*
X171990000Y-77512278D03*
X173990000Y-77512278D03*
X175990000Y-77512278D03*
X177990000Y-77512278D03*
X179990000Y-77512278D03*
X181990000Y-77512278D03*
D29*
X169000000Y-61762278D03*
X169000000Y-63762278D03*
X169000000Y-65762278D03*
X169000000Y-67762278D03*
X169000000Y-69762278D03*
X169000000Y-71762278D03*
X169000000Y-73762278D03*
X169000000Y-75762278D03*
X185000000Y-75762278D03*
X185000000Y-73762278D03*
X185000000Y-71762278D03*
X185000000Y-69762278D03*
X185000000Y-67762278D03*
X185000000Y-65762278D03*
X185000000Y-63762278D03*
X185000000Y-61762278D03*
D19*
X152400000Y-58420000D03*
D20*
X152400000Y-55880000D03*
X154940000Y-58420000D03*
X154940000Y-55880000D03*
X157480000Y-58420000D03*
X157480000Y-55880000D03*
D30*
X163993887Y-98666741D03*
X161093887Y-98666741D03*
D31*
X157043887Y-105366741D03*
X157043887Y-106166741D03*
X157043887Y-106966741D03*
X157043887Y-107766741D03*
X157043887Y-108566741D03*
X157043887Y-109366741D03*
X157043887Y-110166741D03*
X157043887Y-110966741D03*
X157043887Y-111766741D03*
X157043887Y-112566741D03*
X157043887Y-113366741D03*
X157043887Y-114166741D03*
X157043887Y-114966741D03*
X157043887Y-115766741D03*
X157043887Y-116566741D03*
X157043887Y-117366741D03*
D32*
X158743887Y-119066741D03*
X159543887Y-119066741D03*
X160343887Y-119066741D03*
X161143887Y-119066741D03*
X161943887Y-119066741D03*
X162743887Y-119066741D03*
X163543887Y-119066741D03*
X164343887Y-119066741D03*
X165143887Y-119066741D03*
X165943887Y-119066741D03*
X166743887Y-119066741D03*
X167543887Y-119066741D03*
X168343887Y-119066741D03*
X169143887Y-119066741D03*
X169943887Y-119066741D03*
X170743887Y-119066741D03*
D31*
X172443887Y-117366741D03*
X172443887Y-116566741D03*
X172443887Y-115766741D03*
X172443887Y-114966741D03*
X172443887Y-114166741D03*
X172443887Y-113366741D03*
X172443887Y-112566741D03*
X172443887Y-111766741D03*
X172443887Y-110966741D03*
X172443887Y-110166741D03*
X172443887Y-109366741D03*
X172443887Y-108566741D03*
X172443887Y-107766741D03*
X172443887Y-106966741D03*
X172443887Y-106166741D03*
X172443887Y-105366741D03*
D32*
X170743887Y-103666741D03*
X169943887Y-103666741D03*
X169143887Y-103666741D03*
X168343887Y-103666741D03*
X167543887Y-103666741D03*
X166743887Y-103666741D03*
X165943887Y-103666741D03*
X165143887Y-103666741D03*
X164343887Y-103666741D03*
X163543887Y-103666741D03*
X162743887Y-103666741D03*
X161943887Y-103666741D03*
X161143887Y-103666741D03*
X160343887Y-103666741D03*
X159543887Y-103666741D03*
X158743887Y-103666741D03*
D16*
X141950000Y-80600000D03*
X140050000Y-80600000D03*
X141000000Y-82598980D03*
X141944888Y-87071518D03*
X140044888Y-87071518D03*
X140994888Y-89070498D03*
D33*
X171750000Y-83305000D03*
X171750000Y-81195000D03*
D34*
X174800360Y-84000000D03*
X179199640Y-84000000D03*
X170799640Y-88400000D03*
X166400360Y-88400000D03*
D35*
X145000000Y-72249180D03*
X145000000Y-77750820D03*
D36*
X147750820Y-58000000D03*
X142249180Y-58000000D03*
D13*
X184050000Y-130700000D03*
X185550000Y-130700000D03*
D37*
X144000000Y-131000000D03*
X144000000Y-65000000D03*
X191000000Y-73000000D03*
X191000000Y-123000000D03*
D38*
X141000640Y-127039360D03*
X138501280Y-122000000D03*
X143500000Y-122000000D03*
D21*
X134620000Y-60960000D03*
D22*
X134620000Y-58420000D03*
X134620000Y-55880000D03*
D39*
X132300000Y-95700000D03*
X132929804Y-91400000D03*
X132319979Y-102090687D03*
X176100000Y-107300000D03*
X170054529Y-99858376D03*
X129987639Y-87461557D03*
X164900000Y-83800000D03*
X186700000Y-85700000D03*
X162100000Y-96200000D03*
X175900000Y-116700000D03*
X193700000Y-131100000D03*
X193000000Y-142100000D03*
X180500000Y-141000000D03*
X182200000Y-130500000D03*
X179400000Y-130400000D03*
X163200000Y-122700000D03*
X179300000Y-86900000D03*
X147100000Y-77800000D03*
X142800000Y-82700000D03*
X129300000Y-72400000D03*
X158600000Y-60900000D03*
X165819166Y-123101141D03*
X167000006Y-120800000D03*
X143058266Y-109888085D03*
X142000000Y-91900000D03*
X143438741Y-95859953D03*
X130646967Y-79826660D03*
X141635524Y-96388009D03*
X150400000Y-61900000D03*
X139459973Y-67981846D03*
X140006071Y-95903309D03*
X158743905Y-112000000D03*
X159243866Y-99150996D03*
X158897315Y-110275020D03*
X158153283Y-97846899D03*
X162700000Y-112500000D03*
X178250020Y-119180100D03*
X159100000Y-115200000D03*
X173680228Y-118505376D03*
X164200015Y-115399972D03*
X179522245Y-105238793D03*
X166200000Y-116550000D03*
X178700000Y-100700000D03*
X168400000Y-116900000D03*
X168390888Y-123750020D03*
X161513187Y-116486813D03*
X176500000Y-100900000D03*
X170200000Y-121400000D03*
X175375940Y-118384548D03*
X172000000Y-120800000D03*
X175749980Y-120042901D03*
X178566131Y-106796653D03*
X170634500Y-115010914D03*
X170743854Y-113314427D03*
X178525031Y-102900000D03*
X168588257Y-113315928D03*
X178050020Y-120872178D03*
X163796677Y-107398708D03*
X154742120Y-108369698D03*
X162198868Y-106751172D03*
X153993844Y-106513256D03*
X173579620Y-101570892D03*
X169764188Y-105366753D03*
X173285531Y-103254696D03*
X167018900Y-105844026D03*
X175400000Y-102900000D03*
X167524980Y-107466962D03*
X180400000Y-112100000D03*
X166306519Y-112559669D03*
X183500000Y-111300000D03*
X164411946Y-112248795D03*
X156799996Y-96600000D03*
X158624996Y-106231545D03*
M02*
