G04 #@! TF.FileFunction,Soldermask,Bot*
%FSLAX46Y46*%
G04 Gerber Fmt 4.6, Leading zero omitted, Abs format (unit mm)*
G04 Created by KiCad (PCBNEW 4.0.1-stable) date 09.11.2016 23:19:49*
%MOMM*%
G01*
G04 APERTURE LIST*
%ADD10C,0.100000*%
G04 APERTURE END LIST*
D10*
G36*
X119876271Y-163770078D02*
X119876276Y-163770079D01*
X119879365Y-163770100D01*
X120079133Y-163792508D01*
X120270744Y-163853291D01*
X120446900Y-163950133D01*
X120600891Y-164079347D01*
X120726851Y-164236010D01*
X120819983Y-164414155D01*
X120876740Y-164606997D01*
X120876745Y-164607057D01*
X120876749Y-164607069D01*
X120894961Y-164807184D01*
X120873956Y-165007039D01*
X120873954Y-165007047D01*
X120873947Y-165007110D01*
X120814503Y-165199141D01*
X120718893Y-165375969D01*
X120590757Y-165530858D01*
X120434977Y-165657909D01*
X120257486Y-165752282D01*
X120065045Y-165810384D01*
X119864984Y-165830000D01*
X119854895Y-165830000D01*
X119843729Y-165829922D01*
X119843724Y-165829921D01*
X119840635Y-165829900D01*
X119640867Y-165807492D01*
X119449256Y-165746709D01*
X119273100Y-165649867D01*
X119119109Y-165520653D01*
X118993149Y-165363990D01*
X118900017Y-165185845D01*
X118843260Y-164993003D01*
X118843255Y-164992943D01*
X118843251Y-164992931D01*
X118825039Y-164792816D01*
X118846044Y-164592961D01*
X118846046Y-164592953D01*
X118846053Y-164592890D01*
X118905497Y-164400859D01*
X119001107Y-164224031D01*
X119129243Y-164069142D01*
X119285023Y-163942091D01*
X119462514Y-163847718D01*
X119654955Y-163789616D01*
X119855016Y-163770000D01*
X119865105Y-163770000D01*
X119876271Y-163770078D01*
X119876271Y-163770078D01*
G37*
G36*
X156236271Y-163770078D02*
X156236276Y-163770079D01*
X156239365Y-163770100D01*
X156439133Y-163792508D01*
X156630744Y-163853291D01*
X156806900Y-163950133D01*
X156960891Y-164079347D01*
X157086851Y-164236010D01*
X157179983Y-164414155D01*
X157236740Y-164606997D01*
X157236745Y-164607057D01*
X157236749Y-164607069D01*
X157254961Y-164807184D01*
X157233956Y-165007039D01*
X157233954Y-165007047D01*
X157233947Y-165007110D01*
X157174503Y-165199141D01*
X157078893Y-165375969D01*
X156950757Y-165530858D01*
X156794977Y-165657909D01*
X156617486Y-165752282D01*
X156425045Y-165810384D01*
X156224984Y-165830000D01*
X156214895Y-165830000D01*
X156203729Y-165829922D01*
X156203724Y-165829921D01*
X156200635Y-165829900D01*
X156000867Y-165807492D01*
X155809256Y-165746709D01*
X155633100Y-165649867D01*
X155479109Y-165520653D01*
X155353149Y-165363990D01*
X155260017Y-165185845D01*
X155203260Y-164993003D01*
X155203255Y-164992943D01*
X155203251Y-164992931D01*
X155185039Y-164792816D01*
X155206044Y-164592961D01*
X155206046Y-164592953D01*
X155206053Y-164592890D01*
X155265497Y-164400859D01*
X155361107Y-164224031D01*
X155489243Y-164069142D01*
X155645023Y-163942091D01*
X155822514Y-163847718D01*
X156014955Y-163789616D01*
X156215016Y-163770000D01*
X156225105Y-163770000D01*
X156236271Y-163770078D01*
X156236271Y-163770078D01*
G37*
G36*
X139470000Y-165830000D02*
X137410000Y-165830000D01*
X137410000Y-163770000D01*
X139470000Y-163770000D01*
X139470000Y-165830000D01*
X139470000Y-165830000D01*
G37*
G36*
X148616271Y-163770078D02*
X148616276Y-163770079D01*
X148619365Y-163770100D01*
X148819133Y-163792508D01*
X149010744Y-163853291D01*
X149186900Y-163950133D01*
X149340891Y-164079347D01*
X149466851Y-164236010D01*
X149559983Y-164414155D01*
X149616740Y-164606997D01*
X149616745Y-164607057D01*
X149616749Y-164607069D01*
X149634961Y-164807184D01*
X149613956Y-165007039D01*
X149613954Y-165007047D01*
X149613947Y-165007110D01*
X149554503Y-165199141D01*
X149458893Y-165375969D01*
X149330757Y-165530858D01*
X149174977Y-165657909D01*
X148997486Y-165752282D01*
X148805045Y-165810384D01*
X148604984Y-165830000D01*
X148594895Y-165830000D01*
X148583729Y-165829922D01*
X148583724Y-165829921D01*
X148580635Y-165829900D01*
X148380867Y-165807492D01*
X148189256Y-165746709D01*
X148013100Y-165649867D01*
X147859109Y-165520653D01*
X147733149Y-165363990D01*
X147640017Y-165185845D01*
X147583260Y-164993003D01*
X147583255Y-164992943D01*
X147583251Y-164992931D01*
X147565039Y-164792816D01*
X147586044Y-164592961D01*
X147586046Y-164592953D01*
X147586053Y-164592890D01*
X147645497Y-164400859D01*
X147741107Y-164224031D01*
X147869243Y-164069142D01*
X148025023Y-163942091D01*
X148202514Y-163847718D01*
X148394955Y-163789616D01*
X148595016Y-163770000D01*
X148605105Y-163770000D01*
X148616271Y-163770078D01*
X148616271Y-163770078D01*
G37*
G36*
X151156271Y-163770078D02*
X151156276Y-163770079D01*
X151159365Y-163770100D01*
X151359133Y-163792508D01*
X151550744Y-163853291D01*
X151726900Y-163950133D01*
X151880891Y-164079347D01*
X152006851Y-164236010D01*
X152099983Y-164414155D01*
X152156740Y-164606997D01*
X152156745Y-164607057D01*
X152156749Y-164607069D01*
X152174961Y-164807184D01*
X152153956Y-165007039D01*
X152153954Y-165007047D01*
X152153947Y-165007110D01*
X152094503Y-165199141D01*
X151998893Y-165375969D01*
X151870757Y-165530858D01*
X151714977Y-165657909D01*
X151537486Y-165752282D01*
X151345045Y-165810384D01*
X151144984Y-165830000D01*
X151134895Y-165830000D01*
X151123729Y-165829922D01*
X151123724Y-165829921D01*
X151120635Y-165829900D01*
X150920867Y-165807492D01*
X150729256Y-165746709D01*
X150553100Y-165649867D01*
X150399109Y-165520653D01*
X150273149Y-165363990D01*
X150180017Y-165185845D01*
X150123260Y-164993003D01*
X150123255Y-164992943D01*
X150123251Y-164992931D01*
X150105039Y-164792816D01*
X150126044Y-164592961D01*
X150126046Y-164592953D01*
X150126053Y-164592890D01*
X150185497Y-164400859D01*
X150281107Y-164224031D01*
X150409243Y-164069142D01*
X150565023Y-163942091D01*
X150742514Y-163847718D01*
X150934955Y-163789616D01*
X151135016Y-163770000D01*
X151145105Y-163770000D01*
X151156271Y-163770078D01*
X151156271Y-163770078D01*
G37*
G36*
X153696271Y-163770078D02*
X153696276Y-163770079D01*
X153699365Y-163770100D01*
X153899133Y-163792508D01*
X154090744Y-163853291D01*
X154266900Y-163950133D01*
X154420891Y-164079347D01*
X154546851Y-164236010D01*
X154639983Y-164414155D01*
X154696740Y-164606997D01*
X154696745Y-164607057D01*
X154696749Y-164607069D01*
X154714961Y-164807184D01*
X154693956Y-165007039D01*
X154693954Y-165007047D01*
X154693947Y-165007110D01*
X154634503Y-165199141D01*
X154538893Y-165375969D01*
X154410757Y-165530858D01*
X154254977Y-165657909D01*
X154077486Y-165752282D01*
X153885045Y-165810384D01*
X153684984Y-165830000D01*
X153674895Y-165830000D01*
X153663729Y-165829922D01*
X153663724Y-165829921D01*
X153660635Y-165829900D01*
X153460867Y-165807492D01*
X153269256Y-165746709D01*
X153093100Y-165649867D01*
X152939109Y-165520653D01*
X152813149Y-165363990D01*
X152720017Y-165185845D01*
X152663260Y-164993003D01*
X152663255Y-164992943D01*
X152663251Y-164992931D01*
X152645039Y-164792816D01*
X152666044Y-164592961D01*
X152666046Y-164592953D01*
X152666053Y-164592890D01*
X152725497Y-164400859D01*
X152821107Y-164224031D01*
X152949243Y-164069142D01*
X153105023Y-163942091D01*
X153282514Y-163847718D01*
X153474955Y-163789616D01*
X153675016Y-163770000D01*
X153685105Y-163770000D01*
X153696271Y-163770078D01*
X153696271Y-163770078D01*
G37*
G36*
X158776271Y-163770078D02*
X158776276Y-163770079D01*
X158779365Y-163770100D01*
X158979133Y-163792508D01*
X159170744Y-163853291D01*
X159346900Y-163950133D01*
X159500891Y-164079347D01*
X159626851Y-164236010D01*
X159719983Y-164414155D01*
X159776740Y-164606997D01*
X159776745Y-164607057D01*
X159776749Y-164607069D01*
X159794961Y-164807184D01*
X159773956Y-165007039D01*
X159773954Y-165007047D01*
X159773947Y-165007110D01*
X159714503Y-165199141D01*
X159618893Y-165375969D01*
X159490757Y-165530858D01*
X159334977Y-165657909D01*
X159157486Y-165752282D01*
X158965045Y-165810384D01*
X158764984Y-165830000D01*
X158754895Y-165830000D01*
X158743729Y-165829922D01*
X158743724Y-165829921D01*
X158740635Y-165829900D01*
X158540867Y-165807492D01*
X158349256Y-165746709D01*
X158173100Y-165649867D01*
X158019109Y-165520653D01*
X157893149Y-165363990D01*
X157800017Y-165185845D01*
X157743260Y-164993003D01*
X157743255Y-164992943D01*
X157743251Y-164992931D01*
X157725039Y-164792816D01*
X157746044Y-164592961D01*
X157746046Y-164592953D01*
X157746053Y-164592890D01*
X157805497Y-164400859D01*
X157901107Y-164224031D01*
X158029243Y-164069142D01*
X158185023Y-163942091D01*
X158362514Y-163847718D01*
X158554955Y-163789616D01*
X158755016Y-163770000D01*
X158765105Y-163770000D01*
X158776271Y-163770078D01*
X158776271Y-163770078D01*
G37*
G36*
X100570000Y-165830000D02*
X98510000Y-165830000D01*
X98510000Y-163770000D01*
X100570000Y-163770000D01*
X100570000Y-165830000D01*
X100570000Y-165830000D01*
G37*
G36*
X109716271Y-163770078D02*
X109716276Y-163770079D01*
X109719365Y-163770100D01*
X109919133Y-163792508D01*
X110110744Y-163853291D01*
X110286900Y-163950133D01*
X110440891Y-164079347D01*
X110566851Y-164236010D01*
X110659983Y-164414155D01*
X110716740Y-164606997D01*
X110716745Y-164607057D01*
X110716749Y-164607069D01*
X110734961Y-164807184D01*
X110713956Y-165007039D01*
X110713954Y-165007047D01*
X110713947Y-165007110D01*
X110654503Y-165199141D01*
X110558893Y-165375969D01*
X110430757Y-165530858D01*
X110274977Y-165657909D01*
X110097486Y-165752282D01*
X109905045Y-165810384D01*
X109704984Y-165830000D01*
X109694895Y-165830000D01*
X109683729Y-165829922D01*
X109683724Y-165829921D01*
X109680635Y-165829900D01*
X109480867Y-165807492D01*
X109289256Y-165746709D01*
X109113100Y-165649867D01*
X108959109Y-165520653D01*
X108833149Y-165363990D01*
X108740017Y-165185845D01*
X108683260Y-164993003D01*
X108683255Y-164992943D01*
X108683251Y-164992931D01*
X108665039Y-164792816D01*
X108686044Y-164592961D01*
X108686046Y-164592953D01*
X108686053Y-164592890D01*
X108745497Y-164400859D01*
X108841107Y-164224031D01*
X108969243Y-164069142D01*
X109125023Y-163942091D01*
X109302514Y-163847718D01*
X109494955Y-163789616D01*
X109695016Y-163770000D01*
X109705105Y-163770000D01*
X109716271Y-163770078D01*
X109716271Y-163770078D01*
G37*
G36*
X112256271Y-163770078D02*
X112256276Y-163770079D01*
X112259365Y-163770100D01*
X112459133Y-163792508D01*
X112650744Y-163853291D01*
X112826900Y-163950133D01*
X112980891Y-164079347D01*
X113106851Y-164236010D01*
X113199983Y-164414155D01*
X113256740Y-164606997D01*
X113256745Y-164607057D01*
X113256749Y-164607069D01*
X113274961Y-164807184D01*
X113253956Y-165007039D01*
X113253954Y-165007047D01*
X113253947Y-165007110D01*
X113194503Y-165199141D01*
X113098893Y-165375969D01*
X112970757Y-165530858D01*
X112814977Y-165657909D01*
X112637486Y-165752282D01*
X112445045Y-165810384D01*
X112244984Y-165830000D01*
X112234895Y-165830000D01*
X112223729Y-165829922D01*
X112223724Y-165829921D01*
X112220635Y-165829900D01*
X112020867Y-165807492D01*
X111829256Y-165746709D01*
X111653100Y-165649867D01*
X111499109Y-165520653D01*
X111373149Y-165363990D01*
X111280017Y-165185845D01*
X111223260Y-164993003D01*
X111223255Y-164992943D01*
X111223251Y-164992931D01*
X111205039Y-164792816D01*
X111226044Y-164592961D01*
X111226046Y-164592953D01*
X111226053Y-164592890D01*
X111285497Y-164400859D01*
X111381107Y-164224031D01*
X111509243Y-164069142D01*
X111665023Y-163942091D01*
X111842514Y-163847718D01*
X112034955Y-163789616D01*
X112235016Y-163770000D01*
X112245105Y-163770000D01*
X112256271Y-163770078D01*
X112256271Y-163770078D01*
G37*
G36*
X114796271Y-163770078D02*
X114796276Y-163770079D01*
X114799365Y-163770100D01*
X114999133Y-163792508D01*
X115190744Y-163853291D01*
X115366900Y-163950133D01*
X115520891Y-164079347D01*
X115646851Y-164236010D01*
X115739983Y-164414155D01*
X115796740Y-164606997D01*
X115796745Y-164607057D01*
X115796749Y-164607069D01*
X115814961Y-164807184D01*
X115793956Y-165007039D01*
X115793954Y-165007047D01*
X115793947Y-165007110D01*
X115734503Y-165199141D01*
X115638893Y-165375969D01*
X115510757Y-165530858D01*
X115354977Y-165657909D01*
X115177486Y-165752282D01*
X114985045Y-165810384D01*
X114784984Y-165830000D01*
X114774895Y-165830000D01*
X114763729Y-165829922D01*
X114763724Y-165829921D01*
X114760635Y-165829900D01*
X114560867Y-165807492D01*
X114369256Y-165746709D01*
X114193100Y-165649867D01*
X114039109Y-165520653D01*
X113913149Y-165363990D01*
X113820017Y-165185845D01*
X113763260Y-164993003D01*
X113763255Y-164992943D01*
X113763251Y-164992931D01*
X113745039Y-164792816D01*
X113766044Y-164592961D01*
X113766046Y-164592953D01*
X113766053Y-164592890D01*
X113825497Y-164400859D01*
X113921107Y-164224031D01*
X114049243Y-164069142D01*
X114205023Y-163942091D01*
X114382514Y-163847718D01*
X114574955Y-163789616D01*
X114775016Y-163770000D01*
X114785105Y-163770000D01*
X114796271Y-163770078D01*
X114796271Y-163770078D01*
G37*
G36*
X117336271Y-163770078D02*
X117336276Y-163770079D01*
X117339365Y-163770100D01*
X117539133Y-163792508D01*
X117730744Y-163853291D01*
X117906900Y-163950133D01*
X118060891Y-164079347D01*
X118186851Y-164236010D01*
X118279983Y-164414155D01*
X118336740Y-164606997D01*
X118336745Y-164607057D01*
X118336749Y-164607069D01*
X118354961Y-164807184D01*
X118333956Y-165007039D01*
X118333954Y-165007047D01*
X118333947Y-165007110D01*
X118274503Y-165199141D01*
X118178893Y-165375969D01*
X118050757Y-165530858D01*
X117894977Y-165657909D01*
X117717486Y-165752282D01*
X117525045Y-165810384D01*
X117324984Y-165830000D01*
X117314895Y-165830000D01*
X117303729Y-165829922D01*
X117303724Y-165829921D01*
X117300635Y-165829900D01*
X117100867Y-165807492D01*
X116909256Y-165746709D01*
X116733100Y-165649867D01*
X116579109Y-165520653D01*
X116453149Y-165363990D01*
X116360017Y-165185845D01*
X116303260Y-164993003D01*
X116303255Y-164992943D01*
X116303251Y-164992931D01*
X116285039Y-164792816D01*
X116306044Y-164592961D01*
X116306046Y-164592953D01*
X116306053Y-164592890D01*
X116365497Y-164400859D01*
X116461107Y-164224031D01*
X116589243Y-164069142D01*
X116745023Y-163942091D01*
X116922514Y-163847718D01*
X117114955Y-163789616D01*
X117315016Y-163770000D01*
X117325105Y-163770000D01*
X117336271Y-163770078D01*
X117336271Y-163770078D01*
G37*
G36*
X151156271Y-140770078D02*
X151156276Y-140770079D01*
X151159365Y-140770100D01*
X151359133Y-140792508D01*
X151550744Y-140853291D01*
X151726900Y-140950133D01*
X151880891Y-141079347D01*
X152006851Y-141236010D01*
X152099983Y-141414155D01*
X152156740Y-141606997D01*
X152156745Y-141607057D01*
X152156749Y-141607069D01*
X152174961Y-141807184D01*
X152153956Y-142007039D01*
X152153954Y-142007047D01*
X152153947Y-142007110D01*
X152094503Y-142199141D01*
X151998893Y-142375969D01*
X151870757Y-142530858D01*
X151714977Y-142657909D01*
X151537486Y-142752282D01*
X151345045Y-142810384D01*
X151144984Y-142830000D01*
X151134895Y-142830000D01*
X151123729Y-142829922D01*
X151123724Y-142829921D01*
X151120635Y-142829900D01*
X150920867Y-142807492D01*
X150729256Y-142746709D01*
X150553100Y-142649867D01*
X150399109Y-142520653D01*
X150273149Y-142363990D01*
X150180017Y-142185845D01*
X150123260Y-141993003D01*
X150123255Y-141992943D01*
X150123251Y-141992931D01*
X150105039Y-141792816D01*
X150126044Y-141592961D01*
X150126046Y-141592953D01*
X150126053Y-141592890D01*
X150185497Y-141400859D01*
X150281107Y-141224031D01*
X150409243Y-141069142D01*
X150565023Y-140942091D01*
X150742514Y-140847718D01*
X150934955Y-140789616D01*
X151135016Y-140770000D01*
X151145105Y-140770000D01*
X151156271Y-140770078D01*
X151156271Y-140770078D01*
G37*
G36*
X119876271Y-140770078D02*
X119876276Y-140770079D01*
X119879365Y-140770100D01*
X120079133Y-140792508D01*
X120270744Y-140853291D01*
X120446900Y-140950133D01*
X120600891Y-141079347D01*
X120726851Y-141236010D01*
X120819983Y-141414155D01*
X120876740Y-141606997D01*
X120876745Y-141607057D01*
X120876749Y-141607069D01*
X120894961Y-141807184D01*
X120873956Y-142007039D01*
X120873954Y-142007047D01*
X120873947Y-142007110D01*
X120814503Y-142199141D01*
X120718893Y-142375969D01*
X120590757Y-142530858D01*
X120434977Y-142657909D01*
X120257486Y-142752282D01*
X120065045Y-142810384D01*
X119864984Y-142830000D01*
X119854895Y-142830000D01*
X119843729Y-142829922D01*
X119843724Y-142829921D01*
X119840635Y-142829900D01*
X119640867Y-142807492D01*
X119449256Y-142746709D01*
X119273100Y-142649867D01*
X119119109Y-142520653D01*
X118993149Y-142363990D01*
X118900017Y-142185845D01*
X118843260Y-141993003D01*
X118843255Y-141992943D01*
X118843251Y-141992931D01*
X118825039Y-141792816D01*
X118846044Y-141592961D01*
X118846046Y-141592953D01*
X118846053Y-141592890D01*
X118905497Y-141400859D01*
X119001107Y-141224031D01*
X119129243Y-141069142D01*
X119285023Y-140942091D01*
X119462514Y-140847718D01*
X119654955Y-140789616D01*
X119855016Y-140770000D01*
X119865105Y-140770000D01*
X119876271Y-140770078D01*
X119876271Y-140770078D01*
G37*
G36*
X117336271Y-140770078D02*
X117336276Y-140770079D01*
X117339365Y-140770100D01*
X117539133Y-140792508D01*
X117730744Y-140853291D01*
X117906900Y-140950133D01*
X118060891Y-141079347D01*
X118186851Y-141236010D01*
X118279983Y-141414155D01*
X118336740Y-141606997D01*
X118336745Y-141607057D01*
X118336749Y-141607069D01*
X118354961Y-141807184D01*
X118333956Y-142007039D01*
X118333954Y-142007047D01*
X118333947Y-142007110D01*
X118274503Y-142199141D01*
X118178893Y-142375969D01*
X118050757Y-142530858D01*
X117894977Y-142657909D01*
X117717486Y-142752282D01*
X117525045Y-142810384D01*
X117324984Y-142830000D01*
X117314895Y-142830000D01*
X117303729Y-142829922D01*
X117303724Y-142829921D01*
X117300635Y-142829900D01*
X117100867Y-142807492D01*
X116909256Y-142746709D01*
X116733100Y-142649867D01*
X116579109Y-142520653D01*
X116453149Y-142363990D01*
X116360017Y-142185845D01*
X116303260Y-141993003D01*
X116303255Y-141992943D01*
X116303251Y-141992931D01*
X116285039Y-141792816D01*
X116306044Y-141592961D01*
X116306046Y-141592953D01*
X116306053Y-141592890D01*
X116365497Y-141400859D01*
X116461107Y-141224031D01*
X116589243Y-141069142D01*
X116745023Y-140942091D01*
X116922514Y-140847718D01*
X117114955Y-140789616D01*
X117315016Y-140770000D01*
X117325105Y-140770000D01*
X117336271Y-140770078D01*
X117336271Y-140770078D01*
G37*
G36*
X114796271Y-140770078D02*
X114796276Y-140770079D01*
X114799365Y-140770100D01*
X114999133Y-140792508D01*
X115190744Y-140853291D01*
X115366900Y-140950133D01*
X115520891Y-141079347D01*
X115646851Y-141236010D01*
X115739983Y-141414155D01*
X115796740Y-141606997D01*
X115796745Y-141607057D01*
X115796749Y-141607069D01*
X115814961Y-141807184D01*
X115793956Y-142007039D01*
X115793954Y-142007047D01*
X115793947Y-142007110D01*
X115734503Y-142199141D01*
X115638893Y-142375969D01*
X115510757Y-142530858D01*
X115354977Y-142657909D01*
X115177486Y-142752282D01*
X114985045Y-142810384D01*
X114784984Y-142830000D01*
X114774895Y-142830000D01*
X114763729Y-142829922D01*
X114763724Y-142829921D01*
X114760635Y-142829900D01*
X114560867Y-142807492D01*
X114369256Y-142746709D01*
X114193100Y-142649867D01*
X114039109Y-142520653D01*
X113913149Y-142363990D01*
X113820017Y-142185845D01*
X113763260Y-141993003D01*
X113763255Y-141992943D01*
X113763251Y-141992931D01*
X113745039Y-141792816D01*
X113766044Y-141592961D01*
X113766046Y-141592953D01*
X113766053Y-141592890D01*
X113825497Y-141400859D01*
X113921107Y-141224031D01*
X114049243Y-141069142D01*
X114205023Y-140942091D01*
X114382514Y-140847718D01*
X114574955Y-140789616D01*
X114775016Y-140770000D01*
X114785105Y-140770000D01*
X114796271Y-140770078D01*
X114796271Y-140770078D01*
G37*
G36*
X112256271Y-140770078D02*
X112256276Y-140770079D01*
X112259365Y-140770100D01*
X112459133Y-140792508D01*
X112650744Y-140853291D01*
X112826900Y-140950133D01*
X112980891Y-141079347D01*
X113106851Y-141236010D01*
X113199983Y-141414155D01*
X113256740Y-141606997D01*
X113256745Y-141607057D01*
X113256749Y-141607069D01*
X113274961Y-141807184D01*
X113253956Y-142007039D01*
X113253954Y-142007047D01*
X113253947Y-142007110D01*
X113194503Y-142199141D01*
X113098893Y-142375969D01*
X112970757Y-142530858D01*
X112814977Y-142657909D01*
X112637486Y-142752282D01*
X112445045Y-142810384D01*
X112244984Y-142830000D01*
X112234895Y-142830000D01*
X112223729Y-142829922D01*
X112223724Y-142829921D01*
X112220635Y-142829900D01*
X112020867Y-142807492D01*
X111829256Y-142746709D01*
X111653100Y-142649867D01*
X111499109Y-142520653D01*
X111373149Y-142363990D01*
X111280017Y-142185845D01*
X111223260Y-141993003D01*
X111223255Y-141992943D01*
X111223251Y-141992931D01*
X111205039Y-141792816D01*
X111226044Y-141592961D01*
X111226046Y-141592953D01*
X111226053Y-141592890D01*
X111285497Y-141400859D01*
X111381107Y-141224031D01*
X111509243Y-141069142D01*
X111665023Y-140942091D01*
X111842514Y-140847718D01*
X112034955Y-140789616D01*
X112235016Y-140770000D01*
X112245105Y-140770000D01*
X112256271Y-140770078D01*
X112256271Y-140770078D01*
G37*
G36*
X109716271Y-140770078D02*
X109716276Y-140770079D01*
X109719365Y-140770100D01*
X109919133Y-140792508D01*
X110110744Y-140853291D01*
X110286900Y-140950133D01*
X110440891Y-141079347D01*
X110566851Y-141236010D01*
X110659983Y-141414155D01*
X110716740Y-141606997D01*
X110716745Y-141607057D01*
X110716749Y-141607069D01*
X110734961Y-141807184D01*
X110713956Y-142007039D01*
X110713954Y-142007047D01*
X110713947Y-142007110D01*
X110654503Y-142199141D01*
X110558893Y-142375969D01*
X110430757Y-142530858D01*
X110274977Y-142657909D01*
X110097486Y-142752282D01*
X109905045Y-142810384D01*
X109704984Y-142830000D01*
X109694895Y-142830000D01*
X109683729Y-142829922D01*
X109683724Y-142829921D01*
X109680635Y-142829900D01*
X109480867Y-142807492D01*
X109289256Y-142746709D01*
X109113100Y-142649867D01*
X108959109Y-142520653D01*
X108833149Y-142363990D01*
X108740017Y-142185845D01*
X108683260Y-141993003D01*
X108683255Y-141992943D01*
X108683251Y-141992931D01*
X108665039Y-141792816D01*
X108686044Y-141592961D01*
X108686046Y-141592953D01*
X108686053Y-141592890D01*
X108745497Y-141400859D01*
X108841107Y-141224031D01*
X108969243Y-141069142D01*
X109125023Y-140942091D01*
X109302514Y-140847718D01*
X109494955Y-140789616D01*
X109695016Y-140770000D01*
X109705105Y-140770000D01*
X109716271Y-140770078D01*
X109716271Y-140770078D01*
G37*
G36*
X100570000Y-142830000D02*
X98510000Y-142830000D01*
X98510000Y-140770000D01*
X100570000Y-140770000D01*
X100570000Y-142830000D01*
X100570000Y-142830000D01*
G37*
G36*
X158776271Y-140770078D02*
X158776276Y-140770079D01*
X158779365Y-140770100D01*
X158979133Y-140792508D01*
X159170744Y-140853291D01*
X159346900Y-140950133D01*
X159500891Y-141079347D01*
X159626851Y-141236010D01*
X159719983Y-141414155D01*
X159776740Y-141606997D01*
X159776745Y-141607057D01*
X159776749Y-141607069D01*
X159794961Y-141807184D01*
X159773956Y-142007039D01*
X159773954Y-142007047D01*
X159773947Y-142007110D01*
X159714503Y-142199141D01*
X159618893Y-142375969D01*
X159490757Y-142530858D01*
X159334977Y-142657909D01*
X159157486Y-142752282D01*
X158965045Y-142810384D01*
X158764984Y-142830000D01*
X158754895Y-142830000D01*
X158743729Y-142829922D01*
X158743724Y-142829921D01*
X158740635Y-142829900D01*
X158540867Y-142807492D01*
X158349256Y-142746709D01*
X158173100Y-142649867D01*
X158019109Y-142520653D01*
X157893149Y-142363990D01*
X157800017Y-142185845D01*
X157743260Y-141993003D01*
X157743255Y-141992943D01*
X157743251Y-141992931D01*
X157725039Y-141792816D01*
X157746044Y-141592961D01*
X157746046Y-141592953D01*
X157746053Y-141592890D01*
X157805497Y-141400859D01*
X157901107Y-141224031D01*
X158029243Y-141069142D01*
X158185023Y-140942091D01*
X158362514Y-140847718D01*
X158554955Y-140789616D01*
X158755016Y-140770000D01*
X158765105Y-140770000D01*
X158776271Y-140770078D01*
X158776271Y-140770078D01*
G37*
G36*
X156236271Y-140770078D02*
X156236276Y-140770079D01*
X156239365Y-140770100D01*
X156439133Y-140792508D01*
X156630744Y-140853291D01*
X156806900Y-140950133D01*
X156960891Y-141079347D01*
X157086851Y-141236010D01*
X157179983Y-141414155D01*
X157236740Y-141606997D01*
X157236745Y-141607057D01*
X157236749Y-141607069D01*
X157254961Y-141807184D01*
X157233956Y-142007039D01*
X157233954Y-142007047D01*
X157233947Y-142007110D01*
X157174503Y-142199141D01*
X157078893Y-142375969D01*
X156950757Y-142530858D01*
X156794977Y-142657909D01*
X156617486Y-142752282D01*
X156425045Y-142810384D01*
X156224984Y-142830000D01*
X156214895Y-142830000D01*
X156203729Y-142829922D01*
X156203724Y-142829921D01*
X156200635Y-142829900D01*
X156000867Y-142807492D01*
X155809256Y-142746709D01*
X155633100Y-142649867D01*
X155479109Y-142520653D01*
X155353149Y-142363990D01*
X155260017Y-142185845D01*
X155203260Y-141993003D01*
X155203255Y-141992943D01*
X155203251Y-141992931D01*
X155185039Y-141792816D01*
X155206044Y-141592961D01*
X155206046Y-141592953D01*
X155206053Y-141592890D01*
X155265497Y-141400859D01*
X155361107Y-141224031D01*
X155489243Y-141069142D01*
X155645023Y-140942091D01*
X155822514Y-140847718D01*
X156014955Y-140789616D01*
X156215016Y-140770000D01*
X156225105Y-140770000D01*
X156236271Y-140770078D01*
X156236271Y-140770078D01*
G37*
G36*
X148616271Y-140770078D02*
X148616276Y-140770079D01*
X148619365Y-140770100D01*
X148819133Y-140792508D01*
X149010744Y-140853291D01*
X149186900Y-140950133D01*
X149340891Y-141079347D01*
X149466851Y-141236010D01*
X149559983Y-141414155D01*
X149616740Y-141606997D01*
X149616745Y-141607057D01*
X149616749Y-141607069D01*
X149634961Y-141807184D01*
X149613956Y-142007039D01*
X149613954Y-142007047D01*
X149613947Y-142007110D01*
X149554503Y-142199141D01*
X149458893Y-142375969D01*
X149330757Y-142530858D01*
X149174977Y-142657909D01*
X148997486Y-142752282D01*
X148805045Y-142810384D01*
X148604984Y-142830000D01*
X148594895Y-142830000D01*
X148583729Y-142829922D01*
X148583724Y-142829921D01*
X148580635Y-142829900D01*
X148380867Y-142807492D01*
X148189256Y-142746709D01*
X148013100Y-142649867D01*
X147859109Y-142520653D01*
X147733149Y-142363990D01*
X147640017Y-142185845D01*
X147583260Y-141993003D01*
X147583255Y-141992943D01*
X147583251Y-141992931D01*
X147565039Y-141792816D01*
X147586044Y-141592961D01*
X147586046Y-141592953D01*
X147586053Y-141592890D01*
X147645497Y-141400859D01*
X147741107Y-141224031D01*
X147869243Y-141069142D01*
X148025023Y-140942091D01*
X148202514Y-140847718D01*
X148394955Y-140789616D01*
X148595016Y-140770000D01*
X148605105Y-140770000D01*
X148616271Y-140770078D01*
X148616271Y-140770078D01*
G37*
G36*
X153696271Y-140770078D02*
X153696276Y-140770079D01*
X153699365Y-140770100D01*
X153899133Y-140792508D01*
X154090744Y-140853291D01*
X154266900Y-140950133D01*
X154420891Y-141079347D01*
X154546851Y-141236010D01*
X154639983Y-141414155D01*
X154696740Y-141606997D01*
X154696745Y-141607057D01*
X154696749Y-141607069D01*
X154714961Y-141807184D01*
X154693956Y-142007039D01*
X154693954Y-142007047D01*
X154693947Y-142007110D01*
X154634503Y-142199141D01*
X154538893Y-142375969D01*
X154410757Y-142530858D01*
X154254977Y-142657909D01*
X154077486Y-142752282D01*
X153885045Y-142810384D01*
X153684984Y-142830000D01*
X153674895Y-142830000D01*
X153663729Y-142829922D01*
X153663724Y-142829921D01*
X153660635Y-142829900D01*
X153460867Y-142807492D01*
X153269256Y-142746709D01*
X153093100Y-142649867D01*
X152939109Y-142520653D01*
X152813149Y-142363990D01*
X152720017Y-142185845D01*
X152663260Y-141993003D01*
X152663255Y-141992943D01*
X152663251Y-141992931D01*
X152645039Y-141792816D01*
X152666044Y-141592961D01*
X152666046Y-141592953D01*
X152666053Y-141592890D01*
X152725497Y-141400859D01*
X152821107Y-141224031D01*
X152949243Y-141069142D01*
X153105023Y-140942091D01*
X153282514Y-140847718D01*
X153474955Y-140789616D01*
X153675016Y-140770000D01*
X153685105Y-140770000D01*
X153696271Y-140770078D01*
X153696271Y-140770078D01*
G37*
G36*
X139470000Y-142830000D02*
X137410000Y-142830000D01*
X137410000Y-140770000D01*
X139470000Y-140770000D01*
X139470000Y-142830000D01*
X139470000Y-142830000D01*
G37*
G36*
X139470000Y-119830000D02*
X137410000Y-119830000D01*
X137410000Y-117770000D01*
X139470000Y-117770000D01*
X139470000Y-119830000D01*
X139470000Y-119830000D01*
G37*
G36*
X119876271Y-117770078D02*
X119876276Y-117770079D01*
X119879365Y-117770100D01*
X120079133Y-117792508D01*
X120270744Y-117853291D01*
X120446900Y-117950133D01*
X120600891Y-118079347D01*
X120726851Y-118236010D01*
X120819983Y-118414155D01*
X120876740Y-118606997D01*
X120876745Y-118607057D01*
X120876749Y-118607069D01*
X120894961Y-118807184D01*
X120873956Y-119007039D01*
X120873954Y-119007047D01*
X120873947Y-119007110D01*
X120814503Y-119199141D01*
X120718893Y-119375969D01*
X120590757Y-119530858D01*
X120434977Y-119657909D01*
X120257486Y-119752282D01*
X120065045Y-119810384D01*
X119864984Y-119830000D01*
X119854895Y-119830000D01*
X119843729Y-119829922D01*
X119843724Y-119829921D01*
X119840635Y-119829900D01*
X119640867Y-119807492D01*
X119449256Y-119746709D01*
X119273100Y-119649867D01*
X119119109Y-119520653D01*
X118993149Y-119363990D01*
X118900017Y-119185845D01*
X118843260Y-118993003D01*
X118843255Y-118992943D01*
X118843251Y-118992931D01*
X118825039Y-118792816D01*
X118846044Y-118592961D01*
X118846046Y-118592953D01*
X118846053Y-118592890D01*
X118905497Y-118400859D01*
X119001107Y-118224031D01*
X119129243Y-118069142D01*
X119285023Y-117942091D01*
X119462514Y-117847718D01*
X119654955Y-117789616D01*
X119855016Y-117770000D01*
X119865105Y-117770000D01*
X119876271Y-117770078D01*
X119876271Y-117770078D01*
G37*
G36*
X117336271Y-117770078D02*
X117336276Y-117770079D01*
X117339365Y-117770100D01*
X117539133Y-117792508D01*
X117730744Y-117853291D01*
X117906900Y-117950133D01*
X118060891Y-118079347D01*
X118186851Y-118236010D01*
X118279983Y-118414155D01*
X118336740Y-118606997D01*
X118336745Y-118607057D01*
X118336749Y-118607069D01*
X118354961Y-118807184D01*
X118333956Y-119007039D01*
X118333954Y-119007047D01*
X118333947Y-119007110D01*
X118274503Y-119199141D01*
X118178893Y-119375969D01*
X118050757Y-119530858D01*
X117894977Y-119657909D01*
X117717486Y-119752282D01*
X117525045Y-119810384D01*
X117324984Y-119830000D01*
X117314895Y-119830000D01*
X117303729Y-119829922D01*
X117303724Y-119829921D01*
X117300635Y-119829900D01*
X117100867Y-119807492D01*
X116909256Y-119746709D01*
X116733100Y-119649867D01*
X116579109Y-119520653D01*
X116453149Y-119363990D01*
X116360017Y-119185845D01*
X116303260Y-118993003D01*
X116303255Y-118992943D01*
X116303251Y-118992931D01*
X116285039Y-118792816D01*
X116306044Y-118592961D01*
X116306046Y-118592953D01*
X116306053Y-118592890D01*
X116365497Y-118400859D01*
X116461107Y-118224031D01*
X116589243Y-118069142D01*
X116745023Y-117942091D01*
X116922514Y-117847718D01*
X117114955Y-117789616D01*
X117315016Y-117770000D01*
X117325105Y-117770000D01*
X117336271Y-117770078D01*
X117336271Y-117770078D01*
G37*
G36*
X114796271Y-117770078D02*
X114796276Y-117770079D01*
X114799365Y-117770100D01*
X114999133Y-117792508D01*
X115190744Y-117853291D01*
X115366900Y-117950133D01*
X115520891Y-118079347D01*
X115646851Y-118236010D01*
X115739983Y-118414155D01*
X115796740Y-118606997D01*
X115796745Y-118607057D01*
X115796749Y-118607069D01*
X115814961Y-118807184D01*
X115793956Y-119007039D01*
X115793954Y-119007047D01*
X115793947Y-119007110D01*
X115734503Y-119199141D01*
X115638893Y-119375969D01*
X115510757Y-119530858D01*
X115354977Y-119657909D01*
X115177486Y-119752282D01*
X114985045Y-119810384D01*
X114784984Y-119830000D01*
X114774895Y-119830000D01*
X114763729Y-119829922D01*
X114763724Y-119829921D01*
X114760635Y-119829900D01*
X114560867Y-119807492D01*
X114369256Y-119746709D01*
X114193100Y-119649867D01*
X114039109Y-119520653D01*
X113913149Y-119363990D01*
X113820017Y-119185845D01*
X113763260Y-118993003D01*
X113763255Y-118992943D01*
X113763251Y-118992931D01*
X113745039Y-118792816D01*
X113766044Y-118592961D01*
X113766046Y-118592953D01*
X113766053Y-118592890D01*
X113825497Y-118400859D01*
X113921107Y-118224031D01*
X114049243Y-118069142D01*
X114205023Y-117942091D01*
X114382514Y-117847718D01*
X114574955Y-117789616D01*
X114775016Y-117770000D01*
X114785105Y-117770000D01*
X114796271Y-117770078D01*
X114796271Y-117770078D01*
G37*
G36*
X112256271Y-117770078D02*
X112256276Y-117770079D01*
X112259365Y-117770100D01*
X112459133Y-117792508D01*
X112650744Y-117853291D01*
X112826900Y-117950133D01*
X112980891Y-118079347D01*
X113106851Y-118236010D01*
X113199983Y-118414155D01*
X113256740Y-118606997D01*
X113256745Y-118607057D01*
X113256749Y-118607069D01*
X113274961Y-118807184D01*
X113253956Y-119007039D01*
X113253954Y-119007047D01*
X113253947Y-119007110D01*
X113194503Y-119199141D01*
X113098893Y-119375969D01*
X112970757Y-119530858D01*
X112814977Y-119657909D01*
X112637486Y-119752282D01*
X112445045Y-119810384D01*
X112244984Y-119830000D01*
X112234895Y-119830000D01*
X112223729Y-119829922D01*
X112223724Y-119829921D01*
X112220635Y-119829900D01*
X112020867Y-119807492D01*
X111829256Y-119746709D01*
X111653100Y-119649867D01*
X111499109Y-119520653D01*
X111373149Y-119363990D01*
X111280017Y-119185845D01*
X111223260Y-118993003D01*
X111223255Y-118992943D01*
X111223251Y-118992931D01*
X111205039Y-118792816D01*
X111226044Y-118592961D01*
X111226046Y-118592953D01*
X111226053Y-118592890D01*
X111285497Y-118400859D01*
X111381107Y-118224031D01*
X111509243Y-118069142D01*
X111665023Y-117942091D01*
X111842514Y-117847718D01*
X112034955Y-117789616D01*
X112235016Y-117770000D01*
X112245105Y-117770000D01*
X112256271Y-117770078D01*
X112256271Y-117770078D01*
G37*
G36*
X109716271Y-117770078D02*
X109716276Y-117770079D01*
X109719365Y-117770100D01*
X109919133Y-117792508D01*
X110110744Y-117853291D01*
X110286900Y-117950133D01*
X110440891Y-118079347D01*
X110566851Y-118236010D01*
X110659983Y-118414155D01*
X110716740Y-118606997D01*
X110716745Y-118607057D01*
X110716749Y-118607069D01*
X110734961Y-118807184D01*
X110713956Y-119007039D01*
X110713954Y-119007047D01*
X110713947Y-119007110D01*
X110654503Y-119199141D01*
X110558893Y-119375969D01*
X110430757Y-119530858D01*
X110274977Y-119657909D01*
X110097486Y-119752282D01*
X109905045Y-119810384D01*
X109704984Y-119830000D01*
X109694895Y-119830000D01*
X109683729Y-119829922D01*
X109683724Y-119829921D01*
X109680635Y-119829900D01*
X109480867Y-119807492D01*
X109289256Y-119746709D01*
X109113100Y-119649867D01*
X108959109Y-119520653D01*
X108833149Y-119363990D01*
X108740017Y-119185845D01*
X108683260Y-118993003D01*
X108683255Y-118992943D01*
X108683251Y-118992931D01*
X108665039Y-118792816D01*
X108686044Y-118592961D01*
X108686046Y-118592953D01*
X108686053Y-118592890D01*
X108745497Y-118400859D01*
X108841107Y-118224031D01*
X108969243Y-118069142D01*
X109125023Y-117942091D01*
X109302514Y-117847718D01*
X109494955Y-117789616D01*
X109695016Y-117770000D01*
X109705105Y-117770000D01*
X109716271Y-117770078D01*
X109716271Y-117770078D01*
G37*
G36*
X158776271Y-117770078D02*
X158776276Y-117770079D01*
X158779365Y-117770100D01*
X158979133Y-117792508D01*
X159170744Y-117853291D01*
X159346900Y-117950133D01*
X159500891Y-118079347D01*
X159626851Y-118236010D01*
X159719983Y-118414155D01*
X159776740Y-118606997D01*
X159776745Y-118607057D01*
X159776749Y-118607069D01*
X159794961Y-118807184D01*
X159773956Y-119007039D01*
X159773954Y-119007047D01*
X159773947Y-119007110D01*
X159714503Y-119199141D01*
X159618893Y-119375969D01*
X159490757Y-119530858D01*
X159334977Y-119657909D01*
X159157486Y-119752282D01*
X158965045Y-119810384D01*
X158764984Y-119830000D01*
X158754895Y-119830000D01*
X158743729Y-119829922D01*
X158743724Y-119829921D01*
X158740635Y-119829900D01*
X158540867Y-119807492D01*
X158349256Y-119746709D01*
X158173100Y-119649867D01*
X158019109Y-119520653D01*
X157893149Y-119363990D01*
X157800017Y-119185845D01*
X157743260Y-118993003D01*
X157743255Y-118992943D01*
X157743251Y-118992931D01*
X157725039Y-118792816D01*
X157746044Y-118592961D01*
X157746046Y-118592953D01*
X157746053Y-118592890D01*
X157805497Y-118400859D01*
X157901107Y-118224031D01*
X158029243Y-118069142D01*
X158185023Y-117942091D01*
X158362514Y-117847718D01*
X158554955Y-117789616D01*
X158755016Y-117770000D01*
X158765105Y-117770000D01*
X158776271Y-117770078D01*
X158776271Y-117770078D01*
G37*
G36*
X156236271Y-117770078D02*
X156236276Y-117770079D01*
X156239365Y-117770100D01*
X156439133Y-117792508D01*
X156630744Y-117853291D01*
X156806900Y-117950133D01*
X156960891Y-118079347D01*
X157086851Y-118236010D01*
X157179983Y-118414155D01*
X157236740Y-118606997D01*
X157236745Y-118607057D01*
X157236749Y-118607069D01*
X157254961Y-118807184D01*
X157233956Y-119007039D01*
X157233954Y-119007047D01*
X157233947Y-119007110D01*
X157174503Y-119199141D01*
X157078893Y-119375969D01*
X156950757Y-119530858D01*
X156794977Y-119657909D01*
X156617486Y-119752282D01*
X156425045Y-119810384D01*
X156224984Y-119830000D01*
X156214895Y-119830000D01*
X156203729Y-119829922D01*
X156203724Y-119829921D01*
X156200635Y-119829900D01*
X156000867Y-119807492D01*
X155809256Y-119746709D01*
X155633100Y-119649867D01*
X155479109Y-119520653D01*
X155353149Y-119363990D01*
X155260017Y-119185845D01*
X155203260Y-118993003D01*
X155203255Y-118992943D01*
X155203251Y-118992931D01*
X155185039Y-118792816D01*
X155206044Y-118592961D01*
X155206046Y-118592953D01*
X155206053Y-118592890D01*
X155265497Y-118400859D01*
X155361107Y-118224031D01*
X155489243Y-118069142D01*
X155645023Y-117942091D01*
X155822514Y-117847718D01*
X156014955Y-117789616D01*
X156215016Y-117770000D01*
X156225105Y-117770000D01*
X156236271Y-117770078D01*
X156236271Y-117770078D01*
G37*
G36*
X153696271Y-117770078D02*
X153696276Y-117770079D01*
X153699365Y-117770100D01*
X153899133Y-117792508D01*
X154090744Y-117853291D01*
X154266900Y-117950133D01*
X154420891Y-118079347D01*
X154546851Y-118236010D01*
X154639983Y-118414155D01*
X154696740Y-118606997D01*
X154696745Y-118607057D01*
X154696749Y-118607069D01*
X154714961Y-118807184D01*
X154693956Y-119007039D01*
X154693954Y-119007047D01*
X154693947Y-119007110D01*
X154634503Y-119199141D01*
X154538893Y-119375969D01*
X154410757Y-119530858D01*
X154254977Y-119657909D01*
X154077486Y-119752282D01*
X153885045Y-119810384D01*
X153684984Y-119830000D01*
X153674895Y-119830000D01*
X153663729Y-119829922D01*
X153663724Y-119829921D01*
X153660635Y-119829900D01*
X153460867Y-119807492D01*
X153269256Y-119746709D01*
X153093100Y-119649867D01*
X152939109Y-119520653D01*
X152813149Y-119363990D01*
X152720017Y-119185845D01*
X152663260Y-118993003D01*
X152663255Y-118992943D01*
X152663251Y-118992931D01*
X152645039Y-118792816D01*
X152666044Y-118592961D01*
X152666046Y-118592953D01*
X152666053Y-118592890D01*
X152725497Y-118400859D01*
X152821107Y-118224031D01*
X152949243Y-118069142D01*
X153105023Y-117942091D01*
X153282514Y-117847718D01*
X153474955Y-117789616D01*
X153675016Y-117770000D01*
X153685105Y-117770000D01*
X153696271Y-117770078D01*
X153696271Y-117770078D01*
G37*
G36*
X151156271Y-117770078D02*
X151156276Y-117770079D01*
X151159365Y-117770100D01*
X151359133Y-117792508D01*
X151550744Y-117853291D01*
X151726900Y-117950133D01*
X151880891Y-118079347D01*
X152006851Y-118236010D01*
X152099983Y-118414155D01*
X152156740Y-118606997D01*
X152156745Y-118607057D01*
X152156749Y-118607069D01*
X152174961Y-118807184D01*
X152153956Y-119007039D01*
X152153954Y-119007047D01*
X152153947Y-119007110D01*
X152094503Y-119199141D01*
X151998893Y-119375969D01*
X151870757Y-119530858D01*
X151714977Y-119657909D01*
X151537486Y-119752282D01*
X151345045Y-119810384D01*
X151144984Y-119830000D01*
X151134895Y-119830000D01*
X151123729Y-119829922D01*
X151123724Y-119829921D01*
X151120635Y-119829900D01*
X150920867Y-119807492D01*
X150729256Y-119746709D01*
X150553100Y-119649867D01*
X150399109Y-119520653D01*
X150273149Y-119363990D01*
X150180017Y-119185845D01*
X150123260Y-118993003D01*
X150123255Y-118992943D01*
X150123251Y-118992931D01*
X150105039Y-118792816D01*
X150126044Y-118592961D01*
X150126046Y-118592953D01*
X150126053Y-118592890D01*
X150185497Y-118400859D01*
X150281107Y-118224031D01*
X150409243Y-118069142D01*
X150565023Y-117942091D01*
X150742514Y-117847718D01*
X150934955Y-117789616D01*
X151135016Y-117770000D01*
X151145105Y-117770000D01*
X151156271Y-117770078D01*
X151156271Y-117770078D01*
G37*
G36*
X148616271Y-117770078D02*
X148616276Y-117770079D01*
X148619365Y-117770100D01*
X148819133Y-117792508D01*
X149010744Y-117853291D01*
X149186900Y-117950133D01*
X149340891Y-118079347D01*
X149466851Y-118236010D01*
X149559983Y-118414155D01*
X149616740Y-118606997D01*
X149616745Y-118607057D01*
X149616749Y-118607069D01*
X149634961Y-118807184D01*
X149613956Y-119007039D01*
X149613954Y-119007047D01*
X149613947Y-119007110D01*
X149554503Y-119199141D01*
X149458893Y-119375969D01*
X149330757Y-119530858D01*
X149174977Y-119657909D01*
X148997486Y-119752282D01*
X148805045Y-119810384D01*
X148604984Y-119830000D01*
X148594895Y-119830000D01*
X148583729Y-119829922D01*
X148583724Y-119829921D01*
X148580635Y-119829900D01*
X148380867Y-119807492D01*
X148189256Y-119746709D01*
X148013100Y-119649867D01*
X147859109Y-119520653D01*
X147733149Y-119363990D01*
X147640017Y-119185845D01*
X147583260Y-118993003D01*
X147583255Y-118992943D01*
X147583251Y-118992931D01*
X147565039Y-118792816D01*
X147586044Y-118592961D01*
X147586046Y-118592953D01*
X147586053Y-118592890D01*
X147645497Y-118400859D01*
X147741107Y-118224031D01*
X147869243Y-118069142D01*
X148025023Y-117942091D01*
X148202514Y-117847718D01*
X148394955Y-117789616D01*
X148595016Y-117770000D01*
X148605105Y-117770000D01*
X148616271Y-117770078D01*
X148616271Y-117770078D01*
G37*
G36*
X100570000Y-119830000D02*
X98510000Y-119830000D01*
X98510000Y-117770000D01*
X100570000Y-117770000D01*
X100570000Y-119830000D01*
X100570000Y-119830000D01*
G37*
G36*
X153696271Y-94770078D02*
X153696276Y-94770079D01*
X153699365Y-94770100D01*
X153899133Y-94792508D01*
X154090744Y-94853291D01*
X154266900Y-94950133D01*
X154420891Y-95079347D01*
X154546851Y-95236010D01*
X154639983Y-95414155D01*
X154696740Y-95606997D01*
X154696745Y-95607057D01*
X154696749Y-95607069D01*
X154714961Y-95807184D01*
X154693956Y-96007039D01*
X154693954Y-96007047D01*
X154693947Y-96007110D01*
X154634503Y-96199141D01*
X154538893Y-96375969D01*
X154410757Y-96530858D01*
X154254977Y-96657909D01*
X154077486Y-96752282D01*
X153885045Y-96810384D01*
X153684984Y-96830000D01*
X153674895Y-96830000D01*
X153663729Y-96829922D01*
X153663724Y-96829921D01*
X153660635Y-96829900D01*
X153460867Y-96807492D01*
X153269256Y-96746709D01*
X153093100Y-96649867D01*
X152939109Y-96520653D01*
X152813149Y-96363990D01*
X152720017Y-96185845D01*
X152663260Y-95993003D01*
X152663255Y-95992943D01*
X152663251Y-95992931D01*
X152645039Y-95792816D01*
X152666044Y-95592961D01*
X152666046Y-95592953D01*
X152666053Y-95592890D01*
X152725497Y-95400859D01*
X152821107Y-95224031D01*
X152949243Y-95069142D01*
X153105023Y-94942091D01*
X153282514Y-94847718D01*
X153474955Y-94789616D01*
X153675016Y-94770000D01*
X153685105Y-94770000D01*
X153696271Y-94770078D01*
X153696271Y-94770078D01*
G37*
G36*
X156236271Y-94770078D02*
X156236276Y-94770079D01*
X156239365Y-94770100D01*
X156439133Y-94792508D01*
X156630744Y-94853291D01*
X156806900Y-94950133D01*
X156960891Y-95079347D01*
X157086851Y-95236010D01*
X157179983Y-95414155D01*
X157236740Y-95606997D01*
X157236745Y-95607057D01*
X157236749Y-95607069D01*
X157254961Y-95807184D01*
X157233956Y-96007039D01*
X157233954Y-96007047D01*
X157233947Y-96007110D01*
X157174503Y-96199141D01*
X157078893Y-96375969D01*
X156950757Y-96530858D01*
X156794977Y-96657909D01*
X156617486Y-96752282D01*
X156425045Y-96810384D01*
X156224984Y-96830000D01*
X156214895Y-96830000D01*
X156203729Y-96829922D01*
X156203724Y-96829921D01*
X156200635Y-96829900D01*
X156000867Y-96807492D01*
X155809256Y-96746709D01*
X155633100Y-96649867D01*
X155479109Y-96520653D01*
X155353149Y-96363990D01*
X155260017Y-96185845D01*
X155203260Y-95993003D01*
X155203255Y-95992943D01*
X155203251Y-95992931D01*
X155185039Y-95792816D01*
X155206044Y-95592961D01*
X155206046Y-95592953D01*
X155206053Y-95592890D01*
X155265497Y-95400859D01*
X155361107Y-95224031D01*
X155489243Y-95069142D01*
X155645023Y-94942091D01*
X155822514Y-94847718D01*
X156014955Y-94789616D01*
X156215016Y-94770000D01*
X156225105Y-94770000D01*
X156236271Y-94770078D01*
X156236271Y-94770078D01*
G37*
G36*
X158776271Y-94770078D02*
X158776276Y-94770079D01*
X158779365Y-94770100D01*
X158979133Y-94792508D01*
X159170744Y-94853291D01*
X159346900Y-94950133D01*
X159500891Y-95079347D01*
X159626851Y-95236010D01*
X159719983Y-95414155D01*
X159776740Y-95606997D01*
X159776745Y-95607057D01*
X159776749Y-95607069D01*
X159794961Y-95807184D01*
X159773956Y-96007039D01*
X159773954Y-96007047D01*
X159773947Y-96007110D01*
X159714503Y-96199141D01*
X159618893Y-96375969D01*
X159490757Y-96530858D01*
X159334977Y-96657909D01*
X159157486Y-96752282D01*
X158965045Y-96810384D01*
X158764984Y-96830000D01*
X158754895Y-96830000D01*
X158743729Y-96829922D01*
X158743724Y-96829921D01*
X158740635Y-96829900D01*
X158540867Y-96807492D01*
X158349256Y-96746709D01*
X158173100Y-96649867D01*
X158019109Y-96520653D01*
X157893149Y-96363990D01*
X157800017Y-96185845D01*
X157743260Y-95993003D01*
X157743255Y-95992943D01*
X157743251Y-95992931D01*
X157725039Y-95792816D01*
X157746044Y-95592961D01*
X157746046Y-95592953D01*
X157746053Y-95592890D01*
X157805497Y-95400859D01*
X157901107Y-95224031D01*
X158029243Y-95069142D01*
X158185023Y-94942091D01*
X158362514Y-94847718D01*
X158554955Y-94789616D01*
X158755016Y-94770000D01*
X158765105Y-94770000D01*
X158776271Y-94770078D01*
X158776271Y-94770078D01*
G37*
G36*
X151156271Y-94770078D02*
X151156276Y-94770079D01*
X151159365Y-94770100D01*
X151359133Y-94792508D01*
X151550744Y-94853291D01*
X151726900Y-94950133D01*
X151880891Y-95079347D01*
X152006851Y-95236010D01*
X152099983Y-95414155D01*
X152156740Y-95606997D01*
X152156745Y-95607057D01*
X152156749Y-95607069D01*
X152174961Y-95807184D01*
X152153956Y-96007039D01*
X152153954Y-96007047D01*
X152153947Y-96007110D01*
X152094503Y-96199141D01*
X151998893Y-96375969D01*
X151870757Y-96530858D01*
X151714977Y-96657909D01*
X151537486Y-96752282D01*
X151345045Y-96810384D01*
X151144984Y-96830000D01*
X151134895Y-96830000D01*
X151123729Y-96829922D01*
X151123724Y-96829921D01*
X151120635Y-96829900D01*
X150920867Y-96807492D01*
X150729256Y-96746709D01*
X150553100Y-96649867D01*
X150399109Y-96520653D01*
X150273149Y-96363990D01*
X150180017Y-96185845D01*
X150123260Y-95993003D01*
X150123255Y-95992943D01*
X150123251Y-95992931D01*
X150105039Y-95792816D01*
X150126044Y-95592961D01*
X150126046Y-95592953D01*
X150126053Y-95592890D01*
X150185497Y-95400859D01*
X150281107Y-95224031D01*
X150409243Y-95069142D01*
X150565023Y-94942091D01*
X150742514Y-94847718D01*
X150934955Y-94789616D01*
X151135016Y-94770000D01*
X151145105Y-94770000D01*
X151156271Y-94770078D01*
X151156271Y-94770078D01*
G37*
G36*
X148616271Y-94770078D02*
X148616276Y-94770079D01*
X148619365Y-94770100D01*
X148819133Y-94792508D01*
X149010744Y-94853291D01*
X149186900Y-94950133D01*
X149340891Y-95079347D01*
X149466851Y-95236010D01*
X149559983Y-95414155D01*
X149616740Y-95606997D01*
X149616745Y-95607057D01*
X149616749Y-95607069D01*
X149634961Y-95807184D01*
X149613956Y-96007039D01*
X149613954Y-96007047D01*
X149613947Y-96007110D01*
X149554503Y-96199141D01*
X149458893Y-96375969D01*
X149330757Y-96530858D01*
X149174977Y-96657909D01*
X148997486Y-96752282D01*
X148805045Y-96810384D01*
X148604984Y-96830000D01*
X148594895Y-96830000D01*
X148583729Y-96829922D01*
X148583724Y-96829921D01*
X148580635Y-96829900D01*
X148380867Y-96807492D01*
X148189256Y-96746709D01*
X148013100Y-96649867D01*
X147859109Y-96520653D01*
X147733149Y-96363990D01*
X147640017Y-96185845D01*
X147583260Y-95993003D01*
X147583255Y-95992943D01*
X147583251Y-95992931D01*
X147565039Y-95792816D01*
X147586044Y-95592961D01*
X147586046Y-95592953D01*
X147586053Y-95592890D01*
X147645497Y-95400859D01*
X147741107Y-95224031D01*
X147869243Y-95069142D01*
X148025023Y-94942091D01*
X148202514Y-94847718D01*
X148394955Y-94789616D01*
X148595016Y-94770000D01*
X148605105Y-94770000D01*
X148616271Y-94770078D01*
X148616271Y-94770078D01*
G37*
G36*
X139470000Y-96830000D02*
X137410000Y-96830000D01*
X137410000Y-94770000D01*
X139470000Y-94770000D01*
X139470000Y-96830000D01*
X139470000Y-96830000D01*
G37*
G36*
X117336271Y-94770078D02*
X117336276Y-94770079D01*
X117339365Y-94770100D01*
X117539133Y-94792508D01*
X117730744Y-94853291D01*
X117906900Y-94950133D01*
X118060891Y-95079347D01*
X118186851Y-95236010D01*
X118279983Y-95414155D01*
X118336740Y-95606997D01*
X118336745Y-95607057D01*
X118336749Y-95607069D01*
X118354961Y-95807184D01*
X118333956Y-96007039D01*
X118333954Y-96007047D01*
X118333947Y-96007110D01*
X118274503Y-96199141D01*
X118178893Y-96375969D01*
X118050757Y-96530858D01*
X117894977Y-96657909D01*
X117717486Y-96752282D01*
X117525045Y-96810384D01*
X117324984Y-96830000D01*
X117314895Y-96830000D01*
X117303729Y-96829922D01*
X117303724Y-96829921D01*
X117300635Y-96829900D01*
X117100867Y-96807492D01*
X116909256Y-96746709D01*
X116733100Y-96649867D01*
X116579109Y-96520653D01*
X116453149Y-96363990D01*
X116360017Y-96185845D01*
X116303260Y-95993003D01*
X116303255Y-95992943D01*
X116303251Y-95992931D01*
X116285039Y-95792816D01*
X116306044Y-95592961D01*
X116306046Y-95592953D01*
X116306053Y-95592890D01*
X116365497Y-95400859D01*
X116461107Y-95224031D01*
X116589243Y-95069142D01*
X116745023Y-94942091D01*
X116922514Y-94847718D01*
X117114955Y-94789616D01*
X117315016Y-94770000D01*
X117325105Y-94770000D01*
X117336271Y-94770078D01*
X117336271Y-94770078D01*
G37*
G36*
X114796271Y-94770078D02*
X114796276Y-94770079D01*
X114799365Y-94770100D01*
X114999133Y-94792508D01*
X115190744Y-94853291D01*
X115366900Y-94950133D01*
X115520891Y-95079347D01*
X115646851Y-95236010D01*
X115739983Y-95414155D01*
X115796740Y-95606997D01*
X115796745Y-95607057D01*
X115796749Y-95607069D01*
X115814961Y-95807184D01*
X115793956Y-96007039D01*
X115793954Y-96007047D01*
X115793947Y-96007110D01*
X115734503Y-96199141D01*
X115638893Y-96375969D01*
X115510757Y-96530858D01*
X115354977Y-96657909D01*
X115177486Y-96752282D01*
X114985045Y-96810384D01*
X114784984Y-96830000D01*
X114774895Y-96830000D01*
X114763729Y-96829922D01*
X114763724Y-96829921D01*
X114760635Y-96829900D01*
X114560867Y-96807492D01*
X114369256Y-96746709D01*
X114193100Y-96649867D01*
X114039109Y-96520653D01*
X113913149Y-96363990D01*
X113820017Y-96185845D01*
X113763260Y-95993003D01*
X113763255Y-95992943D01*
X113763251Y-95992931D01*
X113745039Y-95792816D01*
X113766044Y-95592961D01*
X113766046Y-95592953D01*
X113766053Y-95592890D01*
X113825497Y-95400859D01*
X113921107Y-95224031D01*
X114049243Y-95069142D01*
X114205023Y-94942091D01*
X114382514Y-94847718D01*
X114574955Y-94789616D01*
X114775016Y-94770000D01*
X114785105Y-94770000D01*
X114796271Y-94770078D01*
X114796271Y-94770078D01*
G37*
G36*
X112256271Y-94770078D02*
X112256276Y-94770079D01*
X112259365Y-94770100D01*
X112459133Y-94792508D01*
X112650744Y-94853291D01*
X112826900Y-94950133D01*
X112980891Y-95079347D01*
X113106851Y-95236010D01*
X113199983Y-95414155D01*
X113256740Y-95606997D01*
X113256745Y-95607057D01*
X113256749Y-95607069D01*
X113274961Y-95807184D01*
X113253956Y-96007039D01*
X113253954Y-96007047D01*
X113253947Y-96007110D01*
X113194503Y-96199141D01*
X113098893Y-96375969D01*
X112970757Y-96530858D01*
X112814977Y-96657909D01*
X112637486Y-96752282D01*
X112445045Y-96810384D01*
X112244984Y-96830000D01*
X112234895Y-96830000D01*
X112223729Y-96829922D01*
X112223724Y-96829921D01*
X112220635Y-96829900D01*
X112020867Y-96807492D01*
X111829256Y-96746709D01*
X111653100Y-96649867D01*
X111499109Y-96520653D01*
X111373149Y-96363990D01*
X111280017Y-96185845D01*
X111223260Y-95993003D01*
X111223255Y-95992943D01*
X111223251Y-95992931D01*
X111205039Y-95792816D01*
X111226044Y-95592961D01*
X111226046Y-95592953D01*
X111226053Y-95592890D01*
X111285497Y-95400859D01*
X111381107Y-95224031D01*
X111509243Y-95069142D01*
X111665023Y-94942091D01*
X111842514Y-94847718D01*
X112034955Y-94789616D01*
X112235016Y-94770000D01*
X112245105Y-94770000D01*
X112256271Y-94770078D01*
X112256271Y-94770078D01*
G37*
G36*
X100570000Y-96830000D02*
X98510000Y-96830000D01*
X98510000Y-94770000D01*
X100570000Y-94770000D01*
X100570000Y-96830000D01*
X100570000Y-96830000D01*
G37*
G36*
X119876271Y-94770078D02*
X119876276Y-94770079D01*
X119879365Y-94770100D01*
X120079133Y-94792508D01*
X120270744Y-94853291D01*
X120446900Y-94950133D01*
X120600891Y-95079347D01*
X120726851Y-95236010D01*
X120819983Y-95414155D01*
X120876740Y-95606997D01*
X120876745Y-95607057D01*
X120876749Y-95607069D01*
X120894961Y-95807184D01*
X120873956Y-96007039D01*
X120873954Y-96007047D01*
X120873947Y-96007110D01*
X120814503Y-96199141D01*
X120718893Y-96375969D01*
X120590757Y-96530858D01*
X120434977Y-96657909D01*
X120257486Y-96752282D01*
X120065045Y-96810384D01*
X119864984Y-96830000D01*
X119854895Y-96830000D01*
X119843729Y-96829922D01*
X119843724Y-96829921D01*
X119840635Y-96829900D01*
X119640867Y-96807492D01*
X119449256Y-96746709D01*
X119273100Y-96649867D01*
X119119109Y-96520653D01*
X118993149Y-96363990D01*
X118900017Y-96185845D01*
X118843260Y-95993003D01*
X118843255Y-95992943D01*
X118843251Y-95992931D01*
X118825039Y-95792816D01*
X118846044Y-95592961D01*
X118846046Y-95592953D01*
X118846053Y-95592890D01*
X118905497Y-95400859D01*
X119001107Y-95224031D01*
X119129243Y-95069142D01*
X119285023Y-94942091D01*
X119462514Y-94847718D01*
X119654955Y-94789616D01*
X119855016Y-94770000D01*
X119865105Y-94770000D01*
X119876271Y-94770078D01*
X119876271Y-94770078D01*
G37*
G36*
X109716271Y-94770078D02*
X109716276Y-94770079D01*
X109719365Y-94770100D01*
X109919133Y-94792508D01*
X110110744Y-94853291D01*
X110286900Y-94950133D01*
X110440891Y-95079347D01*
X110566851Y-95236010D01*
X110659983Y-95414155D01*
X110716740Y-95606997D01*
X110716745Y-95607057D01*
X110716749Y-95607069D01*
X110734961Y-95807184D01*
X110713956Y-96007039D01*
X110713954Y-96007047D01*
X110713947Y-96007110D01*
X110654503Y-96199141D01*
X110558893Y-96375969D01*
X110430757Y-96530858D01*
X110274977Y-96657909D01*
X110097486Y-96752282D01*
X109905045Y-96810384D01*
X109704984Y-96830000D01*
X109694895Y-96830000D01*
X109683729Y-96829922D01*
X109683724Y-96829921D01*
X109680635Y-96829900D01*
X109480867Y-96807492D01*
X109289256Y-96746709D01*
X109113100Y-96649867D01*
X108959109Y-96520653D01*
X108833149Y-96363990D01*
X108740017Y-96185845D01*
X108683260Y-95993003D01*
X108683255Y-95992943D01*
X108683251Y-95992931D01*
X108665039Y-95792816D01*
X108686044Y-95592961D01*
X108686046Y-95592953D01*
X108686053Y-95592890D01*
X108745497Y-95400859D01*
X108841107Y-95224031D01*
X108969243Y-95069142D01*
X109125023Y-94942091D01*
X109302514Y-94847718D01*
X109494955Y-94789616D01*
X109695016Y-94770000D01*
X109705105Y-94770000D01*
X109716271Y-94770078D01*
X109716271Y-94770078D01*
G37*
M02*
