G04 #@! TF.FileFunction,Legend,Bot*
%FSLAX46Y46*%
G04 Gerber Fmt 4.6, Leading zero omitted, Abs format (unit mm)*
G04 Created by KiCad (PCBNEW 4.0.1-stable) date 09.11.2016 23:19:49*
%MOMM*%
G01*
G04 APERTURE LIST*
%ADD10C,0.100000*%
%ADD11R,2.060000X2.060000*%
%ADD12O,2.060000X2.060000*%
G04 APERTURE END LIST*
D10*
%LPC*%
D11*
X99540000Y-95800000D03*
D12*
X109700000Y-95800000D03*
X112240000Y-95800000D03*
X114780000Y-95800000D03*
X117320000Y-95800000D03*
X119860000Y-95800000D03*
D11*
X99540000Y-118800000D03*
D12*
X109700000Y-118800000D03*
X112240000Y-118800000D03*
X114780000Y-118800000D03*
X117320000Y-118800000D03*
X119860000Y-118800000D03*
D11*
X138440000Y-95800000D03*
D12*
X148600000Y-95800000D03*
X151140000Y-95800000D03*
X153680000Y-95800000D03*
X156220000Y-95800000D03*
X158760000Y-95800000D03*
D11*
X138440000Y-118800000D03*
D12*
X148600000Y-118800000D03*
X151140000Y-118800000D03*
X153680000Y-118800000D03*
X156220000Y-118800000D03*
X158760000Y-118800000D03*
D11*
X138440000Y-141800000D03*
D12*
X148600000Y-141800000D03*
X151140000Y-141800000D03*
X153680000Y-141800000D03*
X156220000Y-141800000D03*
X158760000Y-141800000D03*
D11*
X99540000Y-141800000D03*
D12*
X109700000Y-141800000D03*
X112240000Y-141800000D03*
X114780000Y-141800000D03*
X117320000Y-141800000D03*
X119860000Y-141800000D03*
D11*
X138440000Y-164800000D03*
D12*
X148600000Y-164800000D03*
X151140000Y-164800000D03*
X153680000Y-164800000D03*
X156220000Y-164800000D03*
X158760000Y-164800000D03*
D11*
X99540000Y-164800000D03*
D12*
X109700000Y-164800000D03*
X112240000Y-164800000D03*
X114780000Y-164800000D03*
X117320000Y-164800000D03*
X119860000Y-164800000D03*
M02*
