G04 #@! TF.FileFunction,Paste,Top*
%FSLAX46Y46*%
G04 Gerber Fmt 4.6, Leading zero omitted, Abs format (unit mm)*
G04 Created by KiCad (PCBNEW 4.0.1-stable) date 09.11.2016 23:19:49*
%MOMM*%
G01*
G04 APERTURE LIST*
%ADD10C,0.100000*%
%ADD11R,0.800000X0.750000*%
%ADD12R,0.900000X1.100000*%
%ADD13R,1.000000X1.600000*%
%ADD14R,1.700000X0.900000*%
%ADD15R,0.500000X0.900000*%
%ADD16R,1.501140X2.700020*%
%ADD17R,1.680000X1.700000*%
%ADD18R,1.100000X0.900000*%
%ADD19R,0.600000X1.500000*%
%ADD20R,0.900000X1.700000*%
%ADD21R,0.750000X0.800000*%
%ADD22R,1.000000X2.300000*%
%ADD23R,1.700000X1.680000*%
%ADD24R,0.600000X1.550000*%
G04 APERTURE END LIST*
D10*
D11*
X130100000Y-90700000D03*
X128600000Y-90700000D03*
X135800000Y-95800000D03*
X134300000Y-95800000D03*
D12*
X131250000Y-95050000D03*
X128950000Y-95050000D03*
D13*
X123600000Y-92500000D03*
X120600000Y-92500000D03*
D11*
X123600000Y-90600000D03*
X122100000Y-90600000D03*
D14*
X135300000Y-88050000D03*
X135300000Y-90950000D03*
D13*
X131550000Y-92750000D03*
X128550000Y-92750000D03*
D11*
X112650000Y-93800000D03*
X114150000Y-93800000D03*
D15*
X120850000Y-100200000D03*
X122350000Y-100200000D03*
D11*
X119650000Y-102200000D03*
X118150000Y-102200000D03*
D16*
X102299700Y-95800000D03*
X107100300Y-95800000D03*
D17*
X118900000Y-86810000D03*
X118900000Y-90390000D03*
D11*
X129450000Y-77200000D03*
X130950000Y-77200000D03*
D15*
X120850000Y-77200000D03*
X122350000Y-77200000D03*
D11*
X127950000Y-77200000D03*
X126450000Y-77200000D03*
X119650000Y-79200000D03*
X118150000Y-79200000D03*
D18*
X118300000Y-84400000D03*
X118300000Y-82100000D03*
D19*
X130445000Y-79350000D03*
X129175000Y-79350000D03*
X127905000Y-79350000D03*
X126635000Y-79350000D03*
X125365000Y-79350000D03*
X124095000Y-79350000D03*
X122825000Y-79350000D03*
X121555000Y-79350000D03*
X121555000Y-88650000D03*
X122825000Y-88650000D03*
X124095000Y-88650000D03*
X125365000Y-88650000D03*
X126635000Y-88650000D03*
X127905000Y-88650000D03*
X129175000Y-88650000D03*
X130445000Y-88650000D03*
D20*
X116050000Y-91000000D03*
X113150000Y-91000000D03*
D21*
X98100000Y-93550000D03*
X98100000Y-92050000D03*
D20*
X116050000Y-88600000D03*
X113150000Y-88600000D03*
D22*
X101690000Y-92800000D03*
X104230000Y-92800000D03*
X109310000Y-92800000D03*
X109310000Y-83400000D03*
X101690000Y-83400000D03*
D20*
X116000000Y-83700000D03*
X113100000Y-83700000D03*
X116000000Y-86200000D03*
X113100000Y-86200000D03*
D12*
X131250000Y-118050000D03*
X128950000Y-118050000D03*
D11*
X130100000Y-113700000D03*
X128600000Y-113700000D03*
X135800000Y-118800000D03*
X134300000Y-118800000D03*
D13*
X131550000Y-115750000D03*
X128550000Y-115750000D03*
D14*
X135300000Y-111050000D03*
X135300000Y-113950000D03*
D20*
X116000000Y-106700000D03*
X113100000Y-106700000D03*
X116000000Y-109200000D03*
X113100000Y-109200000D03*
D18*
X118300000Y-107400000D03*
X118300000Y-105100000D03*
D17*
X118900000Y-109810000D03*
X118900000Y-113390000D03*
D22*
X101690000Y-115800000D03*
X104230000Y-115800000D03*
X109310000Y-115800000D03*
X109310000Y-106400000D03*
X101690000Y-106400000D03*
D16*
X102299700Y-118800000D03*
X107100300Y-118800000D03*
D21*
X98100000Y-116550000D03*
X98100000Y-115050000D03*
D11*
X123600000Y-113600000D03*
X122100000Y-113600000D03*
X112650000Y-116800000D03*
X114150000Y-116800000D03*
D13*
X123600000Y-115500000D03*
X120600000Y-115500000D03*
D20*
X116050000Y-111600000D03*
X113150000Y-111600000D03*
X116050000Y-114000000D03*
X113150000Y-114000000D03*
D22*
X156410000Y-82700000D03*
X153870000Y-82700000D03*
X148790000Y-82700000D03*
X148790000Y-92100000D03*
X156410000Y-92100000D03*
D21*
X140500000Y-83300000D03*
X140500000Y-81800000D03*
D11*
X154550000Y-80200000D03*
X156050000Y-80200000D03*
D21*
X139000000Y-83300000D03*
X139000000Y-81800000D03*
D16*
X141099700Y-95400000D03*
X145900300Y-95400000D03*
D23*
X137510000Y-108700000D03*
X141090000Y-108700000D03*
D14*
X140100000Y-111050000D03*
X140100000Y-113950000D03*
X142500000Y-111050000D03*
X142500000Y-113950000D03*
X137700000Y-111050000D03*
X137700000Y-113950000D03*
D16*
X141099700Y-118400000D03*
X145900300Y-118400000D03*
D22*
X156410000Y-105700000D03*
X153870000Y-105700000D03*
X148790000Y-105700000D03*
X148790000Y-115100000D03*
X156410000Y-115100000D03*
D21*
X139000000Y-106300000D03*
X139000000Y-104800000D03*
X140500000Y-106300000D03*
X140500000Y-104800000D03*
D11*
X154550000Y-103200000D03*
X156050000Y-103200000D03*
D15*
X123550000Y-77200000D03*
X125050000Y-77200000D03*
D14*
X140100000Y-88050000D03*
X140100000Y-90950000D03*
X142500000Y-88050000D03*
X142500000Y-90950000D03*
X137700000Y-88050000D03*
X137700000Y-90950000D03*
D24*
X137321383Y-77560005D03*
X136051383Y-77560005D03*
X134781383Y-77560005D03*
X133511383Y-77560005D03*
X133511383Y-82960005D03*
X134781383Y-82960005D03*
X136051383Y-82960005D03*
X137321383Y-82960005D03*
D23*
X137510000Y-85700000D03*
X141090000Y-85700000D03*
D11*
X127950000Y-100200000D03*
X126450000Y-100200000D03*
X129450000Y-100200000D03*
X130950000Y-100200000D03*
D24*
X137321383Y-100560005D03*
X136051383Y-100560005D03*
X134781383Y-100560005D03*
X133511383Y-100560005D03*
X133511383Y-105960005D03*
X134781383Y-105960005D03*
X136051383Y-105960005D03*
X137321383Y-105960005D03*
D15*
X123550000Y-100200000D03*
X125050000Y-100200000D03*
D19*
X130445000Y-102350000D03*
X129175000Y-102350000D03*
X127905000Y-102350000D03*
X126635000Y-102350000D03*
X125365000Y-102350000D03*
X124095000Y-102350000D03*
X122825000Y-102350000D03*
X121555000Y-102350000D03*
X121555000Y-111650000D03*
X122825000Y-111650000D03*
X124095000Y-111650000D03*
X125365000Y-111650000D03*
X126635000Y-111650000D03*
X127905000Y-111650000D03*
X129175000Y-111650000D03*
X130445000Y-111650000D03*
D20*
X116000000Y-132200000D03*
X113100000Y-132200000D03*
X116000000Y-129700000D03*
X113100000Y-129700000D03*
D11*
X119650000Y-125200000D03*
X118150000Y-125200000D03*
D18*
X118300000Y-130400000D03*
X118300000Y-128100000D03*
D19*
X130445000Y-125350000D03*
X129175000Y-125350000D03*
X127905000Y-125350000D03*
X126635000Y-125350000D03*
X125365000Y-125350000D03*
X124095000Y-125350000D03*
X122825000Y-125350000D03*
X121555000Y-125350000D03*
X121555000Y-134650000D03*
X122825000Y-134650000D03*
X124095000Y-134650000D03*
X125365000Y-134650000D03*
X126635000Y-134650000D03*
X127905000Y-134650000D03*
X129175000Y-134650000D03*
X130445000Y-134650000D03*
D11*
X123600000Y-136600000D03*
X122100000Y-136600000D03*
X127950000Y-123200000D03*
X126450000Y-123200000D03*
D15*
X123550000Y-123200000D03*
X125050000Y-123200000D03*
X120850000Y-123200000D03*
X122350000Y-123200000D03*
D11*
X129450000Y-123200000D03*
X130950000Y-123200000D03*
D24*
X137321383Y-123560005D03*
X136051383Y-123560005D03*
X134781383Y-123560005D03*
X133511383Y-123560005D03*
X133511383Y-128960005D03*
X134781383Y-128960005D03*
X136051383Y-128960005D03*
X137321383Y-128960005D03*
D22*
X156410000Y-128700000D03*
X153870000Y-128700000D03*
X148790000Y-128700000D03*
X148790000Y-138100000D03*
X156410000Y-138100000D03*
D14*
X142500000Y-134050000D03*
X142500000Y-136950000D03*
X140100000Y-134050000D03*
X140100000Y-136950000D03*
D23*
X137510000Y-131700000D03*
X141090000Y-131700000D03*
D16*
X141099700Y-141400000D03*
X145900300Y-141400000D03*
D14*
X137700000Y-134050000D03*
X137700000Y-136950000D03*
D11*
X154550000Y-126200000D03*
X156050000Y-126200000D03*
D21*
X140500000Y-129300000D03*
X140500000Y-127800000D03*
X139000000Y-129300000D03*
X139000000Y-127800000D03*
D22*
X101690000Y-138800000D03*
X104230000Y-138800000D03*
X109310000Y-138800000D03*
X109310000Y-129400000D03*
X101690000Y-129400000D03*
D16*
X102299700Y-141800000D03*
X107100300Y-141800000D03*
D21*
X98100000Y-139550000D03*
X98100000Y-138050000D03*
D20*
X116050000Y-137000000D03*
X113150000Y-137000000D03*
X116050000Y-134600000D03*
X113150000Y-134600000D03*
D13*
X123600000Y-138500000D03*
X120600000Y-138500000D03*
D17*
X118900000Y-132810000D03*
X118900000Y-136390000D03*
D11*
X112650000Y-139800000D03*
X114150000Y-139800000D03*
D14*
X135300000Y-134050000D03*
X135300000Y-136950000D03*
D11*
X130100000Y-136700000D03*
X128600000Y-136700000D03*
D13*
X131550000Y-138750000D03*
X128550000Y-138750000D03*
D11*
X135800000Y-141800000D03*
X134300000Y-141800000D03*
D12*
X131250000Y-141050000D03*
X128950000Y-141050000D03*
D11*
X135800000Y-164800000D03*
X134300000Y-164800000D03*
D21*
X139000000Y-152300000D03*
X139000000Y-150800000D03*
X140500000Y-152300000D03*
X140500000Y-150800000D03*
D11*
X129450000Y-146200000D03*
X130950000Y-146200000D03*
X119650000Y-148200000D03*
X118150000Y-148200000D03*
X127950000Y-146200000D03*
X126450000Y-146200000D03*
D21*
X98100000Y-162550000D03*
X98100000Y-161050000D03*
D11*
X130100000Y-159700000D03*
X128600000Y-159700000D03*
D13*
X131550000Y-161750000D03*
X128550000Y-161750000D03*
D11*
X112650000Y-162800000D03*
X114150000Y-162800000D03*
X154550000Y-149200000D03*
X156050000Y-149200000D03*
X123600000Y-159600000D03*
X122100000Y-159600000D03*
D13*
X123600000Y-161500000D03*
X120600000Y-161500000D03*
D16*
X141099700Y-164400000D03*
X145900300Y-164400000D03*
D23*
X137510000Y-154700000D03*
X141090000Y-154700000D03*
D16*
X102299700Y-164800000D03*
X107100300Y-164800000D03*
D12*
X131250000Y-164050000D03*
X128950000Y-164050000D03*
D17*
X118900000Y-155810000D03*
X118900000Y-159390000D03*
D18*
X118300000Y-153400000D03*
X118300000Y-151100000D03*
D14*
X142500000Y-157050000D03*
X142500000Y-159950000D03*
X140100000Y-157050000D03*
X140100000Y-159950000D03*
X137700000Y-157050000D03*
X137700000Y-159950000D03*
X135300000Y-157050000D03*
X135300000Y-159950000D03*
D15*
X120850000Y-146200000D03*
X122350000Y-146200000D03*
D20*
X116000000Y-152700000D03*
X113100000Y-152700000D03*
D15*
X123550000Y-146200000D03*
X125050000Y-146200000D03*
D20*
X116000000Y-155200000D03*
X113100000Y-155200000D03*
X116050000Y-157600000D03*
X113150000Y-157600000D03*
X116050000Y-160000000D03*
X113150000Y-160000000D03*
D24*
X137321383Y-146560005D03*
X136051383Y-146560005D03*
X134781383Y-146560005D03*
X133511383Y-146560005D03*
X133511383Y-151960005D03*
X134781383Y-151960005D03*
X136051383Y-151960005D03*
X137321383Y-151960005D03*
D19*
X130445000Y-148350000D03*
X129175000Y-148350000D03*
X127905000Y-148350000D03*
X126635000Y-148350000D03*
X125365000Y-148350000D03*
X124095000Y-148350000D03*
X122825000Y-148350000D03*
X121555000Y-148350000D03*
X121555000Y-157650000D03*
X122825000Y-157650000D03*
X124095000Y-157650000D03*
X125365000Y-157650000D03*
X126635000Y-157650000D03*
X127905000Y-157650000D03*
X129175000Y-157650000D03*
X130445000Y-157650000D03*
D22*
X156410000Y-151700000D03*
X153870000Y-151700000D03*
X148790000Y-151700000D03*
X148790000Y-161100000D03*
X156410000Y-161100000D03*
X101690000Y-161800000D03*
X104230000Y-161800000D03*
X109310000Y-161800000D03*
X109310000Y-152400000D03*
X101690000Y-152400000D03*
M02*
