M48
;DRILL file {KiCad 4.0.1-stable} date 09.11.2016 23:20:38
;FORMAT={-:-/ absolute / inch / decimal}
FMAT,2
INCH,TZ
T1C0.016
T2C0.040
T3C0.248
%
G90
G05
M72
T1
X3.8622Y-3.5787
X3.8622Y-4.4843
X3.8622Y-5.3898
X3.8622Y-6.2953
X4.0433Y-3.6063
X4.0433Y-3.6457
X4.0433Y-3.685
X4.0433Y-4.5118
X4.0433Y-4.5512
X4.0433Y-4.5906
X4.0433Y-5.4173
X4.0433Y-5.4567
X4.0433Y-5.4961
X4.0433Y-6.3228
X4.0433Y-6.3622
X4.0433Y-6.4016
X4.2638Y-3.6299
X4.2638Y-3.6811
X4.2638Y-4.5354
X4.2638Y-4.5866
X4.2638Y-5.4409
X4.2638Y-5.4921
X4.2638Y-6.3465
X4.2638Y-6.3976
X4.5591Y-3.6496
X4.5591Y-4.5551
X4.5591Y-5.4606
X4.5591Y-6.3661
X4.6102Y-3.1181
X4.6102Y-4.0236
X4.6102Y-4.9291
X4.6102Y-5.8346
X4.6496Y-3.0787
X4.6496Y-3.9843
X4.6496Y-4.8898
X4.6496Y-5.7953
X4.7008Y-3.2323
X4.7008Y-4.1378
X4.7008Y-5.0433
X4.7008Y-5.9488
X4.752Y-3.4882
X4.752Y-4.3937
X4.752Y-5.2992
X4.752Y-6.2047
X4.7559Y-3.5669
X4.7559Y-4.4724
X4.7559Y-5.378
X4.7559Y-6.2835
X4.7992Y-3.6378
X4.7992Y-4.5433
X4.7992Y-5.4488
X4.7992Y-6.3543
X4.9488Y-3.0669
X4.9488Y-3.9724
X4.9488Y-4.878
X4.9488Y-5.7835
X4.9606Y-3.7795
X4.9606Y-4.685
X4.9606Y-5.5906
X4.9606Y-6.4961
X4.9843Y-3.1772
X4.9843Y-4.0827
X4.9843Y-4.9882
X4.9843Y-5.8937
X5.Y-3.0748
X5.Y-3.9803
X5.Y-4.8858
X5.Y-5.7913
X5.0433Y-3.3307
X5.0433Y-3.5394
X5.0433Y-3.6024
X5.0433Y-4.2362
X5.0433Y-4.4449
X5.0433Y-4.5079
X5.0433Y-5.1417
X5.0433Y-5.3504
X5.0433Y-5.4134
X5.0433Y-6.0472
X5.0433Y-6.2559
X5.0433Y-6.3189
X5.0472Y-3.7047
X5.0472Y-4.6102
X5.0472Y-5.5157
X5.0472Y-6.4213
X5.0768Y-3.7854
X5.0768Y-4.6909
X5.0768Y-5.5965
X5.0768Y-6.502
X5.1811Y-3.0787
X5.1811Y-3.9843
X5.1811Y-4.8898
X5.1811Y-5.7953
X5.2008Y-3.0394
X5.2008Y-3.9449
X5.2008Y-4.8504
X5.2008Y-5.7559
X5.2421Y-3.7894
X5.2421Y-4.6949
X5.2421Y-5.6004
X5.2421Y-6.5059
X5.2854Y-3.8209
X5.2854Y-4.7264
X5.2854Y-5.6319
X5.2854Y-6.5374
X5.3071Y-3.1102
X5.3071Y-3.2126
X5.3071Y-4.0157
X5.3071Y-4.1181
X5.3071Y-4.9213
X5.3071Y-5.0236
X5.3071Y-5.8268
X5.3071Y-5.9291
X5.3543Y-3.1102
X5.3543Y-3.2126
X5.3543Y-4.0157
X5.3543Y-4.1181
X5.3543Y-4.9213
X5.3543Y-5.0236
X5.3543Y-5.8268
X5.3543Y-5.9291
X5.4724Y-3.185
X5.4724Y-4.0906
X5.4724Y-4.9961
X5.4724Y-5.9016
X5.5197Y-3.185
X5.5197Y-4.0906
X5.5197Y-4.9961
X5.5197Y-5.9016
X5.685Y-3.7402
X5.685Y-4.6457
X5.685Y-5.5512
X5.685Y-6.4567
X5.685Y-3.7913
X5.685Y-4.6969
X5.685Y-5.6024
X5.685Y-6.5079
X5.7776Y-3.2854
X5.7776Y-4.1909
X5.7776Y-5.0965
X5.7776Y-6.002
X5.8169Y-3.2441
X5.8169Y-3.2815
X5.8169Y-4.1496
X5.8169Y-4.187
X5.8169Y-5.0551
X5.8169Y-5.0925
X5.8169Y-5.9606
X5.8169Y-5.998
X6.1417Y-3.1142
X6.1417Y-4.0197
X6.1417Y-4.9252
X6.1417Y-5.8307
X6.1575Y-3.3268
X6.1575Y-4.2323
X6.1575Y-5.1378
X6.1575Y-6.0433
X6.189Y-3.1575
X6.189Y-4.063
X6.189Y-4.9685
X6.189Y-5.874
T2
X3.9189Y-3.7717
X3.9189Y-4.6772
X3.9189Y-5.5827
X3.9189Y-6.4882
X4.3189Y-3.7717
X4.3189Y-4.6772
X4.3189Y-5.5827
X4.3189Y-6.4882
X4.4189Y-3.7717
X4.4189Y-4.6772
X4.4189Y-5.5827
X4.4189Y-6.4882
X4.5189Y-3.7717
X4.5189Y-4.6772
X4.5189Y-5.5827
X4.5189Y-6.4882
X4.6189Y-3.7717
X4.6189Y-4.6772
X4.6189Y-5.5827
X4.6189Y-6.4882
X4.7189Y-3.7717
X4.7189Y-4.6772
X4.7189Y-5.5827
X4.7189Y-6.4882
X5.4504Y-3.7717
X5.4504Y-4.6772
X5.4504Y-5.5827
X5.4504Y-6.4882
X5.8504Y-3.7717
X5.8504Y-4.6772
X5.8504Y-5.5827
X5.8504Y-6.4882
X5.9504Y-3.7717
X5.9504Y-4.6772
X5.9504Y-5.5827
X5.9504Y-6.4882
X6.0504Y-3.7717
X6.0504Y-4.6772
X6.0504Y-5.5827
X6.0504Y-6.4882
X6.1504Y-3.7717
X6.1504Y-4.6772
X6.1504Y-5.5827
X6.1504Y-6.4882
X6.2504Y-3.7717
X6.2504Y-4.6772
X6.2504Y-5.5827
X6.2504Y-6.4882
T3
X4.1319Y-3.122
X4.1319Y-4.0276
X4.1319Y-4.9331
X4.1319Y-5.8386
X5.665Y-3.122
X5.665Y-4.0276
X5.665Y-4.9331
X5.665Y-5.8386
T0
M30
