G04 #@! TF.FileFunction,Soldermask,Top*
%FSLAX46Y46*%
G04 Gerber Fmt 4.6, Leading zero omitted, Abs format (unit mm)*
G04 Created by KiCad (PCBNEW 4.0.1-stable) date 09.11.2016 23:19:49*
%MOMM*%
G01*
G04 APERTURE LIST*
%ADD10C,0.100000*%
G04 APERTURE END LIST*
D10*
G36*
X107980870Y-166280010D02*
X106219730Y-166280010D01*
X106219730Y-163319990D01*
X107980870Y-163319990D01*
X107980870Y-166280010D01*
X107980870Y-166280010D01*
G37*
G36*
X103180270Y-166280010D02*
X101419130Y-166280010D01*
X101419130Y-163319990D01*
X103180270Y-163319990D01*
X103180270Y-166280010D01*
X103180270Y-166280010D01*
G37*
G36*
X146780870Y-165880010D02*
X145019730Y-165880010D01*
X145019730Y-162919990D01*
X146780870Y-162919990D01*
X146780870Y-165880010D01*
X146780870Y-165880010D01*
G37*
G36*
X141980270Y-165880010D02*
X140219130Y-165880010D01*
X140219130Y-162919990D01*
X141980270Y-162919990D01*
X141980270Y-165880010D01*
X141980270Y-165880010D01*
G37*
G36*
X151156271Y-163770078D02*
X151156276Y-163770079D01*
X151159365Y-163770100D01*
X151359133Y-163792508D01*
X151550744Y-163853291D01*
X151726900Y-163950133D01*
X151880891Y-164079347D01*
X152006851Y-164236010D01*
X152099983Y-164414155D01*
X152156740Y-164606997D01*
X152156745Y-164607057D01*
X152156749Y-164607069D01*
X152174961Y-164807184D01*
X152153956Y-165007039D01*
X152153954Y-165007047D01*
X152153947Y-165007110D01*
X152094503Y-165199141D01*
X151998893Y-165375969D01*
X151870757Y-165530858D01*
X151714977Y-165657909D01*
X151537486Y-165752282D01*
X151345045Y-165810384D01*
X151144984Y-165830000D01*
X151134895Y-165830000D01*
X151123729Y-165829922D01*
X151123724Y-165829921D01*
X151120635Y-165829900D01*
X150920867Y-165807492D01*
X150729256Y-165746709D01*
X150553100Y-165649867D01*
X150399109Y-165520653D01*
X150273149Y-165363990D01*
X150180017Y-165185845D01*
X150123260Y-164993003D01*
X150123255Y-164992943D01*
X150123251Y-164992931D01*
X150105039Y-164792816D01*
X150126044Y-164592961D01*
X150126046Y-164592953D01*
X150126053Y-164592890D01*
X150185497Y-164400859D01*
X150281107Y-164224031D01*
X150409243Y-164069142D01*
X150565023Y-163942091D01*
X150742514Y-163847718D01*
X150934955Y-163789616D01*
X151135016Y-163770000D01*
X151145105Y-163770000D01*
X151156271Y-163770078D01*
X151156271Y-163770078D01*
G37*
G36*
X148616271Y-163770078D02*
X148616276Y-163770079D01*
X148619365Y-163770100D01*
X148819133Y-163792508D01*
X149010744Y-163853291D01*
X149186900Y-163950133D01*
X149340891Y-164079347D01*
X149466851Y-164236010D01*
X149559983Y-164414155D01*
X149616740Y-164606997D01*
X149616745Y-164607057D01*
X149616749Y-164607069D01*
X149634961Y-164807184D01*
X149613956Y-165007039D01*
X149613954Y-165007047D01*
X149613947Y-165007110D01*
X149554503Y-165199141D01*
X149458893Y-165375969D01*
X149330757Y-165530858D01*
X149174977Y-165657909D01*
X148997486Y-165752282D01*
X148805045Y-165810384D01*
X148604984Y-165830000D01*
X148594895Y-165830000D01*
X148583729Y-165829922D01*
X148583724Y-165829921D01*
X148580635Y-165829900D01*
X148380867Y-165807492D01*
X148189256Y-165746709D01*
X148013100Y-165649867D01*
X147859109Y-165520653D01*
X147733149Y-165363990D01*
X147640017Y-165185845D01*
X147583260Y-164993003D01*
X147583255Y-164992943D01*
X147583251Y-164992931D01*
X147565039Y-164792816D01*
X147586044Y-164592961D01*
X147586046Y-164592953D01*
X147586053Y-164592890D01*
X147645497Y-164400859D01*
X147741107Y-164224031D01*
X147869243Y-164069142D01*
X148025023Y-163942091D01*
X148202514Y-163847718D01*
X148394955Y-163789616D01*
X148595016Y-163770000D01*
X148605105Y-163770000D01*
X148616271Y-163770078D01*
X148616271Y-163770078D01*
G37*
G36*
X139470000Y-165830000D02*
X137410000Y-165830000D01*
X137410000Y-163770000D01*
X139470000Y-163770000D01*
X139470000Y-165830000D01*
X139470000Y-165830000D01*
G37*
G36*
X119876271Y-163770078D02*
X119876276Y-163770079D01*
X119879365Y-163770100D01*
X120079133Y-163792508D01*
X120270744Y-163853291D01*
X120446900Y-163950133D01*
X120600891Y-164079347D01*
X120726851Y-164236010D01*
X120819983Y-164414155D01*
X120876740Y-164606997D01*
X120876745Y-164607057D01*
X120876749Y-164607069D01*
X120894961Y-164807184D01*
X120873956Y-165007039D01*
X120873954Y-165007047D01*
X120873947Y-165007110D01*
X120814503Y-165199141D01*
X120718893Y-165375969D01*
X120590757Y-165530858D01*
X120434977Y-165657909D01*
X120257486Y-165752282D01*
X120065045Y-165810384D01*
X119864984Y-165830000D01*
X119854895Y-165830000D01*
X119843729Y-165829922D01*
X119843724Y-165829921D01*
X119840635Y-165829900D01*
X119640867Y-165807492D01*
X119449256Y-165746709D01*
X119273100Y-165649867D01*
X119119109Y-165520653D01*
X118993149Y-165363990D01*
X118900017Y-165185845D01*
X118843260Y-164993003D01*
X118843255Y-164992943D01*
X118843251Y-164992931D01*
X118825039Y-164792816D01*
X118846044Y-164592961D01*
X118846046Y-164592953D01*
X118846053Y-164592890D01*
X118905497Y-164400859D01*
X119001107Y-164224031D01*
X119129243Y-164069142D01*
X119285023Y-163942091D01*
X119462514Y-163847718D01*
X119654955Y-163789616D01*
X119855016Y-163770000D01*
X119865105Y-163770000D01*
X119876271Y-163770078D01*
X119876271Y-163770078D01*
G37*
G36*
X117336271Y-163770078D02*
X117336276Y-163770079D01*
X117339365Y-163770100D01*
X117539133Y-163792508D01*
X117730744Y-163853291D01*
X117906900Y-163950133D01*
X118060891Y-164079347D01*
X118186851Y-164236010D01*
X118279983Y-164414155D01*
X118336740Y-164606997D01*
X118336745Y-164607057D01*
X118336749Y-164607069D01*
X118354961Y-164807184D01*
X118333956Y-165007039D01*
X118333954Y-165007047D01*
X118333947Y-165007110D01*
X118274503Y-165199141D01*
X118178893Y-165375969D01*
X118050757Y-165530858D01*
X117894977Y-165657909D01*
X117717486Y-165752282D01*
X117525045Y-165810384D01*
X117324984Y-165830000D01*
X117314895Y-165830000D01*
X117303729Y-165829922D01*
X117303724Y-165829921D01*
X117300635Y-165829900D01*
X117100867Y-165807492D01*
X116909256Y-165746709D01*
X116733100Y-165649867D01*
X116579109Y-165520653D01*
X116453149Y-165363990D01*
X116360017Y-165185845D01*
X116303260Y-164993003D01*
X116303255Y-164992943D01*
X116303251Y-164992931D01*
X116285039Y-164792816D01*
X116306044Y-164592961D01*
X116306046Y-164592953D01*
X116306053Y-164592890D01*
X116365497Y-164400859D01*
X116461107Y-164224031D01*
X116589243Y-164069142D01*
X116745023Y-163942091D01*
X116922514Y-163847718D01*
X117114955Y-163789616D01*
X117315016Y-163770000D01*
X117325105Y-163770000D01*
X117336271Y-163770078D01*
X117336271Y-163770078D01*
G37*
G36*
X114796271Y-163770078D02*
X114796276Y-163770079D01*
X114799365Y-163770100D01*
X114999133Y-163792508D01*
X115190744Y-163853291D01*
X115366900Y-163950133D01*
X115520891Y-164079347D01*
X115646851Y-164236010D01*
X115739983Y-164414155D01*
X115796740Y-164606997D01*
X115796745Y-164607057D01*
X115796749Y-164607069D01*
X115814961Y-164807184D01*
X115793956Y-165007039D01*
X115793954Y-165007047D01*
X115793947Y-165007110D01*
X115734503Y-165199141D01*
X115638893Y-165375969D01*
X115510757Y-165530858D01*
X115354977Y-165657909D01*
X115177486Y-165752282D01*
X114985045Y-165810384D01*
X114784984Y-165830000D01*
X114774895Y-165830000D01*
X114763729Y-165829922D01*
X114763724Y-165829921D01*
X114760635Y-165829900D01*
X114560867Y-165807492D01*
X114369256Y-165746709D01*
X114193100Y-165649867D01*
X114039109Y-165520653D01*
X113913149Y-165363990D01*
X113820017Y-165185845D01*
X113763260Y-164993003D01*
X113763255Y-164992943D01*
X113763251Y-164992931D01*
X113745039Y-164792816D01*
X113766044Y-164592961D01*
X113766046Y-164592953D01*
X113766053Y-164592890D01*
X113825497Y-164400859D01*
X113921107Y-164224031D01*
X114049243Y-164069142D01*
X114205023Y-163942091D01*
X114382514Y-163847718D01*
X114574955Y-163789616D01*
X114775016Y-163770000D01*
X114785105Y-163770000D01*
X114796271Y-163770078D01*
X114796271Y-163770078D01*
G37*
G36*
X112256271Y-163770078D02*
X112256276Y-163770079D01*
X112259365Y-163770100D01*
X112459133Y-163792508D01*
X112650744Y-163853291D01*
X112826900Y-163950133D01*
X112980891Y-164079347D01*
X113106851Y-164236010D01*
X113199983Y-164414155D01*
X113256740Y-164606997D01*
X113256745Y-164607057D01*
X113256749Y-164607069D01*
X113274961Y-164807184D01*
X113253956Y-165007039D01*
X113253954Y-165007047D01*
X113253947Y-165007110D01*
X113194503Y-165199141D01*
X113098893Y-165375969D01*
X112970757Y-165530858D01*
X112814977Y-165657909D01*
X112637486Y-165752282D01*
X112445045Y-165810384D01*
X112244984Y-165830000D01*
X112234895Y-165830000D01*
X112223729Y-165829922D01*
X112223724Y-165829921D01*
X112220635Y-165829900D01*
X112020867Y-165807492D01*
X111829256Y-165746709D01*
X111653100Y-165649867D01*
X111499109Y-165520653D01*
X111373149Y-165363990D01*
X111280017Y-165185845D01*
X111223260Y-164993003D01*
X111223255Y-164992943D01*
X111223251Y-164992931D01*
X111205039Y-164792816D01*
X111226044Y-164592961D01*
X111226046Y-164592953D01*
X111226053Y-164592890D01*
X111285497Y-164400859D01*
X111381107Y-164224031D01*
X111509243Y-164069142D01*
X111665023Y-163942091D01*
X111842514Y-163847718D01*
X112034955Y-163789616D01*
X112235016Y-163770000D01*
X112245105Y-163770000D01*
X112256271Y-163770078D01*
X112256271Y-163770078D01*
G37*
G36*
X100570000Y-165830000D02*
X98510000Y-165830000D01*
X98510000Y-163770000D01*
X100570000Y-163770000D01*
X100570000Y-165830000D01*
X100570000Y-165830000D01*
G37*
G36*
X158776271Y-163770078D02*
X158776276Y-163770079D01*
X158779365Y-163770100D01*
X158979133Y-163792508D01*
X159170744Y-163853291D01*
X159346900Y-163950133D01*
X159500891Y-164079347D01*
X159626851Y-164236010D01*
X159719983Y-164414155D01*
X159776740Y-164606997D01*
X159776745Y-164607057D01*
X159776749Y-164607069D01*
X159794961Y-164807184D01*
X159773956Y-165007039D01*
X159773954Y-165007047D01*
X159773947Y-165007110D01*
X159714503Y-165199141D01*
X159618893Y-165375969D01*
X159490757Y-165530858D01*
X159334977Y-165657909D01*
X159157486Y-165752282D01*
X158965045Y-165810384D01*
X158764984Y-165830000D01*
X158754895Y-165830000D01*
X158743729Y-165829922D01*
X158743724Y-165829921D01*
X158740635Y-165829900D01*
X158540867Y-165807492D01*
X158349256Y-165746709D01*
X158173100Y-165649867D01*
X158019109Y-165520653D01*
X157893149Y-165363990D01*
X157800017Y-165185845D01*
X157743260Y-164993003D01*
X157743255Y-164992943D01*
X157743251Y-164992931D01*
X157725039Y-164792816D01*
X157746044Y-164592961D01*
X157746046Y-164592953D01*
X157746053Y-164592890D01*
X157805497Y-164400859D01*
X157901107Y-164224031D01*
X158029243Y-164069142D01*
X158185023Y-163942091D01*
X158362514Y-163847718D01*
X158554955Y-163789616D01*
X158755016Y-163770000D01*
X158765105Y-163770000D01*
X158776271Y-163770078D01*
X158776271Y-163770078D01*
G37*
G36*
X156236271Y-163770078D02*
X156236276Y-163770079D01*
X156239365Y-163770100D01*
X156439133Y-163792508D01*
X156630744Y-163853291D01*
X156806900Y-163950133D01*
X156960891Y-164079347D01*
X157086851Y-164236010D01*
X157179983Y-164414155D01*
X157236740Y-164606997D01*
X157236745Y-164607057D01*
X157236749Y-164607069D01*
X157254961Y-164807184D01*
X157233956Y-165007039D01*
X157233954Y-165007047D01*
X157233947Y-165007110D01*
X157174503Y-165199141D01*
X157078893Y-165375969D01*
X156950757Y-165530858D01*
X156794977Y-165657909D01*
X156617486Y-165752282D01*
X156425045Y-165810384D01*
X156224984Y-165830000D01*
X156214895Y-165830000D01*
X156203729Y-165829922D01*
X156203724Y-165829921D01*
X156200635Y-165829900D01*
X156000867Y-165807492D01*
X155809256Y-165746709D01*
X155633100Y-165649867D01*
X155479109Y-165520653D01*
X155353149Y-165363990D01*
X155260017Y-165185845D01*
X155203260Y-164993003D01*
X155203255Y-164992943D01*
X155203251Y-164992931D01*
X155185039Y-164792816D01*
X155206044Y-164592961D01*
X155206046Y-164592953D01*
X155206053Y-164592890D01*
X155265497Y-164400859D01*
X155361107Y-164224031D01*
X155489243Y-164069142D01*
X155645023Y-163942091D01*
X155822514Y-163847718D01*
X156014955Y-163789616D01*
X156215016Y-163770000D01*
X156225105Y-163770000D01*
X156236271Y-163770078D01*
X156236271Y-163770078D01*
G37*
G36*
X153696271Y-163770078D02*
X153696276Y-163770079D01*
X153699365Y-163770100D01*
X153899133Y-163792508D01*
X154090744Y-163853291D01*
X154266900Y-163950133D01*
X154420891Y-164079347D01*
X154546851Y-164236010D01*
X154639983Y-164414155D01*
X154696740Y-164606997D01*
X154696745Y-164607057D01*
X154696749Y-164607069D01*
X154714961Y-164807184D01*
X154693956Y-165007039D01*
X154693954Y-165007047D01*
X154693947Y-165007110D01*
X154634503Y-165199141D01*
X154538893Y-165375969D01*
X154410757Y-165530858D01*
X154254977Y-165657909D01*
X154077486Y-165752282D01*
X153885045Y-165810384D01*
X153684984Y-165830000D01*
X153674895Y-165830000D01*
X153663729Y-165829922D01*
X153663724Y-165829921D01*
X153660635Y-165829900D01*
X153460867Y-165807492D01*
X153269256Y-165746709D01*
X153093100Y-165649867D01*
X152939109Y-165520653D01*
X152813149Y-165363990D01*
X152720017Y-165185845D01*
X152663260Y-164993003D01*
X152663255Y-164992943D01*
X152663251Y-164992931D01*
X152645039Y-164792816D01*
X152666044Y-164592961D01*
X152666046Y-164592953D01*
X152666053Y-164592890D01*
X152725497Y-164400859D01*
X152821107Y-164224031D01*
X152949243Y-164069142D01*
X153105023Y-163942091D01*
X153282514Y-163847718D01*
X153474955Y-163789616D01*
X153675016Y-163770000D01*
X153685105Y-163770000D01*
X153696271Y-163770078D01*
X153696271Y-163770078D01*
G37*
G36*
X109716271Y-163770078D02*
X109716276Y-163770079D01*
X109719365Y-163770100D01*
X109919133Y-163792508D01*
X110110744Y-163853291D01*
X110286900Y-163950133D01*
X110440891Y-164079347D01*
X110566851Y-164236010D01*
X110659983Y-164414155D01*
X110716740Y-164606997D01*
X110716745Y-164607057D01*
X110716749Y-164607069D01*
X110734961Y-164807184D01*
X110713956Y-165007039D01*
X110713954Y-165007047D01*
X110713947Y-165007110D01*
X110654503Y-165199141D01*
X110558893Y-165375969D01*
X110430757Y-165530858D01*
X110274977Y-165657909D01*
X110097486Y-165752282D01*
X109905045Y-165810384D01*
X109704984Y-165830000D01*
X109694895Y-165830000D01*
X109683729Y-165829922D01*
X109683724Y-165829921D01*
X109680635Y-165829900D01*
X109480867Y-165807492D01*
X109289256Y-165746709D01*
X109113100Y-165649867D01*
X108959109Y-165520653D01*
X108833149Y-165363990D01*
X108740017Y-165185845D01*
X108683260Y-164993003D01*
X108683255Y-164992943D01*
X108683251Y-164992931D01*
X108665039Y-164792816D01*
X108686044Y-164592961D01*
X108686046Y-164592953D01*
X108686053Y-164592890D01*
X108745497Y-164400859D01*
X108841107Y-164224031D01*
X108969243Y-164069142D01*
X109125023Y-163942091D01*
X109302514Y-163847718D01*
X109494955Y-163789616D01*
X109695016Y-163770000D01*
X109705105Y-163770000D01*
X109716271Y-163770078D01*
X109716271Y-163770078D01*
G37*
G36*
X134830000Y-165305000D02*
X133770000Y-165305000D01*
X133770000Y-164295000D01*
X134830000Y-164295000D01*
X134830000Y-165305000D01*
X134830000Y-165305000D01*
G37*
G36*
X136330000Y-165305000D02*
X135270000Y-165305000D01*
X135270000Y-164295000D01*
X136330000Y-164295000D01*
X136330000Y-165305000D01*
X136330000Y-165305000D01*
G37*
G36*
X131830000Y-164730000D02*
X130670000Y-164730000D01*
X130670000Y-163370000D01*
X131830000Y-163370000D01*
X131830000Y-164730000D01*
X131830000Y-164730000D01*
G37*
G36*
X129530000Y-164730000D02*
X128370000Y-164730000D01*
X128370000Y-163370000D01*
X129530000Y-163370000D01*
X129530000Y-164730000D01*
X129530000Y-164730000D01*
G37*
G36*
X114680000Y-163305000D02*
X113620000Y-163305000D01*
X113620000Y-162295000D01*
X114680000Y-162295000D01*
X114680000Y-163305000D01*
X114680000Y-163305000D01*
G37*
G36*
X113180000Y-163305000D02*
X112120000Y-163305000D01*
X112120000Y-162295000D01*
X113180000Y-162295000D01*
X113180000Y-163305000D01*
X113180000Y-163305000D01*
G37*
G36*
X102320000Y-163080000D02*
X101060000Y-163080000D01*
X101060000Y-160520000D01*
X102320000Y-160520000D01*
X102320000Y-163080000D01*
X102320000Y-163080000D01*
G37*
G36*
X109940000Y-163080000D02*
X108680000Y-163080000D01*
X108680000Y-160520000D01*
X109940000Y-160520000D01*
X109940000Y-163080000D01*
X109940000Y-163080000D01*
G37*
G36*
X104860000Y-163080000D02*
X103600000Y-163080000D01*
X103600000Y-160520000D01*
X104860000Y-160520000D01*
X104860000Y-163080000D01*
X104860000Y-163080000D01*
G37*
G36*
X98605000Y-163080000D02*
X97595000Y-163080000D01*
X97595000Y-162020000D01*
X98605000Y-162020000D01*
X98605000Y-163080000D01*
X98605000Y-163080000D01*
G37*
G36*
X132180000Y-162680000D02*
X130920000Y-162680000D01*
X130920000Y-160820000D01*
X132180000Y-160820000D01*
X132180000Y-162680000D01*
X132180000Y-162680000D01*
G37*
G36*
X129180000Y-162680000D02*
X127920000Y-162680000D01*
X127920000Y-160820000D01*
X129180000Y-160820000D01*
X129180000Y-162680000D01*
X129180000Y-162680000D01*
G37*
G36*
X124230000Y-162430000D02*
X122970000Y-162430000D01*
X122970000Y-160570000D01*
X124230000Y-160570000D01*
X124230000Y-162430000D01*
X124230000Y-162430000D01*
G37*
G36*
X121230000Y-162430000D02*
X119970000Y-162430000D01*
X119970000Y-160570000D01*
X121230000Y-160570000D01*
X121230000Y-162430000D01*
X121230000Y-162430000D01*
G37*
G36*
X149420000Y-162380000D02*
X148160000Y-162380000D01*
X148160000Y-159820000D01*
X149420000Y-159820000D01*
X149420000Y-162380000D01*
X149420000Y-162380000D01*
G37*
G36*
X157040000Y-162380000D02*
X155780000Y-162380000D01*
X155780000Y-159820000D01*
X157040000Y-159820000D01*
X157040000Y-162380000D01*
X157040000Y-162380000D01*
G37*
G36*
X98605000Y-161580000D02*
X97595000Y-161580000D01*
X97595000Y-160520000D01*
X98605000Y-160520000D01*
X98605000Y-161580000D01*
X98605000Y-161580000D01*
G37*
G36*
X113730000Y-160980000D02*
X112570000Y-160980000D01*
X112570000Y-159020000D01*
X113730000Y-159020000D01*
X113730000Y-160980000D01*
X113730000Y-160980000D01*
G37*
G36*
X116630000Y-160980000D02*
X115470000Y-160980000D01*
X115470000Y-159020000D01*
X116630000Y-159020000D01*
X116630000Y-160980000D01*
X116630000Y-160980000D01*
G37*
G36*
X136280000Y-160530000D02*
X134320000Y-160530000D01*
X134320000Y-159370000D01*
X136280000Y-159370000D01*
X136280000Y-160530000D01*
X136280000Y-160530000D01*
G37*
G36*
X141080000Y-160530000D02*
X139120000Y-160530000D01*
X139120000Y-159370000D01*
X141080000Y-159370000D01*
X141080000Y-160530000D01*
X141080000Y-160530000D01*
G37*
G36*
X143480000Y-160530000D02*
X141520000Y-160530000D01*
X141520000Y-159370000D01*
X143480000Y-159370000D01*
X143480000Y-160530000D01*
X143480000Y-160530000D01*
G37*
G36*
X138680000Y-160530000D02*
X136720000Y-160530000D01*
X136720000Y-159370000D01*
X138680000Y-159370000D01*
X138680000Y-160530000D01*
X138680000Y-160530000D01*
G37*
G36*
X119870000Y-160370000D02*
X117930000Y-160370000D01*
X117930000Y-158410000D01*
X119870000Y-158410000D01*
X119870000Y-160370000D01*
X119870000Y-160370000D01*
G37*
G36*
X130630000Y-160205000D02*
X129570000Y-160205000D01*
X129570000Y-159195000D01*
X130630000Y-159195000D01*
X130630000Y-160205000D01*
X130630000Y-160205000D01*
G37*
G36*
X129130000Y-160205000D02*
X128070000Y-160205000D01*
X128070000Y-159195000D01*
X129130000Y-159195000D01*
X129130000Y-160205000D01*
X129130000Y-160205000D01*
G37*
G36*
X122630000Y-160105000D02*
X121570000Y-160105000D01*
X121570000Y-159095000D01*
X122630000Y-159095000D01*
X122630000Y-160105000D01*
X122630000Y-160105000D01*
G37*
G36*
X124130000Y-160105000D02*
X123070000Y-160105000D01*
X123070000Y-159095000D01*
X124130000Y-159095000D01*
X124130000Y-160105000D01*
X124130000Y-160105000D01*
G37*
G36*
X116630000Y-158580000D02*
X115470000Y-158580000D01*
X115470000Y-156620000D01*
X116630000Y-156620000D01*
X116630000Y-158580000D01*
X116630000Y-158580000D01*
G37*
G36*
X113730000Y-158580000D02*
X112570000Y-158580000D01*
X112570000Y-156620000D01*
X113730000Y-156620000D01*
X113730000Y-158580000D01*
X113730000Y-158580000D01*
G37*
G36*
X125795000Y-158530000D02*
X124935000Y-158530000D01*
X124935000Y-156770000D01*
X125795000Y-156770000D01*
X125795000Y-158530000D01*
X125795000Y-158530000D01*
G37*
G36*
X121985000Y-158530000D02*
X121125000Y-158530000D01*
X121125000Y-156770000D01*
X121985000Y-156770000D01*
X121985000Y-158530000D01*
X121985000Y-158530000D01*
G37*
G36*
X123255000Y-158530000D02*
X122395000Y-158530000D01*
X122395000Y-156770000D01*
X123255000Y-156770000D01*
X123255000Y-158530000D01*
X123255000Y-158530000D01*
G37*
G36*
X124525000Y-158530000D02*
X123665000Y-158530000D01*
X123665000Y-156770000D01*
X124525000Y-156770000D01*
X124525000Y-158530000D01*
X124525000Y-158530000D01*
G37*
G36*
X130875000Y-158530000D02*
X130015000Y-158530000D01*
X130015000Y-156770000D01*
X130875000Y-156770000D01*
X130875000Y-158530000D01*
X130875000Y-158530000D01*
G37*
G36*
X127065000Y-158530000D02*
X126205000Y-158530000D01*
X126205000Y-156770000D01*
X127065000Y-156770000D01*
X127065000Y-158530000D01*
X127065000Y-158530000D01*
G37*
G36*
X129605000Y-158530000D02*
X128745000Y-158530000D01*
X128745000Y-156770000D01*
X129605000Y-156770000D01*
X129605000Y-158530000D01*
X129605000Y-158530000D01*
G37*
G36*
X128335000Y-158530000D02*
X127475000Y-158530000D01*
X127475000Y-156770000D01*
X128335000Y-156770000D01*
X128335000Y-158530000D01*
X128335000Y-158530000D01*
G37*
G36*
X138680000Y-157630000D02*
X136720000Y-157630000D01*
X136720000Y-156470000D01*
X138680000Y-156470000D01*
X138680000Y-157630000D01*
X138680000Y-157630000D01*
G37*
G36*
X143480000Y-157630000D02*
X141520000Y-157630000D01*
X141520000Y-156470000D01*
X143480000Y-156470000D01*
X143480000Y-157630000D01*
X143480000Y-157630000D01*
G37*
G36*
X136280000Y-157630000D02*
X134320000Y-157630000D01*
X134320000Y-156470000D01*
X136280000Y-156470000D01*
X136280000Y-157630000D01*
X136280000Y-157630000D01*
G37*
G36*
X141080000Y-157630000D02*
X139120000Y-157630000D01*
X139120000Y-156470000D01*
X141080000Y-156470000D01*
X141080000Y-157630000D01*
X141080000Y-157630000D01*
G37*
G36*
X119870000Y-156790000D02*
X117930000Y-156790000D01*
X117930000Y-154830000D01*
X119870000Y-154830000D01*
X119870000Y-156790000D01*
X119870000Y-156790000D01*
G37*
G36*
X116580000Y-156180000D02*
X115420000Y-156180000D01*
X115420000Y-154220000D01*
X116580000Y-154220000D01*
X116580000Y-156180000D01*
X116580000Y-156180000D01*
G37*
G36*
X113680000Y-156180000D02*
X112520000Y-156180000D01*
X112520000Y-154220000D01*
X113680000Y-154220000D01*
X113680000Y-156180000D01*
X113680000Y-156180000D01*
G37*
G36*
X142070000Y-155670000D02*
X140110000Y-155670000D01*
X140110000Y-153730000D01*
X142070000Y-153730000D01*
X142070000Y-155670000D01*
X142070000Y-155670000D01*
G37*
G36*
X138490000Y-155670000D02*
X136530000Y-155670000D01*
X136530000Y-153730000D01*
X138490000Y-153730000D01*
X138490000Y-155670000D01*
X138490000Y-155670000D01*
G37*
G36*
X118980000Y-153980000D02*
X117620000Y-153980000D01*
X117620000Y-152820000D01*
X118980000Y-152820000D01*
X118980000Y-153980000D01*
X118980000Y-153980000D01*
G37*
G36*
X109940000Y-153680000D02*
X108680000Y-153680000D01*
X108680000Y-151120000D01*
X109940000Y-151120000D01*
X109940000Y-153680000D01*
X109940000Y-153680000D01*
G37*
G36*
X116580000Y-153680000D02*
X115420000Y-153680000D01*
X115420000Y-151720000D01*
X116580000Y-151720000D01*
X116580000Y-153680000D01*
X116580000Y-153680000D01*
G37*
G36*
X113680000Y-153680000D02*
X112520000Y-153680000D01*
X112520000Y-151720000D01*
X113680000Y-151720000D01*
X113680000Y-153680000D01*
X113680000Y-153680000D01*
G37*
G36*
X102320000Y-153680000D02*
X101060000Y-153680000D01*
X101060000Y-151120000D01*
X102320000Y-151120000D01*
X102320000Y-153680000D01*
X102320000Y-153680000D01*
G37*
G36*
X154500000Y-152980000D02*
X153240000Y-152980000D01*
X153240000Y-150420000D01*
X154500000Y-150420000D01*
X154500000Y-152980000D01*
X154500000Y-152980000D01*
G37*
G36*
X149420000Y-152980000D02*
X148160000Y-152980000D01*
X148160000Y-150420000D01*
X149420000Y-150420000D01*
X149420000Y-152980000D01*
X149420000Y-152980000D01*
G37*
G36*
X157040000Y-152980000D02*
X155780000Y-152980000D01*
X155780000Y-150420000D01*
X157040000Y-150420000D01*
X157040000Y-152980000D01*
X157040000Y-152980000D01*
G37*
G36*
X133941383Y-152865005D02*
X133081383Y-152865005D01*
X133081383Y-151055005D01*
X133941383Y-151055005D01*
X133941383Y-152865005D01*
X133941383Y-152865005D01*
G37*
G36*
X135211383Y-152865005D02*
X134351383Y-152865005D01*
X134351383Y-151055005D01*
X135211383Y-151055005D01*
X135211383Y-152865005D01*
X135211383Y-152865005D01*
G37*
G36*
X136481383Y-152865005D02*
X135621383Y-152865005D01*
X135621383Y-151055005D01*
X136481383Y-151055005D01*
X136481383Y-152865005D01*
X136481383Y-152865005D01*
G37*
G36*
X137751383Y-152865005D02*
X136891383Y-152865005D01*
X136891383Y-151055005D01*
X137751383Y-151055005D01*
X137751383Y-152865005D01*
X137751383Y-152865005D01*
G37*
G36*
X141005000Y-152830000D02*
X139995000Y-152830000D01*
X139995000Y-151770000D01*
X141005000Y-151770000D01*
X141005000Y-152830000D01*
X141005000Y-152830000D01*
G37*
G36*
X139505000Y-152830000D02*
X138495000Y-152830000D01*
X138495000Y-151770000D01*
X139505000Y-151770000D01*
X139505000Y-152830000D01*
X139505000Y-152830000D01*
G37*
G36*
X118980000Y-151680000D02*
X117620000Y-151680000D01*
X117620000Y-150520000D01*
X118980000Y-150520000D01*
X118980000Y-151680000D01*
X118980000Y-151680000D01*
G37*
G36*
X141005000Y-151330000D02*
X139995000Y-151330000D01*
X139995000Y-150270000D01*
X141005000Y-150270000D01*
X141005000Y-151330000D01*
X141005000Y-151330000D01*
G37*
G36*
X139505000Y-151330000D02*
X138495000Y-151330000D01*
X138495000Y-150270000D01*
X139505000Y-150270000D01*
X139505000Y-151330000D01*
X139505000Y-151330000D01*
G37*
G36*
X155080000Y-149705000D02*
X154020000Y-149705000D01*
X154020000Y-148695000D01*
X155080000Y-148695000D01*
X155080000Y-149705000D01*
X155080000Y-149705000D01*
G37*
G36*
X156580000Y-149705000D02*
X155520000Y-149705000D01*
X155520000Y-148695000D01*
X156580000Y-148695000D01*
X156580000Y-149705000D01*
X156580000Y-149705000D01*
G37*
G36*
X121985000Y-149230000D02*
X121125000Y-149230000D01*
X121125000Y-147470000D01*
X121985000Y-147470000D01*
X121985000Y-149230000D01*
X121985000Y-149230000D01*
G37*
G36*
X123255000Y-149230000D02*
X122395000Y-149230000D01*
X122395000Y-147470000D01*
X123255000Y-147470000D01*
X123255000Y-149230000D01*
X123255000Y-149230000D01*
G37*
G36*
X124525000Y-149230000D02*
X123665000Y-149230000D01*
X123665000Y-147470000D01*
X124525000Y-147470000D01*
X124525000Y-149230000D01*
X124525000Y-149230000D01*
G37*
G36*
X125795000Y-149230000D02*
X124935000Y-149230000D01*
X124935000Y-147470000D01*
X125795000Y-147470000D01*
X125795000Y-149230000D01*
X125795000Y-149230000D01*
G37*
G36*
X127065000Y-149230000D02*
X126205000Y-149230000D01*
X126205000Y-147470000D01*
X127065000Y-147470000D01*
X127065000Y-149230000D01*
X127065000Y-149230000D01*
G37*
G36*
X130875000Y-149230000D02*
X130015000Y-149230000D01*
X130015000Y-147470000D01*
X130875000Y-147470000D01*
X130875000Y-149230000D01*
X130875000Y-149230000D01*
G37*
G36*
X129605000Y-149230000D02*
X128745000Y-149230000D01*
X128745000Y-147470000D01*
X129605000Y-147470000D01*
X129605000Y-149230000D01*
X129605000Y-149230000D01*
G37*
G36*
X128335000Y-149230000D02*
X127475000Y-149230000D01*
X127475000Y-147470000D01*
X128335000Y-147470000D01*
X128335000Y-149230000D01*
X128335000Y-149230000D01*
G37*
G36*
X118680000Y-148705000D02*
X117620000Y-148705000D01*
X117620000Y-147695000D01*
X118680000Y-147695000D01*
X118680000Y-148705000D01*
X118680000Y-148705000D01*
G37*
G36*
X120180000Y-148705000D02*
X119120000Y-148705000D01*
X119120000Y-147695000D01*
X120180000Y-147695000D01*
X120180000Y-148705000D01*
X120180000Y-148705000D01*
G37*
G36*
X136481383Y-147465005D02*
X135621383Y-147465005D01*
X135621383Y-145655005D01*
X136481383Y-145655005D01*
X136481383Y-147465005D01*
X136481383Y-147465005D01*
G37*
G36*
X133941383Y-147465005D02*
X133081383Y-147465005D01*
X133081383Y-145655005D01*
X133941383Y-145655005D01*
X133941383Y-147465005D01*
X133941383Y-147465005D01*
G37*
G36*
X135211383Y-147465005D02*
X134351383Y-147465005D01*
X134351383Y-145655005D01*
X135211383Y-145655005D01*
X135211383Y-147465005D01*
X135211383Y-147465005D01*
G37*
G36*
X137751383Y-147465005D02*
X136891383Y-147465005D01*
X136891383Y-145655005D01*
X137751383Y-145655005D01*
X137751383Y-147465005D01*
X137751383Y-147465005D01*
G37*
G36*
X121230000Y-146780000D02*
X120470000Y-146780000D01*
X120470000Y-145620000D01*
X121230000Y-145620000D01*
X121230000Y-146780000D01*
X121230000Y-146780000D01*
G37*
G36*
X125430000Y-146780000D02*
X124670000Y-146780000D01*
X124670000Y-145620000D01*
X125430000Y-145620000D01*
X125430000Y-146780000D01*
X125430000Y-146780000D01*
G37*
G36*
X123930000Y-146780000D02*
X123170000Y-146780000D01*
X123170000Y-145620000D01*
X123930000Y-145620000D01*
X123930000Y-146780000D01*
X123930000Y-146780000D01*
G37*
G36*
X122730000Y-146780000D02*
X121970000Y-146780000D01*
X121970000Y-145620000D01*
X122730000Y-145620000D01*
X122730000Y-146780000D01*
X122730000Y-146780000D01*
G37*
G36*
X126980000Y-146705000D02*
X125920000Y-146705000D01*
X125920000Y-145695000D01*
X126980000Y-145695000D01*
X126980000Y-146705000D01*
X126980000Y-146705000D01*
G37*
G36*
X131480000Y-146705000D02*
X130420000Y-146705000D01*
X130420000Y-145695000D01*
X131480000Y-145695000D01*
X131480000Y-146705000D01*
X131480000Y-146705000D01*
G37*
G36*
X128480000Y-146705000D02*
X127420000Y-146705000D01*
X127420000Y-145695000D01*
X128480000Y-145695000D01*
X128480000Y-146705000D01*
X128480000Y-146705000D01*
G37*
G36*
X129980000Y-146705000D02*
X128920000Y-146705000D01*
X128920000Y-145695000D01*
X129980000Y-145695000D01*
X129980000Y-146705000D01*
X129980000Y-146705000D01*
G37*
G36*
X103180270Y-143280010D02*
X101419130Y-143280010D01*
X101419130Y-140319990D01*
X103180270Y-140319990D01*
X103180270Y-143280010D01*
X103180270Y-143280010D01*
G37*
G36*
X107980870Y-143280010D02*
X106219730Y-143280010D01*
X106219730Y-140319990D01*
X107980870Y-140319990D01*
X107980870Y-143280010D01*
X107980870Y-143280010D01*
G37*
G36*
X146780870Y-142880010D02*
X145019730Y-142880010D01*
X145019730Y-139919990D01*
X146780870Y-139919990D01*
X146780870Y-142880010D01*
X146780870Y-142880010D01*
G37*
G36*
X141980270Y-142880010D02*
X140219130Y-142880010D01*
X140219130Y-139919990D01*
X141980270Y-139919990D01*
X141980270Y-142880010D01*
X141980270Y-142880010D01*
G37*
G36*
X156236271Y-140770078D02*
X156236276Y-140770079D01*
X156239365Y-140770100D01*
X156439133Y-140792508D01*
X156630744Y-140853291D01*
X156806900Y-140950133D01*
X156960891Y-141079347D01*
X157086851Y-141236010D01*
X157179983Y-141414155D01*
X157236740Y-141606997D01*
X157236745Y-141607057D01*
X157236749Y-141607069D01*
X157254961Y-141807184D01*
X157233956Y-142007039D01*
X157233954Y-142007047D01*
X157233947Y-142007110D01*
X157174503Y-142199141D01*
X157078893Y-142375969D01*
X156950757Y-142530858D01*
X156794977Y-142657909D01*
X156617486Y-142752282D01*
X156425045Y-142810384D01*
X156224984Y-142830000D01*
X156214895Y-142830000D01*
X156203729Y-142829922D01*
X156203724Y-142829921D01*
X156200635Y-142829900D01*
X156000867Y-142807492D01*
X155809256Y-142746709D01*
X155633100Y-142649867D01*
X155479109Y-142520653D01*
X155353149Y-142363990D01*
X155260017Y-142185845D01*
X155203260Y-141993003D01*
X155203255Y-141992943D01*
X155203251Y-141992931D01*
X155185039Y-141792816D01*
X155206044Y-141592961D01*
X155206046Y-141592953D01*
X155206053Y-141592890D01*
X155265497Y-141400859D01*
X155361107Y-141224031D01*
X155489243Y-141069142D01*
X155645023Y-140942091D01*
X155822514Y-140847718D01*
X156014955Y-140789616D01*
X156215016Y-140770000D01*
X156225105Y-140770000D01*
X156236271Y-140770078D01*
X156236271Y-140770078D01*
G37*
G36*
X139470000Y-142830000D02*
X137410000Y-142830000D01*
X137410000Y-140770000D01*
X139470000Y-140770000D01*
X139470000Y-142830000D01*
X139470000Y-142830000D01*
G37*
G36*
X148616271Y-140770078D02*
X148616276Y-140770079D01*
X148619365Y-140770100D01*
X148819133Y-140792508D01*
X149010744Y-140853291D01*
X149186900Y-140950133D01*
X149340891Y-141079347D01*
X149466851Y-141236010D01*
X149559983Y-141414155D01*
X149616740Y-141606997D01*
X149616745Y-141607057D01*
X149616749Y-141607069D01*
X149634961Y-141807184D01*
X149613956Y-142007039D01*
X149613954Y-142007047D01*
X149613947Y-142007110D01*
X149554503Y-142199141D01*
X149458893Y-142375969D01*
X149330757Y-142530858D01*
X149174977Y-142657909D01*
X148997486Y-142752282D01*
X148805045Y-142810384D01*
X148604984Y-142830000D01*
X148594895Y-142830000D01*
X148583729Y-142829922D01*
X148583724Y-142829921D01*
X148580635Y-142829900D01*
X148380867Y-142807492D01*
X148189256Y-142746709D01*
X148013100Y-142649867D01*
X147859109Y-142520653D01*
X147733149Y-142363990D01*
X147640017Y-142185845D01*
X147583260Y-141993003D01*
X147583255Y-141992943D01*
X147583251Y-141992931D01*
X147565039Y-141792816D01*
X147586044Y-141592961D01*
X147586046Y-141592953D01*
X147586053Y-141592890D01*
X147645497Y-141400859D01*
X147741107Y-141224031D01*
X147869243Y-141069142D01*
X148025023Y-140942091D01*
X148202514Y-140847718D01*
X148394955Y-140789616D01*
X148595016Y-140770000D01*
X148605105Y-140770000D01*
X148616271Y-140770078D01*
X148616271Y-140770078D01*
G37*
G36*
X151156271Y-140770078D02*
X151156276Y-140770079D01*
X151159365Y-140770100D01*
X151359133Y-140792508D01*
X151550744Y-140853291D01*
X151726900Y-140950133D01*
X151880891Y-141079347D01*
X152006851Y-141236010D01*
X152099983Y-141414155D01*
X152156740Y-141606997D01*
X152156745Y-141607057D01*
X152156749Y-141607069D01*
X152174961Y-141807184D01*
X152153956Y-142007039D01*
X152153954Y-142007047D01*
X152153947Y-142007110D01*
X152094503Y-142199141D01*
X151998893Y-142375969D01*
X151870757Y-142530858D01*
X151714977Y-142657909D01*
X151537486Y-142752282D01*
X151345045Y-142810384D01*
X151144984Y-142830000D01*
X151134895Y-142830000D01*
X151123729Y-142829922D01*
X151123724Y-142829921D01*
X151120635Y-142829900D01*
X150920867Y-142807492D01*
X150729256Y-142746709D01*
X150553100Y-142649867D01*
X150399109Y-142520653D01*
X150273149Y-142363990D01*
X150180017Y-142185845D01*
X150123260Y-141993003D01*
X150123255Y-141992943D01*
X150123251Y-141992931D01*
X150105039Y-141792816D01*
X150126044Y-141592961D01*
X150126046Y-141592953D01*
X150126053Y-141592890D01*
X150185497Y-141400859D01*
X150281107Y-141224031D01*
X150409243Y-141069142D01*
X150565023Y-140942091D01*
X150742514Y-140847718D01*
X150934955Y-140789616D01*
X151135016Y-140770000D01*
X151145105Y-140770000D01*
X151156271Y-140770078D01*
X151156271Y-140770078D01*
G37*
G36*
X158776271Y-140770078D02*
X158776276Y-140770079D01*
X158779365Y-140770100D01*
X158979133Y-140792508D01*
X159170744Y-140853291D01*
X159346900Y-140950133D01*
X159500891Y-141079347D01*
X159626851Y-141236010D01*
X159719983Y-141414155D01*
X159776740Y-141606997D01*
X159776745Y-141607057D01*
X159776749Y-141607069D01*
X159794961Y-141807184D01*
X159773956Y-142007039D01*
X159773954Y-142007047D01*
X159773947Y-142007110D01*
X159714503Y-142199141D01*
X159618893Y-142375969D01*
X159490757Y-142530858D01*
X159334977Y-142657909D01*
X159157486Y-142752282D01*
X158965045Y-142810384D01*
X158764984Y-142830000D01*
X158754895Y-142830000D01*
X158743729Y-142829922D01*
X158743724Y-142829921D01*
X158740635Y-142829900D01*
X158540867Y-142807492D01*
X158349256Y-142746709D01*
X158173100Y-142649867D01*
X158019109Y-142520653D01*
X157893149Y-142363990D01*
X157800017Y-142185845D01*
X157743260Y-141993003D01*
X157743255Y-141992943D01*
X157743251Y-141992931D01*
X157725039Y-141792816D01*
X157746044Y-141592961D01*
X157746046Y-141592953D01*
X157746053Y-141592890D01*
X157805497Y-141400859D01*
X157901107Y-141224031D01*
X158029243Y-141069142D01*
X158185023Y-140942091D01*
X158362514Y-140847718D01*
X158554955Y-140789616D01*
X158755016Y-140770000D01*
X158765105Y-140770000D01*
X158776271Y-140770078D01*
X158776271Y-140770078D01*
G37*
G36*
X100570000Y-142830000D02*
X98510000Y-142830000D01*
X98510000Y-140770000D01*
X100570000Y-140770000D01*
X100570000Y-142830000D01*
X100570000Y-142830000D01*
G37*
G36*
X109716271Y-140770078D02*
X109716276Y-140770079D01*
X109719365Y-140770100D01*
X109919133Y-140792508D01*
X110110744Y-140853291D01*
X110286900Y-140950133D01*
X110440891Y-141079347D01*
X110566851Y-141236010D01*
X110659983Y-141414155D01*
X110716740Y-141606997D01*
X110716745Y-141607057D01*
X110716749Y-141607069D01*
X110734961Y-141807184D01*
X110713956Y-142007039D01*
X110713954Y-142007047D01*
X110713947Y-142007110D01*
X110654503Y-142199141D01*
X110558893Y-142375969D01*
X110430757Y-142530858D01*
X110274977Y-142657909D01*
X110097486Y-142752282D01*
X109905045Y-142810384D01*
X109704984Y-142830000D01*
X109694895Y-142830000D01*
X109683729Y-142829922D01*
X109683724Y-142829921D01*
X109680635Y-142829900D01*
X109480867Y-142807492D01*
X109289256Y-142746709D01*
X109113100Y-142649867D01*
X108959109Y-142520653D01*
X108833149Y-142363990D01*
X108740017Y-142185845D01*
X108683260Y-141993003D01*
X108683255Y-141992943D01*
X108683251Y-141992931D01*
X108665039Y-141792816D01*
X108686044Y-141592961D01*
X108686046Y-141592953D01*
X108686053Y-141592890D01*
X108745497Y-141400859D01*
X108841107Y-141224031D01*
X108969243Y-141069142D01*
X109125023Y-140942091D01*
X109302514Y-140847718D01*
X109494955Y-140789616D01*
X109695016Y-140770000D01*
X109705105Y-140770000D01*
X109716271Y-140770078D01*
X109716271Y-140770078D01*
G37*
G36*
X112256271Y-140770078D02*
X112256276Y-140770079D01*
X112259365Y-140770100D01*
X112459133Y-140792508D01*
X112650744Y-140853291D01*
X112826900Y-140950133D01*
X112980891Y-141079347D01*
X113106851Y-141236010D01*
X113199983Y-141414155D01*
X113256740Y-141606997D01*
X113256745Y-141607057D01*
X113256749Y-141607069D01*
X113274961Y-141807184D01*
X113253956Y-142007039D01*
X113253954Y-142007047D01*
X113253947Y-142007110D01*
X113194503Y-142199141D01*
X113098893Y-142375969D01*
X112970757Y-142530858D01*
X112814977Y-142657909D01*
X112637486Y-142752282D01*
X112445045Y-142810384D01*
X112244984Y-142830000D01*
X112234895Y-142830000D01*
X112223729Y-142829922D01*
X112223724Y-142829921D01*
X112220635Y-142829900D01*
X112020867Y-142807492D01*
X111829256Y-142746709D01*
X111653100Y-142649867D01*
X111499109Y-142520653D01*
X111373149Y-142363990D01*
X111280017Y-142185845D01*
X111223260Y-141993003D01*
X111223255Y-141992943D01*
X111223251Y-141992931D01*
X111205039Y-141792816D01*
X111226044Y-141592961D01*
X111226046Y-141592953D01*
X111226053Y-141592890D01*
X111285497Y-141400859D01*
X111381107Y-141224031D01*
X111509243Y-141069142D01*
X111665023Y-140942091D01*
X111842514Y-140847718D01*
X112034955Y-140789616D01*
X112235016Y-140770000D01*
X112245105Y-140770000D01*
X112256271Y-140770078D01*
X112256271Y-140770078D01*
G37*
G36*
X114796271Y-140770078D02*
X114796276Y-140770079D01*
X114799365Y-140770100D01*
X114999133Y-140792508D01*
X115190744Y-140853291D01*
X115366900Y-140950133D01*
X115520891Y-141079347D01*
X115646851Y-141236010D01*
X115739983Y-141414155D01*
X115796740Y-141606997D01*
X115796745Y-141607057D01*
X115796749Y-141607069D01*
X115814961Y-141807184D01*
X115793956Y-142007039D01*
X115793954Y-142007047D01*
X115793947Y-142007110D01*
X115734503Y-142199141D01*
X115638893Y-142375969D01*
X115510757Y-142530858D01*
X115354977Y-142657909D01*
X115177486Y-142752282D01*
X114985045Y-142810384D01*
X114784984Y-142830000D01*
X114774895Y-142830000D01*
X114763729Y-142829922D01*
X114763724Y-142829921D01*
X114760635Y-142829900D01*
X114560867Y-142807492D01*
X114369256Y-142746709D01*
X114193100Y-142649867D01*
X114039109Y-142520653D01*
X113913149Y-142363990D01*
X113820017Y-142185845D01*
X113763260Y-141993003D01*
X113763255Y-141992943D01*
X113763251Y-141992931D01*
X113745039Y-141792816D01*
X113766044Y-141592961D01*
X113766046Y-141592953D01*
X113766053Y-141592890D01*
X113825497Y-141400859D01*
X113921107Y-141224031D01*
X114049243Y-141069142D01*
X114205023Y-140942091D01*
X114382514Y-140847718D01*
X114574955Y-140789616D01*
X114775016Y-140770000D01*
X114785105Y-140770000D01*
X114796271Y-140770078D01*
X114796271Y-140770078D01*
G37*
G36*
X117336271Y-140770078D02*
X117336276Y-140770079D01*
X117339365Y-140770100D01*
X117539133Y-140792508D01*
X117730744Y-140853291D01*
X117906900Y-140950133D01*
X118060891Y-141079347D01*
X118186851Y-141236010D01*
X118279983Y-141414155D01*
X118336740Y-141606997D01*
X118336745Y-141607057D01*
X118336749Y-141607069D01*
X118354961Y-141807184D01*
X118333956Y-142007039D01*
X118333954Y-142007047D01*
X118333947Y-142007110D01*
X118274503Y-142199141D01*
X118178893Y-142375969D01*
X118050757Y-142530858D01*
X117894977Y-142657909D01*
X117717486Y-142752282D01*
X117525045Y-142810384D01*
X117324984Y-142830000D01*
X117314895Y-142830000D01*
X117303729Y-142829922D01*
X117303724Y-142829921D01*
X117300635Y-142829900D01*
X117100867Y-142807492D01*
X116909256Y-142746709D01*
X116733100Y-142649867D01*
X116579109Y-142520653D01*
X116453149Y-142363990D01*
X116360017Y-142185845D01*
X116303260Y-141993003D01*
X116303255Y-141992943D01*
X116303251Y-141992931D01*
X116285039Y-141792816D01*
X116306044Y-141592961D01*
X116306046Y-141592953D01*
X116306053Y-141592890D01*
X116365497Y-141400859D01*
X116461107Y-141224031D01*
X116589243Y-141069142D01*
X116745023Y-140942091D01*
X116922514Y-140847718D01*
X117114955Y-140789616D01*
X117315016Y-140770000D01*
X117325105Y-140770000D01*
X117336271Y-140770078D01*
X117336271Y-140770078D01*
G37*
G36*
X119876271Y-140770078D02*
X119876276Y-140770079D01*
X119879365Y-140770100D01*
X120079133Y-140792508D01*
X120270744Y-140853291D01*
X120446900Y-140950133D01*
X120600891Y-141079347D01*
X120726851Y-141236010D01*
X120819983Y-141414155D01*
X120876740Y-141606997D01*
X120876745Y-141607057D01*
X120876749Y-141607069D01*
X120894961Y-141807184D01*
X120873956Y-142007039D01*
X120873954Y-142007047D01*
X120873947Y-142007110D01*
X120814503Y-142199141D01*
X120718893Y-142375969D01*
X120590757Y-142530858D01*
X120434977Y-142657909D01*
X120257486Y-142752282D01*
X120065045Y-142810384D01*
X119864984Y-142830000D01*
X119854895Y-142830000D01*
X119843729Y-142829922D01*
X119843724Y-142829921D01*
X119840635Y-142829900D01*
X119640867Y-142807492D01*
X119449256Y-142746709D01*
X119273100Y-142649867D01*
X119119109Y-142520653D01*
X118993149Y-142363990D01*
X118900017Y-142185845D01*
X118843260Y-141993003D01*
X118843255Y-141992943D01*
X118843251Y-141992931D01*
X118825039Y-141792816D01*
X118846044Y-141592961D01*
X118846046Y-141592953D01*
X118846053Y-141592890D01*
X118905497Y-141400859D01*
X119001107Y-141224031D01*
X119129243Y-141069142D01*
X119285023Y-140942091D01*
X119462514Y-140847718D01*
X119654955Y-140789616D01*
X119855016Y-140770000D01*
X119865105Y-140770000D01*
X119876271Y-140770078D01*
X119876271Y-140770078D01*
G37*
G36*
X153696271Y-140770078D02*
X153696276Y-140770079D01*
X153699365Y-140770100D01*
X153899133Y-140792508D01*
X154090744Y-140853291D01*
X154266900Y-140950133D01*
X154420891Y-141079347D01*
X154546851Y-141236010D01*
X154639983Y-141414155D01*
X154696740Y-141606997D01*
X154696745Y-141607057D01*
X154696749Y-141607069D01*
X154714961Y-141807184D01*
X154693956Y-142007039D01*
X154693954Y-142007047D01*
X154693947Y-142007110D01*
X154634503Y-142199141D01*
X154538893Y-142375969D01*
X154410757Y-142530858D01*
X154254977Y-142657909D01*
X154077486Y-142752282D01*
X153885045Y-142810384D01*
X153684984Y-142830000D01*
X153674895Y-142830000D01*
X153663729Y-142829922D01*
X153663724Y-142829921D01*
X153660635Y-142829900D01*
X153460867Y-142807492D01*
X153269256Y-142746709D01*
X153093100Y-142649867D01*
X152939109Y-142520653D01*
X152813149Y-142363990D01*
X152720017Y-142185845D01*
X152663260Y-141993003D01*
X152663255Y-141992943D01*
X152663251Y-141992931D01*
X152645039Y-141792816D01*
X152666044Y-141592961D01*
X152666046Y-141592953D01*
X152666053Y-141592890D01*
X152725497Y-141400859D01*
X152821107Y-141224031D01*
X152949243Y-141069142D01*
X153105023Y-140942091D01*
X153282514Y-140847718D01*
X153474955Y-140789616D01*
X153675016Y-140770000D01*
X153685105Y-140770000D01*
X153696271Y-140770078D01*
X153696271Y-140770078D01*
G37*
G36*
X136330000Y-142305000D02*
X135270000Y-142305000D01*
X135270000Y-141295000D01*
X136330000Y-141295000D01*
X136330000Y-142305000D01*
X136330000Y-142305000D01*
G37*
G36*
X134830000Y-142305000D02*
X133770000Y-142305000D01*
X133770000Y-141295000D01*
X134830000Y-141295000D01*
X134830000Y-142305000D01*
X134830000Y-142305000D01*
G37*
G36*
X129530000Y-141730000D02*
X128370000Y-141730000D01*
X128370000Y-140370000D01*
X129530000Y-140370000D01*
X129530000Y-141730000D01*
X129530000Y-141730000D01*
G37*
G36*
X131830000Y-141730000D02*
X130670000Y-141730000D01*
X130670000Y-140370000D01*
X131830000Y-140370000D01*
X131830000Y-141730000D01*
X131830000Y-141730000D01*
G37*
G36*
X114680000Y-140305000D02*
X113620000Y-140305000D01*
X113620000Y-139295000D01*
X114680000Y-139295000D01*
X114680000Y-140305000D01*
X114680000Y-140305000D01*
G37*
G36*
X113180000Y-140305000D02*
X112120000Y-140305000D01*
X112120000Y-139295000D01*
X113180000Y-139295000D01*
X113180000Y-140305000D01*
X113180000Y-140305000D01*
G37*
G36*
X104860000Y-140080000D02*
X103600000Y-140080000D01*
X103600000Y-137520000D01*
X104860000Y-137520000D01*
X104860000Y-140080000D01*
X104860000Y-140080000D01*
G37*
G36*
X109940000Y-140080000D02*
X108680000Y-140080000D01*
X108680000Y-137520000D01*
X109940000Y-137520000D01*
X109940000Y-140080000D01*
X109940000Y-140080000D01*
G37*
G36*
X102320000Y-140080000D02*
X101060000Y-140080000D01*
X101060000Y-137520000D01*
X102320000Y-137520000D01*
X102320000Y-140080000D01*
X102320000Y-140080000D01*
G37*
G36*
X98605000Y-140080000D02*
X97595000Y-140080000D01*
X97595000Y-139020000D01*
X98605000Y-139020000D01*
X98605000Y-140080000D01*
X98605000Y-140080000D01*
G37*
G36*
X132180000Y-139680000D02*
X130920000Y-139680000D01*
X130920000Y-137820000D01*
X132180000Y-137820000D01*
X132180000Y-139680000D01*
X132180000Y-139680000D01*
G37*
G36*
X129180000Y-139680000D02*
X127920000Y-139680000D01*
X127920000Y-137820000D01*
X129180000Y-137820000D01*
X129180000Y-139680000D01*
X129180000Y-139680000D01*
G37*
G36*
X124230000Y-139430000D02*
X122970000Y-139430000D01*
X122970000Y-137570000D01*
X124230000Y-137570000D01*
X124230000Y-139430000D01*
X124230000Y-139430000D01*
G37*
G36*
X121230000Y-139430000D02*
X119970000Y-139430000D01*
X119970000Y-137570000D01*
X121230000Y-137570000D01*
X121230000Y-139430000D01*
X121230000Y-139430000D01*
G37*
G36*
X157040000Y-139380000D02*
X155780000Y-139380000D01*
X155780000Y-136820000D01*
X157040000Y-136820000D01*
X157040000Y-139380000D01*
X157040000Y-139380000D01*
G37*
G36*
X149420000Y-139380000D02*
X148160000Y-139380000D01*
X148160000Y-136820000D01*
X149420000Y-136820000D01*
X149420000Y-139380000D01*
X149420000Y-139380000D01*
G37*
G36*
X98605000Y-138580000D02*
X97595000Y-138580000D01*
X97595000Y-137520000D01*
X98605000Y-137520000D01*
X98605000Y-138580000D01*
X98605000Y-138580000D01*
G37*
G36*
X116630000Y-137980000D02*
X115470000Y-137980000D01*
X115470000Y-136020000D01*
X116630000Y-136020000D01*
X116630000Y-137980000D01*
X116630000Y-137980000D01*
G37*
G36*
X113730000Y-137980000D02*
X112570000Y-137980000D01*
X112570000Y-136020000D01*
X113730000Y-136020000D01*
X113730000Y-137980000D01*
X113730000Y-137980000D01*
G37*
G36*
X141080000Y-137530000D02*
X139120000Y-137530000D01*
X139120000Y-136370000D01*
X141080000Y-136370000D01*
X141080000Y-137530000D01*
X141080000Y-137530000D01*
G37*
G36*
X136280000Y-137530000D02*
X134320000Y-137530000D01*
X134320000Y-136370000D01*
X136280000Y-136370000D01*
X136280000Y-137530000D01*
X136280000Y-137530000D01*
G37*
G36*
X143480000Y-137530000D02*
X141520000Y-137530000D01*
X141520000Y-136370000D01*
X143480000Y-136370000D01*
X143480000Y-137530000D01*
X143480000Y-137530000D01*
G37*
G36*
X138680000Y-137530000D02*
X136720000Y-137530000D01*
X136720000Y-136370000D01*
X138680000Y-136370000D01*
X138680000Y-137530000D01*
X138680000Y-137530000D01*
G37*
G36*
X119870000Y-137370000D02*
X117930000Y-137370000D01*
X117930000Y-135410000D01*
X119870000Y-135410000D01*
X119870000Y-137370000D01*
X119870000Y-137370000D01*
G37*
G36*
X130630000Y-137205000D02*
X129570000Y-137205000D01*
X129570000Y-136195000D01*
X130630000Y-136195000D01*
X130630000Y-137205000D01*
X130630000Y-137205000D01*
G37*
G36*
X129130000Y-137205000D02*
X128070000Y-137205000D01*
X128070000Y-136195000D01*
X129130000Y-136195000D01*
X129130000Y-137205000D01*
X129130000Y-137205000D01*
G37*
G36*
X122630000Y-137105000D02*
X121570000Y-137105000D01*
X121570000Y-136095000D01*
X122630000Y-136095000D01*
X122630000Y-137105000D01*
X122630000Y-137105000D01*
G37*
G36*
X124130000Y-137105000D02*
X123070000Y-137105000D01*
X123070000Y-136095000D01*
X124130000Y-136095000D01*
X124130000Y-137105000D01*
X124130000Y-137105000D01*
G37*
G36*
X116630000Y-135580000D02*
X115470000Y-135580000D01*
X115470000Y-133620000D01*
X116630000Y-133620000D01*
X116630000Y-135580000D01*
X116630000Y-135580000D01*
G37*
G36*
X113730000Y-135580000D02*
X112570000Y-135580000D01*
X112570000Y-133620000D01*
X113730000Y-133620000D01*
X113730000Y-135580000D01*
X113730000Y-135580000D01*
G37*
G36*
X127065000Y-135530000D02*
X126205000Y-135530000D01*
X126205000Y-133770000D01*
X127065000Y-133770000D01*
X127065000Y-135530000D01*
X127065000Y-135530000D01*
G37*
G36*
X125795000Y-135530000D02*
X124935000Y-135530000D01*
X124935000Y-133770000D01*
X125795000Y-133770000D01*
X125795000Y-135530000D01*
X125795000Y-135530000D01*
G37*
G36*
X124525000Y-135530000D02*
X123665000Y-135530000D01*
X123665000Y-133770000D01*
X124525000Y-133770000D01*
X124525000Y-135530000D01*
X124525000Y-135530000D01*
G37*
G36*
X123255000Y-135530000D02*
X122395000Y-135530000D01*
X122395000Y-133770000D01*
X123255000Y-133770000D01*
X123255000Y-135530000D01*
X123255000Y-135530000D01*
G37*
G36*
X129605000Y-135530000D02*
X128745000Y-135530000D01*
X128745000Y-133770000D01*
X129605000Y-133770000D01*
X129605000Y-135530000D01*
X129605000Y-135530000D01*
G37*
G36*
X128335000Y-135530000D02*
X127475000Y-135530000D01*
X127475000Y-133770000D01*
X128335000Y-133770000D01*
X128335000Y-135530000D01*
X128335000Y-135530000D01*
G37*
G36*
X121985000Y-135530000D02*
X121125000Y-135530000D01*
X121125000Y-133770000D01*
X121985000Y-133770000D01*
X121985000Y-135530000D01*
X121985000Y-135530000D01*
G37*
G36*
X130875000Y-135530000D02*
X130015000Y-135530000D01*
X130015000Y-133770000D01*
X130875000Y-133770000D01*
X130875000Y-135530000D01*
X130875000Y-135530000D01*
G37*
G36*
X138680000Y-134630000D02*
X136720000Y-134630000D01*
X136720000Y-133470000D01*
X138680000Y-133470000D01*
X138680000Y-134630000D01*
X138680000Y-134630000D01*
G37*
G36*
X143480000Y-134630000D02*
X141520000Y-134630000D01*
X141520000Y-133470000D01*
X143480000Y-133470000D01*
X143480000Y-134630000D01*
X143480000Y-134630000D01*
G37*
G36*
X141080000Y-134630000D02*
X139120000Y-134630000D01*
X139120000Y-133470000D01*
X141080000Y-133470000D01*
X141080000Y-134630000D01*
X141080000Y-134630000D01*
G37*
G36*
X136280000Y-134630000D02*
X134320000Y-134630000D01*
X134320000Y-133470000D01*
X136280000Y-133470000D01*
X136280000Y-134630000D01*
X136280000Y-134630000D01*
G37*
G36*
X119870000Y-133790000D02*
X117930000Y-133790000D01*
X117930000Y-131830000D01*
X119870000Y-131830000D01*
X119870000Y-133790000D01*
X119870000Y-133790000D01*
G37*
G36*
X116580000Y-133180000D02*
X115420000Y-133180000D01*
X115420000Y-131220000D01*
X116580000Y-131220000D01*
X116580000Y-133180000D01*
X116580000Y-133180000D01*
G37*
G36*
X113680000Y-133180000D02*
X112520000Y-133180000D01*
X112520000Y-131220000D01*
X113680000Y-131220000D01*
X113680000Y-133180000D01*
X113680000Y-133180000D01*
G37*
G36*
X142070000Y-132670000D02*
X140110000Y-132670000D01*
X140110000Y-130730000D01*
X142070000Y-130730000D01*
X142070000Y-132670000D01*
X142070000Y-132670000D01*
G37*
G36*
X138490000Y-132670000D02*
X136530000Y-132670000D01*
X136530000Y-130730000D01*
X138490000Y-130730000D01*
X138490000Y-132670000D01*
X138490000Y-132670000D01*
G37*
G36*
X118980000Y-130980000D02*
X117620000Y-130980000D01*
X117620000Y-129820000D01*
X118980000Y-129820000D01*
X118980000Y-130980000D01*
X118980000Y-130980000D01*
G37*
G36*
X113680000Y-130680000D02*
X112520000Y-130680000D01*
X112520000Y-128720000D01*
X113680000Y-128720000D01*
X113680000Y-130680000D01*
X113680000Y-130680000D01*
G37*
G36*
X109940000Y-130680000D02*
X108680000Y-130680000D01*
X108680000Y-128120000D01*
X109940000Y-128120000D01*
X109940000Y-130680000D01*
X109940000Y-130680000D01*
G37*
G36*
X116580000Y-130680000D02*
X115420000Y-130680000D01*
X115420000Y-128720000D01*
X116580000Y-128720000D01*
X116580000Y-130680000D01*
X116580000Y-130680000D01*
G37*
G36*
X102320000Y-130680000D02*
X101060000Y-130680000D01*
X101060000Y-128120000D01*
X102320000Y-128120000D01*
X102320000Y-130680000D01*
X102320000Y-130680000D01*
G37*
G36*
X154500000Y-129980000D02*
X153240000Y-129980000D01*
X153240000Y-127420000D01*
X154500000Y-127420000D01*
X154500000Y-129980000D01*
X154500000Y-129980000D01*
G37*
G36*
X157040000Y-129980000D02*
X155780000Y-129980000D01*
X155780000Y-127420000D01*
X157040000Y-127420000D01*
X157040000Y-129980000D01*
X157040000Y-129980000D01*
G37*
G36*
X149420000Y-129980000D02*
X148160000Y-129980000D01*
X148160000Y-127420000D01*
X149420000Y-127420000D01*
X149420000Y-129980000D01*
X149420000Y-129980000D01*
G37*
G36*
X136481383Y-129865005D02*
X135621383Y-129865005D01*
X135621383Y-128055005D01*
X136481383Y-128055005D01*
X136481383Y-129865005D01*
X136481383Y-129865005D01*
G37*
G36*
X133941383Y-129865005D02*
X133081383Y-129865005D01*
X133081383Y-128055005D01*
X133941383Y-128055005D01*
X133941383Y-129865005D01*
X133941383Y-129865005D01*
G37*
G36*
X135211383Y-129865005D02*
X134351383Y-129865005D01*
X134351383Y-128055005D01*
X135211383Y-128055005D01*
X135211383Y-129865005D01*
X135211383Y-129865005D01*
G37*
G36*
X137751383Y-129865005D02*
X136891383Y-129865005D01*
X136891383Y-128055005D01*
X137751383Y-128055005D01*
X137751383Y-129865005D01*
X137751383Y-129865005D01*
G37*
G36*
X141005000Y-129830000D02*
X139995000Y-129830000D01*
X139995000Y-128770000D01*
X141005000Y-128770000D01*
X141005000Y-129830000D01*
X141005000Y-129830000D01*
G37*
G36*
X139505000Y-129830000D02*
X138495000Y-129830000D01*
X138495000Y-128770000D01*
X139505000Y-128770000D01*
X139505000Y-129830000D01*
X139505000Y-129830000D01*
G37*
G36*
X118980000Y-128680000D02*
X117620000Y-128680000D01*
X117620000Y-127520000D01*
X118980000Y-127520000D01*
X118980000Y-128680000D01*
X118980000Y-128680000D01*
G37*
G36*
X139505000Y-128330000D02*
X138495000Y-128330000D01*
X138495000Y-127270000D01*
X139505000Y-127270000D01*
X139505000Y-128330000D01*
X139505000Y-128330000D01*
G37*
G36*
X141005000Y-128330000D02*
X139995000Y-128330000D01*
X139995000Y-127270000D01*
X141005000Y-127270000D01*
X141005000Y-128330000D01*
X141005000Y-128330000D01*
G37*
G36*
X155080000Y-126705000D02*
X154020000Y-126705000D01*
X154020000Y-125695000D01*
X155080000Y-125695000D01*
X155080000Y-126705000D01*
X155080000Y-126705000D01*
G37*
G36*
X156580000Y-126705000D02*
X155520000Y-126705000D01*
X155520000Y-125695000D01*
X156580000Y-125695000D01*
X156580000Y-126705000D01*
X156580000Y-126705000D01*
G37*
G36*
X128335000Y-126230000D02*
X127475000Y-126230000D01*
X127475000Y-124470000D01*
X128335000Y-124470000D01*
X128335000Y-126230000D01*
X128335000Y-126230000D01*
G37*
G36*
X121985000Y-126230000D02*
X121125000Y-126230000D01*
X121125000Y-124470000D01*
X121985000Y-124470000D01*
X121985000Y-126230000D01*
X121985000Y-126230000D01*
G37*
G36*
X123255000Y-126230000D02*
X122395000Y-126230000D01*
X122395000Y-124470000D01*
X123255000Y-124470000D01*
X123255000Y-126230000D01*
X123255000Y-126230000D01*
G37*
G36*
X124525000Y-126230000D02*
X123665000Y-126230000D01*
X123665000Y-124470000D01*
X124525000Y-124470000D01*
X124525000Y-126230000D01*
X124525000Y-126230000D01*
G37*
G36*
X125795000Y-126230000D02*
X124935000Y-126230000D01*
X124935000Y-124470000D01*
X125795000Y-124470000D01*
X125795000Y-126230000D01*
X125795000Y-126230000D01*
G37*
G36*
X130875000Y-126230000D02*
X130015000Y-126230000D01*
X130015000Y-124470000D01*
X130875000Y-124470000D01*
X130875000Y-126230000D01*
X130875000Y-126230000D01*
G37*
G36*
X127065000Y-126230000D02*
X126205000Y-126230000D01*
X126205000Y-124470000D01*
X127065000Y-124470000D01*
X127065000Y-126230000D01*
X127065000Y-126230000D01*
G37*
G36*
X129605000Y-126230000D02*
X128745000Y-126230000D01*
X128745000Y-124470000D01*
X129605000Y-124470000D01*
X129605000Y-126230000D01*
X129605000Y-126230000D01*
G37*
G36*
X118680000Y-125705000D02*
X117620000Y-125705000D01*
X117620000Y-124695000D01*
X118680000Y-124695000D01*
X118680000Y-125705000D01*
X118680000Y-125705000D01*
G37*
G36*
X120180000Y-125705000D02*
X119120000Y-125705000D01*
X119120000Y-124695000D01*
X120180000Y-124695000D01*
X120180000Y-125705000D01*
X120180000Y-125705000D01*
G37*
G36*
X136481383Y-124465005D02*
X135621383Y-124465005D01*
X135621383Y-122655005D01*
X136481383Y-122655005D01*
X136481383Y-124465005D01*
X136481383Y-124465005D01*
G37*
G36*
X137751383Y-124465005D02*
X136891383Y-124465005D01*
X136891383Y-122655005D01*
X137751383Y-122655005D01*
X137751383Y-124465005D01*
X137751383Y-124465005D01*
G37*
G36*
X135211383Y-124465005D02*
X134351383Y-124465005D01*
X134351383Y-122655005D01*
X135211383Y-122655005D01*
X135211383Y-124465005D01*
X135211383Y-124465005D01*
G37*
G36*
X133941383Y-124465005D02*
X133081383Y-124465005D01*
X133081383Y-122655005D01*
X133941383Y-122655005D01*
X133941383Y-124465005D01*
X133941383Y-124465005D01*
G37*
G36*
X123930000Y-123780000D02*
X123170000Y-123780000D01*
X123170000Y-122620000D01*
X123930000Y-122620000D01*
X123930000Y-123780000D01*
X123930000Y-123780000D01*
G37*
G36*
X125430000Y-123780000D02*
X124670000Y-123780000D01*
X124670000Y-122620000D01*
X125430000Y-122620000D01*
X125430000Y-123780000D01*
X125430000Y-123780000D01*
G37*
G36*
X121230000Y-123780000D02*
X120470000Y-123780000D01*
X120470000Y-122620000D01*
X121230000Y-122620000D01*
X121230000Y-123780000D01*
X121230000Y-123780000D01*
G37*
G36*
X122730000Y-123780000D02*
X121970000Y-123780000D01*
X121970000Y-122620000D01*
X122730000Y-122620000D01*
X122730000Y-123780000D01*
X122730000Y-123780000D01*
G37*
G36*
X128480000Y-123705000D02*
X127420000Y-123705000D01*
X127420000Y-122695000D01*
X128480000Y-122695000D01*
X128480000Y-123705000D01*
X128480000Y-123705000D01*
G37*
G36*
X126980000Y-123705000D02*
X125920000Y-123705000D01*
X125920000Y-122695000D01*
X126980000Y-122695000D01*
X126980000Y-123705000D01*
X126980000Y-123705000D01*
G37*
G36*
X131480000Y-123705000D02*
X130420000Y-123705000D01*
X130420000Y-122695000D01*
X131480000Y-122695000D01*
X131480000Y-123705000D01*
X131480000Y-123705000D01*
G37*
G36*
X129980000Y-123705000D02*
X128920000Y-123705000D01*
X128920000Y-122695000D01*
X129980000Y-122695000D01*
X129980000Y-123705000D01*
X129980000Y-123705000D01*
G37*
G36*
X103180270Y-120280010D02*
X101419130Y-120280010D01*
X101419130Y-117319990D01*
X103180270Y-117319990D01*
X103180270Y-120280010D01*
X103180270Y-120280010D01*
G37*
G36*
X107980870Y-120280010D02*
X106219730Y-120280010D01*
X106219730Y-117319990D01*
X107980870Y-117319990D01*
X107980870Y-120280010D01*
X107980870Y-120280010D01*
G37*
G36*
X141980270Y-119880010D02*
X140219130Y-119880010D01*
X140219130Y-116919990D01*
X141980270Y-116919990D01*
X141980270Y-119880010D01*
X141980270Y-119880010D01*
G37*
G36*
X146780870Y-119880010D02*
X145019730Y-119880010D01*
X145019730Y-116919990D01*
X146780870Y-116919990D01*
X146780870Y-119880010D01*
X146780870Y-119880010D01*
G37*
G36*
X148616271Y-117770078D02*
X148616276Y-117770079D01*
X148619365Y-117770100D01*
X148819133Y-117792508D01*
X149010744Y-117853291D01*
X149186900Y-117950133D01*
X149340891Y-118079347D01*
X149466851Y-118236010D01*
X149559983Y-118414155D01*
X149616740Y-118606997D01*
X149616745Y-118607057D01*
X149616749Y-118607069D01*
X149634961Y-118807184D01*
X149613956Y-119007039D01*
X149613954Y-119007047D01*
X149613947Y-119007110D01*
X149554503Y-119199141D01*
X149458893Y-119375969D01*
X149330757Y-119530858D01*
X149174977Y-119657909D01*
X148997486Y-119752282D01*
X148805045Y-119810384D01*
X148604984Y-119830000D01*
X148594895Y-119830000D01*
X148583729Y-119829922D01*
X148583724Y-119829921D01*
X148580635Y-119829900D01*
X148380867Y-119807492D01*
X148189256Y-119746709D01*
X148013100Y-119649867D01*
X147859109Y-119520653D01*
X147733149Y-119363990D01*
X147640017Y-119185845D01*
X147583260Y-118993003D01*
X147583255Y-118992943D01*
X147583251Y-118992931D01*
X147565039Y-118792816D01*
X147586044Y-118592961D01*
X147586046Y-118592953D01*
X147586053Y-118592890D01*
X147645497Y-118400859D01*
X147741107Y-118224031D01*
X147869243Y-118069142D01*
X148025023Y-117942091D01*
X148202514Y-117847718D01*
X148394955Y-117789616D01*
X148595016Y-117770000D01*
X148605105Y-117770000D01*
X148616271Y-117770078D01*
X148616271Y-117770078D01*
G37*
G36*
X158776271Y-117770078D02*
X158776276Y-117770079D01*
X158779365Y-117770100D01*
X158979133Y-117792508D01*
X159170744Y-117853291D01*
X159346900Y-117950133D01*
X159500891Y-118079347D01*
X159626851Y-118236010D01*
X159719983Y-118414155D01*
X159776740Y-118606997D01*
X159776745Y-118607057D01*
X159776749Y-118607069D01*
X159794961Y-118807184D01*
X159773956Y-119007039D01*
X159773954Y-119007047D01*
X159773947Y-119007110D01*
X159714503Y-119199141D01*
X159618893Y-119375969D01*
X159490757Y-119530858D01*
X159334977Y-119657909D01*
X159157486Y-119752282D01*
X158965045Y-119810384D01*
X158764984Y-119830000D01*
X158754895Y-119830000D01*
X158743729Y-119829922D01*
X158743724Y-119829921D01*
X158740635Y-119829900D01*
X158540867Y-119807492D01*
X158349256Y-119746709D01*
X158173100Y-119649867D01*
X158019109Y-119520653D01*
X157893149Y-119363990D01*
X157800017Y-119185845D01*
X157743260Y-118993003D01*
X157743255Y-118992943D01*
X157743251Y-118992931D01*
X157725039Y-118792816D01*
X157746044Y-118592961D01*
X157746046Y-118592953D01*
X157746053Y-118592890D01*
X157805497Y-118400859D01*
X157901107Y-118224031D01*
X158029243Y-118069142D01*
X158185023Y-117942091D01*
X158362514Y-117847718D01*
X158554955Y-117789616D01*
X158755016Y-117770000D01*
X158765105Y-117770000D01*
X158776271Y-117770078D01*
X158776271Y-117770078D01*
G37*
G36*
X156236271Y-117770078D02*
X156236276Y-117770079D01*
X156239365Y-117770100D01*
X156439133Y-117792508D01*
X156630744Y-117853291D01*
X156806900Y-117950133D01*
X156960891Y-118079347D01*
X157086851Y-118236010D01*
X157179983Y-118414155D01*
X157236740Y-118606997D01*
X157236745Y-118607057D01*
X157236749Y-118607069D01*
X157254961Y-118807184D01*
X157233956Y-119007039D01*
X157233954Y-119007047D01*
X157233947Y-119007110D01*
X157174503Y-119199141D01*
X157078893Y-119375969D01*
X156950757Y-119530858D01*
X156794977Y-119657909D01*
X156617486Y-119752282D01*
X156425045Y-119810384D01*
X156224984Y-119830000D01*
X156214895Y-119830000D01*
X156203729Y-119829922D01*
X156203724Y-119829921D01*
X156200635Y-119829900D01*
X156000867Y-119807492D01*
X155809256Y-119746709D01*
X155633100Y-119649867D01*
X155479109Y-119520653D01*
X155353149Y-119363990D01*
X155260017Y-119185845D01*
X155203260Y-118993003D01*
X155203255Y-118992943D01*
X155203251Y-118992931D01*
X155185039Y-118792816D01*
X155206044Y-118592961D01*
X155206046Y-118592953D01*
X155206053Y-118592890D01*
X155265497Y-118400859D01*
X155361107Y-118224031D01*
X155489243Y-118069142D01*
X155645023Y-117942091D01*
X155822514Y-117847718D01*
X156014955Y-117789616D01*
X156215016Y-117770000D01*
X156225105Y-117770000D01*
X156236271Y-117770078D01*
X156236271Y-117770078D01*
G37*
G36*
X114796271Y-117770078D02*
X114796276Y-117770079D01*
X114799365Y-117770100D01*
X114999133Y-117792508D01*
X115190744Y-117853291D01*
X115366900Y-117950133D01*
X115520891Y-118079347D01*
X115646851Y-118236010D01*
X115739983Y-118414155D01*
X115796740Y-118606997D01*
X115796745Y-118607057D01*
X115796749Y-118607069D01*
X115814961Y-118807184D01*
X115793956Y-119007039D01*
X115793954Y-119007047D01*
X115793947Y-119007110D01*
X115734503Y-119199141D01*
X115638893Y-119375969D01*
X115510757Y-119530858D01*
X115354977Y-119657909D01*
X115177486Y-119752282D01*
X114985045Y-119810384D01*
X114784984Y-119830000D01*
X114774895Y-119830000D01*
X114763729Y-119829922D01*
X114763724Y-119829921D01*
X114760635Y-119829900D01*
X114560867Y-119807492D01*
X114369256Y-119746709D01*
X114193100Y-119649867D01*
X114039109Y-119520653D01*
X113913149Y-119363990D01*
X113820017Y-119185845D01*
X113763260Y-118993003D01*
X113763255Y-118992943D01*
X113763251Y-118992931D01*
X113745039Y-118792816D01*
X113766044Y-118592961D01*
X113766046Y-118592953D01*
X113766053Y-118592890D01*
X113825497Y-118400859D01*
X113921107Y-118224031D01*
X114049243Y-118069142D01*
X114205023Y-117942091D01*
X114382514Y-117847718D01*
X114574955Y-117789616D01*
X114775016Y-117770000D01*
X114785105Y-117770000D01*
X114796271Y-117770078D01*
X114796271Y-117770078D01*
G37*
G36*
X109716271Y-117770078D02*
X109716276Y-117770079D01*
X109719365Y-117770100D01*
X109919133Y-117792508D01*
X110110744Y-117853291D01*
X110286900Y-117950133D01*
X110440891Y-118079347D01*
X110566851Y-118236010D01*
X110659983Y-118414155D01*
X110716740Y-118606997D01*
X110716745Y-118607057D01*
X110716749Y-118607069D01*
X110734961Y-118807184D01*
X110713956Y-119007039D01*
X110713954Y-119007047D01*
X110713947Y-119007110D01*
X110654503Y-119199141D01*
X110558893Y-119375969D01*
X110430757Y-119530858D01*
X110274977Y-119657909D01*
X110097486Y-119752282D01*
X109905045Y-119810384D01*
X109704984Y-119830000D01*
X109694895Y-119830000D01*
X109683729Y-119829922D01*
X109683724Y-119829921D01*
X109680635Y-119829900D01*
X109480867Y-119807492D01*
X109289256Y-119746709D01*
X109113100Y-119649867D01*
X108959109Y-119520653D01*
X108833149Y-119363990D01*
X108740017Y-119185845D01*
X108683260Y-118993003D01*
X108683255Y-118992943D01*
X108683251Y-118992931D01*
X108665039Y-118792816D01*
X108686044Y-118592961D01*
X108686046Y-118592953D01*
X108686053Y-118592890D01*
X108745497Y-118400859D01*
X108841107Y-118224031D01*
X108969243Y-118069142D01*
X109125023Y-117942091D01*
X109302514Y-117847718D01*
X109494955Y-117789616D01*
X109695016Y-117770000D01*
X109705105Y-117770000D01*
X109716271Y-117770078D01*
X109716271Y-117770078D01*
G37*
G36*
X112256271Y-117770078D02*
X112256276Y-117770079D01*
X112259365Y-117770100D01*
X112459133Y-117792508D01*
X112650744Y-117853291D01*
X112826900Y-117950133D01*
X112980891Y-118079347D01*
X113106851Y-118236010D01*
X113199983Y-118414155D01*
X113256740Y-118606997D01*
X113256745Y-118607057D01*
X113256749Y-118607069D01*
X113274961Y-118807184D01*
X113253956Y-119007039D01*
X113253954Y-119007047D01*
X113253947Y-119007110D01*
X113194503Y-119199141D01*
X113098893Y-119375969D01*
X112970757Y-119530858D01*
X112814977Y-119657909D01*
X112637486Y-119752282D01*
X112445045Y-119810384D01*
X112244984Y-119830000D01*
X112234895Y-119830000D01*
X112223729Y-119829922D01*
X112223724Y-119829921D01*
X112220635Y-119829900D01*
X112020867Y-119807492D01*
X111829256Y-119746709D01*
X111653100Y-119649867D01*
X111499109Y-119520653D01*
X111373149Y-119363990D01*
X111280017Y-119185845D01*
X111223260Y-118993003D01*
X111223255Y-118992943D01*
X111223251Y-118992931D01*
X111205039Y-118792816D01*
X111226044Y-118592961D01*
X111226046Y-118592953D01*
X111226053Y-118592890D01*
X111285497Y-118400859D01*
X111381107Y-118224031D01*
X111509243Y-118069142D01*
X111665023Y-117942091D01*
X111842514Y-117847718D01*
X112034955Y-117789616D01*
X112235016Y-117770000D01*
X112245105Y-117770000D01*
X112256271Y-117770078D01*
X112256271Y-117770078D01*
G37*
G36*
X119876271Y-117770078D02*
X119876276Y-117770079D01*
X119879365Y-117770100D01*
X120079133Y-117792508D01*
X120270744Y-117853291D01*
X120446900Y-117950133D01*
X120600891Y-118079347D01*
X120726851Y-118236010D01*
X120819983Y-118414155D01*
X120876740Y-118606997D01*
X120876745Y-118607057D01*
X120876749Y-118607069D01*
X120894961Y-118807184D01*
X120873956Y-119007039D01*
X120873954Y-119007047D01*
X120873947Y-119007110D01*
X120814503Y-119199141D01*
X120718893Y-119375969D01*
X120590757Y-119530858D01*
X120434977Y-119657909D01*
X120257486Y-119752282D01*
X120065045Y-119810384D01*
X119864984Y-119830000D01*
X119854895Y-119830000D01*
X119843729Y-119829922D01*
X119843724Y-119829921D01*
X119840635Y-119829900D01*
X119640867Y-119807492D01*
X119449256Y-119746709D01*
X119273100Y-119649867D01*
X119119109Y-119520653D01*
X118993149Y-119363990D01*
X118900017Y-119185845D01*
X118843260Y-118993003D01*
X118843255Y-118992943D01*
X118843251Y-118992931D01*
X118825039Y-118792816D01*
X118846044Y-118592961D01*
X118846046Y-118592953D01*
X118846053Y-118592890D01*
X118905497Y-118400859D01*
X119001107Y-118224031D01*
X119129243Y-118069142D01*
X119285023Y-117942091D01*
X119462514Y-117847718D01*
X119654955Y-117789616D01*
X119855016Y-117770000D01*
X119865105Y-117770000D01*
X119876271Y-117770078D01*
X119876271Y-117770078D01*
G37*
G36*
X139470000Y-119830000D02*
X137410000Y-119830000D01*
X137410000Y-117770000D01*
X139470000Y-117770000D01*
X139470000Y-119830000D01*
X139470000Y-119830000D01*
G37*
G36*
X100570000Y-119830000D02*
X98510000Y-119830000D01*
X98510000Y-117770000D01*
X100570000Y-117770000D01*
X100570000Y-119830000D01*
X100570000Y-119830000D01*
G37*
G36*
X151156271Y-117770078D02*
X151156276Y-117770079D01*
X151159365Y-117770100D01*
X151359133Y-117792508D01*
X151550744Y-117853291D01*
X151726900Y-117950133D01*
X151880891Y-118079347D01*
X152006851Y-118236010D01*
X152099983Y-118414155D01*
X152156740Y-118606997D01*
X152156745Y-118607057D01*
X152156749Y-118607069D01*
X152174961Y-118807184D01*
X152153956Y-119007039D01*
X152153954Y-119007047D01*
X152153947Y-119007110D01*
X152094503Y-119199141D01*
X151998893Y-119375969D01*
X151870757Y-119530858D01*
X151714977Y-119657909D01*
X151537486Y-119752282D01*
X151345045Y-119810384D01*
X151144984Y-119830000D01*
X151134895Y-119830000D01*
X151123729Y-119829922D01*
X151123724Y-119829921D01*
X151120635Y-119829900D01*
X150920867Y-119807492D01*
X150729256Y-119746709D01*
X150553100Y-119649867D01*
X150399109Y-119520653D01*
X150273149Y-119363990D01*
X150180017Y-119185845D01*
X150123260Y-118993003D01*
X150123255Y-118992943D01*
X150123251Y-118992931D01*
X150105039Y-118792816D01*
X150126044Y-118592961D01*
X150126046Y-118592953D01*
X150126053Y-118592890D01*
X150185497Y-118400859D01*
X150281107Y-118224031D01*
X150409243Y-118069142D01*
X150565023Y-117942091D01*
X150742514Y-117847718D01*
X150934955Y-117789616D01*
X151135016Y-117770000D01*
X151145105Y-117770000D01*
X151156271Y-117770078D01*
X151156271Y-117770078D01*
G37*
G36*
X153696271Y-117770078D02*
X153696276Y-117770079D01*
X153699365Y-117770100D01*
X153899133Y-117792508D01*
X154090744Y-117853291D01*
X154266900Y-117950133D01*
X154420891Y-118079347D01*
X154546851Y-118236010D01*
X154639983Y-118414155D01*
X154696740Y-118606997D01*
X154696745Y-118607057D01*
X154696749Y-118607069D01*
X154714961Y-118807184D01*
X154693956Y-119007039D01*
X154693954Y-119007047D01*
X154693947Y-119007110D01*
X154634503Y-119199141D01*
X154538893Y-119375969D01*
X154410757Y-119530858D01*
X154254977Y-119657909D01*
X154077486Y-119752282D01*
X153885045Y-119810384D01*
X153684984Y-119830000D01*
X153674895Y-119830000D01*
X153663729Y-119829922D01*
X153663724Y-119829921D01*
X153660635Y-119829900D01*
X153460867Y-119807492D01*
X153269256Y-119746709D01*
X153093100Y-119649867D01*
X152939109Y-119520653D01*
X152813149Y-119363990D01*
X152720017Y-119185845D01*
X152663260Y-118993003D01*
X152663255Y-118992943D01*
X152663251Y-118992931D01*
X152645039Y-118792816D01*
X152666044Y-118592961D01*
X152666046Y-118592953D01*
X152666053Y-118592890D01*
X152725497Y-118400859D01*
X152821107Y-118224031D01*
X152949243Y-118069142D01*
X153105023Y-117942091D01*
X153282514Y-117847718D01*
X153474955Y-117789616D01*
X153675016Y-117770000D01*
X153685105Y-117770000D01*
X153696271Y-117770078D01*
X153696271Y-117770078D01*
G37*
G36*
X117336271Y-117770078D02*
X117336276Y-117770079D01*
X117339365Y-117770100D01*
X117539133Y-117792508D01*
X117730744Y-117853291D01*
X117906900Y-117950133D01*
X118060891Y-118079347D01*
X118186851Y-118236010D01*
X118279983Y-118414155D01*
X118336740Y-118606997D01*
X118336745Y-118607057D01*
X118336749Y-118607069D01*
X118354961Y-118807184D01*
X118333956Y-119007039D01*
X118333954Y-119007047D01*
X118333947Y-119007110D01*
X118274503Y-119199141D01*
X118178893Y-119375969D01*
X118050757Y-119530858D01*
X117894977Y-119657909D01*
X117717486Y-119752282D01*
X117525045Y-119810384D01*
X117324984Y-119830000D01*
X117314895Y-119830000D01*
X117303729Y-119829922D01*
X117303724Y-119829921D01*
X117300635Y-119829900D01*
X117100867Y-119807492D01*
X116909256Y-119746709D01*
X116733100Y-119649867D01*
X116579109Y-119520653D01*
X116453149Y-119363990D01*
X116360017Y-119185845D01*
X116303260Y-118993003D01*
X116303255Y-118992943D01*
X116303251Y-118992931D01*
X116285039Y-118792816D01*
X116306044Y-118592961D01*
X116306046Y-118592953D01*
X116306053Y-118592890D01*
X116365497Y-118400859D01*
X116461107Y-118224031D01*
X116589243Y-118069142D01*
X116745023Y-117942091D01*
X116922514Y-117847718D01*
X117114955Y-117789616D01*
X117315016Y-117770000D01*
X117325105Y-117770000D01*
X117336271Y-117770078D01*
X117336271Y-117770078D01*
G37*
G36*
X134830000Y-119305000D02*
X133770000Y-119305000D01*
X133770000Y-118295000D01*
X134830000Y-118295000D01*
X134830000Y-119305000D01*
X134830000Y-119305000D01*
G37*
G36*
X136330000Y-119305000D02*
X135270000Y-119305000D01*
X135270000Y-118295000D01*
X136330000Y-118295000D01*
X136330000Y-119305000D01*
X136330000Y-119305000D01*
G37*
G36*
X129530000Y-118730000D02*
X128370000Y-118730000D01*
X128370000Y-117370000D01*
X129530000Y-117370000D01*
X129530000Y-118730000D01*
X129530000Y-118730000D01*
G37*
G36*
X131830000Y-118730000D02*
X130670000Y-118730000D01*
X130670000Y-117370000D01*
X131830000Y-117370000D01*
X131830000Y-118730000D01*
X131830000Y-118730000D01*
G37*
G36*
X114680000Y-117305000D02*
X113620000Y-117305000D01*
X113620000Y-116295000D01*
X114680000Y-116295000D01*
X114680000Y-117305000D01*
X114680000Y-117305000D01*
G37*
G36*
X113180000Y-117305000D02*
X112120000Y-117305000D01*
X112120000Y-116295000D01*
X113180000Y-116295000D01*
X113180000Y-117305000D01*
X113180000Y-117305000D01*
G37*
G36*
X98605000Y-117080000D02*
X97595000Y-117080000D01*
X97595000Y-116020000D01*
X98605000Y-116020000D01*
X98605000Y-117080000D01*
X98605000Y-117080000D01*
G37*
G36*
X102320000Y-117080000D02*
X101060000Y-117080000D01*
X101060000Y-114520000D01*
X102320000Y-114520000D01*
X102320000Y-117080000D01*
X102320000Y-117080000D01*
G37*
G36*
X109940000Y-117080000D02*
X108680000Y-117080000D01*
X108680000Y-114520000D01*
X109940000Y-114520000D01*
X109940000Y-117080000D01*
X109940000Y-117080000D01*
G37*
G36*
X104860000Y-117080000D02*
X103600000Y-117080000D01*
X103600000Y-114520000D01*
X104860000Y-114520000D01*
X104860000Y-117080000D01*
X104860000Y-117080000D01*
G37*
G36*
X129180000Y-116680000D02*
X127920000Y-116680000D01*
X127920000Y-114820000D01*
X129180000Y-114820000D01*
X129180000Y-116680000D01*
X129180000Y-116680000D01*
G37*
G36*
X132180000Y-116680000D02*
X130920000Y-116680000D01*
X130920000Y-114820000D01*
X132180000Y-114820000D01*
X132180000Y-116680000D01*
X132180000Y-116680000D01*
G37*
G36*
X124230000Y-116430000D02*
X122970000Y-116430000D01*
X122970000Y-114570000D01*
X124230000Y-114570000D01*
X124230000Y-116430000D01*
X124230000Y-116430000D01*
G37*
G36*
X121230000Y-116430000D02*
X119970000Y-116430000D01*
X119970000Y-114570000D01*
X121230000Y-114570000D01*
X121230000Y-116430000D01*
X121230000Y-116430000D01*
G37*
G36*
X157040000Y-116380000D02*
X155780000Y-116380000D01*
X155780000Y-113820000D01*
X157040000Y-113820000D01*
X157040000Y-116380000D01*
X157040000Y-116380000D01*
G37*
G36*
X149420000Y-116380000D02*
X148160000Y-116380000D01*
X148160000Y-113820000D01*
X149420000Y-113820000D01*
X149420000Y-116380000D01*
X149420000Y-116380000D01*
G37*
G36*
X98605000Y-115580000D02*
X97595000Y-115580000D01*
X97595000Y-114520000D01*
X98605000Y-114520000D01*
X98605000Y-115580000D01*
X98605000Y-115580000D01*
G37*
G36*
X116630000Y-114980000D02*
X115470000Y-114980000D01*
X115470000Y-113020000D01*
X116630000Y-113020000D01*
X116630000Y-114980000D01*
X116630000Y-114980000D01*
G37*
G36*
X113730000Y-114980000D02*
X112570000Y-114980000D01*
X112570000Y-113020000D01*
X113730000Y-113020000D01*
X113730000Y-114980000D01*
X113730000Y-114980000D01*
G37*
G36*
X141080000Y-114530000D02*
X139120000Y-114530000D01*
X139120000Y-113370000D01*
X141080000Y-113370000D01*
X141080000Y-114530000D01*
X141080000Y-114530000D01*
G37*
G36*
X143480000Y-114530000D02*
X141520000Y-114530000D01*
X141520000Y-113370000D01*
X143480000Y-113370000D01*
X143480000Y-114530000D01*
X143480000Y-114530000D01*
G37*
G36*
X138680000Y-114530000D02*
X136720000Y-114530000D01*
X136720000Y-113370000D01*
X138680000Y-113370000D01*
X138680000Y-114530000D01*
X138680000Y-114530000D01*
G37*
G36*
X136280000Y-114530000D02*
X134320000Y-114530000D01*
X134320000Y-113370000D01*
X136280000Y-113370000D01*
X136280000Y-114530000D01*
X136280000Y-114530000D01*
G37*
G36*
X119870000Y-114370000D02*
X117930000Y-114370000D01*
X117930000Y-112410000D01*
X119870000Y-112410000D01*
X119870000Y-114370000D01*
X119870000Y-114370000D01*
G37*
G36*
X130630000Y-114205000D02*
X129570000Y-114205000D01*
X129570000Y-113195000D01*
X130630000Y-113195000D01*
X130630000Y-114205000D01*
X130630000Y-114205000D01*
G37*
G36*
X129130000Y-114205000D02*
X128070000Y-114205000D01*
X128070000Y-113195000D01*
X129130000Y-113195000D01*
X129130000Y-114205000D01*
X129130000Y-114205000D01*
G37*
G36*
X124130000Y-114105000D02*
X123070000Y-114105000D01*
X123070000Y-113095000D01*
X124130000Y-113095000D01*
X124130000Y-114105000D01*
X124130000Y-114105000D01*
G37*
G36*
X122630000Y-114105000D02*
X121570000Y-114105000D01*
X121570000Y-113095000D01*
X122630000Y-113095000D01*
X122630000Y-114105000D01*
X122630000Y-114105000D01*
G37*
G36*
X113730000Y-112580000D02*
X112570000Y-112580000D01*
X112570000Y-110620000D01*
X113730000Y-110620000D01*
X113730000Y-112580000D01*
X113730000Y-112580000D01*
G37*
G36*
X116630000Y-112580000D02*
X115470000Y-112580000D01*
X115470000Y-110620000D01*
X116630000Y-110620000D01*
X116630000Y-112580000D01*
X116630000Y-112580000D01*
G37*
G36*
X129605000Y-112530000D02*
X128745000Y-112530000D01*
X128745000Y-110770000D01*
X129605000Y-110770000D01*
X129605000Y-112530000D01*
X129605000Y-112530000D01*
G37*
G36*
X127065000Y-112530000D02*
X126205000Y-112530000D01*
X126205000Y-110770000D01*
X127065000Y-110770000D01*
X127065000Y-112530000D01*
X127065000Y-112530000D01*
G37*
G36*
X121985000Y-112530000D02*
X121125000Y-112530000D01*
X121125000Y-110770000D01*
X121985000Y-110770000D01*
X121985000Y-112530000D01*
X121985000Y-112530000D01*
G37*
G36*
X123255000Y-112530000D02*
X122395000Y-112530000D01*
X122395000Y-110770000D01*
X123255000Y-110770000D01*
X123255000Y-112530000D01*
X123255000Y-112530000D01*
G37*
G36*
X124525000Y-112530000D02*
X123665000Y-112530000D01*
X123665000Y-110770000D01*
X124525000Y-110770000D01*
X124525000Y-112530000D01*
X124525000Y-112530000D01*
G37*
G36*
X125795000Y-112530000D02*
X124935000Y-112530000D01*
X124935000Y-110770000D01*
X125795000Y-110770000D01*
X125795000Y-112530000D01*
X125795000Y-112530000D01*
G37*
G36*
X130875000Y-112530000D02*
X130015000Y-112530000D01*
X130015000Y-110770000D01*
X130875000Y-110770000D01*
X130875000Y-112530000D01*
X130875000Y-112530000D01*
G37*
G36*
X128335000Y-112530000D02*
X127475000Y-112530000D01*
X127475000Y-110770000D01*
X128335000Y-110770000D01*
X128335000Y-112530000D01*
X128335000Y-112530000D01*
G37*
G36*
X136280000Y-111630000D02*
X134320000Y-111630000D01*
X134320000Y-110470000D01*
X136280000Y-110470000D01*
X136280000Y-111630000D01*
X136280000Y-111630000D01*
G37*
G36*
X138680000Y-111630000D02*
X136720000Y-111630000D01*
X136720000Y-110470000D01*
X138680000Y-110470000D01*
X138680000Y-111630000D01*
X138680000Y-111630000D01*
G37*
G36*
X141080000Y-111630000D02*
X139120000Y-111630000D01*
X139120000Y-110470000D01*
X141080000Y-110470000D01*
X141080000Y-111630000D01*
X141080000Y-111630000D01*
G37*
G36*
X143480000Y-111630000D02*
X141520000Y-111630000D01*
X141520000Y-110470000D01*
X143480000Y-110470000D01*
X143480000Y-111630000D01*
X143480000Y-111630000D01*
G37*
G36*
X119870000Y-110790000D02*
X117930000Y-110790000D01*
X117930000Y-108830000D01*
X119870000Y-108830000D01*
X119870000Y-110790000D01*
X119870000Y-110790000D01*
G37*
G36*
X113680000Y-110180000D02*
X112520000Y-110180000D01*
X112520000Y-108220000D01*
X113680000Y-108220000D01*
X113680000Y-110180000D01*
X113680000Y-110180000D01*
G37*
G36*
X116580000Y-110180000D02*
X115420000Y-110180000D01*
X115420000Y-108220000D01*
X116580000Y-108220000D01*
X116580000Y-110180000D01*
X116580000Y-110180000D01*
G37*
G36*
X142070000Y-109670000D02*
X140110000Y-109670000D01*
X140110000Y-107730000D01*
X142070000Y-107730000D01*
X142070000Y-109670000D01*
X142070000Y-109670000D01*
G37*
G36*
X138490000Y-109670000D02*
X136530000Y-109670000D01*
X136530000Y-107730000D01*
X138490000Y-107730000D01*
X138490000Y-109670000D01*
X138490000Y-109670000D01*
G37*
G36*
X118980000Y-107980000D02*
X117620000Y-107980000D01*
X117620000Y-106820000D01*
X118980000Y-106820000D01*
X118980000Y-107980000D01*
X118980000Y-107980000D01*
G37*
G36*
X116580000Y-107680000D02*
X115420000Y-107680000D01*
X115420000Y-105720000D01*
X116580000Y-105720000D01*
X116580000Y-107680000D01*
X116580000Y-107680000D01*
G37*
G36*
X113680000Y-107680000D02*
X112520000Y-107680000D01*
X112520000Y-105720000D01*
X113680000Y-105720000D01*
X113680000Y-107680000D01*
X113680000Y-107680000D01*
G37*
G36*
X109940000Y-107680000D02*
X108680000Y-107680000D01*
X108680000Y-105120000D01*
X109940000Y-105120000D01*
X109940000Y-107680000D01*
X109940000Y-107680000D01*
G37*
G36*
X102320000Y-107680000D02*
X101060000Y-107680000D01*
X101060000Y-105120000D01*
X102320000Y-105120000D01*
X102320000Y-107680000D01*
X102320000Y-107680000D01*
G37*
G36*
X154500000Y-106980000D02*
X153240000Y-106980000D01*
X153240000Y-104420000D01*
X154500000Y-104420000D01*
X154500000Y-106980000D01*
X154500000Y-106980000D01*
G37*
G36*
X149420000Y-106980000D02*
X148160000Y-106980000D01*
X148160000Y-104420000D01*
X149420000Y-104420000D01*
X149420000Y-106980000D01*
X149420000Y-106980000D01*
G37*
G36*
X157040000Y-106980000D02*
X155780000Y-106980000D01*
X155780000Y-104420000D01*
X157040000Y-104420000D01*
X157040000Y-106980000D01*
X157040000Y-106980000D01*
G37*
G36*
X136481383Y-106865005D02*
X135621383Y-106865005D01*
X135621383Y-105055005D01*
X136481383Y-105055005D01*
X136481383Y-106865005D01*
X136481383Y-106865005D01*
G37*
G36*
X133941383Y-106865005D02*
X133081383Y-106865005D01*
X133081383Y-105055005D01*
X133941383Y-105055005D01*
X133941383Y-106865005D01*
X133941383Y-106865005D01*
G37*
G36*
X135211383Y-106865005D02*
X134351383Y-106865005D01*
X134351383Y-105055005D01*
X135211383Y-105055005D01*
X135211383Y-106865005D01*
X135211383Y-106865005D01*
G37*
G36*
X137751383Y-106865005D02*
X136891383Y-106865005D01*
X136891383Y-105055005D01*
X137751383Y-105055005D01*
X137751383Y-106865005D01*
X137751383Y-106865005D01*
G37*
G36*
X141005000Y-106830000D02*
X139995000Y-106830000D01*
X139995000Y-105770000D01*
X141005000Y-105770000D01*
X141005000Y-106830000D01*
X141005000Y-106830000D01*
G37*
G36*
X139505000Y-106830000D02*
X138495000Y-106830000D01*
X138495000Y-105770000D01*
X139505000Y-105770000D01*
X139505000Y-106830000D01*
X139505000Y-106830000D01*
G37*
G36*
X118980000Y-105680000D02*
X117620000Y-105680000D01*
X117620000Y-104520000D01*
X118980000Y-104520000D01*
X118980000Y-105680000D01*
X118980000Y-105680000D01*
G37*
G36*
X139505000Y-105330000D02*
X138495000Y-105330000D01*
X138495000Y-104270000D01*
X139505000Y-104270000D01*
X139505000Y-105330000D01*
X139505000Y-105330000D01*
G37*
G36*
X141005000Y-105330000D02*
X139995000Y-105330000D01*
X139995000Y-104270000D01*
X141005000Y-104270000D01*
X141005000Y-105330000D01*
X141005000Y-105330000D01*
G37*
G36*
X155080000Y-103705000D02*
X154020000Y-103705000D01*
X154020000Y-102695000D01*
X155080000Y-102695000D01*
X155080000Y-103705000D01*
X155080000Y-103705000D01*
G37*
G36*
X156580000Y-103705000D02*
X155520000Y-103705000D01*
X155520000Y-102695000D01*
X156580000Y-102695000D01*
X156580000Y-103705000D01*
X156580000Y-103705000D01*
G37*
G36*
X121985000Y-103230000D02*
X121125000Y-103230000D01*
X121125000Y-101470000D01*
X121985000Y-101470000D01*
X121985000Y-103230000D01*
X121985000Y-103230000D01*
G37*
G36*
X127065000Y-103230000D02*
X126205000Y-103230000D01*
X126205000Y-101470000D01*
X127065000Y-101470000D01*
X127065000Y-103230000D01*
X127065000Y-103230000D01*
G37*
G36*
X123255000Y-103230000D02*
X122395000Y-103230000D01*
X122395000Y-101470000D01*
X123255000Y-101470000D01*
X123255000Y-103230000D01*
X123255000Y-103230000D01*
G37*
G36*
X124525000Y-103230000D02*
X123665000Y-103230000D01*
X123665000Y-101470000D01*
X124525000Y-101470000D01*
X124525000Y-103230000D01*
X124525000Y-103230000D01*
G37*
G36*
X125795000Y-103230000D02*
X124935000Y-103230000D01*
X124935000Y-101470000D01*
X125795000Y-101470000D01*
X125795000Y-103230000D01*
X125795000Y-103230000D01*
G37*
G36*
X130875000Y-103230000D02*
X130015000Y-103230000D01*
X130015000Y-101470000D01*
X130875000Y-101470000D01*
X130875000Y-103230000D01*
X130875000Y-103230000D01*
G37*
G36*
X129605000Y-103230000D02*
X128745000Y-103230000D01*
X128745000Y-101470000D01*
X129605000Y-101470000D01*
X129605000Y-103230000D01*
X129605000Y-103230000D01*
G37*
G36*
X128335000Y-103230000D02*
X127475000Y-103230000D01*
X127475000Y-101470000D01*
X128335000Y-101470000D01*
X128335000Y-103230000D01*
X128335000Y-103230000D01*
G37*
G36*
X118680000Y-102705000D02*
X117620000Y-102705000D01*
X117620000Y-101695000D01*
X118680000Y-101695000D01*
X118680000Y-102705000D01*
X118680000Y-102705000D01*
G37*
G36*
X120180000Y-102705000D02*
X119120000Y-102705000D01*
X119120000Y-101695000D01*
X120180000Y-101695000D01*
X120180000Y-102705000D01*
X120180000Y-102705000D01*
G37*
G36*
X133941383Y-101465005D02*
X133081383Y-101465005D01*
X133081383Y-99655005D01*
X133941383Y-99655005D01*
X133941383Y-101465005D01*
X133941383Y-101465005D01*
G37*
G36*
X137751383Y-101465005D02*
X136891383Y-101465005D01*
X136891383Y-99655005D01*
X137751383Y-99655005D01*
X137751383Y-101465005D01*
X137751383Y-101465005D01*
G37*
G36*
X135211383Y-101465005D02*
X134351383Y-101465005D01*
X134351383Y-99655005D01*
X135211383Y-99655005D01*
X135211383Y-101465005D01*
X135211383Y-101465005D01*
G37*
G36*
X136481383Y-101465005D02*
X135621383Y-101465005D01*
X135621383Y-99655005D01*
X136481383Y-99655005D01*
X136481383Y-101465005D01*
X136481383Y-101465005D01*
G37*
G36*
X125430000Y-100780000D02*
X124670000Y-100780000D01*
X124670000Y-99620000D01*
X125430000Y-99620000D01*
X125430000Y-100780000D01*
X125430000Y-100780000D01*
G37*
G36*
X123930000Y-100780000D02*
X123170000Y-100780000D01*
X123170000Y-99620000D01*
X123930000Y-99620000D01*
X123930000Y-100780000D01*
X123930000Y-100780000D01*
G37*
G36*
X122730000Y-100780000D02*
X121970000Y-100780000D01*
X121970000Y-99620000D01*
X122730000Y-99620000D01*
X122730000Y-100780000D01*
X122730000Y-100780000D01*
G37*
G36*
X121230000Y-100780000D02*
X120470000Y-100780000D01*
X120470000Y-99620000D01*
X121230000Y-99620000D01*
X121230000Y-100780000D01*
X121230000Y-100780000D01*
G37*
G36*
X126980000Y-100705000D02*
X125920000Y-100705000D01*
X125920000Y-99695000D01*
X126980000Y-99695000D01*
X126980000Y-100705000D01*
X126980000Y-100705000D01*
G37*
G36*
X128480000Y-100705000D02*
X127420000Y-100705000D01*
X127420000Y-99695000D01*
X128480000Y-99695000D01*
X128480000Y-100705000D01*
X128480000Y-100705000D01*
G37*
G36*
X129980000Y-100705000D02*
X128920000Y-100705000D01*
X128920000Y-99695000D01*
X129980000Y-99695000D01*
X129980000Y-100705000D01*
X129980000Y-100705000D01*
G37*
G36*
X131480000Y-100705000D02*
X130420000Y-100705000D01*
X130420000Y-99695000D01*
X131480000Y-99695000D01*
X131480000Y-100705000D01*
X131480000Y-100705000D01*
G37*
G36*
X107980870Y-97280010D02*
X106219730Y-97280010D01*
X106219730Y-94319990D01*
X107980870Y-94319990D01*
X107980870Y-97280010D01*
X107980870Y-97280010D01*
G37*
G36*
X103180270Y-97280010D02*
X101419130Y-97280010D01*
X101419130Y-94319990D01*
X103180270Y-94319990D01*
X103180270Y-97280010D01*
X103180270Y-97280010D01*
G37*
G36*
X141980270Y-96880010D02*
X140219130Y-96880010D01*
X140219130Y-93919990D01*
X141980270Y-93919990D01*
X141980270Y-96880010D01*
X141980270Y-96880010D01*
G37*
G36*
X146780870Y-96880010D02*
X145019730Y-96880010D01*
X145019730Y-93919990D01*
X146780870Y-93919990D01*
X146780870Y-96880010D01*
X146780870Y-96880010D01*
G37*
G36*
X112256271Y-94770078D02*
X112256276Y-94770079D01*
X112259365Y-94770100D01*
X112459133Y-94792508D01*
X112650744Y-94853291D01*
X112826900Y-94950133D01*
X112980891Y-95079347D01*
X113106851Y-95236010D01*
X113199983Y-95414155D01*
X113256740Y-95606997D01*
X113256745Y-95607057D01*
X113256749Y-95607069D01*
X113274961Y-95807184D01*
X113253956Y-96007039D01*
X113253954Y-96007047D01*
X113253947Y-96007110D01*
X113194503Y-96199141D01*
X113098893Y-96375969D01*
X112970757Y-96530858D01*
X112814977Y-96657909D01*
X112637486Y-96752282D01*
X112445045Y-96810384D01*
X112244984Y-96830000D01*
X112234895Y-96830000D01*
X112223729Y-96829922D01*
X112223724Y-96829921D01*
X112220635Y-96829900D01*
X112020867Y-96807492D01*
X111829256Y-96746709D01*
X111653100Y-96649867D01*
X111499109Y-96520653D01*
X111373149Y-96363990D01*
X111280017Y-96185845D01*
X111223260Y-95993003D01*
X111223255Y-95992943D01*
X111223251Y-95992931D01*
X111205039Y-95792816D01*
X111226044Y-95592961D01*
X111226046Y-95592953D01*
X111226053Y-95592890D01*
X111285497Y-95400859D01*
X111381107Y-95224031D01*
X111509243Y-95069142D01*
X111665023Y-94942091D01*
X111842514Y-94847718D01*
X112034955Y-94789616D01*
X112235016Y-94770000D01*
X112245105Y-94770000D01*
X112256271Y-94770078D01*
X112256271Y-94770078D01*
G37*
G36*
X109716271Y-94770078D02*
X109716276Y-94770079D01*
X109719365Y-94770100D01*
X109919133Y-94792508D01*
X110110744Y-94853291D01*
X110286900Y-94950133D01*
X110440891Y-95079347D01*
X110566851Y-95236010D01*
X110659983Y-95414155D01*
X110716740Y-95606997D01*
X110716745Y-95607057D01*
X110716749Y-95607069D01*
X110734961Y-95807184D01*
X110713956Y-96007039D01*
X110713954Y-96007047D01*
X110713947Y-96007110D01*
X110654503Y-96199141D01*
X110558893Y-96375969D01*
X110430757Y-96530858D01*
X110274977Y-96657909D01*
X110097486Y-96752282D01*
X109905045Y-96810384D01*
X109704984Y-96830000D01*
X109694895Y-96830000D01*
X109683729Y-96829922D01*
X109683724Y-96829921D01*
X109680635Y-96829900D01*
X109480867Y-96807492D01*
X109289256Y-96746709D01*
X109113100Y-96649867D01*
X108959109Y-96520653D01*
X108833149Y-96363990D01*
X108740017Y-96185845D01*
X108683260Y-95993003D01*
X108683255Y-95992943D01*
X108683251Y-95992931D01*
X108665039Y-95792816D01*
X108686044Y-95592961D01*
X108686046Y-95592953D01*
X108686053Y-95592890D01*
X108745497Y-95400859D01*
X108841107Y-95224031D01*
X108969243Y-95069142D01*
X109125023Y-94942091D01*
X109302514Y-94847718D01*
X109494955Y-94789616D01*
X109695016Y-94770000D01*
X109705105Y-94770000D01*
X109716271Y-94770078D01*
X109716271Y-94770078D01*
G37*
G36*
X158776271Y-94770078D02*
X158776276Y-94770079D01*
X158779365Y-94770100D01*
X158979133Y-94792508D01*
X159170744Y-94853291D01*
X159346900Y-94950133D01*
X159500891Y-95079347D01*
X159626851Y-95236010D01*
X159719983Y-95414155D01*
X159776740Y-95606997D01*
X159776745Y-95607057D01*
X159776749Y-95607069D01*
X159794961Y-95807184D01*
X159773956Y-96007039D01*
X159773954Y-96007047D01*
X159773947Y-96007110D01*
X159714503Y-96199141D01*
X159618893Y-96375969D01*
X159490757Y-96530858D01*
X159334977Y-96657909D01*
X159157486Y-96752282D01*
X158965045Y-96810384D01*
X158764984Y-96830000D01*
X158754895Y-96830000D01*
X158743729Y-96829922D01*
X158743724Y-96829921D01*
X158740635Y-96829900D01*
X158540867Y-96807492D01*
X158349256Y-96746709D01*
X158173100Y-96649867D01*
X158019109Y-96520653D01*
X157893149Y-96363990D01*
X157800017Y-96185845D01*
X157743260Y-95993003D01*
X157743255Y-95992943D01*
X157743251Y-95992931D01*
X157725039Y-95792816D01*
X157746044Y-95592961D01*
X157746046Y-95592953D01*
X157746053Y-95592890D01*
X157805497Y-95400859D01*
X157901107Y-95224031D01*
X158029243Y-95069142D01*
X158185023Y-94942091D01*
X158362514Y-94847718D01*
X158554955Y-94789616D01*
X158755016Y-94770000D01*
X158765105Y-94770000D01*
X158776271Y-94770078D01*
X158776271Y-94770078D01*
G37*
G36*
X100570000Y-96830000D02*
X98510000Y-96830000D01*
X98510000Y-94770000D01*
X100570000Y-94770000D01*
X100570000Y-96830000D01*
X100570000Y-96830000D01*
G37*
G36*
X114796271Y-94770078D02*
X114796276Y-94770079D01*
X114799365Y-94770100D01*
X114999133Y-94792508D01*
X115190744Y-94853291D01*
X115366900Y-94950133D01*
X115520891Y-95079347D01*
X115646851Y-95236010D01*
X115739983Y-95414155D01*
X115796740Y-95606997D01*
X115796745Y-95607057D01*
X115796749Y-95607069D01*
X115814961Y-95807184D01*
X115793956Y-96007039D01*
X115793954Y-96007047D01*
X115793947Y-96007110D01*
X115734503Y-96199141D01*
X115638893Y-96375969D01*
X115510757Y-96530858D01*
X115354977Y-96657909D01*
X115177486Y-96752282D01*
X114985045Y-96810384D01*
X114784984Y-96830000D01*
X114774895Y-96830000D01*
X114763729Y-96829922D01*
X114763724Y-96829921D01*
X114760635Y-96829900D01*
X114560867Y-96807492D01*
X114369256Y-96746709D01*
X114193100Y-96649867D01*
X114039109Y-96520653D01*
X113913149Y-96363990D01*
X113820017Y-96185845D01*
X113763260Y-95993003D01*
X113763255Y-95992943D01*
X113763251Y-95992931D01*
X113745039Y-95792816D01*
X113766044Y-95592961D01*
X113766046Y-95592953D01*
X113766053Y-95592890D01*
X113825497Y-95400859D01*
X113921107Y-95224031D01*
X114049243Y-95069142D01*
X114205023Y-94942091D01*
X114382514Y-94847718D01*
X114574955Y-94789616D01*
X114775016Y-94770000D01*
X114785105Y-94770000D01*
X114796271Y-94770078D01*
X114796271Y-94770078D01*
G37*
G36*
X119876271Y-94770078D02*
X119876276Y-94770079D01*
X119879365Y-94770100D01*
X120079133Y-94792508D01*
X120270744Y-94853291D01*
X120446900Y-94950133D01*
X120600891Y-95079347D01*
X120726851Y-95236010D01*
X120819983Y-95414155D01*
X120876740Y-95606997D01*
X120876745Y-95607057D01*
X120876749Y-95607069D01*
X120894961Y-95807184D01*
X120873956Y-96007039D01*
X120873954Y-96007047D01*
X120873947Y-96007110D01*
X120814503Y-96199141D01*
X120718893Y-96375969D01*
X120590757Y-96530858D01*
X120434977Y-96657909D01*
X120257486Y-96752282D01*
X120065045Y-96810384D01*
X119864984Y-96830000D01*
X119854895Y-96830000D01*
X119843729Y-96829922D01*
X119843724Y-96829921D01*
X119840635Y-96829900D01*
X119640867Y-96807492D01*
X119449256Y-96746709D01*
X119273100Y-96649867D01*
X119119109Y-96520653D01*
X118993149Y-96363990D01*
X118900017Y-96185845D01*
X118843260Y-95993003D01*
X118843255Y-95992943D01*
X118843251Y-95992931D01*
X118825039Y-95792816D01*
X118846044Y-95592961D01*
X118846046Y-95592953D01*
X118846053Y-95592890D01*
X118905497Y-95400859D01*
X119001107Y-95224031D01*
X119129243Y-95069142D01*
X119285023Y-94942091D01*
X119462514Y-94847718D01*
X119654955Y-94789616D01*
X119855016Y-94770000D01*
X119865105Y-94770000D01*
X119876271Y-94770078D01*
X119876271Y-94770078D01*
G37*
G36*
X139470000Y-96830000D02*
X137410000Y-96830000D01*
X137410000Y-94770000D01*
X139470000Y-94770000D01*
X139470000Y-96830000D01*
X139470000Y-96830000D01*
G37*
G36*
X148616271Y-94770078D02*
X148616276Y-94770079D01*
X148619365Y-94770100D01*
X148819133Y-94792508D01*
X149010744Y-94853291D01*
X149186900Y-94950133D01*
X149340891Y-95079347D01*
X149466851Y-95236010D01*
X149559983Y-95414155D01*
X149616740Y-95606997D01*
X149616745Y-95607057D01*
X149616749Y-95607069D01*
X149634961Y-95807184D01*
X149613956Y-96007039D01*
X149613954Y-96007047D01*
X149613947Y-96007110D01*
X149554503Y-96199141D01*
X149458893Y-96375969D01*
X149330757Y-96530858D01*
X149174977Y-96657909D01*
X148997486Y-96752282D01*
X148805045Y-96810384D01*
X148604984Y-96830000D01*
X148594895Y-96830000D01*
X148583729Y-96829922D01*
X148583724Y-96829921D01*
X148580635Y-96829900D01*
X148380867Y-96807492D01*
X148189256Y-96746709D01*
X148013100Y-96649867D01*
X147859109Y-96520653D01*
X147733149Y-96363990D01*
X147640017Y-96185845D01*
X147583260Y-95993003D01*
X147583255Y-95992943D01*
X147583251Y-95992931D01*
X147565039Y-95792816D01*
X147586044Y-95592961D01*
X147586046Y-95592953D01*
X147586053Y-95592890D01*
X147645497Y-95400859D01*
X147741107Y-95224031D01*
X147869243Y-95069142D01*
X148025023Y-94942091D01*
X148202514Y-94847718D01*
X148394955Y-94789616D01*
X148595016Y-94770000D01*
X148605105Y-94770000D01*
X148616271Y-94770078D01*
X148616271Y-94770078D01*
G37*
G36*
X151156271Y-94770078D02*
X151156276Y-94770079D01*
X151159365Y-94770100D01*
X151359133Y-94792508D01*
X151550744Y-94853291D01*
X151726900Y-94950133D01*
X151880891Y-95079347D01*
X152006851Y-95236010D01*
X152099983Y-95414155D01*
X152156740Y-95606997D01*
X152156745Y-95607057D01*
X152156749Y-95607069D01*
X152174961Y-95807184D01*
X152153956Y-96007039D01*
X152153954Y-96007047D01*
X152153947Y-96007110D01*
X152094503Y-96199141D01*
X151998893Y-96375969D01*
X151870757Y-96530858D01*
X151714977Y-96657909D01*
X151537486Y-96752282D01*
X151345045Y-96810384D01*
X151144984Y-96830000D01*
X151134895Y-96830000D01*
X151123729Y-96829922D01*
X151123724Y-96829921D01*
X151120635Y-96829900D01*
X150920867Y-96807492D01*
X150729256Y-96746709D01*
X150553100Y-96649867D01*
X150399109Y-96520653D01*
X150273149Y-96363990D01*
X150180017Y-96185845D01*
X150123260Y-95993003D01*
X150123255Y-95992943D01*
X150123251Y-95992931D01*
X150105039Y-95792816D01*
X150126044Y-95592961D01*
X150126046Y-95592953D01*
X150126053Y-95592890D01*
X150185497Y-95400859D01*
X150281107Y-95224031D01*
X150409243Y-95069142D01*
X150565023Y-94942091D01*
X150742514Y-94847718D01*
X150934955Y-94789616D01*
X151135016Y-94770000D01*
X151145105Y-94770000D01*
X151156271Y-94770078D01*
X151156271Y-94770078D01*
G37*
G36*
X153696271Y-94770078D02*
X153696276Y-94770079D01*
X153699365Y-94770100D01*
X153899133Y-94792508D01*
X154090744Y-94853291D01*
X154266900Y-94950133D01*
X154420891Y-95079347D01*
X154546851Y-95236010D01*
X154639983Y-95414155D01*
X154696740Y-95606997D01*
X154696745Y-95607057D01*
X154696749Y-95607069D01*
X154714961Y-95807184D01*
X154693956Y-96007039D01*
X154693954Y-96007047D01*
X154693947Y-96007110D01*
X154634503Y-96199141D01*
X154538893Y-96375969D01*
X154410757Y-96530858D01*
X154254977Y-96657909D01*
X154077486Y-96752282D01*
X153885045Y-96810384D01*
X153684984Y-96830000D01*
X153674895Y-96830000D01*
X153663729Y-96829922D01*
X153663724Y-96829921D01*
X153660635Y-96829900D01*
X153460867Y-96807492D01*
X153269256Y-96746709D01*
X153093100Y-96649867D01*
X152939109Y-96520653D01*
X152813149Y-96363990D01*
X152720017Y-96185845D01*
X152663260Y-95993003D01*
X152663255Y-95992943D01*
X152663251Y-95992931D01*
X152645039Y-95792816D01*
X152666044Y-95592961D01*
X152666046Y-95592953D01*
X152666053Y-95592890D01*
X152725497Y-95400859D01*
X152821107Y-95224031D01*
X152949243Y-95069142D01*
X153105023Y-94942091D01*
X153282514Y-94847718D01*
X153474955Y-94789616D01*
X153675016Y-94770000D01*
X153685105Y-94770000D01*
X153696271Y-94770078D01*
X153696271Y-94770078D01*
G37*
G36*
X156236271Y-94770078D02*
X156236276Y-94770079D01*
X156239365Y-94770100D01*
X156439133Y-94792508D01*
X156630744Y-94853291D01*
X156806900Y-94950133D01*
X156960891Y-95079347D01*
X157086851Y-95236010D01*
X157179983Y-95414155D01*
X157236740Y-95606997D01*
X157236745Y-95607057D01*
X157236749Y-95607069D01*
X157254961Y-95807184D01*
X157233956Y-96007039D01*
X157233954Y-96007047D01*
X157233947Y-96007110D01*
X157174503Y-96199141D01*
X157078893Y-96375969D01*
X156950757Y-96530858D01*
X156794977Y-96657909D01*
X156617486Y-96752282D01*
X156425045Y-96810384D01*
X156224984Y-96830000D01*
X156214895Y-96830000D01*
X156203729Y-96829922D01*
X156203724Y-96829921D01*
X156200635Y-96829900D01*
X156000867Y-96807492D01*
X155809256Y-96746709D01*
X155633100Y-96649867D01*
X155479109Y-96520653D01*
X155353149Y-96363990D01*
X155260017Y-96185845D01*
X155203260Y-95993003D01*
X155203255Y-95992943D01*
X155203251Y-95992931D01*
X155185039Y-95792816D01*
X155206044Y-95592961D01*
X155206046Y-95592953D01*
X155206053Y-95592890D01*
X155265497Y-95400859D01*
X155361107Y-95224031D01*
X155489243Y-95069142D01*
X155645023Y-94942091D01*
X155822514Y-94847718D01*
X156014955Y-94789616D01*
X156215016Y-94770000D01*
X156225105Y-94770000D01*
X156236271Y-94770078D01*
X156236271Y-94770078D01*
G37*
G36*
X117336271Y-94770078D02*
X117336276Y-94770079D01*
X117339365Y-94770100D01*
X117539133Y-94792508D01*
X117730744Y-94853291D01*
X117906900Y-94950133D01*
X118060891Y-95079347D01*
X118186851Y-95236010D01*
X118279983Y-95414155D01*
X118336740Y-95606997D01*
X118336745Y-95607057D01*
X118336749Y-95607069D01*
X118354961Y-95807184D01*
X118333956Y-96007039D01*
X118333954Y-96007047D01*
X118333947Y-96007110D01*
X118274503Y-96199141D01*
X118178893Y-96375969D01*
X118050757Y-96530858D01*
X117894977Y-96657909D01*
X117717486Y-96752282D01*
X117525045Y-96810384D01*
X117324984Y-96830000D01*
X117314895Y-96830000D01*
X117303729Y-96829922D01*
X117303724Y-96829921D01*
X117300635Y-96829900D01*
X117100867Y-96807492D01*
X116909256Y-96746709D01*
X116733100Y-96649867D01*
X116579109Y-96520653D01*
X116453149Y-96363990D01*
X116360017Y-96185845D01*
X116303260Y-95993003D01*
X116303255Y-95992943D01*
X116303251Y-95992931D01*
X116285039Y-95792816D01*
X116306044Y-95592961D01*
X116306046Y-95592953D01*
X116306053Y-95592890D01*
X116365497Y-95400859D01*
X116461107Y-95224031D01*
X116589243Y-95069142D01*
X116745023Y-94942091D01*
X116922514Y-94847718D01*
X117114955Y-94789616D01*
X117315016Y-94770000D01*
X117325105Y-94770000D01*
X117336271Y-94770078D01*
X117336271Y-94770078D01*
G37*
G36*
X134830000Y-96305000D02*
X133770000Y-96305000D01*
X133770000Y-95295000D01*
X134830000Y-95295000D01*
X134830000Y-96305000D01*
X134830000Y-96305000D01*
G37*
G36*
X136330000Y-96305000D02*
X135270000Y-96305000D01*
X135270000Y-95295000D01*
X136330000Y-95295000D01*
X136330000Y-96305000D01*
X136330000Y-96305000D01*
G37*
G36*
X131830000Y-95730000D02*
X130670000Y-95730000D01*
X130670000Y-94370000D01*
X131830000Y-94370000D01*
X131830000Y-95730000D01*
X131830000Y-95730000D01*
G37*
G36*
X129530000Y-95730000D02*
X128370000Y-95730000D01*
X128370000Y-94370000D01*
X129530000Y-94370000D01*
X129530000Y-95730000D01*
X129530000Y-95730000D01*
G37*
G36*
X113180000Y-94305000D02*
X112120000Y-94305000D01*
X112120000Y-93295000D01*
X113180000Y-93295000D01*
X113180000Y-94305000D01*
X113180000Y-94305000D01*
G37*
G36*
X114680000Y-94305000D02*
X113620000Y-94305000D01*
X113620000Y-93295000D01*
X114680000Y-93295000D01*
X114680000Y-94305000D01*
X114680000Y-94305000D01*
G37*
G36*
X98605000Y-94080000D02*
X97595000Y-94080000D01*
X97595000Y-93020000D01*
X98605000Y-93020000D01*
X98605000Y-94080000D01*
X98605000Y-94080000D01*
G37*
G36*
X104860000Y-94080000D02*
X103600000Y-94080000D01*
X103600000Y-91520000D01*
X104860000Y-91520000D01*
X104860000Y-94080000D01*
X104860000Y-94080000D01*
G37*
G36*
X109940000Y-94080000D02*
X108680000Y-94080000D01*
X108680000Y-91520000D01*
X109940000Y-91520000D01*
X109940000Y-94080000D01*
X109940000Y-94080000D01*
G37*
G36*
X102320000Y-94080000D02*
X101060000Y-94080000D01*
X101060000Y-91520000D01*
X102320000Y-91520000D01*
X102320000Y-94080000D01*
X102320000Y-94080000D01*
G37*
G36*
X129180000Y-93680000D02*
X127920000Y-93680000D01*
X127920000Y-91820000D01*
X129180000Y-91820000D01*
X129180000Y-93680000D01*
X129180000Y-93680000D01*
G37*
G36*
X132180000Y-93680000D02*
X130920000Y-93680000D01*
X130920000Y-91820000D01*
X132180000Y-91820000D01*
X132180000Y-93680000D01*
X132180000Y-93680000D01*
G37*
G36*
X121230000Y-93430000D02*
X119970000Y-93430000D01*
X119970000Y-91570000D01*
X121230000Y-91570000D01*
X121230000Y-93430000D01*
X121230000Y-93430000D01*
G37*
G36*
X124230000Y-93430000D02*
X122970000Y-93430000D01*
X122970000Y-91570000D01*
X124230000Y-91570000D01*
X124230000Y-93430000D01*
X124230000Y-93430000D01*
G37*
G36*
X157040000Y-93380000D02*
X155780000Y-93380000D01*
X155780000Y-90820000D01*
X157040000Y-90820000D01*
X157040000Y-93380000D01*
X157040000Y-93380000D01*
G37*
G36*
X149420000Y-93380000D02*
X148160000Y-93380000D01*
X148160000Y-90820000D01*
X149420000Y-90820000D01*
X149420000Y-93380000D01*
X149420000Y-93380000D01*
G37*
G36*
X98605000Y-92580000D02*
X97595000Y-92580000D01*
X97595000Y-91520000D01*
X98605000Y-91520000D01*
X98605000Y-92580000D01*
X98605000Y-92580000D01*
G37*
G36*
X113730000Y-91980000D02*
X112570000Y-91980000D01*
X112570000Y-90020000D01*
X113730000Y-90020000D01*
X113730000Y-91980000D01*
X113730000Y-91980000D01*
G37*
G36*
X116630000Y-91980000D02*
X115470000Y-91980000D01*
X115470000Y-90020000D01*
X116630000Y-90020000D01*
X116630000Y-91980000D01*
X116630000Y-91980000D01*
G37*
G36*
X138680000Y-91530000D02*
X136720000Y-91530000D01*
X136720000Y-90370000D01*
X138680000Y-90370000D01*
X138680000Y-91530000D01*
X138680000Y-91530000D01*
G37*
G36*
X141080000Y-91530000D02*
X139120000Y-91530000D01*
X139120000Y-90370000D01*
X141080000Y-90370000D01*
X141080000Y-91530000D01*
X141080000Y-91530000D01*
G37*
G36*
X136280000Y-91530000D02*
X134320000Y-91530000D01*
X134320000Y-90370000D01*
X136280000Y-90370000D01*
X136280000Y-91530000D01*
X136280000Y-91530000D01*
G37*
G36*
X143480000Y-91530000D02*
X141520000Y-91530000D01*
X141520000Y-90370000D01*
X143480000Y-90370000D01*
X143480000Y-91530000D01*
X143480000Y-91530000D01*
G37*
G36*
X119870000Y-91370000D02*
X117930000Y-91370000D01*
X117930000Y-89410000D01*
X119870000Y-89410000D01*
X119870000Y-91370000D01*
X119870000Y-91370000D01*
G37*
G36*
X130630000Y-91205000D02*
X129570000Y-91205000D01*
X129570000Y-90195000D01*
X130630000Y-90195000D01*
X130630000Y-91205000D01*
X130630000Y-91205000D01*
G37*
G36*
X129130000Y-91205000D02*
X128070000Y-91205000D01*
X128070000Y-90195000D01*
X129130000Y-90195000D01*
X129130000Y-91205000D01*
X129130000Y-91205000D01*
G37*
G36*
X124130000Y-91105000D02*
X123070000Y-91105000D01*
X123070000Y-90095000D01*
X124130000Y-90095000D01*
X124130000Y-91105000D01*
X124130000Y-91105000D01*
G37*
G36*
X122630000Y-91105000D02*
X121570000Y-91105000D01*
X121570000Y-90095000D01*
X122630000Y-90095000D01*
X122630000Y-91105000D01*
X122630000Y-91105000D01*
G37*
G36*
X113730000Y-89580000D02*
X112570000Y-89580000D01*
X112570000Y-87620000D01*
X113730000Y-87620000D01*
X113730000Y-89580000D01*
X113730000Y-89580000D01*
G37*
G36*
X116630000Y-89580000D02*
X115470000Y-89580000D01*
X115470000Y-87620000D01*
X116630000Y-87620000D01*
X116630000Y-89580000D01*
X116630000Y-89580000D01*
G37*
G36*
X130875000Y-89530000D02*
X130015000Y-89530000D01*
X130015000Y-87770000D01*
X130875000Y-87770000D01*
X130875000Y-89530000D01*
X130875000Y-89530000D01*
G37*
G36*
X127065000Y-89530000D02*
X126205000Y-89530000D01*
X126205000Y-87770000D01*
X127065000Y-87770000D01*
X127065000Y-89530000D01*
X127065000Y-89530000D01*
G37*
G36*
X129605000Y-89530000D02*
X128745000Y-89530000D01*
X128745000Y-87770000D01*
X129605000Y-87770000D01*
X129605000Y-89530000D01*
X129605000Y-89530000D01*
G37*
G36*
X128335000Y-89530000D02*
X127475000Y-89530000D01*
X127475000Y-87770000D01*
X128335000Y-87770000D01*
X128335000Y-89530000D01*
X128335000Y-89530000D01*
G37*
G36*
X121985000Y-89530000D02*
X121125000Y-89530000D01*
X121125000Y-87770000D01*
X121985000Y-87770000D01*
X121985000Y-89530000D01*
X121985000Y-89530000D01*
G37*
G36*
X125795000Y-89530000D02*
X124935000Y-89530000D01*
X124935000Y-87770000D01*
X125795000Y-87770000D01*
X125795000Y-89530000D01*
X125795000Y-89530000D01*
G37*
G36*
X124525000Y-89530000D02*
X123665000Y-89530000D01*
X123665000Y-87770000D01*
X124525000Y-87770000D01*
X124525000Y-89530000D01*
X124525000Y-89530000D01*
G37*
G36*
X123255000Y-89530000D02*
X122395000Y-89530000D01*
X122395000Y-87770000D01*
X123255000Y-87770000D01*
X123255000Y-89530000D01*
X123255000Y-89530000D01*
G37*
G36*
X138680000Y-88630000D02*
X136720000Y-88630000D01*
X136720000Y-87470000D01*
X138680000Y-87470000D01*
X138680000Y-88630000D01*
X138680000Y-88630000D01*
G37*
G36*
X143480000Y-88630000D02*
X141520000Y-88630000D01*
X141520000Y-87470000D01*
X143480000Y-87470000D01*
X143480000Y-88630000D01*
X143480000Y-88630000D01*
G37*
G36*
X136280000Y-88630000D02*
X134320000Y-88630000D01*
X134320000Y-87470000D01*
X136280000Y-87470000D01*
X136280000Y-88630000D01*
X136280000Y-88630000D01*
G37*
G36*
X141080000Y-88630000D02*
X139120000Y-88630000D01*
X139120000Y-87470000D01*
X141080000Y-87470000D01*
X141080000Y-88630000D01*
X141080000Y-88630000D01*
G37*
G36*
X119870000Y-87790000D02*
X117930000Y-87790000D01*
X117930000Y-85830000D01*
X119870000Y-85830000D01*
X119870000Y-87790000D01*
X119870000Y-87790000D01*
G37*
G36*
X116580000Y-87180000D02*
X115420000Y-87180000D01*
X115420000Y-85220000D01*
X116580000Y-85220000D01*
X116580000Y-87180000D01*
X116580000Y-87180000D01*
G37*
G36*
X113680000Y-87180000D02*
X112520000Y-87180000D01*
X112520000Y-85220000D01*
X113680000Y-85220000D01*
X113680000Y-87180000D01*
X113680000Y-87180000D01*
G37*
G36*
X142070000Y-86670000D02*
X140110000Y-86670000D01*
X140110000Y-84730000D01*
X142070000Y-84730000D01*
X142070000Y-86670000D01*
X142070000Y-86670000D01*
G37*
G36*
X138490000Y-86670000D02*
X136530000Y-86670000D01*
X136530000Y-84730000D01*
X138490000Y-84730000D01*
X138490000Y-86670000D01*
X138490000Y-86670000D01*
G37*
G36*
X118980000Y-84980000D02*
X117620000Y-84980000D01*
X117620000Y-83820000D01*
X118980000Y-83820000D01*
X118980000Y-84980000D01*
X118980000Y-84980000D01*
G37*
G36*
X102320000Y-84680000D02*
X101060000Y-84680000D01*
X101060000Y-82120000D01*
X102320000Y-82120000D01*
X102320000Y-84680000D01*
X102320000Y-84680000D01*
G37*
G36*
X116580000Y-84680000D02*
X115420000Y-84680000D01*
X115420000Y-82720000D01*
X116580000Y-82720000D01*
X116580000Y-84680000D01*
X116580000Y-84680000D01*
G37*
G36*
X109940000Y-84680000D02*
X108680000Y-84680000D01*
X108680000Y-82120000D01*
X109940000Y-82120000D01*
X109940000Y-84680000D01*
X109940000Y-84680000D01*
G37*
G36*
X113680000Y-84680000D02*
X112520000Y-84680000D01*
X112520000Y-82720000D01*
X113680000Y-82720000D01*
X113680000Y-84680000D01*
X113680000Y-84680000D01*
G37*
G36*
X157040000Y-83980000D02*
X155780000Y-83980000D01*
X155780000Y-81420000D01*
X157040000Y-81420000D01*
X157040000Y-83980000D01*
X157040000Y-83980000D01*
G37*
G36*
X149420000Y-83980000D02*
X148160000Y-83980000D01*
X148160000Y-81420000D01*
X149420000Y-81420000D01*
X149420000Y-83980000D01*
X149420000Y-83980000D01*
G37*
G36*
X154500000Y-83980000D02*
X153240000Y-83980000D01*
X153240000Y-81420000D01*
X154500000Y-81420000D01*
X154500000Y-83980000D01*
X154500000Y-83980000D01*
G37*
G36*
X136481383Y-83865005D02*
X135621383Y-83865005D01*
X135621383Y-82055005D01*
X136481383Y-82055005D01*
X136481383Y-83865005D01*
X136481383Y-83865005D01*
G37*
G36*
X133941383Y-83865005D02*
X133081383Y-83865005D01*
X133081383Y-82055005D01*
X133941383Y-82055005D01*
X133941383Y-83865005D01*
X133941383Y-83865005D01*
G37*
G36*
X135211383Y-83865005D02*
X134351383Y-83865005D01*
X134351383Y-82055005D01*
X135211383Y-82055005D01*
X135211383Y-83865005D01*
X135211383Y-83865005D01*
G37*
G36*
X137751383Y-83865005D02*
X136891383Y-83865005D01*
X136891383Y-82055005D01*
X137751383Y-82055005D01*
X137751383Y-83865005D01*
X137751383Y-83865005D01*
G37*
G36*
X141005000Y-83830000D02*
X139995000Y-83830000D01*
X139995000Y-82770000D01*
X141005000Y-82770000D01*
X141005000Y-83830000D01*
X141005000Y-83830000D01*
G37*
G36*
X139505000Y-83830000D02*
X138495000Y-83830000D01*
X138495000Y-82770000D01*
X139505000Y-82770000D01*
X139505000Y-83830000D01*
X139505000Y-83830000D01*
G37*
G36*
X118980000Y-82680000D02*
X117620000Y-82680000D01*
X117620000Y-81520000D01*
X118980000Y-81520000D01*
X118980000Y-82680000D01*
X118980000Y-82680000D01*
G37*
G36*
X141005000Y-82330000D02*
X139995000Y-82330000D01*
X139995000Y-81270000D01*
X141005000Y-81270000D01*
X141005000Y-82330000D01*
X141005000Y-82330000D01*
G37*
G36*
X139505000Y-82330000D02*
X138495000Y-82330000D01*
X138495000Y-81270000D01*
X139505000Y-81270000D01*
X139505000Y-82330000D01*
X139505000Y-82330000D01*
G37*
G36*
X156580000Y-80705000D02*
X155520000Y-80705000D01*
X155520000Y-79695000D01*
X156580000Y-79695000D01*
X156580000Y-80705000D01*
X156580000Y-80705000D01*
G37*
G36*
X155080000Y-80705000D02*
X154020000Y-80705000D01*
X154020000Y-79695000D01*
X155080000Y-79695000D01*
X155080000Y-80705000D01*
X155080000Y-80705000D01*
G37*
G36*
X127065000Y-80230000D02*
X126205000Y-80230000D01*
X126205000Y-78470000D01*
X127065000Y-78470000D01*
X127065000Y-80230000D01*
X127065000Y-80230000D01*
G37*
G36*
X121985000Y-80230000D02*
X121125000Y-80230000D01*
X121125000Y-78470000D01*
X121985000Y-78470000D01*
X121985000Y-80230000D01*
X121985000Y-80230000D01*
G37*
G36*
X123255000Y-80230000D02*
X122395000Y-80230000D01*
X122395000Y-78470000D01*
X123255000Y-78470000D01*
X123255000Y-80230000D01*
X123255000Y-80230000D01*
G37*
G36*
X124525000Y-80230000D02*
X123665000Y-80230000D01*
X123665000Y-78470000D01*
X124525000Y-78470000D01*
X124525000Y-80230000D01*
X124525000Y-80230000D01*
G37*
G36*
X125795000Y-80230000D02*
X124935000Y-80230000D01*
X124935000Y-78470000D01*
X125795000Y-78470000D01*
X125795000Y-80230000D01*
X125795000Y-80230000D01*
G37*
G36*
X128335000Y-80230000D02*
X127475000Y-80230000D01*
X127475000Y-78470000D01*
X128335000Y-78470000D01*
X128335000Y-80230000D01*
X128335000Y-80230000D01*
G37*
G36*
X129605000Y-80230000D02*
X128745000Y-80230000D01*
X128745000Y-78470000D01*
X129605000Y-78470000D01*
X129605000Y-80230000D01*
X129605000Y-80230000D01*
G37*
G36*
X130875000Y-80230000D02*
X130015000Y-80230000D01*
X130015000Y-78470000D01*
X130875000Y-78470000D01*
X130875000Y-80230000D01*
X130875000Y-80230000D01*
G37*
G36*
X118680000Y-79705000D02*
X117620000Y-79705000D01*
X117620000Y-78695000D01*
X118680000Y-78695000D01*
X118680000Y-79705000D01*
X118680000Y-79705000D01*
G37*
G36*
X120180000Y-79705000D02*
X119120000Y-79705000D01*
X119120000Y-78695000D01*
X120180000Y-78695000D01*
X120180000Y-79705000D01*
X120180000Y-79705000D01*
G37*
G36*
X136481383Y-78465005D02*
X135621383Y-78465005D01*
X135621383Y-76655005D01*
X136481383Y-76655005D01*
X136481383Y-78465005D01*
X136481383Y-78465005D01*
G37*
G36*
X137751383Y-78465005D02*
X136891383Y-78465005D01*
X136891383Y-76655005D01*
X137751383Y-76655005D01*
X137751383Y-78465005D01*
X137751383Y-78465005D01*
G37*
G36*
X135211383Y-78465005D02*
X134351383Y-78465005D01*
X134351383Y-76655005D01*
X135211383Y-76655005D01*
X135211383Y-78465005D01*
X135211383Y-78465005D01*
G37*
G36*
X133941383Y-78465005D02*
X133081383Y-78465005D01*
X133081383Y-76655005D01*
X133941383Y-76655005D01*
X133941383Y-78465005D01*
X133941383Y-78465005D01*
G37*
G36*
X125430000Y-77780000D02*
X124670000Y-77780000D01*
X124670000Y-76620000D01*
X125430000Y-76620000D01*
X125430000Y-77780000D01*
X125430000Y-77780000D01*
G37*
G36*
X122730000Y-77780000D02*
X121970000Y-77780000D01*
X121970000Y-76620000D01*
X122730000Y-76620000D01*
X122730000Y-77780000D01*
X122730000Y-77780000D01*
G37*
G36*
X121230000Y-77780000D02*
X120470000Y-77780000D01*
X120470000Y-76620000D01*
X121230000Y-76620000D01*
X121230000Y-77780000D01*
X121230000Y-77780000D01*
G37*
G36*
X123930000Y-77780000D02*
X123170000Y-77780000D01*
X123170000Y-76620000D01*
X123930000Y-76620000D01*
X123930000Y-77780000D01*
X123930000Y-77780000D01*
G37*
G36*
X131480000Y-77705000D02*
X130420000Y-77705000D01*
X130420000Y-76695000D01*
X131480000Y-76695000D01*
X131480000Y-77705000D01*
X131480000Y-77705000D01*
G37*
G36*
X129980000Y-77705000D02*
X128920000Y-77705000D01*
X128920000Y-76695000D01*
X129980000Y-76695000D01*
X129980000Y-77705000D01*
X129980000Y-77705000D01*
G37*
G36*
X128480000Y-77705000D02*
X127420000Y-77705000D01*
X127420000Y-76695000D01*
X128480000Y-76695000D01*
X128480000Y-77705000D01*
X128480000Y-77705000D01*
G37*
G36*
X126980000Y-77705000D02*
X125920000Y-77705000D01*
X125920000Y-76695000D01*
X126980000Y-76695000D01*
X126980000Y-77705000D01*
X126980000Y-77705000D01*
G37*
M02*
