G04 #@! TF.FileFunction,Paste,Top*
%FSLAX46Y46*%
G04 Gerber Fmt 4.6, Leading zero omitted, Abs format (unit mm)*
G04 Created by KiCad (PCBNEW 4.0.1-stable) date 27.06.2016 00:57:11*
%MOMM*%
G01*
G04 APERTURE LIST*
%ADD10C,0.100000*%
%ADD11R,1.700000X1.680000*%
%ADD12R,0.750000X0.800000*%
%ADD13R,0.800000X0.750000*%
%ADD14R,0.500000X0.900000*%
%ADD15R,1.501140X2.700020*%
%ADD16R,0.900000X1.700000*%
%ADD17R,0.600000X1.550000*%
G04 APERTURE END LIST*
D10*
D11*
X153960000Y-73750000D03*
X157540000Y-73750000D03*
D12*
X177000000Y-74000000D03*
X177000000Y-72500000D03*
X169500000Y-74000000D03*
X169500000Y-72500000D03*
D13*
X171266515Y-77815699D03*
X172766515Y-77815699D03*
D14*
X165850000Y-93700000D03*
X167350000Y-93700000D03*
X167050000Y-106200000D03*
X165550000Y-106200000D03*
D13*
X165950000Y-92000000D03*
X167450000Y-92000000D03*
X167100000Y-107900000D03*
X165600000Y-107900000D03*
D12*
X167250000Y-126500000D03*
X167250000Y-128000000D03*
X140400000Y-73550000D03*
X140400000Y-72050000D03*
X136250000Y-126250000D03*
X136250000Y-127750000D03*
X174750000Y-126750000D03*
X174750000Y-128250000D03*
X132800000Y-73650000D03*
X132800000Y-72150000D03*
X143750000Y-126250000D03*
X143750000Y-127750000D03*
D13*
X134770552Y-79131338D03*
X136270552Y-79131338D03*
X134720552Y-77431338D03*
X136220552Y-77431338D03*
D12*
X171750000Y-122000000D03*
X171750000Y-120500000D03*
X173250000Y-122000000D03*
X173250000Y-120500000D03*
D13*
X171266515Y-79565699D03*
X172766515Y-79565699D03*
D12*
X138250000Y-122000000D03*
X138250000Y-120500000D03*
X139750000Y-122000000D03*
X139750000Y-120500000D03*
D13*
X168250000Y-81000000D03*
X166750000Y-81000000D03*
X166750000Y-79500000D03*
X168250000Y-79500000D03*
X131750000Y-79000000D03*
X130250000Y-79000000D03*
X130250000Y-80600000D03*
X131750000Y-80600000D03*
D12*
X134812796Y-120535774D03*
X134812796Y-122035774D03*
X136312796Y-122035774D03*
X136312796Y-120535774D03*
X168250000Y-120500000D03*
X168250000Y-122000000D03*
X169750000Y-122000000D03*
X169750000Y-120500000D03*
D13*
X161750000Y-78500000D03*
X163250000Y-78500000D03*
X125750000Y-78100000D03*
X127250000Y-78100000D03*
X121250000Y-122250000D03*
X119750000Y-122250000D03*
X155000000Y-122000000D03*
X153500000Y-122000000D03*
X162000000Y-69500000D03*
X163500000Y-69500000D03*
X125850000Y-70000000D03*
X127350000Y-70000000D03*
X121250000Y-130500000D03*
X119750000Y-130500000D03*
X155000000Y-130250000D03*
X153500000Y-130250000D03*
D15*
X160349700Y-75500000D03*
X165150300Y-75500000D03*
X124299700Y-75700000D03*
X129100300Y-75700000D03*
X122900300Y-124750000D03*
X118099700Y-124750000D03*
X156650300Y-124500000D03*
X151849700Y-124500000D03*
D11*
X157540000Y-77750000D03*
X153960000Y-77750000D03*
X121500000Y-77200000D03*
X117920000Y-77200000D03*
X126460000Y-124750000D03*
X130040000Y-124750000D03*
X159460000Y-125000000D03*
X163040000Y-125000000D03*
D15*
X165150300Y-72000000D03*
X160349700Y-72000000D03*
X129100300Y-72400000D03*
X124299700Y-72400000D03*
X118099700Y-128000000D03*
X122900300Y-128000000D03*
X151849700Y-127750000D03*
X156650300Y-127750000D03*
D11*
X117920000Y-73100000D03*
X121500000Y-73100000D03*
X129750000Y-129250000D03*
X126170000Y-129250000D03*
X163080000Y-129250000D03*
X159500000Y-129250000D03*
D16*
X164450000Y-80500000D03*
X161550000Y-80500000D03*
X128700000Y-80100000D03*
X125800000Y-80100000D03*
X133200000Y-122000000D03*
X130300000Y-122000000D03*
X166450000Y-121750000D03*
X163550000Y-121750000D03*
D17*
X175155000Y-70550000D03*
X173885000Y-70550000D03*
X172615000Y-70550000D03*
X171345000Y-70550000D03*
X171345000Y-75950000D03*
X172615000Y-75950000D03*
X173885000Y-75950000D03*
X175155000Y-75950000D03*
X138505000Y-70100000D03*
X137235000Y-70100000D03*
X135965000Y-70100000D03*
X134695000Y-70100000D03*
X134695000Y-75500000D03*
X135965000Y-75500000D03*
X137235000Y-75500000D03*
X138505000Y-75500000D03*
X138095000Y-129950000D03*
X139365000Y-129950000D03*
X140635000Y-129950000D03*
X141905000Y-129950000D03*
X141905000Y-124550000D03*
X140635000Y-124550000D03*
X139365000Y-124550000D03*
X138095000Y-124550000D03*
X169095000Y-130200000D03*
X170365000Y-130200000D03*
X171635000Y-130200000D03*
X172905000Y-130200000D03*
X172905000Y-124800000D03*
X171635000Y-124800000D03*
X170365000Y-124800000D03*
X169095000Y-124800000D03*
M02*
