G04 #@! TF.FileFunction,Legend,Top*
%FSLAX46Y46*%
G04 Gerber Fmt 4.6, Leading zero omitted, Abs format (unit mm)*
G04 Created by KiCad (PCBNEW 4.0.1-stable) date 27.06.2016 00:57:11*
%MOMM*%
G01*
G04 APERTURE LIST*
%ADD10C,0.100000*%
%ADD11C,0.300000*%
%ADD12C,0.150000*%
%ADD13C,0.250000*%
%ADD14R,1.960000X1.940000*%
%ADD15R,1.010000X1.060000*%
%ADD16R,1.060000X1.010000*%
%ADD17R,2.560000X2.560000*%
%ADD18C,2.560000*%
%ADD19R,0.760000X1.160000*%
%ADD20O,2.292000X2.800000*%
%ADD21R,1.987200X1.987200*%
%ADD22O,1.987200X1.987200*%
%ADD23R,1.761140X2.960020*%
%ADD24C,7.260000*%
%ADD25R,1.160000X1.960000*%
%ADD26R,0.860000X1.810000*%
%ADD27O,1.159160X1.761140*%
%ADD28C,15.260000*%
%ADD29C,1.960000*%
%ADD30C,2.060000*%
%ADD31C,0.254000*%
G04 APERTURE END LIST*
D10*
D11*
X109507143Y-140678571D02*
X109792857Y-140678571D01*
X109935715Y-140750000D01*
X110078572Y-140892857D01*
X110150000Y-141178571D01*
X110150000Y-141678571D01*
X110078572Y-141964286D01*
X109935715Y-142107143D01*
X109792857Y-142178571D01*
X109507143Y-142178571D01*
X109364286Y-142107143D01*
X109221429Y-141964286D01*
X109150000Y-141678571D01*
X109150000Y-141178571D01*
X109221429Y-140892857D01*
X109364286Y-140750000D01*
X109507143Y-140678571D01*
X110792858Y-140678571D02*
X110792858Y-141892857D01*
X110864286Y-142035714D01*
X110935715Y-142107143D01*
X111078572Y-142178571D01*
X111364286Y-142178571D01*
X111507144Y-142107143D01*
X111578572Y-142035714D01*
X111650001Y-141892857D01*
X111650001Y-140678571D01*
X112150001Y-140678571D02*
X113007144Y-140678571D01*
X112578573Y-142178571D02*
X112578573Y-140678571D01*
X115364287Y-142178571D02*
X114650001Y-142178571D01*
X114650001Y-140678571D01*
X115792858Y-140821429D02*
X115864287Y-140750000D01*
X116007144Y-140678571D01*
X116364287Y-140678571D01*
X116507144Y-140750000D01*
X116578573Y-140821429D01*
X116650001Y-140964286D01*
X116650001Y-141107143D01*
X116578573Y-141321429D01*
X115721430Y-142178571D01*
X116650001Y-142178571D01*
X109432143Y-57978571D02*
X109717857Y-57978571D01*
X109860715Y-58050000D01*
X110003572Y-58192857D01*
X110075000Y-58478571D01*
X110075000Y-58978571D01*
X110003572Y-59264286D01*
X109860715Y-59407143D01*
X109717857Y-59478571D01*
X109432143Y-59478571D01*
X109289286Y-59407143D01*
X109146429Y-59264286D01*
X109075000Y-58978571D01*
X109075000Y-58478571D01*
X109146429Y-58192857D01*
X109289286Y-58050000D01*
X109432143Y-57978571D01*
X110717858Y-57978571D02*
X110717858Y-59192857D01*
X110789286Y-59335714D01*
X110860715Y-59407143D01*
X111003572Y-59478571D01*
X111289286Y-59478571D01*
X111432144Y-59407143D01*
X111503572Y-59335714D01*
X111575001Y-59192857D01*
X111575001Y-57978571D01*
X112075001Y-57978571D02*
X112932144Y-57978571D01*
X112503573Y-59478571D02*
X112503573Y-57978571D01*
X115289287Y-59478571D02*
X114575001Y-59478571D01*
X114575001Y-57978571D01*
X116575001Y-59478571D02*
X115717858Y-59478571D01*
X116146430Y-59478571D02*
X116146430Y-57978571D01*
X116003573Y-58192857D01*
X115860715Y-58335714D01*
X115717858Y-58407143D01*
X104389286Y-118528571D02*
X104389286Y-117028571D01*
X105103572Y-118528571D02*
X105103572Y-117028571D01*
X105960715Y-118528571D01*
X105960715Y-117028571D01*
X107817858Y-117957143D02*
X108960715Y-117957143D01*
X108389286Y-118528571D02*
X108389286Y-117385714D01*
X104489286Y-82978571D02*
X104489286Y-81478571D01*
X105203572Y-82978571D02*
X105203572Y-81478571D01*
X106060715Y-82978571D01*
X106060715Y-81478571D01*
X107917858Y-82407143D02*
X109060715Y-82407143D01*
X144364286Y-51062857D02*
X145050000Y-51062857D01*
X144707143Y-52262857D02*
X144707143Y-51062857D01*
X145907143Y-52205714D02*
X145792857Y-52262857D01*
X145564286Y-52262857D01*
X145450000Y-52205714D01*
X145392857Y-52091429D01*
X145392857Y-51634286D01*
X145450000Y-51520000D01*
X145564286Y-51462857D01*
X145792857Y-51462857D01*
X145907143Y-51520000D01*
X145964286Y-51634286D01*
X145964286Y-51748571D01*
X145392857Y-51862857D01*
X146421428Y-52205714D02*
X146535714Y-52262857D01*
X146764286Y-52262857D01*
X146878571Y-52205714D01*
X146935714Y-52091429D01*
X146935714Y-52034286D01*
X146878571Y-51920000D01*
X146764286Y-51862857D01*
X146592857Y-51862857D01*
X146478571Y-51805714D01*
X146421428Y-51691429D01*
X146421428Y-51634286D01*
X146478571Y-51520000D01*
X146592857Y-51462857D01*
X146764286Y-51462857D01*
X146878571Y-51520000D01*
X147621429Y-52262857D02*
X147507143Y-52205714D01*
X147450000Y-52091429D01*
X147450000Y-51062857D01*
X148592857Y-52262857D02*
X148592857Y-51634286D01*
X148535714Y-51520000D01*
X148421428Y-51462857D01*
X148192857Y-51462857D01*
X148078571Y-51520000D01*
X148592857Y-52205714D02*
X148478571Y-52262857D01*
X148192857Y-52262857D01*
X148078571Y-52205714D01*
X148021428Y-52091429D01*
X148021428Y-51977143D01*
X148078571Y-51862857D01*
X148192857Y-51805714D01*
X148478571Y-51805714D01*
X148592857Y-51748571D01*
X150078571Y-52262857D02*
X150078571Y-51062857D01*
X150364286Y-51062857D01*
X150535714Y-51120000D01*
X150650000Y-51234286D01*
X150707143Y-51348571D01*
X150764286Y-51577143D01*
X150764286Y-51748571D01*
X150707143Y-51977143D01*
X150650000Y-52091429D01*
X150535714Y-52205714D01*
X150364286Y-52262857D01*
X150078571Y-52262857D01*
X151278571Y-52262857D02*
X151278571Y-51462857D01*
X151278571Y-51691429D02*
X151335714Y-51577143D01*
X151392857Y-51520000D01*
X151507143Y-51462857D01*
X151621428Y-51462857D01*
X152021428Y-52262857D02*
X152021428Y-51462857D01*
X152021428Y-51062857D02*
X151964285Y-51120000D01*
X152021428Y-51177143D01*
X152078571Y-51120000D01*
X152021428Y-51062857D01*
X152021428Y-51177143D01*
X152478572Y-51462857D02*
X152764286Y-52262857D01*
X153050000Y-51462857D01*
X153964286Y-52205714D02*
X153850000Y-52262857D01*
X153621429Y-52262857D01*
X153507143Y-52205714D01*
X153450000Y-52091429D01*
X153450000Y-51634286D01*
X153507143Y-51520000D01*
X153621429Y-51462857D01*
X153850000Y-51462857D01*
X153964286Y-51520000D01*
X154021429Y-51634286D01*
X154021429Y-51748571D01*
X153450000Y-51862857D01*
X154535714Y-52262857D02*
X154535714Y-51462857D01*
X154535714Y-51691429D02*
X154592857Y-51577143D01*
X154650000Y-51520000D01*
X154764286Y-51462857D01*
X154878571Y-51462857D01*
X156878572Y-52262857D02*
X156478572Y-51691429D01*
X156192857Y-52262857D02*
X156192857Y-51062857D01*
X156650000Y-51062857D01*
X156764286Y-51120000D01*
X156821429Y-51177143D01*
X156878572Y-51291429D01*
X156878572Y-51462857D01*
X156821429Y-51577143D01*
X156764286Y-51634286D01*
X156650000Y-51691429D01*
X156192857Y-51691429D01*
X157850000Y-52205714D02*
X157735714Y-52262857D01*
X157507143Y-52262857D01*
X157392857Y-52205714D01*
X157335714Y-52091429D01*
X157335714Y-51634286D01*
X157392857Y-51520000D01*
X157507143Y-51462857D01*
X157735714Y-51462857D01*
X157850000Y-51520000D01*
X157907143Y-51634286D01*
X157907143Y-51748571D01*
X157335714Y-51862857D01*
X158307143Y-51462857D02*
X158592857Y-52262857D01*
X158878571Y-51462857D01*
X159335714Y-52148571D02*
X159392857Y-52205714D01*
X159335714Y-52262857D01*
X159278571Y-52205714D01*
X159335714Y-52148571D01*
X159335714Y-52262857D01*
X160764286Y-51177143D02*
X160821429Y-51120000D01*
X160935715Y-51062857D01*
X161221429Y-51062857D01*
X161335715Y-51120000D01*
X161392858Y-51177143D01*
X161450001Y-51291429D01*
X161450001Y-51405714D01*
X161392858Y-51577143D01*
X160707144Y-52262857D01*
X161450001Y-52262857D01*
X161964286Y-52148571D02*
X162021429Y-52205714D01*
X161964286Y-52262857D01*
X161907143Y-52205714D01*
X161964286Y-52148571D01*
X161964286Y-52262857D01*
X162764287Y-51062857D02*
X162878572Y-51062857D01*
X162992858Y-51120000D01*
X163050001Y-51177143D01*
X163107144Y-51291429D01*
X163164287Y-51520000D01*
X163164287Y-51805714D01*
X163107144Y-52034286D01*
X163050001Y-52148571D01*
X162992858Y-52205714D01*
X162878572Y-52262857D01*
X162764287Y-52262857D01*
X162650001Y-52205714D01*
X162592858Y-52148571D01*
X162535715Y-52034286D01*
X162478572Y-51805714D01*
X162478572Y-51520000D01*
X162535715Y-51291429D01*
X162592858Y-51177143D01*
X162650001Y-51120000D01*
X162764287Y-51062857D01*
X144764286Y-53042857D02*
X144878571Y-53042857D01*
X144992857Y-53100000D01*
X145050000Y-53157143D01*
X145107143Y-53271429D01*
X145164286Y-53500000D01*
X145164286Y-53785714D01*
X145107143Y-54014286D01*
X145050000Y-54128571D01*
X144992857Y-54185714D01*
X144878571Y-54242857D01*
X144764286Y-54242857D01*
X144650000Y-54185714D01*
X144592857Y-54128571D01*
X144535714Y-54014286D01*
X144478571Y-53785714D01*
X144478571Y-53500000D01*
X144535714Y-53271429D01*
X144592857Y-53157143D01*
X144650000Y-53100000D01*
X144764286Y-53042857D01*
X146192857Y-53042857D02*
X145964286Y-53042857D01*
X145850000Y-53100000D01*
X145792857Y-53157143D01*
X145678571Y-53328571D01*
X145621428Y-53557143D01*
X145621428Y-54014286D01*
X145678571Y-54128571D01*
X145735714Y-54185714D01*
X145850000Y-54242857D01*
X146078571Y-54242857D01*
X146192857Y-54185714D01*
X146250000Y-54128571D01*
X146307143Y-54014286D01*
X146307143Y-53728571D01*
X146250000Y-53614286D01*
X146192857Y-53557143D01*
X146078571Y-53500000D01*
X145850000Y-53500000D01*
X145735714Y-53557143D01*
X145678571Y-53614286D01*
X145621428Y-53728571D01*
X146821428Y-53785714D02*
X147735714Y-53785714D01*
X148249999Y-53157143D02*
X148307142Y-53100000D01*
X148421428Y-53042857D01*
X148707142Y-53042857D01*
X148821428Y-53100000D01*
X148878571Y-53157143D01*
X148935714Y-53271429D01*
X148935714Y-53385714D01*
X148878571Y-53557143D01*
X148192857Y-54242857D01*
X148935714Y-54242857D01*
X149678571Y-53042857D02*
X149792856Y-53042857D01*
X149907142Y-53100000D01*
X149964285Y-53157143D01*
X150021428Y-53271429D01*
X150078571Y-53500000D01*
X150078571Y-53785714D01*
X150021428Y-54014286D01*
X149964285Y-54128571D01*
X149907142Y-54185714D01*
X149792856Y-54242857D01*
X149678571Y-54242857D01*
X149564285Y-54185714D01*
X149507142Y-54128571D01*
X149449999Y-54014286D01*
X149392856Y-53785714D01*
X149392856Y-53500000D01*
X149449999Y-53271429D01*
X149507142Y-53157143D01*
X149564285Y-53100000D01*
X149678571Y-53042857D01*
X151221428Y-54242857D02*
X150535713Y-54242857D01*
X150878571Y-54242857D02*
X150878571Y-53042857D01*
X150764285Y-53214286D01*
X150649999Y-53328571D01*
X150535713Y-53385714D01*
X152249999Y-53042857D02*
X152021428Y-53042857D01*
X151907142Y-53100000D01*
X151849999Y-53157143D01*
X151735713Y-53328571D01*
X151678570Y-53557143D01*
X151678570Y-54014286D01*
X151735713Y-54128571D01*
X151792856Y-54185714D01*
X151907142Y-54242857D01*
X152135713Y-54242857D01*
X152249999Y-54185714D01*
X152307142Y-54128571D01*
X152364285Y-54014286D01*
X152364285Y-53728571D01*
X152307142Y-53614286D01*
X152249999Y-53557143D01*
X152135713Y-53500000D01*
X151907142Y-53500000D01*
X151792856Y-53557143D01*
X151735713Y-53614286D01*
X151678570Y-53728571D01*
X144535714Y-56222857D02*
X144535714Y-55022857D01*
X145221429Y-56222857D02*
X144707143Y-55537143D01*
X145221429Y-55022857D02*
X144535714Y-55708571D01*
X146250000Y-55422857D02*
X146250000Y-56222857D01*
X145735714Y-55422857D02*
X145735714Y-56051429D01*
X145792857Y-56165714D01*
X145907143Y-56222857D01*
X146078571Y-56222857D01*
X146192857Y-56165714D01*
X146250000Y-56108571D01*
X146821428Y-56222857D02*
X146821428Y-55422857D01*
X146821428Y-55651429D02*
X146878571Y-55537143D01*
X146935714Y-55480000D01*
X147050000Y-55422857D01*
X147164285Y-55422857D01*
X147392857Y-55422857D02*
X147850000Y-55422857D01*
X147564285Y-55022857D02*
X147564285Y-56051429D01*
X147621428Y-56165714D01*
X147735714Y-56222857D01*
X147850000Y-56222857D01*
X149107142Y-56165714D02*
X149278571Y-56222857D01*
X149564285Y-56222857D01*
X149678571Y-56165714D01*
X149735714Y-56108571D01*
X149792857Y-55994286D01*
X149792857Y-55880000D01*
X149735714Y-55765714D01*
X149678571Y-55708571D01*
X149564285Y-55651429D01*
X149335714Y-55594286D01*
X149221428Y-55537143D01*
X149164285Y-55480000D01*
X149107142Y-55365714D01*
X149107142Y-55251429D01*
X149164285Y-55137143D01*
X149221428Y-55080000D01*
X149335714Y-55022857D01*
X149621428Y-55022857D01*
X149792857Y-55080000D01*
X150307142Y-56222857D02*
X150307142Y-55022857D01*
X150421428Y-55765714D02*
X150764285Y-56222857D01*
X150764285Y-55422857D02*
X150307142Y-55880000D01*
X151792857Y-56222857D02*
X151792857Y-55594286D01*
X151735714Y-55480000D01*
X151621428Y-55422857D01*
X151392857Y-55422857D01*
X151278571Y-55480000D01*
X151792857Y-56165714D02*
X151678571Y-56222857D01*
X151392857Y-56222857D01*
X151278571Y-56165714D01*
X151221428Y-56051429D01*
X151221428Y-55937143D01*
X151278571Y-55822857D01*
X151392857Y-55765714D01*
X151678571Y-55765714D01*
X151792857Y-55708571D01*
X152878571Y-55422857D02*
X152878571Y-56222857D01*
X152364285Y-55422857D02*
X152364285Y-56051429D01*
X152421428Y-56165714D01*
X152535714Y-56222857D01*
X152707142Y-56222857D01*
X152821428Y-56165714D01*
X152878571Y-56108571D01*
X153907142Y-56165714D02*
X153792856Y-56222857D01*
X153564285Y-56222857D01*
X153449999Y-56165714D01*
X153392856Y-56051429D01*
X153392856Y-55594286D01*
X153449999Y-55480000D01*
X153564285Y-55422857D01*
X153792856Y-55422857D01*
X153907142Y-55480000D01*
X153964285Y-55594286D01*
X153964285Y-55708571D01*
X153392856Y-55822857D01*
X154478570Y-55422857D02*
X154478570Y-56222857D01*
X154478570Y-55537143D02*
X154535713Y-55480000D01*
X154649999Y-55422857D01*
X154821427Y-55422857D01*
X154935713Y-55480000D01*
X154992856Y-55594286D01*
X154992856Y-56222857D01*
D12*
X153950860Y-75145000D02*
X153950860Y-74790000D01*
X153950860Y-72355000D02*
X153950860Y-72710000D01*
X158000440Y-75145000D02*
X158000440Y-74790000D01*
X153499560Y-75145000D02*
X153499560Y-74790000D01*
X153499560Y-72355000D02*
X153499560Y-72710000D01*
X158000440Y-72355000D02*
X158000440Y-72710000D01*
X153499560Y-75145000D02*
X158000440Y-75145000D01*
X153499560Y-72355000D02*
X158000440Y-72355000D01*
X176400000Y-73600000D02*
X176400000Y-72900000D01*
X177600000Y-72900000D02*
X177600000Y-73600000D01*
X168900000Y-73600000D02*
X168900000Y-72900000D01*
X170100000Y-72900000D02*
X170100000Y-73600000D01*
X171666515Y-77215699D02*
X172366515Y-77215699D01*
X172366515Y-78415699D02*
X171666515Y-78415699D01*
X116000000Y-109500000D02*
X116000000Y-91500000D01*
X116000000Y-91500000D02*
X124000000Y-91500000D01*
X124000000Y-91500000D02*
X124000000Y-109500000D01*
X124000000Y-109500000D02*
X116000000Y-109500000D01*
X162000000Y-91500000D02*
X162000000Y-109500000D01*
X162000000Y-109500000D02*
X154000000Y-109500000D01*
X154000000Y-109500000D02*
X154000000Y-91500000D01*
X154000000Y-91500000D02*
X162000000Y-91500000D01*
X167100000Y-94375000D02*
X166100000Y-94375000D01*
X166100000Y-93025000D02*
X167100000Y-93025000D01*
X165800000Y-105525000D02*
X166800000Y-105525000D01*
X166800000Y-106875000D02*
X165800000Y-106875000D01*
X125356000Y-81349000D02*
X125356000Y-84778000D01*
X115704000Y-81349000D02*
X115704000Y-84778000D01*
X125864000Y-80206000D02*
X115196000Y-80206000D01*
X122308000Y-81222000D02*
X122308000Y-79952000D01*
X118752000Y-81222000D02*
X118752000Y-79952000D01*
X115196000Y-81349000D02*
X125864000Y-81349000D01*
X125864000Y-84778000D02*
X115196000Y-84778000D01*
X115196000Y-79952000D02*
X115196000Y-84778000D01*
X125864000Y-79952000D02*
X125864000Y-84778000D01*
X125864000Y-79952000D02*
X115196000Y-79952000D01*
X164296000Y-81349000D02*
X164296000Y-84778000D01*
X154644000Y-81349000D02*
X154644000Y-84778000D01*
X164804000Y-80206000D02*
X154136000Y-80206000D01*
X161248000Y-81222000D02*
X161248000Y-79952000D01*
X157692000Y-81222000D02*
X157692000Y-79952000D01*
X154136000Y-81349000D02*
X164804000Y-81349000D01*
X164804000Y-84778000D02*
X154136000Y-84778000D01*
X154136000Y-79952000D02*
X154136000Y-84778000D01*
X164804000Y-79952000D02*
X164804000Y-84778000D01*
X164804000Y-79952000D02*
X154136000Y-79952000D01*
X115704000Y-119651000D02*
X115704000Y-116222000D01*
X125356000Y-119651000D02*
X125356000Y-116222000D01*
X115196000Y-120794000D02*
X125864000Y-120794000D01*
X118752000Y-119778000D02*
X118752000Y-121048000D01*
X122308000Y-119778000D02*
X122308000Y-121048000D01*
X125864000Y-119651000D02*
X115196000Y-119651000D01*
X115196000Y-116222000D02*
X125864000Y-116222000D01*
X125864000Y-121048000D02*
X125864000Y-116222000D01*
X115196000Y-121048000D02*
X115196000Y-116222000D01*
X115196000Y-121048000D02*
X125864000Y-121048000D01*
X154644000Y-119651000D02*
X154644000Y-116222000D01*
X164296000Y-119651000D02*
X164296000Y-116222000D01*
X154136000Y-120794000D02*
X164804000Y-120794000D01*
X157692000Y-119778000D02*
X157692000Y-121048000D01*
X161248000Y-119778000D02*
X161248000Y-121048000D01*
X164804000Y-119651000D02*
X154136000Y-119651000D01*
X154136000Y-116222000D02*
X164804000Y-116222000D01*
X164804000Y-121048000D02*
X164804000Y-116222000D01*
X154136000Y-121048000D02*
X154136000Y-116222000D01*
X154136000Y-121048000D02*
X164804000Y-121048000D01*
X166350000Y-91400000D02*
X167050000Y-91400000D01*
X167050000Y-92600000D02*
X166350000Y-92600000D01*
X166700000Y-108500000D02*
X166000000Y-108500000D01*
X166000000Y-107300000D02*
X166700000Y-107300000D01*
X167850000Y-126900000D02*
X167850000Y-127600000D01*
X166650000Y-127600000D02*
X166650000Y-126900000D01*
X139800000Y-73150000D02*
X139800000Y-72450000D01*
X141000000Y-72450000D02*
X141000000Y-73150000D01*
X136850000Y-126650000D02*
X136850000Y-127350000D01*
X135650000Y-127350000D02*
X135650000Y-126650000D01*
X175350000Y-127150000D02*
X175350000Y-127850000D01*
X174150000Y-127850000D02*
X174150000Y-127150000D01*
X132200000Y-73250000D02*
X132200000Y-72550000D01*
X133400000Y-72550000D02*
X133400000Y-73250000D01*
X144350000Y-126650000D02*
X144350000Y-127350000D01*
X143150000Y-127350000D02*
X143150000Y-126650000D01*
X135170552Y-78531338D02*
X135870552Y-78531338D01*
X135870552Y-79731338D02*
X135170552Y-79731338D01*
X135120552Y-76831338D02*
X135820552Y-76831338D01*
X135820552Y-78031338D02*
X135120552Y-78031338D01*
X171150000Y-121600000D02*
X171150000Y-120900000D01*
X172350000Y-120900000D02*
X172350000Y-121600000D01*
X172650000Y-121600000D02*
X172650000Y-120900000D01*
X173850000Y-120900000D02*
X173850000Y-121600000D01*
X171666515Y-78965699D02*
X172366515Y-78965699D01*
X172366515Y-80165699D02*
X171666515Y-80165699D01*
X137650000Y-121600000D02*
X137650000Y-120900000D01*
X138850000Y-120900000D02*
X138850000Y-121600000D01*
X139150000Y-121600000D02*
X139150000Y-120900000D01*
X140350000Y-120900000D02*
X140350000Y-121600000D01*
X167850000Y-81600000D02*
X167150000Y-81600000D01*
X167150000Y-80400000D02*
X167850000Y-80400000D01*
X167150000Y-78900000D02*
X167850000Y-78900000D01*
X167850000Y-80100000D02*
X167150000Y-80100000D01*
X131350000Y-79600000D02*
X130650000Y-79600000D01*
X130650000Y-78400000D02*
X131350000Y-78400000D01*
X130650000Y-80000000D02*
X131350000Y-80000000D01*
X131350000Y-81200000D02*
X130650000Y-81200000D01*
X135412796Y-120935774D02*
X135412796Y-121635774D01*
X134212796Y-121635774D02*
X134212796Y-120935774D01*
X135712796Y-121635774D02*
X135712796Y-120935774D01*
X136912796Y-120935774D02*
X136912796Y-121635774D01*
X168850000Y-120900000D02*
X168850000Y-121600000D01*
X167650000Y-121600000D02*
X167650000Y-120900000D01*
X169150000Y-121600000D02*
X169150000Y-120900000D01*
X170350000Y-120900000D02*
X170350000Y-121600000D01*
X162150000Y-77900000D02*
X162850000Y-77900000D01*
X162850000Y-79100000D02*
X162150000Y-79100000D01*
X126150000Y-77500000D02*
X126850000Y-77500000D01*
X126850000Y-78700000D02*
X126150000Y-78700000D01*
X120850000Y-122850000D02*
X120150000Y-122850000D01*
X120150000Y-121650000D02*
X120850000Y-121650000D01*
X154600000Y-122600000D02*
X153900000Y-122600000D01*
X153900000Y-121400000D02*
X154600000Y-121400000D01*
X162400000Y-68900000D02*
X163100000Y-68900000D01*
X163100000Y-70100000D02*
X162400000Y-70100000D01*
X126250000Y-69400000D02*
X126950000Y-69400000D01*
X126950000Y-70600000D02*
X126250000Y-70600000D01*
X120850000Y-131100000D02*
X120150000Y-131100000D01*
X120150000Y-129900000D02*
X120850000Y-129900000D01*
X154600000Y-130850000D02*
X153900000Y-130850000D01*
X153900000Y-129650000D02*
X154600000Y-129650000D01*
X161599380Y-75500000D02*
X162549340Y-74250320D01*
X162549340Y-74250320D02*
X162549340Y-76749680D01*
X162549340Y-76749680D02*
X161551120Y-75500000D01*
X161551120Y-74250320D02*
X161551120Y-76749680D01*
X163849820Y-74250320D02*
X163948880Y-74250320D01*
X163849820Y-76749680D02*
X163948880Y-76749680D01*
X161551120Y-74250320D02*
X163900620Y-74250320D01*
X161551120Y-76749680D02*
X163799020Y-76749680D01*
X125549380Y-75700000D02*
X126499340Y-74450320D01*
X126499340Y-74450320D02*
X126499340Y-76949680D01*
X126499340Y-76949680D02*
X125501120Y-75700000D01*
X125501120Y-74450320D02*
X125501120Y-76949680D01*
X127799820Y-74450320D02*
X127898880Y-74450320D01*
X127799820Y-76949680D02*
X127898880Y-76949680D01*
X125501120Y-74450320D02*
X127850620Y-74450320D01*
X125501120Y-76949680D02*
X127749020Y-76949680D01*
X121650620Y-124750000D02*
X120700660Y-125999680D01*
X120700660Y-125999680D02*
X120700660Y-123500320D01*
X120700660Y-123500320D02*
X121698880Y-124750000D01*
X121698880Y-125999680D02*
X121698880Y-123500320D01*
X119400180Y-125999680D02*
X119301120Y-125999680D01*
X119400180Y-123500320D02*
X119301120Y-123500320D01*
X121698880Y-125999680D02*
X119349380Y-125999680D01*
X121698880Y-123500320D02*
X119450980Y-123500320D01*
X155400620Y-124500000D02*
X154450660Y-125749680D01*
X154450660Y-125749680D02*
X154450660Y-123250320D01*
X154450660Y-123250320D02*
X155448880Y-124500000D01*
X155448880Y-125749680D02*
X155448880Y-123250320D01*
X153150180Y-125749680D02*
X153051120Y-125749680D01*
X153150180Y-123250320D02*
X153051120Y-123250320D01*
X155448880Y-125749680D02*
X153099380Y-125749680D01*
X155448880Y-123250320D02*
X153200980Y-123250320D01*
X157549140Y-76355000D02*
X157549140Y-76710000D01*
X157549140Y-79145000D02*
X157549140Y-78790000D01*
X153499560Y-76355000D02*
X153499560Y-76710000D01*
X158000440Y-76355000D02*
X158000440Y-76710000D01*
X158000440Y-79145000D02*
X158000440Y-78790000D01*
X153499560Y-79145000D02*
X153499560Y-78790000D01*
X158000440Y-76355000D02*
X153499560Y-76355000D01*
X158000440Y-79145000D02*
X153499560Y-79145000D01*
X121509140Y-75805000D02*
X121509140Y-76160000D01*
X121509140Y-78595000D02*
X121509140Y-78240000D01*
X117459560Y-75805000D02*
X117459560Y-76160000D01*
X121960440Y-75805000D02*
X121960440Y-76160000D01*
X121960440Y-78595000D02*
X121960440Y-78240000D01*
X117459560Y-78595000D02*
X117459560Y-78240000D01*
X121960440Y-75805000D02*
X117459560Y-75805000D01*
X121960440Y-78595000D02*
X117459560Y-78595000D01*
X126450860Y-126145000D02*
X126450860Y-125790000D01*
X126450860Y-123355000D02*
X126450860Y-123710000D01*
X130500440Y-126145000D02*
X130500440Y-125790000D01*
X125999560Y-126145000D02*
X125999560Y-125790000D01*
X125999560Y-123355000D02*
X125999560Y-123710000D01*
X130500440Y-123355000D02*
X130500440Y-123710000D01*
X125999560Y-126145000D02*
X130500440Y-126145000D01*
X125999560Y-123355000D02*
X130500440Y-123355000D01*
X159450860Y-126395000D02*
X159450860Y-126040000D01*
X159450860Y-123605000D02*
X159450860Y-123960000D01*
X163500440Y-126395000D02*
X163500440Y-126040000D01*
X158999560Y-126395000D02*
X158999560Y-126040000D01*
X158999560Y-123605000D02*
X158999560Y-123960000D01*
X163500440Y-123605000D02*
X163500440Y-123960000D01*
X158999560Y-126395000D02*
X163500440Y-126395000D01*
X158999560Y-123605000D02*
X163500440Y-123605000D01*
X163900620Y-72000000D02*
X162950660Y-73249680D01*
X162950660Y-73249680D02*
X162950660Y-70750320D01*
X162950660Y-70750320D02*
X163948880Y-72000000D01*
X163948880Y-73249680D02*
X163948880Y-70750320D01*
X161650180Y-73249680D02*
X161551120Y-73249680D01*
X161650180Y-70750320D02*
X161551120Y-70750320D01*
X163948880Y-73249680D02*
X161599380Y-73249680D01*
X163948880Y-70750320D02*
X161700980Y-70750320D01*
X127850620Y-72400000D02*
X126900660Y-73649680D01*
X126900660Y-73649680D02*
X126900660Y-71150320D01*
X126900660Y-71150320D02*
X127898880Y-72400000D01*
X127898880Y-73649680D02*
X127898880Y-71150320D01*
X125600180Y-73649680D02*
X125501120Y-73649680D01*
X125600180Y-71150320D02*
X125501120Y-71150320D01*
X127898880Y-73649680D02*
X125549380Y-73649680D01*
X127898880Y-71150320D02*
X125650980Y-71150320D01*
X119349380Y-128000000D02*
X120299340Y-126750320D01*
X120299340Y-126750320D02*
X120299340Y-129249680D01*
X120299340Y-129249680D02*
X119301120Y-128000000D01*
X119301120Y-126750320D02*
X119301120Y-129249680D01*
X121599820Y-126750320D02*
X121698880Y-126750320D01*
X121599820Y-129249680D02*
X121698880Y-129249680D01*
X119301120Y-126750320D02*
X121650620Y-126750320D01*
X119301120Y-129249680D02*
X121549020Y-129249680D01*
X153099380Y-127750000D02*
X154049340Y-126500320D01*
X154049340Y-126500320D02*
X154049340Y-128999680D01*
X154049340Y-128999680D02*
X153051120Y-127750000D01*
X153051120Y-126500320D02*
X153051120Y-128999680D01*
X155349820Y-126500320D02*
X155448880Y-126500320D01*
X155349820Y-128999680D02*
X155448880Y-128999680D01*
X153051120Y-126500320D02*
X155400620Y-126500320D01*
X153051120Y-128999680D02*
X155299020Y-128999680D01*
X117910860Y-74495000D02*
X117910860Y-74140000D01*
X117910860Y-71705000D02*
X117910860Y-72060000D01*
X121960440Y-74495000D02*
X121960440Y-74140000D01*
X117459560Y-74495000D02*
X117459560Y-74140000D01*
X117459560Y-71705000D02*
X117459560Y-72060000D01*
X121960440Y-71705000D02*
X121960440Y-72060000D01*
X117459560Y-74495000D02*
X121960440Y-74495000D01*
X117459560Y-71705000D02*
X121960440Y-71705000D01*
X129759140Y-127855000D02*
X129759140Y-128210000D01*
X129759140Y-130645000D02*
X129759140Y-130290000D01*
X125709560Y-127855000D02*
X125709560Y-128210000D01*
X130210440Y-127855000D02*
X130210440Y-128210000D01*
X130210440Y-130645000D02*
X130210440Y-130290000D01*
X125709560Y-130645000D02*
X125709560Y-130290000D01*
X130210440Y-127855000D02*
X125709560Y-127855000D01*
X130210440Y-130645000D02*
X125709560Y-130645000D01*
X163089140Y-127855000D02*
X163089140Y-128210000D01*
X163089140Y-130645000D02*
X163089140Y-130290000D01*
X159039560Y-127855000D02*
X159039560Y-128210000D01*
X163540440Y-127855000D02*
X163540440Y-128210000D01*
X163540440Y-130645000D02*
X163540440Y-130290000D01*
X159039560Y-130645000D02*
X159039560Y-130290000D01*
X163540440Y-127855000D02*
X159039560Y-127855000D01*
X163540440Y-130645000D02*
X159039560Y-130645000D01*
X162000000Y-79425000D02*
X164000000Y-79425000D01*
X164000000Y-81575000D02*
X162000000Y-81575000D01*
X126250000Y-79025000D02*
X128250000Y-79025000D01*
X128250000Y-81175000D02*
X126250000Y-81175000D01*
X130750000Y-120925000D02*
X132750000Y-120925000D01*
X132750000Y-123075000D02*
X130750000Y-123075000D01*
X164000000Y-120675000D02*
X166000000Y-120675000D01*
X166000000Y-122825000D02*
X164000000Y-122825000D01*
X175825000Y-71175000D02*
X175680000Y-71175000D01*
X175825000Y-75325000D02*
X175680000Y-75325000D01*
X170675000Y-75325000D02*
X170820000Y-75325000D01*
X170675000Y-71175000D02*
X170820000Y-71175000D01*
X175825000Y-71175000D02*
X175825000Y-75325000D01*
X170675000Y-71175000D02*
X170675000Y-75325000D01*
X175680000Y-71175000D02*
X175680000Y-69775000D01*
X139175000Y-70725000D02*
X139030000Y-70725000D01*
X139175000Y-74875000D02*
X139030000Y-74875000D01*
X134025000Y-74875000D02*
X134170000Y-74875000D01*
X134025000Y-70725000D02*
X134170000Y-70725000D01*
X139175000Y-70725000D02*
X139175000Y-74875000D01*
X134025000Y-70725000D02*
X134025000Y-74875000D01*
X139030000Y-70725000D02*
X139030000Y-69325000D01*
X137425000Y-129325000D02*
X137570000Y-129325000D01*
X137425000Y-125175000D02*
X137570000Y-125175000D01*
X142575000Y-125175000D02*
X142430000Y-125175000D01*
X142575000Y-129325000D02*
X142430000Y-129325000D01*
X137425000Y-129325000D02*
X137425000Y-125175000D01*
X142575000Y-129325000D02*
X142575000Y-125175000D01*
X137570000Y-129325000D02*
X137570000Y-130725000D01*
X168425000Y-129575000D02*
X168570000Y-129575000D01*
X168425000Y-125425000D02*
X168570000Y-125425000D01*
X173575000Y-125425000D02*
X173430000Y-125425000D01*
X173575000Y-129575000D02*
X173430000Y-129575000D01*
X168425000Y-129575000D02*
X168425000Y-125425000D01*
X173575000Y-129575000D02*
X173575000Y-125425000D01*
X168570000Y-129575000D02*
X168570000Y-130975000D01*
X168430000Y-86500000D02*
X165030000Y-86500000D01*
X168427056Y-86502944D02*
G75*
G02X166730000Y-90600000I-1697056J-1697056D01*
G01*
X165032944Y-86502944D02*
G75*
G03X166730000Y-90600000I1697056J-1697056D01*
G01*
X164830000Y-113500000D02*
X168230000Y-113500000D01*
X164832944Y-113497056D02*
G75*
G02X166530000Y-109400000I1697056J1697056D01*
G01*
X168227056Y-113497056D02*
G75*
G03X166530000Y-109400000I-1697056J1697056D01*
G01*
X116000000Y-109000000D02*
G75*
G03X116000000Y-109000000I-8000000J0D01*
G01*
X116000000Y-91000000D02*
G75*
G03X116000000Y-91000000I-8000000J0D01*
G01*
X116000000Y-68000000D02*
G75*
G03X116000000Y-68000000I-8000000J0D01*
G01*
X116000000Y-132000000D02*
G75*
G03X116000000Y-132000000I-8000000J0D01*
G01*
X167270000Y-118100000D02*
X169540000Y-118100000D01*
X167270000Y-114100000D02*
X167270000Y-118100000D01*
X169540000Y-114100000D02*
X167270000Y-114100000D01*
X177270000Y-118100000D02*
X175000000Y-118100000D01*
X177270000Y-114100000D02*
X177270000Y-118100000D01*
X175000000Y-114100000D02*
X177270000Y-114100000D01*
X129270000Y-118100000D02*
X131540000Y-118100000D01*
X129270000Y-114100000D02*
X129270000Y-118100000D01*
X131540000Y-114100000D02*
X129270000Y-114100000D01*
X139270000Y-118100000D02*
X137000000Y-118100000D01*
X139270000Y-114100000D02*
X139270000Y-118100000D01*
X137000000Y-114100000D02*
X139270000Y-114100000D01*
X129730000Y-85400000D02*
X132000000Y-85400000D01*
X129730000Y-81400000D02*
X129730000Y-85400000D01*
X132000000Y-81400000D02*
X129730000Y-81400000D01*
X139730000Y-85400000D02*
X137460000Y-85400000D01*
X139730000Y-81400000D02*
X139730000Y-85400000D01*
X137460000Y-81400000D02*
X139730000Y-81400000D01*
X166980000Y-85900000D02*
X169250000Y-85900000D01*
X166980000Y-81900000D02*
X166980000Y-85900000D01*
X169250000Y-81900000D02*
X166980000Y-81900000D01*
X176980000Y-85900000D02*
X174710000Y-85900000D01*
X176980000Y-81900000D02*
X176980000Y-85900000D01*
X174710000Y-81900000D02*
X176980000Y-81900000D01*
X153000000Y-92725000D02*
X137000000Y-92725000D01*
X152997000Y-92865000D02*
X137003000Y-92865000D01*
X152992000Y-93005000D02*
X137008000Y-93005000D01*
X152985000Y-93145000D02*
X137015000Y-93145000D01*
X152975000Y-93285000D02*
X137025000Y-93285000D01*
X152962000Y-93425000D02*
X137038000Y-93425000D01*
X152948000Y-93565000D02*
X137052000Y-93565000D01*
X152930000Y-93705000D02*
X137070000Y-93705000D01*
X152910000Y-93845000D02*
X137090000Y-93845000D01*
X152888000Y-93985000D02*
X137112000Y-93985000D01*
X152863000Y-94125000D02*
X137137000Y-94125000D01*
X152835000Y-94265000D02*
X137165000Y-94265000D01*
X152805000Y-94405000D02*
X137195000Y-94405000D01*
X152772000Y-94545000D02*
X137228000Y-94545000D01*
X152737000Y-94685000D02*
X137263000Y-94685000D01*
X152699000Y-94825000D02*
X137301000Y-94825000D01*
X152658000Y-94965000D02*
X137342000Y-94965000D01*
X152614000Y-95105000D02*
X137386000Y-95105000D01*
X152567000Y-95245000D02*
X137433000Y-95245000D01*
X152518000Y-95385000D02*
X137482000Y-95385000D01*
X152466000Y-95525000D02*
X145484000Y-95525000D01*
X144516000Y-95525000D02*
X137534000Y-95525000D01*
X152410000Y-95665000D02*
X145678000Y-95665000D01*
X144322000Y-95665000D02*
X137590000Y-95665000D01*
X152352000Y-95805000D02*
X145804000Y-95805000D01*
X144196000Y-95805000D02*
X137648000Y-95805000D01*
X152290000Y-95945000D02*
X145890000Y-95945000D01*
X144110000Y-95945000D02*
X137710000Y-95945000D01*
X152225000Y-96085000D02*
X145949000Y-96085000D01*
X144051000Y-96085000D02*
X137775000Y-96085000D01*
X152157000Y-96225000D02*
X145985000Y-96225000D01*
X144015000Y-96225000D02*
X137843000Y-96225000D01*
X152085000Y-96365000D02*
X145999000Y-96365000D01*
X144001000Y-96365000D02*
X137915000Y-96365000D01*
X152010000Y-96505000D02*
X145994000Y-96505000D01*
X144006000Y-96505000D02*
X137990000Y-96505000D01*
X151931000Y-96645000D02*
X145970000Y-96645000D01*
X144030000Y-96645000D02*
X138069000Y-96645000D01*
X151848000Y-96785000D02*
X145923000Y-96785000D01*
X144077000Y-96785000D02*
X138152000Y-96785000D01*
X151762000Y-96925000D02*
X145851000Y-96925000D01*
X144149000Y-96925000D02*
X138238000Y-96925000D01*
X151671000Y-97065000D02*
X145747000Y-97065000D01*
X144253000Y-97065000D02*
X138329000Y-97065000D01*
X151577000Y-97205000D02*
X145593000Y-97205000D01*
X144407000Y-97205000D02*
X138423000Y-97205000D01*
X151477000Y-97345000D02*
X145327000Y-97345000D01*
X144673000Y-97345000D02*
X138523000Y-97345000D01*
X151374000Y-97485000D02*
X138626000Y-97485000D01*
X151265000Y-97625000D02*
X138735000Y-97625000D01*
X151151000Y-97765000D02*
X138849000Y-97765000D01*
X151032000Y-97905000D02*
X138968000Y-97905000D01*
X150907000Y-98045000D02*
X139093000Y-98045000D01*
X150776000Y-98185000D02*
X139224000Y-98185000D01*
X150639000Y-98325000D02*
X139361000Y-98325000D01*
X150494000Y-98465000D02*
X139506000Y-98465000D01*
X150342000Y-98605000D02*
X139658000Y-98605000D01*
X150182000Y-98745000D02*
X139818000Y-98745000D01*
X150012000Y-98885000D02*
X139988000Y-98885000D01*
X149833000Y-99025000D02*
X140167000Y-99025000D01*
X149643000Y-99165000D02*
X140357000Y-99165000D01*
X149440000Y-99305000D02*
X140560000Y-99305000D01*
X149222000Y-99445000D02*
X140778000Y-99445000D01*
X148988000Y-99585000D02*
X141012000Y-99585000D01*
X148734000Y-99725000D02*
X141266000Y-99725000D01*
X148456000Y-99865000D02*
X141544000Y-99865000D01*
X148147000Y-100005000D02*
X141853000Y-100005000D01*
X147797000Y-100145000D02*
X142203000Y-100145000D01*
X147389000Y-100285000D02*
X142611000Y-100285000D01*
X146884000Y-100425000D02*
X143116000Y-100425000D01*
X146163000Y-100565000D02*
X143837000Y-100565000D01*
X146000000Y-96400000D02*
G75*
G03X146000000Y-96400000I-1000000J0D01*
G01*
X153037500Y-92650000D02*
G75*
G03X153037500Y-92650000I-8037500J0D01*
G01*
X125000000Y-104575000D02*
X141000000Y-104575000D01*
X125003000Y-104435000D02*
X140997000Y-104435000D01*
X125008000Y-104295000D02*
X140992000Y-104295000D01*
X125015000Y-104155000D02*
X140985000Y-104155000D01*
X125025000Y-104015000D02*
X140975000Y-104015000D01*
X125038000Y-103875000D02*
X140962000Y-103875000D01*
X125052000Y-103735000D02*
X140948000Y-103735000D01*
X125070000Y-103595000D02*
X140930000Y-103595000D01*
X125090000Y-103455000D02*
X140910000Y-103455000D01*
X125112000Y-103315000D02*
X140888000Y-103315000D01*
X125137000Y-103175000D02*
X140863000Y-103175000D01*
X125165000Y-103035000D02*
X140835000Y-103035000D01*
X125195000Y-102895000D02*
X140805000Y-102895000D01*
X125228000Y-102755000D02*
X140772000Y-102755000D01*
X125263000Y-102615000D02*
X140737000Y-102615000D01*
X125301000Y-102475000D02*
X140699000Y-102475000D01*
X125342000Y-102335000D02*
X140658000Y-102335000D01*
X125386000Y-102195000D02*
X140614000Y-102195000D01*
X125433000Y-102055000D02*
X140567000Y-102055000D01*
X125482000Y-101915000D02*
X140518000Y-101915000D01*
X125534000Y-101775000D02*
X132516000Y-101775000D01*
X133484000Y-101775000D02*
X140466000Y-101775000D01*
X125590000Y-101635000D02*
X132322000Y-101635000D01*
X133678000Y-101635000D02*
X140410000Y-101635000D01*
X125648000Y-101495000D02*
X132196000Y-101495000D01*
X133804000Y-101495000D02*
X140352000Y-101495000D01*
X125710000Y-101355000D02*
X132110000Y-101355000D01*
X133890000Y-101355000D02*
X140290000Y-101355000D01*
X125775000Y-101215000D02*
X132051000Y-101215000D01*
X133949000Y-101215000D02*
X140225000Y-101215000D01*
X125843000Y-101075000D02*
X132015000Y-101075000D01*
X133985000Y-101075000D02*
X140157000Y-101075000D01*
X125915000Y-100935000D02*
X132001000Y-100935000D01*
X133999000Y-100935000D02*
X140085000Y-100935000D01*
X125990000Y-100795000D02*
X132006000Y-100795000D01*
X133994000Y-100795000D02*
X140010000Y-100795000D01*
X126069000Y-100655000D02*
X132030000Y-100655000D01*
X133970000Y-100655000D02*
X139931000Y-100655000D01*
X126152000Y-100515000D02*
X132077000Y-100515000D01*
X133923000Y-100515000D02*
X139848000Y-100515000D01*
X126238000Y-100375000D02*
X132149000Y-100375000D01*
X133851000Y-100375000D02*
X139762000Y-100375000D01*
X126329000Y-100235000D02*
X132253000Y-100235000D01*
X133747000Y-100235000D02*
X139671000Y-100235000D01*
X126423000Y-100095000D02*
X132407000Y-100095000D01*
X133593000Y-100095000D02*
X139577000Y-100095000D01*
X126523000Y-99955000D02*
X132673000Y-99955000D01*
X133327000Y-99955000D02*
X139477000Y-99955000D01*
X126626000Y-99815000D02*
X139374000Y-99815000D01*
X126735000Y-99675000D02*
X139265000Y-99675000D01*
X126849000Y-99535000D02*
X139151000Y-99535000D01*
X126968000Y-99395000D02*
X139032000Y-99395000D01*
X127093000Y-99255000D02*
X138907000Y-99255000D01*
X127224000Y-99115000D02*
X138776000Y-99115000D01*
X127361000Y-98975000D02*
X138639000Y-98975000D01*
X127506000Y-98835000D02*
X138494000Y-98835000D01*
X127658000Y-98695000D02*
X138342000Y-98695000D01*
X127818000Y-98555000D02*
X138182000Y-98555000D01*
X127988000Y-98415000D02*
X138012000Y-98415000D01*
X128167000Y-98275000D02*
X137833000Y-98275000D01*
X128357000Y-98135000D02*
X137643000Y-98135000D01*
X128560000Y-97995000D02*
X137440000Y-97995000D01*
X128778000Y-97855000D02*
X137222000Y-97855000D01*
X129012000Y-97715000D02*
X136988000Y-97715000D01*
X129266000Y-97575000D02*
X136734000Y-97575000D01*
X129544000Y-97435000D02*
X136456000Y-97435000D01*
X129853000Y-97295000D02*
X136147000Y-97295000D01*
X130203000Y-97155000D02*
X135797000Y-97155000D01*
X130611000Y-97015000D02*
X135389000Y-97015000D01*
X131116000Y-96875000D02*
X134884000Y-96875000D01*
X131837000Y-96735000D02*
X134163000Y-96735000D01*
X134000000Y-100900000D02*
G75*
G03X134000000Y-100900000I-1000000J0D01*
G01*
X141037500Y-104650000D02*
G75*
G03X141037500Y-104650000I-8037500J0D01*
G01*
X149485714Y-74252381D02*
X149485714Y-73252381D01*
X149723809Y-73252381D01*
X149866667Y-73300000D01*
X149961905Y-73395238D01*
X150009524Y-73490476D01*
X150057143Y-73680952D01*
X150057143Y-73823810D01*
X150009524Y-74014286D01*
X149961905Y-74109524D01*
X149866667Y-74204762D01*
X149723809Y-74252381D01*
X149485714Y-74252381D01*
X151009524Y-74252381D02*
X150438095Y-74252381D01*
X150723809Y-74252381D02*
X150723809Y-73252381D01*
X150628571Y-73395238D01*
X150533333Y-73490476D01*
X150438095Y-73538095D01*
X151342857Y-73252381D02*
X151961905Y-73252381D01*
X151628571Y-73633333D01*
X151771429Y-73633333D01*
X151866667Y-73680952D01*
X151914286Y-73728571D01*
X151961905Y-73823810D01*
X151961905Y-74061905D01*
X151914286Y-74157143D01*
X151866667Y-74204762D01*
X151771429Y-74252381D01*
X151485714Y-74252381D01*
X151390476Y-74204762D01*
X151342857Y-74157143D01*
X152588095Y-77152381D02*
X152588095Y-76152381D01*
X153159524Y-77152381D02*
X152730952Y-76580952D01*
X153159524Y-76152381D02*
X152588095Y-76723810D01*
X158411905Y-76816667D02*
X158888096Y-76816667D01*
X158316667Y-77102381D02*
X158650000Y-76102381D01*
X158983334Y-77102381D01*
D13*
X177357143Y-76066666D02*
X177404762Y-76114285D01*
X177452381Y-76257142D01*
X177452381Y-76352380D01*
X177404762Y-76495238D01*
X177309524Y-76590476D01*
X177214286Y-76638095D01*
X177023810Y-76685714D01*
X176880952Y-76685714D01*
X176690476Y-76638095D01*
X176595238Y-76590476D01*
X176500000Y-76495238D01*
X176452381Y-76352380D01*
X176452381Y-76257142D01*
X176500000Y-76114285D01*
X176547619Y-76066666D01*
X176785714Y-75209523D02*
X177452381Y-75209523D01*
X176404762Y-75447619D02*
X177119048Y-75685714D01*
X177119048Y-75066666D01*
X169762143Y-75928666D02*
X169809762Y-75976285D01*
X169857381Y-76119142D01*
X169857381Y-76214380D01*
X169809762Y-76357238D01*
X169714524Y-76452476D01*
X169619286Y-76500095D01*
X169428810Y-76547714D01*
X169285952Y-76547714D01*
X169095476Y-76500095D01*
X169000238Y-76452476D01*
X168905000Y-76357238D01*
X168857381Y-76214380D01*
X168857381Y-76119142D01*
X168905000Y-75976285D01*
X168952619Y-75928666D01*
X169285952Y-75357238D02*
X169238333Y-75452476D01*
X169190714Y-75500095D01*
X169095476Y-75547714D01*
X169047857Y-75547714D01*
X168952619Y-75500095D01*
X168905000Y-75452476D01*
X168857381Y-75357238D01*
X168857381Y-75166761D01*
X168905000Y-75071523D01*
X168952619Y-75023904D01*
X169047857Y-74976285D01*
X169095476Y-74976285D01*
X169190714Y-75023904D01*
X169238333Y-75071523D01*
X169285952Y-75166761D01*
X169285952Y-75357238D01*
X169333571Y-75452476D01*
X169381190Y-75500095D01*
X169476429Y-75547714D01*
X169666905Y-75547714D01*
X169762143Y-75500095D01*
X169809762Y-75452476D01*
X169857381Y-75357238D01*
X169857381Y-75166761D01*
X169809762Y-75071523D01*
X169762143Y-75023904D01*
X169666905Y-74976285D01*
X169476429Y-74976285D01*
X169381190Y-75023904D01*
X169333571Y-75071523D01*
X169285952Y-75166761D01*
X174557143Y-78257143D02*
X174509524Y-78304762D01*
X174366667Y-78352381D01*
X174271429Y-78352381D01*
X174128571Y-78304762D01*
X174033333Y-78209524D01*
X173985714Y-78114286D01*
X173938095Y-77923810D01*
X173938095Y-77780952D01*
X173985714Y-77590476D01*
X174033333Y-77495238D01*
X174128571Y-77400000D01*
X174271429Y-77352381D01*
X174366667Y-77352381D01*
X174509524Y-77400000D01*
X174557143Y-77447619D01*
X175509524Y-78352381D02*
X174938095Y-78352381D01*
X175223809Y-78352381D02*
X175223809Y-77352381D01*
X175128571Y-77495238D01*
X175033333Y-77590476D01*
X174938095Y-77638095D01*
X176414286Y-77352381D02*
X175938095Y-77352381D01*
X175890476Y-77828571D01*
X175938095Y-77780952D01*
X176033333Y-77733333D01*
X176271429Y-77733333D01*
X176366667Y-77780952D01*
X176414286Y-77828571D01*
X176461905Y-77923810D01*
X176461905Y-78161905D01*
X176414286Y-78257143D01*
X176366667Y-78304762D01*
X176271429Y-78352381D01*
X176033333Y-78352381D01*
X175938095Y-78304762D01*
X175890476Y-78257143D01*
X119071143Y-110991143D02*
X119023524Y-111038762D01*
X118880667Y-111086381D01*
X118785429Y-111086381D01*
X118642571Y-111038762D01*
X118547333Y-110943524D01*
X118499714Y-110848286D01*
X118452095Y-110657810D01*
X118452095Y-110514952D01*
X118499714Y-110324476D01*
X118547333Y-110229238D01*
X118642571Y-110134000D01*
X118785429Y-110086381D01*
X118880667Y-110086381D01*
X119023524Y-110134000D01*
X119071143Y-110181619D01*
X119404476Y-110086381D02*
X120023524Y-110086381D01*
X119690190Y-110467333D01*
X119833048Y-110467333D01*
X119928286Y-110514952D01*
X119975905Y-110562571D01*
X120023524Y-110657810D01*
X120023524Y-110895905D01*
X119975905Y-110991143D01*
X119928286Y-111038762D01*
X119833048Y-111086381D01*
X119547333Y-111086381D01*
X119452095Y-111038762D01*
X119404476Y-110991143D01*
X120356857Y-110086381D02*
X120975905Y-110086381D01*
X120642571Y-110467333D01*
X120785429Y-110467333D01*
X120880667Y-110514952D01*
X120928286Y-110562571D01*
X120975905Y-110657810D01*
X120975905Y-110895905D01*
X120928286Y-110991143D01*
X120880667Y-111038762D01*
X120785429Y-111086381D01*
X120499714Y-111086381D01*
X120404476Y-111038762D01*
X120356857Y-110991143D01*
X157389143Y-90469143D02*
X157341524Y-90516762D01*
X157198667Y-90564381D01*
X157103429Y-90564381D01*
X156960571Y-90516762D01*
X156865333Y-90421524D01*
X156817714Y-90326286D01*
X156770095Y-90135810D01*
X156770095Y-89992952D01*
X156817714Y-89802476D01*
X156865333Y-89707238D01*
X156960571Y-89612000D01*
X157103429Y-89564381D01*
X157198667Y-89564381D01*
X157341524Y-89612000D01*
X157389143Y-89659619D01*
X157722476Y-89564381D02*
X158341524Y-89564381D01*
X158008190Y-89945333D01*
X158151048Y-89945333D01*
X158246286Y-89992952D01*
X158293905Y-90040571D01*
X158341524Y-90135810D01*
X158341524Y-90373905D01*
X158293905Y-90469143D01*
X158246286Y-90516762D01*
X158151048Y-90564381D01*
X157865333Y-90564381D01*
X157770095Y-90516762D01*
X157722476Y-90469143D01*
X158912952Y-89992952D02*
X158817714Y-89945333D01*
X158770095Y-89897714D01*
X158722476Y-89802476D01*
X158722476Y-89754857D01*
X158770095Y-89659619D01*
X158817714Y-89612000D01*
X158912952Y-89564381D01*
X159103429Y-89564381D01*
X159198667Y-89612000D01*
X159246286Y-89659619D01*
X159293905Y-89754857D01*
X159293905Y-89802476D01*
X159246286Y-89897714D01*
X159198667Y-89945333D01*
X159103429Y-89992952D01*
X158912952Y-89992952D01*
X158817714Y-90040571D01*
X158770095Y-90088190D01*
X158722476Y-90183429D01*
X158722476Y-90373905D01*
X158770095Y-90469143D01*
X158817714Y-90516762D01*
X158912952Y-90564381D01*
X159103429Y-90564381D01*
X159198667Y-90516762D01*
X159246286Y-90469143D01*
X159293905Y-90373905D01*
X159293905Y-90183429D01*
X159246286Y-90088190D01*
X159198667Y-90040571D01*
X159103429Y-89992952D01*
X169033334Y-94152381D02*
X168700000Y-93676190D01*
X168461905Y-94152381D02*
X168461905Y-93152381D01*
X168842858Y-93152381D01*
X168938096Y-93200000D01*
X168985715Y-93247619D01*
X169033334Y-93342857D01*
X169033334Y-93485714D01*
X168985715Y-93580952D01*
X168938096Y-93628571D01*
X168842858Y-93676190D01*
X168461905Y-93676190D01*
X169985715Y-94152381D02*
X169414286Y-94152381D01*
X169700000Y-94152381D02*
X169700000Y-93152381D01*
X169604762Y-93295238D01*
X169509524Y-93390476D01*
X169414286Y-93438095D01*
X168633334Y-106652381D02*
X168300000Y-106176190D01*
X168061905Y-106652381D02*
X168061905Y-105652381D01*
X168442858Y-105652381D01*
X168538096Y-105700000D01*
X168585715Y-105747619D01*
X168633334Y-105842857D01*
X168633334Y-105985714D01*
X168585715Y-106080952D01*
X168538096Y-106128571D01*
X168442858Y-106176190D01*
X168061905Y-106176190D01*
X169014286Y-105747619D02*
X169061905Y-105700000D01*
X169157143Y-105652381D01*
X169395239Y-105652381D01*
X169490477Y-105700000D01*
X169538096Y-105747619D01*
X169585715Y-105842857D01*
X169585715Y-105938095D01*
X169538096Y-106080952D01*
X168966667Y-106652381D01*
X169585715Y-106652381D01*
X120434762Y-86722619D02*
X120339524Y-86675000D01*
X120244286Y-86579762D01*
X120101429Y-86436905D01*
X120006190Y-86389286D01*
X119910952Y-86389286D01*
X119958571Y-86627381D02*
X119863333Y-86579762D01*
X119768095Y-86484524D01*
X119720476Y-86294048D01*
X119720476Y-85960714D01*
X119768095Y-85770238D01*
X119863333Y-85675000D01*
X119958571Y-85627381D01*
X120149048Y-85627381D01*
X120244286Y-85675000D01*
X120339524Y-85770238D01*
X120387143Y-85960714D01*
X120387143Y-86294048D01*
X120339524Y-86484524D01*
X120244286Y-86579762D01*
X120149048Y-86627381D01*
X119958571Y-86627381D01*
X120768095Y-85722619D02*
X120815714Y-85675000D01*
X120910952Y-85627381D01*
X121149048Y-85627381D01*
X121244286Y-85675000D01*
X121291905Y-85722619D01*
X121339524Y-85817857D01*
X121339524Y-85913095D01*
X121291905Y-86055952D01*
X120720476Y-86627381D01*
X121339524Y-86627381D01*
X159374762Y-86722619D02*
X159279524Y-86675000D01*
X159184286Y-86579762D01*
X159041429Y-86436905D01*
X158946190Y-86389286D01*
X158850952Y-86389286D01*
X158898571Y-86627381D02*
X158803333Y-86579762D01*
X158708095Y-86484524D01*
X158660476Y-86294048D01*
X158660476Y-85960714D01*
X158708095Y-85770238D01*
X158803333Y-85675000D01*
X158898571Y-85627381D01*
X159089048Y-85627381D01*
X159184286Y-85675000D01*
X159279524Y-85770238D01*
X159327143Y-85960714D01*
X159327143Y-86294048D01*
X159279524Y-86484524D01*
X159184286Y-86579762D01*
X159089048Y-86627381D01*
X158898571Y-86627381D01*
X160279524Y-86627381D02*
X159708095Y-86627381D01*
X159993809Y-86627381D02*
X159993809Y-85627381D01*
X159898571Y-85770238D01*
X159803333Y-85865476D01*
X159708095Y-85913095D01*
X120434762Y-115372619D02*
X120339524Y-115325000D01*
X120244286Y-115229762D01*
X120101429Y-115086905D01*
X120006190Y-115039286D01*
X119910952Y-115039286D01*
X119958571Y-115277381D02*
X119863333Y-115229762D01*
X119768095Y-115134524D01*
X119720476Y-114944048D01*
X119720476Y-114610714D01*
X119768095Y-114420238D01*
X119863333Y-114325000D01*
X119958571Y-114277381D01*
X120149048Y-114277381D01*
X120244286Y-114325000D01*
X120339524Y-114420238D01*
X120387143Y-114610714D01*
X120387143Y-114944048D01*
X120339524Y-115134524D01*
X120244286Y-115229762D01*
X120149048Y-115277381D01*
X119958571Y-115277381D01*
X120720476Y-114277381D02*
X121339524Y-114277381D01*
X121006190Y-114658333D01*
X121149048Y-114658333D01*
X121244286Y-114705952D01*
X121291905Y-114753571D01*
X121339524Y-114848810D01*
X121339524Y-115086905D01*
X121291905Y-115182143D01*
X121244286Y-115229762D01*
X121149048Y-115277381D01*
X120863333Y-115277381D01*
X120768095Y-115229762D01*
X120720476Y-115182143D01*
X159374762Y-115372619D02*
X159279524Y-115325000D01*
X159184286Y-115229762D01*
X159041429Y-115086905D01*
X158946190Y-115039286D01*
X158850952Y-115039286D01*
X158898571Y-115277381D02*
X158803333Y-115229762D01*
X158708095Y-115134524D01*
X158660476Y-114944048D01*
X158660476Y-114610714D01*
X158708095Y-114420238D01*
X158803333Y-114325000D01*
X158898571Y-114277381D01*
X159089048Y-114277381D01*
X159184286Y-114325000D01*
X159279524Y-114420238D01*
X159327143Y-114610714D01*
X159327143Y-114944048D01*
X159279524Y-115134524D01*
X159184286Y-115229762D01*
X159089048Y-115277381D01*
X158898571Y-115277381D01*
X160184286Y-114610714D02*
X160184286Y-115277381D01*
X159946190Y-114229762D02*
X159708095Y-114944048D01*
X160327143Y-114944048D01*
X170552381Y-99938095D02*
X169552381Y-99938095D01*
X169552381Y-99557142D01*
X169600000Y-99461904D01*
X169647619Y-99414285D01*
X169742857Y-99366666D01*
X169885714Y-99366666D01*
X169980952Y-99414285D01*
X170028571Y-99461904D01*
X170076190Y-99557142D01*
X170076190Y-99938095D01*
X170552381Y-98414285D02*
X170552381Y-98985714D01*
X170552381Y-98700000D02*
X169552381Y-98700000D01*
X169695238Y-98795238D01*
X169790476Y-98890476D01*
X169838095Y-98985714D01*
D12*
X169073334Y-92357143D02*
X169025715Y-92404762D01*
X168882858Y-92452381D01*
X168787620Y-92452381D01*
X168644762Y-92404762D01*
X168549524Y-92309524D01*
X168501905Y-92214286D01*
X168454286Y-92023810D01*
X168454286Y-91880952D01*
X168501905Y-91690476D01*
X168549524Y-91595238D01*
X168644762Y-91500000D01*
X168787620Y-91452381D01*
X168882858Y-91452381D01*
X169025715Y-91500000D01*
X169073334Y-91547619D01*
X170025715Y-92452381D02*
X169454286Y-92452381D01*
X169740000Y-92452381D02*
X169740000Y-91452381D01*
X169644762Y-91595238D01*
X169549524Y-91690476D01*
X169454286Y-91738095D01*
X168657143Y-108357143D02*
X168609524Y-108404762D01*
X168466667Y-108452381D01*
X168371429Y-108452381D01*
X168228571Y-108404762D01*
X168133333Y-108309524D01*
X168085714Y-108214286D01*
X168038095Y-108023810D01*
X168038095Y-107880952D01*
X168085714Y-107690476D01*
X168133333Y-107595238D01*
X168228571Y-107500000D01*
X168371429Y-107452381D01*
X168466667Y-107452381D01*
X168609524Y-107500000D01*
X168657143Y-107547619D01*
X169609524Y-108452381D02*
X169038095Y-108452381D01*
X169323809Y-108452381D02*
X169323809Y-107452381D01*
X169228571Y-107595238D01*
X169133333Y-107690476D01*
X169038095Y-107738095D01*
X170228571Y-107452381D02*
X170323810Y-107452381D01*
X170419048Y-107500000D01*
X170466667Y-107547619D01*
X170514286Y-107642857D01*
X170561905Y-107833333D01*
X170561905Y-108071429D01*
X170514286Y-108261905D01*
X170466667Y-108357143D01*
X170419048Y-108404762D01*
X170323810Y-108452381D01*
X170228571Y-108452381D01*
X170133333Y-108404762D01*
X170085714Y-108357143D01*
X170038095Y-108261905D01*
X169990476Y-108071429D01*
X169990476Y-107833333D01*
X170038095Y-107642857D01*
X170085714Y-107547619D01*
X170133333Y-107500000D01*
X170228571Y-107452381D01*
X167657143Y-130066666D02*
X167704762Y-130114285D01*
X167752381Y-130257142D01*
X167752381Y-130352380D01*
X167704762Y-130495238D01*
X167609524Y-130590476D01*
X167514286Y-130638095D01*
X167323810Y-130685714D01*
X167180952Y-130685714D01*
X166990476Y-130638095D01*
X166895238Y-130590476D01*
X166800000Y-130495238D01*
X166752381Y-130352380D01*
X166752381Y-130257142D01*
X166800000Y-130114285D01*
X166847619Y-130066666D01*
X166847619Y-129685714D02*
X166800000Y-129638095D01*
X166752381Y-129542857D01*
X166752381Y-129304761D01*
X166800000Y-129209523D01*
X166847619Y-129161904D01*
X166942857Y-129114285D01*
X167038095Y-129114285D01*
X167180952Y-129161904D01*
X167752381Y-129733333D01*
X167752381Y-129114285D01*
X140857143Y-70366666D02*
X140904762Y-70414285D01*
X140952381Y-70557142D01*
X140952381Y-70652380D01*
X140904762Y-70795238D01*
X140809524Y-70890476D01*
X140714286Y-70938095D01*
X140523810Y-70985714D01*
X140380952Y-70985714D01*
X140190476Y-70938095D01*
X140095238Y-70890476D01*
X140000000Y-70795238D01*
X139952381Y-70652380D01*
X139952381Y-70557142D01*
X140000000Y-70414285D01*
X140047619Y-70366666D01*
X139952381Y-70033333D02*
X139952381Y-69414285D01*
X140333333Y-69747619D01*
X140333333Y-69604761D01*
X140380952Y-69509523D01*
X140428571Y-69461904D01*
X140523810Y-69414285D01*
X140761905Y-69414285D01*
X140857143Y-69461904D01*
X140904762Y-69509523D01*
X140952381Y-69604761D01*
X140952381Y-69890476D01*
X140904762Y-69985714D01*
X140857143Y-70033333D01*
X136457143Y-130166666D02*
X136504762Y-130214285D01*
X136552381Y-130357142D01*
X136552381Y-130452380D01*
X136504762Y-130595238D01*
X136409524Y-130690476D01*
X136314286Y-130738095D01*
X136123810Y-130785714D01*
X135980952Y-130785714D01*
X135790476Y-130738095D01*
X135695238Y-130690476D01*
X135600000Y-130595238D01*
X135552381Y-130452380D01*
X135552381Y-130357142D01*
X135600000Y-130214285D01*
X135647619Y-130166666D01*
X135552381Y-129261904D02*
X135552381Y-129738095D01*
X136028571Y-129785714D01*
X135980952Y-129738095D01*
X135933333Y-129642857D01*
X135933333Y-129404761D01*
X135980952Y-129309523D01*
X136028571Y-129261904D01*
X136123810Y-129214285D01*
X136361905Y-129214285D01*
X136457143Y-129261904D01*
X136504762Y-129309523D01*
X136552381Y-129404761D01*
X136552381Y-129642857D01*
X136504762Y-129738095D01*
X136457143Y-129785714D01*
X175257143Y-130866666D02*
X175304762Y-130914285D01*
X175352381Y-131057142D01*
X175352381Y-131152380D01*
X175304762Y-131295238D01*
X175209524Y-131390476D01*
X175114286Y-131438095D01*
X174923810Y-131485714D01*
X174780952Y-131485714D01*
X174590476Y-131438095D01*
X174495238Y-131390476D01*
X174400000Y-131295238D01*
X174352381Y-131152380D01*
X174352381Y-131057142D01*
X174400000Y-130914285D01*
X174447619Y-130866666D01*
X174352381Y-130009523D02*
X174352381Y-130200000D01*
X174400000Y-130295238D01*
X174447619Y-130342857D01*
X174590476Y-130438095D01*
X174780952Y-130485714D01*
X175161905Y-130485714D01*
X175257143Y-130438095D01*
X175304762Y-130390476D01*
X175352381Y-130295238D01*
X175352381Y-130104761D01*
X175304762Y-130009523D01*
X175257143Y-129961904D01*
X175161905Y-129914285D01*
X174923810Y-129914285D01*
X174828571Y-129961904D01*
X174780952Y-130009523D01*
X174733333Y-130104761D01*
X174733333Y-130295238D01*
X174780952Y-130390476D01*
X174828571Y-130438095D01*
X174923810Y-130485714D01*
X133107143Y-70166666D02*
X133154762Y-70214285D01*
X133202381Y-70357142D01*
X133202381Y-70452380D01*
X133154762Y-70595238D01*
X133059524Y-70690476D01*
X132964286Y-70738095D01*
X132773810Y-70785714D01*
X132630952Y-70785714D01*
X132440476Y-70738095D01*
X132345238Y-70690476D01*
X132250000Y-70595238D01*
X132202381Y-70452380D01*
X132202381Y-70357142D01*
X132250000Y-70214285D01*
X132297619Y-70166666D01*
X132202381Y-69833333D02*
X132202381Y-69166666D01*
X133202381Y-69595238D01*
X144157143Y-129966666D02*
X144204762Y-130014285D01*
X144252381Y-130157142D01*
X144252381Y-130252380D01*
X144204762Y-130395238D01*
X144109524Y-130490476D01*
X144014286Y-130538095D01*
X143823810Y-130585714D01*
X143680952Y-130585714D01*
X143490476Y-130538095D01*
X143395238Y-130490476D01*
X143300000Y-130395238D01*
X143252381Y-130252380D01*
X143252381Y-130157142D01*
X143300000Y-130014285D01*
X143347619Y-129966666D01*
X144252381Y-129490476D02*
X144252381Y-129300000D01*
X144204762Y-129204761D01*
X144157143Y-129157142D01*
X144014286Y-129061904D01*
X143823810Y-129014285D01*
X143442857Y-129014285D01*
X143347619Y-129061904D01*
X143300000Y-129109523D01*
X143252381Y-129204761D01*
X143252381Y-129395238D01*
X143300000Y-129490476D01*
X143347619Y-129538095D01*
X143442857Y-129585714D01*
X143680952Y-129585714D01*
X143776190Y-129538095D01*
X143823810Y-129490476D01*
X143871429Y-129395238D01*
X143871429Y-129204761D01*
X143823810Y-129109523D01*
X143776190Y-129061904D01*
X143680952Y-129014285D01*
X137857143Y-79357143D02*
X137809524Y-79404762D01*
X137666667Y-79452381D01*
X137571429Y-79452381D01*
X137428571Y-79404762D01*
X137333333Y-79309524D01*
X137285714Y-79214286D01*
X137238095Y-79023810D01*
X137238095Y-78880952D01*
X137285714Y-78690476D01*
X137333333Y-78595238D01*
X137428571Y-78500000D01*
X137571429Y-78452381D01*
X137666667Y-78452381D01*
X137809524Y-78500000D01*
X137857143Y-78547619D01*
X138809524Y-79452381D02*
X138238095Y-79452381D01*
X138523809Y-79452381D02*
X138523809Y-78452381D01*
X138428571Y-78595238D01*
X138333333Y-78690476D01*
X138238095Y-78738095D01*
X139761905Y-79452381D02*
X139190476Y-79452381D01*
X139476190Y-79452381D02*
X139476190Y-78452381D01*
X139380952Y-78595238D01*
X139285714Y-78690476D01*
X139190476Y-78738095D01*
X137857143Y-77857143D02*
X137809524Y-77904762D01*
X137666667Y-77952381D01*
X137571429Y-77952381D01*
X137428571Y-77904762D01*
X137333333Y-77809524D01*
X137285714Y-77714286D01*
X137238095Y-77523810D01*
X137238095Y-77380952D01*
X137285714Y-77190476D01*
X137333333Y-77095238D01*
X137428571Y-77000000D01*
X137571429Y-76952381D01*
X137666667Y-76952381D01*
X137809524Y-77000000D01*
X137857143Y-77047619D01*
X138809524Y-77952381D02*
X138238095Y-77952381D01*
X138523809Y-77952381D02*
X138523809Y-76952381D01*
X138428571Y-77095238D01*
X138333333Y-77190476D01*
X138238095Y-77238095D01*
X139190476Y-77047619D02*
X139238095Y-77000000D01*
X139333333Y-76952381D01*
X139571429Y-76952381D01*
X139666667Y-77000000D01*
X139714286Y-77047619D01*
X139761905Y-77142857D01*
X139761905Y-77238095D01*
X139714286Y-77380952D01*
X139142857Y-77952381D01*
X139761905Y-77952381D01*
X175357143Y-121842857D02*
X175404762Y-121890476D01*
X175452381Y-122033333D01*
X175452381Y-122128571D01*
X175404762Y-122271429D01*
X175309524Y-122366667D01*
X175214286Y-122414286D01*
X175023810Y-122461905D01*
X174880952Y-122461905D01*
X174690476Y-122414286D01*
X174595238Y-122366667D01*
X174500000Y-122271429D01*
X174452381Y-122128571D01*
X174452381Y-122033333D01*
X174500000Y-121890476D01*
X174547619Y-121842857D01*
X175452381Y-120890476D02*
X175452381Y-121461905D01*
X175452381Y-121176191D02*
X174452381Y-121176191D01*
X174595238Y-121271429D01*
X174690476Y-121366667D01*
X174738095Y-121461905D01*
X174452381Y-120557143D02*
X174452381Y-119938095D01*
X174833333Y-120271429D01*
X174833333Y-120128571D01*
X174880952Y-120033333D01*
X174928571Y-119985714D01*
X175023810Y-119938095D01*
X175261905Y-119938095D01*
X175357143Y-119985714D01*
X175404762Y-120033333D01*
X175452381Y-120128571D01*
X175452381Y-120414286D01*
X175404762Y-120509524D01*
X175357143Y-120557143D01*
X176857143Y-121842857D02*
X176904762Y-121890476D01*
X176952381Y-122033333D01*
X176952381Y-122128571D01*
X176904762Y-122271429D01*
X176809524Y-122366667D01*
X176714286Y-122414286D01*
X176523810Y-122461905D01*
X176380952Y-122461905D01*
X176190476Y-122414286D01*
X176095238Y-122366667D01*
X176000000Y-122271429D01*
X175952381Y-122128571D01*
X175952381Y-122033333D01*
X176000000Y-121890476D01*
X176047619Y-121842857D01*
X176952381Y-120890476D02*
X176952381Y-121461905D01*
X176952381Y-121176191D02*
X175952381Y-121176191D01*
X176095238Y-121271429D01*
X176190476Y-121366667D01*
X176238095Y-121461905D01*
X176285714Y-120033333D02*
X176952381Y-120033333D01*
X175904762Y-120271429D02*
X176619048Y-120509524D01*
X176619048Y-119890476D01*
X174457143Y-79957143D02*
X174409524Y-80004762D01*
X174266667Y-80052381D01*
X174171429Y-80052381D01*
X174028571Y-80004762D01*
X173933333Y-79909524D01*
X173885714Y-79814286D01*
X173838095Y-79623810D01*
X173838095Y-79480952D01*
X173885714Y-79290476D01*
X173933333Y-79195238D01*
X174028571Y-79100000D01*
X174171429Y-79052381D01*
X174266667Y-79052381D01*
X174409524Y-79100000D01*
X174457143Y-79147619D01*
X175409524Y-80052381D02*
X174838095Y-80052381D01*
X175123809Y-80052381D02*
X175123809Y-79052381D01*
X175028571Y-79195238D01*
X174933333Y-79290476D01*
X174838095Y-79338095D01*
X176266667Y-79052381D02*
X176076190Y-79052381D01*
X175980952Y-79100000D01*
X175933333Y-79147619D01*
X175838095Y-79290476D01*
X175790476Y-79480952D01*
X175790476Y-79861905D01*
X175838095Y-79957143D01*
X175885714Y-80004762D01*
X175980952Y-80052381D01*
X176171429Y-80052381D01*
X176266667Y-80004762D01*
X176314286Y-79957143D01*
X176361905Y-79861905D01*
X176361905Y-79623810D01*
X176314286Y-79528571D01*
X176266667Y-79480952D01*
X176171429Y-79433333D01*
X175980952Y-79433333D01*
X175885714Y-79480952D01*
X175838095Y-79528571D01*
X175790476Y-79623810D01*
X144257143Y-121842857D02*
X144304762Y-121890476D01*
X144352381Y-122033333D01*
X144352381Y-122128571D01*
X144304762Y-122271429D01*
X144209524Y-122366667D01*
X144114286Y-122414286D01*
X143923810Y-122461905D01*
X143780952Y-122461905D01*
X143590476Y-122414286D01*
X143495238Y-122366667D01*
X143400000Y-122271429D01*
X143352381Y-122128571D01*
X143352381Y-122033333D01*
X143400000Y-121890476D01*
X143447619Y-121842857D01*
X144352381Y-120890476D02*
X144352381Y-121461905D01*
X144352381Y-121176191D02*
X143352381Y-121176191D01*
X143495238Y-121271429D01*
X143590476Y-121366667D01*
X143638095Y-121461905D01*
X143352381Y-120557143D02*
X143352381Y-119890476D01*
X144352381Y-120319048D01*
X145657143Y-121942857D02*
X145704762Y-121990476D01*
X145752381Y-122133333D01*
X145752381Y-122228571D01*
X145704762Y-122371429D01*
X145609524Y-122466667D01*
X145514286Y-122514286D01*
X145323810Y-122561905D01*
X145180952Y-122561905D01*
X144990476Y-122514286D01*
X144895238Y-122466667D01*
X144800000Y-122371429D01*
X144752381Y-122228571D01*
X144752381Y-122133333D01*
X144800000Y-121990476D01*
X144847619Y-121942857D01*
X145752381Y-120990476D02*
X145752381Y-121561905D01*
X145752381Y-121276191D02*
X144752381Y-121276191D01*
X144895238Y-121371429D01*
X144990476Y-121466667D01*
X145038095Y-121561905D01*
X145180952Y-120419048D02*
X145133333Y-120514286D01*
X145085714Y-120561905D01*
X144990476Y-120609524D01*
X144942857Y-120609524D01*
X144847619Y-120561905D01*
X144800000Y-120514286D01*
X144752381Y-120419048D01*
X144752381Y-120228571D01*
X144800000Y-120133333D01*
X144847619Y-120085714D01*
X144942857Y-120038095D01*
X144990476Y-120038095D01*
X145085714Y-120085714D01*
X145133333Y-120133333D01*
X145180952Y-120228571D01*
X145180952Y-120419048D01*
X145228571Y-120514286D01*
X145276190Y-120561905D01*
X145371429Y-120609524D01*
X145561905Y-120609524D01*
X145657143Y-120561905D01*
X145704762Y-120514286D01*
X145752381Y-120419048D01*
X145752381Y-120228571D01*
X145704762Y-120133333D01*
X145657143Y-120085714D01*
X145561905Y-120038095D01*
X145371429Y-120038095D01*
X145276190Y-120085714D01*
X145228571Y-120133333D01*
X145180952Y-120228571D01*
X166557143Y-83942857D02*
X166604762Y-83990476D01*
X166652381Y-84133333D01*
X166652381Y-84228571D01*
X166604762Y-84371429D01*
X166509524Y-84466667D01*
X166414286Y-84514286D01*
X166223810Y-84561905D01*
X166080952Y-84561905D01*
X165890476Y-84514286D01*
X165795238Y-84466667D01*
X165700000Y-84371429D01*
X165652381Y-84228571D01*
X165652381Y-84133333D01*
X165700000Y-83990476D01*
X165747619Y-83942857D01*
X166652381Y-82990476D02*
X166652381Y-83561905D01*
X166652381Y-83276191D02*
X165652381Y-83276191D01*
X165795238Y-83371429D01*
X165890476Y-83466667D01*
X165938095Y-83561905D01*
X166652381Y-82514286D02*
X166652381Y-82323810D01*
X166604762Y-82228571D01*
X166557143Y-82180952D01*
X166414286Y-82085714D01*
X166223810Y-82038095D01*
X165842857Y-82038095D01*
X165747619Y-82085714D01*
X165700000Y-82133333D01*
X165652381Y-82228571D01*
X165652381Y-82419048D01*
X165700000Y-82514286D01*
X165747619Y-82561905D01*
X165842857Y-82609524D01*
X166080952Y-82609524D01*
X166176190Y-82561905D01*
X166223810Y-82514286D01*
X166271429Y-82419048D01*
X166271429Y-82228571D01*
X166223810Y-82133333D01*
X166176190Y-82085714D01*
X166080952Y-82038095D01*
X166957143Y-78457143D02*
X166909524Y-78504762D01*
X166766667Y-78552381D01*
X166671429Y-78552381D01*
X166528571Y-78504762D01*
X166433333Y-78409524D01*
X166385714Y-78314286D01*
X166338095Y-78123810D01*
X166338095Y-77980952D01*
X166385714Y-77790476D01*
X166433333Y-77695238D01*
X166528571Y-77600000D01*
X166671429Y-77552381D01*
X166766667Y-77552381D01*
X166909524Y-77600000D01*
X166957143Y-77647619D01*
X167338095Y-77647619D02*
X167385714Y-77600000D01*
X167480952Y-77552381D01*
X167719048Y-77552381D01*
X167814286Y-77600000D01*
X167861905Y-77647619D01*
X167909524Y-77742857D01*
X167909524Y-77838095D01*
X167861905Y-77980952D01*
X167290476Y-78552381D01*
X167909524Y-78552381D01*
X168528571Y-77552381D02*
X168623810Y-77552381D01*
X168719048Y-77600000D01*
X168766667Y-77647619D01*
X168814286Y-77742857D01*
X168861905Y-77933333D01*
X168861905Y-78171429D01*
X168814286Y-78361905D01*
X168766667Y-78457143D01*
X168719048Y-78504762D01*
X168623810Y-78552381D01*
X168528571Y-78552381D01*
X168433333Y-78504762D01*
X168385714Y-78457143D01*
X168338095Y-78361905D01*
X168290476Y-78171429D01*
X168290476Y-77933333D01*
X168338095Y-77742857D01*
X168385714Y-77647619D01*
X168433333Y-77600000D01*
X168528571Y-77552381D01*
X131057143Y-77957143D02*
X131009524Y-78004762D01*
X130866667Y-78052381D01*
X130771429Y-78052381D01*
X130628571Y-78004762D01*
X130533333Y-77909524D01*
X130485714Y-77814286D01*
X130438095Y-77623810D01*
X130438095Y-77480952D01*
X130485714Y-77290476D01*
X130533333Y-77195238D01*
X130628571Y-77100000D01*
X130771429Y-77052381D01*
X130866667Y-77052381D01*
X131009524Y-77100000D01*
X131057143Y-77147619D01*
X131438095Y-77147619D02*
X131485714Y-77100000D01*
X131580952Y-77052381D01*
X131819048Y-77052381D01*
X131914286Y-77100000D01*
X131961905Y-77147619D01*
X132009524Y-77242857D01*
X132009524Y-77338095D01*
X131961905Y-77480952D01*
X131390476Y-78052381D01*
X132009524Y-78052381D01*
X132961905Y-78052381D02*
X132390476Y-78052381D01*
X132676190Y-78052381D02*
X132676190Y-77052381D01*
X132580952Y-77195238D01*
X132485714Y-77290476D01*
X132390476Y-77338095D01*
X129457143Y-83342857D02*
X129504762Y-83390476D01*
X129552381Y-83533333D01*
X129552381Y-83628571D01*
X129504762Y-83771429D01*
X129409524Y-83866667D01*
X129314286Y-83914286D01*
X129123810Y-83961905D01*
X128980952Y-83961905D01*
X128790476Y-83914286D01*
X128695238Y-83866667D01*
X128600000Y-83771429D01*
X128552381Y-83628571D01*
X128552381Y-83533333D01*
X128600000Y-83390476D01*
X128647619Y-83342857D01*
X128647619Y-82961905D02*
X128600000Y-82914286D01*
X128552381Y-82819048D01*
X128552381Y-82580952D01*
X128600000Y-82485714D01*
X128647619Y-82438095D01*
X128742857Y-82390476D01*
X128838095Y-82390476D01*
X128980952Y-82438095D01*
X129552381Y-83009524D01*
X129552381Y-82390476D01*
X128647619Y-82009524D02*
X128600000Y-81961905D01*
X128552381Y-81866667D01*
X128552381Y-81628571D01*
X128600000Y-81533333D01*
X128647619Y-81485714D01*
X128742857Y-81438095D01*
X128838095Y-81438095D01*
X128980952Y-81485714D01*
X129552381Y-82057143D01*
X129552381Y-81438095D01*
X141557143Y-121842857D02*
X141604762Y-121890476D01*
X141652381Y-122033333D01*
X141652381Y-122128571D01*
X141604762Y-122271429D01*
X141509524Y-122366667D01*
X141414286Y-122414286D01*
X141223810Y-122461905D01*
X141080952Y-122461905D01*
X140890476Y-122414286D01*
X140795238Y-122366667D01*
X140700000Y-122271429D01*
X140652381Y-122128571D01*
X140652381Y-122033333D01*
X140700000Y-121890476D01*
X140747619Y-121842857D01*
X140747619Y-121461905D02*
X140700000Y-121414286D01*
X140652381Y-121319048D01*
X140652381Y-121080952D01*
X140700000Y-120985714D01*
X140747619Y-120938095D01*
X140842857Y-120890476D01*
X140938095Y-120890476D01*
X141080952Y-120938095D01*
X141652381Y-121509524D01*
X141652381Y-120890476D01*
X140652381Y-120557143D02*
X140652381Y-119938095D01*
X141033333Y-120271429D01*
X141033333Y-120128571D01*
X141080952Y-120033333D01*
X141128571Y-119985714D01*
X141223810Y-119938095D01*
X141461905Y-119938095D01*
X141557143Y-119985714D01*
X141604762Y-120033333D01*
X141652381Y-120128571D01*
X141652381Y-120414286D01*
X141604762Y-120509524D01*
X141557143Y-120557143D01*
X142957143Y-121842857D02*
X143004762Y-121890476D01*
X143052381Y-122033333D01*
X143052381Y-122128571D01*
X143004762Y-122271429D01*
X142909524Y-122366667D01*
X142814286Y-122414286D01*
X142623810Y-122461905D01*
X142480952Y-122461905D01*
X142290476Y-122414286D01*
X142195238Y-122366667D01*
X142100000Y-122271429D01*
X142052381Y-122128571D01*
X142052381Y-122033333D01*
X142100000Y-121890476D01*
X142147619Y-121842857D01*
X142147619Y-121461905D02*
X142100000Y-121414286D01*
X142052381Y-121319048D01*
X142052381Y-121080952D01*
X142100000Y-120985714D01*
X142147619Y-120938095D01*
X142242857Y-120890476D01*
X142338095Y-120890476D01*
X142480952Y-120938095D01*
X143052381Y-121509524D01*
X143052381Y-120890476D01*
X142385714Y-120033333D02*
X143052381Y-120033333D01*
X142004762Y-120271429D02*
X142719048Y-120509524D01*
X142719048Y-119890476D01*
X166257143Y-119842857D02*
X166304762Y-119890476D01*
X166352381Y-120033333D01*
X166352381Y-120128571D01*
X166304762Y-120271429D01*
X166209524Y-120366667D01*
X166114286Y-120414286D01*
X165923810Y-120461905D01*
X165780952Y-120461905D01*
X165590476Y-120414286D01*
X165495238Y-120366667D01*
X165400000Y-120271429D01*
X165352381Y-120128571D01*
X165352381Y-120033333D01*
X165400000Y-119890476D01*
X165447619Y-119842857D01*
X165447619Y-119461905D02*
X165400000Y-119414286D01*
X165352381Y-119319048D01*
X165352381Y-119080952D01*
X165400000Y-118985714D01*
X165447619Y-118938095D01*
X165542857Y-118890476D01*
X165638095Y-118890476D01*
X165780952Y-118938095D01*
X166352381Y-119509524D01*
X166352381Y-118890476D01*
X165352381Y-117985714D02*
X165352381Y-118461905D01*
X165828571Y-118509524D01*
X165780952Y-118461905D01*
X165733333Y-118366667D01*
X165733333Y-118128571D01*
X165780952Y-118033333D01*
X165828571Y-117985714D01*
X165923810Y-117938095D01*
X166161905Y-117938095D01*
X166257143Y-117985714D01*
X166304762Y-118033333D01*
X166352381Y-118128571D01*
X166352381Y-118366667D01*
X166304762Y-118461905D01*
X166257143Y-118509524D01*
X167557143Y-120042857D02*
X167604762Y-120090476D01*
X167652381Y-120233333D01*
X167652381Y-120328571D01*
X167604762Y-120471429D01*
X167509524Y-120566667D01*
X167414286Y-120614286D01*
X167223810Y-120661905D01*
X167080952Y-120661905D01*
X166890476Y-120614286D01*
X166795238Y-120566667D01*
X166700000Y-120471429D01*
X166652381Y-120328571D01*
X166652381Y-120233333D01*
X166700000Y-120090476D01*
X166747619Y-120042857D01*
X166747619Y-119661905D02*
X166700000Y-119614286D01*
X166652381Y-119519048D01*
X166652381Y-119280952D01*
X166700000Y-119185714D01*
X166747619Y-119138095D01*
X166842857Y-119090476D01*
X166938095Y-119090476D01*
X167080952Y-119138095D01*
X167652381Y-119709524D01*
X167652381Y-119090476D01*
X166652381Y-118233333D02*
X166652381Y-118423810D01*
X166700000Y-118519048D01*
X166747619Y-118566667D01*
X166890476Y-118661905D01*
X167080952Y-118709524D01*
X167461905Y-118709524D01*
X167557143Y-118661905D01*
X167604762Y-118614286D01*
X167652381Y-118519048D01*
X167652381Y-118328571D01*
X167604762Y-118233333D01*
X167557143Y-118185714D01*
X167461905Y-118138095D01*
X167223810Y-118138095D01*
X167128571Y-118185714D01*
X167080952Y-118233333D01*
X167033333Y-118328571D01*
X167033333Y-118519048D01*
X167080952Y-118614286D01*
X167128571Y-118661905D01*
X167223810Y-118709524D01*
X158857143Y-79557143D02*
X158809524Y-79604762D01*
X158666667Y-79652381D01*
X158571429Y-79652381D01*
X158428571Y-79604762D01*
X158333333Y-79509524D01*
X158285714Y-79414286D01*
X158238095Y-79223810D01*
X158238095Y-79080952D01*
X158285714Y-78890476D01*
X158333333Y-78795238D01*
X158428571Y-78700000D01*
X158571429Y-78652381D01*
X158666667Y-78652381D01*
X158809524Y-78700000D01*
X158857143Y-78747619D01*
X159238095Y-78747619D02*
X159285714Y-78700000D01*
X159380952Y-78652381D01*
X159619048Y-78652381D01*
X159714286Y-78700000D01*
X159761905Y-78747619D01*
X159809524Y-78842857D01*
X159809524Y-78938095D01*
X159761905Y-79080952D01*
X159190476Y-79652381D01*
X159809524Y-79652381D01*
X160285714Y-79652381D02*
X160476190Y-79652381D01*
X160571429Y-79604762D01*
X160619048Y-79557143D01*
X160714286Y-79414286D01*
X160761905Y-79223810D01*
X160761905Y-78842857D01*
X160714286Y-78747619D01*
X160666667Y-78700000D01*
X160571429Y-78652381D01*
X160380952Y-78652381D01*
X160285714Y-78700000D01*
X160238095Y-78747619D01*
X160190476Y-78842857D01*
X160190476Y-79080952D01*
X160238095Y-79176190D01*
X160285714Y-79223810D01*
X160380952Y-79271429D01*
X160571429Y-79271429D01*
X160666667Y-79223810D01*
X160714286Y-79176190D01*
X160761905Y-79080952D01*
X123057143Y-79657143D02*
X123009524Y-79704762D01*
X122866667Y-79752381D01*
X122771429Y-79752381D01*
X122628571Y-79704762D01*
X122533333Y-79609524D01*
X122485714Y-79514286D01*
X122438095Y-79323810D01*
X122438095Y-79180952D01*
X122485714Y-78990476D01*
X122533333Y-78895238D01*
X122628571Y-78800000D01*
X122771429Y-78752381D01*
X122866667Y-78752381D01*
X123009524Y-78800000D01*
X123057143Y-78847619D01*
X123390476Y-78752381D02*
X124009524Y-78752381D01*
X123676190Y-79133333D01*
X123819048Y-79133333D01*
X123914286Y-79180952D01*
X123961905Y-79228571D01*
X124009524Y-79323810D01*
X124009524Y-79561905D01*
X123961905Y-79657143D01*
X123914286Y-79704762D01*
X123819048Y-79752381D01*
X123533333Y-79752381D01*
X123438095Y-79704762D01*
X123390476Y-79657143D01*
X124628571Y-78752381D02*
X124723810Y-78752381D01*
X124819048Y-78800000D01*
X124866667Y-78847619D01*
X124914286Y-78942857D01*
X124961905Y-79133333D01*
X124961905Y-79371429D01*
X124914286Y-79561905D01*
X124866667Y-79657143D01*
X124819048Y-79704762D01*
X124723810Y-79752381D01*
X124628571Y-79752381D01*
X124533333Y-79704762D01*
X124485714Y-79657143D01*
X124438095Y-79561905D01*
X124390476Y-79371429D01*
X124390476Y-79133333D01*
X124438095Y-78942857D01*
X124485714Y-78847619D01*
X124533333Y-78800000D01*
X124628571Y-78752381D01*
X115657143Y-122557143D02*
X115609524Y-122604762D01*
X115466667Y-122652381D01*
X115371429Y-122652381D01*
X115228571Y-122604762D01*
X115133333Y-122509524D01*
X115085714Y-122414286D01*
X115038095Y-122223810D01*
X115038095Y-122080952D01*
X115085714Y-121890476D01*
X115133333Y-121795238D01*
X115228571Y-121700000D01*
X115371429Y-121652381D01*
X115466667Y-121652381D01*
X115609524Y-121700000D01*
X115657143Y-121747619D01*
X115990476Y-121652381D02*
X116609524Y-121652381D01*
X116276190Y-122033333D01*
X116419048Y-122033333D01*
X116514286Y-122080952D01*
X116561905Y-122128571D01*
X116609524Y-122223810D01*
X116609524Y-122461905D01*
X116561905Y-122557143D01*
X116514286Y-122604762D01*
X116419048Y-122652381D01*
X116133333Y-122652381D01*
X116038095Y-122604762D01*
X115990476Y-122557143D01*
X117561905Y-122652381D02*
X116990476Y-122652381D01*
X117276190Y-122652381D02*
X117276190Y-121652381D01*
X117180952Y-121795238D01*
X117085714Y-121890476D01*
X116990476Y-121938095D01*
X149257143Y-122457143D02*
X149209524Y-122504762D01*
X149066667Y-122552381D01*
X148971429Y-122552381D01*
X148828571Y-122504762D01*
X148733333Y-122409524D01*
X148685714Y-122314286D01*
X148638095Y-122123810D01*
X148638095Y-121980952D01*
X148685714Y-121790476D01*
X148733333Y-121695238D01*
X148828571Y-121600000D01*
X148971429Y-121552381D01*
X149066667Y-121552381D01*
X149209524Y-121600000D01*
X149257143Y-121647619D01*
X149590476Y-121552381D02*
X150209524Y-121552381D01*
X149876190Y-121933333D01*
X150019048Y-121933333D01*
X150114286Y-121980952D01*
X150161905Y-122028571D01*
X150209524Y-122123810D01*
X150209524Y-122361905D01*
X150161905Y-122457143D01*
X150114286Y-122504762D01*
X150019048Y-122552381D01*
X149733333Y-122552381D01*
X149638095Y-122504762D01*
X149590476Y-122457143D01*
X150590476Y-121647619D02*
X150638095Y-121600000D01*
X150733333Y-121552381D01*
X150971429Y-121552381D01*
X151066667Y-121600000D01*
X151114286Y-121647619D01*
X151161905Y-121742857D01*
X151161905Y-121838095D01*
X151114286Y-121980952D01*
X150542857Y-122552381D01*
X151161905Y-122552381D01*
X162057143Y-68257143D02*
X162009524Y-68304762D01*
X161866667Y-68352381D01*
X161771429Y-68352381D01*
X161628571Y-68304762D01*
X161533333Y-68209524D01*
X161485714Y-68114286D01*
X161438095Y-67923810D01*
X161438095Y-67780952D01*
X161485714Y-67590476D01*
X161533333Y-67495238D01*
X161628571Y-67400000D01*
X161771429Y-67352381D01*
X161866667Y-67352381D01*
X162009524Y-67400000D01*
X162057143Y-67447619D01*
X162390476Y-67352381D02*
X163009524Y-67352381D01*
X162676190Y-67733333D01*
X162819048Y-67733333D01*
X162914286Y-67780952D01*
X162961905Y-67828571D01*
X163009524Y-67923810D01*
X163009524Y-68161905D01*
X162961905Y-68257143D01*
X162914286Y-68304762D01*
X162819048Y-68352381D01*
X162533333Y-68352381D01*
X162438095Y-68304762D01*
X162390476Y-68257143D01*
X163866667Y-67685714D02*
X163866667Y-68352381D01*
X163628571Y-67304762D02*
X163390476Y-68019048D01*
X164009524Y-68019048D01*
X125957143Y-68457143D02*
X125909524Y-68504762D01*
X125766667Y-68552381D01*
X125671429Y-68552381D01*
X125528571Y-68504762D01*
X125433333Y-68409524D01*
X125385714Y-68314286D01*
X125338095Y-68123810D01*
X125338095Y-67980952D01*
X125385714Y-67790476D01*
X125433333Y-67695238D01*
X125528571Y-67600000D01*
X125671429Y-67552381D01*
X125766667Y-67552381D01*
X125909524Y-67600000D01*
X125957143Y-67647619D01*
X126290476Y-67552381D02*
X126909524Y-67552381D01*
X126576190Y-67933333D01*
X126719048Y-67933333D01*
X126814286Y-67980952D01*
X126861905Y-68028571D01*
X126909524Y-68123810D01*
X126909524Y-68361905D01*
X126861905Y-68457143D01*
X126814286Y-68504762D01*
X126719048Y-68552381D01*
X126433333Y-68552381D01*
X126338095Y-68504762D01*
X126290476Y-68457143D01*
X127814286Y-67552381D02*
X127338095Y-67552381D01*
X127290476Y-68028571D01*
X127338095Y-67980952D01*
X127433333Y-67933333D01*
X127671429Y-67933333D01*
X127766667Y-67980952D01*
X127814286Y-68028571D01*
X127861905Y-68123810D01*
X127861905Y-68361905D01*
X127814286Y-68457143D01*
X127766667Y-68504762D01*
X127671429Y-68552381D01*
X127433333Y-68552381D01*
X127338095Y-68504762D01*
X127290476Y-68457143D01*
X115257143Y-130957143D02*
X115209524Y-131004762D01*
X115066667Y-131052381D01*
X114971429Y-131052381D01*
X114828571Y-131004762D01*
X114733333Y-130909524D01*
X114685714Y-130814286D01*
X114638095Y-130623810D01*
X114638095Y-130480952D01*
X114685714Y-130290476D01*
X114733333Y-130195238D01*
X114828571Y-130100000D01*
X114971429Y-130052381D01*
X115066667Y-130052381D01*
X115209524Y-130100000D01*
X115257143Y-130147619D01*
X115590476Y-130052381D02*
X116209524Y-130052381D01*
X115876190Y-130433333D01*
X116019048Y-130433333D01*
X116114286Y-130480952D01*
X116161905Y-130528571D01*
X116209524Y-130623810D01*
X116209524Y-130861905D01*
X116161905Y-130957143D01*
X116114286Y-131004762D01*
X116019048Y-131052381D01*
X115733333Y-131052381D01*
X115638095Y-131004762D01*
X115590476Y-130957143D01*
X117066667Y-130052381D02*
X116876190Y-130052381D01*
X116780952Y-130100000D01*
X116733333Y-130147619D01*
X116638095Y-130290476D01*
X116590476Y-130480952D01*
X116590476Y-130861905D01*
X116638095Y-130957143D01*
X116685714Y-131004762D01*
X116780952Y-131052381D01*
X116971429Y-131052381D01*
X117066667Y-131004762D01*
X117114286Y-130957143D01*
X117161905Y-130861905D01*
X117161905Y-130623810D01*
X117114286Y-130528571D01*
X117066667Y-130480952D01*
X116971429Y-130433333D01*
X116780952Y-130433333D01*
X116685714Y-130480952D01*
X116638095Y-130528571D01*
X116590476Y-130623810D01*
X153607143Y-132507143D02*
X153559524Y-132554762D01*
X153416667Y-132602381D01*
X153321429Y-132602381D01*
X153178571Y-132554762D01*
X153083333Y-132459524D01*
X153035714Y-132364286D01*
X152988095Y-132173810D01*
X152988095Y-132030952D01*
X153035714Y-131840476D01*
X153083333Y-131745238D01*
X153178571Y-131650000D01*
X153321429Y-131602381D01*
X153416667Y-131602381D01*
X153559524Y-131650000D01*
X153607143Y-131697619D01*
X153940476Y-131602381D02*
X154559524Y-131602381D01*
X154226190Y-131983333D01*
X154369048Y-131983333D01*
X154464286Y-132030952D01*
X154511905Y-132078571D01*
X154559524Y-132173810D01*
X154559524Y-132411905D01*
X154511905Y-132507143D01*
X154464286Y-132554762D01*
X154369048Y-132602381D01*
X154083333Y-132602381D01*
X153988095Y-132554762D01*
X153940476Y-132507143D01*
X154892857Y-131602381D02*
X155559524Y-131602381D01*
X155130952Y-132602381D01*
X166561905Y-75952381D02*
X166561905Y-74952381D01*
X166800000Y-74952381D01*
X166942858Y-75000000D01*
X167038096Y-75095238D01*
X167085715Y-75190476D01*
X167133334Y-75380952D01*
X167133334Y-75523810D01*
X167085715Y-75714286D01*
X167038096Y-75809524D01*
X166942858Y-75904762D01*
X166800000Y-75952381D01*
X166561905Y-75952381D01*
X168085715Y-75952381D02*
X167514286Y-75952381D01*
X167800000Y-75952381D02*
X167800000Y-74952381D01*
X167704762Y-75095238D01*
X167609524Y-75190476D01*
X167514286Y-75238095D01*
X159938095Y-78352381D02*
X159938095Y-77352381D01*
X160509524Y-78352381D02*
X160080952Y-77780952D01*
X160509524Y-77352381D02*
X159938095Y-77923810D01*
X164861905Y-78016667D02*
X165338096Y-78016667D01*
X164766667Y-78302381D02*
X165100000Y-77302381D01*
X165433334Y-78302381D01*
X131252381Y-76438095D02*
X130252381Y-76438095D01*
X130252381Y-76200000D01*
X130300000Y-76057142D01*
X130395238Y-75961904D01*
X130490476Y-75914285D01*
X130680952Y-75866666D01*
X130823810Y-75866666D01*
X131014286Y-75914285D01*
X131109524Y-75961904D01*
X131204762Y-76057142D01*
X131252381Y-76200000D01*
X131252381Y-76438095D01*
X130347619Y-75485714D02*
X130300000Y-75438095D01*
X130252381Y-75342857D01*
X130252381Y-75104761D01*
X130300000Y-75009523D01*
X130347619Y-74961904D01*
X130442857Y-74914285D01*
X130538095Y-74914285D01*
X130680952Y-74961904D01*
X131252381Y-75533333D01*
X131252381Y-74914285D01*
X123888095Y-78552381D02*
X123888095Y-77552381D01*
X124459524Y-78552381D02*
X124030952Y-77980952D01*
X124459524Y-77552381D02*
X123888095Y-78123810D01*
X128811905Y-78216667D02*
X129288096Y-78216667D01*
X128716667Y-78502381D02*
X129050000Y-77502381D01*
X129383334Y-78502381D01*
X115061905Y-125352381D02*
X115061905Y-124352381D01*
X115300000Y-124352381D01*
X115442858Y-124400000D01*
X115538096Y-124495238D01*
X115585715Y-124590476D01*
X115633334Y-124780952D01*
X115633334Y-124923810D01*
X115585715Y-125114286D01*
X115538096Y-125209524D01*
X115442858Y-125304762D01*
X115300000Y-125352381D01*
X115061905Y-125352381D01*
X115966667Y-124352381D02*
X116585715Y-124352381D01*
X116252381Y-124733333D01*
X116395239Y-124733333D01*
X116490477Y-124780952D01*
X116538096Y-124828571D01*
X116585715Y-124923810D01*
X116585715Y-125161905D01*
X116538096Y-125257143D01*
X116490477Y-125304762D01*
X116395239Y-125352381D01*
X116109524Y-125352381D01*
X116014286Y-125304762D01*
X115966667Y-125257143D01*
X122788095Y-122802381D02*
X122788095Y-121802381D01*
X123359524Y-122802381D02*
X122930952Y-122230952D01*
X123359524Y-121802381D02*
X122788095Y-122373810D01*
X117911905Y-122566667D02*
X118388096Y-122566667D01*
X117816667Y-122852381D02*
X118150000Y-121852381D01*
X118483334Y-122852381D01*
X148761905Y-125052381D02*
X148761905Y-124052381D01*
X149000000Y-124052381D01*
X149142858Y-124100000D01*
X149238096Y-124195238D01*
X149285715Y-124290476D01*
X149333334Y-124480952D01*
X149333334Y-124623810D01*
X149285715Y-124814286D01*
X149238096Y-124909524D01*
X149142858Y-125004762D01*
X149000000Y-125052381D01*
X148761905Y-125052381D01*
X150190477Y-124385714D02*
X150190477Y-125052381D01*
X149952381Y-124004762D02*
X149714286Y-124719048D01*
X150333334Y-124719048D01*
X156538095Y-122552381D02*
X156538095Y-121552381D01*
X157109524Y-122552381D02*
X156680952Y-121980952D01*
X157109524Y-121552381D02*
X156538095Y-122123810D01*
X151661905Y-122316667D02*
X152138096Y-122316667D01*
X151566667Y-122602381D02*
X151900000Y-121602381D01*
X152233334Y-122602381D01*
X150261905Y-78352381D02*
X150261905Y-77352381D01*
X150500000Y-77352381D01*
X150642858Y-77400000D01*
X150738096Y-77495238D01*
X150785715Y-77590476D01*
X150833334Y-77780952D01*
X150833334Y-77923810D01*
X150785715Y-78114286D01*
X150738096Y-78209524D01*
X150642858Y-78304762D01*
X150500000Y-78352381D01*
X150261905Y-78352381D01*
X151738096Y-77352381D02*
X151261905Y-77352381D01*
X151214286Y-77828571D01*
X151261905Y-77780952D01*
X151357143Y-77733333D01*
X151595239Y-77733333D01*
X151690477Y-77780952D01*
X151738096Y-77828571D01*
X151785715Y-77923810D01*
X151785715Y-78161905D01*
X151738096Y-78257143D01*
X151690477Y-78304762D01*
X151595239Y-78352381D01*
X151357143Y-78352381D01*
X151261905Y-78304762D01*
X151214286Y-78257143D01*
X158388095Y-75252381D02*
X158388095Y-74252381D01*
X158959524Y-75252381D02*
X158530952Y-74680952D01*
X158959524Y-74252381D02*
X158388095Y-74823810D01*
X152611905Y-75016667D02*
X153088096Y-75016667D01*
X152516667Y-75302381D02*
X152850000Y-74302381D01*
X153183334Y-75302381D01*
X114261905Y-77702381D02*
X114261905Y-76702381D01*
X114500000Y-76702381D01*
X114642858Y-76750000D01*
X114738096Y-76845238D01*
X114785715Y-76940476D01*
X114833334Y-77130952D01*
X114833334Y-77273810D01*
X114785715Y-77464286D01*
X114738096Y-77559524D01*
X114642858Y-77654762D01*
X114500000Y-77702381D01*
X114261905Y-77702381D01*
X115690477Y-76702381D02*
X115500000Y-76702381D01*
X115404762Y-76750000D01*
X115357143Y-76797619D01*
X115261905Y-76940476D01*
X115214286Y-77130952D01*
X115214286Y-77511905D01*
X115261905Y-77607143D01*
X115309524Y-77654762D01*
X115404762Y-77702381D01*
X115595239Y-77702381D01*
X115690477Y-77654762D01*
X115738096Y-77607143D01*
X115785715Y-77511905D01*
X115785715Y-77273810D01*
X115738096Y-77178571D01*
X115690477Y-77130952D01*
X115595239Y-77083333D01*
X115404762Y-77083333D01*
X115309524Y-77130952D01*
X115261905Y-77178571D01*
X115214286Y-77273810D01*
X122348095Y-74702381D02*
X122348095Y-73702381D01*
X122919524Y-74702381D02*
X122490952Y-74130952D01*
X122919524Y-73702381D02*
X122348095Y-74273810D01*
X116571905Y-74466667D02*
X117048096Y-74466667D01*
X116476667Y-74752381D02*
X116810000Y-73752381D01*
X117143334Y-74752381D01*
X132061905Y-125452381D02*
X132061905Y-124452381D01*
X132300000Y-124452381D01*
X132442858Y-124500000D01*
X132538096Y-124595238D01*
X132585715Y-124690476D01*
X132633334Y-124880952D01*
X132633334Y-125023810D01*
X132585715Y-125214286D01*
X132538096Y-125309524D01*
X132442858Y-125404762D01*
X132300000Y-125452381D01*
X132061905Y-125452381D01*
X132966667Y-124452381D02*
X133633334Y-124452381D01*
X133204762Y-125452381D01*
X125088095Y-128152381D02*
X125088095Y-127152381D01*
X125659524Y-128152381D02*
X125230952Y-127580952D01*
X125659524Y-127152381D02*
X125088095Y-127723810D01*
X130911905Y-127816667D02*
X131388096Y-127816667D01*
X130816667Y-128102381D02*
X131150000Y-127102381D01*
X131483334Y-128102381D01*
X164561905Y-125352381D02*
X164561905Y-124352381D01*
X164800000Y-124352381D01*
X164942858Y-124400000D01*
X165038096Y-124495238D01*
X165085715Y-124590476D01*
X165133334Y-124780952D01*
X165133334Y-124923810D01*
X165085715Y-125114286D01*
X165038096Y-125209524D01*
X164942858Y-125304762D01*
X164800000Y-125352381D01*
X164561905Y-125352381D01*
X165704762Y-124780952D02*
X165609524Y-124733333D01*
X165561905Y-124685714D01*
X165514286Y-124590476D01*
X165514286Y-124542857D01*
X165561905Y-124447619D01*
X165609524Y-124400000D01*
X165704762Y-124352381D01*
X165895239Y-124352381D01*
X165990477Y-124400000D01*
X166038096Y-124447619D01*
X166085715Y-124542857D01*
X166085715Y-124590476D01*
X166038096Y-124685714D01*
X165990477Y-124733333D01*
X165895239Y-124780952D01*
X165704762Y-124780952D01*
X165609524Y-124828571D01*
X165561905Y-124876190D01*
X165514286Y-124971429D01*
X165514286Y-125161905D01*
X165561905Y-125257143D01*
X165609524Y-125304762D01*
X165704762Y-125352381D01*
X165895239Y-125352381D01*
X165990477Y-125304762D01*
X166038096Y-125257143D01*
X166085715Y-125161905D01*
X166085715Y-124971429D01*
X166038096Y-124876190D01*
X165990477Y-124828571D01*
X165895239Y-124780952D01*
X158088095Y-128402381D02*
X158088095Y-127402381D01*
X158659524Y-128402381D02*
X158230952Y-127830952D01*
X158659524Y-127402381D02*
X158088095Y-127973810D01*
X163911905Y-128066667D02*
X164388096Y-128066667D01*
X163816667Y-128352381D02*
X164150000Y-127352381D01*
X164483334Y-128352381D01*
X166761905Y-72452381D02*
X166761905Y-71452381D01*
X167000000Y-71452381D01*
X167142858Y-71500000D01*
X167238096Y-71595238D01*
X167285715Y-71690476D01*
X167333334Y-71880952D01*
X167333334Y-72023810D01*
X167285715Y-72214286D01*
X167238096Y-72309524D01*
X167142858Y-72404762D01*
X167000000Y-72452381D01*
X166761905Y-72452381D01*
X167809524Y-72452381D02*
X168000000Y-72452381D01*
X168095239Y-72404762D01*
X168142858Y-72357143D01*
X168238096Y-72214286D01*
X168285715Y-72023810D01*
X168285715Y-71642857D01*
X168238096Y-71547619D01*
X168190477Y-71500000D01*
X168095239Y-71452381D01*
X167904762Y-71452381D01*
X167809524Y-71500000D01*
X167761905Y-71547619D01*
X167714286Y-71642857D01*
X167714286Y-71880952D01*
X167761905Y-71976190D01*
X167809524Y-72023810D01*
X167904762Y-72071429D01*
X168095239Y-72071429D01*
X168190477Y-72023810D01*
X168238096Y-71976190D01*
X168285715Y-71880952D01*
X165038095Y-70052381D02*
X165038095Y-69052381D01*
X165609524Y-70052381D02*
X165180952Y-69480952D01*
X165609524Y-69052381D02*
X165038095Y-69623810D01*
X160161905Y-69816667D02*
X160638096Y-69816667D01*
X160066667Y-70102381D02*
X160400000Y-69102381D01*
X160733334Y-70102381D01*
X131352381Y-73514286D02*
X130352381Y-73514286D01*
X130352381Y-73276191D01*
X130400000Y-73133333D01*
X130495238Y-73038095D01*
X130590476Y-72990476D01*
X130780952Y-72942857D01*
X130923810Y-72942857D01*
X131114286Y-72990476D01*
X131209524Y-73038095D01*
X131304762Y-73133333D01*
X131352381Y-73276191D01*
X131352381Y-73514286D01*
X131352381Y-71990476D02*
X131352381Y-72561905D01*
X131352381Y-72276191D02*
X130352381Y-72276191D01*
X130495238Y-72371429D01*
X130590476Y-72466667D01*
X130638095Y-72561905D01*
X130352381Y-71371429D02*
X130352381Y-71276190D01*
X130400000Y-71180952D01*
X130447619Y-71133333D01*
X130542857Y-71085714D01*
X130733333Y-71038095D01*
X130971429Y-71038095D01*
X131161905Y-71085714D01*
X131257143Y-71133333D01*
X131304762Y-71180952D01*
X131352381Y-71276190D01*
X131352381Y-71371429D01*
X131304762Y-71466667D01*
X131257143Y-71514286D01*
X131161905Y-71561905D01*
X130971429Y-71609524D01*
X130733333Y-71609524D01*
X130542857Y-71561905D01*
X130447619Y-71514286D01*
X130400000Y-71466667D01*
X130352381Y-71371429D01*
X128988095Y-70452381D02*
X128988095Y-69452381D01*
X129559524Y-70452381D02*
X129130952Y-69880952D01*
X129559524Y-69452381D02*
X128988095Y-70023810D01*
X124111905Y-70216667D02*
X124588096Y-70216667D01*
X124016667Y-70502381D02*
X124350000Y-69502381D01*
X124683334Y-70502381D01*
X114385714Y-128452381D02*
X114385714Y-127452381D01*
X114623809Y-127452381D01*
X114766667Y-127500000D01*
X114861905Y-127595238D01*
X114909524Y-127690476D01*
X114957143Y-127880952D01*
X114957143Y-128023810D01*
X114909524Y-128214286D01*
X114861905Y-128309524D01*
X114766667Y-128404762D01*
X114623809Y-128452381D01*
X114385714Y-128452381D01*
X115909524Y-128452381D02*
X115338095Y-128452381D01*
X115623809Y-128452381D02*
X115623809Y-127452381D01*
X115528571Y-127595238D01*
X115433333Y-127690476D01*
X115338095Y-127738095D01*
X116861905Y-128452381D02*
X116290476Y-128452381D01*
X116576190Y-128452381D02*
X116576190Y-127452381D01*
X116480952Y-127595238D01*
X116385714Y-127690476D01*
X116290476Y-127738095D01*
X117688095Y-130852381D02*
X117688095Y-129852381D01*
X118259524Y-130852381D02*
X117830952Y-130280952D01*
X118259524Y-129852381D02*
X117688095Y-130423810D01*
X122611905Y-130516667D02*
X123088096Y-130516667D01*
X122516667Y-130802381D02*
X122850000Y-129802381D01*
X123183334Y-130802381D01*
X148085714Y-128152381D02*
X148085714Y-127152381D01*
X148323809Y-127152381D01*
X148466667Y-127200000D01*
X148561905Y-127295238D01*
X148609524Y-127390476D01*
X148657143Y-127580952D01*
X148657143Y-127723810D01*
X148609524Y-127914286D01*
X148561905Y-128009524D01*
X148466667Y-128104762D01*
X148323809Y-128152381D01*
X148085714Y-128152381D01*
X149609524Y-128152381D02*
X149038095Y-128152381D01*
X149323809Y-128152381D02*
X149323809Y-127152381D01*
X149228571Y-127295238D01*
X149133333Y-127390476D01*
X149038095Y-127438095D01*
X149990476Y-127247619D02*
X150038095Y-127200000D01*
X150133333Y-127152381D01*
X150371429Y-127152381D01*
X150466667Y-127200000D01*
X150514286Y-127247619D01*
X150561905Y-127342857D01*
X150561905Y-127438095D01*
X150514286Y-127580952D01*
X149942857Y-128152381D01*
X150561905Y-128152381D01*
X151438095Y-130602381D02*
X151438095Y-129602381D01*
X152009524Y-130602381D02*
X151580952Y-130030952D01*
X152009524Y-129602381D02*
X151438095Y-130173810D01*
X156361905Y-130266667D02*
X156838096Y-130266667D01*
X156266667Y-130552381D02*
X156600000Y-129552381D01*
X156933334Y-130552381D01*
X113535714Y-73702381D02*
X113535714Y-72702381D01*
X113773809Y-72702381D01*
X113916667Y-72750000D01*
X114011905Y-72845238D01*
X114059524Y-72940476D01*
X114107143Y-73130952D01*
X114107143Y-73273810D01*
X114059524Y-73464286D01*
X114011905Y-73559524D01*
X113916667Y-73654762D01*
X113773809Y-73702381D01*
X113535714Y-73702381D01*
X115059524Y-73702381D02*
X114488095Y-73702381D01*
X114773809Y-73702381D02*
X114773809Y-72702381D01*
X114678571Y-72845238D01*
X114583333Y-72940476D01*
X114488095Y-72988095D01*
X115916667Y-73035714D02*
X115916667Y-73702381D01*
X115678571Y-72654762D02*
X115440476Y-73369048D01*
X116059524Y-73369048D01*
X116548095Y-76502381D02*
X116548095Y-75502381D01*
X117119524Y-76502381D02*
X116690952Y-75930952D01*
X117119524Y-75502381D02*
X116548095Y-76073810D01*
X122371905Y-76166667D02*
X122848096Y-76166667D01*
X122276667Y-76452381D02*
X122610000Y-75452381D01*
X122943334Y-76452381D01*
X131785714Y-129552381D02*
X131785714Y-128552381D01*
X132023809Y-128552381D01*
X132166667Y-128600000D01*
X132261905Y-128695238D01*
X132309524Y-128790476D01*
X132357143Y-128980952D01*
X132357143Y-129123810D01*
X132309524Y-129314286D01*
X132261905Y-129409524D01*
X132166667Y-129504762D01*
X132023809Y-129552381D01*
X131785714Y-129552381D01*
X133309524Y-129552381D02*
X132738095Y-129552381D01*
X133023809Y-129552381D02*
X133023809Y-128552381D01*
X132928571Y-128695238D01*
X132833333Y-128790476D01*
X132738095Y-128838095D01*
X134214286Y-128552381D02*
X133738095Y-128552381D01*
X133690476Y-129028571D01*
X133738095Y-128980952D01*
X133833333Y-128933333D01*
X134071429Y-128933333D01*
X134166667Y-128980952D01*
X134214286Y-129028571D01*
X134261905Y-129123810D01*
X134261905Y-129361905D01*
X134214286Y-129457143D01*
X134166667Y-129504762D01*
X134071429Y-129552381D01*
X133833333Y-129552381D01*
X133738095Y-129504762D01*
X133690476Y-129457143D01*
X130598095Y-126752381D02*
X130598095Y-125752381D01*
X131169524Y-126752381D02*
X130740952Y-126180952D01*
X131169524Y-125752381D02*
X130598095Y-126323810D01*
X124821905Y-126516667D02*
X125298096Y-126516667D01*
X124726667Y-126802381D02*
X125060000Y-125802381D01*
X125393334Y-126802381D01*
X160075714Y-133512381D02*
X160075714Y-132512381D01*
X160313809Y-132512381D01*
X160456667Y-132560000D01*
X160551905Y-132655238D01*
X160599524Y-132750476D01*
X160647143Y-132940952D01*
X160647143Y-133083810D01*
X160599524Y-133274286D01*
X160551905Y-133369524D01*
X160456667Y-133464762D01*
X160313809Y-133512381D01*
X160075714Y-133512381D01*
X161599524Y-133512381D02*
X161028095Y-133512381D01*
X161313809Y-133512381D02*
X161313809Y-132512381D01*
X161218571Y-132655238D01*
X161123333Y-132750476D01*
X161028095Y-132798095D01*
X162456667Y-132512381D02*
X162266190Y-132512381D01*
X162170952Y-132560000D01*
X162123333Y-132607619D01*
X162028095Y-132750476D01*
X161980476Y-132940952D01*
X161980476Y-133321905D01*
X162028095Y-133417143D01*
X162075714Y-133464762D01*
X162170952Y-133512381D01*
X162361429Y-133512381D01*
X162456667Y-133464762D01*
X162504286Y-133417143D01*
X162551905Y-133321905D01*
X162551905Y-133083810D01*
X162504286Y-132988571D01*
X162456667Y-132940952D01*
X162361429Y-132893333D01*
X162170952Y-132893333D01*
X162075714Y-132940952D01*
X162028095Y-132988571D01*
X161980476Y-133083810D01*
X163928095Y-126752381D02*
X163928095Y-125752381D01*
X164499524Y-126752381D02*
X164070952Y-126180952D01*
X164499524Y-125752381D02*
X163928095Y-126323810D01*
X158151905Y-126516667D02*
X158628096Y-126516667D01*
X158056667Y-126802381D02*
X158390000Y-125802381D01*
X158723334Y-126802381D01*
X166052381Y-80666666D02*
X165576190Y-81000000D01*
X166052381Y-81238095D02*
X165052381Y-81238095D01*
X165052381Y-80857142D01*
X165100000Y-80761904D01*
X165147619Y-80714285D01*
X165242857Y-80666666D01*
X165385714Y-80666666D01*
X165480952Y-80714285D01*
X165528571Y-80761904D01*
X165576190Y-80857142D01*
X165576190Y-81238095D01*
X165052381Y-80333333D02*
X165052381Y-79714285D01*
X165433333Y-80047619D01*
X165433333Y-79904761D01*
X165480952Y-79809523D01*
X165528571Y-79761904D01*
X165623810Y-79714285D01*
X165861905Y-79714285D01*
X165957143Y-79761904D01*
X166004762Y-79809523D01*
X166052381Y-79904761D01*
X166052381Y-80190476D01*
X166004762Y-80285714D01*
X165957143Y-80333333D01*
X127133334Y-82652381D02*
X126800000Y-82176190D01*
X126561905Y-82652381D02*
X126561905Y-81652381D01*
X126942858Y-81652381D01*
X127038096Y-81700000D01*
X127085715Y-81747619D01*
X127133334Y-81842857D01*
X127133334Y-81985714D01*
X127085715Y-82080952D01*
X127038096Y-82128571D01*
X126942858Y-82176190D01*
X126561905Y-82176190D01*
X127990477Y-81985714D02*
X127990477Y-82652381D01*
X127752381Y-81604762D02*
X127514286Y-82319048D01*
X128133334Y-82319048D01*
X128233334Y-122252381D02*
X127900000Y-121776190D01*
X127661905Y-122252381D02*
X127661905Y-121252381D01*
X128042858Y-121252381D01*
X128138096Y-121300000D01*
X128185715Y-121347619D01*
X128233334Y-121442857D01*
X128233334Y-121585714D01*
X128185715Y-121680952D01*
X128138096Y-121728571D01*
X128042858Y-121776190D01*
X127661905Y-121776190D01*
X129138096Y-121252381D02*
X128661905Y-121252381D01*
X128614286Y-121728571D01*
X128661905Y-121680952D01*
X128757143Y-121633333D01*
X128995239Y-121633333D01*
X129090477Y-121680952D01*
X129138096Y-121728571D01*
X129185715Y-121823810D01*
X129185715Y-122061905D01*
X129138096Y-122157143D01*
X129090477Y-122204762D01*
X128995239Y-122252381D01*
X128757143Y-122252381D01*
X128661905Y-122204762D01*
X128614286Y-122157143D01*
X161733334Y-122852381D02*
X161400000Y-122376190D01*
X161161905Y-122852381D02*
X161161905Y-121852381D01*
X161542858Y-121852381D01*
X161638096Y-121900000D01*
X161685715Y-121947619D01*
X161733334Y-122042857D01*
X161733334Y-122185714D01*
X161685715Y-122280952D01*
X161638096Y-122328571D01*
X161542858Y-122376190D01*
X161161905Y-122376190D01*
X162590477Y-121852381D02*
X162400000Y-121852381D01*
X162304762Y-121900000D01*
X162257143Y-121947619D01*
X162161905Y-122090476D01*
X162114286Y-122280952D01*
X162114286Y-122661905D01*
X162161905Y-122757143D01*
X162209524Y-122804762D01*
X162304762Y-122852381D01*
X162495239Y-122852381D01*
X162590477Y-122804762D01*
X162638096Y-122757143D01*
X162685715Y-122661905D01*
X162685715Y-122423810D01*
X162638096Y-122328571D01*
X162590477Y-122280952D01*
X162495239Y-122233333D01*
X162304762Y-122233333D01*
X162209524Y-122280952D01*
X162161905Y-122328571D01*
X162114286Y-122423810D01*
X176452381Y-69861905D02*
X177261905Y-69861905D01*
X177357143Y-69814286D01*
X177404762Y-69766667D01*
X177452381Y-69671429D01*
X177452381Y-69480952D01*
X177404762Y-69385714D01*
X177357143Y-69338095D01*
X177261905Y-69290476D01*
X176452381Y-69290476D01*
X176452381Y-68909524D02*
X176452381Y-68290476D01*
X176833333Y-68623810D01*
X176833333Y-68480952D01*
X176880952Y-68385714D01*
X176928571Y-68338095D01*
X177023810Y-68290476D01*
X177261905Y-68290476D01*
X177357143Y-68338095D01*
X177404762Y-68385714D01*
X177452381Y-68480952D01*
X177452381Y-68766667D01*
X177404762Y-68861905D01*
X177357143Y-68909524D01*
X135952381Y-68761905D02*
X136761905Y-68761905D01*
X136857143Y-68714286D01*
X136904762Y-68666667D01*
X136952381Y-68571429D01*
X136952381Y-68380952D01*
X136904762Y-68285714D01*
X136857143Y-68238095D01*
X136761905Y-68190476D01*
X135952381Y-68190476D01*
X136285714Y-67285714D02*
X136952381Y-67285714D01*
X135904762Y-67523810D02*
X136619048Y-67761905D01*
X136619048Y-67142857D01*
X143238095Y-123352381D02*
X143238095Y-124161905D01*
X143285714Y-124257143D01*
X143333333Y-124304762D01*
X143428571Y-124352381D01*
X143619048Y-124352381D01*
X143714286Y-124304762D01*
X143761905Y-124257143D01*
X143809524Y-124161905D01*
X143809524Y-123352381D01*
X144761905Y-123352381D02*
X144285714Y-123352381D01*
X144238095Y-123828571D01*
X144285714Y-123780952D01*
X144380952Y-123733333D01*
X144619048Y-123733333D01*
X144714286Y-123780952D01*
X144761905Y-123828571D01*
X144809524Y-123923810D01*
X144809524Y-124161905D01*
X144761905Y-124257143D01*
X144714286Y-124304762D01*
X144619048Y-124352381D01*
X144380952Y-124352381D01*
X144285714Y-124304762D01*
X144238095Y-124257143D01*
X174238095Y-123252381D02*
X174238095Y-124061905D01*
X174285714Y-124157143D01*
X174333333Y-124204762D01*
X174428571Y-124252381D01*
X174619048Y-124252381D01*
X174714286Y-124204762D01*
X174761905Y-124157143D01*
X174809524Y-124061905D01*
X174809524Y-123252381D01*
X175714286Y-123252381D02*
X175523809Y-123252381D01*
X175428571Y-123300000D01*
X175380952Y-123347619D01*
X175285714Y-123490476D01*
X175238095Y-123680952D01*
X175238095Y-124061905D01*
X175285714Y-124157143D01*
X175333333Y-124204762D01*
X175428571Y-124252381D01*
X175619048Y-124252381D01*
X175714286Y-124204762D01*
X175761905Y-124157143D01*
X175809524Y-124061905D01*
X175809524Y-123823810D01*
X175761905Y-123728571D01*
X175714286Y-123680952D01*
X175619048Y-123633333D01*
X175428571Y-123633333D01*
X175333333Y-123680952D01*
X175285714Y-123728571D01*
X175238095Y-123823810D01*
X169738095Y-87852381D02*
X169738095Y-88661905D01*
X169785714Y-88757143D01*
X169833333Y-88804762D01*
X169928571Y-88852381D01*
X170119048Y-88852381D01*
X170214286Y-88804762D01*
X170261905Y-88757143D01*
X170309524Y-88661905D01*
X170309524Y-87852381D01*
X171309524Y-88852381D02*
X170738095Y-88852381D01*
X171023809Y-88852381D02*
X171023809Y-87852381D01*
X170928571Y-87995238D01*
X170833333Y-88090476D01*
X170738095Y-88138095D01*
X161738095Y-111252381D02*
X161738095Y-112061905D01*
X161785714Y-112157143D01*
X161833333Y-112204762D01*
X161928571Y-112252381D01*
X162119048Y-112252381D01*
X162214286Y-112204762D01*
X162261905Y-112157143D01*
X162309524Y-112061905D01*
X162309524Y-111252381D01*
X162738095Y-111347619D02*
X162785714Y-111300000D01*
X162880952Y-111252381D01*
X163119048Y-111252381D01*
X163214286Y-111300000D01*
X163261905Y-111347619D01*
X163309524Y-111442857D01*
X163309524Y-111538095D01*
X163261905Y-111680952D01*
X162690476Y-112252381D01*
X163309524Y-112252381D01*
X113661905Y-102652381D02*
X113661905Y-101652381D01*
X114042858Y-101652381D01*
X114138096Y-101700000D01*
X114185715Y-101747619D01*
X114233334Y-101842857D01*
X114233334Y-101985714D01*
X114185715Y-102080952D01*
X114138096Y-102128571D01*
X114042858Y-102176190D01*
X113661905Y-102176190D01*
X114614286Y-101747619D02*
X114661905Y-101700000D01*
X114757143Y-101652381D01*
X114995239Y-101652381D01*
X115090477Y-101700000D01*
X115138096Y-101747619D01*
X115185715Y-101842857D01*
X115185715Y-101938095D01*
X115138096Y-102080952D01*
X114566667Y-102652381D01*
X115185715Y-102652381D01*
X116661905Y-90752381D02*
X116661905Y-89752381D01*
X117042858Y-89752381D01*
X117138096Y-89800000D01*
X117185715Y-89847619D01*
X117233334Y-89942857D01*
X117233334Y-90085714D01*
X117185715Y-90180952D01*
X117138096Y-90228571D01*
X117042858Y-90276190D01*
X116661905Y-90276190D01*
X117566667Y-89752381D02*
X118185715Y-89752381D01*
X117852381Y-90133333D01*
X117995239Y-90133333D01*
X118090477Y-90180952D01*
X118138096Y-90228571D01*
X118185715Y-90323810D01*
X118185715Y-90561905D01*
X118138096Y-90657143D01*
X118090477Y-90704762D01*
X117995239Y-90752381D01*
X117709524Y-90752381D01*
X117614286Y-90704762D01*
X117566667Y-90657143D01*
X116961905Y-68252381D02*
X116961905Y-67252381D01*
X117342858Y-67252381D01*
X117438096Y-67300000D01*
X117485715Y-67347619D01*
X117533334Y-67442857D01*
X117533334Y-67585714D01*
X117485715Y-67680952D01*
X117438096Y-67728571D01*
X117342858Y-67776190D01*
X116961905Y-67776190D01*
X118390477Y-67585714D02*
X118390477Y-68252381D01*
X118152381Y-67204762D02*
X117914286Y-67919048D01*
X118533334Y-67919048D01*
X115961905Y-136452381D02*
X115961905Y-135452381D01*
X116342858Y-135452381D01*
X116438096Y-135500000D01*
X116485715Y-135547619D01*
X116533334Y-135642857D01*
X116533334Y-135785714D01*
X116485715Y-135880952D01*
X116438096Y-135928571D01*
X116342858Y-135976190D01*
X115961905Y-135976190D01*
X117438096Y-135452381D02*
X116961905Y-135452381D01*
X116914286Y-135928571D01*
X116961905Y-135880952D01*
X117057143Y-135833333D01*
X117295239Y-135833333D01*
X117390477Y-135880952D01*
X117438096Y-135928571D01*
X117485715Y-136023810D01*
X117485715Y-136261905D01*
X117438096Y-136357143D01*
X117390477Y-136404762D01*
X117295239Y-136452381D01*
X117057143Y-136452381D01*
X116961905Y-136404762D01*
X116914286Y-136357143D01*
X162832381Y-116861905D02*
X162832381Y-116290476D01*
X163832381Y-116576191D02*
X162832381Y-116576191D01*
X163165714Y-115528571D02*
X163832381Y-115528571D01*
X162784762Y-115766667D02*
X163499048Y-116004762D01*
X163499048Y-115385714D01*
X124832381Y-116861905D02*
X124832381Y-116290476D01*
X125832381Y-116576191D02*
X124832381Y-116576191D01*
X124832381Y-116052381D02*
X124832381Y-115433333D01*
X125213333Y-115766667D01*
X125213333Y-115623809D01*
X125260952Y-115528571D01*
X125308571Y-115480952D01*
X125403810Y-115433333D01*
X125641905Y-115433333D01*
X125737143Y-115480952D01*
X125784762Y-115528571D01*
X125832381Y-115623809D01*
X125832381Y-115909524D01*
X125784762Y-116004762D01*
X125737143Y-116052381D01*
X125292381Y-84161905D02*
X125292381Y-83590476D01*
X126292381Y-83876191D02*
X125292381Y-83876191D01*
X125387619Y-83304762D02*
X125340000Y-83257143D01*
X125292381Y-83161905D01*
X125292381Y-82923809D01*
X125340000Y-82828571D01*
X125387619Y-82780952D01*
X125482857Y-82733333D01*
X125578095Y-82733333D01*
X125720952Y-82780952D01*
X126292381Y-83352381D01*
X126292381Y-82733333D01*
X162542381Y-84661905D02*
X162542381Y-84090476D01*
X163542381Y-84376191D02*
X162542381Y-84376191D01*
X163542381Y-83233333D02*
X163542381Y-83804762D01*
X163542381Y-83519048D02*
X162542381Y-83519048D01*
X162685238Y-83614286D01*
X162780476Y-83709524D01*
X162828095Y-83804762D01*
X154657143Y-93292857D02*
X154704762Y-93340476D01*
X154752381Y-93483333D01*
X154752381Y-93578571D01*
X154704762Y-93721429D01*
X154609524Y-93816667D01*
X154514286Y-93864286D01*
X154323810Y-93911905D01*
X154180952Y-93911905D01*
X153990476Y-93864286D01*
X153895238Y-93816667D01*
X153800000Y-93721429D01*
X153752381Y-93578571D01*
X153752381Y-93483333D01*
X153800000Y-93340476D01*
X153847619Y-93292857D01*
X153847619Y-92911905D02*
X153800000Y-92864286D01*
X153752381Y-92769048D01*
X153752381Y-92530952D01*
X153800000Y-92435714D01*
X153847619Y-92388095D01*
X153942857Y-92340476D01*
X154038095Y-92340476D01*
X154180952Y-92388095D01*
X154752381Y-92959524D01*
X154752381Y-92340476D01*
X153752381Y-92007143D02*
X153752381Y-91340476D01*
X154752381Y-91769048D01*
X124057143Y-105292857D02*
X124104762Y-105340476D01*
X124152381Y-105483333D01*
X124152381Y-105578571D01*
X124104762Y-105721429D01*
X124009524Y-105816667D01*
X123914286Y-105864286D01*
X123723810Y-105911905D01*
X123580952Y-105911905D01*
X123390476Y-105864286D01*
X123295238Y-105816667D01*
X123200000Y-105721429D01*
X123152381Y-105578571D01*
X123152381Y-105483333D01*
X123200000Y-105340476D01*
X123247619Y-105292857D01*
X123247619Y-104911905D02*
X123200000Y-104864286D01*
X123152381Y-104769048D01*
X123152381Y-104530952D01*
X123200000Y-104435714D01*
X123247619Y-104388095D01*
X123342857Y-104340476D01*
X123438095Y-104340476D01*
X123580952Y-104388095D01*
X124152381Y-104959524D01*
X124152381Y-104340476D01*
X123580952Y-103769048D02*
X123533333Y-103864286D01*
X123485714Y-103911905D01*
X123390476Y-103959524D01*
X123342857Y-103959524D01*
X123247619Y-103911905D01*
X123200000Y-103864286D01*
X123152381Y-103769048D01*
X123152381Y-103578571D01*
X123200000Y-103483333D01*
X123247619Y-103435714D01*
X123342857Y-103388095D01*
X123390476Y-103388095D01*
X123485714Y-103435714D01*
X123533333Y-103483333D01*
X123580952Y-103578571D01*
X123580952Y-103769048D01*
X123628571Y-103864286D01*
X123676190Y-103911905D01*
X123771429Y-103959524D01*
X123961905Y-103959524D01*
X124057143Y-103911905D01*
X124104762Y-103864286D01*
X124152381Y-103769048D01*
X124152381Y-103578571D01*
X124104762Y-103483333D01*
X124057143Y-103435714D01*
X123961905Y-103388095D01*
X123771429Y-103388095D01*
X123676190Y-103435714D01*
X123628571Y-103483333D01*
X123580952Y-103578571D01*
%LPC*%
D14*
X153960000Y-73750000D03*
X157540000Y-73750000D03*
D15*
X177000000Y-74000000D03*
X177000000Y-72500000D03*
X169500000Y-74000000D03*
X169500000Y-72500000D03*
D16*
X171266515Y-77815699D03*
X172766515Y-77815699D03*
D17*
X120000000Y-108000000D03*
D18*
X120000000Y-93000000D03*
D17*
X158000000Y-93000000D03*
D18*
X158000000Y-108000000D03*
D19*
X165850000Y-93700000D03*
X167350000Y-93700000D03*
X167050000Y-106200000D03*
X165550000Y-106200000D03*
D20*
X120530000Y-83000000D03*
X123070000Y-83000000D03*
X117990000Y-83000000D03*
X159470000Y-83000000D03*
X162010000Y-83000000D03*
X156930000Y-83000000D03*
X120530000Y-118000000D03*
X117990000Y-118000000D03*
X123070000Y-118000000D03*
X159470000Y-118000000D03*
X156930000Y-118000000D03*
X162010000Y-118000000D03*
D21*
X173180000Y-92250000D03*
D22*
X175720000Y-92250000D03*
X173180000Y-94790000D03*
X175720000Y-94790000D03*
X173180000Y-97330000D03*
X175720000Y-97330000D03*
X173180000Y-99870000D03*
X175720000Y-99870000D03*
X173180000Y-102410000D03*
X175720000Y-102410000D03*
X173180000Y-104950000D03*
X175720000Y-104950000D03*
X173180000Y-107490000D03*
X175720000Y-107490000D03*
X173180000Y-110030000D03*
X175720000Y-110030000D03*
D16*
X165950000Y-92000000D03*
X167450000Y-92000000D03*
X167100000Y-107900000D03*
X165600000Y-107900000D03*
D15*
X167250000Y-126500000D03*
X167250000Y-128000000D03*
X140400000Y-73550000D03*
X140400000Y-72050000D03*
X136250000Y-126250000D03*
X136250000Y-127750000D03*
X174750000Y-126750000D03*
X174750000Y-128250000D03*
X132800000Y-73650000D03*
X132800000Y-72150000D03*
X143750000Y-126250000D03*
X143750000Y-127750000D03*
D16*
X134770552Y-79131338D03*
X136270552Y-79131338D03*
X134720552Y-77431338D03*
X136220552Y-77431338D03*
D15*
X171750000Y-122000000D03*
X171750000Y-120500000D03*
X173250000Y-122000000D03*
X173250000Y-120500000D03*
D16*
X171266515Y-79565699D03*
X172766515Y-79565699D03*
D15*
X138250000Y-122000000D03*
X138250000Y-120500000D03*
X139750000Y-122000000D03*
X139750000Y-120500000D03*
D16*
X168250000Y-81000000D03*
X166750000Y-81000000D03*
X166750000Y-79500000D03*
X168250000Y-79500000D03*
X131750000Y-79000000D03*
X130250000Y-79000000D03*
X130250000Y-80600000D03*
X131750000Y-80600000D03*
D15*
X134812796Y-120535774D03*
X134812796Y-122035774D03*
X136312796Y-122035774D03*
X136312796Y-120535774D03*
X168250000Y-120500000D03*
X168250000Y-122000000D03*
X169750000Y-122000000D03*
X169750000Y-120500000D03*
D16*
X161750000Y-78500000D03*
X163250000Y-78500000D03*
X125750000Y-78100000D03*
X127250000Y-78100000D03*
X121250000Y-122250000D03*
X119750000Y-122250000D03*
X155000000Y-122000000D03*
X153500000Y-122000000D03*
X162000000Y-69500000D03*
X163500000Y-69500000D03*
X125850000Y-70000000D03*
X127350000Y-70000000D03*
X121250000Y-130500000D03*
X119750000Y-130500000D03*
X155000000Y-130250000D03*
X153500000Y-130250000D03*
D23*
X160349700Y-75500000D03*
X165150300Y-75500000D03*
X124299700Y-75700000D03*
X129100300Y-75700000D03*
X122900300Y-124750000D03*
X118099700Y-124750000D03*
X156650300Y-124500000D03*
X151849700Y-124500000D03*
D14*
X157540000Y-77750000D03*
X153960000Y-77750000D03*
X121500000Y-77200000D03*
X117920000Y-77200000D03*
X126460000Y-124750000D03*
X130040000Y-124750000D03*
X159460000Y-125000000D03*
X163040000Y-125000000D03*
D23*
X165150300Y-72000000D03*
X160349700Y-72000000D03*
X129100300Y-72400000D03*
X124299700Y-72400000D03*
X118099700Y-128000000D03*
X122900300Y-128000000D03*
X151849700Y-127750000D03*
X156650300Y-127750000D03*
D14*
X117920000Y-73100000D03*
X121500000Y-73100000D03*
X129750000Y-129250000D03*
X126170000Y-129250000D03*
X163080000Y-129250000D03*
X159500000Y-129250000D03*
D24*
X105000000Y-55000000D03*
X105000000Y-145000000D03*
X175000000Y-55000000D03*
X175000000Y-145000000D03*
D25*
X164450000Y-80500000D03*
X161550000Y-80500000D03*
X128700000Y-80100000D03*
X125800000Y-80100000D03*
X133200000Y-122000000D03*
X130300000Y-122000000D03*
X166450000Y-121750000D03*
X163550000Y-121750000D03*
D26*
X175155000Y-70550000D03*
X173885000Y-70550000D03*
X172615000Y-70550000D03*
X171345000Y-70550000D03*
X171345000Y-75950000D03*
X172615000Y-75950000D03*
X173885000Y-75950000D03*
X175155000Y-75950000D03*
X138505000Y-70100000D03*
X137235000Y-70100000D03*
X135965000Y-70100000D03*
X134695000Y-70100000D03*
X134695000Y-75500000D03*
X135965000Y-75500000D03*
X137235000Y-75500000D03*
X138505000Y-75500000D03*
X138095000Y-129950000D03*
X139365000Y-129950000D03*
X140635000Y-129950000D03*
X141905000Y-129950000D03*
X141905000Y-124550000D03*
X140635000Y-124550000D03*
X139365000Y-124550000D03*
X138095000Y-124550000D03*
X169095000Y-130200000D03*
X170365000Y-130200000D03*
X171635000Y-130200000D03*
X172905000Y-130200000D03*
X172905000Y-124800000D03*
X171635000Y-124800000D03*
X170365000Y-124800000D03*
X169095000Y-124800000D03*
D27*
X166730000Y-88200000D03*
X165460000Y-88200000D03*
X168000000Y-88200000D03*
X166530000Y-111800000D03*
X167800000Y-111800000D03*
X165260000Y-111800000D03*
D28*
X108000000Y-109000000D03*
X108000000Y-91000000D03*
X108000000Y-68000000D03*
X108000000Y-132000000D03*
D29*
X173540000Y-114000000D03*
X171000000Y-114000000D03*
X173540000Y-118200000D03*
X171000000Y-118200000D03*
X135540000Y-114000000D03*
X133000000Y-114000000D03*
X135540000Y-118200000D03*
X133000000Y-118200000D03*
X136000000Y-81300000D03*
X133460000Y-81300000D03*
X136000000Y-85500000D03*
X133460000Y-85500000D03*
X173250000Y-81800000D03*
X170710000Y-81800000D03*
X173250000Y-86000000D03*
X170710000Y-86000000D03*
D30*
X145000000Y-88900000D03*
X145000000Y-96400000D03*
X133000000Y-108400000D03*
X133000000Y-100900000D03*
D31*
G36*
X107873000Y-75373000D02*
X100127000Y-75373000D01*
X100127000Y-60627000D01*
X107873000Y-60627000D01*
X107873000Y-75373000D01*
X107873000Y-75373000D01*
G37*
X107873000Y-75373000D02*
X100127000Y-75373000D01*
X100127000Y-60627000D01*
X107873000Y-60627000D01*
X107873000Y-75373000D01*
G36*
X107873000Y-98373000D02*
X100127000Y-98373000D01*
X100127000Y-83627000D01*
X107873000Y-83627000D01*
X107873000Y-98373000D01*
X107873000Y-98373000D01*
G37*
X107873000Y-98373000D02*
X100127000Y-98373000D01*
X100127000Y-83627000D01*
X107873000Y-83627000D01*
X107873000Y-98373000D01*
G36*
X107873000Y-116373000D02*
X100127000Y-116373000D01*
X100127000Y-101627000D01*
X107873000Y-101627000D01*
X107873000Y-116373000D01*
X107873000Y-116373000D01*
G37*
X107873000Y-116373000D02*
X100127000Y-116373000D01*
X100127000Y-101627000D01*
X107873000Y-101627000D01*
X107873000Y-116373000D01*
G36*
X107873000Y-139373000D02*
X100127000Y-139373000D01*
X100127000Y-124627000D01*
X107873000Y-124627000D01*
X107873000Y-139373000D01*
X107873000Y-139373000D01*
G37*
X107873000Y-139373000D02*
X100127000Y-139373000D01*
X100127000Y-124627000D01*
X107873000Y-124627000D01*
X107873000Y-139373000D01*
M02*
