M48
;DRILL file {KiCad 4.0.1-stable} date 27.06.2016 00:57:26
;FORMAT={-:-/ absolute / inch / decimal}
FMAT,2
INCH,TZ
T1C0.024
T2C0.028
T3C0.031
T4C0.039
T5C0.040
T6C0.045
T7C0.197
T8C0.134
%
G90
G05
M72
T1
X6.5063Y-4.4016
X6.5142Y-3.4724
X6.5563Y-4.4016
X6.5642Y-3.4724
X6.6063Y-4.4016
X6.6142Y-3.4724
T2
X3.9803Y-3.4173
X3.9803Y-3.752
X3.9803Y-4.122
X3.9803Y-4.4606
X4.0079Y-3.7913
X4.0079Y-3.374
X4.0079Y-4.0827
X4.0079Y-4.5
X4.0433Y-3.8268
X4.0433Y-3.3386
X4.0433Y-4.0472
X4.0433Y-4.5354
X4.0551Y-3.189
X4.0551Y-4.685
X4.0827Y-3.8543
X4.0827Y-4.0197
X4.0827Y-4.563
X4.0866Y-3.311
X4.2126Y-3.189
X4.2126Y-4.685
X4.3701Y-3.189
X4.3701Y-4.685
X4.5276Y-2.874
X4.5276Y-3.0315
X4.5276Y-3.189
X4.5276Y-4.685
X4.5276Y-4.8425
X4.5276Y-5.
X4.5669Y-5.126
X4.6063Y-2.7953
X4.6457Y-5.2756
X4.7638Y-2.7559
X4.8031Y-5.2756
X4.8819Y-2.6378
X4.9606Y-5.2756
X5.0394Y-2.6378
X5.1181Y-5.2756
X5.1969Y-2.6378
X5.2756Y-5.2756
X5.3543Y-2.6378
X5.4331Y-5.2756
X5.5118Y-2.6378
X5.5906Y-5.2756
X5.6693Y-2.6378
X5.7087Y-5.315
X5.7874Y-5.3937
X5.8268Y-2.6378
X5.9449Y-5.3937
X5.9724Y-2.6378
X6.1024Y-2.5197
X6.1024Y-5.3937
X6.2598Y-5.3937
X6.2622Y-2.5098
X6.4173Y-5.3937
X6.4204Y-2.5098
X6.5236Y-2.7402
X6.5748Y-5.3937
X6.5776Y-2.5138
X6.6457Y-2.6703
X6.6575Y-2.5433
X6.6654Y-4.248
X6.7874Y-2.5591
X6.8425Y-2.6378
X6.8937Y-2.6378
X6.9434Y-4.6137
X6.9449Y-4.5591
X6.9488Y-2.6378
X6.9793Y-3.0098
X6.9813Y-2.9587
T3
X5.2362Y-4.4882
X5.2362Y-4.6535
X5.2543Y-3.2008
X5.2543Y-3.3661
X5.3362Y-4.4882
X5.3362Y-4.6535
X5.3543Y-3.2008
X5.3543Y-3.3661
X6.7209Y-3.2205
X6.7209Y-3.3858
X6.7323Y-4.4882
X6.7323Y-4.6535
X6.8209Y-3.2205
X6.8209Y-3.3858
X6.8323Y-4.4882
X6.8323Y-4.6535
T4
X4.7244Y-3.6614
X4.7244Y-4.252
X5.2362Y-3.9724
X5.2362Y-4.2677
X5.7087Y-3.5
X5.7087Y-3.7953
X6.2205Y-3.6614
X6.2205Y-4.252
T5
X6.8181Y-3.6319
X6.8181Y-3.7319
X6.8181Y-3.8319
X6.8181Y-3.9319
X6.8181Y-4.0319
X6.8181Y-4.1319
X6.8181Y-4.2319
X6.8181Y-4.3319
X6.9181Y-3.6319
X6.9181Y-3.7319
X6.9181Y-3.8319
X6.9181Y-3.9319
X6.9181Y-4.0319
X6.9181Y-4.1319
X6.9181Y-4.2319
X6.9181Y-4.3319
T6
X4.6453Y-3.2677
X4.6453Y-4.6457
X4.7453Y-3.2677
X4.7453Y-4.6457
X4.8453Y-3.2677
X4.8453Y-4.6457
X6.1783Y-3.2677
X6.1783Y-4.6457
X6.2783Y-3.2677
X6.2783Y-4.6457
X6.3783Y-3.2677
X6.3783Y-4.6457
T7
X4.252Y-2.6772
X4.252Y-3.5827
X4.252Y-4.2913
X4.252Y-5.1969
T8
X4.1339Y-2.1654
X4.1339Y-5.7087
X6.8898Y-2.1654
X6.8898Y-5.7087
T0
M30
