G04 #@! TF.FileFunction,Soldermask,Top*
%FSLAX46Y46*%
G04 Gerber Fmt 4.6, Leading zero omitted, Abs format (unit mm)*
G04 Created by KiCad (PCBNEW 4.0.1-stable) date 27.06.2016 00:57:11*
%MOMM*%
G01*
G04 APERTURE LIST*
%ADD10C,0.100000*%
G04 APERTURE END LIST*
D10*
G36*
X105381274Y-141372416D02*
X106078616Y-141515560D01*
X106734869Y-141791423D01*
X107325045Y-142189502D01*
X107826662Y-142694633D01*
X108220611Y-143287572D01*
X108491886Y-143945735D01*
X108630090Y-144643716D01*
X108630090Y-144643726D01*
X108630156Y-144644060D01*
X108618802Y-145457161D01*
X108618726Y-145457495D01*
X108618726Y-145457507D01*
X108461089Y-146151349D01*
X108171541Y-146801685D01*
X107761191Y-147383394D01*
X107245663Y-147874324D01*
X106644607Y-148255765D01*
X105980902Y-148513200D01*
X105279840Y-148636816D01*
X104568116Y-148621908D01*
X103872836Y-148469040D01*
X103220500Y-148184041D01*
X102635940Y-147777762D01*
X102141425Y-147265676D01*
X101755796Y-146667297D01*
X101493735Y-146005407D01*
X101365226Y-145305217D01*
X101375166Y-144593409D01*
X101523173Y-143897088D01*
X101803614Y-143242771D01*
X102205802Y-142655390D01*
X102714423Y-142157311D01*
X103310097Y-141767513D01*
X103970141Y-141500838D01*
X104669408Y-141367446D01*
X105381274Y-141372416D01*
X105381274Y-141372416D01*
G37*
G36*
X175381274Y-141372416D02*
X176078616Y-141515560D01*
X176734869Y-141791423D01*
X177325045Y-142189502D01*
X177826662Y-142694633D01*
X178220611Y-143287572D01*
X178491886Y-143945735D01*
X178630090Y-144643716D01*
X178630090Y-144643726D01*
X178630156Y-144644060D01*
X178618802Y-145457161D01*
X178618726Y-145457495D01*
X178618726Y-145457507D01*
X178461089Y-146151349D01*
X178171541Y-146801685D01*
X177761191Y-147383394D01*
X177245663Y-147874324D01*
X176644607Y-148255765D01*
X175980902Y-148513200D01*
X175279840Y-148636816D01*
X174568116Y-148621908D01*
X173872836Y-148469040D01*
X173220500Y-148184041D01*
X172635940Y-147777762D01*
X172141425Y-147265676D01*
X171755796Y-146667297D01*
X171493735Y-146005407D01*
X171365226Y-145305217D01*
X171375166Y-144593409D01*
X171523173Y-143897088D01*
X171803614Y-143242771D01*
X172205802Y-142655390D01*
X172714423Y-142157311D01*
X173310097Y-141767513D01*
X173970141Y-141500838D01*
X174669408Y-141367446D01*
X175381274Y-141372416D01*
X175381274Y-141372416D01*
G37*
G36*
X108801411Y-124375080D02*
X110267171Y-124675958D01*
X111646571Y-125255804D01*
X112887078Y-126092536D01*
X113941439Y-127154284D01*
X114769490Y-128400600D01*
X115339692Y-129784014D01*
X115630261Y-131251496D01*
X115630261Y-131251506D01*
X115630327Y-131251840D01*
X115606462Y-132960920D01*
X115606386Y-132961254D01*
X115606386Y-132961266D01*
X115274958Y-134420054D01*
X114666348Y-135787012D01*
X113803822Y-137009722D01*
X112720224Y-138041618D01*
X111456843Y-138843384D01*
X110061786Y-139384492D01*
X108588201Y-139644324D01*
X107092209Y-139612988D01*
X106583615Y-139501166D01*
X106572878Y-139500000D01*
X100000000Y-139500000D01*
X100000000Y-124500000D01*
X106590788Y-124500000D01*
X106600157Y-124499114D01*
X107305124Y-124364634D01*
X108801411Y-124375080D01*
X108801411Y-124375080D01*
G37*
G36*
X173335000Y-131105000D02*
X172475000Y-131105000D01*
X172475000Y-129295000D01*
X173335000Y-129295000D01*
X173335000Y-131105000D01*
X173335000Y-131105000D01*
G37*
G36*
X169525000Y-131105000D02*
X168665000Y-131105000D01*
X168665000Y-129295000D01*
X169525000Y-129295000D01*
X169525000Y-131105000D01*
X169525000Y-131105000D01*
G37*
G36*
X172065000Y-131105000D02*
X171205000Y-131105000D01*
X171205000Y-129295000D01*
X172065000Y-129295000D01*
X172065000Y-131105000D01*
X172065000Y-131105000D01*
G37*
G36*
X170795000Y-131105000D02*
X169935000Y-131105000D01*
X169935000Y-129295000D01*
X170795000Y-129295000D01*
X170795000Y-131105000D01*
X170795000Y-131105000D01*
G37*
G36*
X121780000Y-131005000D02*
X120720000Y-131005000D01*
X120720000Y-129995000D01*
X121780000Y-129995000D01*
X121780000Y-131005000D01*
X121780000Y-131005000D01*
G37*
G36*
X120280000Y-131005000D02*
X119220000Y-131005000D01*
X119220000Y-129995000D01*
X120280000Y-129995000D01*
X120280000Y-131005000D01*
X120280000Y-131005000D01*
G37*
G36*
X142335000Y-130855000D02*
X141475000Y-130855000D01*
X141475000Y-129045000D01*
X142335000Y-129045000D01*
X142335000Y-130855000D01*
X142335000Y-130855000D01*
G37*
G36*
X141065000Y-130855000D02*
X140205000Y-130855000D01*
X140205000Y-129045000D01*
X141065000Y-129045000D01*
X141065000Y-130855000D01*
X141065000Y-130855000D01*
G37*
G36*
X139795000Y-130855000D02*
X138935000Y-130855000D01*
X138935000Y-129045000D01*
X139795000Y-129045000D01*
X139795000Y-130855000D01*
X139795000Y-130855000D01*
G37*
G36*
X138525000Y-130855000D02*
X137665000Y-130855000D01*
X137665000Y-129045000D01*
X138525000Y-129045000D01*
X138525000Y-130855000D01*
X138525000Y-130855000D01*
G37*
G36*
X155530000Y-130755000D02*
X154470000Y-130755000D01*
X154470000Y-129745000D01*
X155530000Y-129745000D01*
X155530000Y-130755000D01*
X155530000Y-130755000D01*
G37*
G36*
X154030000Y-130755000D02*
X152970000Y-130755000D01*
X152970000Y-129745000D01*
X154030000Y-129745000D01*
X154030000Y-130755000D01*
X154030000Y-130755000D01*
G37*
G36*
X164060000Y-130220000D02*
X162100000Y-130220000D01*
X162100000Y-128280000D01*
X164060000Y-128280000D01*
X164060000Y-130220000D01*
X164060000Y-130220000D01*
G37*
G36*
X127150000Y-130220000D02*
X125190000Y-130220000D01*
X125190000Y-128280000D01*
X127150000Y-128280000D01*
X127150000Y-130220000D01*
X127150000Y-130220000D01*
G37*
G36*
X160480000Y-130220000D02*
X158520000Y-130220000D01*
X158520000Y-128280000D01*
X160480000Y-128280000D01*
X160480000Y-130220000D01*
X160480000Y-130220000D01*
G37*
G36*
X130730000Y-130220000D02*
X128770000Y-130220000D01*
X128770000Y-128280000D01*
X130730000Y-128280000D01*
X130730000Y-130220000D01*
X130730000Y-130220000D01*
G37*
G36*
X123780870Y-129480010D02*
X122019730Y-129480010D01*
X122019730Y-126519990D01*
X123780870Y-126519990D01*
X123780870Y-129480010D01*
X123780870Y-129480010D01*
G37*
G36*
X118980270Y-129480010D02*
X117219130Y-129480010D01*
X117219130Y-126519990D01*
X118980270Y-126519990D01*
X118980270Y-129480010D01*
X118980270Y-129480010D01*
G37*
G36*
X157530870Y-129230010D02*
X155769730Y-129230010D01*
X155769730Y-126269990D01*
X157530870Y-126269990D01*
X157530870Y-129230010D01*
X157530870Y-129230010D01*
G37*
G36*
X152730270Y-129230010D02*
X150969130Y-129230010D01*
X150969130Y-126269990D01*
X152730270Y-126269990D01*
X152730270Y-129230010D01*
X152730270Y-129230010D01*
G37*
G36*
X175255000Y-128780000D02*
X174245000Y-128780000D01*
X174245000Y-127720000D01*
X175255000Y-127720000D01*
X175255000Y-128780000D01*
X175255000Y-128780000D01*
G37*
G36*
X167755000Y-128530000D02*
X166745000Y-128530000D01*
X166745000Y-127470000D01*
X167755000Y-127470000D01*
X167755000Y-128530000D01*
X167755000Y-128530000D01*
G37*
G36*
X136755000Y-128280000D02*
X135745000Y-128280000D01*
X135745000Y-127220000D01*
X136755000Y-127220000D01*
X136755000Y-128280000D01*
X136755000Y-128280000D01*
G37*
G36*
X144255000Y-128280000D02*
X143245000Y-128280000D01*
X143245000Y-127220000D01*
X144255000Y-127220000D01*
X144255000Y-128280000D01*
X144255000Y-128280000D01*
G37*
G36*
X175255000Y-127280000D02*
X174245000Y-127280000D01*
X174245000Y-126220000D01*
X175255000Y-126220000D01*
X175255000Y-127280000D01*
X175255000Y-127280000D01*
G37*
G36*
X167755000Y-127030000D02*
X166745000Y-127030000D01*
X166745000Y-125970000D01*
X167755000Y-125970000D01*
X167755000Y-127030000D01*
X167755000Y-127030000D01*
G37*
G36*
X144255000Y-126780000D02*
X143245000Y-126780000D01*
X143245000Y-125720000D01*
X144255000Y-125720000D01*
X144255000Y-126780000D01*
X144255000Y-126780000D01*
G37*
G36*
X136755000Y-126780000D02*
X135745000Y-126780000D01*
X135745000Y-125720000D01*
X136755000Y-125720000D01*
X136755000Y-126780000D01*
X136755000Y-126780000D01*
G37*
G36*
X123780870Y-126230010D02*
X122019730Y-126230010D01*
X122019730Y-123269990D01*
X123780870Y-123269990D01*
X123780870Y-126230010D01*
X123780870Y-126230010D01*
G37*
G36*
X118980270Y-126230010D02*
X117219130Y-126230010D01*
X117219130Y-123269990D01*
X118980270Y-123269990D01*
X118980270Y-126230010D01*
X118980270Y-126230010D01*
G37*
G36*
X157530870Y-125980010D02*
X155769730Y-125980010D01*
X155769730Y-123019990D01*
X157530870Y-123019990D01*
X157530870Y-125980010D01*
X157530870Y-125980010D01*
G37*
G36*
X152730270Y-125980010D02*
X150969130Y-125980010D01*
X150969130Y-123019990D01*
X152730270Y-123019990D01*
X152730270Y-125980010D01*
X152730270Y-125980010D01*
G37*
G36*
X164020000Y-125970000D02*
X162060000Y-125970000D01*
X162060000Y-124030000D01*
X164020000Y-124030000D01*
X164020000Y-125970000D01*
X164020000Y-125970000D01*
G37*
G36*
X160440000Y-125970000D02*
X158480000Y-125970000D01*
X158480000Y-124030000D01*
X160440000Y-124030000D01*
X160440000Y-125970000D01*
X160440000Y-125970000D01*
G37*
G36*
X131020000Y-125720000D02*
X129060000Y-125720000D01*
X129060000Y-123780000D01*
X131020000Y-123780000D01*
X131020000Y-125720000D01*
X131020000Y-125720000D01*
G37*
G36*
X127440000Y-125720000D02*
X125480000Y-125720000D01*
X125480000Y-123780000D01*
X127440000Y-123780000D01*
X127440000Y-125720000D01*
X127440000Y-125720000D01*
G37*
G36*
X173335000Y-125705000D02*
X172475000Y-125705000D01*
X172475000Y-123895000D01*
X173335000Y-123895000D01*
X173335000Y-125705000D01*
X173335000Y-125705000D01*
G37*
G36*
X172065000Y-125705000D02*
X171205000Y-125705000D01*
X171205000Y-123895000D01*
X172065000Y-123895000D01*
X172065000Y-125705000D01*
X172065000Y-125705000D01*
G37*
G36*
X170795000Y-125705000D02*
X169935000Y-125705000D01*
X169935000Y-123895000D01*
X170795000Y-123895000D01*
X170795000Y-125705000D01*
X170795000Y-125705000D01*
G37*
G36*
X169525000Y-125705000D02*
X168665000Y-125705000D01*
X168665000Y-123895000D01*
X169525000Y-123895000D01*
X169525000Y-125705000D01*
X169525000Y-125705000D01*
G37*
G36*
X141065000Y-125455000D02*
X140205000Y-125455000D01*
X140205000Y-123645000D01*
X141065000Y-123645000D01*
X141065000Y-125455000D01*
X141065000Y-125455000D01*
G37*
G36*
X139795000Y-125455000D02*
X138935000Y-125455000D01*
X138935000Y-123645000D01*
X139795000Y-123645000D01*
X139795000Y-125455000D01*
X139795000Y-125455000D01*
G37*
G36*
X138525000Y-125455000D02*
X137665000Y-125455000D01*
X137665000Y-123645000D01*
X138525000Y-123645000D01*
X138525000Y-125455000D01*
X138525000Y-125455000D01*
G37*
G36*
X142335000Y-125455000D02*
X141475000Y-125455000D01*
X141475000Y-123645000D01*
X142335000Y-123645000D01*
X142335000Y-125455000D01*
X142335000Y-125455000D01*
G37*
G36*
X133780000Y-122980000D02*
X132620000Y-122980000D01*
X132620000Y-121020000D01*
X133780000Y-121020000D01*
X133780000Y-122980000D01*
X133780000Y-122980000D01*
G37*
G36*
X130880000Y-122980000D02*
X129720000Y-122980000D01*
X129720000Y-121020000D01*
X130880000Y-121020000D01*
X130880000Y-122980000D01*
X130880000Y-122980000D01*
G37*
G36*
X120280000Y-122755000D02*
X119220000Y-122755000D01*
X119220000Y-121745000D01*
X120280000Y-121745000D01*
X120280000Y-122755000D01*
X120280000Y-122755000D01*
G37*
G36*
X121780000Y-122755000D02*
X120720000Y-122755000D01*
X120720000Y-121745000D01*
X121780000Y-121745000D01*
X121780000Y-122755000D01*
X121780000Y-122755000D01*
G37*
G36*
X167030000Y-122730000D02*
X165870000Y-122730000D01*
X165870000Y-120770000D01*
X167030000Y-120770000D01*
X167030000Y-122730000D01*
X167030000Y-122730000D01*
G37*
G36*
X164130000Y-122730000D02*
X162970000Y-122730000D01*
X162970000Y-120770000D01*
X164130000Y-120770000D01*
X164130000Y-122730000D01*
X164130000Y-122730000D01*
G37*
G36*
X135317796Y-122565774D02*
X134307796Y-122565774D01*
X134307796Y-121505774D01*
X135317796Y-121505774D01*
X135317796Y-122565774D01*
X135317796Y-122565774D01*
G37*
G36*
X136817796Y-122565774D02*
X135807796Y-122565774D01*
X135807796Y-121505774D01*
X136817796Y-121505774D01*
X136817796Y-122565774D01*
X136817796Y-122565774D01*
G37*
G36*
X168755000Y-122530000D02*
X167745000Y-122530000D01*
X167745000Y-121470000D01*
X168755000Y-121470000D01*
X168755000Y-122530000D01*
X168755000Y-122530000D01*
G37*
G36*
X140255000Y-122530000D02*
X139245000Y-122530000D01*
X139245000Y-121470000D01*
X140255000Y-121470000D01*
X140255000Y-122530000D01*
X140255000Y-122530000D01*
G37*
G36*
X172255000Y-122530000D02*
X171245000Y-122530000D01*
X171245000Y-121470000D01*
X172255000Y-121470000D01*
X172255000Y-122530000D01*
X172255000Y-122530000D01*
G37*
G36*
X138755000Y-122530000D02*
X137745000Y-122530000D01*
X137745000Y-121470000D01*
X138755000Y-121470000D01*
X138755000Y-122530000D01*
X138755000Y-122530000D01*
G37*
G36*
X170255000Y-122530000D02*
X169245000Y-122530000D01*
X169245000Y-121470000D01*
X170255000Y-121470000D01*
X170255000Y-122530000D01*
X170255000Y-122530000D01*
G37*
G36*
X173755000Y-122530000D02*
X172745000Y-122530000D01*
X172745000Y-121470000D01*
X173755000Y-121470000D01*
X173755000Y-122530000D01*
X173755000Y-122530000D01*
G37*
G36*
X154030000Y-122505000D02*
X152970000Y-122505000D01*
X152970000Y-121495000D01*
X154030000Y-121495000D01*
X154030000Y-122505000D01*
X154030000Y-122505000D01*
G37*
G36*
X155530000Y-122505000D02*
X154470000Y-122505000D01*
X154470000Y-121495000D01*
X155530000Y-121495000D01*
X155530000Y-122505000D01*
X155530000Y-122505000D01*
G37*
G36*
X136817796Y-121065774D02*
X135807796Y-121065774D01*
X135807796Y-120005774D01*
X136817796Y-120005774D01*
X136817796Y-121065774D01*
X136817796Y-121065774D01*
G37*
G36*
X135317796Y-121065774D02*
X134307796Y-121065774D01*
X134307796Y-120005774D01*
X135317796Y-120005774D01*
X135317796Y-121065774D01*
X135317796Y-121065774D01*
G37*
G36*
X168755000Y-121030000D02*
X167745000Y-121030000D01*
X167745000Y-119970000D01*
X168755000Y-119970000D01*
X168755000Y-121030000D01*
X168755000Y-121030000D01*
G37*
G36*
X138755000Y-121030000D02*
X137745000Y-121030000D01*
X137745000Y-119970000D01*
X138755000Y-119970000D01*
X138755000Y-121030000D01*
X138755000Y-121030000D01*
G37*
G36*
X173755000Y-121030000D02*
X172745000Y-121030000D01*
X172745000Y-119970000D01*
X173755000Y-119970000D01*
X173755000Y-121030000D01*
X173755000Y-121030000D01*
G37*
G36*
X170255000Y-121030000D02*
X169245000Y-121030000D01*
X169245000Y-119970000D01*
X170255000Y-119970000D01*
X170255000Y-121030000D01*
X170255000Y-121030000D01*
G37*
G36*
X172255000Y-121030000D02*
X171245000Y-121030000D01*
X171245000Y-119970000D01*
X172255000Y-119970000D01*
X172255000Y-121030000D01*
X172255000Y-121030000D01*
G37*
G36*
X140255000Y-121030000D02*
X139245000Y-121030000D01*
X139245000Y-119970000D01*
X140255000Y-119970000D01*
X140255000Y-121030000D01*
X140255000Y-121030000D01*
G37*
G36*
X120760386Y-116616625D02*
X120760400Y-116616629D01*
X120760435Y-116616633D01*
X120974093Y-116682771D01*
X121170835Y-116789149D01*
X121343168Y-116931715D01*
X121484528Y-117105039D01*
X121589530Y-117302519D01*
X121654175Y-117516633D01*
X121676000Y-117739226D01*
X121676000Y-118260774D01*
X121675888Y-118276775D01*
X121650957Y-118499041D01*
X121583329Y-118712231D01*
X121475580Y-118908226D01*
X121331814Y-119079560D01*
X121157507Y-119219706D01*
X120959299Y-119323327D01*
X120744739Y-119386475D01*
X120744705Y-119386478D01*
X120744692Y-119386482D01*
X120522001Y-119406749D01*
X120299614Y-119383375D01*
X120299600Y-119383371D01*
X120299565Y-119383367D01*
X120085907Y-119317229D01*
X119889165Y-119210851D01*
X119716832Y-119068285D01*
X119575472Y-118894961D01*
X119470470Y-118697481D01*
X119405825Y-118483367D01*
X119384000Y-118260774D01*
X119384000Y-117739226D01*
X119384112Y-117723225D01*
X119409043Y-117500959D01*
X119476671Y-117287769D01*
X119584420Y-117091774D01*
X119728186Y-116920440D01*
X119902493Y-116780294D01*
X120100701Y-116676673D01*
X120315261Y-116613525D01*
X120315295Y-116613522D01*
X120315308Y-116613518D01*
X120537999Y-116593251D01*
X120760386Y-116616625D01*
X120760386Y-116616625D01*
G37*
G36*
X162240386Y-116616625D02*
X162240400Y-116616629D01*
X162240435Y-116616633D01*
X162454093Y-116682771D01*
X162650835Y-116789149D01*
X162823168Y-116931715D01*
X162964528Y-117105039D01*
X163069530Y-117302519D01*
X163134175Y-117516633D01*
X163156000Y-117739226D01*
X163156000Y-118260774D01*
X163155888Y-118276775D01*
X163130957Y-118499041D01*
X163063329Y-118712231D01*
X162955580Y-118908226D01*
X162811814Y-119079560D01*
X162637507Y-119219706D01*
X162439299Y-119323327D01*
X162224739Y-119386475D01*
X162224705Y-119386478D01*
X162224692Y-119386482D01*
X162002001Y-119406749D01*
X161779614Y-119383375D01*
X161779600Y-119383371D01*
X161779565Y-119383367D01*
X161565907Y-119317229D01*
X161369165Y-119210851D01*
X161196832Y-119068285D01*
X161055472Y-118894961D01*
X160950470Y-118697481D01*
X160885825Y-118483367D01*
X160864000Y-118260774D01*
X160864000Y-117739226D01*
X160864112Y-117723225D01*
X160889043Y-117500959D01*
X160956671Y-117287769D01*
X161064420Y-117091774D01*
X161208186Y-116920440D01*
X161382493Y-116780294D01*
X161580701Y-116676673D01*
X161795261Y-116613525D01*
X161795295Y-116613522D01*
X161795308Y-116613518D01*
X162017999Y-116593251D01*
X162240386Y-116616625D01*
X162240386Y-116616625D01*
G37*
G36*
X159700386Y-116616625D02*
X159700400Y-116616629D01*
X159700435Y-116616633D01*
X159914093Y-116682771D01*
X160110835Y-116789149D01*
X160283168Y-116931715D01*
X160424528Y-117105039D01*
X160529530Y-117302519D01*
X160594175Y-117516633D01*
X160616000Y-117739226D01*
X160616000Y-118260774D01*
X160615888Y-118276775D01*
X160590957Y-118499041D01*
X160523329Y-118712231D01*
X160415580Y-118908226D01*
X160271814Y-119079560D01*
X160097507Y-119219706D01*
X159899299Y-119323327D01*
X159684739Y-119386475D01*
X159684705Y-119386478D01*
X159684692Y-119386482D01*
X159462001Y-119406749D01*
X159239614Y-119383375D01*
X159239600Y-119383371D01*
X159239565Y-119383367D01*
X159025907Y-119317229D01*
X158829165Y-119210851D01*
X158656832Y-119068285D01*
X158515472Y-118894961D01*
X158410470Y-118697481D01*
X158345825Y-118483367D01*
X158324000Y-118260774D01*
X158324000Y-117739226D01*
X158324112Y-117723225D01*
X158349043Y-117500959D01*
X158416671Y-117287769D01*
X158524420Y-117091774D01*
X158668186Y-116920440D01*
X158842493Y-116780294D01*
X159040701Y-116676673D01*
X159255261Y-116613525D01*
X159255295Y-116613522D01*
X159255308Y-116613518D01*
X159477999Y-116593251D01*
X159700386Y-116616625D01*
X159700386Y-116616625D01*
G37*
G36*
X157160386Y-116616625D02*
X157160400Y-116616629D01*
X157160435Y-116616633D01*
X157374093Y-116682771D01*
X157570835Y-116789149D01*
X157743168Y-116931715D01*
X157884528Y-117105039D01*
X157989530Y-117302519D01*
X158054175Y-117516633D01*
X158076000Y-117739226D01*
X158076000Y-118260774D01*
X158075888Y-118276775D01*
X158050957Y-118499041D01*
X157983329Y-118712231D01*
X157875580Y-118908226D01*
X157731814Y-119079560D01*
X157557507Y-119219706D01*
X157359299Y-119323327D01*
X157144739Y-119386475D01*
X157144705Y-119386478D01*
X157144692Y-119386482D01*
X156922001Y-119406749D01*
X156699614Y-119383375D01*
X156699600Y-119383371D01*
X156699565Y-119383367D01*
X156485907Y-119317229D01*
X156289165Y-119210851D01*
X156116832Y-119068285D01*
X155975472Y-118894961D01*
X155870470Y-118697481D01*
X155805825Y-118483367D01*
X155784000Y-118260774D01*
X155784000Y-117739226D01*
X155784112Y-117723225D01*
X155809043Y-117500959D01*
X155876671Y-117287769D01*
X155984420Y-117091774D01*
X156128186Y-116920440D01*
X156302493Y-116780294D01*
X156500701Y-116676673D01*
X156715261Y-116613525D01*
X156715295Y-116613522D01*
X156715308Y-116613518D01*
X156937999Y-116593251D01*
X157160386Y-116616625D01*
X157160386Y-116616625D01*
G37*
G36*
X123300386Y-116616625D02*
X123300400Y-116616629D01*
X123300435Y-116616633D01*
X123514093Y-116682771D01*
X123710835Y-116789149D01*
X123883168Y-116931715D01*
X124024528Y-117105039D01*
X124129530Y-117302519D01*
X124194175Y-117516633D01*
X124216000Y-117739226D01*
X124216000Y-118260774D01*
X124215888Y-118276775D01*
X124190957Y-118499041D01*
X124123329Y-118712231D01*
X124015580Y-118908226D01*
X123871814Y-119079560D01*
X123697507Y-119219706D01*
X123499299Y-119323327D01*
X123284739Y-119386475D01*
X123284705Y-119386478D01*
X123284692Y-119386482D01*
X123062001Y-119406749D01*
X122839614Y-119383375D01*
X122839600Y-119383371D01*
X122839565Y-119383367D01*
X122625907Y-119317229D01*
X122429165Y-119210851D01*
X122256832Y-119068285D01*
X122115472Y-118894961D01*
X122010470Y-118697481D01*
X121945825Y-118483367D01*
X121924000Y-118260774D01*
X121924000Y-117739226D01*
X121924112Y-117723225D01*
X121949043Y-117500959D01*
X122016671Y-117287769D01*
X122124420Y-117091774D01*
X122268186Y-116920440D01*
X122442493Y-116780294D01*
X122640701Y-116676673D01*
X122855261Y-116613525D01*
X122855295Y-116613522D01*
X122855308Y-116613518D01*
X123077999Y-116593251D01*
X123300386Y-116616625D01*
X123300386Y-116616625D01*
G37*
G36*
X118220386Y-116616625D02*
X118220400Y-116616629D01*
X118220435Y-116616633D01*
X118434093Y-116682771D01*
X118630835Y-116789149D01*
X118803168Y-116931715D01*
X118944528Y-117105039D01*
X119049530Y-117302519D01*
X119114175Y-117516633D01*
X119136000Y-117739226D01*
X119136000Y-118260774D01*
X119135888Y-118276775D01*
X119110957Y-118499041D01*
X119043329Y-118712231D01*
X118935580Y-118908226D01*
X118791814Y-119079560D01*
X118617507Y-119219706D01*
X118419299Y-119323327D01*
X118204739Y-119386475D01*
X118204705Y-119386478D01*
X118204692Y-119386482D01*
X117982001Y-119406749D01*
X117759614Y-119383375D01*
X117759600Y-119383371D01*
X117759565Y-119383367D01*
X117545907Y-119317229D01*
X117349165Y-119210851D01*
X117176832Y-119068285D01*
X117035472Y-118894961D01*
X116930470Y-118697481D01*
X116865825Y-118483367D01*
X116844000Y-118260774D01*
X116844000Y-117739226D01*
X116844112Y-117723225D01*
X116869043Y-117500959D01*
X116936671Y-117287769D01*
X117044420Y-117091774D01*
X117188186Y-116920440D01*
X117362493Y-116780294D01*
X117560701Y-116676673D01*
X117775261Y-116613525D01*
X117775295Y-116613522D01*
X117775308Y-116613518D01*
X117997999Y-116593251D01*
X118220386Y-116616625D01*
X118220386Y-116616625D01*
G37*
G36*
X133102933Y-117220651D02*
X133291198Y-117259296D01*
X133468369Y-117333772D01*
X133627697Y-117441239D01*
X133763123Y-117577615D01*
X133869480Y-117737693D01*
X133942713Y-117915374D01*
X133979976Y-118103562D01*
X133979976Y-118103572D01*
X133980042Y-118103906D01*
X133976977Y-118323421D01*
X133976901Y-118323755D01*
X133976901Y-118323766D01*
X133934400Y-118510833D01*
X133856230Y-118686406D01*
X133745448Y-118843451D01*
X133606266Y-118975992D01*
X133444000Y-119078968D01*
X133264817Y-119148470D01*
X133075551Y-119181842D01*
X132883405Y-119177817D01*
X132695695Y-119136546D01*
X132519585Y-119059606D01*
X132361765Y-118949918D01*
X132228261Y-118811670D01*
X132124153Y-118650127D01*
X132053404Y-118471434D01*
X132018709Y-118282398D01*
X132021393Y-118090230D01*
X132061350Y-117902245D01*
X132137063Y-117725596D01*
X132245642Y-117567019D01*
X132382957Y-117432550D01*
X132543772Y-117327315D01*
X132721966Y-117255320D01*
X132910747Y-117219309D01*
X133102933Y-117220651D01*
X133102933Y-117220651D01*
G37*
G36*
X173642933Y-117220651D02*
X173831198Y-117259296D01*
X174008369Y-117333772D01*
X174167697Y-117441239D01*
X174303123Y-117577615D01*
X174409480Y-117737693D01*
X174482713Y-117915374D01*
X174519976Y-118103562D01*
X174519976Y-118103572D01*
X174520042Y-118103906D01*
X174516977Y-118323421D01*
X174516901Y-118323755D01*
X174516901Y-118323766D01*
X174474400Y-118510833D01*
X174396230Y-118686406D01*
X174285448Y-118843451D01*
X174146266Y-118975992D01*
X173984000Y-119078968D01*
X173804817Y-119148470D01*
X173615551Y-119181842D01*
X173423405Y-119177817D01*
X173235695Y-119136546D01*
X173059585Y-119059606D01*
X172901765Y-118949918D01*
X172768261Y-118811670D01*
X172664153Y-118650127D01*
X172593404Y-118471434D01*
X172558709Y-118282398D01*
X172561393Y-118090230D01*
X172601350Y-117902245D01*
X172677063Y-117725596D01*
X172785642Y-117567019D01*
X172922957Y-117432550D01*
X173083772Y-117327315D01*
X173261966Y-117255320D01*
X173450747Y-117219309D01*
X173642933Y-117220651D01*
X173642933Y-117220651D01*
G37*
G36*
X171102933Y-117220651D02*
X171291198Y-117259296D01*
X171468369Y-117333772D01*
X171627697Y-117441239D01*
X171763123Y-117577615D01*
X171869480Y-117737693D01*
X171942713Y-117915374D01*
X171979976Y-118103562D01*
X171979976Y-118103572D01*
X171980042Y-118103906D01*
X171976977Y-118323421D01*
X171976901Y-118323755D01*
X171976901Y-118323766D01*
X171934400Y-118510833D01*
X171856230Y-118686406D01*
X171745448Y-118843451D01*
X171606266Y-118975992D01*
X171444000Y-119078968D01*
X171264817Y-119148470D01*
X171075551Y-119181842D01*
X170883405Y-119177817D01*
X170695695Y-119136546D01*
X170519585Y-119059606D01*
X170361765Y-118949918D01*
X170228261Y-118811670D01*
X170124153Y-118650127D01*
X170053404Y-118471434D01*
X170018709Y-118282398D01*
X170021393Y-118090230D01*
X170061350Y-117902245D01*
X170137063Y-117725596D01*
X170245642Y-117567019D01*
X170382957Y-117432550D01*
X170543772Y-117327315D01*
X170721966Y-117255320D01*
X170910747Y-117219309D01*
X171102933Y-117220651D01*
X171102933Y-117220651D01*
G37*
G36*
X135642933Y-117220651D02*
X135831198Y-117259296D01*
X136008369Y-117333772D01*
X136167697Y-117441239D01*
X136303123Y-117577615D01*
X136409480Y-117737693D01*
X136482713Y-117915374D01*
X136519976Y-118103562D01*
X136519976Y-118103572D01*
X136520042Y-118103906D01*
X136516977Y-118323421D01*
X136516901Y-118323755D01*
X136516901Y-118323766D01*
X136474400Y-118510833D01*
X136396230Y-118686406D01*
X136285448Y-118843451D01*
X136146266Y-118975992D01*
X135984000Y-119078968D01*
X135804817Y-119148470D01*
X135615551Y-119181842D01*
X135423405Y-119177817D01*
X135235695Y-119136546D01*
X135059585Y-119059606D01*
X134901765Y-118949918D01*
X134768261Y-118811670D01*
X134664153Y-118650127D01*
X134593404Y-118471434D01*
X134558709Y-118282398D01*
X134561393Y-118090230D01*
X134601350Y-117902245D01*
X134677063Y-117725596D01*
X134785642Y-117567019D01*
X134922957Y-117432550D01*
X135083772Y-117327315D01*
X135261966Y-117255320D01*
X135450747Y-117219309D01*
X135642933Y-117220651D01*
X135642933Y-117220651D01*
G37*
G36*
X108801411Y-101375080D02*
X110267171Y-101675958D01*
X111646571Y-102255804D01*
X112887078Y-103092536D01*
X113941439Y-104154284D01*
X114769490Y-105400600D01*
X115339692Y-106784014D01*
X115630261Y-108251496D01*
X115630261Y-108251506D01*
X115630327Y-108251840D01*
X115606462Y-109960920D01*
X115606386Y-109961254D01*
X115606386Y-109961266D01*
X115274958Y-111420054D01*
X114666348Y-112787012D01*
X113803822Y-114009722D01*
X112720224Y-115041618D01*
X111456843Y-115843384D01*
X110061786Y-116384492D01*
X108588201Y-116644324D01*
X107092209Y-116612988D01*
X106583615Y-116501166D01*
X106572878Y-116500000D01*
X100000000Y-116500000D01*
X100000000Y-101500000D01*
X106590788Y-101500000D01*
X106600157Y-101499114D01*
X107305124Y-101364634D01*
X108801411Y-101375080D01*
X108801411Y-101375080D01*
G37*
G36*
X171102933Y-113020651D02*
X171291198Y-113059296D01*
X171468369Y-113133772D01*
X171627697Y-113241239D01*
X171763123Y-113377615D01*
X171869480Y-113537693D01*
X171942713Y-113715374D01*
X171979976Y-113903562D01*
X171979976Y-113903572D01*
X171980042Y-113903906D01*
X171976977Y-114123421D01*
X171976901Y-114123755D01*
X171976901Y-114123766D01*
X171934400Y-114310833D01*
X171856230Y-114486406D01*
X171745448Y-114643451D01*
X171606266Y-114775992D01*
X171444000Y-114878968D01*
X171264817Y-114948470D01*
X171075551Y-114981842D01*
X170883405Y-114977817D01*
X170695695Y-114936546D01*
X170519585Y-114859606D01*
X170361765Y-114749918D01*
X170228261Y-114611670D01*
X170124153Y-114450127D01*
X170053404Y-114271434D01*
X170018709Y-114082398D01*
X170021393Y-113890230D01*
X170061350Y-113702245D01*
X170137063Y-113525596D01*
X170245642Y-113367019D01*
X170382957Y-113232550D01*
X170543772Y-113127315D01*
X170721966Y-113055320D01*
X170910747Y-113019309D01*
X171102933Y-113020651D01*
X171102933Y-113020651D01*
G37*
G36*
X133102933Y-113020651D02*
X133291198Y-113059296D01*
X133468369Y-113133772D01*
X133627697Y-113241239D01*
X133763123Y-113377615D01*
X133869480Y-113537693D01*
X133942713Y-113715374D01*
X133979976Y-113903562D01*
X133979976Y-113903572D01*
X133980042Y-113903906D01*
X133976977Y-114123421D01*
X133976901Y-114123755D01*
X133976901Y-114123766D01*
X133934400Y-114310833D01*
X133856230Y-114486406D01*
X133745448Y-114643451D01*
X133606266Y-114775992D01*
X133444000Y-114878968D01*
X133264817Y-114948470D01*
X133075551Y-114981842D01*
X132883405Y-114977817D01*
X132695695Y-114936546D01*
X132519585Y-114859606D01*
X132361765Y-114749918D01*
X132228261Y-114611670D01*
X132124153Y-114450127D01*
X132053404Y-114271434D01*
X132018709Y-114082398D01*
X132021393Y-113890230D01*
X132061350Y-113702245D01*
X132137063Y-113525596D01*
X132245642Y-113367019D01*
X132382957Y-113232550D01*
X132543772Y-113127315D01*
X132721966Y-113055320D01*
X132910747Y-113019309D01*
X133102933Y-113020651D01*
X133102933Y-113020651D01*
G37*
G36*
X135642933Y-113020651D02*
X135831198Y-113059296D01*
X136008369Y-113133772D01*
X136167697Y-113241239D01*
X136303123Y-113377615D01*
X136409480Y-113537693D01*
X136482713Y-113715374D01*
X136519976Y-113903562D01*
X136519976Y-113903572D01*
X136520042Y-113903906D01*
X136516977Y-114123421D01*
X136516901Y-114123755D01*
X136516901Y-114123766D01*
X136474400Y-114310833D01*
X136396230Y-114486406D01*
X136285448Y-114643451D01*
X136146266Y-114775992D01*
X135984000Y-114878968D01*
X135804817Y-114948470D01*
X135615551Y-114981842D01*
X135423405Y-114977817D01*
X135235695Y-114936546D01*
X135059585Y-114859606D01*
X134901765Y-114749918D01*
X134768261Y-114611670D01*
X134664153Y-114450127D01*
X134593404Y-114271434D01*
X134558709Y-114082398D01*
X134561393Y-113890230D01*
X134601350Y-113702245D01*
X134677063Y-113525596D01*
X134785642Y-113367019D01*
X134922957Y-113232550D01*
X135083772Y-113127315D01*
X135261966Y-113055320D01*
X135450747Y-113019309D01*
X135642933Y-113020651D01*
X135642933Y-113020651D01*
G37*
G36*
X173642933Y-113020651D02*
X173831198Y-113059296D01*
X174008369Y-113133772D01*
X174167697Y-113241239D01*
X174303123Y-113377615D01*
X174409480Y-113537693D01*
X174482713Y-113715374D01*
X174519976Y-113903562D01*
X174519976Y-113903572D01*
X174520042Y-113903906D01*
X174516977Y-114123421D01*
X174516901Y-114123755D01*
X174516901Y-114123766D01*
X174474400Y-114310833D01*
X174396230Y-114486406D01*
X174285448Y-114643451D01*
X174146266Y-114775992D01*
X173984000Y-114878968D01*
X173804817Y-114948470D01*
X173615551Y-114981842D01*
X173423405Y-114977817D01*
X173235695Y-114936546D01*
X173059585Y-114859606D01*
X172901765Y-114749918D01*
X172768261Y-114611670D01*
X172664153Y-114450127D01*
X172593404Y-114271434D01*
X172558709Y-114082398D01*
X172561393Y-113890230D01*
X172601350Y-113702245D01*
X172677063Y-113525596D01*
X172785642Y-113367019D01*
X172922957Y-113232550D01*
X173083772Y-113127315D01*
X173261966Y-113055320D01*
X173450747Y-113019309D01*
X173642933Y-113020651D01*
X173642933Y-113020651D01*
G37*
G36*
X165376493Y-110927000D02*
X165376503Y-110927003D01*
X165376541Y-110927007D01*
X165484596Y-110960456D01*
X165584097Y-111014255D01*
X165671253Y-111086357D01*
X165742744Y-111174014D01*
X165795848Y-111273888D01*
X165828542Y-111382175D01*
X165839580Y-111494749D01*
X165839580Y-112105251D01*
X165839524Y-112113343D01*
X165826915Y-112225752D01*
X165792712Y-112333572D01*
X165738219Y-112432695D01*
X165665511Y-112519345D01*
X165577357Y-112590223D01*
X165477114Y-112642628D01*
X165368602Y-112674565D01*
X165368570Y-112674568D01*
X165368556Y-112674572D01*
X165255956Y-112684820D01*
X165143507Y-112673000D01*
X165143497Y-112672997D01*
X165143459Y-112672993D01*
X165035404Y-112639544D01*
X164935903Y-112585745D01*
X164848747Y-112513643D01*
X164777256Y-112425986D01*
X164724152Y-112326112D01*
X164691458Y-112217825D01*
X164680420Y-112105251D01*
X164680420Y-111494749D01*
X164680476Y-111486657D01*
X164693085Y-111374248D01*
X164727288Y-111266428D01*
X164781781Y-111167305D01*
X164854489Y-111080655D01*
X164942643Y-111009777D01*
X165042886Y-110957372D01*
X165151398Y-110925435D01*
X165151430Y-110925432D01*
X165151444Y-110925428D01*
X165264044Y-110915180D01*
X165376493Y-110927000D01*
X165376493Y-110927000D01*
G37*
G36*
X166646493Y-110927000D02*
X166646503Y-110927003D01*
X166646541Y-110927007D01*
X166754596Y-110960456D01*
X166854097Y-111014255D01*
X166941253Y-111086357D01*
X167012744Y-111174014D01*
X167065848Y-111273888D01*
X167098542Y-111382175D01*
X167109580Y-111494749D01*
X167109580Y-112105251D01*
X167109524Y-112113343D01*
X167096915Y-112225752D01*
X167062712Y-112333572D01*
X167008219Y-112432695D01*
X166935511Y-112519345D01*
X166847357Y-112590223D01*
X166747114Y-112642628D01*
X166638602Y-112674565D01*
X166638570Y-112674568D01*
X166638556Y-112674572D01*
X166525956Y-112684820D01*
X166413507Y-112673000D01*
X166413497Y-112672997D01*
X166413459Y-112672993D01*
X166305404Y-112639544D01*
X166205903Y-112585745D01*
X166118747Y-112513643D01*
X166047256Y-112425986D01*
X165994152Y-112326112D01*
X165961458Y-112217825D01*
X165950420Y-112105251D01*
X165950420Y-111494749D01*
X165950476Y-111486657D01*
X165963085Y-111374248D01*
X165997288Y-111266428D01*
X166051781Y-111167305D01*
X166124489Y-111080655D01*
X166212643Y-111009777D01*
X166312886Y-110957372D01*
X166421398Y-110925435D01*
X166421430Y-110925432D01*
X166421444Y-110925428D01*
X166534044Y-110915180D01*
X166646493Y-110927000D01*
X166646493Y-110927000D01*
G37*
G36*
X167916493Y-110927000D02*
X167916503Y-110927003D01*
X167916541Y-110927007D01*
X168024596Y-110960456D01*
X168124097Y-111014255D01*
X168211253Y-111086357D01*
X168282744Y-111174014D01*
X168335848Y-111273888D01*
X168368542Y-111382175D01*
X168379580Y-111494749D01*
X168379580Y-112105251D01*
X168379524Y-112113343D01*
X168366915Y-112225752D01*
X168332712Y-112333572D01*
X168278219Y-112432695D01*
X168205511Y-112519345D01*
X168117357Y-112590223D01*
X168017114Y-112642628D01*
X167908602Y-112674565D01*
X167908570Y-112674568D01*
X167908556Y-112674572D01*
X167795956Y-112684820D01*
X167683507Y-112673000D01*
X167683497Y-112672997D01*
X167683459Y-112672993D01*
X167575404Y-112639544D01*
X167475903Y-112585745D01*
X167388747Y-112513643D01*
X167317256Y-112425986D01*
X167264152Y-112326112D01*
X167231458Y-112217825D01*
X167220420Y-112105251D01*
X167220420Y-111494749D01*
X167220476Y-111486657D01*
X167233085Y-111374248D01*
X167267288Y-111266428D01*
X167321781Y-111167305D01*
X167394489Y-111080655D01*
X167482643Y-111009777D01*
X167582886Y-110957372D01*
X167691398Y-110925435D01*
X167691430Y-110925432D01*
X167691444Y-110925428D01*
X167804044Y-110915180D01*
X167916493Y-110927000D01*
X167916493Y-110927000D01*
G37*
G36*
X173379741Y-109051878D02*
X173379754Y-109051882D01*
X173379791Y-109051886D01*
X173565035Y-109109229D01*
X173735614Y-109201460D01*
X173885029Y-109325067D01*
X174007591Y-109475342D01*
X174098629Y-109646560D01*
X174154677Y-109832201D01*
X174173600Y-110025192D01*
X174173600Y-110034808D01*
X174173503Y-110048681D01*
X174151887Y-110241389D01*
X174093253Y-110426229D01*
X173999833Y-110596159D01*
X173875185Y-110744708D01*
X173724059Y-110866217D01*
X173552209Y-110956058D01*
X173366182Y-111010809D01*
X173366148Y-111010812D01*
X173366135Y-111010816D01*
X173173065Y-111028387D01*
X172980259Y-111008122D01*
X172980246Y-111008118D01*
X172980209Y-111008114D01*
X172794965Y-110950771D01*
X172624386Y-110858540D01*
X172474971Y-110734933D01*
X172352409Y-110584658D01*
X172261371Y-110413440D01*
X172205323Y-110227799D01*
X172186400Y-110034808D01*
X172186400Y-110025192D01*
X172186497Y-110011319D01*
X172208113Y-109818611D01*
X172266747Y-109633771D01*
X172360167Y-109463841D01*
X172484815Y-109315292D01*
X172635941Y-109193783D01*
X172807791Y-109103942D01*
X172993818Y-109049191D01*
X172993852Y-109049188D01*
X172993865Y-109049184D01*
X173186935Y-109031613D01*
X173379741Y-109051878D01*
X173379741Y-109051878D01*
G37*
G36*
X175919741Y-109051878D02*
X175919754Y-109051882D01*
X175919791Y-109051886D01*
X176105035Y-109109229D01*
X176275614Y-109201460D01*
X176425029Y-109325067D01*
X176547591Y-109475342D01*
X176638629Y-109646560D01*
X176694677Y-109832201D01*
X176713600Y-110025192D01*
X176713600Y-110034808D01*
X176713503Y-110048681D01*
X176691887Y-110241389D01*
X176633253Y-110426229D01*
X176539833Y-110596159D01*
X176415185Y-110744708D01*
X176264059Y-110866217D01*
X176092209Y-110956058D01*
X175906182Y-111010809D01*
X175906148Y-111010812D01*
X175906135Y-111010816D01*
X175713065Y-111028387D01*
X175520259Y-111008122D01*
X175520246Y-111008118D01*
X175520209Y-111008114D01*
X175334965Y-110950771D01*
X175164386Y-110858540D01*
X175014971Y-110734933D01*
X174892409Y-110584658D01*
X174801371Y-110413440D01*
X174745323Y-110227799D01*
X174726400Y-110034808D01*
X174726400Y-110025192D01*
X174726497Y-110011319D01*
X174748113Y-109818611D01*
X174806747Y-109633771D01*
X174900167Y-109463841D01*
X175024815Y-109315292D01*
X175175941Y-109193783D01*
X175347791Y-109103942D01*
X175533818Y-109049191D01*
X175533852Y-109049188D01*
X175533865Y-109049184D01*
X175726935Y-109031613D01*
X175919741Y-109051878D01*
X175919741Y-109051878D01*
G37*
G36*
X133108185Y-107370684D02*
X133306055Y-107411301D01*
X133492263Y-107489575D01*
X133659727Y-107602531D01*
X133802056Y-107745857D01*
X133913841Y-107914106D01*
X133990811Y-108100852D01*
X134029979Y-108298660D01*
X134029979Y-108298674D01*
X134030044Y-108299003D01*
X134026823Y-108529718D01*
X134026747Y-108530052D01*
X134026747Y-108530064D01*
X133982075Y-108726691D01*
X133899916Y-108911223D01*
X133783481Y-109076280D01*
X133637198Y-109215583D01*
X133466653Y-109323813D01*
X133278328Y-109396861D01*
X133079405Y-109431936D01*
X132877456Y-109427706D01*
X132680168Y-109384329D01*
X132495072Y-109303463D01*
X132329205Y-109188182D01*
X132188886Y-109042878D01*
X132079467Y-108873093D01*
X132005108Y-108685283D01*
X131968643Y-108486602D01*
X131971464Y-108284630D01*
X132013460Y-108087053D01*
X132093035Y-107901391D01*
X132207155Y-107734724D01*
X132351475Y-107593394D01*
X132520495Y-107482791D01*
X132707781Y-107407123D01*
X132906193Y-107369273D01*
X133108185Y-107370684D01*
X133108185Y-107370684D01*
G37*
G36*
X158134443Y-106720851D02*
X158380340Y-106771327D01*
X158611744Y-106868600D01*
X158819851Y-107008969D01*
X158996731Y-107187089D01*
X159135645Y-107396171D01*
X159231298Y-107628245D01*
X159279989Y-107874146D01*
X159279989Y-107874156D01*
X159280055Y-107874490D01*
X159276051Y-108161203D01*
X159275975Y-108161537D01*
X159275975Y-108161548D01*
X159220440Y-108405985D01*
X159118340Y-108635305D01*
X158973645Y-108840425D01*
X158791858Y-109013538D01*
X158579918Y-109148039D01*
X158345883Y-109238816D01*
X158098678Y-109282404D01*
X157847712Y-109277148D01*
X157602540Y-109223243D01*
X157372517Y-109122749D01*
X157166392Y-108979487D01*
X156992016Y-108798916D01*
X156856038Y-108587920D01*
X156763630Y-108354525D01*
X156718315Y-108107623D01*
X156721821Y-107856628D01*
X156774010Y-107611095D01*
X156872899Y-107380371D01*
X157014717Y-107173250D01*
X157194067Y-106997617D01*
X157404111Y-106860169D01*
X157636854Y-106766134D01*
X157883425Y-106719098D01*
X158134443Y-106720851D01*
X158134443Y-106720851D01*
G37*
G36*
X121280000Y-109280000D02*
X118720000Y-109280000D01*
X118720000Y-106720000D01*
X121280000Y-106720000D01*
X121280000Y-109280000D01*
X121280000Y-109280000D01*
G37*
G36*
X173379741Y-106511878D02*
X173379754Y-106511882D01*
X173379791Y-106511886D01*
X173565035Y-106569229D01*
X173735614Y-106661460D01*
X173885029Y-106785067D01*
X174007591Y-106935342D01*
X174098629Y-107106560D01*
X174154677Y-107292201D01*
X174173600Y-107485192D01*
X174173600Y-107494808D01*
X174173503Y-107508681D01*
X174151887Y-107701389D01*
X174093253Y-107886229D01*
X173999833Y-108056159D01*
X173875185Y-108204708D01*
X173724059Y-108326217D01*
X173552209Y-108416058D01*
X173366182Y-108470809D01*
X173366148Y-108470812D01*
X173366135Y-108470816D01*
X173173065Y-108488387D01*
X172980259Y-108468122D01*
X172980246Y-108468118D01*
X172980209Y-108468114D01*
X172794965Y-108410771D01*
X172624386Y-108318540D01*
X172474971Y-108194933D01*
X172352409Y-108044658D01*
X172261371Y-107873440D01*
X172205323Y-107687799D01*
X172186400Y-107494808D01*
X172186400Y-107485192D01*
X172186497Y-107471319D01*
X172208113Y-107278611D01*
X172266747Y-107093771D01*
X172360167Y-106923841D01*
X172484815Y-106775292D01*
X172635941Y-106653783D01*
X172807791Y-106563942D01*
X172993818Y-106509191D01*
X172993852Y-106509188D01*
X172993865Y-106509184D01*
X173186935Y-106491613D01*
X173379741Y-106511878D01*
X173379741Y-106511878D01*
G37*
G36*
X175919741Y-106511878D02*
X175919754Y-106511882D01*
X175919791Y-106511886D01*
X176105035Y-106569229D01*
X176275614Y-106661460D01*
X176425029Y-106785067D01*
X176547591Y-106935342D01*
X176638629Y-107106560D01*
X176694677Y-107292201D01*
X176713600Y-107485192D01*
X176713600Y-107494808D01*
X176713503Y-107508681D01*
X176691887Y-107701389D01*
X176633253Y-107886229D01*
X176539833Y-108056159D01*
X176415185Y-108204708D01*
X176264059Y-108326217D01*
X176092209Y-108416058D01*
X175906182Y-108470809D01*
X175906148Y-108470812D01*
X175906135Y-108470816D01*
X175713065Y-108488387D01*
X175520259Y-108468122D01*
X175520246Y-108468118D01*
X175520209Y-108468114D01*
X175334965Y-108410771D01*
X175164386Y-108318540D01*
X175014971Y-108194933D01*
X174892409Y-108044658D01*
X174801371Y-107873440D01*
X174745323Y-107687799D01*
X174726400Y-107494808D01*
X174726400Y-107485192D01*
X174726497Y-107471319D01*
X174748113Y-107278611D01*
X174806747Y-107093771D01*
X174900167Y-106923841D01*
X175024815Y-106775292D01*
X175175941Y-106653783D01*
X175347791Y-106563942D01*
X175533818Y-106509191D01*
X175533852Y-106509188D01*
X175533865Y-106509184D01*
X175726935Y-106491613D01*
X175919741Y-106511878D01*
X175919741Y-106511878D01*
G37*
G36*
X166130000Y-108405000D02*
X165070000Y-108405000D01*
X165070000Y-107395000D01*
X166130000Y-107395000D01*
X166130000Y-108405000D01*
X166130000Y-108405000D01*
G37*
G36*
X167630000Y-108405000D02*
X166570000Y-108405000D01*
X166570000Y-107395000D01*
X167630000Y-107395000D01*
X167630000Y-108405000D01*
X167630000Y-108405000D01*
G37*
G36*
X165930000Y-106780000D02*
X165170000Y-106780000D01*
X165170000Y-105620000D01*
X165930000Y-105620000D01*
X165930000Y-106780000D01*
X165930000Y-106780000D01*
G37*
G36*
X167430000Y-106780000D02*
X166670000Y-106780000D01*
X166670000Y-105620000D01*
X167430000Y-105620000D01*
X167430000Y-106780000D01*
X167430000Y-106780000D01*
G37*
G36*
X173379741Y-103971878D02*
X173379754Y-103971882D01*
X173379791Y-103971886D01*
X173565035Y-104029229D01*
X173735614Y-104121460D01*
X173885029Y-104245067D01*
X174007591Y-104395342D01*
X174098629Y-104566560D01*
X174154677Y-104752201D01*
X174173600Y-104945192D01*
X174173600Y-104954808D01*
X174173503Y-104968681D01*
X174151887Y-105161389D01*
X174093253Y-105346229D01*
X173999833Y-105516159D01*
X173875185Y-105664708D01*
X173724059Y-105786217D01*
X173552209Y-105876058D01*
X173366182Y-105930809D01*
X173366148Y-105930812D01*
X173366135Y-105930816D01*
X173173065Y-105948387D01*
X172980259Y-105928122D01*
X172980246Y-105928118D01*
X172980209Y-105928114D01*
X172794965Y-105870771D01*
X172624386Y-105778540D01*
X172474971Y-105654933D01*
X172352409Y-105504658D01*
X172261371Y-105333440D01*
X172205323Y-105147799D01*
X172186400Y-104954808D01*
X172186400Y-104945192D01*
X172186497Y-104931319D01*
X172208113Y-104738611D01*
X172266747Y-104553771D01*
X172360167Y-104383841D01*
X172484815Y-104235292D01*
X172635941Y-104113783D01*
X172807791Y-104023942D01*
X172993818Y-103969191D01*
X172993852Y-103969188D01*
X172993865Y-103969184D01*
X173186935Y-103951613D01*
X173379741Y-103971878D01*
X173379741Y-103971878D01*
G37*
G36*
X175919741Y-103971878D02*
X175919754Y-103971882D01*
X175919791Y-103971886D01*
X176105035Y-104029229D01*
X176275614Y-104121460D01*
X176425029Y-104245067D01*
X176547591Y-104395342D01*
X176638629Y-104566560D01*
X176694677Y-104752201D01*
X176713600Y-104945192D01*
X176713600Y-104954808D01*
X176713503Y-104968681D01*
X176691887Y-105161389D01*
X176633253Y-105346229D01*
X176539833Y-105516159D01*
X176415185Y-105664708D01*
X176264059Y-105786217D01*
X176092209Y-105876058D01*
X175906182Y-105930809D01*
X175906148Y-105930812D01*
X175906135Y-105930816D01*
X175713065Y-105948387D01*
X175520259Y-105928122D01*
X175520246Y-105928118D01*
X175520209Y-105928114D01*
X175334965Y-105870771D01*
X175164386Y-105778540D01*
X175014971Y-105654933D01*
X174892409Y-105504658D01*
X174801371Y-105333440D01*
X174745323Y-105147799D01*
X174726400Y-104954808D01*
X174726400Y-104945192D01*
X174726497Y-104931319D01*
X174748113Y-104738611D01*
X174806747Y-104553771D01*
X174900167Y-104383841D01*
X175024815Y-104235292D01*
X175175941Y-104113783D01*
X175347791Y-104023942D01*
X175533818Y-103969191D01*
X175533852Y-103969188D01*
X175533865Y-103969184D01*
X175726935Y-103951613D01*
X175919741Y-103971878D01*
X175919741Y-103971878D01*
G37*
G36*
X173379741Y-101431878D02*
X173379754Y-101431882D01*
X173379791Y-101431886D01*
X173565035Y-101489229D01*
X173735614Y-101581460D01*
X173885029Y-101705067D01*
X174007591Y-101855342D01*
X174098629Y-102026560D01*
X174154677Y-102212201D01*
X174173600Y-102405192D01*
X174173600Y-102414808D01*
X174173503Y-102428681D01*
X174151887Y-102621389D01*
X174093253Y-102806229D01*
X173999833Y-102976159D01*
X173875185Y-103124708D01*
X173724059Y-103246217D01*
X173552209Y-103336058D01*
X173366182Y-103390809D01*
X173366148Y-103390812D01*
X173366135Y-103390816D01*
X173173065Y-103408387D01*
X172980259Y-103388122D01*
X172980246Y-103388118D01*
X172980209Y-103388114D01*
X172794965Y-103330771D01*
X172624386Y-103238540D01*
X172474971Y-103114933D01*
X172352409Y-102964658D01*
X172261371Y-102793440D01*
X172205323Y-102607799D01*
X172186400Y-102414808D01*
X172186400Y-102405192D01*
X172186497Y-102391319D01*
X172208113Y-102198611D01*
X172266747Y-102013771D01*
X172360167Y-101843841D01*
X172484815Y-101695292D01*
X172635941Y-101573783D01*
X172807791Y-101483942D01*
X172993818Y-101429191D01*
X172993852Y-101429188D01*
X172993865Y-101429184D01*
X173186935Y-101411613D01*
X173379741Y-101431878D01*
X173379741Y-101431878D01*
G37*
G36*
X175919741Y-101431878D02*
X175919754Y-101431882D01*
X175919791Y-101431886D01*
X176105035Y-101489229D01*
X176275614Y-101581460D01*
X176425029Y-101705067D01*
X176547591Y-101855342D01*
X176638629Y-102026560D01*
X176694677Y-102212201D01*
X176713600Y-102405192D01*
X176713600Y-102414808D01*
X176713503Y-102428681D01*
X176691887Y-102621389D01*
X176633253Y-102806229D01*
X176539833Y-102976159D01*
X176415185Y-103124708D01*
X176264059Y-103246217D01*
X176092209Y-103336058D01*
X175906182Y-103390809D01*
X175906148Y-103390812D01*
X175906135Y-103390816D01*
X175713065Y-103408387D01*
X175520259Y-103388122D01*
X175520246Y-103388118D01*
X175520209Y-103388114D01*
X175334965Y-103330771D01*
X175164386Y-103238540D01*
X175014971Y-103114933D01*
X174892409Y-102964658D01*
X174801371Y-102793440D01*
X174745323Y-102607799D01*
X174726400Y-102414808D01*
X174726400Y-102405192D01*
X174726497Y-102391319D01*
X174748113Y-102198611D01*
X174806747Y-102013771D01*
X174900167Y-101843841D01*
X175024815Y-101695292D01*
X175175941Y-101573783D01*
X175347791Y-101483942D01*
X175533818Y-101429191D01*
X175533852Y-101429188D01*
X175533865Y-101429184D01*
X175726935Y-101411613D01*
X175919741Y-101431878D01*
X175919741Y-101431878D01*
G37*
G36*
X133108185Y-99870684D02*
X133306055Y-99911301D01*
X133492263Y-99989575D01*
X133659727Y-100102531D01*
X133802056Y-100245857D01*
X133913841Y-100414106D01*
X133990811Y-100600852D01*
X134029979Y-100798660D01*
X134029979Y-100798674D01*
X134030044Y-100799003D01*
X134026823Y-101029718D01*
X134026747Y-101030052D01*
X134026747Y-101030064D01*
X133982075Y-101226691D01*
X133899916Y-101411223D01*
X133783481Y-101576280D01*
X133637198Y-101715583D01*
X133466653Y-101823813D01*
X133278328Y-101896861D01*
X133079405Y-101931936D01*
X132877456Y-101927706D01*
X132680168Y-101884329D01*
X132495072Y-101803463D01*
X132329205Y-101688182D01*
X132188886Y-101542878D01*
X132079467Y-101373093D01*
X132005108Y-101185283D01*
X131968643Y-100986602D01*
X131971464Y-100784630D01*
X132013460Y-100587053D01*
X132093035Y-100401391D01*
X132207155Y-100234724D01*
X132351475Y-100093394D01*
X132520495Y-99982791D01*
X132707781Y-99907123D01*
X132906193Y-99869273D01*
X133108185Y-99870684D01*
X133108185Y-99870684D01*
G37*
G36*
X173379741Y-98891878D02*
X173379754Y-98891882D01*
X173379791Y-98891886D01*
X173565035Y-98949229D01*
X173735614Y-99041460D01*
X173885029Y-99165067D01*
X174007591Y-99315342D01*
X174098629Y-99486560D01*
X174154677Y-99672201D01*
X174173600Y-99865192D01*
X174173600Y-99874808D01*
X174173503Y-99888681D01*
X174151887Y-100081389D01*
X174093253Y-100266229D01*
X173999833Y-100436159D01*
X173875185Y-100584708D01*
X173724059Y-100706217D01*
X173552209Y-100796058D01*
X173366182Y-100850809D01*
X173366148Y-100850812D01*
X173366135Y-100850816D01*
X173173065Y-100868387D01*
X172980259Y-100848122D01*
X172980246Y-100848118D01*
X172980209Y-100848114D01*
X172794965Y-100790771D01*
X172624386Y-100698540D01*
X172474971Y-100574933D01*
X172352409Y-100424658D01*
X172261371Y-100253440D01*
X172205323Y-100067799D01*
X172186400Y-99874808D01*
X172186400Y-99865192D01*
X172186497Y-99851319D01*
X172208113Y-99658611D01*
X172266747Y-99473771D01*
X172360167Y-99303841D01*
X172484815Y-99155292D01*
X172635941Y-99033783D01*
X172807791Y-98943942D01*
X172993818Y-98889191D01*
X172993852Y-98889188D01*
X172993865Y-98889184D01*
X173186935Y-98871613D01*
X173379741Y-98891878D01*
X173379741Y-98891878D01*
G37*
G36*
X175919741Y-98891878D02*
X175919754Y-98891882D01*
X175919791Y-98891886D01*
X176105035Y-98949229D01*
X176275614Y-99041460D01*
X176425029Y-99165067D01*
X176547591Y-99315342D01*
X176638629Y-99486560D01*
X176694677Y-99672201D01*
X176713600Y-99865192D01*
X176713600Y-99874808D01*
X176713503Y-99888681D01*
X176691887Y-100081389D01*
X176633253Y-100266229D01*
X176539833Y-100436159D01*
X176415185Y-100584708D01*
X176264059Y-100706217D01*
X176092209Y-100796058D01*
X175906182Y-100850809D01*
X175906148Y-100850812D01*
X175906135Y-100850816D01*
X175713065Y-100868387D01*
X175520259Y-100848122D01*
X175520246Y-100848118D01*
X175520209Y-100848114D01*
X175334965Y-100790771D01*
X175164386Y-100698540D01*
X175014971Y-100574933D01*
X174892409Y-100424658D01*
X174801371Y-100253440D01*
X174745323Y-100067799D01*
X174726400Y-99874808D01*
X174726400Y-99865192D01*
X174726497Y-99851319D01*
X174748113Y-99658611D01*
X174806747Y-99473771D01*
X174900167Y-99303841D01*
X175024815Y-99155292D01*
X175175941Y-99033783D01*
X175347791Y-98943942D01*
X175533818Y-98889191D01*
X175533852Y-98889188D01*
X175533865Y-98889184D01*
X175726935Y-98871613D01*
X175919741Y-98891878D01*
X175919741Y-98891878D01*
G37*
G36*
X108801411Y-83375080D02*
X110267171Y-83675958D01*
X111646571Y-84255804D01*
X112887078Y-85092536D01*
X113941439Y-86154284D01*
X114769490Y-87400600D01*
X115339692Y-88784014D01*
X115630261Y-90251496D01*
X115630261Y-90251506D01*
X115630327Y-90251840D01*
X115606462Y-91960920D01*
X115606386Y-91961254D01*
X115606386Y-91961266D01*
X115274958Y-93420054D01*
X114666348Y-94787012D01*
X113803822Y-96009722D01*
X112720224Y-97041618D01*
X111456843Y-97843384D01*
X110061786Y-98384492D01*
X108588201Y-98644324D01*
X107092209Y-98612988D01*
X106583615Y-98501166D01*
X106572878Y-98500000D01*
X100000000Y-98500000D01*
X100000000Y-83500000D01*
X106590788Y-83500000D01*
X106600157Y-83499114D01*
X107305124Y-83364634D01*
X108801411Y-83375080D01*
X108801411Y-83375080D01*
G37*
G36*
X175919741Y-96351878D02*
X175919754Y-96351882D01*
X175919791Y-96351886D01*
X176105035Y-96409229D01*
X176275614Y-96501460D01*
X176425029Y-96625067D01*
X176547591Y-96775342D01*
X176638629Y-96946560D01*
X176694677Y-97132201D01*
X176713600Y-97325192D01*
X176713600Y-97334808D01*
X176713503Y-97348681D01*
X176691887Y-97541389D01*
X176633253Y-97726229D01*
X176539833Y-97896159D01*
X176415185Y-98044708D01*
X176264059Y-98166217D01*
X176092209Y-98256058D01*
X175906182Y-98310809D01*
X175906148Y-98310812D01*
X175906135Y-98310816D01*
X175713065Y-98328387D01*
X175520259Y-98308122D01*
X175520246Y-98308118D01*
X175520209Y-98308114D01*
X175334965Y-98250771D01*
X175164386Y-98158540D01*
X175014971Y-98034933D01*
X174892409Y-97884658D01*
X174801371Y-97713440D01*
X174745323Y-97527799D01*
X174726400Y-97334808D01*
X174726400Y-97325192D01*
X174726410Y-97323813D01*
X174726483Y-97313342D01*
X174726497Y-97311319D01*
X174748113Y-97118611D01*
X174806747Y-96933771D01*
X174900167Y-96763841D01*
X175024815Y-96615292D01*
X175175941Y-96493783D01*
X175347791Y-96403942D01*
X175533818Y-96349191D01*
X175533852Y-96349188D01*
X175533865Y-96349184D01*
X175726935Y-96331613D01*
X175919741Y-96351878D01*
X175919741Y-96351878D01*
G37*
G36*
X173379741Y-96351878D02*
X173379754Y-96351882D01*
X173379791Y-96351886D01*
X173565035Y-96409229D01*
X173735614Y-96501460D01*
X173885029Y-96625067D01*
X174007591Y-96775342D01*
X174098629Y-96946560D01*
X174154677Y-97132201D01*
X174173600Y-97325192D01*
X174173600Y-97334808D01*
X174173503Y-97348681D01*
X174151887Y-97541389D01*
X174093253Y-97726229D01*
X173999833Y-97896159D01*
X173875185Y-98044708D01*
X173724059Y-98166217D01*
X173552209Y-98256058D01*
X173366182Y-98310809D01*
X173366148Y-98310812D01*
X173366135Y-98310816D01*
X173173065Y-98328387D01*
X172980259Y-98308122D01*
X172980246Y-98308118D01*
X172980209Y-98308114D01*
X172794965Y-98250771D01*
X172624386Y-98158540D01*
X172474971Y-98034933D01*
X172352409Y-97884658D01*
X172261371Y-97713440D01*
X172205323Y-97527799D01*
X172186400Y-97334808D01*
X172186400Y-97325192D01*
X172186410Y-97323813D01*
X172186483Y-97313342D01*
X172186497Y-97311319D01*
X172208113Y-97118611D01*
X172266747Y-96933771D01*
X172360167Y-96763841D01*
X172484815Y-96615292D01*
X172635941Y-96493783D01*
X172807791Y-96403942D01*
X172993818Y-96349191D01*
X172993852Y-96349188D01*
X172993865Y-96349184D01*
X173186935Y-96331613D01*
X173379741Y-96351878D01*
X173379741Y-96351878D01*
G37*
G36*
X145108185Y-95370684D02*
X145306055Y-95411301D01*
X145492263Y-95489575D01*
X145659727Y-95602531D01*
X145802056Y-95745857D01*
X145913841Y-95914106D01*
X145990811Y-96100852D01*
X146029979Y-96298660D01*
X146029979Y-96298674D01*
X146030044Y-96299003D01*
X146026823Y-96529718D01*
X146026747Y-96530052D01*
X146026747Y-96530064D01*
X145982075Y-96726691D01*
X145899916Y-96911223D01*
X145783481Y-97076280D01*
X145637198Y-97215583D01*
X145466653Y-97323813D01*
X145278328Y-97396861D01*
X145079405Y-97431936D01*
X144877456Y-97427706D01*
X144680168Y-97384329D01*
X144495072Y-97303463D01*
X144329205Y-97188182D01*
X144188886Y-97042878D01*
X144079467Y-96873093D01*
X144005108Y-96685283D01*
X143968643Y-96486602D01*
X143971464Y-96284630D01*
X144013460Y-96087053D01*
X144093035Y-95901391D01*
X144207155Y-95734724D01*
X144351475Y-95593394D01*
X144520495Y-95482791D01*
X144707781Y-95407123D01*
X144906193Y-95369273D01*
X145108185Y-95370684D01*
X145108185Y-95370684D01*
G37*
G36*
X173379741Y-93811878D02*
X173379754Y-93811882D01*
X173379791Y-93811886D01*
X173565035Y-93869229D01*
X173735614Y-93961460D01*
X173885029Y-94085067D01*
X174007591Y-94235342D01*
X174098629Y-94406560D01*
X174154677Y-94592201D01*
X174173600Y-94785192D01*
X174173600Y-94794808D01*
X174173503Y-94808681D01*
X174151887Y-95001389D01*
X174093253Y-95186229D01*
X173999833Y-95356159D01*
X173875185Y-95504708D01*
X173724059Y-95626217D01*
X173552209Y-95716058D01*
X173366182Y-95770809D01*
X173366148Y-95770812D01*
X173366135Y-95770816D01*
X173173065Y-95788387D01*
X172980259Y-95768122D01*
X172980246Y-95768118D01*
X172980209Y-95768114D01*
X172794965Y-95710771D01*
X172624386Y-95618540D01*
X172474971Y-95494933D01*
X172352409Y-95344658D01*
X172261371Y-95173440D01*
X172205323Y-94987799D01*
X172186400Y-94794808D01*
X172186400Y-94785192D01*
X172186497Y-94771319D01*
X172208113Y-94578611D01*
X172266747Y-94393771D01*
X172360167Y-94223841D01*
X172484815Y-94075292D01*
X172635941Y-93953783D01*
X172807791Y-93863942D01*
X172993818Y-93809191D01*
X172993852Y-93809188D01*
X172993865Y-93809184D01*
X173186935Y-93791613D01*
X173379741Y-93811878D01*
X173379741Y-93811878D01*
G37*
G36*
X175919741Y-93811878D02*
X175919754Y-93811882D01*
X175919791Y-93811886D01*
X176105035Y-93869229D01*
X176275614Y-93961460D01*
X176425029Y-94085067D01*
X176547591Y-94235342D01*
X176638629Y-94406560D01*
X176694677Y-94592201D01*
X176713600Y-94785192D01*
X176713600Y-94794808D01*
X176713503Y-94808681D01*
X176691887Y-95001389D01*
X176633253Y-95186229D01*
X176539833Y-95356159D01*
X176415185Y-95504708D01*
X176264059Y-95626217D01*
X176092209Y-95716058D01*
X175906182Y-95770809D01*
X175906148Y-95770812D01*
X175906135Y-95770816D01*
X175713065Y-95788387D01*
X175520259Y-95768122D01*
X175520246Y-95768118D01*
X175520209Y-95768114D01*
X175334965Y-95710771D01*
X175164386Y-95618540D01*
X175014971Y-95494933D01*
X174892409Y-95344658D01*
X174801371Y-95173440D01*
X174745323Y-94987799D01*
X174726400Y-94794808D01*
X174726400Y-94785192D01*
X174726497Y-94771319D01*
X174748113Y-94578611D01*
X174806747Y-94393771D01*
X174900167Y-94223841D01*
X175024815Y-94075292D01*
X175175941Y-93953783D01*
X175347791Y-93863942D01*
X175533818Y-93809191D01*
X175533852Y-93809188D01*
X175533865Y-93809184D01*
X175726935Y-93791613D01*
X175919741Y-93811878D01*
X175919741Y-93811878D01*
G37*
G36*
X120134443Y-91720851D02*
X120380340Y-91771327D01*
X120611744Y-91868600D01*
X120819851Y-92008969D01*
X120996731Y-92187089D01*
X121135645Y-92396171D01*
X121231298Y-92628245D01*
X121279989Y-92874146D01*
X121279989Y-92874156D01*
X121280055Y-92874490D01*
X121276051Y-93161203D01*
X121275975Y-93161537D01*
X121275975Y-93161548D01*
X121220440Y-93405985D01*
X121118340Y-93635305D01*
X120973645Y-93840425D01*
X120791858Y-94013538D01*
X120579918Y-94148039D01*
X120345883Y-94238816D01*
X120098678Y-94282404D01*
X119847712Y-94277148D01*
X119602540Y-94223243D01*
X119372517Y-94122749D01*
X119166392Y-93979487D01*
X118992016Y-93798916D01*
X118856038Y-93587920D01*
X118763630Y-93354525D01*
X118718315Y-93107623D01*
X118721821Y-92856628D01*
X118774010Y-92611095D01*
X118872899Y-92380371D01*
X119014717Y-92173250D01*
X119194067Y-91997617D01*
X119404111Y-91860169D01*
X119636854Y-91766134D01*
X119883425Y-91719098D01*
X120134443Y-91720851D01*
X120134443Y-91720851D01*
G37*
G36*
X167730000Y-94280000D02*
X166970000Y-94280000D01*
X166970000Y-93120000D01*
X167730000Y-93120000D01*
X167730000Y-94280000D01*
X167730000Y-94280000D01*
G37*
G36*
X166230000Y-94280000D02*
X165470000Y-94280000D01*
X165470000Y-93120000D01*
X166230000Y-93120000D01*
X166230000Y-94280000D01*
X166230000Y-94280000D01*
G37*
G36*
X159280000Y-94280000D02*
X156720000Y-94280000D01*
X156720000Y-91720000D01*
X159280000Y-91720000D01*
X159280000Y-94280000D01*
X159280000Y-94280000D01*
G37*
G36*
X175919741Y-91271878D02*
X175919754Y-91271882D01*
X175919791Y-91271886D01*
X176105035Y-91329229D01*
X176275614Y-91421460D01*
X176425029Y-91545067D01*
X176547591Y-91695342D01*
X176638629Y-91866560D01*
X176694677Y-92052201D01*
X176713600Y-92245192D01*
X176713600Y-92254808D01*
X176713503Y-92268681D01*
X176691887Y-92461389D01*
X176633253Y-92646229D01*
X176539833Y-92816159D01*
X176415185Y-92964708D01*
X176264059Y-93086217D01*
X176092209Y-93176058D01*
X175906182Y-93230809D01*
X175906148Y-93230812D01*
X175906135Y-93230816D01*
X175713065Y-93248387D01*
X175520259Y-93228122D01*
X175520246Y-93228118D01*
X175520209Y-93228114D01*
X175334965Y-93170771D01*
X175164386Y-93078540D01*
X175014971Y-92954933D01*
X174892409Y-92804658D01*
X174801371Y-92633440D01*
X174745323Y-92447799D01*
X174726400Y-92254808D01*
X174726400Y-92245192D01*
X174726497Y-92231319D01*
X174748113Y-92038611D01*
X174806747Y-91853771D01*
X174900167Y-91683841D01*
X175024815Y-91535292D01*
X175175941Y-91413783D01*
X175347791Y-91323942D01*
X175533818Y-91269191D01*
X175533852Y-91269188D01*
X175533865Y-91269184D01*
X175726935Y-91251613D01*
X175919741Y-91271878D01*
X175919741Y-91271878D01*
G37*
G36*
X174173600Y-93243600D02*
X172186400Y-93243600D01*
X172186400Y-91256400D01*
X174173600Y-91256400D01*
X174173600Y-93243600D01*
X174173600Y-93243600D01*
G37*
G36*
X167980000Y-92505000D02*
X166920000Y-92505000D01*
X166920000Y-91495000D01*
X167980000Y-91495000D01*
X167980000Y-92505000D01*
X167980000Y-92505000D01*
G37*
G36*
X166480000Y-92505000D02*
X165420000Y-92505000D01*
X165420000Y-91495000D01*
X166480000Y-91495000D01*
X166480000Y-92505000D01*
X166480000Y-92505000D01*
G37*
G36*
X145108185Y-87870684D02*
X145306055Y-87911301D01*
X145492263Y-87989575D01*
X145659727Y-88102531D01*
X145802056Y-88245857D01*
X145913841Y-88414106D01*
X145990811Y-88600852D01*
X146029979Y-88798660D01*
X146029979Y-88798674D01*
X146030044Y-88799003D01*
X146026823Y-89029718D01*
X146026747Y-89030052D01*
X146026747Y-89030064D01*
X145982075Y-89226691D01*
X145899916Y-89411223D01*
X145783481Y-89576280D01*
X145637198Y-89715583D01*
X145466653Y-89823813D01*
X145278328Y-89896861D01*
X145079405Y-89931936D01*
X144877456Y-89927706D01*
X144680168Y-89884329D01*
X144495072Y-89803463D01*
X144329205Y-89688182D01*
X144188886Y-89542878D01*
X144079467Y-89373093D01*
X144005108Y-89185283D01*
X143968643Y-88986602D01*
X143971464Y-88784630D01*
X144013460Y-88587053D01*
X144093035Y-88401391D01*
X144207155Y-88234724D01*
X144351475Y-88093394D01*
X144520495Y-87982791D01*
X144707781Y-87907123D01*
X144906193Y-87869273D01*
X145108185Y-87870684D01*
X145108185Y-87870684D01*
G37*
G36*
X168116493Y-87327000D02*
X168116503Y-87327003D01*
X168116541Y-87327007D01*
X168224596Y-87360456D01*
X168324097Y-87414255D01*
X168411253Y-87486357D01*
X168482744Y-87574014D01*
X168535848Y-87673888D01*
X168568542Y-87782175D01*
X168579580Y-87894749D01*
X168579580Y-88505251D01*
X168579524Y-88513343D01*
X168566915Y-88625752D01*
X168532712Y-88733572D01*
X168478219Y-88832695D01*
X168405511Y-88919345D01*
X168317357Y-88990223D01*
X168217114Y-89042628D01*
X168108602Y-89074565D01*
X168108570Y-89074568D01*
X168108556Y-89074572D01*
X167995956Y-89084820D01*
X167883507Y-89073000D01*
X167883497Y-89072997D01*
X167883459Y-89072993D01*
X167775404Y-89039544D01*
X167675903Y-88985745D01*
X167588747Y-88913643D01*
X167517256Y-88825986D01*
X167464152Y-88726112D01*
X167431458Y-88617825D01*
X167420420Y-88505251D01*
X167420420Y-87894749D01*
X167420476Y-87886657D01*
X167433085Y-87774248D01*
X167467288Y-87666428D01*
X167521781Y-87567305D01*
X167594489Y-87480655D01*
X167682643Y-87409777D01*
X167782886Y-87357372D01*
X167891398Y-87325435D01*
X167891430Y-87325432D01*
X167891444Y-87325428D01*
X168004044Y-87315180D01*
X168116493Y-87327000D01*
X168116493Y-87327000D01*
G37*
G36*
X166846493Y-87327000D02*
X166846503Y-87327003D01*
X166846541Y-87327007D01*
X166954596Y-87360456D01*
X167054097Y-87414255D01*
X167141253Y-87486357D01*
X167212744Y-87574014D01*
X167265848Y-87673888D01*
X167298542Y-87782175D01*
X167309580Y-87894749D01*
X167309580Y-88505251D01*
X167309524Y-88513343D01*
X167296915Y-88625752D01*
X167262712Y-88733572D01*
X167208219Y-88832695D01*
X167135511Y-88919345D01*
X167047357Y-88990223D01*
X166947114Y-89042628D01*
X166838602Y-89074565D01*
X166838570Y-89074568D01*
X166838556Y-89074572D01*
X166725956Y-89084820D01*
X166613507Y-89073000D01*
X166613497Y-89072997D01*
X166613459Y-89072993D01*
X166505404Y-89039544D01*
X166405903Y-88985745D01*
X166318747Y-88913643D01*
X166247256Y-88825986D01*
X166194152Y-88726112D01*
X166161458Y-88617825D01*
X166150420Y-88505251D01*
X166150420Y-87894749D01*
X166150476Y-87886657D01*
X166163085Y-87774248D01*
X166197288Y-87666428D01*
X166251781Y-87567305D01*
X166324489Y-87480655D01*
X166412643Y-87409777D01*
X166512886Y-87357372D01*
X166621398Y-87325435D01*
X166621430Y-87325432D01*
X166621444Y-87325428D01*
X166734044Y-87315180D01*
X166846493Y-87327000D01*
X166846493Y-87327000D01*
G37*
G36*
X165576493Y-87327000D02*
X165576503Y-87327003D01*
X165576541Y-87327007D01*
X165684596Y-87360456D01*
X165784097Y-87414255D01*
X165871253Y-87486357D01*
X165942744Y-87574014D01*
X165995848Y-87673888D01*
X166028542Y-87782175D01*
X166039580Y-87894749D01*
X166039580Y-88505251D01*
X166039524Y-88513343D01*
X166026915Y-88625752D01*
X165992712Y-88733572D01*
X165938219Y-88832695D01*
X165865511Y-88919345D01*
X165777357Y-88990223D01*
X165677114Y-89042628D01*
X165568602Y-89074565D01*
X165568570Y-89074568D01*
X165568556Y-89074572D01*
X165455956Y-89084820D01*
X165343507Y-89073000D01*
X165343497Y-89072997D01*
X165343459Y-89072993D01*
X165235404Y-89039544D01*
X165135903Y-88985745D01*
X165048747Y-88913643D01*
X164977256Y-88825986D01*
X164924152Y-88726112D01*
X164891458Y-88617825D01*
X164880420Y-88505251D01*
X164880420Y-87894749D01*
X164880476Y-87886657D01*
X164893085Y-87774248D01*
X164927288Y-87666428D01*
X164981781Y-87567305D01*
X165054489Y-87480655D01*
X165142643Y-87409777D01*
X165242886Y-87357372D01*
X165351398Y-87325435D01*
X165351430Y-87325432D01*
X165351444Y-87325428D01*
X165464044Y-87315180D01*
X165576493Y-87327000D01*
X165576493Y-87327000D01*
G37*
G36*
X170812933Y-85020651D02*
X171001198Y-85059296D01*
X171178369Y-85133772D01*
X171337697Y-85241239D01*
X171473123Y-85377615D01*
X171579480Y-85537693D01*
X171652713Y-85715374D01*
X171689976Y-85903562D01*
X171689976Y-85903572D01*
X171690042Y-85903906D01*
X171686977Y-86123421D01*
X171686901Y-86123755D01*
X171686901Y-86123766D01*
X171644400Y-86310833D01*
X171566230Y-86486406D01*
X171455448Y-86643451D01*
X171316266Y-86775992D01*
X171154000Y-86878968D01*
X170974817Y-86948470D01*
X170785551Y-86981842D01*
X170593405Y-86977817D01*
X170405695Y-86936546D01*
X170229585Y-86859606D01*
X170071765Y-86749918D01*
X169938261Y-86611670D01*
X169834153Y-86450127D01*
X169763404Y-86271434D01*
X169728709Y-86082398D01*
X169731393Y-85890230D01*
X169771350Y-85702245D01*
X169847063Y-85525596D01*
X169955642Y-85367019D01*
X170092957Y-85232550D01*
X170253772Y-85127315D01*
X170431966Y-85055320D01*
X170620747Y-85019309D01*
X170812933Y-85020651D01*
X170812933Y-85020651D01*
G37*
G36*
X173352933Y-85020651D02*
X173541198Y-85059296D01*
X173718369Y-85133772D01*
X173877697Y-85241239D01*
X174013123Y-85377615D01*
X174119480Y-85537693D01*
X174192713Y-85715374D01*
X174229976Y-85903562D01*
X174229976Y-85903572D01*
X174230042Y-85903906D01*
X174226977Y-86123421D01*
X174226901Y-86123755D01*
X174226901Y-86123766D01*
X174184400Y-86310833D01*
X174106230Y-86486406D01*
X173995448Y-86643451D01*
X173856266Y-86775992D01*
X173694000Y-86878968D01*
X173514817Y-86948470D01*
X173325551Y-86981842D01*
X173133405Y-86977817D01*
X172945695Y-86936546D01*
X172769585Y-86859606D01*
X172611765Y-86749918D01*
X172478261Y-86611670D01*
X172374153Y-86450127D01*
X172303404Y-86271434D01*
X172268709Y-86082398D01*
X172271393Y-85890230D01*
X172311350Y-85702245D01*
X172387063Y-85525596D01*
X172495642Y-85367019D01*
X172632957Y-85232550D01*
X172793772Y-85127315D01*
X172971966Y-85055320D01*
X173160747Y-85019309D01*
X173352933Y-85020651D01*
X173352933Y-85020651D01*
G37*
G36*
X136102933Y-84520651D02*
X136291198Y-84559296D01*
X136468369Y-84633772D01*
X136627697Y-84741239D01*
X136763123Y-84877615D01*
X136869480Y-85037693D01*
X136942713Y-85215374D01*
X136979976Y-85403562D01*
X136979976Y-85403572D01*
X136980042Y-85403906D01*
X136976977Y-85623421D01*
X136976901Y-85623755D01*
X136976901Y-85623766D01*
X136934400Y-85810833D01*
X136856230Y-85986406D01*
X136745448Y-86143451D01*
X136606266Y-86275992D01*
X136444000Y-86378968D01*
X136264817Y-86448470D01*
X136075551Y-86481842D01*
X135883405Y-86477817D01*
X135695695Y-86436546D01*
X135519585Y-86359606D01*
X135361765Y-86249918D01*
X135228261Y-86111670D01*
X135124153Y-85950127D01*
X135053404Y-85771434D01*
X135018709Y-85582398D01*
X135021393Y-85390230D01*
X135061350Y-85202245D01*
X135137063Y-85025596D01*
X135245642Y-84867019D01*
X135382957Y-84732550D01*
X135543772Y-84627315D01*
X135721966Y-84555320D01*
X135910747Y-84519309D01*
X136102933Y-84520651D01*
X136102933Y-84520651D01*
G37*
G36*
X133562933Y-84520651D02*
X133751198Y-84559296D01*
X133928369Y-84633772D01*
X134087697Y-84741239D01*
X134223123Y-84877615D01*
X134329480Y-85037693D01*
X134402713Y-85215374D01*
X134439976Y-85403562D01*
X134439976Y-85403572D01*
X134440042Y-85403906D01*
X134436977Y-85623421D01*
X134436901Y-85623755D01*
X134436901Y-85623766D01*
X134394400Y-85810833D01*
X134316230Y-85986406D01*
X134205448Y-86143451D01*
X134066266Y-86275992D01*
X133904000Y-86378968D01*
X133724817Y-86448470D01*
X133535551Y-86481842D01*
X133343405Y-86477817D01*
X133155695Y-86436546D01*
X132979585Y-86359606D01*
X132821765Y-86249918D01*
X132688261Y-86111670D01*
X132584153Y-85950127D01*
X132513404Y-85771434D01*
X132478709Y-85582398D01*
X132481393Y-85390230D01*
X132521350Y-85202245D01*
X132597063Y-85025596D01*
X132705642Y-84867019D01*
X132842957Y-84732550D01*
X133003772Y-84627315D01*
X133181966Y-84555320D01*
X133370747Y-84519309D01*
X133562933Y-84520651D01*
X133562933Y-84520651D01*
G37*
G36*
X162240386Y-81616625D02*
X162240400Y-81616629D01*
X162240435Y-81616633D01*
X162454093Y-81682771D01*
X162650835Y-81789149D01*
X162823168Y-81931715D01*
X162964528Y-82105039D01*
X163069530Y-82302519D01*
X163134175Y-82516633D01*
X163156000Y-82739226D01*
X163156000Y-83260774D01*
X163155888Y-83276775D01*
X163130957Y-83499041D01*
X163063329Y-83712231D01*
X162955580Y-83908226D01*
X162811814Y-84079560D01*
X162637507Y-84219706D01*
X162439299Y-84323327D01*
X162224739Y-84386475D01*
X162224705Y-84386478D01*
X162224692Y-84386482D01*
X162002001Y-84406749D01*
X161779614Y-84383375D01*
X161779600Y-84383371D01*
X161779565Y-84383367D01*
X161565907Y-84317229D01*
X161369165Y-84210851D01*
X161196832Y-84068285D01*
X161055472Y-83894961D01*
X160950470Y-83697481D01*
X160885825Y-83483367D01*
X160864000Y-83260774D01*
X160864000Y-82739226D01*
X160864112Y-82723225D01*
X160889043Y-82500959D01*
X160956671Y-82287769D01*
X161064420Y-82091774D01*
X161208186Y-81920440D01*
X161382493Y-81780294D01*
X161580701Y-81676673D01*
X161795261Y-81613525D01*
X161795295Y-81613522D01*
X161795308Y-81613518D01*
X162017999Y-81593251D01*
X162240386Y-81616625D01*
X162240386Y-81616625D01*
G37*
G36*
X118220386Y-81616625D02*
X118220400Y-81616629D01*
X118220435Y-81616633D01*
X118434093Y-81682771D01*
X118630835Y-81789149D01*
X118803168Y-81931715D01*
X118944528Y-82105039D01*
X119049530Y-82302519D01*
X119114175Y-82516633D01*
X119136000Y-82739226D01*
X119136000Y-83260774D01*
X119135888Y-83276775D01*
X119110957Y-83499041D01*
X119043329Y-83712231D01*
X118935580Y-83908226D01*
X118791814Y-84079560D01*
X118617507Y-84219706D01*
X118419299Y-84323327D01*
X118204739Y-84386475D01*
X118204705Y-84386478D01*
X118204692Y-84386482D01*
X117982001Y-84406749D01*
X117759614Y-84383375D01*
X117759600Y-84383371D01*
X117759565Y-84383367D01*
X117545907Y-84317229D01*
X117349165Y-84210851D01*
X117176832Y-84068285D01*
X117035472Y-83894961D01*
X116930470Y-83697481D01*
X116865825Y-83483367D01*
X116844000Y-83260774D01*
X116844000Y-82739226D01*
X116844112Y-82723225D01*
X116869043Y-82500959D01*
X116936671Y-82287769D01*
X117044420Y-82091774D01*
X117188186Y-81920440D01*
X117362493Y-81780294D01*
X117560701Y-81676673D01*
X117775261Y-81613525D01*
X117775295Y-81613522D01*
X117775308Y-81613518D01*
X117997999Y-81593251D01*
X118220386Y-81616625D01*
X118220386Y-81616625D01*
G37*
G36*
X159700386Y-81616625D02*
X159700400Y-81616629D01*
X159700435Y-81616633D01*
X159914093Y-81682771D01*
X160110835Y-81789149D01*
X160283168Y-81931715D01*
X160424528Y-82105039D01*
X160529530Y-82302519D01*
X160594175Y-82516633D01*
X160616000Y-82739226D01*
X160616000Y-83260774D01*
X160615888Y-83276775D01*
X160590957Y-83499041D01*
X160523329Y-83712231D01*
X160415580Y-83908226D01*
X160271814Y-84079560D01*
X160097507Y-84219706D01*
X159899299Y-84323327D01*
X159684739Y-84386475D01*
X159684705Y-84386478D01*
X159684692Y-84386482D01*
X159462001Y-84406749D01*
X159239614Y-84383375D01*
X159239600Y-84383371D01*
X159239565Y-84383367D01*
X159025907Y-84317229D01*
X158829165Y-84210851D01*
X158656832Y-84068285D01*
X158515472Y-83894961D01*
X158410470Y-83697481D01*
X158345825Y-83483367D01*
X158324000Y-83260774D01*
X158324000Y-82739226D01*
X158324112Y-82723225D01*
X158349043Y-82500959D01*
X158416671Y-82287769D01*
X158524420Y-82091774D01*
X158668186Y-81920440D01*
X158842493Y-81780294D01*
X159040701Y-81676673D01*
X159255261Y-81613525D01*
X159255295Y-81613522D01*
X159255308Y-81613518D01*
X159477999Y-81593251D01*
X159700386Y-81616625D01*
X159700386Y-81616625D01*
G37*
G36*
X123300386Y-81616625D02*
X123300400Y-81616629D01*
X123300435Y-81616633D01*
X123514093Y-81682771D01*
X123710835Y-81789149D01*
X123883168Y-81931715D01*
X124024528Y-82105039D01*
X124129530Y-82302519D01*
X124194175Y-82516633D01*
X124216000Y-82739226D01*
X124216000Y-83260774D01*
X124215888Y-83276775D01*
X124190957Y-83499041D01*
X124123329Y-83712231D01*
X124015580Y-83908226D01*
X123871814Y-84079560D01*
X123697507Y-84219706D01*
X123499299Y-84323327D01*
X123284739Y-84386475D01*
X123284705Y-84386478D01*
X123284692Y-84386482D01*
X123062001Y-84406749D01*
X122839614Y-84383375D01*
X122839600Y-84383371D01*
X122839565Y-84383367D01*
X122625907Y-84317229D01*
X122429165Y-84210851D01*
X122256832Y-84068285D01*
X122115472Y-83894961D01*
X122010470Y-83697481D01*
X121945825Y-83483367D01*
X121924000Y-83260774D01*
X121924000Y-82739226D01*
X121924112Y-82723225D01*
X121949043Y-82500959D01*
X122016671Y-82287769D01*
X122124420Y-82091774D01*
X122268186Y-81920440D01*
X122442493Y-81780294D01*
X122640701Y-81676673D01*
X122855261Y-81613525D01*
X122855295Y-81613522D01*
X122855308Y-81613518D01*
X123077999Y-81593251D01*
X123300386Y-81616625D01*
X123300386Y-81616625D01*
G37*
G36*
X120760386Y-81616625D02*
X120760400Y-81616629D01*
X120760435Y-81616633D01*
X120974093Y-81682771D01*
X121170835Y-81789149D01*
X121343168Y-81931715D01*
X121484528Y-82105039D01*
X121589530Y-82302519D01*
X121654175Y-82516633D01*
X121676000Y-82739226D01*
X121676000Y-83260774D01*
X121675888Y-83276775D01*
X121650957Y-83499041D01*
X121583329Y-83712231D01*
X121475580Y-83908226D01*
X121331814Y-84079560D01*
X121157507Y-84219706D01*
X120959299Y-84323327D01*
X120744739Y-84386475D01*
X120744705Y-84386478D01*
X120744692Y-84386482D01*
X120522001Y-84406749D01*
X120299614Y-84383375D01*
X120299600Y-84383371D01*
X120299565Y-84383367D01*
X120085907Y-84317229D01*
X119889165Y-84210851D01*
X119716832Y-84068285D01*
X119575472Y-83894961D01*
X119470470Y-83697481D01*
X119405825Y-83483367D01*
X119384000Y-83260774D01*
X119384000Y-82739226D01*
X119384112Y-82723225D01*
X119409043Y-82500959D01*
X119476671Y-82287769D01*
X119584420Y-82091774D01*
X119728186Y-81920440D01*
X119902493Y-81780294D01*
X120100701Y-81676673D01*
X120315261Y-81613525D01*
X120315295Y-81613522D01*
X120315308Y-81613518D01*
X120537999Y-81593251D01*
X120760386Y-81616625D01*
X120760386Y-81616625D01*
G37*
G36*
X157160386Y-81616625D02*
X157160400Y-81616629D01*
X157160435Y-81616633D01*
X157374093Y-81682771D01*
X157570835Y-81789149D01*
X157743168Y-81931715D01*
X157884528Y-82105039D01*
X157989530Y-82302519D01*
X158054175Y-82516633D01*
X158076000Y-82739226D01*
X158076000Y-83260774D01*
X158075888Y-83276775D01*
X158050957Y-83499041D01*
X157983329Y-83712231D01*
X157875580Y-83908226D01*
X157731814Y-84079560D01*
X157557507Y-84219706D01*
X157359299Y-84323327D01*
X157144739Y-84386475D01*
X157144705Y-84386478D01*
X157144692Y-84386482D01*
X156922001Y-84406749D01*
X156699614Y-84383375D01*
X156699600Y-84383371D01*
X156699565Y-84383367D01*
X156485907Y-84317229D01*
X156289165Y-84210851D01*
X156116832Y-84068285D01*
X155975472Y-83894961D01*
X155870470Y-83697481D01*
X155805825Y-83483367D01*
X155784000Y-83260774D01*
X155784000Y-82739226D01*
X155784112Y-82723225D01*
X155809043Y-82500959D01*
X155876671Y-82287769D01*
X155984420Y-82091774D01*
X156128186Y-81920440D01*
X156302493Y-81780294D01*
X156500701Y-81676673D01*
X156715261Y-81613525D01*
X156715295Y-81613522D01*
X156715308Y-81613518D01*
X156937999Y-81593251D01*
X157160386Y-81616625D01*
X157160386Y-81616625D01*
G37*
G36*
X170812933Y-80820651D02*
X171001198Y-80859296D01*
X171178369Y-80933772D01*
X171337697Y-81041239D01*
X171473123Y-81177615D01*
X171579480Y-81337693D01*
X171652713Y-81515374D01*
X171689976Y-81703562D01*
X171689976Y-81703572D01*
X171690042Y-81703906D01*
X171686977Y-81923421D01*
X171686901Y-81923755D01*
X171686901Y-81923766D01*
X171644400Y-82110833D01*
X171566230Y-82286406D01*
X171455448Y-82443451D01*
X171316266Y-82575992D01*
X171154000Y-82678968D01*
X170974817Y-82748470D01*
X170785551Y-82781842D01*
X170593405Y-82777817D01*
X170405695Y-82736546D01*
X170229585Y-82659606D01*
X170071765Y-82549918D01*
X169938261Y-82411670D01*
X169834153Y-82250127D01*
X169763404Y-82071434D01*
X169728709Y-81882398D01*
X169731393Y-81690230D01*
X169771350Y-81502245D01*
X169847063Y-81325596D01*
X169955642Y-81167019D01*
X170092957Y-81032550D01*
X170253772Y-80927315D01*
X170431966Y-80855320D01*
X170620747Y-80819309D01*
X170812933Y-80820651D01*
X170812933Y-80820651D01*
G37*
G36*
X173352933Y-80820651D02*
X173541198Y-80859296D01*
X173718369Y-80933772D01*
X173877697Y-81041239D01*
X174013123Y-81177615D01*
X174119480Y-81337693D01*
X174192713Y-81515374D01*
X174229976Y-81703562D01*
X174229976Y-81703572D01*
X174230042Y-81703906D01*
X174226977Y-81923421D01*
X174226901Y-81923755D01*
X174226901Y-81923766D01*
X174184400Y-82110833D01*
X174106230Y-82286406D01*
X173995448Y-82443451D01*
X173856266Y-82575992D01*
X173694000Y-82678968D01*
X173514817Y-82748470D01*
X173325551Y-82781842D01*
X173133405Y-82777817D01*
X172945695Y-82736546D01*
X172769585Y-82659606D01*
X172611765Y-82549918D01*
X172478261Y-82411670D01*
X172374153Y-82250127D01*
X172303404Y-82071434D01*
X172268709Y-81882398D01*
X172271393Y-81690230D01*
X172311350Y-81502245D01*
X172387063Y-81325596D01*
X172495642Y-81167019D01*
X172632957Y-81032550D01*
X172793772Y-80927315D01*
X172971966Y-80855320D01*
X173160747Y-80819309D01*
X173352933Y-80820651D01*
X173352933Y-80820651D01*
G37*
G36*
X133562933Y-80320651D02*
X133751198Y-80359296D01*
X133928369Y-80433772D01*
X134087697Y-80541239D01*
X134223123Y-80677615D01*
X134329480Y-80837693D01*
X134402713Y-81015374D01*
X134439976Y-81203562D01*
X134439976Y-81203572D01*
X134440042Y-81203906D01*
X134436977Y-81423421D01*
X134436901Y-81423755D01*
X134436901Y-81423766D01*
X134394400Y-81610833D01*
X134316230Y-81786406D01*
X134205448Y-81943451D01*
X134066266Y-82075992D01*
X133904000Y-82178968D01*
X133724817Y-82248470D01*
X133535551Y-82281842D01*
X133343405Y-82277817D01*
X133155695Y-82236546D01*
X132979585Y-82159606D01*
X132821765Y-82049918D01*
X132688261Y-81911670D01*
X132584153Y-81750127D01*
X132513404Y-81571434D01*
X132478709Y-81382398D01*
X132481393Y-81190230D01*
X132521350Y-81002245D01*
X132597063Y-80825596D01*
X132705642Y-80667019D01*
X132842957Y-80532550D01*
X133003772Y-80427315D01*
X133181966Y-80355320D01*
X133370747Y-80319309D01*
X133562933Y-80320651D01*
X133562933Y-80320651D01*
G37*
G36*
X136102933Y-80320651D02*
X136291198Y-80359296D01*
X136468369Y-80433772D01*
X136627697Y-80541239D01*
X136763123Y-80677615D01*
X136869480Y-80837693D01*
X136942713Y-81015374D01*
X136979976Y-81203562D01*
X136979976Y-81203572D01*
X136980042Y-81203906D01*
X136976977Y-81423421D01*
X136976901Y-81423755D01*
X136976901Y-81423766D01*
X136934400Y-81610833D01*
X136856230Y-81786406D01*
X136745448Y-81943451D01*
X136606266Y-82075992D01*
X136444000Y-82178968D01*
X136264817Y-82248470D01*
X136075551Y-82281842D01*
X135883405Y-82277817D01*
X135695695Y-82236546D01*
X135519585Y-82159606D01*
X135361765Y-82049918D01*
X135228261Y-81911670D01*
X135124153Y-81750127D01*
X135053404Y-81571434D01*
X135018709Y-81382398D01*
X135021393Y-81190230D01*
X135061350Y-81002245D01*
X135137063Y-80825596D01*
X135245642Y-80667019D01*
X135382957Y-80532550D01*
X135543772Y-80427315D01*
X135721966Y-80355320D01*
X135910747Y-80319309D01*
X136102933Y-80320651D01*
X136102933Y-80320651D01*
G37*
G36*
X168780000Y-81505000D02*
X167720000Y-81505000D01*
X167720000Y-80495000D01*
X168780000Y-80495000D01*
X168780000Y-81505000D01*
X168780000Y-81505000D01*
G37*
G36*
X167280000Y-81505000D02*
X166220000Y-81505000D01*
X166220000Y-80495000D01*
X167280000Y-80495000D01*
X167280000Y-81505000D01*
X167280000Y-81505000D01*
G37*
G36*
X162130000Y-81480000D02*
X160970000Y-81480000D01*
X160970000Y-79520000D01*
X162130000Y-79520000D01*
X162130000Y-81480000D01*
X162130000Y-81480000D01*
G37*
G36*
X165030000Y-81480000D02*
X163870000Y-81480000D01*
X163870000Y-79520000D01*
X165030000Y-79520000D01*
X165030000Y-81480000D01*
X165030000Y-81480000D01*
G37*
G36*
X132280000Y-81105000D02*
X131220000Y-81105000D01*
X131220000Y-80095000D01*
X132280000Y-80095000D01*
X132280000Y-81105000D01*
X132280000Y-81105000D01*
G37*
G36*
X130780000Y-81105000D02*
X129720000Y-81105000D01*
X129720000Y-80095000D01*
X130780000Y-80095000D01*
X130780000Y-81105000D01*
X130780000Y-81105000D01*
G37*
G36*
X129280000Y-81080000D02*
X128120000Y-81080000D01*
X128120000Y-79120000D01*
X129280000Y-79120000D01*
X129280000Y-81080000D01*
X129280000Y-81080000D01*
G37*
G36*
X126380000Y-81080000D02*
X125220000Y-81080000D01*
X125220000Y-79120000D01*
X126380000Y-79120000D01*
X126380000Y-81080000D01*
X126380000Y-81080000D01*
G37*
G36*
X173296515Y-80070699D02*
X172236515Y-80070699D01*
X172236515Y-79060699D01*
X173296515Y-79060699D01*
X173296515Y-80070699D01*
X173296515Y-80070699D01*
G37*
G36*
X171796515Y-80070699D02*
X170736515Y-80070699D01*
X170736515Y-79060699D01*
X171796515Y-79060699D01*
X171796515Y-80070699D01*
X171796515Y-80070699D01*
G37*
G36*
X168780000Y-80005000D02*
X167720000Y-80005000D01*
X167720000Y-78995000D01*
X168780000Y-78995000D01*
X168780000Y-80005000D01*
X168780000Y-80005000D01*
G37*
G36*
X167280000Y-80005000D02*
X166220000Y-80005000D01*
X166220000Y-78995000D01*
X167280000Y-78995000D01*
X167280000Y-80005000D01*
X167280000Y-80005000D01*
G37*
G36*
X136800552Y-79636338D02*
X135740552Y-79636338D01*
X135740552Y-78626338D01*
X136800552Y-78626338D01*
X136800552Y-79636338D01*
X136800552Y-79636338D01*
G37*
G36*
X135300552Y-79636338D02*
X134240552Y-79636338D01*
X134240552Y-78626338D01*
X135300552Y-78626338D01*
X135300552Y-79636338D01*
X135300552Y-79636338D01*
G37*
G36*
X132280000Y-79505000D02*
X131220000Y-79505000D01*
X131220000Y-78495000D01*
X132280000Y-78495000D01*
X132280000Y-79505000D01*
X132280000Y-79505000D01*
G37*
G36*
X130780000Y-79505000D02*
X129720000Y-79505000D01*
X129720000Y-78495000D01*
X130780000Y-78495000D01*
X130780000Y-79505000D01*
X130780000Y-79505000D01*
G37*
G36*
X163780000Y-79005000D02*
X162720000Y-79005000D01*
X162720000Y-77995000D01*
X163780000Y-77995000D01*
X163780000Y-79005000D01*
X163780000Y-79005000D01*
G37*
G36*
X162280000Y-79005000D02*
X161220000Y-79005000D01*
X161220000Y-77995000D01*
X162280000Y-77995000D01*
X162280000Y-79005000D01*
X162280000Y-79005000D01*
G37*
G36*
X154940000Y-78720000D02*
X152980000Y-78720000D01*
X152980000Y-76780000D01*
X154940000Y-76780000D01*
X154940000Y-78720000D01*
X154940000Y-78720000D01*
G37*
G36*
X158520000Y-78720000D02*
X156560000Y-78720000D01*
X156560000Y-76780000D01*
X158520000Y-76780000D01*
X158520000Y-78720000D01*
X158520000Y-78720000D01*
G37*
G36*
X127780000Y-78605000D02*
X126720000Y-78605000D01*
X126720000Y-77595000D01*
X127780000Y-77595000D01*
X127780000Y-78605000D01*
X127780000Y-78605000D01*
G37*
G36*
X126280000Y-78605000D02*
X125220000Y-78605000D01*
X125220000Y-77595000D01*
X126280000Y-77595000D01*
X126280000Y-78605000D01*
X126280000Y-78605000D01*
G37*
G36*
X173296515Y-78320699D02*
X172236515Y-78320699D01*
X172236515Y-77310699D01*
X173296515Y-77310699D01*
X173296515Y-78320699D01*
X173296515Y-78320699D01*
G37*
G36*
X171796515Y-78320699D02*
X170736515Y-78320699D01*
X170736515Y-77310699D01*
X171796515Y-77310699D01*
X171796515Y-78320699D01*
X171796515Y-78320699D01*
G37*
G36*
X122480000Y-78170000D02*
X120520000Y-78170000D01*
X120520000Y-76230000D01*
X122480000Y-76230000D01*
X122480000Y-78170000D01*
X122480000Y-78170000D01*
G37*
G36*
X118900000Y-78170000D02*
X116940000Y-78170000D01*
X116940000Y-76230000D01*
X118900000Y-76230000D01*
X118900000Y-78170000D01*
X118900000Y-78170000D01*
G37*
G36*
X135250552Y-77936338D02*
X134190552Y-77936338D01*
X134190552Y-76926338D01*
X135250552Y-76926338D01*
X135250552Y-77936338D01*
X135250552Y-77936338D01*
G37*
G36*
X136750552Y-77936338D02*
X135690552Y-77936338D01*
X135690552Y-76926338D01*
X136750552Y-76926338D01*
X136750552Y-77936338D01*
X136750552Y-77936338D01*
G37*
G36*
X129980870Y-77180010D02*
X128219730Y-77180010D01*
X128219730Y-74219990D01*
X129980870Y-74219990D01*
X129980870Y-77180010D01*
X129980870Y-77180010D01*
G37*
G36*
X125180270Y-77180010D02*
X123419130Y-77180010D01*
X123419130Y-74219990D01*
X125180270Y-74219990D01*
X125180270Y-77180010D01*
X125180270Y-77180010D01*
G37*
G36*
X166030870Y-76980010D02*
X164269730Y-76980010D01*
X164269730Y-74019990D01*
X166030870Y-74019990D01*
X166030870Y-76980010D01*
X166030870Y-76980010D01*
G37*
G36*
X161230270Y-76980010D02*
X159469130Y-76980010D01*
X159469130Y-74019990D01*
X161230270Y-74019990D01*
X161230270Y-76980010D01*
X161230270Y-76980010D01*
G37*
G36*
X171775000Y-76855000D02*
X170915000Y-76855000D01*
X170915000Y-75045000D01*
X171775000Y-75045000D01*
X171775000Y-76855000D01*
X171775000Y-76855000D01*
G37*
G36*
X174315000Y-76855000D02*
X173455000Y-76855000D01*
X173455000Y-75045000D01*
X174315000Y-75045000D01*
X174315000Y-76855000D01*
X174315000Y-76855000D01*
G37*
G36*
X173045000Y-76855000D02*
X172185000Y-76855000D01*
X172185000Y-75045000D01*
X173045000Y-75045000D01*
X173045000Y-76855000D01*
X173045000Y-76855000D01*
G37*
G36*
X175585000Y-76855000D02*
X174725000Y-76855000D01*
X174725000Y-75045000D01*
X175585000Y-75045000D01*
X175585000Y-76855000D01*
X175585000Y-76855000D01*
G37*
G36*
X138935000Y-76405000D02*
X138075000Y-76405000D01*
X138075000Y-74595000D01*
X138935000Y-74595000D01*
X138935000Y-76405000D01*
X138935000Y-76405000D01*
G37*
G36*
X137665000Y-76405000D02*
X136805000Y-76405000D01*
X136805000Y-74595000D01*
X137665000Y-74595000D01*
X137665000Y-76405000D01*
X137665000Y-76405000D01*
G37*
G36*
X136395000Y-76405000D02*
X135535000Y-76405000D01*
X135535000Y-74595000D01*
X136395000Y-74595000D01*
X136395000Y-76405000D01*
X136395000Y-76405000D01*
G37*
G36*
X135125000Y-76405000D02*
X134265000Y-76405000D01*
X134265000Y-74595000D01*
X135125000Y-74595000D01*
X135125000Y-76405000D01*
X135125000Y-76405000D01*
G37*
G36*
X108801411Y-60375080D02*
X110267171Y-60675958D01*
X111646571Y-61255804D01*
X112887078Y-62092536D01*
X113941439Y-63154284D01*
X114769490Y-64400600D01*
X115339692Y-65784014D01*
X115630261Y-67251496D01*
X115630261Y-67251506D01*
X115630327Y-67251840D01*
X115606462Y-68960920D01*
X115606386Y-68961254D01*
X115606386Y-68961266D01*
X115274958Y-70420054D01*
X114666348Y-71787012D01*
X113803822Y-73009722D01*
X112720224Y-74041618D01*
X111456843Y-74843384D01*
X110061786Y-75384492D01*
X108588201Y-75644324D01*
X107092209Y-75612988D01*
X106583615Y-75501166D01*
X106572878Y-75500000D01*
X100000000Y-75500000D01*
X100000000Y-60500000D01*
X106590788Y-60500000D01*
X106600157Y-60499114D01*
X107305124Y-60364634D01*
X108801411Y-60375080D01*
X108801411Y-60375080D01*
G37*
G36*
X158520000Y-74720000D02*
X156560000Y-74720000D01*
X156560000Y-72780000D01*
X158520000Y-72780000D01*
X158520000Y-74720000D01*
X158520000Y-74720000D01*
G37*
G36*
X154940000Y-74720000D02*
X152980000Y-74720000D01*
X152980000Y-72780000D01*
X154940000Y-72780000D01*
X154940000Y-74720000D01*
X154940000Y-74720000D01*
G37*
G36*
X177505000Y-74530000D02*
X176495000Y-74530000D01*
X176495000Y-73470000D01*
X177505000Y-73470000D01*
X177505000Y-74530000D01*
X177505000Y-74530000D01*
G37*
G36*
X170005000Y-74530000D02*
X168995000Y-74530000D01*
X168995000Y-73470000D01*
X170005000Y-73470000D01*
X170005000Y-74530000D01*
X170005000Y-74530000D01*
G37*
G36*
X133305000Y-74180000D02*
X132295000Y-74180000D01*
X132295000Y-73120000D01*
X133305000Y-73120000D01*
X133305000Y-74180000D01*
X133305000Y-74180000D01*
G37*
G36*
X140905000Y-74080000D02*
X139895000Y-74080000D01*
X139895000Y-73020000D01*
X140905000Y-73020000D01*
X140905000Y-74080000D01*
X140905000Y-74080000D01*
G37*
G36*
X122480000Y-74070000D02*
X120520000Y-74070000D01*
X120520000Y-72130000D01*
X122480000Y-72130000D01*
X122480000Y-74070000D01*
X122480000Y-74070000D01*
G37*
G36*
X118900000Y-74070000D02*
X116940000Y-74070000D01*
X116940000Y-72130000D01*
X118900000Y-72130000D01*
X118900000Y-74070000D01*
X118900000Y-74070000D01*
G37*
G36*
X129980870Y-73880010D02*
X128219730Y-73880010D01*
X128219730Y-70919990D01*
X129980870Y-70919990D01*
X129980870Y-73880010D01*
X129980870Y-73880010D01*
G37*
G36*
X125180270Y-73880010D02*
X123419130Y-73880010D01*
X123419130Y-70919990D01*
X125180270Y-70919990D01*
X125180270Y-73880010D01*
X125180270Y-73880010D01*
G37*
G36*
X161230270Y-73480010D02*
X159469130Y-73480010D01*
X159469130Y-70519990D01*
X161230270Y-70519990D01*
X161230270Y-73480010D01*
X161230270Y-73480010D01*
G37*
G36*
X166030870Y-73480010D02*
X164269730Y-73480010D01*
X164269730Y-70519990D01*
X166030870Y-70519990D01*
X166030870Y-73480010D01*
X166030870Y-73480010D01*
G37*
G36*
X177505000Y-73030000D02*
X176495000Y-73030000D01*
X176495000Y-71970000D01*
X177505000Y-71970000D01*
X177505000Y-73030000D01*
X177505000Y-73030000D01*
G37*
G36*
X170005000Y-73030000D02*
X168995000Y-73030000D01*
X168995000Y-71970000D01*
X170005000Y-71970000D01*
X170005000Y-73030000D01*
X170005000Y-73030000D01*
G37*
G36*
X133305000Y-72680000D02*
X132295000Y-72680000D01*
X132295000Y-71620000D01*
X133305000Y-71620000D01*
X133305000Y-72680000D01*
X133305000Y-72680000D01*
G37*
G36*
X140905000Y-72580000D02*
X139895000Y-72580000D01*
X139895000Y-71520000D01*
X140905000Y-71520000D01*
X140905000Y-72580000D01*
X140905000Y-72580000D01*
G37*
G36*
X173045000Y-71455000D02*
X172185000Y-71455000D01*
X172185000Y-69645000D01*
X173045000Y-69645000D01*
X173045000Y-71455000D01*
X173045000Y-71455000D01*
G37*
G36*
X175585000Y-71455000D02*
X174725000Y-71455000D01*
X174725000Y-69645000D01*
X175585000Y-69645000D01*
X175585000Y-71455000D01*
X175585000Y-71455000D01*
G37*
G36*
X174315000Y-71455000D02*
X173455000Y-71455000D01*
X173455000Y-69645000D01*
X174315000Y-69645000D01*
X174315000Y-71455000D01*
X174315000Y-71455000D01*
G37*
G36*
X171775000Y-71455000D02*
X170915000Y-71455000D01*
X170915000Y-69645000D01*
X171775000Y-69645000D01*
X171775000Y-71455000D01*
X171775000Y-71455000D01*
G37*
G36*
X137665000Y-71005000D02*
X136805000Y-71005000D01*
X136805000Y-69195000D01*
X137665000Y-69195000D01*
X137665000Y-71005000D01*
X137665000Y-71005000D01*
G37*
G36*
X138935000Y-71005000D02*
X138075000Y-71005000D01*
X138075000Y-69195000D01*
X138935000Y-69195000D01*
X138935000Y-71005000D01*
X138935000Y-71005000D01*
G37*
G36*
X135125000Y-71005000D02*
X134265000Y-71005000D01*
X134265000Y-69195000D01*
X135125000Y-69195000D01*
X135125000Y-71005000D01*
X135125000Y-71005000D01*
G37*
G36*
X136395000Y-71005000D02*
X135535000Y-71005000D01*
X135535000Y-69195000D01*
X136395000Y-69195000D01*
X136395000Y-71005000D01*
X136395000Y-71005000D01*
G37*
G36*
X126380000Y-70505000D02*
X125320000Y-70505000D01*
X125320000Y-69495000D01*
X126380000Y-69495000D01*
X126380000Y-70505000D01*
X126380000Y-70505000D01*
G37*
G36*
X127880000Y-70505000D02*
X126820000Y-70505000D01*
X126820000Y-69495000D01*
X127880000Y-69495000D01*
X127880000Y-70505000D01*
X127880000Y-70505000D01*
G37*
G36*
X164030000Y-70005000D02*
X162970000Y-70005000D01*
X162970000Y-68995000D01*
X164030000Y-68995000D01*
X164030000Y-70005000D01*
X164030000Y-70005000D01*
G37*
G36*
X162530000Y-70005000D02*
X161470000Y-70005000D01*
X161470000Y-68995000D01*
X162530000Y-68995000D01*
X162530000Y-70005000D01*
X162530000Y-70005000D01*
G37*
G36*
X105381274Y-51372416D02*
X106078616Y-51515560D01*
X106734869Y-51791423D01*
X107325045Y-52189502D01*
X107826662Y-52694633D01*
X108220611Y-53287572D01*
X108491886Y-53945735D01*
X108630090Y-54643716D01*
X108630090Y-54643726D01*
X108630156Y-54644060D01*
X108618802Y-55457161D01*
X108618726Y-55457495D01*
X108618726Y-55457507D01*
X108461089Y-56151349D01*
X108171541Y-56801685D01*
X107761191Y-57383394D01*
X107245663Y-57874324D01*
X106644607Y-58255765D01*
X105980902Y-58513200D01*
X105279840Y-58636816D01*
X104568116Y-58621908D01*
X103872836Y-58469040D01*
X103220500Y-58184041D01*
X102635940Y-57777762D01*
X102141425Y-57265676D01*
X101755796Y-56667297D01*
X101493735Y-56005407D01*
X101365226Y-55305217D01*
X101375166Y-54593409D01*
X101523173Y-53897088D01*
X101803614Y-53242771D01*
X102205802Y-52655390D01*
X102714423Y-52157311D01*
X103310097Y-51767513D01*
X103970141Y-51500838D01*
X104669408Y-51367446D01*
X105381274Y-51372416D01*
X105381274Y-51372416D01*
G37*
G36*
X175381274Y-51372416D02*
X176078616Y-51515560D01*
X176734869Y-51791423D01*
X177325045Y-52189502D01*
X177826662Y-52694633D01*
X178220611Y-53287572D01*
X178491886Y-53945735D01*
X178630090Y-54643716D01*
X178630090Y-54643726D01*
X178630156Y-54644060D01*
X178618802Y-55457161D01*
X178618726Y-55457495D01*
X178618726Y-55457507D01*
X178461089Y-56151349D01*
X178171541Y-56801685D01*
X177761191Y-57383394D01*
X177245663Y-57874324D01*
X176644607Y-58255765D01*
X175980902Y-58513200D01*
X175279840Y-58636816D01*
X174568116Y-58621908D01*
X173872836Y-58469040D01*
X173220500Y-58184041D01*
X172635940Y-57777762D01*
X172141425Y-57265676D01*
X171755796Y-56667297D01*
X171493735Y-56005407D01*
X171365226Y-55305217D01*
X171375166Y-54593409D01*
X171523173Y-53897088D01*
X171803614Y-53242771D01*
X172205802Y-52655390D01*
X172714423Y-52157311D01*
X173310097Y-51767513D01*
X173970141Y-51500838D01*
X174669408Y-51367446D01*
X175381274Y-51372416D01*
X175381274Y-51372416D01*
G37*
M02*
