G04 #@! TF.FileFunction,Legend,Bot*
%FSLAX46Y46*%
G04 Gerber Fmt 4.6, Leading zero omitted, Abs format (unit mm)*
G04 Created by KiCad (PCBNEW 4.0.1-stable) date 27.06.2016 00:57:11*
%MOMM*%
G01*
G04 APERTURE LIST*
%ADD10C,0.100000*%
%ADD11C,0.150000*%
%ADD12R,2.560000X2.560000*%
%ADD13C,2.560000*%
%ADD14O,2.292000X2.800000*%
%ADD15R,1.987200X1.987200*%
%ADD16O,1.987200X1.987200*%
%ADD17C,7.260000*%
%ADD18O,1.159160X1.761140*%
%ADD19C,15.260000*%
%ADD20C,1.960000*%
%ADD21C,2.060000*%
%ADD22C,0.254000*%
G04 APERTURE END LIST*
D10*
D11*
X176704430Y-111300000D02*
X176704430Y-90980000D01*
X171624430Y-93520000D02*
X171624430Y-111300000D01*
X176704430Y-111300000D02*
X171624430Y-111300000D01*
X176704430Y-90980000D02*
X174164430Y-90980000D01*
X171344430Y-92250000D02*
X171344430Y-90700000D01*
X174164430Y-90980000D02*
X174164430Y-93520000D01*
X174164430Y-93520000D02*
X171624430Y-93520000D01*
X171344430Y-90700000D02*
X172894430Y-90700000D01*
%LPC*%
D12*
X120000000Y-108000000D03*
D13*
X120000000Y-93000000D03*
D12*
X158000000Y-93000000D03*
D13*
X158000000Y-108000000D03*
D14*
X120530000Y-83000000D03*
X123070000Y-83000000D03*
X117990000Y-83000000D03*
X159470000Y-83000000D03*
X162010000Y-83000000D03*
X156930000Y-83000000D03*
X120530000Y-118000000D03*
X117990000Y-118000000D03*
X123070000Y-118000000D03*
X159470000Y-118000000D03*
X156930000Y-118000000D03*
X162010000Y-118000000D03*
D15*
X173180000Y-92250000D03*
D16*
X175720000Y-92250000D03*
X173180000Y-94790000D03*
X175720000Y-94790000D03*
X173180000Y-97330000D03*
X175720000Y-97330000D03*
X173180000Y-99870000D03*
X175720000Y-99870000D03*
X173180000Y-102410000D03*
X175720000Y-102410000D03*
X173180000Y-104950000D03*
X175720000Y-104950000D03*
X173180000Y-107490000D03*
X175720000Y-107490000D03*
X173180000Y-110030000D03*
X175720000Y-110030000D03*
D17*
X105000000Y-55000000D03*
X105000000Y-145000000D03*
X175000000Y-55000000D03*
X175000000Y-145000000D03*
D18*
X166730000Y-88200000D03*
X165460000Y-88200000D03*
X168000000Y-88200000D03*
X166530000Y-111800000D03*
X167800000Y-111800000D03*
X165260000Y-111800000D03*
D19*
X108000000Y-109000000D03*
X108000000Y-91000000D03*
X108000000Y-68000000D03*
X108000000Y-132000000D03*
D20*
X173540000Y-114000000D03*
X171000000Y-114000000D03*
X173540000Y-118200000D03*
X171000000Y-118200000D03*
X135540000Y-114000000D03*
X133000000Y-114000000D03*
X135540000Y-118200000D03*
X133000000Y-118200000D03*
X136000000Y-81300000D03*
X133460000Y-81300000D03*
X136000000Y-85500000D03*
X133460000Y-85500000D03*
X173250000Y-81800000D03*
X170710000Y-81800000D03*
X173250000Y-86000000D03*
X170710000Y-86000000D03*
D21*
X145000000Y-88900000D03*
X145000000Y-96400000D03*
X133000000Y-108400000D03*
X133000000Y-100900000D03*
D22*
G36*
X107843346Y-75373000D02*
X100097346Y-75373000D01*
X100097346Y-60627000D01*
X107843346Y-60627000D01*
X107843346Y-75373000D01*
X107843346Y-75373000D01*
G37*
X107843346Y-75373000D02*
X100097346Y-75373000D01*
X100097346Y-60627000D01*
X107843346Y-60627000D01*
X107843346Y-75373000D01*
G36*
X107873000Y-98373000D02*
X100127000Y-98373000D01*
X100127000Y-83627000D01*
X107873000Y-83627000D01*
X107873000Y-98373000D01*
X107873000Y-98373000D01*
G37*
X107873000Y-98373000D02*
X100127000Y-98373000D01*
X100127000Y-83627000D01*
X107873000Y-83627000D01*
X107873000Y-98373000D01*
G36*
X107873000Y-116373000D02*
X100127000Y-116373000D01*
X100127000Y-101627000D01*
X107873000Y-101627000D01*
X107873000Y-116373000D01*
X107873000Y-116373000D01*
G37*
X107873000Y-116373000D02*
X100127000Y-116373000D01*
X100127000Y-101627000D01*
X107873000Y-101627000D01*
X107873000Y-116373000D01*
G36*
X107873000Y-139373000D02*
X100127000Y-139373000D01*
X100127000Y-124627000D01*
X107873000Y-124627000D01*
X107873000Y-139373000D01*
X107873000Y-139373000D01*
G37*
X107873000Y-139373000D02*
X100127000Y-139373000D01*
X100127000Y-124627000D01*
X107873000Y-124627000D01*
X107873000Y-139373000D01*
M02*
